<?xml version="1.0" encoding="UTF-8" standalone="no"?>
<!DOCTYPE svg PUBLIC "-//W3C//DTD SVG 1.1//EN"
 "http://www.w3.org/Graphics/SVG/1.1/DTD/svg11.dtd">
<!-- Generated by graphviz version 2.43.0 (0)
 -->
<!-- Title: AnalogTemp.cpp Pages: 1 -->
<svg width="208pt" height="302pt"
 viewBox="0.00 0.00 208.08 302.00" xmlns="http://www.w3.org/2000/svg" xmlns:xlink="http://www.w3.org/1999/xlink">
<g id="graph0" class="graph" transform="scale(1 1) rotate(0) translate(4 298)">
<title>AnalogTemp.cpp</title>
<!-- Node1 -->
<g id="Node000001" class="node">
<title>Node1</title>
<g id="a_Node000001"><a xlink:title=" ">
<polygon fill="#999999" stroke="#666666" points="146.08,-294 49.08,-294 49.08,-275 146.08,-275 146.08,-294"/>
<text text-anchor="middle" x="97.58" y="-282" font-family="Helvetica,sans-Serif" font-size="10.00">AnalogTemp.cpp</text>
</a>
</g>
</g>
<!-- Node2 -->
<g id="Node000002" class="node">
<title>Node2</title>
<g id="a_Node000002"><a xlink:href="AnalogTemp_8h.html" target="_top" xlink:title=" ">
<polygon fill="white" stroke="#666666" points="86.58,-239 0.58,-239 0.58,-220 86.58,-220 86.58,-239"/>
<text text-anchor="middle" x="43.58" y="-227" font-family="Helvetica,sans-Serif" font-size="10.00">AnalogTemp.h</text>
</a>
</g>
</g>
<!-- Node1&#45;&gt;Node2 -->
<g id="edge1_Node000001_Node000002" class="edge">
<title>Node1&#45;&gt;Node2</title>
<g id="a_edge1_Node000001_Node000002"><a xlink:title=" ">
<path fill="none" stroke="#63b8ff" d="M88.66,-274.75C80.8,-267.03 69.14,-255.6 59.66,-246.28"/>
<polygon fill="#63b8ff" stroke="#63b8ff" points="61.92,-243.6 52.33,-239.09 57.01,-248.59 61.92,-243.6"/>
</a>
</g>
</g>
<!-- Node7 -->
<g id="Node000007" class="node">
<title>Node7</title>
<g id="a_Node000007"><a xlink:href="PayloadConfig_8h.html" target="_top" xlink:title="Central location for pinout and config defines.">
<polygon fill="white" stroke="#666666" points="200.08,-239 105.08,-239 105.08,-220 200.08,-220 200.08,-239"/>
<text text-anchor="middle" x="152.58" y="-227" font-family="Helvetica,sans-Serif" font-size="10.00">PayloadConfig.h</text>
</a>
</g>
</g>
<!-- Node1&#45;&gt;Node7 -->
<g id="edge9_Node000001_Node000007" class="edge">
<title>Node1&#45;&gt;Node7</title>
<g id="a_edge9_Node000001_Node000007"><a xlink:title=" ">
<path fill="none" stroke="#63b8ff" d="M106.66,-274.75C114.67,-267.03 126.53,-255.6 136.2,-246.28"/>
<polygon fill="#63b8ff" stroke="#63b8ff" points="138.89,-248.55 143.66,-239.09 134.03,-243.51 138.89,-248.55"/>
</a>
</g>
</g>
<!-- Node3 -->
<g id="Node000003" class="node">
<title>Node3</title>
<g id="a_Node000003"><a xlink:href="Sensor_8h.html" target="_top" xlink:title=" ">
<polygon fill="white" stroke="#666666" points="72.58,-184 14.58,-184 14.58,-165 72.58,-165 72.58,-184"/>
<text text-anchor="middle" x="43.58" y="-172" font-family="Helvetica,sans-Serif" font-size="10.00">Sensor.h</text>
</a>
</g>
</g>
<!-- Node2&#45;&gt;Node3 -->
<g id="edge2_Node000002_Node000003" class="edge">
<title>Node2&#45;&gt;Node3</title>
<g id="a_edge2_Node000002_Node000003"><a xlink:title=" ">
<path fill="none" stroke="#63b8ff" d="M43.58,-219.75C43.58,-212.8 43.58,-202.85 43.58,-194.13"/>
<polygon fill="#63b8ff" stroke="#63b8ff" points="47.08,-194.09 43.58,-184.09 40.08,-194.09 47.08,-194.09"/>
</a>
</g>
</g>
<!-- Node4 -->
<g id="Node000004" class="node">
<title>Node4</title>
<g id="a_Node000004"><a xlink:title=" ">
<polygon fill="#e0e0e0" stroke="#999999" points="65.08,-19 2.08,-19 2.08,0 65.08,0 65.08,-19"/>
<text text-anchor="middle" x="33.58" y="-7" font-family="Helvetica,sans-Serif" font-size="10.00">Arduino.h</text>
</a>
</g>
</g>
<!-- Node3&#45;&gt;Node4 -->
<g id="edge3_Node000003_Node000004" class="edge">
<title>Node3&#45;&gt;Node4</title>
<g id="a_edge3_Node000003_Node000004"><a xlink:title=" ">
<path fill="none" stroke="#63b8ff" d="M32.59,-164.99C23.13,-156.9 10.15,-143.81 4.58,-129 -8.54,-94.14 10.05,-51.25 22.98,-27.81"/>
<polygon fill="#63b8ff" stroke="#63b8ff" points="26.07,-29.45 28.06,-19.04 20.02,-25.94 26.07,-29.45"/>
</a>
</g>
</g>
<!-- Node5 -->
<g id="Node000005" class="node">
<title>Node5</title>
<g id="a_Node000005"><a xlink:href="Device_8h.html" target="_top" xlink:title=" ">
<polygon fill="white" stroke="#666666" points="73.08,-129 14.08,-129 14.08,-110 73.08,-110 73.08,-129"/>
<text text-anchor="middle" x="43.58" y="-117" font-family="Helvetica,sans-Serif" font-size="10.00">Device.h</text>
</a>
</g>
</g>
<!-- Node3&#45;&gt;Node5 -->
<g id="edge4_Node000003_Node000005" class="edge">
<title>Node3&#45;&gt;Node5</title>
<g id="a_edge4_Node000003_Node000005"><a xlink:title=" ">
<path fill="none" stroke="#63b8ff" d="M43.58,-164.75C43.58,-157.8 43.58,-147.85 43.58,-139.13"/>
<polygon fill="#63b8ff" stroke="#63b8ff" points="47.08,-139.09 43.58,-129.09 40.08,-139.09 47.08,-139.09"/>
</a>
</g>
</g>
<!-- Node6 -->
<g id="Node000006" class="node">
<title>Node6</title>
<g id="a_Node000006"><a xlink:href="Logger_8h.html" target="_top" xlink:title=" ">
<polygon fill="white" stroke="#666666" points="119.58,-74 61.58,-74 61.58,-55 119.58,-55 119.58,-74"/>
<text text-anchor="middle" x="90.58" y="-62" font-family="Helvetica,sans-Serif" font-size="10.00">Logger.h</text>
</a>
</g>
</g>
<!-- Node3&#45;&gt;Node6 -->
<g id="edge8_Node000003_Node000006" class="edge">
<title>Node3&#45;&gt;Node6</title>
<g id="a_edge8_Node000003_Node000006"><a xlink:title=" ">
<path fill="none" stroke="#63b8ff" d="M53.8,-164.73C62.7,-156.47 75.14,-143.26 81.58,-129 87.95,-114.87 90.05,-97.33 90.65,-84.27"/>
<polygon fill="#63b8ff" stroke="#63b8ff" points="94.15,-84.2 90.85,-74.14 87.15,-84.06 94.15,-84.2"/>
</a>
</g>
</g>
<!-- Node5&#45;&gt;Node4 -->
<g id="edge5_Node000005_Node000004" class="edge">
<title>Node5&#45;&gt;Node4</title>
<g id="a_edge5_Node000005_Node000004"><a xlink:title=" ">
<path fill="none" stroke="#63b8ff" d="M42.76,-109.66C41.14,-92.17 37.49,-52.8 35.31,-29.27"/>
<polygon fill="#63b8ff" stroke="#63b8ff" points="38.78,-28.79 34.38,-19.16 31.81,-29.44 38.78,-28.79"/>
</a>
</g>
</g>
<!-- Node5&#45;&gt;Node6 -->
<g id="edge6_Node000005_Node000006" class="edge">
<title>Node5&#45;&gt;Node6</title>
<g id="a_edge6_Node000005_Node000006"><a xlink:title=" ">
<path fill="none" stroke="#63b8ff" d="M51.34,-109.75C58.04,-102.18 67.92,-91.05 76.08,-81.84"/>
<polygon fill="#63b8ff" stroke="#63b8ff" points="78.94,-83.89 82.96,-74.09 73.71,-79.25 78.94,-83.89"/>
</a>
</g>
</g>
<!-- Node6&#45;&gt;Node4 -->
<g id="edge7_Node000006_Node000004" class="edge">
<title>Node6&#45;&gt;Node4</title>
<g id="a_edge7_Node000006_Node000004"><a xlink:title=" ">
<path fill="none" stroke="#63b8ff" d="M81.42,-54.98C73.07,-47.23 60.54,-35.58 50.4,-26.14"/>
<polygon fill="#63b8ff" stroke="#63b8ff" points="52.61,-23.42 42.9,-19.17 47.84,-28.54 52.61,-23.42"/>
</a>
</g>
</g>
<!-- Node8 -->
<g id="Node000008" class="node">
<title>Node8</title>
<g id="a_Node000008"><a xlink:title=" ">
<polygon fill="#e0e0e0" stroke="#999999" points="176.58,-184 128.58,-184 128.58,-165 176.58,-165 176.58,-184"/>
<text text-anchor="middle" x="152.58" y="-172" font-family="Helvetica,sans-Serif" font-size="10.00">Wire.h</text>
</a>
</g>
</g>
<!-- Node7&#45;&gt;Node8 -->
<g id="edge10_Node000007_Node000008" class="edge">
<title>Node7&#45;&gt;Node8</title>
<g id="a_edge10_Node000007_Node000008"><a xlink:title=" ">
<path fill="none" stroke="#63b8ff" d="M152.58,-219.75C152.58,-212.8 152.58,-202.85 152.58,-194.13"/>
<polygon fill="#63b8ff" stroke="#63b8ff" points="156.08,-194.09 152.58,-184.09 149.08,-194.09 156.08,-194.09"/>
</a>
</g>
</g>
</g>
</svg>
