<?xml version="1.0" encoding="UTF-8" standalone="no"?>
<!DOCTYPE svg PUBLIC "-//W3C//DTD SVG 1.1//EN"
 "http://www.w3.org/Graphics/SVG/1.1/DTD/svg11.dtd">
<!-- Generated by graphviz version 12.1.2 (20240928.0832)
 -->
<!-- Title: AS7331Sensor.h Pages: 1 -->
<svg width="467pt" height="252pt"
 viewBox="0.00 0.00 466.75 252.00" xmlns="http://www.w3.org/2000/svg" xmlns:xlink="http://www.w3.org/1999/xlink">

<svg id="main" version="1.1" xmlns="http://www.w3.org/2000/svg" xmlns:xlink="http://www.w3.org/1999/xlink" xml:space="preserve">

<style type="text/css"><![CDATA[
.node, .edge {opacity: 0.7;}
.node.selected, .edge.selected {opacity: 1;}
.edge:hover path { stroke: red; }
.edge:hover polygon { stroke: red; fill: red; }
]]></style>
<script type="application/ecmascript" xlink:href="svg.min.js"/>
<svg id="graph" class="graph">
<g id="graph0" class="graph" transform="scale(1 1) rotate(0) translate(4 248)">
<title>AS7331Sensor.h</title>
<!-- Node1 -->
<g id="Node000001" class="node">
<title>Node1</title>
<g id="a_Node000001"><a xlink:title=" ">
<polygon fill="#999999" stroke="#666666" points="254.75,-244 165.25,-244 165.25,-224 254.75,-224 254.75,-244"/>
<text text-anchor="middle" x="210" y="-230.5" font-family="Helvetica,sans-Serif" font-size="10.00">AS7331Sensor.h</text>
</a>
</g>
</g>
<!-- Node2 -->
<g id="Node000002" class="node">
<title>Node2</title>
<g id="a_Node000002"><a xlink:title=" ">
<polygon fill="#e0e0e0" stroke="#999999" points="106,-188 0,-188 0,-168 106,-168 106,-188"/>
<text text-anchor="middle" x="53" y="-174.5" font-family="Helvetica,sans-Serif" font-size="10.00">SparkFun_AS7331.h</text>
</a>
</g>
</g>
<!-- Node1&#45;&gt;Node2 -->
<g id="edge1_Node000001_Node000002" class="edge">
<title>Node1&#45;&gt;Node2</title>
<g id="a_edge1_Node000001_Node000002"><a xlink:title=" ">
<path fill="none" stroke="#63b8ff" d="M182.65,-223.59C157.37,-214.9 119.54,-201.89 91.27,-192.16"/>
<polygon fill="#63b8ff" stroke="#63b8ff" points="92.59,-188.91 81.99,-188.97 90.31,-195.53 92.59,-188.91"/>
</a>
</g>
</g>
<!-- Node3 -->
<g id="Node000003" class="node">
<title>Node3</title>
<g id="a_Node000003"><a xlink:title=" ">
<polygon fill="#e0e0e0" stroke="#999999" points="168.25,-188 123.75,-188 123.75,-168 168.25,-168 168.25,-188"/>
<text text-anchor="middle" x="146" y="-174.5" font-family="Helvetica,sans-Serif" font-size="10.00">Wire.h</text>
</a>
</g>
</g>
<!-- Node1&#45;&gt;Node3 -->
<g id="edge2_Node000001_Node000003" class="edge">
<title>Node1&#45;&gt;Node3</title>
<g id="a_edge2_Node000001_Node000003"><a xlink:title=" ">
<path fill="none" stroke="#63b8ff" d="M198.85,-223.59C189.67,-215.85 176.45,-204.69 165.52,-195.47"/>
<polygon fill="#63b8ff" stroke="#63b8ff" points="168.08,-193.05 158.18,-189.27 163.56,-198.4 168.08,-193.05"/>
</a>
</g>
</g>
<!-- Node4 -->
<g id="Node000004" class="node">
<title>Node4</title>
<g id="a_Node000004"><a xlink:title=" ">
<polygon fill="#e0e0e0" stroke="#999999" points="234.12,-188 185.88,-188 185.88,-168 234.12,-168 234.12,-188"/>
<text text-anchor="middle" x="210" y="-174.5" font-family="Helvetica,sans-Serif" font-size="10.00">string.h</text>
</a>
</g>
</g>
<!-- Node1&#45;&gt;Node4 -->
<g id="edge3_Node000001_Node000004" class="edge">
<title>Node1&#45;&gt;Node4</title>
<g id="a_edge3_Node000001_Node000004"><a xlink:title=" ">
<path fill="none" stroke="#63b8ff" d="M210,-223.59C210,-217.01 210,-207.96 210,-199.73"/>
<polygon fill="#63b8ff" stroke="#63b8ff" points="213.5,-199.81 210,-189.81 206.5,-199.81 213.5,-199.81"/>
</a>
</g>
</g>
<!-- Node5 -->
<g id="Node000005" class="node">
<title>Node5</title>
<g id="a_Node000005"><a xlink:href="PayloadConfig_8h.html" target="_top" xlink:title="Central location for pinout and config defines.">
<polygon fill="white" stroke="#666666" points="340,-188 252,-188 252,-168 340,-168 340,-188"/>
<text text-anchor="middle" x="296" y="-174.5" font-family="Helvetica,sans-Serif" font-size="10.00">PayloadConfig.h</text>
</a>
</g>
</g>
<!-- Node1&#45;&gt;Node5 -->
<g id="edge4_Node000001_Node000005" class="edge">
<title>Node1&#45;&gt;Node5</title>
<g id="a_edge4_Node000001_Node000005"><a xlink:title=" ">
<path fill="none" stroke="#63b8ff" d="M224.98,-223.59C237.73,-215.59 256.29,-203.93 271.24,-194.54"/>
<polygon fill="#63b8ff" stroke="#63b8ff" points="273.01,-197.57 279.62,-189.28 269.29,-191.64 273.01,-197.57"/>
</a>
</g>
</g>
<!-- Node6 -->
<g id="Node000006" class="node">
<title>Node6</title>
<g id="a_Node000006"><a xlink:href="Sensor_8h.html" target="_top" xlink:title=" ">
<polygon fill="white" stroke="#666666" points="413.5,-188 358.5,-188 358.5,-168 413.5,-168 413.5,-188"/>
<text text-anchor="middle" x="386" y="-174.5" font-family="Helvetica,sans-Serif" font-size="10.00">Sensor.h</text>
</a>
</g>
</g>
<!-- Node1&#45;&gt;Node6 -->
<g id="edge5_Node000001_Node000006" class="edge">
<title>Node1&#45;&gt;Node6</title>
<g id="a_edge5_Node000001_Node000006"><a xlink:title=" ">
<path fill="none" stroke="#63b8ff" d="M240.66,-223.59C270.26,-214.51 315.19,-200.73 347.26,-190.89"/>
<polygon fill="#63b8ff" stroke="#63b8ff" points="348.03,-194.31 356.57,-188.03 345.98,-187.62 348.03,-194.31"/>
</a>
</g>
</g>
<!-- Node7 -->
<g id="Node000007" class="node">
<title>Node7</title>
<g id="a_Node000007"><a xlink:title=" ">
<polygon fill="#e0e0e0" stroke="#999999" points="405.62,-20 348.38,-20 348.38,0 405.62,0 405.62,-20"/>
<text text-anchor="middle" x="377" y="-6.5" font-family="Helvetica,sans-Serif" font-size="10.00">Arduino.h</text>
</a>
</g>
</g>
<!-- Node6&#45;&gt;Node7 -->
<g id="edge6_Node000006_Node000007" class="edge">
<title>Node6&#45;&gt;Node7</title>
<g id="a_edge6_Node000006_Node000007"><a xlink:title=" ">
<path fill="none" stroke="#63b8ff" d="M375.15,-167.53C366.47,-159.18 354.97,-146.16 350,-132 337.76,-97.11 354.11,-54.56 366.19,-30.34"/>
<polygon fill="#63b8ff" stroke="#63b8ff" points="369.2,-32.13 370.77,-21.65 363,-28.86 369.2,-32.13"/>
</a>
</g>
</g>
<!-- Node8 -->
<g id="Node000008" class="node">
<title>Node8</title>
<g id="a_Node000008"><a xlink:href="Device_8h.html" target="_top" xlink:title=" ">
<polygon fill="white" stroke="#666666" points="413.5,-132 358.5,-132 358.5,-112 413.5,-112 413.5,-132"/>
<text text-anchor="middle" x="386" y="-118.5" font-family="Helvetica,sans-Serif" font-size="10.00">Device.h</text>
</a>
</g>
</g>
<!-- Node6&#45;&gt;Node8 -->
<g id="edge7_Node000006_Node000008" class="edge">
<title>Node6&#45;&gt;Node8</title>
<g id="a_edge7_Node000006_Node000008"><a xlink:title=" ">
<path fill="none" stroke="#63b8ff" d="M386,-167.59C386,-161.01 386,-151.96 386,-143.73"/>
<polygon fill="#63b8ff" stroke="#63b8ff" points="389.5,-143.81 386,-133.81 382.5,-143.81 389.5,-143.81"/>
</a>
</g>
</g>
<!-- Node9 -->
<g id="Node000009" class="node">
<title>Node9</title>
<g id="a_Node000009"><a xlink:href="Logger_8h.html" target="_top" xlink:title=" ">
<polygon fill="white" stroke="#666666" points="458.75,-76 405.25,-76 405.25,-56 458.75,-56 458.75,-76"/>
<text text-anchor="middle" x="432" y="-62.5" font-family="Helvetica,sans-Serif" font-size="10.00">Logger.h</text>
</a>
</g>
</g>
<!-- Node6&#45;&gt;Node9 -->
<g id="edge11_Node000006_Node000009" class="edge">
<title>Node6&#45;&gt;Node9</title>
<g id="a_edge11_Node000006_Node000009"><a xlink:title=" ">
<path fill="none" stroke="#63b8ff" d="M396.3,-167.73C404.94,-159.31 416.83,-146.08 423,-132 429.17,-117.92 431.33,-100.64 432,-87.43"/>
<polygon fill="#63b8ff" stroke="#63b8ff" points="435.49,-87.85 432.23,-77.77 428.5,-87.68 435.49,-87.85"/>
</a>
</g>
</g>
<!-- Node8&#45;&gt;Node7 -->
<g id="edge8_Node000008_Node000007" class="edge">
<title>Node8&#45;&gt;Node7</title>
<g id="a_edge8_Node000008_Node000007"><a xlink:title=" ">
<path fill="none" stroke="#63b8ff" d="M385.23,-111.62C383.79,-94.01 380.65,-55.59 378.69,-31.65"/>
<polygon fill="#63b8ff" stroke="#63b8ff" points="382.19,-31.54 377.89,-21.86 375.22,-32.12 382.19,-31.54"/>
</a>
</g>
</g>
<!-- Node8&#45;&gt;Node9 -->
<g id="edge9_Node000008_Node000009" class="edge">
<title>Node8&#45;&gt;Node9</title>
<g id="a_edge9_Node000008_Node000009"><a xlink:title=" ">
<path fill="none" stroke="#63b8ff" d="M394.01,-111.59C400.28,-104.24 409.17,-93.8 416.78,-84.87"/>
<polygon fill="#63b8ff" stroke="#63b8ff" points="419.28,-87.33 423.1,-77.45 413.95,-82.79 419.28,-87.33"/>
</a>
</g>
</g>
<!-- Node9&#45;&gt;Node7 -->
<g id="edge10_Node000009_Node000007" class="edge">
<title>Node9&#45;&gt;Node7</title>
<g id="a_edge10_Node000009_Node000007"><a xlink:title=" ">
<path fill="none" stroke="#63b8ff" d="M422.42,-55.59C414.77,-48.08 403.84,-37.35 394.62,-28.3"/>
<polygon fill="#63b8ff" stroke="#63b8ff" points="397.14,-25.87 387.55,-21.36 392.23,-30.86 397.14,-25.87"/>
</a>
</g>
</g>
</g>
</svg>
</svg>

<style type='text/css'>
<![CDATA[
[data-mouse-over-selected='false'] { opacity: 0.7; }
[data-mouse-over-selected='true']  { opacity: 1.0; }
]]>
</style>
<script type="application/ecmascript"><![CDATA[
document.addEventListener('DOMContentLoaded', (event) => {
  highlightEdges();
  highlightAdjacentNodes();
});
]]></script>
</svg>
