<?xml version="1.0" encoding="UTF-8" standalone="no"?>
<!DOCTYPE svg PUBLIC "-//W3C//DTD SVG 1.1//EN"
 "http://www.w3.org/Graphics/SVG/1.1/DTD/svg11.dtd">
<!-- Generated by graphviz version 12.1.2 (20240928.0832)
 -->
<!-- Title: AS7331Sensor.cpp Pages: 1 -->
<svg width="467pt" height="308pt"
 viewBox="0.00 0.00 466.75 308.00" xmlns="http://www.w3.org/2000/svg" xmlns:xlink="http://www.w3.org/1999/xlink">
<g id="graph0" class="graph" transform="scale(1 1) rotate(0) translate(4 304)">
<title>AS7331Sensor.cpp</title>
<!-- Node1 -->
<g id="Node000001" class="node">
<title>Node1</title>
<g id="a_Node000001"><a xlink:title=" ">
<polygon fill="#999999" stroke="#666666" points="181,-300 81,-300 81,-280 181,-280 181,-300"/>
<text text-anchor="middle" x="131" y="-286.5" font-family="Helvetica,sans-Serif" font-size="10.00">AS7331Sensor.cpp</text>
</a>
</g>
</g>
<!-- Node2 -->
<g id="Node000002" class="node">
<title>Node2</title>
<g id="a_Node000002"><a xlink:href="AS7331Sensor_8h.html" target="_top" xlink:title=" ">
<polygon fill="white" stroke="#666666" points="222.75,-244 133.25,-244 133.25,-224 222.75,-224 222.75,-244"/>
<text text-anchor="middle" x="178" y="-230.5" font-family="Helvetica,sans-Serif" font-size="10.00">AS7331Sensor.h</text>
</a>
</g>
</g>
<!-- Node1&#45;&gt;Node2 -->
<g id="edge1_Node000001_Node000002" class="edge">
<title>Node1&#45;&gt;Node2</title>
<g id="a_edge1_Node000001_Node000002"><a xlink:title=" ">
<path fill="none" stroke="#63b8ff" d="M139.19,-279.59C145.59,-272.24 154.68,-261.8 162.45,-252.87"/>
<polygon fill="#63b8ff" stroke="#63b8ff" points="164.99,-255.28 168.91,-245.44 159.71,-250.69 164.99,-255.28"/>
</a>
</g>
</g>
<!-- Node3 -->
<g id="Node000003" class="node">
<title>Node3</title>
<g id="a_Node000003"><a xlink:title=" ">
<polygon fill="#e0e0e0" stroke="#999999" points="106,-188 0,-188 0,-168 106,-168 106,-188"/>
<text text-anchor="middle" x="53" y="-174.5" font-family="Helvetica,sans-Serif" font-size="10.00">SparkFun_AS7331.h</text>
</a>
</g>
</g>
<!-- Node1&#45;&gt;Node3 -->
<g id="edge13_Node000001_Node000003" class="edge">
<title>Node1&#45;&gt;Node3</title>
<g id="a_edge13_Node000001_Node000003"><a xlink:title=" ">
<path fill="none" stroke="#63b8ff" d="M124.35,-279.62C111.51,-261.52 83.1,-221.45 66.26,-197.7"/>
<polygon fill="#63b8ff" stroke="#63b8ff" points="69.15,-195.72 60.51,-189.59 63.44,-199.77 69.15,-195.72"/>
</a>
</g>
</g>
<!-- Node2&#45;&gt;Node3 -->
<g id="edge2_Node000002_Node000003" class="edge">
<title>Node2&#45;&gt;Node3</title>
<g id="a_edge2_Node000002_Node000003"><a xlink:title=" ">
<path fill="none" stroke="#63b8ff" d="M156.23,-223.59C136.63,-215.13 107.57,-202.58 85.28,-192.94"/>
<polygon fill="#63b8ff" stroke="#63b8ff" points="86.9,-189.83 76.33,-189.08 84.12,-196.26 86.9,-189.83"/>
</a>
</g>
</g>
<!-- Node4 -->
<g id="Node000004" class="node">
<title>Node4</title>
<g id="a_Node000004"><a xlink:title=" ">
<polygon fill="#e0e0e0" stroke="#999999" points="168.25,-188 123.75,-188 123.75,-168 168.25,-168 168.25,-188"/>
<text text-anchor="middle" x="146" y="-174.5" font-family="Helvetica,sans-Serif" font-size="10.00">Wire.h</text>
</a>
</g>
</g>
<!-- Node2&#45;&gt;Node4 -->
<g id="edge3_Node000002_Node000004" class="edge">
<title>Node2&#45;&gt;Node4</title>
<g id="a_edge3_Node000002_Node000004"><a xlink:title=" ">
<path fill="none" stroke="#63b8ff" d="M172.43,-223.59C168.25,-216.55 162.4,-206.67 157.26,-198"/>
<polygon fill="#63b8ff" stroke="#63b8ff" points="160.39,-196.42 152.28,-189.6 154.37,-199.99 160.39,-196.42"/>
</a>
</g>
</g>
<!-- Node5 -->
<g id="Node000005" class="node">
<title>Node5</title>
<g id="a_Node000005"><a xlink:title=" ">
<polygon fill="#e0e0e0" stroke="#999999" points="234.12,-188 185.88,-188 185.88,-168 234.12,-168 234.12,-188"/>
<text text-anchor="middle" x="210" y="-174.5" font-family="Helvetica,sans-Serif" font-size="10.00">string.h</text>
</a>
</g>
</g>
<!-- Node2&#45;&gt;Node5 -->
<g id="edge4_Node000002_Node000005" class="edge">
<title>Node2&#45;&gt;Node5</title>
<g id="a_edge4_Node000002_Node000005"><a xlink:title=" ">
<path fill="none" stroke="#63b8ff" d="M183.57,-223.59C187.75,-216.55 193.6,-206.67 198.74,-198"/>
<polygon fill="#63b8ff" stroke="#63b8ff" points="201.63,-199.99 203.72,-189.6 195.61,-196.42 201.63,-199.99"/>
</a>
</g>
</g>
<!-- Node6 -->
<g id="Node000006" class="node">
<title>Node6</title>
<g id="a_Node000006"><a xlink:href="PayloadConfig_8h.html" target="_top" xlink:title="Central location for pinout and config defines.">
<polygon fill="white" stroke="#666666" points="340,-188 252,-188 252,-168 340,-168 340,-188"/>
<text text-anchor="middle" x="296" y="-174.5" font-family="Helvetica,sans-Serif" font-size="10.00">PayloadConfig.h</text>
</a>
</g>
</g>
<!-- Node2&#45;&gt;Node6 -->
<g id="edge5_Node000002_Node000006" class="edge">
<title>Node2&#45;&gt;Node6</title>
<g id="a_edge5_Node000002_Node000006"><a xlink:title=" ">
<path fill="none" stroke="#63b8ff" d="M198.55,-223.59C216.88,-215.21 243.99,-202.8 264.96,-193.21"/>
<polygon fill="#63b8ff" stroke="#63b8ff" points="266.27,-196.45 273.91,-189.11 263.36,-190.09 266.27,-196.45"/>
</a>
</g>
</g>
<!-- Node7 -->
<g id="Node000007" class="node">
<title>Node7</title>
<g id="a_Node000007"><a xlink:href="Sensor_8h.html" target="_top" xlink:title=" ">
<polygon fill="white" stroke="#666666" points="413.5,-188 358.5,-188 358.5,-168 413.5,-168 413.5,-188"/>
<text text-anchor="middle" x="386" y="-174.5" font-family="Helvetica,sans-Serif" font-size="10.00">Sensor.h</text>
</a>
</g>
</g>
<!-- Node2&#45;&gt;Node7 -->
<g id="edge6_Node000002_Node000007" class="edge">
<title>Node2&#45;&gt;Node7</title>
<g id="a_edge6_Node000002_Node000007"><a xlink:title=" ">
<path fill="none" stroke="#63b8ff" d="M214.23,-223.59C251.52,-213.91 309.4,-198.89 347.5,-189"/>
<polygon fill="#63b8ff" stroke="#63b8ff" points="347.9,-192.51 356.7,-186.61 346.14,-185.73 347.9,-192.51"/>
</a>
</g>
</g>
<!-- Node8 -->
<g id="Node000008" class="node">
<title>Node8</title>
<g id="a_Node000008"><a xlink:title=" ">
<polygon fill="#e0e0e0" stroke="#999999" points="405.62,-20 348.38,-20 348.38,0 405.62,0 405.62,-20"/>
<text text-anchor="middle" x="377" y="-6.5" font-family="Helvetica,sans-Serif" font-size="10.00">Arduino.h</text>
</a>
</g>
</g>
<!-- Node7&#45;&gt;Node8 -->
<g id="edge7_Node000007_Node000008" class="edge">
<title>Node7&#45;&gt;Node8</title>
<g id="a_edge7_Node000007_Node000008"><a xlink:title=" ">
<path fill="none" stroke="#63b8ff" d="M375.15,-167.53C366.47,-159.18 354.97,-146.16 350,-132 337.76,-97.11 354.11,-54.56 366.19,-30.34"/>
<polygon fill="#63b8ff" stroke="#63b8ff" points="369.2,-32.13 370.77,-21.65 363,-28.86 369.2,-32.13"/>
</a>
</g>
</g>
<!-- Node9 -->
<g id="Node000009" class="node">
<title>Node9</title>
<g id="a_Node000009"><a xlink:href="Device_8h.html" target="_top" xlink:title=" ">
<polygon fill="white" stroke="#666666" points="413.5,-132 358.5,-132 358.5,-112 413.5,-112 413.5,-132"/>
<text text-anchor="middle" x="386" y="-118.5" font-family="Helvetica,sans-Serif" font-size="10.00">Device.h</text>
</a>
</g>
</g>
<!-- Node7&#45;&gt;Node9 -->
<g id="edge8_Node000007_Node000009" class="edge">
<title>Node7&#45;&gt;Node9</title>
<g id="a_edge8_Node000007_Node000009"><a xlink:title=" ">
<path fill="none" stroke="#63b8ff" d="M386,-167.59C386,-161.01 386,-151.96 386,-143.73"/>
<polygon fill="#63b8ff" stroke="#63b8ff" points="389.5,-143.81 386,-133.81 382.5,-143.81 389.5,-143.81"/>
</a>
</g>
</g>
<!-- Node10 -->
<g id="Node000010" class="node">
<title>Node10</title>
<g id="a_Node000010"><a xlink:href="Logger_8h.html" target="_top" xlink:title=" ">
<polygon fill="white" stroke="#666666" points="458.75,-76 405.25,-76 405.25,-56 458.75,-56 458.75,-76"/>
<text text-anchor="middle" x="432" y="-62.5" font-family="Helvetica,sans-Serif" font-size="10.00">Logger.h</text>
</a>
</g>
</g>
<!-- Node7&#45;&gt;Node10 -->
<g id="edge12_Node000007_Node000010" class="edge">
<title>Node7&#45;&gt;Node10</title>
<g id="a_edge12_Node000007_Node000010"><a xlink:title=" ">
<path fill="none" stroke="#63b8ff" d="M396.3,-167.73C404.94,-159.31 416.83,-146.08 423,-132 429.17,-117.92 431.33,-100.64 432,-87.43"/>
<polygon fill="#63b8ff" stroke="#63b8ff" points="435.49,-87.85 432.23,-77.77 428.5,-87.68 435.49,-87.85"/>
</a>
</g>
</g>
<!-- Node9&#45;&gt;Node8 -->
<g id="edge9_Node000009_Node000008" class="edge">
<title>Node9&#45;&gt;Node8</title>
<g id="a_edge9_Node000009_Node000008"><a xlink:title=" ">
<path fill="none" stroke="#63b8ff" d="M385.23,-111.62C383.79,-94.01 380.65,-55.59 378.69,-31.65"/>
<polygon fill="#63b8ff" stroke="#63b8ff" points="382.19,-31.54 377.89,-21.86 375.22,-32.12 382.19,-31.54"/>
</a>
</g>
</g>
<!-- Node9&#45;&gt;Node10 -->
<g id="edge10_Node000009_Node000010" class="edge">
<title>Node9&#45;&gt;Node10</title>
<g id="a_edge10_Node000009_Node000010"><a xlink:title=" ">
<path fill="none" stroke="#63b8ff" d="M394.01,-111.59C400.28,-104.24 409.17,-93.8 416.78,-84.87"/>
<polygon fill="#63b8ff" stroke="#63b8ff" points="419.28,-87.33 423.1,-77.45 413.95,-82.79 419.28,-87.33"/>
</a>
</g>
</g>
<!-- Node10&#45;&gt;Node8 -->
<g id="edge11_Node000010_Node000008" class="edge">
<title>Node10&#45;&gt;Node8</title>
<g id="a_edge11_Node000010_Node000008"><a xlink:title=" ">
<path fill="none" stroke="#63b8ff" d="M422.42,-55.59C414.77,-48.08 403.84,-37.35 394.62,-28.3"/>
<polygon fill="#63b8ff" stroke="#63b8ff" points="397.14,-25.87 387.55,-21.36 392.23,-30.86 397.14,-25.87"/>
</a>
</g>
</g>
</g>
</svg>
