<?xml version="1.0" encoding="UTF-8" standalone="no"?>
<!DOCTYPE svg PUBLIC "-//W3C//DTD SVG 1.1//EN"
 "http://www.w3.org/Graphics/SVG/1.1/DTD/svg11.dtd">
<!-- Generated by graphviz version 12.1.2 (20240928.0832)
 -->
<!-- Title: BME280Sensor.cpp Pages: 1 -->
<svg width="280pt" height="308pt"
 viewBox="0.00 0.00 279.96 308.00" xmlns="http://www.w3.org/2000/svg" xmlns:xlink="http://www.w3.org/1999/xlink">

<svg id="main" version="1.1" xmlns="http://www.w3.org/2000/svg" xmlns:xlink="http://www.w3.org/1999/xlink" xml:space="preserve">

<style type="text/css"><![CDATA[
.node, .edge {opacity: 0.7;}
.node.selected, .edge.selected {opacity: 1;}
.edge:hover path { stroke: red; }
.edge:hover polygon { stroke: red; fill: red; }
]]></style>
<script type="application/ecmascript" xlink:href="svg.min.js"/>
<svg id="graph" class="graph">
<g id="graph0" class="graph" transform="scale(1 1) rotate(0) translate(4 304)">
<title>BME280Sensor.cpp</title>
<!-- Node1 -->
<g id="Node000001" class="node">
<title>Node1</title>
<g id="a_Node000001"><a xlink:title=" ">
<polygon fill="#999999" stroke="#666666" points="231.83,-300 128.83,-300 128.83,-280 231.83,-280 231.83,-300"/>
<text text-anchor="middle" x="180.33" y="-286.5" font-family="Helvetica,sans-Serif" font-size="10.00">BME280Sensor.cpp</text>
</a>
</g>
</g>
<!-- Node2 -->
<g id="Node000002" class="node">
<title>Node2</title>
<g id="a_Node000002"><a xlink:href="BME280Sensor_8h.html" target="_top" xlink:title=" ">
<polygon fill="white" stroke="#666666" points="134.58,-244 42.08,-244 42.08,-224 134.58,-224 134.58,-244"/>
<text text-anchor="middle" x="88.33" y="-230.5" font-family="Helvetica,sans-Serif" font-size="10.00">BME280Sensor.h</text>
</a>
</g>
</g>
<!-- Node1&#45;&gt;Node2 -->
<g id="edge1_Node000001_Node000002" class="edge">
<title>Node1&#45;&gt;Node2</title>
<g id="a_edge1_Node000001_Node000002"><a xlink:title=" ">
<path fill="none" stroke="#63b8ff" d="M164.31,-279.59C150.54,-271.51 130.43,-259.71 114.36,-250.27"/>
<polygon fill="#63b8ff" stroke="#63b8ff" points="116.18,-247.29 105.79,-245.25 112.64,-253.33 116.18,-247.29"/>
</a>
</g>
</g>
<!-- Node8 -->
<g id="Node000008" class="node">
<title>Node8</title>
<g id="a_Node000008"><a xlink:title=" ">
<polygon fill="#e0e0e0" stroke="#999999" points="208.21,-244 152.46,-244 152.46,-224 208.21,-224 208.21,-244"/>
<text text-anchor="middle" x="180.33" y="-230.5" font-family="Helvetica,sans-Serif" font-size="10.00">algorithm</text>
</a>
</g>
</g>
<!-- Node1&#45;&gt;Node8 -->
<g id="edge10_Node000001_Node000008" class="edge">
<title>Node1&#45;&gt;Node8</title>
<g id="a_edge10_Node000001_Node000008"><a xlink:title=" ">
<path fill="none" stroke="#63b8ff" d="M180.33,-279.59C180.33,-273.01 180.33,-263.96 180.33,-255.73"/>
<polygon fill="#63b8ff" stroke="#63b8ff" points="183.83,-255.81 180.33,-245.81 176.83,-255.81 183.83,-255.81"/>
</a>
</g>
</g>
<!-- Node9 -->
<g id="Node000009" class="node">
<title>Node9</title>
<g id="a_Node000009"><a xlink:title=" ">
<polygon fill="#e0e0e0" stroke="#999999" points="271.96,-244 226.71,-244 226.71,-224 271.96,-224 271.96,-244"/>
<text text-anchor="middle" x="249.33" y="-230.5" font-family="Helvetica,sans-Serif" font-size="10.00">cstdint</text>
</a>
</g>
</g>
<!-- Node1&#45;&gt;Node9 -->
<g id="edge11_Node000001_Node000009" class="edge">
<title>Node1&#45;&gt;Node9</title>
<g id="a_edge11_Node000001_Node000009"><a xlink:title=" ">
<path fill="none" stroke="#63b8ff" d="M192.35,-279.59C202.35,-271.77 216.8,-260.46 228.64,-251.19"/>
<polygon fill="#63b8ff" stroke="#63b8ff" points="230.54,-254.15 236.26,-245.23 226.23,-248.64 230.54,-254.15"/>
</a>
</g>
</g>
<!-- Node3 -->
<g id="Node000003" class="node">
<title>Node3</title>
<g id="a_Node000003"><a xlink:href="Sensor_8h.html" target="_top" xlink:title=" ">
<polygon fill="white" stroke="#666666" points="67.83,-188 12.83,-188 12.83,-168 67.83,-168 67.83,-188"/>
<text text-anchor="middle" x="40.33" y="-174.5" font-family="Helvetica,sans-Serif" font-size="10.00">Sensor.h</text>
</a>
</g>
</g>
<!-- Node2&#45;&gt;Node3 -->
<g id="edge2_Node000002_Node000003" class="edge">
<title>Node2&#45;&gt;Node3</title>
<g id="a_edge2_Node000002_Node000003"><a xlink:title=" ">
<path fill="none" stroke="#63b8ff" d="M79.97,-223.59C73.43,-216.24 64.15,-205.8 56.21,-196.87"/>
<polygon fill="#63b8ff" stroke="#63b8ff" points="58.86,-194.58 49.6,-189.43 53.63,-199.23 58.86,-194.58"/>
</a>
</g>
</g>
<!-- Node7 -->
<g id="Node000007" class="node">
<title>Node7</title>
<g id="a_Node000007"><a xlink:title=" ">
<polygon fill="#e0e0e0" stroke="#999999" points="189.21,-188 85.46,-188 85.46,-168 189.21,-168 189.21,-188"/>
<text text-anchor="middle" x="137.33" y="-174.5" font-family="Helvetica,sans-Serif" font-size="10.00">SparkFunBME280.h</text>
</a>
</g>
</g>
<!-- Node2&#45;&gt;Node7 -->
<g id="edge9_Node000002_Node000007" class="edge">
<title>Node2&#45;&gt;Node7</title>
<g id="a_edge9_Node000002_Node000007"><a xlink:title=" ">
<path fill="none" stroke="#63b8ff" d="M96.87,-223.59C103.61,-216.16 113.22,-205.58 121.38,-196.58"/>
<polygon fill="#63b8ff" stroke="#63b8ff" points="123.75,-199.18 127.88,-189.42 118.57,-194.47 123.75,-199.18"/>
</a>
</g>
</g>
<!-- Node4 -->
<g id="Node000004" class="node">
<title>Node4</title>
<g id="a_Node000004"><a xlink:title=" ">
<polygon fill="#e0e0e0" stroke="#999999" points="59.96,-20 2.71,-20 2.71,0 59.96,0 59.96,-20"/>
<text text-anchor="middle" x="31.33" y="-6.5" font-family="Helvetica,sans-Serif" font-size="10.00">Arduino.h</text>
</a>
</g>
</g>
<!-- Node3&#45;&gt;Node4 -->
<g id="edge3_Node000003_Node000004" class="edge">
<title>Node3&#45;&gt;Node4</title>
<g id="a_edge3_Node000003_Node000004"><a xlink:title=" ">
<path fill="none" stroke="#63b8ff" d="M29.48,-167.53C20.81,-159.18 9.3,-146.16 4.33,-132 -7.91,-97.11 8.44,-54.56 20.52,-30.34"/>
<polygon fill="#63b8ff" stroke="#63b8ff" points="23.53,-32.13 25.1,-21.65 17.34,-28.86 23.53,-32.13"/>
</a>
</g>
</g>
<!-- Node5 -->
<g id="Node000005" class="node">
<title>Node5</title>
<g id="a_Node000005"><a xlink:href="Device_8h.html" target="_top" xlink:title=" ">
<polygon fill="white" stroke="#666666" points="67.83,-132 12.83,-132 12.83,-112 67.83,-112 67.83,-132"/>
<text text-anchor="middle" x="40.33" y="-118.5" font-family="Helvetica,sans-Serif" font-size="10.00">Device.h</text>
</a>
</g>
</g>
<!-- Node3&#45;&gt;Node5 -->
<g id="edge4_Node000003_Node000005" class="edge">
<title>Node3&#45;&gt;Node5</title>
<g id="a_edge4_Node000003_Node000005"><a xlink:title=" ">
<path fill="none" stroke="#63b8ff" d="M40.33,-167.59C40.33,-161.01 40.33,-151.96 40.33,-143.73"/>
<polygon fill="#63b8ff" stroke="#63b8ff" points="43.83,-143.81 40.33,-133.81 36.83,-143.81 43.83,-143.81"/>
</a>
</g>
</g>
<!-- Node6 -->
<g id="Node000006" class="node">
<title>Node6</title>
<g id="a_Node000006"><a xlink:href="Logger_8h.html" target="_top" xlink:title=" ">
<polygon fill="white" stroke="#666666" points="113.08,-76 59.58,-76 59.58,-56 113.08,-56 113.08,-76"/>
<text text-anchor="middle" x="86.33" y="-62.5" font-family="Helvetica,sans-Serif" font-size="10.00">Logger.h</text>
</a>
</g>
</g>
<!-- Node3&#45;&gt;Node6 -->
<g id="edge8_Node000003_Node000006" class="edge">
<title>Node3&#45;&gt;Node6</title>
<g id="a_edge8_Node000003_Node000006"><a xlink:title=" ">
<path fill="none" stroke="#63b8ff" d="M50.64,-167.73C59.28,-159.31 71.16,-146.08 77.33,-132 83.5,-117.92 85.67,-100.64 86.34,-87.43"/>
<polygon fill="#63b8ff" stroke="#63b8ff" points="89.83,-87.85 86.57,-77.77 82.83,-87.68 89.83,-87.85"/>
</a>
</g>
</g>
<!-- Node5&#45;&gt;Node4 -->
<g id="edge5_Node000005_Node000004" class="edge">
<title>Node5&#45;&gt;Node4</title>
<g id="a_edge5_Node000005_Node000004"><a xlink:title=" ">
<path fill="none" stroke="#63b8ff" d="M39.57,-111.62C38.12,-94.01 34.98,-55.59 33.02,-31.65"/>
<polygon fill="#63b8ff" stroke="#63b8ff" points="36.53,-31.54 32.22,-21.86 29.55,-32.12 36.53,-31.54"/>
</a>
</g>
</g>
<!-- Node5&#45;&gt;Node6 -->
<g id="edge6_Node000005_Node000006" class="edge">
<title>Node5&#45;&gt;Node6</title>
<g id="a_edge6_Node000005_Node000006"><a xlink:title=" ">
<path fill="none" stroke="#63b8ff" d="M48.35,-111.59C54.61,-104.24 63.51,-93.8 71.11,-84.87"/>
<polygon fill="#63b8ff" stroke="#63b8ff" points="73.61,-87.33 77.43,-77.45 68.28,-82.79 73.61,-87.33"/>
</a>
</g>
</g>
<!-- Node6&#45;&gt;Node4 -->
<g id="edge7_Node000006_Node000004" class="edge">
<title>Node6&#45;&gt;Node4</title>
<g id="a_edge7_Node000006_Node000004"><a xlink:title=" ">
<path fill="none" stroke="#63b8ff" d="M76.75,-55.59C69.1,-48.08 58.18,-37.35 48.96,-28.3"/>
<polygon fill="#63b8ff" stroke="#63b8ff" points="51.47,-25.87 41.88,-21.36 46.57,-30.86 51.47,-25.87"/>
</a>
</g>
</g>
</g>
</svg>
</svg>

<style type='text/css'>
<![CDATA[
[data-mouse-over-selected='false'] { opacity: 0.7; }
[data-mouse-over-selected='true']  { opacity: 1.0; }
]]>
</style>
<script type="application/ecmascript"><![CDATA[
document.addEventListener('DOMContentLoaded', (event) => {
  highlightEdges();
  highlightAdjacentNodes();
});
]]></script>
</svg>
