<?xml version="1.0" encoding="UTF-8" standalone="no"?>
<!DOCTYPE svg PUBLIC "-//W3C//DTD SVG 1.1//EN"
 "http://www.w3.org/Graphics/SVG/1.1/DTD/svg11.dtd">
<!-- Generated by graphviz version 12.1.2 (20240928.0832)
 -->
<!-- Title: BME680Sensor.cpp Pages: 1 -->
<svg width="632pt" height="308pt"
 viewBox="0.00 0.00 632.12 308.00" xmlns="http://www.w3.org/2000/svg" xmlns:xlink="http://www.w3.org/1999/xlink">
<g id="graph0" class="graph" transform="scale(1 1) rotate(0) translate(4 304)">
<title>BME680Sensor.cpp</title>
<!-- Node1 -->
<g id="Node000001" class="node">
<title>Node1</title>
<g id="a_Node000001"><a xlink:title=" ">
<polygon fill="#999999" stroke="#666666" points="362.88,-300 259.88,-300 259.88,-280 362.88,-280 362.88,-300"/>
<text text-anchor="middle" x="311.38" y="-286.5" font-family="Helvetica,sans-Serif" font-size="10.00">BME680Sensor.cpp</text>
</a>
</g>
</g>
<!-- Node2 -->
<g id="Node000002" class="node">
<title>Node2</title>
<g id="a_Node000002"><a xlink:href="BME680Sensor_8h.html" target="_top" xlink:title=" ">
<polygon fill="white" stroke="#666666" points="357.62,-244 265.12,-244 265.12,-224 357.62,-224 357.62,-244"/>
<text text-anchor="middle" x="311.38" y="-230.5" font-family="Helvetica,sans-Serif" font-size="10.00">BME680Sensor.h</text>
</a>
</g>
</g>
<!-- Node1&#45;&gt;Node2 -->
<g id="edge1_Node000001_Node000002" class="edge">
<title>Node1&#45;&gt;Node2</title>
<g id="a_edge1_Node000001_Node000002"><a xlink:title=" ">
<path fill="none" stroke="#63b8ff" d="M311.38,-279.59C311.38,-273.01 311.38,-263.96 311.38,-255.73"/>
<polygon fill="#63b8ff" stroke="#63b8ff" points="314.88,-255.81 311.38,-245.81 307.88,-255.81 314.88,-255.81"/>
</a>
</g>
</g>
<!-- Node3 -->
<g id="Node000003" class="node">
<title>Node3</title>
<g id="a_Node000003"><a xlink:title=" ">
<polygon fill="#e0e0e0" stroke="#999999" points="100.75,-188 0,-188 0,-168 100.75,-168 100.75,-188"/>
<text text-anchor="middle" x="50.38" y="-174.5" font-family="Helvetica,sans-Serif" font-size="10.00">Adafruit_BME680.h</text>
</a>
</g>
</g>
<!-- Node2&#45;&gt;Node3 -->
<g id="edge2_Node000002_Node000003" class="edge">
<title>Node2&#45;&gt;Node3</title>
<g id="a_edge2_Node000002_Node000003"><a xlink:title=" ">
<path fill="none" stroke="#63b8ff" d="M265.61,-223.53C221.49,-214.4 154.6,-200.56 107.11,-190.74"/>
<polygon fill="#63b8ff" stroke="#63b8ff" points="108.07,-187.36 97.57,-188.76 106.65,-194.22 108.07,-187.36"/>
</a>
</g>
</g>
<!-- Node4 -->
<g id="Node000004" class="node">
<title>Node4</title>
<g id="a_Node000004"><a xlink:title=" ">
<polygon fill="#e0e0e0" stroke="#999999" points="212.38,-188 118.38,-188 118.38,-168 212.38,-168 212.38,-188"/>
<text text-anchor="middle" x="165.38" y="-174.5" font-family="Helvetica,sans-Serif" font-size="10.00">Adafruit_Sensor.h</text>
</a>
</g>
</g>
<!-- Node2&#45;&gt;Node4 -->
<g id="edge3_Node000002_Node000004" class="edge">
<title>Node2&#45;&gt;Node4</title>
<g id="a_edge3_Node000002_Node000004"><a xlink:title=" ">
<path fill="none" stroke="#63b8ff" d="M285.94,-223.59C262.64,-214.97 227.88,-202.12 201.66,-192.42"/>
<polygon fill="#63b8ff" stroke="#63b8ff" points="203.02,-189.19 192.42,-189 200.59,-195.76 203.02,-189.19"/>
</a>
</g>
</g>
<!-- Node5 -->
<g id="Node000005" class="node">
<title>Node5</title>
<g id="a_Node000005"><a xlink:title=" ">
<polygon fill="#e0e0e0" stroke="#999999" points="270.75,-188 230,-188 230,-168 270.75,-168 270.75,-188"/>
<text text-anchor="middle" x="250.38" y="-174.5" font-family="Helvetica,sans-Serif" font-size="10.00">SPI.h</text>
</a>
</g>
</g>
<!-- Node2&#45;&gt;Node5 -->
<g id="edge4_Node000002_Node000005" class="edge">
<title>Node2&#45;&gt;Node5</title>
<g id="a_edge4_Node000002_Node000005"><a xlink:title=" ">
<path fill="none" stroke="#63b8ff" d="M300.75,-223.59C292.09,-215.93 279.64,-204.91 269.29,-195.75"/>
<polygon fill="#63b8ff" stroke="#63b8ff" points="271.82,-193.31 262.01,-189.3 267.18,-198.55 271.82,-193.31"/>
</a>
</g>
</g>
<!-- Node6 -->
<g id="Node000006" class="node">
<title>Node6</title>
<g id="a_Node000006"><a xlink:title=" ">
<polygon fill="#e0e0e0" stroke="#999999" points="333.62,-188 289.12,-188 289.12,-168 333.62,-168 333.62,-188"/>
<text text-anchor="middle" x="311.38" y="-174.5" font-family="Helvetica,sans-Serif" font-size="10.00">Wire.h</text>
</a>
</g>
</g>
<!-- Node2&#45;&gt;Node6 -->
<g id="edge5_Node000002_Node000006" class="edge">
<title>Node2&#45;&gt;Node6</title>
<g id="a_edge5_Node000002_Node000006"><a xlink:title=" ">
<path fill="none" stroke="#63b8ff" d="M311.38,-223.59C311.38,-217.01 311.38,-207.96 311.38,-199.73"/>
<polygon fill="#63b8ff" stroke="#63b8ff" points="314.88,-199.81 311.38,-189.81 307.88,-199.81 314.88,-199.81"/>
</a>
</g>
</g>
<!-- Node7 -->
<g id="Node000007" class="node">
<title>Node7</title>
<g id="a_Node000007"><a xlink:title=" ">
<polygon fill="#e0e0e0" stroke="#999999" points="399.5,-188 351.25,-188 351.25,-168 399.5,-168 399.5,-188"/>
<text text-anchor="middle" x="375.38" y="-174.5" font-family="Helvetica,sans-Serif" font-size="10.00">string.h</text>
</a>
</g>
</g>
<!-- Node2&#45;&gt;Node7 -->
<g id="edge6_Node000002_Node000007" class="edge">
<title>Node2&#45;&gt;Node7</title>
<g id="a_edge6_Node000002_Node000007"><a xlink:title=" ">
<path fill="none" stroke="#63b8ff" d="M322.52,-223.59C331.7,-215.85 344.93,-204.69 355.86,-195.47"/>
<polygon fill="#63b8ff" stroke="#63b8ff" points="357.81,-198.4 363.2,-189.27 353.3,-193.05 357.81,-198.4"/>
</a>
</g>
</g>
<!-- Node8 -->
<g id="Node000008" class="node">
<title>Node8</title>
<g id="a_Node000008"><a xlink:href="PayloadConfig_8h.html" target="_top" xlink:title="Central location for pinout and config defines.">
<polygon fill="white" stroke="#666666" points="505.38,-188 417.38,-188 417.38,-168 505.38,-168 505.38,-188"/>
<text text-anchor="middle" x="461.38" y="-174.5" font-family="Helvetica,sans-Serif" font-size="10.00">PayloadConfig.h</text>
</a>
</g>
</g>
<!-- Node2&#45;&gt;Node8 -->
<g id="edge7_Node000002_Node000008" class="edge">
<title>Node2&#45;&gt;Node8</title>
<g id="a_edge7_Node000002_Node000008"><a xlink:title=" ">
<path fill="none" stroke="#63b8ff" d="M337.5,-223.59C361.55,-214.94 397.48,-202 424.46,-192.29"/>
<polygon fill="#63b8ff" stroke="#63b8ff" points="425.4,-195.67 433.62,-188.99 423.02,-189.09 425.4,-195.67"/>
</a>
</g>
</g>
<!-- Node9 -->
<g id="Node000009" class="node">
<title>Node9</title>
<g id="a_Node000009"><a xlink:href="Sensor_8h.html" target="_top" xlink:title=" ">
<polygon fill="white" stroke="#666666" points="578.88,-188 523.88,-188 523.88,-168 578.88,-168 578.88,-188"/>
<text text-anchor="middle" x="551.38" y="-174.5" font-family="Helvetica,sans-Serif" font-size="10.00">Sensor.h</text>
</a>
</g>
</g>
<!-- Node2&#45;&gt;Node9 -->
<g id="edge8_Node000002_Node000009" class="edge">
<title>Node2&#45;&gt;Node9</title>
<g id="a_edge8_Node000002_Node000009"><a xlink:title=" ">
<path fill="none" stroke="#63b8ff" d="M355.39,-223.52C394.14,-215.1 452.37,-202.32 512.3,-188.44"/>
<polygon fill="#63b8ff" stroke="#63b8ff" points="513.09,-191.86 522.03,-186.19 511.5,-185.04 513.09,-191.86"/>
</a>
</g>
</g>
<!-- Node10 -->
<g id="Node000010" class="node">
<title>Node10</title>
<g id="a_Node000010"><a xlink:title=" ">
<polygon fill="#e0e0e0" stroke="#999999" points="571,-20 513.75,-20 513.75,0 571,0 571,-20"/>
<text text-anchor="middle" x="542.38" y="-6.5" font-family="Helvetica,sans-Serif" font-size="10.00">Arduino.h</text>
</a>
</g>
</g>
<!-- Node9&#45;&gt;Node10 -->
<g id="edge9_Node000009_Node000010" class="edge">
<title>Node9&#45;&gt;Node10</title>
<g id="a_edge9_Node000009_Node000010"><a xlink:title=" ">
<path fill="none" stroke="#63b8ff" d="M540.52,-167.53C531.85,-159.18 520.34,-146.16 515.38,-132 503.14,-97.11 519.48,-54.56 531.56,-30.34"/>
<polygon fill="#63b8ff" stroke="#63b8ff" points="534.57,-32.13 536.14,-21.65 528.38,-28.86 534.57,-32.13"/>
</a>
</g>
</g>
<!-- Node11 -->
<g id="Node000011" class="node">
<title>Node11</title>
<g id="a_Node000011"><a xlink:href="Device_8h.html" target="_top" xlink:title=" ">
<polygon fill="white" stroke="#666666" points="578.88,-132 523.88,-132 523.88,-112 578.88,-112 578.88,-132"/>
<text text-anchor="middle" x="551.38" y="-118.5" font-family="Helvetica,sans-Serif" font-size="10.00">Device.h</text>
</a>
</g>
</g>
<!-- Node9&#45;&gt;Node11 -->
<g id="edge10_Node000009_Node000011" class="edge">
<title>Node9&#45;&gt;Node11</title>
<g id="a_edge10_Node000009_Node000011"><a xlink:title=" ">
<path fill="none" stroke="#63b8ff" d="M551.38,-167.59C551.38,-161.01 551.38,-151.96 551.38,-143.73"/>
<polygon fill="#63b8ff" stroke="#63b8ff" points="554.88,-143.81 551.38,-133.81 547.88,-143.81 554.88,-143.81"/>
</a>
</g>
</g>
<!-- Node12 -->
<g id="Node000012" class="node">
<title>Node12</title>
<g id="a_Node000012"><a xlink:href="Logger_8h.html" target="_top" xlink:title=" ">
<polygon fill="white" stroke="#666666" points="624.12,-76 570.62,-76 570.62,-56 624.12,-56 624.12,-76"/>
<text text-anchor="middle" x="597.38" y="-62.5" font-family="Helvetica,sans-Serif" font-size="10.00">Logger.h</text>
</a>
</g>
</g>
<!-- Node9&#45;&gt;Node12 -->
<g id="edge14_Node000009_Node000012" class="edge">
<title>Node9&#45;&gt;Node12</title>
<g id="a_edge14_Node000009_Node000012"><a xlink:title=" ">
<path fill="none" stroke="#63b8ff" d="M561.68,-167.73C570.32,-159.31 582.21,-146.08 588.38,-132 594.54,-117.92 596.71,-100.64 597.38,-87.43"/>
<polygon fill="#63b8ff" stroke="#63b8ff" points="600.87,-87.85 597.61,-77.77 593.87,-87.68 600.87,-87.85"/>
</a>
</g>
</g>
<!-- Node11&#45;&gt;Node10 -->
<g id="edge11_Node000011_Node000010" class="edge">
<title>Node11&#45;&gt;Node10</title>
<g id="a_edge11_Node000011_Node000010"><a xlink:title=" ">
<path fill="none" stroke="#63b8ff" d="M550.61,-111.62C549.17,-94.01 546.02,-55.59 544.06,-31.65"/>
<polygon fill="#63b8ff" stroke="#63b8ff" points="547.57,-31.54 543.26,-21.86 540.59,-32.12 547.57,-31.54"/>
</a>
</g>
</g>
<!-- Node11&#45;&gt;Node12 -->
<g id="edge12_Node000011_Node000012" class="edge">
<title>Node11&#45;&gt;Node12</title>
<g id="a_edge12_Node000011_Node000012"><a xlink:title=" ">
<path fill="none" stroke="#63b8ff" d="M559.39,-111.59C565.65,-104.24 574.55,-93.8 582.16,-84.87"/>
<polygon fill="#63b8ff" stroke="#63b8ff" points="584.65,-87.33 588.47,-77.45 579.32,-82.79 584.65,-87.33"/>
</a>
</g>
</g>
<!-- Node12&#45;&gt;Node10 -->
<g id="edge13_Node000012_Node000010" class="edge">
<title>Node12&#45;&gt;Node10</title>
<g id="a_edge13_Node000012_Node000010"><a xlink:title=" ">
<path fill="none" stroke="#63b8ff" d="M587.79,-55.59C580.14,-48.08 569.22,-37.35 560,-28.3"/>
<polygon fill="#63b8ff" stroke="#63b8ff" points="562.51,-25.87 552.93,-21.36 557.61,-30.86 562.51,-25.87"/>
</a>
</g>
</g>
</g>
</svg>
