<?xml version="1.0" encoding="UTF-8" standalone="no"?>
<!DOCTYPE svg PUBLIC "-//W3C//DTD SVG 1.1//EN"
 "http://www.w3.org/Graphics/SVG/1.1/DTD/svg11.dtd">
<!-- Generated by graphviz version 12.1.2 (20240928.0832)
 -->
<!-- Title: BMP390Sensor.cpp Pages: 1 -->
<svg width="230pt" height="308pt"
 viewBox="0.00 0.00 229.62 308.00" xmlns="http://www.w3.org/2000/svg" xmlns:xlink="http://www.w3.org/1999/xlink">
<g id="graph0" class="graph" transform="scale(1 1) rotate(0) translate(4 304)">
<title>BMP390Sensor.cpp</title>
<!-- Node1 -->
<g id="Node000001" class="node">
<title>Node1</title>
<g id="a_Node000001"><a xlink:title=" ">
<polygon fill="#999999" stroke="#666666" points="151.38,-300 48.38,-300 48.38,-280 151.38,-280 151.38,-300"/>
<text text-anchor="middle" x="99.88" y="-286.5" font-family="Helvetica,sans-Serif" font-size="10.00">BMP390Sensor.cpp</text>
</a>
</g>
</g>
<!-- Node2 -->
<g id="Node000002" class="node">
<title>Node2</title>
<g id="a_Node000002"><a xlink:href="BMP390Sensor_8h.html" target="_top" xlink:title=" ">
<polygon fill="white" stroke="#666666" points="146.12,-244 53.62,-244 53.62,-224 146.12,-224 146.12,-244"/>
<text text-anchor="middle" x="99.88" y="-230.5" font-family="Helvetica,sans-Serif" font-size="10.00">BMP390Sensor.h</text>
</a>
</g>
</g>
<!-- Node1&#45;&gt;Node2 -->
<g id="edge1_Node000001_Node000002" class="edge">
<title>Node1&#45;&gt;Node2</title>
<g id="a_edge1_Node000001_Node000002"><a xlink:title=" ">
<path fill="none" stroke="#63b8ff" d="M99.88,-279.59C99.88,-273.01 99.88,-263.96 99.88,-255.73"/>
<polygon fill="#63b8ff" stroke="#63b8ff" points="103.38,-255.81 99.88,-245.81 96.38,-255.81 103.38,-255.81"/>
</a>
</g>
</g>
<!-- Node3 -->
<g id="Node000003" class="node">
<title>Node3</title>
<g id="a_Node000003"><a xlink:title=" ">
<polygon fill="#e0e0e0" stroke="#999999" points="103.75,-188 0,-188 0,-168 103.75,-168 103.75,-188"/>
<text text-anchor="middle" x="51.88" y="-174.5" font-family="Helvetica,sans-Serif" font-size="10.00">Adafruit_BMP3XX.h</text>
</a>
</g>
</g>
<!-- Node2&#45;&gt;Node3 -->
<g id="edge2_Node000002_Node000003" class="edge">
<title>Node2&#45;&gt;Node3</title>
<g id="a_edge2_Node000002_Node000003"><a xlink:title=" ">
<path fill="none" stroke="#63b8ff" d="M91.51,-223.59C84.98,-216.24 75.69,-205.8 67.76,-196.87"/>
<polygon fill="#63b8ff" stroke="#63b8ff" points="70.41,-194.58 61.15,-189.43 65.17,-199.23 70.41,-194.58"/>
</a>
</g>
</g>
<!-- Node4 -->
<g id="Node000004" class="node">
<title>Node4</title>
<g id="a_Node000004"><a xlink:href="Sensor_8h.html" target="_top" xlink:title=" ">
<polygon fill="white" stroke="#666666" points="176.38,-188 121.38,-188 121.38,-168 176.38,-168 176.38,-188"/>
<text text-anchor="middle" x="148.88" y="-174.5" font-family="Helvetica,sans-Serif" font-size="10.00">Sensor.h</text>
</a>
</g>
</g>
<!-- Node2&#45;&gt;Node4 -->
<g id="edge3_Node000002_Node000004" class="edge">
<title>Node2&#45;&gt;Node4</title>
<g id="a_edge3_Node000002_Node000004"><a xlink:title=" ">
<path fill="none" stroke="#63b8ff" d="M108.41,-223.59C115.16,-216.16 124.76,-205.58 132.92,-196.58"/>
<polygon fill="#63b8ff" stroke="#63b8ff" points="135.29,-199.18 139.42,-189.42 130.11,-194.47 135.29,-199.18"/>
</a>
</g>
</g>
<!-- Node5 -->
<g id="Node000005" class="node">
<title>Node5</title>
<g id="a_Node000005"><a xlink:title=" ">
<polygon fill="#e0e0e0" stroke="#999999" points="168.5,-20 111.25,-20 111.25,0 168.5,0 168.5,-20"/>
<text text-anchor="middle" x="139.88" y="-6.5" font-family="Helvetica,sans-Serif" font-size="10.00">Arduino.h</text>
</a>
</g>
</g>
<!-- Node4&#45;&gt;Node5 -->
<g id="edge4_Node000004_Node000005" class="edge">
<title>Node4&#45;&gt;Node5</title>
<g id="a_edge4_Node000004_Node000005"><a xlink:title=" ">
<path fill="none" stroke="#63b8ff" d="M138.02,-167.53C129.35,-159.18 117.84,-146.16 112.88,-132 100.64,-97.11 116.98,-54.56 129.06,-30.34"/>
<polygon fill="#63b8ff" stroke="#63b8ff" points="132.07,-32.13 133.64,-21.65 125.88,-28.86 132.07,-32.13"/>
</a>
</g>
</g>
<!-- Node6 -->
<g id="Node000006" class="node">
<title>Node6</title>
<g id="a_Node000006"><a xlink:href="Device_8h.html" target="_top" xlink:title=" ">
<polygon fill="white" stroke="#666666" points="176.38,-132 121.38,-132 121.38,-112 176.38,-112 176.38,-132"/>
<text text-anchor="middle" x="148.88" y="-118.5" font-family="Helvetica,sans-Serif" font-size="10.00">Device.h</text>
</a>
</g>
</g>
<!-- Node4&#45;&gt;Node6 -->
<g id="edge5_Node000004_Node000006" class="edge">
<title>Node4&#45;&gt;Node6</title>
<g id="a_edge5_Node000004_Node000006"><a xlink:title=" ">
<path fill="none" stroke="#63b8ff" d="M148.88,-167.59C148.88,-161.01 148.88,-151.96 148.88,-143.73"/>
<polygon fill="#63b8ff" stroke="#63b8ff" points="152.38,-143.81 148.88,-133.81 145.38,-143.81 152.38,-143.81"/>
</a>
</g>
</g>
<!-- Node7 -->
<g id="Node000007" class="node">
<title>Node7</title>
<g id="a_Node000007"><a xlink:href="Logger_8h.html" target="_top" xlink:title=" ">
<polygon fill="white" stroke="#666666" points="221.62,-76 168.12,-76 168.12,-56 221.62,-56 221.62,-76"/>
<text text-anchor="middle" x="194.88" y="-62.5" font-family="Helvetica,sans-Serif" font-size="10.00">Logger.h</text>
</a>
</g>
</g>
<!-- Node4&#45;&gt;Node7 -->
<g id="edge9_Node000004_Node000007" class="edge">
<title>Node4&#45;&gt;Node7</title>
<g id="a_edge9_Node000004_Node000007"><a xlink:title=" ">
<path fill="none" stroke="#63b8ff" d="M159.18,-167.73C167.82,-159.31 179.71,-146.08 185.88,-132 192.04,-117.92 194.21,-100.64 194.88,-87.43"/>
<polygon fill="#63b8ff" stroke="#63b8ff" points="198.37,-87.85 195.11,-77.77 191.37,-87.68 198.37,-87.85"/>
</a>
</g>
</g>
<!-- Node6&#45;&gt;Node5 -->
<g id="edge6_Node000006_Node000005" class="edge">
<title>Node6&#45;&gt;Node5</title>
<g id="a_edge6_Node000006_Node000005"><a xlink:title=" ">
<path fill="none" stroke="#63b8ff" d="M148.11,-111.62C146.67,-94.01 143.52,-55.59 141.56,-31.65"/>
<polygon fill="#63b8ff" stroke="#63b8ff" points="145.07,-31.54 140.76,-21.86 138.09,-32.12 145.07,-31.54"/>
</a>
</g>
</g>
<!-- Node6&#45;&gt;Node7 -->
<g id="edge7_Node000006_Node000007" class="edge">
<title>Node6&#45;&gt;Node7</title>
<g id="a_edge7_Node000006_Node000007"><a xlink:title=" ">
<path fill="none" stroke="#63b8ff" d="M156.89,-111.59C163.15,-104.24 172.05,-93.8 179.66,-84.87"/>
<polygon fill="#63b8ff" stroke="#63b8ff" points="182.15,-87.33 185.97,-77.45 176.82,-82.79 182.15,-87.33"/>
</a>
</g>
</g>
<!-- Node7&#45;&gt;Node5 -->
<g id="edge8_Node000007_Node000005" class="edge">
<title>Node7&#45;&gt;Node5</title>
<g id="a_edge8_Node000007_Node000005"><a xlink:title=" ">
<path fill="none" stroke="#63b8ff" d="M185.29,-55.59C177.64,-48.08 166.72,-37.35 157.5,-28.3"/>
<polygon fill="#63b8ff" stroke="#63b8ff" points="160.01,-25.87 150.43,-21.36 155.11,-30.86 160.01,-25.87"/>
</a>
</g>
</g>
</g>
</svg>
