<?xml version="1.0" encoding="UTF-8" standalone="no"?>
<!DOCTYPE svg PUBLIC "-//W3C//DTD SVG 1.1//EN"
 "http://www.w3.org/Graphics/SVG/1.1/DTD/svg11.dtd">
<!-- Generated by graphviz version 12.1.2 (20240928.0832)
 -->
<!-- Title: ErrorDisplay::instance Pages: 1 -->
<svg width="361pt" height="218pt"
 viewBox="0.00 0.00 360.50 218.00" xmlns="http://www.w3.org/2000/svg" xmlns:xlink="http://www.w3.org/1999/xlink">
<g id="graph0" class="graph" transform="scale(1 1) rotate(0) translate(4 214)">
<title>ErrorDisplay::instance</title>
<!-- Node1 -->
<g id="Node000001" class="node">
<title>Node1</title>
<g id="a_Node000001"><a xlink:title="Accesses the only instance of ErrorDisplay (Singleton)">
<polygon fill="#999999" stroke="#666666" points="352.5,-115 239.75,-115 239.75,-95 352.5,-95 352.5,-115"/>
<text text-anchor="middle" x="296.12" y="-101.5" font-family="Helvetica,sans-Serif" font-size="10.00">ErrorDisplay::instance</text>
</a>
</g>
</g>
<!-- Node2 -->
<g id="Node000002" class="node">
<title>Node2</title>
<g id="a_Node000002"><a xlink:href="main_8cpp.html#afe461d27b9c48d5921c00d521181f12f" target="_top" xlink:title="Loop for core 0, handling sensor reads.">
<polygon fill="white" stroke="#666666" points="159.5,-210 125.5,-210 125.5,-190 159.5,-190 159.5,-210"/>
<text text-anchor="middle" x="142.5" y="-196.5" font-family="Helvetica,sans-Serif" font-size="10.00">loop</text>
</a>
</g>
</g>
<!-- Node1&#45;&gt;Node2 -->
<g id="edge1_Node000001_Node000002" class="edge">
<title>Node1&#45;&gt;Node2</title>
<g id="a_edge1_Node000001_Node000002"><a xlink:title=" ">
<path fill="none" stroke="#63b8ff" d="M277.35,-123.45C260,-140.51 232.13,-165.51 203.75,-181 189.79,-188.62 172.32,-193.7 159.79,-196.68"/>
<polygon fill="#63b8ff" stroke="#63b8ff" points="279.78,-125.97 284.35,-116.41 274.81,-121.03 279.78,-125.97"/>
</a>
</g>
</g>
<!-- Node3 -->
<g id="Node000003" class="node">
<title>Node3</title>
<g id="a_Node000003"><a xlink:href="main1_8cpp.html#a335f1df8d0b267769cb9842c12616214" target="_top" xlink:title="Setup for core 1.">
<polygon fill="white" stroke="#666666" points="175.62,-172 109.38,-172 109.38,-152 175.62,-152 175.62,-172"/>
<text text-anchor="middle" x="142.5" y="-158.5" font-family="Helvetica,sans-Serif" font-size="10.00">real_setup1</text>
</a>
</g>
</g>
<!-- Node1&#45;&gt;Node3 -->
<g id="edge2_Node000001_Node000003" class="edge">
<title>Node1&#45;&gt;Node3</title>
<g id="a_edge2_Node000001_Node000003"><a xlink:title=" ">
<path fill="none" stroke="#63b8ff" d="M261.59,-119.78C244.43,-127.13 223.13,-135.93 203.75,-143 194.79,-146.27 184.96,-149.51 175.88,-152.37"/>
<polygon fill="#63b8ff" stroke="#63b8ff" points="262.5,-123.2 270.3,-116.02 259.73,-116.78 262.5,-123.2"/>
</a>
</g>
</g>
<!-- Node5 -->
<g id="Node000005" class="node">
<title>Node5</title>
<g id="a_Node000005"><a xlink:href="main_8cpp.html#a4fc01d736fe50cf5b977f755b675f11d" target="_top" xlink:title="Setup for core 0.">
<polygon fill="white" stroke="#666666" points="162.5,-134 122.5,-134 122.5,-114 162.5,-114 162.5,-134"/>
<text text-anchor="middle" x="142.5" y="-120.5" font-family="Helvetica,sans-Serif" font-size="10.00">setup</text>
</a>
</g>
</g>
<!-- Node1&#45;&gt;Node5 -->
<g id="edge4_Node000001_Node000005" class="edge">
<title>Node1&#45;&gt;Node5</title>
<g id="a_edge4_Node000001_Node000005"><a xlink:title=" ">
<path fill="none" stroke="#63b8ff" d="M228.34,-113.37C204.51,-116.35 179.48,-119.49 162.84,-121.58"/>
<polygon fill="#63b8ff" stroke="#63b8ff" points="228.54,-116.87 238.02,-112.16 227.67,-109.93 228.54,-116.87"/>
</a>
</g>
</g>
<!-- Node6 -->
<g id="Node000006" class="node">
<title>Node6</title>
<g id="a_Node000006"><a xlink:href="classSDStorage.html#a731b7e40012d3ab63bbf2ae0afe2d800" target="_top" xlink:title="Store data on the SD card, ending with newline.">
<polygon fill="white" stroke="#666666" points="188.38,-96 96.62,-96 96.62,-76 188.38,-76 188.38,-96"/>
<text text-anchor="middle" x="142.5" y="-82.5" font-family="Helvetica,sans-Serif" font-size="10.00">SDStorage::store</text>
</a>
</g>
</g>
<!-- Node1&#45;&gt;Node6 -->
<g id="edge5_Node000001_Node000006" class="edge">
<title>Node1&#45;&gt;Node6</title>
<g id="a_edge5_Node000001_Node000006"><a xlink:title=" ">
<path fill="none" stroke="#63b8ff" d="M228.38,-96.64C214.95,-94.95 201.15,-93.22 188.67,-91.66"/>
<polygon fill="#63b8ff" stroke="#63b8ff" points="227.67,-100.07 238.02,-97.84 228.54,-93.13 227.67,-100.07"/>
</a>
</g>
</g>
<!-- Node7 -->
<g id="Node000007" class="node">
<title>Node7</title>
<g id="a_Node000007"><a xlink:href="classSDStorage.html#a2f5cfea215ba9e388fcc37b2376e47b0" target="_top" xlink:title="Store data on the SD card.">
<polygon fill="white" stroke="#666666" points="203.75,-58 81.25,-58 81.25,-38 203.75,-38 203.75,-58"/>
<text text-anchor="middle" x="142.5" y="-44.5" font-family="Helvetica,sans-Serif" font-size="10.00">SDStorage::storePacket</text>
</a>
</g>
</g>
<!-- Node1&#45;&gt;Node7 -->
<g id="edge6_Node000001_Node000007" class="edge">
<title>Node1&#45;&gt;Node7</title>
<g id="a_edge6_Node000001_Node000007"><a xlink:title=" ">
<path fill="none" stroke="#63b8ff" d="M261.59,-90.22C244.43,-82.87 223.13,-74.07 203.75,-67 195.61,-64.03 186.76,-61.08 178.4,-58.43"/>
<polygon fill="#63b8ff" stroke="#63b8ff" points="259.73,-93.22 270.3,-93.98 262.5,-86.8 259.73,-93.22"/>
</a>
</g>
</g>
<!-- Node8 -->
<g id="Node000008" class="node">
<title>Node8</title>
<g id="a_Node000008"><a xlink:href="classSDStorage.html#af3c32c732ded4f54f72ec81ab22531d2" target="_top" xlink:title="Verify SD card connection and create a new, unique file.">
<polygon fill="white" stroke="#666666" points="189.5,-20 95.5,-20 95.5,0 189.5,0 189.5,-20"/>
<text text-anchor="middle" x="142.5" y="-6.5" font-family="Helvetica,sans-Serif" font-size="10.00">SDStorage::verify</text>
</a>
</g>
</g>
<!-- Node1&#45;&gt;Node8 -->
<g id="edge7_Node000001_Node000008" class="edge">
<title>Node1&#45;&gt;Node8</title>
<g id="a_edge7_Node000001_Node000008"><a xlink:title=" ">
<path fill="none" stroke="#63b8ff" d="M277.35,-86.55C260,-69.49 232.13,-44.49 203.75,-29 197.68,-25.69 190.96,-22.86 184.26,-20.47"/>
<polygon fill="#63b8ff" stroke="#63b8ff" points="274.81,-88.97 284.35,-93.59 279.78,-84.03 274.81,-88.97"/>
</a>
</g>
</g>
<!-- Node4 -->
<g id="Node000004" class="node">
<title>Node4</title>
<g id="a_Node000004"><a xlink:href="main_8cpp.html#ac764ee28e2916a7de10b22927e02d1a4" target="_top" xlink:title=" ">
<polygon fill="white" stroke="#666666" points="45.25,-172 0,-172 0,-152 45.25,-152 45.25,-172"/>
<text text-anchor="middle" x="22.62" y="-158.5" font-family="Helvetica,sans-Serif" font-size="10.00">setup1</text>
</a>
</g>
</g>
<!-- Node3&#45;&gt;Node4 -->
<g id="edge3_Node000003_Node000004" class="edge">
<title>Node3&#45;&gt;Node4</title>
<g id="a_edge3_Node000003_Node000004"><a xlink:title=" ">
<path fill="none" stroke="#63b8ff" d="M97.67,-162C79.93,-162 60.23,-162 45.61,-162"/>
<polygon fill="#63b8ff" stroke="#63b8ff" points="97.46,-165.5 107.46,-162 97.46,-158.5 97.46,-165.5"/>
</a>
</g>
</g>
</g>
</svg>
