<?xml version="1.0" encoding="UTF-8" standalone="no"?>
<!DOCTYPE svg PUBLIC "-//W3C//DTD SVG 1.1//EN"
 "http://www.w3.org/Graphics/SVG/1.1/DTD/svg11.dtd">
<!-- Generated by graphviz version 12.1.2 (20240928.0832)
 -->
<!-- Title: FlashStorage::reinitFlash Pages: 1 -->
<svg width="468pt" height="47pt"
 viewBox="0.00 0.00 468.00 47.00" xmlns="http://www.w3.org/2000/svg" xmlns:xlink="http://www.w3.org/1999/xlink">
<g id="graph0" class="graph" transform="scale(1 1) rotate(0) translate(4 43)">
<title>FlashStorage::reinitFlash</title>
<!-- Node1 -->
<g id="Node000001" class="node">
<title>Node1</title>
<g id="a_Node000001"><a xlink:title=" ">
<polygon fill="#999999" stroke="#666666" points="460,-39 335.25,-39 335.25,-19 460,-19 460,-39"/>
<text text-anchor="middle" x="397.62" y="-25.5" font-family="Helvetica,sans-Serif" font-size="10.00">FlashStorage::reinitFlash</text>
</a>
</g>
</g>
<!-- Node2 -->
<g id="Node000002" class="node">
<title>Node2</title>
<g id="a_Node000002"><a xlink:href="main1_8cpp.html#a5d5c43a90af6e8b0e11c818a7e1681e7" target="_top" xlink:title="Loop for core 1.">
<polygon fill="white" stroke="#666666" points="135.5,-39 75.25,-39 75.25,-19 135.5,-19 135.5,-39"/>
<text text-anchor="middle" x="105.38" y="-25.5" font-family="Helvetica,sans-Serif" font-size="10.00">real_loop1</text>
</a>
</g>
</g>
<!-- Node1&#45;&gt;Node2 -->
<g id="edge1_Node000001_Node000002" class="edge">
<title>Node1&#45;&gt;Node2</title>
<g id="a_edge1_Node000001_Node000002"><a xlink:title=" ">
<path fill="none" stroke="#63b8ff" d="M323.63,-29C262.93,-29 179.66,-29 135.94,-29"/>
<polygon fill="#63b8ff" stroke="#63b8ff" points="323.56,-32.5 333.56,-29 323.56,-25.5 323.56,-32.5"/>
</a>
</g>
</g>
<!-- Node4 -->
<g id="Node000004" class="node">
<title>Node4</title>
<g id="a_Node000004"><a xlink:href="classFlashStorage.html#ad8daa31feba03cb7d02efb3124962f20" target="_top" xlink:title="Deletes a file by erasing the sectors it occupies.">
<polygon fill="white" stroke="#666666" points="299.25,-20 171.5,-20 171.5,0 299.25,0 299.25,-20"/>
<text text-anchor="middle" x="235.38" y="-6.5" font-family="Helvetica,sans-Serif" font-size="10.00">FlashStorage::removeFile</text>
</a>
</g>
</g>
<!-- Node1&#45;&gt;Node4 -->
<g id="edge3_Node000001_Node000004" class="edge">
<title>Node1&#45;&gt;Node4</title>
<g id="a_edge3_Node000001_Node000004"><a xlink:title=" ">
<path fill="none" stroke="#63b8ff" d="M323.79,-20.36C315.71,-19.41 307.52,-18.44 299.57,-17.49"/>
<polygon fill="#63b8ff" stroke="#63b8ff" points="323.28,-23.83 333.62,-21.53 324.11,-16.88 323.28,-23.83"/>
</a>
</g>
</g>
<!-- Node3 -->
<g id="Node000003" class="node">
<title>Node3</title>
<g id="a_Node000003"><a xlink:href="main_8cpp.html#a39ceba300a80e348e278539f57e0ca79" target="_top" xlink:title=" ">
<polygon fill="white" stroke="#666666" points="39.25,-39 0,-39 0,-19 39.25,-19 39.25,-39"/>
<text text-anchor="middle" x="19.62" y="-25.5" font-family="Helvetica,sans-Serif" font-size="10.00">loop1</text>
</a>
</g>
</g>
<!-- Node2&#45;&gt;Node3 -->
<g id="edge2_Node000002_Node000003" class="edge">
<title>Node2&#45;&gt;Node3</title>
<g id="a_edge2_Node000002_Node000003"><a xlink:title=" ">
<path fill="none" stroke="#63b8ff" d="M63.73,-29C55.27,-29 46.75,-29 39.55,-29"/>
<polygon fill="#63b8ff" stroke="#63b8ff" points="63.57,-32.5 73.57,-29 63.57,-25.5 63.57,-32.5"/>
</a>
</g>
</g>
<!-- Node4&#45;&gt;Node2 -->
<g id="edge4_Node000004_Node000002" class="edge">
<title>Node4&#45;&gt;Node2</title>
<g id="a_edge4_Node000004_Node000002"><a xlink:title=" ">
<path fill="none" stroke="#63b8ff" d="M159.88,-21.06C151.4,-22.32 143.17,-23.54 135.82,-24.63"/>
<polygon fill="#63b8ff" stroke="#63b8ff" points="160.25,-24.54 169.63,-19.61 159.22,-17.62 160.25,-24.54"/>
</a>
</g>
</g>
</g>
</svg>
