<?xml version="1.0" encoding="UTF-8" standalone="no"?>
<!DOCTYPE svg PUBLIC "-//W3C//DTD SVG 1.1//EN"
 "http://www.w3.org/Graphics/SVG/1.1/DTD/svg11.dtd">
<!-- Generated by graphviz version 12.1.2 (20240928.0832)
 -->
<!-- Title: Sensor::readEmpty Pages: 1 -->
<svg width="401pt" height="180pt"
 viewBox="0.00 0.00 401.00 180.00" xmlns="http://www.w3.org/2000/svg" xmlns:xlink="http://www.w3.org/1999/xlink">

<svg id="main" version="1.1" xmlns="http://www.w3.org/2000/svg" xmlns:xlink="http://www.w3.org/1999/xlink" xml:space="preserve">

<style type="text/css"><![CDATA[
.node, .edge {opacity: 0.7;}
.node.selected, .edge.selected {opacity: 1;}
.edge:hover path { stroke: red; }
.edge:hover polygon { stroke: red; fill: red; }
]]></style>
<script type="application/ecmascript" xlink:href="svg.min.js"/>
<svg id="graph" class="graph">
<g id="graph0" class="graph" transform="scale(1 1) rotate(0) translate(4 176)">
<title>Sensor::readEmpty</title>
<!-- Node1 -->
<g id="Node000001" class="node">
<title>Node1</title>
<g id="a_Node000001"><a xlink:title="Returns CSV line in the same format as readData() but with &quot;&#45;&quot; instead of data.">
<polygon fill="#999999" stroke="#666666" points="393,-96 293,-96 293,-76 393,-76 393,-96"/>
<text text-anchor="middle" x="343" y="-82.5" font-family="Helvetica,sans-Serif" font-size="10.00">Sensor::readEmpty</text>
</a>
</g>
</g>
<!-- Node2 -->
<g id="Node000002" class="node">
<title>Node2</title>
<g id="a_Node000002"><a xlink:href="main_8cpp.html#a9163644b089001958496a71b73b9091a" target="_top" xlink:title="Decodes the packet to a CSV row.">
<polygon fill="white" stroke="#666666" points="228.88,-172 150.62,-172 150.62,-152 228.88,-152 228.88,-172"/>
<text text-anchor="middle" x="189.75" y="-158.5" font-family="Helvetica,sans-Serif" font-size="10.00">decodePacket</text>
</a>
</g>
</g>
<!-- Node1&#45;&gt;Node2 -->
<g id="edge1_Node000001_Node000002" class="edge">
<title>Node1&#45;&gt;Node2</title>
<g id="a_edge1_Node000001_Node000002"><a xlink:title=" ">
<path fill="none" stroke="#63b8ff" d="M320.39,-103.27C303.85,-115.77 280.03,-132.3 257,-143 248.32,-147.03 238.59,-150.4 229.33,-153.13"/>
<polygon fill="#63b8ff" stroke="#63b8ff" points="322.25,-106.25 328.03,-97.37 317.97,-100.71 322.25,-106.25"/>
</a>
</g>
</g>
<!-- Node4 -->
<g id="Node000004" class="node">
<title>Node4</title>
<g id="a_Node000004"><a xlink:href="classSensor.html#a2d5ecda6a046ddba40d0e37921226d2f" target="_top" xlink:title="Uses readData and readEmpty to get the data&#45;filled or empty&#45;celled CSV line for the sensor.">
<polygon fill="white" stroke="#666666" points="243.88,-134 135.62,-134 135.62,-114 243.88,-114 243.88,-134"/>
<text text-anchor="middle" x="189.75" y="-120.5" font-family="Helvetica,sans-Serif" font-size="10.00">Sensor::getDataCSV</text>
</a>
</g>
</g>
<!-- Node1&#45;&gt;Node4 -->
<g id="edge3_Node000001_Node000004" class="edge">
<title>Node1&#45;&gt;Node4</title>
<g id="a_edge3_Node000001_Node000004"><a xlink:title=" ">
<path fill="none" stroke="#63b8ff" d="M289.27,-99.25C270.63,-103.93 249.93,-109.13 232.34,-113.55"/>
<polygon fill="#63b8ff" stroke="#63b8ff" points="289.96,-102.68 298.8,-96.85 288.25,-95.9 289.96,-102.68"/>
</a>
</g>
</g>
<!-- Node6 -->
<g id="Node000006" class="node">
<title>Node6</title>
<g id="a_Node000006"><a xlink:href="classBMP390Sensor.html#ae0499577320b347c8fccf855193c57ac" target="_top" xlink:title="Reads data to a csv stub.">
<polygon fill="white" stroke="#666666" points="254.75,-96 124.75,-96 124.75,-76 254.75,-76 254.75,-96"/>
<text text-anchor="middle" x="189.75" y="-82.5" font-family="Helvetica,sans-Serif" font-size="10.00">BMP390Sensor::readData</text>
</a>
</g>
</g>
<!-- Node1&#45;&gt;Node6 -->
<g id="edge5_Node000001_Node000006" class="edge">
<title>Node1&#45;&gt;Node6</title>
<g id="a_edge5_Node000001_Node000006"><a xlink:title=" ">
<path fill="none" stroke="#63b8ff" d="M281.61,-86C272.87,-86 263.85,-86 255.03,-86"/>
<polygon fill="#63b8ff" stroke="#63b8ff" points="281.38,-89.5 291.38,-86 281.38,-82.5 281.38,-89.5"/>
</a>
</g>
</g>
<!-- Node7 -->
<g id="Node000007" class="node">
<title>Node7</title>
<g id="a_Node000007"><a xlink:href="classENS160Sensor.html#aac8ea849d26c4a6a567924805d378990" target="_top" xlink:title="Reads Air Quality Index, TVOC (ppb), and ECOS (ppm)">
<polygon fill="white" stroke="#666666" points="254.38,-58 125.12,-58 125.12,-38 254.38,-38 254.38,-58"/>
<text text-anchor="middle" x="189.75" y="-44.5" font-family="Helvetica,sans-Serif" font-size="10.00">ENS160Sensor::readData</text>
</a>
</g>
</g>
<!-- Node1&#45;&gt;Node7 -->
<g id="edge6_Node000001_Node000007" class="edge">
<title>Node1&#45;&gt;Node7</title>
<g id="a_edge6_Node000001_Node000007"><a xlink:title=" ">
<path fill="none" stroke="#63b8ff" d="M289.27,-72.75C270.63,-68.07 249.93,-62.87 232.34,-58.45"/>
<polygon fill="#63b8ff" stroke="#63b8ff" points="288.25,-76.1 298.8,-75.15 289.96,-69.32 288.25,-76.1"/>
</a>
</g>
</g>
<!-- Node8 -->
<g id="Node000008" class="node">
<title>Node8</title>
<g id="a_Node000008"><a xlink:href="classMTK3339Sensor.html#a632c895115930d476540fed7d6537635" target="_top" xlink:title="Reads and returns data from the MTK3339 GPS corresponding to the CSV header.">
<polygon fill="white" stroke="#666666" points="257,-20 122.5,-20 122.5,0 257,0 257,-20"/>
<text text-anchor="middle" x="189.75" y="-6.5" font-family="Helvetica,sans-Serif" font-size="10.00">MTK3339Sensor::readData</text>
</a>
</g>
</g>
<!-- Node1&#45;&gt;Node8 -->
<g id="edge7_Node000001_Node000008" class="edge">
<title>Node1&#45;&gt;Node8</title>
<g id="a_edge7_Node000001_Node000008"><a xlink:title=" ">
<path fill="none" stroke="#63b8ff" d="M320.39,-68.73C303.85,-56.23 280.03,-39.7 257,-29 249.95,-25.72 242.2,-22.88 234.58,-20.47"/>
<polygon fill="#63b8ff" stroke="#63b8ff" points="317.97,-71.29 328.03,-74.63 322.25,-65.75 317.97,-71.29"/>
</a>
</g>
</g>
<!-- Node3 -->
<g id="Node000003" class="node">
<title>Node3</title>
<g id="a_Node000003"><a xlink:href="main_8cpp.html#afe461d27b9c48d5921c00d521181f12f" target="_top" xlink:title="Loop for core 0, handling sensor reads.">
<polygon fill="white" stroke="#666666" points="60.25,-172 26.25,-172 26.25,-152 60.25,-152 60.25,-172"/>
<text text-anchor="middle" x="43.25" y="-158.5" font-family="Helvetica,sans-Serif" font-size="10.00">loop</text>
</a>
</g>
</g>
<!-- Node2&#45;&gt;Node3 -->
<g id="edge2_Node000002_Node000003" class="edge">
<title>Node2&#45;&gt;Node3</title>
<g id="a_edge2_Node000002_Node000003"><a xlink:title=" ">
<path fill="none" stroke="#63b8ff" d="M139.03,-162C111.7,-162 79.57,-162 60.62,-162"/>
<polygon fill="#63b8ff" stroke="#63b8ff" points="138.89,-165.5 148.89,-162 138.89,-158.5 138.89,-165.5"/>
</a>
</g>
</g>
<!-- Node5 -->
<g id="Node000005" class="node">
<title>Node5</title>
<g id="a_Node000005"><a xlink:href="main_8cpp.html#a9db5e6113d9a0bd03a1b044059ae787b" target="_top" xlink:title="Read data from each verified Sensor.">
<polygon fill="white" stroke="#666666" points="86.5,-134 0,-134 0,-114 86.5,-114 86.5,-134"/>
<text text-anchor="middle" x="43.25" y="-120.5" font-family="Helvetica,sans-Serif" font-size="10.00">readSensorData</text>
</a>
</g>
</g>
<!-- Node4&#45;&gt;Node5 -->
<g id="edge4_Node000004_Node000005" class="edge">
<title>Node4&#45;&gt;Node5</title>
<g id="a_edge4_Node000004_Node000005"><a xlink:title=" ">
<path fill="none" stroke="#63b8ff" d="M123.87,-124C111.23,-124 98.28,-124 86.6,-124"/>
<polygon fill="#63b8ff" stroke="#63b8ff" points="123.84,-127.5 133.84,-124 123.84,-120.5 123.84,-127.5"/>
</a>
</g>
</g>
</g>
</svg>
</svg>

<style type='text/css'>
<![CDATA[
[data-mouse-over-selected='false'] { opacity: 0.7; }
[data-mouse-over-selected='true']  { opacity: 1.0; }
]]>
</style>
<script type="application/ecmascript"><![CDATA[
document.addEventListener('DOMContentLoaded', (event) => {
  highlightEdges();
  highlightAdjacentNodes();
});
]]></script>
</svg>
