<?xml version="1.0" encoding="UTF-8" standalone="no"?>
<!DOCTYPE svg PUBLIC "-//W3C//DTD SVG 1.1//EN"
 "http://www.w3.org/Graphics/SVG/1.1/DTD/svg11.dtd">
<!-- Generated by graphviz version 12.1.2 (20240928.0832)
 -->
<!-- Title: ErrorDisplay::addCode Pages: 1 -->
<svg width="363pt" height="180pt"
 viewBox="0.00 0.00 362.75 180.00" xmlns="http://www.w3.org/2000/svg" xmlns:xlink="http://www.w3.org/1999/xlink">
<g id="graph0" class="graph" transform="scale(1 1) rotate(0) translate(4 176)">
<title>ErrorDisplay::addCode</title>
<!-- Node1 -->
<g id="Node000001" class="node">
<title>Node1</title>
<g id="a_Node000001"><a xlink:title="Sets the error code to the given value if the given error is of a higher priority then the current er...">
<polygon fill="#999999" stroke="#666666" points="354.75,-96 239.75,-96 239.75,-76 354.75,-76 354.75,-96"/>
<text text-anchor="middle" x="297.25" y="-82.5" font-family="Helvetica,sans-Serif" font-size="10.00">ErrorDisplay::addCode</text>
</a>
</g>
</g>
<!-- Node2 -->
<g id="Node000002" class="node">
<title>Node2</title>
<g id="a_Node000002"><a xlink:href="main1_8cpp.html#a335f1df8d0b267769cb9842c12616214" target="_top" xlink:title="Setup for core 1.">
<polygon fill="white" stroke="#666666" points="175.62,-172 109.38,-172 109.38,-152 175.62,-152 175.62,-172"/>
<text text-anchor="middle" x="142.5" y="-158.5" font-family="Helvetica,sans-Serif" font-size="10.00">real_setup1</text>
</a>
</g>
</g>
<!-- Node1&#45;&gt;Node2 -->
<g id="edge1_Node000001_Node000002" class="edge">
<title>Node1&#45;&gt;Node2</title>
<g id="a_edge1_Node000001_Node000002"><a xlink:title=" ">
<path fill="none" stroke="#63b8ff" d="M272.6,-102.84C254.43,-115.21 228.36,-131.75 203.75,-143 194.97,-147.01 185.11,-150.51 175.95,-153.38"/>
<polygon fill="#63b8ff" stroke="#63b8ff" points="274.34,-105.89 280.58,-97.32 270.36,-100.14 274.34,-105.89"/>
</a>
</g>
</g>
<!-- Node4 -->
<g id="Node000004" class="node">
<title>Node4</title>
<g id="a_Node000004"><a xlink:href="main_8cpp.html#a4fc01d736fe50cf5b977f755b675f11d" target="_top" xlink:title="Setup for core 0.">
<polygon fill="white" stroke="#666666" points="162.5,-134 122.5,-134 122.5,-114 162.5,-114 162.5,-134"/>
<text text-anchor="middle" x="142.5" y="-120.5" font-family="Helvetica,sans-Serif" font-size="10.00">setup</text>
</a>
</g>
</g>
<!-- Node1&#45;&gt;Node4 -->
<g id="edge3_Node000001_Node000004" class="edge">
<title>Node1&#45;&gt;Node4</title>
<g id="a_edge3_Node000001_Node000004"><a xlink:title=" ">
<path fill="none" stroke="#63b8ff" d="M243.29,-99.17C215.42,-106.11 182.94,-114.19 162.8,-119.2"/>
<polygon fill="#63b8ff" stroke="#63b8ff" points="243.78,-102.66 252.64,-96.85 242.09,-95.87 243.78,-102.66"/>
</a>
</g>
</g>
<!-- Node5 -->
<g id="Node000005" class="node">
<title>Node5</title>
<g id="a_Node000005"><a xlink:href="classSDStorage.html#a731b7e40012d3ab63bbf2ae0afe2d800" target="_top" xlink:title="Store data on the SD card, ending with newline.">
<polygon fill="white" stroke="#666666" points="188.38,-96 96.62,-96 96.62,-76 188.38,-76 188.38,-96"/>
<text text-anchor="middle" x="142.5" y="-82.5" font-family="Helvetica,sans-Serif" font-size="10.00">SDStorage::store</text>
</a>
</g>
</g>
<!-- Node1&#45;&gt;Node5 -->
<g id="edge4_Node000001_Node000005" class="edge">
<title>Node1&#45;&gt;Node5</title>
<g id="a_edge4_Node000001_Node000005"><a xlink:title=" ">
<path fill="none" stroke="#63b8ff" d="M228.19,-86C214.74,-86 200.95,-86 188.5,-86"/>
<polygon fill="#63b8ff" stroke="#63b8ff" points="227.86,-89.5 237.86,-86 227.86,-82.5 227.86,-89.5"/>
</a>
</g>
</g>
<!-- Node6 -->
<g id="Node000006" class="node">
<title>Node6</title>
<g id="a_Node000006"><a xlink:href="classSDStorage.html#a2f5cfea215ba9e388fcc37b2376e47b0" target="_top" xlink:title="Store data on the SD card.">
<polygon fill="white" stroke="#666666" points="203.75,-58 81.25,-58 81.25,-38 203.75,-38 203.75,-58"/>
<text text-anchor="middle" x="142.5" y="-44.5" font-family="Helvetica,sans-Serif" font-size="10.00">SDStorage::storePacket</text>
</a>
</g>
</g>
<!-- Node1&#45;&gt;Node6 -->
<g id="edge5_Node000001_Node000006" class="edge">
<title>Node1&#45;&gt;Node6</title>
<g id="a_edge5_Node000001_Node000006"><a xlink:title=" ">
<path fill="none" stroke="#63b8ff" d="M243,-72.75C224.17,-68.07 203.27,-62.87 185.51,-58.45"/>
<polygon fill="#63b8ff" stroke="#63b8ff" points="242.09,-76.13 252.64,-75.15 243.78,-69.34 242.09,-76.13"/>
</a>
</g>
</g>
<!-- Node7 -->
<g id="Node000007" class="node">
<title>Node7</title>
<g id="a_Node000007"><a xlink:href="classSDStorage.html#af3c32c732ded4f54f72ec81ab22531d2" target="_top" xlink:title="Verify SD card connection and create a new, unique file.">
<polygon fill="white" stroke="#666666" points="189.5,-20 95.5,-20 95.5,0 189.5,0 189.5,-20"/>
<text text-anchor="middle" x="142.5" y="-6.5" font-family="Helvetica,sans-Serif" font-size="10.00">SDStorage::verify</text>
</a>
</g>
</g>
<!-- Node1&#45;&gt;Node7 -->
<g id="edge6_Node000001_Node000007" class="edge">
<title>Node1&#45;&gt;Node7</title>
<g id="a_edge6_Node000001_Node000007"><a xlink:title=" ">
<path fill="none" stroke="#63b8ff" d="M272.6,-69.16C254.43,-56.79 228.36,-40.25 203.75,-29 196.77,-25.81 189.1,-22.94 181.64,-20.46"/>
<polygon fill="#63b8ff" stroke="#63b8ff" points="270.36,-71.86 280.58,-74.68 274.34,-66.11 270.36,-71.86"/>
</a>
</g>
</g>
<!-- Node3 -->
<g id="Node000003" class="node">
<title>Node3</title>
<g id="a_Node000003"><a xlink:href="main_8cpp.html#ac764ee28e2916a7de10b22927e02d1a4" target="_top" xlink:title=" ">
<polygon fill="white" stroke="#666666" points="45.25,-172 0,-172 0,-152 45.25,-152 45.25,-172"/>
<text text-anchor="middle" x="22.62" y="-158.5" font-family="Helvetica,sans-Serif" font-size="10.00">setup1</text>
</a>
</g>
</g>
<!-- Node2&#45;&gt;Node3 -->
<g id="edge2_Node000002_Node000003" class="edge">
<title>Node2&#45;&gt;Node3</title>
<g id="a_edge2_Node000002_Node000003"><a xlink:title=" ">
<path fill="none" stroke="#63b8ff" d="M97.67,-162C79.93,-162 60.23,-162 45.61,-162"/>
<polygon fill="#63b8ff" stroke="#63b8ff" points="97.46,-165.5 107.46,-162 97.46,-158.5 97.46,-165.5"/>
</a>
</g>
</g>
</g>
</svg>
