<?xml version="1.0" encoding="UTF-8" standalone="no"?>
<!DOCTYPE svg PUBLIC "-//W3C//DTD SVG 1.1//EN"
 "http://www.w3.org/Graphics/SVG/1.1/DTD/svg11.dtd">
<!-- Generated by graphviz version 2.43.0 (0)
 -->
<!-- Title: Device::getVerified Pages: 1 -->
<svg width="543pt" height="64pt"
 viewBox="0.00 0.00 543.00 64.00" xmlns="http://www.w3.org/2000/svg" xmlns:xlink="http://www.w3.org/1999/xlink">
<g id="graph0" class="graph" transform="scale(1 1) rotate(0) translate(4 60)">
<title>Device::getVerified</title>
<!-- Node1 -->
<g id="Node000001" class="node">
<title>Node1</title>
<g id="a_Node000001"><a xlink:title="Get if the Device is Verified.">
<polygon fill="#999999" stroke="#666666" points="535,-37 426,-37 426,-18 535,-18 535,-37"/>
<text text-anchor="middle" x="480.5" y="-25" font-family="Helvetica,sans-Serif" font-size="10.00">Device::getVerified</text>
</a>
</g>
</g>
<!-- Node2 -->
<g id="Node000002" class="node">
<title>Node2</title>
<g id="a_Node000002"><a xlink:href="classENS160Sensor.html#a5e03973e403c57a3db24622a71d14455" target="_top" xlink:title=" ">
<polygon fill="white" stroke="#666666" points="390,-37 206,-37 206,-18 390,-18 390,-37"/>
<text text-anchor="middle" x="298" y="-25" font-family="Helvetica,sans-Serif" font-size="10.00">ENS160Sensor::setCompensations</text>
</a>
</g>
</g>
<!-- Node1&#45;&gt;Node2 -->
<g id="edge1_Node000001_Node000002" class="edge">
<title>Node1&#45;&gt;Node2</title>
<g id="a_edge1_Node000001_Node000002"><a xlink:title=" ">
<path fill="none" stroke="#63b8ff" d="M415.62,-27.5C407.4,-27.5 398.87,-27.5 390.32,-27.5"/>
<polygon fill="#63b8ff" stroke="#63b8ff" points="415.83,-31 425.83,-27.5 415.83,-24 415.83,-31"/>
</a>
</g>
</g>
<!-- Node3 -->
<g id="Node000003" class="node">
<title>Node3</title>
<g id="a_Node000003"><a xlink:href="classENS160Sensor.html#aac8ea849d26c4a6a567924805d378990" target="_top" xlink:title="Reads Air Quality Index, TVOC (ppb), and ECOS (ppm)">
<polygon fill="white" stroke="#666666" points="154,-56 16,-56 16,-37 154,-37 154,-56"/>
<text text-anchor="middle" x="85" y="-44" font-family="Helvetica,sans-Serif" font-size="10.00">ENS160Sensor::readData</text>
</a>
</g>
</g>
<!-- Node2&#45;&gt;Node3 -->
<g id="edge2_Node000002_Node000003" class="edge">
<title>Node2&#45;&gt;Node3</title>
<g id="a_edge2_Node000002_Node000003"><a xlink:title=" ">
<path fill="none" stroke="#63b8ff" d="M195.74,-36.62C181.63,-37.89 167.42,-39.17 154.12,-40.37"/>
<polygon fill="#63b8ff" stroke="#63b8ff" points="196.34,-40.08 205.99,-35.7 195.71,-33.11 196.34,-40.08"/>
</a>
</g>
</g>
<!-- Node4 -->
<g id="Node000004" class="node">
<title>Node4</title>
<g id="a_Node000004"><a xlink:href="classENS160Sensor.html#a967adb086f27d1ce5ea911bcd6d4f948" target="_top" xlink:title="Used for creating packets, reads data from the sensor and appends it to the passed uint8_t array poin...">
<polygon fill="white" stroke="#666666" points="170,-19 0,-19 0,0 170,0 170,-19"/>
<text text-anchor="middle" x="85" y="-7" font-family="Helvetica,sans-Serif" font-size="10.00">ENS160Sensor::readDataPacket</text>
</a>
</g>
</g>
<!-- Node2&#45;&gt;Node4 -->
<g id="edge3_Node000002_Node000004" class="edge">
<title>Node2&#45;&gt;Node4</title>
<g id="a_edge3_Node000002_Node000004"><a xlink:title=" ">
<path fill="none" stroke="#63b8ff" d="M195.87,-18.87C187.23,-18.14 178.54,-17.39 170.05,-16.67"/>
<polygon fill="#63b8ff" stroke="#63b8ff" points="195.72,-22.37 205.99,-19.74 196.32,-15.4 195.72,-22.37"/>
</a>
</g>
</g>
</g>
</svg>
