<?xml version="1.0" encoding="UTF-8" standalone="no"?>
<!DOCTYPE svg PUBLIC "-//W3C//DTD SVG 1.1//EN"
 "http://www.w3.org/Graphics/SVG/1.1/DTD/svg11.dtd">
<!-- Generated by graphviz version 12.1.2 (20240928.0832)
 -->
<!-- Title: FlashStorage::writeFileHeader Pages: 1 -->
<svg width="820pt" height="85pt"
 viewBox="0.00 0.00 820.25 85.00" xmlns="http://www.w3.org/2000/svg" xmlns:xlink="http://www.w3.org/1999/xlink">
<g id="graph0" class="graph" transform="scale(1 1) rotate(0) translate(4 81)">
<title>FlashStorage::writeFileHeader</title>
<!-- Node1 -->
<g id="Node000001" class="node">
<title>Node1</title>
<g id="a_Node000001"><a xlink:title="Writes the file header to the start of a new sector.">
<polygon fill="#999999" stroke="#666666" points="812.25,-58 664.25,-58 664.25,-38 812.25,-38 812.25,-58"/>
<text text-anchor="middle" x="738.25" y="-44.5" font-family="Helvetica,sans-Serif" font-size="10.00">FlashStorage::writeFileHeader</text>
</a>
</g>
</g>
<!-- Node2 -->
<g id="Node000002" class="node">
<title>Node2</title>
<g id="a_Node000002"><a xlink:href="classFlashStorage.html#a7354ff496fb0a6c4148d1328b4048d46" target="_top" xlink:title="Writes a string to flash atomically.">
<polygon fill="white" stroke="#666666" points="628.25,-77 496,-77 496,-57 628.25,-57 628.25,-77"/>
<text text-anchor="middle" x="562.12" y="-63.5" font-family="Helvetica,sans-Serif" font-size="10.00">FlashStorage::atomicStore</text>
</a>
</g>
</g>
<!-- Node1&#45;&gt;Node2 -->
<g id="edge1_Node000001_Node000002" class="edge">
<title>Node1&#45;&gt;Node2</title>
<g id="a_edge1_Node000001_Node000002"><a xlink:title=" ">
<path fill="none" stroke="#63b8ff" d="M652.58,-57.24C644.53,-58.12 636.46,-59 628.63,-59.85"/>
<polygon fill="#63b8ff" stroke="#63b8ff" points="652.84,-60.73 662.41,-56.17 652.08,-53.77 652.84,-60.73"/>
</a>
</g>
</g>
<!-- Node3 -->
<g id="Node000003" class="node">
<title>Node3</title>
<g id="a_Node000003"><a xlink:href="classFlashStorage.html#a959ed7240cf70430f05686720e1ead5a" target="_top" xlink:title="Locates the next available file block &amp; tracks existing files.">
<polygon fill="white" stroke="#666666" points="625.62,-39 498.62,-39 498.62,-19 625.62,-19 625.62,-39"/>
<text text-anchor="middle" x="562.12" y="-25.5" font-family="Helvetica,sans-Serif" font-size="10.00">FlashStorage::indexFlash</text>
</a>
</g>
</g>
<!-- Node1&#45;&gt;Node3 -->
<g id="edge2_Node000001_Node000003" class="edge">
<title>Node1&#45;&gt;Node3</title>
<g id="a_edge2_Node000001_Node000003"><a xlink:title=" ">
<path fill="none" stroke="#63b8ff" d="M652.58,-38.76C643.59,-37.78 634.57,-36.8 625.9,-35.85"/>
<polygon fill="#63b8ff" stroke="#63b8ff" points="652.08,-42.23 662.41,-39.83 652.84,-35.27 652.08,-42.23"/>
</a>
</g>
</g>
<!-- Node4 -->
<g id="Node000004" class="node">
<title>Node4</title>
<g id="a_Node000004"><a xlink:href="classFlashStorage.html#ad024a499e7eb8774a26f46369f50ad05" target="_top" xlink:title=" ">
<polygon fill="white" stroke="#666666" points="460,-58 335.25,-58 335.25,-38 460,-38 460,-58"/>
<text text-anchor="middle" x="397.62" y="-44.5" font-family="Helvetica,sans-Serif" font-size="10.00">FlashStorage::reinitFlash</text>
</a>
</g>
</g>
<!-- Node3&#45;&gt;Node4 -->
<g id="edge3_Node000003_Node000004" class="edge">
<title>Node3&#45;&gt;Node4</title>
<g id="a_edge3_Node000003_Node000004"><a xlink:title=" ">
<path fill="none" stroke="#63b8ff" d="M487.11,-37.65C478.21,-38.69 469.19,-39.75 460.48,-40.77"/>
<polygon fill="#63b8ff" stroke="#63b8ff" points="487.27,-41.16 496.79,-36.52 486.46,-34.21 487.27,-41.16"/>
</a>
</g>
</g>
<!-- Node8 -->
<g id="Node000008" class="node">
<title>Node8</title>
<g id="a_Node000008"><a xlink:href="classFlashStorage.html#addf2a0a14a0a92ccce2d55eac60282e4" target="_top" xlink:title="Verifies the flash connection and prepares for data storage.">
<polygon fill="white" stroke="#666666" points="449.5,-20 345.75,-20 345.75,0 449.5,0 449.5,-20"/>
<text text-anchor="middle" x="397.62" y="-6.5" font-family="Helvetica,sans-Serif" font-size="10.00">FlashStorage::verify</text>
</a>
</g>
</g>
<!-- Node3&#45;&gt;Node8 -->
<g id="edge8_Node000003_Node000008" class="edge">
<title>Node3&#45;&gt;Node8</title>
<g id="a_edge8_Node000003_Node000008"><a xlink:title=" ">
<path fill="none" stroke="#63b8ff" d="M486.93,-20.32C474.44,-18.86 461.73,-17.38 449.98,-16"/>
<polygon fill="#63b8ff" stroke="#63b8ff" points="486.46,-23.79 496.79,-21.48 487.27,-16.84 486.46,-23.79"/>
</a>
</g>
</g>
<!-- Node5 -->
<g id="Node000005" class="node">
<title>Node5</title>
<g id="a_Node000005"><a xlink:href="main1_8cpp.html#a5d5c43a90af6e8b0e11c818a7e1681e7" target="_top" xlink:title="Loop for core 1.">
<polygon fill="white" stroke="#666666" points="135.5,-58 75.25,-58 75.25,-38 135.5,-38 135.5,-58"/>
<text text-anchor="middle" x="105.38" y="-44.5" font-family="Helvetica,sans-Serif" font-size="10.00">real_loop1</text>
</a>
</g>
</g>
<!-- Node4&#45;&gt;Node5 -->
<g id="edge4_Node000004_Node000005" class="edge">
<title>Node4&#45;&gt;Node5</title>
<g id="a_edge4_Node000004_Node000005"><a xlink:title=" ">
<path fill="none" stroke="#63b8ff" d="M323.63,-48C262.93,-48 179.66,-48 135.94,-48"/>
<polygon fill="#63b8ff" stroke="#63b8ff" points="323.56,-51.5 333.56,-48 323.56,-44.5 323.56,-51.5"/>
</a>
</g>
</g>
<!-- Node7 -->
<g id="Node000007" class="node">
<title>Node7</title>
<g id="a_Node000007"><a xlink:href="classFlashStorage.html#ad8daa31feba03cb7d02efb3124962f20" target="_top" xlink:title="Deletes a file by erasing the sectors it occupies.">
<polygon fill="white" stroke="#666666" points="299.25,-39 171.5,-39 171.5,-19 299.25,-19 299.25,-39"/>
<text text-anchor="middle" x="235.38" y="-25.5" font-family="Helvetica,sans-Serif" font-size="10.00">FlashStorage::removeFile</text>
</a>
</g>
</g>
<!-- Node4&#45;&gt;Node7 -->
<g id="edge6_Node000004_Node000007" class="edge">
<title>Node4&#45;&gt;Node7</title>
<g id="a_edge6_Node000004_Node000007"><a xlink:title=" ">
<path fill="none" stroke="#63b8ff" d="M323.79,-39.36C315.71,-38.41 307.52,-37.44 299.57,-36.49"/>
<polygon fill="#63b8ff" stroke="#63b8ff" points="323.28,-42.83 333.62,-40.53 324.11,-35.88 323.28,-42.83"/>
</a>
</g>
</g>
<!-- Node6 -->
<g id="Node000006" class="node">
<title>Node6</title>
<g id="a_Node000006"><a xlink:href="main_8cpp.html#a39ceba300a80e348e278539f57e0ca79" target="_top" xlink:title=" ">
<polygon fill="white" stroke="#666666" points="39.25,-58 0,-58 0,-38 39.25,-38 39.25,-58"/>
<text text-anchor="middle" x="19.62" y="-44.5" font-family="Helvetica,sans-Serif" font-size="10.00">loop1</text>
</a>
</g>
</g>
<!-- Node5&#45;&gt;Node6 -->
<g id="edge5_Node000005_Node000006" class="edge">
<title>Node5&#45;&gt;Node6</title>
<g id="a_edge5_Node000005_Node000006"><a xlink:title=" ">
<path fill="none" stroke="#63b8ff" d="M63.73,-48C55.27,-48 46.75,-48 39.55,-48"/>
<polygon fill="#63b8ff" stroke="#63b8ff" points="63.57,-51.5 73.57,-48 63.57,-44.5 63.57,-51.5"/>
</a>
</g>
</g>
<!-- Node7&#45;&gt;Node5 -->
<g id="edge7_Node000007_Node000005" class="edge">
<title>Node7&#45;&gt;Node5</title>
<g id="a_edge7_Node000007_Node000005"><a xlink:title=" ">
<path fill="none" stroke="#63b8ff" d="M159.88,-40.06C151.4,-41.32 143.17,-42.54 135.82,-43.63"/>
<polygon fill="#63b8ff" stroke="#63b8ff" points="160.25,-43.54 169.63,-38.61 159.22,-36.62 160.25,-43.54"/>
</a>
</g>
</g>
</g>
</svg>
