<?xml version="1.0" encoding="UTF-8" standalone="no"?>
<!DOCTYPE svg PUBLIC "-//W3C//DTD SVG 1.1//EN"
 "http://www.w3.org/Graphics/SVG/1.1/DTD/svg11.dtd">
<!-- Generated by graphviz version 2.43.0 (0)
 -->
<!-- Title: Sensor Pages: 1 -->
<svg width="1502pt" height="842pt"
 viewBox="0.00 0.00 1502.00 842.00" xmlns="http://www.w3.org/2000/svg" xmlns:xlink="http://www.w3.org/1999/xlink">
<g id="graph0" class="graph" transform="scale(1 1) rotate(0) translate(4 838)">
<title>Sensor</title>
<!-- Node1 -->
<g id="Node000001" class="node">
<title>Node1</title>
<g id="a_Node000001"><a xlink:title="Parent class for sensor objects.">
<polygon fill="#999999" stroke="transparent" points="821.5,-554 688.5,-554 688.5,-220 821.5,-220 821.5,-554"/>
<text text-anchor="start" x="738.5" y="-542" font-family="Helvetica,sans-Serif" font-size="10.00">Sensor</text>
<text text-anchor="start" x="693" y="-527" font-family="Helvetica,sans-Serif" font-size="10.00">#</text>
<text text-anchor="start" x="706" y="-527" font-family="Helvetica,sans-Serif" font-size="10.00">num_fields</text>
<text text-anchor="start" x="695.5" y="-512" font-family="Helvetica,sans-Serif" font-size="10.00">&#45;</text>
<text text-anchor="start" x="706" y="-512" font-family="Helvetica,sans-Serif" font-size="10.00">minimum_period</text>
<text text-anchor="start" x="695.5" y="-497" font-family="Helvetica,sans-Serif" font-size="10.00">&#45;</text>
<text text-anchor="start" x="706" y="-497" font-family="Helvetica,sans-Serif" font-size="10.00">last_execution</text>
<text text-anchor="start" x="695.5" y="-482" font-family="Helvetica,sans-Serif" font-size="10.00">&#45;</text>
<text text-anchor="start" x="706" y="-482" font-family="Helvetica,sans-Serif" font-size="10.00">csv_header</text>
<text text-anchor="start" x="695.5" y="-467" font-family="Helvetica,sans-Serif" font-size="10.00">&#45;</text>
<text text-anchor="start" x="706" y="-467" font-family="Helvetica,sans-Serif" font-size="10.00">empty_csv</text>
<text text-anchor="start" x="693" y="-452" font-family="Helvetica,sans-Serif" font-size="10.00">+</text>
<text text-anchor="start" x="706" y="-452" font-family="Helvetica,sans-Serif" font-size="10.00">Sensor()</text>
<text text-anchor="start" x="693" y="-437" font-family="Helvetica,sans-Serif" font-size="10.00">+</text>
<text text-anchor="start" x="706" y="-437" font-family="Helvetica,sans-Serif" font-size="10.00">Sensor()</text>
<text text-anchor="start" x="693" y="-422" font-family="Helvetica,sans-Serif" font-size="10.00">+</text>
<text text-anchor="start" x="706" y="-422" font-family="Helvetica,sans-Serif" font-size="10.00">Sensor()</text>
<text text-anchor="start" x="693" y="-407" font-family="Helvetica,sans-Serif" font-size="10.00">+</text>
<text text-anchor="start" x="706" y="-407" font-family="Helvetica,sans-Serif" font-size="10.00">Sensor()</text>
<text text-anchor="start" x="693" y="-392" font-family="Helvetica,sans-Serif" font-size="10.00">+</text>
<text text-anchor="start" x="706" y="-392" font-family="Helvetica,sans-Serif" font-size="10.00">getPeriod()</text>
<text text-anchor="start" x="693" y="-377" font-family="Helvetica,sans-Serif" font-size="10.00">+</text>
<text text-anchor="start" x="706" y="-377" font-family="Helvetica,sans-Serif" font-size="10.00">setPeriod()</text>
<text text-anchor="start" x="693" y="-362" font-family="Helvetica,sans-Serif" font-size="10.00">+</text>
<text text-anchor="start" x="706" y="-362" font-family="Helvetica,sans-Serif" font-size="10.00">getLastExecution()</text>
<text text-anchor="start" x="693" y="-347" font-family="Helvetica,sans-Serif" font-size="10.00">+</text>
<text text-anchor="start" x="706" y="-347" font-family="Helvetica,sans-Serif" font-size="10.00">setLastExecution()</text>
<text text-anchor="start" x="693" y="-332" font-family="Helvetica,sans-Serif" font-size="10.00">+</text>
<text text-anchor="start" x="706" y="-332" font-family="Helvetica,sans-Serif" font-size="10.00">getSensorCSVHeader()</text>
<text text-anchor="start" x="693" y="-317" font-family="Helvetica,sans-Serif" font-size="10.00">+</text>
<text text-anchor="start" x="706" y="-317" font-family="Helvetica,sans-Serif" font-size="10.00">verify()</text>
<text text-anchor="start" x="693" y="-302" font-family="Helvetica,sans-Serif" font-size="10.00">+</text>
<text text-anchor="start" x="706" y="-302" font-family="Helvetica,sans-Serif" font-size="10.00">readData()</text>
<text text-anchor="start" x="693" y="-287" font-family="Helvetica,sans-Serif" font-size="10.00">+</text>
<text text-anchor="start" x="706" y="-287" font-family="Helvetica,sans-Serif" font-size="10.00">readDataPacket()</text>
<text text-anchor="start" x="693" y="-272" font-family="Helvetica,sans-Serif" font-size="10.00">+</text>
<text text-anchor="start" x="706" y="-272" font-family="Helvetica,sans-Serif" font-size="10.00">decodeToCSV()</text>
<text text-anchor="start" x="693" y="-257" font-family="Helvetica,sans-Serif" font-size="10.00">+</text>
<text text-anchor="start" x="706" y="-257" font-family="Helvetica,sans-Serif" font-size="10.00">getDataPacket()</text>
<text text-anchor="start" x="693" y="-242" font-family="Helvetica,sans-Serif" font-size="10.00">+</text>
<text text-anchor="start" x="706" y="-242" font-family="Helvetica,sans-Serif" font-size="10.00">readEmpty()</text>
<text text-anchor="start" x="693" y="-227" font-family="Helvetica,sans-Serif" font-size="10.00">+</text>
<text text-anchor="start" x="706" y="-227" font-family="Helvetica,sans-Serif" font-size="10.00">getDataCSV()</text>
<polygon fill="#666666" stroke="#666666" points="689,-537 689,-537 822,-537 822,-537 689,-537"/>
<polygon fill="#666666" stroke="#666666" points="689,-462 689,-462 704,-462 704,-462 689,-462"/>
<polygon fill="#666666" stroke="#666666" points="704,-462 704,-462 822,-462 822,-462 704,-462"/>
<polygon fill="none" stroke="#666666" points="688.5,-220 688.5,-554 821.5,-554 821.5,-220 688.5,-220"/>
</a>
</g>
</g>
<!-- Node3 -->
<g id="Node000003" class="node">
<title>Node3</title>
<g id="a_Node000003"><a xlink:href="classAS7331Sensor.html" target="_top" xlink:title="Implementation of a Sensor for UVA/B/C sensor.">
<polygon fill="white" stroke="transparent" points="106,-161.5 0,-161.5 0,-22.5 106,-22.5 106,-161.5"/>
<text text-anchor="start" x="18" y="-149" font-family="Helvetica,sans-Serif" font-size="10.00">AS7331Sensor</text>
<text text-anchor="start" x="6.5" y="-134" font-family="Helvetica,sans-Serif" font-size="10.00">&#45;</text>
<text text-anchor="start" x="17" y="-134" font-family="Helvetica,sans-Serif" font-size="10.00">myUVSensor</text>
<text text-anchor="start" x="6.5" y="-119" font-family="Helvetica,sans-Serif" font-size="10.00">&#45;</text>
<text text-anchor="start" x="17" y="-119" font-family="Helvetica,sans-Serif" font-size="10.00">i2c_addr</text>
<text text-anchor="start" x="4" y="-104" font-family="Helvetica,sans-Serif" font-size="10.00">+</text>
<text text-anchor="start" x="17" y="-104" font-family="Helvetica,sans-Serif" font-size="10.00">AS7331Sensor()</text>
<text text-anchor="start" x="4" y="-89" font-family="Helvetica,sans-Serif" font-size="10.00">+</text>
<text text-anchor="start" x="17" y="-89" font-family="Helvetica,sans-Serif" font-size="10.00">AS7331Sensor()</text>
<text text-anchor="start" x="4" y="-74" font-family="Helvetica,sans-Serif" font-size="10.00">+</text>
<text text-anchor="start" x="17" y="-74" font-family="Helvetica,sans-Serif" font-size="10.00">verify()</text>
<text text-anchor="start" x="4" y="-59" font-family="Helvetica,sans-Serif" font-size="10.00">+</text>
<text text-anchor="start" x="17" y="-59" font-family="Helvetica,sans-Serif" font-size="10.00">readDataPacket()</text>
<text text-anchor="start" x="4" y="-44" font-family="Helvetica,sans-Serif" font-size="10.00">+</text>
<text text-anchor="start" x="17" y="-44" font-family="Helvetica,sans-Serif" font-size="10.00">decodeToCSV()</text>
<text text-anchor="start" x="4" y="-29" font-family="Helvetica,sans-Serif" font-size="10.00">+</text>
<text text-anchor="start" x="17" y="-29" font-family="Helvetica,sans-Serif" font-size="10.00">readData()</text>
<polygon fill="#666666" stroke="#666666" points="0,-144 0,-144 106,-144 106,-144 0,-144"/>
<polygon fill="#666666" stroke="#666666" points="0,-114 0,-114 15,-114 15,-114 0,-114"/>
<polygon fill="#666666" stroke="#666666" points="15,-114 15,-114 106,-114 106,-114 15,-114"/>
<polygon fill="none" stroke="#666666" points="0,-22.5 0,-161.5 106,-161.5 106,-22.5 0,-22.5"/>
</a>
</g>
</g>
<!-- Node1&#45;&gt;Node3 -->
<g id="edge2_Node000001_Node000003" class="edge">
<title>Node1&#45;&gt;Node3</title>
<g id="a_edge2_Node000001_Node000003"><a xlink:title=" ">
<path fill="none" stroke="#63b8ff" d="M678.06,-378.13C549.9,-361.7 289.58,-313.77 115,-184 106.56,-177.73 98.89,-169.95 92.04,-161.6"/>
<polygon fill="none" stroke="#63b8ff" points="677.82,-381.63 688.18,-379.4 678.69,-374.69 677.82,-381.63"/>
</a>
</g>
</g>
<!-- Node4 -->
<g id="Node000004" class="node">
<title>Node4</title>
<g id="a_Node000004"><a xlink:href="classAnalogTemp.html" target="_top" xlink:title=" ">
<polygon fill="white" stroke="transparent" points="230,-154 124,-154 124,-30 230,-30 230,-154"/>
<text text-anchor="start" x="146.5" y="-142" font-family="Helvetica,sans-Serif" font-size="10.00">AnalogTemp</text>
<text text-anchor="start" x="175" y="-127" font-family="Helvetica,sans-Serif" font-size="10.00"> </text>
<text text-anchor="start" x="128" y="-112" font-family="Helvetica,sans-Serif" font-size="10.00">+</text>
<text text-anchor="start" x="141" y="-112" font-family="Helvetica,sans-Serif" font-size="10.00">AnalogTemp()</text>
<text text-anchor="start" x="128" y="-97" font-family="Helvetica,sans-Serif" font-size="10.00">+</text>
<text text-anchor="start" x="141" y="-97" font-family="Helvetica,sans-Serif" font-size="10.00">AnalogTemp()</text>
<text text-anchor="start" x="128" y="-82" font-family="Helvetica,sans-Serif" font-size="10.00">+</text>
<text text-anchor="start" x="141" y="-82" font-family="Helvetica,sans-Serif" font-size="10.00">verify()</text>
<text text-anchor="start" x="128" y="-67" font-family="Helvetica,sans-Serif" font-size="10.00">+</text>
<text text-anchor="start" x="141" y="-67" font-family="Helvetica,sans-Serif" font-size="10.00">readData()</text>
<text text-anchor="start" x="128" y="-52" font-family="Helvetica,sans-Serif" font-size="10.00">+</text>
<text text-anchor="start" x="141" y="-52" font-family="Helvetica,sans-Serif" font-size="10.00">readDataPacket()</text>
<text text-anchor="start" x="128" y="-37" font-family="Helvetica,sans-Serif" font-size="10.00">+</text>
<text text-anchor="start" x="141" y="-37" font-family="Helvetica,sans-Serif" font-size="10.00">decodeToCSV()</text>
<polygon fill="#666666" stroke="#666666" points="124,-137 124,-137 230,-137 230,-137 124,-137"/>
<polygon fill="#666666" stroke="#666666" points="124,-122 124,-122 230,-122 230,-122 124,-122"/>
<polygon fill="none" stroke="#666666" points="124,-30 124,-154 230,-154 230,-30 124,-30"/>
</a>
</g>
</g>
<!-- Node1&#45;&gt;Node4 -->
<g id="edge3_Node000001_Node000004" class="edge">
<title>Node1&#45;&gt;Node4</title>
<g id="a_edge3_Node000001_Node000004"><a xlink:title=" ">
<path fill="none" stroke="#63b8ff" d="M678.56,-371.07C571.02,-346.97 373.23,-290.99 239,-184 228.54,-175.66 219.16,-165.08 211.06,-154.1"/>
<polygon fill="none" stroke="#63b8ff" points="677.84,-374.5 688.36,-373.23 679.35,-367.66 677.84,-374.5"/>
</a>
</g>
</g>
<!-- Node5 -->
<g id="Node000005" class="node">
<title>Node5</title>
<g id="a_Node000005"><a xlink:href="classBMP390Sensor.html" target="_top" xlink:title="Implementation of a Sensor for BMP384 Pressure and Temperature sensor.">
<polygon fill="white" stroke="transparent" points="354,-161.5 248,-161.5 248,-22.5 354,-22.5 354,-161.5"/>
<text text-anchor="start" x="264.5" y="-149" font-family="Helvetica,sans-Serif" font-size="10.00">BMP390Sensor</text>
<text text-anchor="start" x="254.5" y="-134" font-family="Helvetica,sans-Serif" font-size="10.00">&#45;</text>
<text text-anchor="start" x="265" y="-134" font-family="Helvetica,sans-Serif" font-size="10.00">bmp</text>
<text text-anchor="start" x="254.5" y="-119" font-family="Helvetica,sans-Serif" font-size="10.00">&#45;</text>
<text text-anchor="start" x="265" y="-119" font-family="Helvetica,sans-Serif" font-size="10.00">i2c_bus</text>
<text text-anchor="start" x="252" y="-104" font-family="Helvetica,sans-Serif" font-size="10.00">+</text>
<text text-anchor="start" x="265" y="-104" font-family="Helvetica,sans-Serif" font-size="10.00">BMP390Sensor()</text>
<text text-anchor="start" x="252" y="-89" font-family="Helvetica,sans-Serif" font-size="10.00">+</text>
<text text-anchor="start" x="265" y="-89" font-family="Helvetica,sans-Serif" font-size="10.00">BMP390Sensor()</text>
<text text-anchor="start" x="252" y="-74" font-family="Helvetica,sans-Serif" font-size="10.00">+</text>
<text text-anchor="start" x="265" y="-74" font-family="Helvetica,sans-Serif" font-size="10.00">verify()</text>
<text text-anchor="start" x="252" y="-59" font-family="Helvetica,sans-Serif" font-size="10.00">+</text>
<text text-anchor="start" x="265" y="-59" font-family="Helvetica,sans-Serif" font-size="10.00">readData()</text>
<text text-anchor="start" x="252" y="-44" font-family="Helvetica,sans-Serif" font-size="10.00">+</text>
<text text-anchor="start" x="265" y="-44" font-family="Helvetica,sans-Serif" font-size="10.00">readDataPacket()</text>
<text text-anchor="start" x="252" y="-29" font-family="Helvetica,sans-Serif" font-size="10.00">+</text>
<text text-anchor="start" x="265" y="-29" font-family="Helvetica,sans-Serif" font-size="10.00">decodeToCSV()</text>
<polygon fill="#666666" stroke="#666666" points="248,-144 248,-144 354,-144 354,-144 248,-144"/>
<polygon fill="#666666" stroke="#666666" points="248,-114 248,-114 263,-114 263,-114 248,-114"/>
<polygon fill="#666666" stroke="#666666" points="263,-114 263,-114 354,-114 354,-114 263,-114"/>
<polygon fill="none" stroke="#666666" points="248,-22.5 248,-161.5 354,-161.5 354,-22.5 248,-22.5"/>
</a>
</g>
</g>
<!-- Node1&#45;&gt;Node5 -->
<g id="edge4_Node000001_Node000005" class="edge">
<title>Node1&#45;&gt;Node5</title>
<g id="a_edge4_Node000001_Node000005"><a xlink:title=" ">
<path fill="none" stroke="#63b8ff" d="M678.8,-359.8C594.52,-328.04 458.11,-268.14 363,-184 355.55,-177.41 348.58,-169.75 342.18,-161.71"/>
<polygon fill="none" stroke="#63b8ff" points="677.71,-363.13 688.3,-363.34 680.16,-356.57 677.71,-363.13"/>
</a>
</g>
</g>
<!-- Node6 -->
<g id="Node000006" class="node">
<title>Node6</title>
<g id="a_Node000006"><a xlink:href="classENS160Sensor.html" target="_top" xlink:title="Implementation of a Sensor for the ENS160.">
<polygon fill="white" stroke="transparent" points="492,-169 372,-169 372,-15 492,-15 492,-169"/>
<text text-anchor="start" x="396.5" y="-157" font-family="Helvetica,sans-Serif" font-size="10.00">ENS160Sensor</text>
<text text-anchor="start" x="378.5" y="-142" font-family="Helvetica,sans-Serif" font-size="10.00">&#45;</text>
<text text-anchor="start" x="389" y="-142" font-family="Helvetica,sans-Serif" font-size="10.00">ens</text>
<text text-anchor="start" x="378.5" y="-127" font-family="Helvetica,sans-Serif" font-size="10.00">&#45;</text>
<text text-anchor="start" x="389" y="-127" font-family="Helvetica,sans-Serif" font-size="10.00">i2c_bus</text>
<text text-anchor="start" x="376" y="-112" font-family="Helvetica,sans-Serif" font-size="10.00">+</text>
<text text-anchor="start" x="389" y="-112" font-family="Helvetica,sans-Serif" font-size="10.00">ENS160Sensor()</text>
<text text-anchor="start" x="376" y="-97" font-family="Helvetica,sans-Serif" font-size="10.00">+</text>
<text text-anchor="start" x="389" y="-97" font-family="Helvetica,sans-Serif" font-size="10.00">ENS160Sensor()</text>
<text text-anchor="start" x="376" y="-82" font-family="Helvetica,sans-Serif" font-size="10.00">+</text>
<text text-anchor="start" x="389" y="-82" font-family="Helvetica,sans-Serif" font-size="10.00">verify()</text>
<text text-anchor="start" x="376" y="-67" font-family="Helvetica,sans-Serif" font-size="10.00">+</text>
<text text-anchor="start" x="389" y="-67" font-family="Helvetica,sans-Serif" font-size="10.00">readData()</text>
<text text-anchor="start" x="376" y="-52" font-family="Helvetica,sans-Serif" font-size="10.00">+</text>
<text text-anchor="start" x="389" y="-52" font-family="Helvetica,sans-Serif" font-size="10.00">readDataPacket()</text>
<text text-anchor="start" x="376" y="-37" font-family="Helvetica,sans-Serif" font-size="10.00">+</text>
<text text-anchor="start" x="389" y="-37" font-family="Helvetica,sans-Serif" font-size="10.00">decodeToCSV()</text>
<text text-anchor="start" x="378.5" y="-22" font-family="Helvetica,sans-Serif" font-size="10.00">&#45;</text>
<text text-anchor="start" x="389" y="-22" font-family="Helvetica,sans-Serif" font-size="10.00">setCompensations()</text>
<polygon fill="#666666" stroke="#666666" points="372,-152 372,-152 492,-152 492,-152 372,-152"/>
<polygon fill="#666666" stroke="#666666" points="372,-122 372,-122 387,-122 387,-122 372,-122"/>
<polygon fill="#666666" stroke="#666666" points="387,-122 387,-122 492,-122 492,-122 387,-122"/>
<polygon fill="none" stroke="#666666" points="372,-15 372,-169 492,-169 492,-15 372,-15"/>
</a>
</g>
</g>
<!-- Node1&#45;&gt;Node6 -->
<g id="edge5_Node000001_Node000006" class="edge">
<title>Node1&#45;&gt;Node6</title>
<g id="a_edge5_Node000001_Node000006"><a xlink:title=" ">
<path fill="none" stroke="#63b8ff" d="M680.04,-334.12C627.17,-295.73 556.23,-240.52 501,-184 496.43,-179.32 491.89,-174.34 487.45,-169.2"/>
<polygon fill="none" stroke="#63b8ff" points="678.21,-337.11 688.37,-340.13 682.31,-331.44 678.21,-337.11"/>
</a>
</g>
</g>
<!-- Node7 -->
<g id="Node000007" class="node">
<title>Node7</title>
<g id="a_Node000007"><a xlink:href="classICM20948Sensor.html" target="_top" xlink:title="Implementation of the Sensor class for the Adafruit ICM20948 (9&#45;axis IMU)">
<polygon fill="white" stroke="transparent" points="621.5,-184 510.5,-184 510.5,0 621.5,0 621.5,-184"/>
<text text-anchor="start" x="525.5" y="-172" font-family="Helvetica,sans-Serif" font-size="10.00">ICM20948Sensor</text>
<text text-anchor="start" x="517.5" y="-157" font-family="Helvetica,sans-Serif" font-size="10.00">&#45;</text>
<text text-anchor="start" x="528" y="-157" font-family="Helvetica,sans-Serif" font-size="10.00">icm</text>
<text text-anchor="start" x="517.5" y="-142" font-family="Helvetica,sans-Serif" font-size="10.00">&#45;</text>
<text text-anchor="start" x="528" y="-142" font-family="Helvetica,sans-Serif" font-size="10.00">icm_accel</text>
<text text-anchor="start" x="517.5" y="-127" font-family="Helvetica,sans-Serif" font-size="10.00">&#45;</text>
<text text-anchor="start" x="528" y="-127" font-family="Helvetica,sans-Serif" font-size="10.00">icm_gyro</text>
<text text-anchor="start" x="517.5" y="-112" font-family="Helvetica,sans-Serif" font-size="10.00">&#45;</text>
<text text-anchor="start" x="528" y="-112" font-family="Helvetica,sans-Serif" font-size="10.00">icm_mag</text>
<text text-anchor="start" x="517.5" y="-97" font-family="Helvetica,sans-Serif" font-size="10.00">&#45;</text>
<text text-anchor="start" x="528" y="-97" font-family="Helvetica,sans-Serif" font-size="10.00">icm_temp</text>
<text text-anchor="start" x="515" y="-82" font-family="Helvetica,sans-Serif" font-size="10.00">+</text>
<text text-anchor="start" x="528" y="-82" font-family="Helvetica,sans-Serif" font-size="10.00">ICM20948Sensor()</text>
<text text-anchor="start" x="515" y="-67" font-family="Helvetica,sans-Serif" font-size="10.00">+</text>
<text text-anchor="start" x="528" y="-67" font-family="Helvetica,sans-Serif" font-size="10.00">ICM20948Sensor()</text>
<text text-anchor="start" x="515" y="-52" font-family="Helvetica,sans-Serif" font-size="10.00">+</text>
<text text-anchor="start" x="528" y="-52" font-family="Helvetica,sans-Serif" font-size="10.00">verify()</text>
<text text-anchor="start" x="515" y="-37" font-family="Helvetica,sans-Serif" font-size="10.00">+</text>
<text text-anchor="start" x="528" y="-37" font-family="Helvetica,sans-Serif" font-size="10.00">readData()</text>
<text text-anchor="start" x="515" y="-22" font-family="Helvetica,sans-Serif" font-size="10.00">+</text>
<text text-anchor="start" x="528" y="-22" font-family="Helvetica,sans-Serif" font-size="10.00">readDataPacket()</text>
<text text-anchor="start" x="515" y="-7" font-family="Helvetica,sans-Serif" font-size="10.00">+</text>
<text text-anchor="start" x="528" y="-7" font-family="Helvetica,sans-Serif" font-size="10.00">decodeToCSV()</text>
<polygon fill="#666666" stroke="#666666" points="511,-167 511,-167 622,-167 622,-167 511,-167"/>
<polygon fill="#666666" stroke="#666666" points="511,-92 511,-92 526,-92 526,-92 511,-92"/>
<polygon fill="#666666" stroke="#666666" points="526,-92 526,-92 622,-92 622,-92 526,-92"/>
<polygon fill="none" stroke="#666666" points="510.5,0 510.5,-184 621.5,-184 621.5,0 510.5,0"/>
</a>
</g>
</g>
<!-- Node1&#45;&gt;Node7 -->
<g id="edge6_Node000001_Node000007" class="edge">
<title>Node1&#45;&gt;Node7</title>
<g id="a_edge6_Node000001_Node000007"><a xlink:title=" ">
<path fill="none" stroke="#63b8ff" d="M682.7,-273.92C662.48,-242.58 640.83,-209 621.72,-179.39"/>
<polygon fill="none" stroke="#63b8ff" points="680,-276.19 688.37,-282.7 685.89,-272.4 680,-276.19"/>
</a>
</g>
</g>
<!-- Node8 -->
<g id="Node000008" class="node">
<title>Node8</title>
<g id="a_Node000008"><a xlink:href="classINA260Sensor.html" target="_top" xlink:title="A class to interface with the Adafruit INA260 sensor for current, voltage, and power measurements.">
<polygon fill="white" stroke="transparent" points="746,-154 640,-154 640,-30 746,-30 746,-154"/>
<text text-anchor="start" x="658.5" y="-142" font-family="Helvetica,sans-Serif" font-size="10.00">INA260Sensor</text>
<text text-anchor="start" x="646.5" y="-127" font-family="Helvetica,sans-Serif" font-size="10.00">&#45;</text>
<text text-anchor="start" x="657" y="-127" font-family="Helvetica,sans-Serif" font-size="10.00">ina260</text>
<text text-anchor="start" x="644" y="-112" font-family="Helvetica,sans-Serif" font-size="10.00">+</text>
<text text-anchor="start" x="657" y="-112" font-family="Helvetica,sans-Serif" font-size="10.00">INA260Sensor()</text>
<text text-anchor="start" x="644" y="-97" font-family="Helvetica,sans-Serif" font-size="10.00">+</text>
<text text-anchor="start" x="657" y="-97" font-family="Helvetica,sans-Serif" font-size="10.00">INA260Sensor()</text>
<text text-anchor="start" x="644" y="-82" font-family="Helvetica,sans-Serif" font-size="10.00">+</text>
<text text-anchor="start" x="657" y="-82" font-family="Helvetica,sans-Serif" font-size="10.00">readDataPacket()</text>
<text text-anchor="start" x="644" y="-67" font-family="Helvetica,sans-Serif" font-size="10.00">+</text>
<text text-anchor="start" x="657" y="-67" font-family="Helvetica,sans-Serif" font-size="10.00">decodeToCSV()</text>
<text text-anchor="start" x="644" y="-52" font-family="Helvetica,sans-Serif" font-size="10.00">+</text>
<text text-anchor="start" x="657" y="-52" font-family="Helvetica,sans-Serif" font-size="10.00">verify()</text>
<text text-anchor="start" x="644" y="-37" font-family="Helvetica,sans-Serif" font-size="10.00">+</text>
<text text-anchor="start" x="657" y="-37" font-family="Helvetica,sans-Serif" font-size="10.00">readData()</text>
<polygon fill="#666666" stroke="#666666" points="640,-137 640,-137 746,-137 746,-137 640,-137"/>
<polygon fill="#666666" stroke="#666666" points="640,-122 640,-122 655,-122 655,-122 640,-122"/>
<polygon fill="#666666" stroke="#666666" points="655,-122 655,-122 746,-122 746,-122 655,-122"/>
<polygon fill="none" stroke="#666666" points="640,-30 640,-154 746,-154 746,-30 640,-30"/>
</a>
</g>
</g>
<!-- Node1&#45;&gt;Node8 -->
<g id="edge7_Node000001_Node000008" class="edge">
<title>Node1&#45;&gt;Node8</title>
<g id="a_edge7_Node000001_Node000008"><a xlink:title=" ">
<path fill="none" stroke="#63b8ff" d="M717.76,-209.99C713.55,-190.11 709.5,-170.98 705.94,-154.16"/>
<polygon fill="none" stroke="#63b8ff" points="714.34,-210.75 719.83,-219.81 721.19,-209.3 714.34,-210.75"/>
</a>
</g>
</g>
<!-- Node9 -->
<g id="Node000009" class="node">
<title>Node9</title>
<g id="a_Node000009"><a xlink:href="classMTK3339Sensor.html" target="_top" xlink:title="Implementation of the Adafruit MTK3339 GPS sensor.">
<polygon fill="white" stroke="transparent" points="872,-154 764,-154 764,-30 872,-30 872,-154"/>
<text text-anchor="start" x="778.5" y="-142" font-family="Helvetica,sans-Serif" font-size="10.00">MTK3339Sensor</text>
<text text-anchor="start" x="770.5" y="-127" font-family="Helvetica,sans-Serif" font-size="10.00">&#45;</text>
<text text-anchor="start" x="781" y="-127" font-family="Helvetica,sans-Serif" font-size="10.00">GPS</text>
<text text-anchor="start" x="768" y="-112" font-family="Helvetica,sans-Serif" font-size="10.00">+</text>
<text text-anchor="start" x="781" y="-112" font-family="Helvetica,sans-Serif" font-size="10.00">MTK3339Sensor()</text>
<text text-anchor="start" x="768" y="-97" font-family="Helvetica,sans-Serif" font-size="10.00">+</text>
<text text-anchor="start" x="781" y="-97" font-family="Helvetica,sans-Serif" font-size="10.00">MTK3339Sensor()</text>
<text text-anchor="start" x="768" y="-82" font-family="Helvetica,sans-Serif" font-size="10.00">+</text>
<text text-anchor="start" x="781" y="-82" font-family="Helvetica,sans-Serif" font-size="10.00">verify()</text>
<text text-anchor="start" x="768" y="-67" font-family="Helvetica,sans-Serif" font-size="10.00">+</text>
<text text-anchor="start" x="781" y="-67" font-family="Helvetica,sans-Serif" font-size="10.00">readData()</text>
<text text-anchor="start" x="768" y="-52" font-family="Helvetica,sans-Serif" font-size="10.00">+</text>
<text text-anchor="start" x="781" y="-52" font-family="Helvetica,sans-Serif" font-size="10.00">readDataPacket()</text>
<text text-anchor="start" x="768" y="-37" font-family="Helvetica,sans-Serif" font-size="10.00">+</text>
<text text-anchor="start" x="781" y="-37" font-family="Helvetica,sans-Serif" font-size="10.00">decodeToCSV()</text>
<polygon fill="#666666" stroke="#666666" points="764,-137 764,-137 872,-137 872,-137 764,-137"/>
<polygon fill="#666666" stroke="#666666" points="764,-122 764,-122 779,-122 779,-122 764,-122"/>
<polygon fill="#666666" stroke="#666666" points="779,-122 779,-122 872,-122 872,-122 779,-122"/>
<polygon fill="none" stroke="#666666" points="764,-30 764,-154 872,-154 872,-30 764,-30"/>
</a>
</g>
</g>
<!-- Node1&#45;&gt;Node9 -->
<g id="edge8_Node000001_Node000009" class="edge">
<title>Node1&#45;&gt;Node9</title>
<g id="a_edge8_Node000001_Node000009"><a xlink:title=" ">
<path fill="none" stroke="#63b8ff" d="M792.84,-209.99C797.12,-190.11 801.23,-170.98 804.85,-154.16"/>
<polygon fill="none" stroke="#63b8ff" points="789.41,-209.3 790.73,-219.81 796.26,-210.77 789.41,-209.3"/>
</a>
</g>
</g>
<!-- Node10 -->
<g id="Node000010" class="node">
<title>Node10</title>
<g id="a_Node000010"><a xlink:href="classOzoneSensor.html" target="_top" xlink:title="Implementation of a Sensor for the onboard temperature sensor.">
<polygon fill="white" stroke="transparent" points="996,-154 890,-154 890,-30 996,-30 996,-154"/>
<text text-anchor="start" x="911" y="-142" font-family="Helvetica,sans-Serif" font-size="10.00">OzoneSensor</text>
<text text-anchor="start" x="896.5" y="-127" font-family="Helvetica,sans-Serif" font-size="10.00">&#45;</text>
<text text-anchor="start" x="907" y="-127" font-family="Helvetica,sans-Serif" font-size="10.00">ozone</text>
<text text-anchor="start" x="894" y="-112" font-family="Helvetica,sans-Serif" font-size="10.00">+</text>
<text text-anchor="start" x="907" y="-112" font-family="Helvetica,sans-Serif" font-size="10.00">OzoneSensor()</text>
<text text-anchor="start" x="894" y="-97" font-family="Helvetica,sans-Serif" font-size="10.00">+</text>
<text text-anchor="start" x="907" y="-97" font-family="Helvetica,sans-Serif" font-size="10.00">OzoneSensor()</text>
<text text-anchor="start" x="894" y="-82" font-family="Helvetica,sans-Serif" font-size="10.00">+</text>
<text text-anchor="start" x="907" y="-82" font-family="Helvetica,sans-Serif" font-size="10.00">verify()</text>
<text text-anchor="start" x="894" y="-67" font-family="Helvetica,sans-Serif" font-size="10.00">+</text>
<text text-anchor="start" x="907" y="-67" font-family="Helvetica,sans-Serif" font-size="10.00">readData()</text>
<text text-anchor="start" x="894" y="-52" font-family="Helvetica,sans-Serif" font-size="10.00">+</text>
<text text-anchor="start" x="907" y="-52" font-family="Helvetica,sans-Serif" font-size="10.00">readDataPacket()</text>
<text text-anchor="start" x="894" y="-37" font-family="Helvetica,sans-Serif" font-size="10.00">+</text>
<text text-anchor="start" x="907" y="-37" font-family="Helvetica,sans-Serif" font-size="10.00">decodeToCSV()</text>
<polygon fill="#666666" stroke="#666666" points="890,-137 890,-137 996,-137 996,-137 890,-137"/>
<polygon fill="#666666" stroke="#666666" points="890,-122 890,-122 905,-122 905,-122 890,-122"/>
<polygon fill="#666666" stroke="#666666" points="905,-122 905,-122 996,-122 996,-122 905,-122"/>
<polygon fill="none" stroke="#666666" points="890,-30 890,-154 996,-154 996,-30 890,-30"/>
</a>
</g>
</g>
<!-- Node1&#45;&gt;Node10 -->
<g id="edge9_Node000001_Node000010" class="edge">
<title>Node1&#45;&gt;Node10</title>
<g id="a_edge9_Node000001_Node000010"><a xlink:title=" ">
<path fill="none" stroke="#63b8ff" d="M827.06,-273.69C853.08,-233.14 881.48,-188.88 903.66,-154.32"/>
<polygon fill="none" stroke="#63b8ff" points="824,-271.98 821.55,-282.29 829.89,-275.76 824,-271.98"/>
</a>
</g>
</g>
<!-- Node11 -->
<g id="Node000011" class="node">
<title>Node11</title>
<g id="a_Node000011"><a xlink:href="classPCF8523Sensor.html" target="_top" xlink:title="Implementation of the PCF8523 sensor.">
<polygon fill="white" stroke="transparent" points="1120,-161.5 1014,-161.5 1014,-22.5 1120,-22.5 1120,-161.5"/>
<text text-anchor="start" x="1029" y="-149" font-family="Helvetica,sans-Serif" font-size="10.00">PCF8523Sensor</text>
<text text-anchor="start" x="1020.5" y="-134" font-family="Helvetica,sans-Serif" font-size="10.00">&#45;</text>
<text text-anchor="start" x="1031" y="-134" font-family="Helvetica,sans-Serif" font-size="10.00">rtc</text>
<text text-anchor="start" x="1018" y="-119" font-family="Helvetica,sans-Serif" font-size="10.00">+</text>
<text text-anchor="start" x="1031" y="-119" font-family="Helvetica,sans-Serif" font-size="10.00">PCF8523Sensor()</text>
<text text-anchor="start" x="1018" y="-104" font-family="Helvetica,sans-Serif" font-size="10.00">+</text>
<text text-anchor="start" x="1031" y="-104" font-family="Helvetica,sans-Serif" font-size="10.00">PCF8523Sensor()</text>
<text text-anchor="start" x="1018" y="-89" font-family="Helvetica,sans-Serif" font-size="10.00">+</text>
<text text-anchor="start" x="1031" y="-89" font-family="Helvetica,sans-Serif" font-size="10.00">verify()</text>
<text text-anchor="start" x="1018" y="-74" font-family="Helvetica,sans-Serif" font-size="10.00">+</text>
<text text-anchor="start" x="1031" y="-74" font-family="Helvetica,sans-Serif" font-size="10.00">decodeToCSV()</text>
<text text-anchor="start" x="1018" y="-59" font-family="Helvetica,sans-Serif" font-size="10.00">+</text>
<text text-anchor="start" x="1031" y="-59" font-family="Helvetica,sans-Serif" font-size="10.00">readDataPacket()</text>
<text text-anchor="start" x="1018" y="-44" font-family="Helvetica,sans-Serif" font-size="10.00">+</text>
<text text-anchor="start" x="1031" y="-44" font-family="Helvetica,sans-Serif" font-size="10.00">readData()</text>
<text text-anchor="start" x="1018" y="-29" font-family="Helvetica,sans-Serif" font-size="10.00">+</text>
<text text-anchor="start" x="1031" y="-29" font-family="Helvetica,sans-Serif" font-size="10.00">calibrate()</text>
<polygon fill="#666666" stroke="#666666" points="1014,-144 1014,-144 1120,-144 1120,-144 1014,-144"/>
<polygon fill="#666666" stroke="#666666" points="1014,-129 1014,-129 1029,-129 1029,-129 1014,-129"/>
<polygon fill="#666666" stroke="#666666" points="1029,-129 1029,-129 1120,-129 1120,-129 1029,-129"/>
<polygon fill="none" stroke="#666666" points="1014,-22.5 1014,-161.5 1120,-161.5 1120,-22.5 1014,-22.5"/>
</a>
</g>
</g>
<!-- Node1&#45;&gt;Node11 -->
<g id="edge10_Node000001_Node000011" class="edge">
<title>Node1&#45;&gt;Node11</title>
<g id="a_edge10_Node000001_Node000011"><a xlink:title=" ">
<path fill="none" stroke="#63b8ff" d="M829.85,-334.55C882.24,-296.48 952.05,-241.45 1005,-184 1011.35,-177.11 1017.54,-169.53 1023.4,-161.76"/>
<polygon fill="none" stroke="#63b8ff" points="827.65,-331.82 821.6,-340.52 831.75,-337.5 827.65,-331.82"/>
</a>
</g>
</g>
<!-- Node12 -->
<g id="Node000012" class="node">
<title>Node12</title>
<g id="a_Node000012"><a xlink:href="classSHTC3Sensor.html" target="_top" xlink:title="Implementation of a Sensor for the SHTC3.">
<polygon fill="white" stroke="transparent" points="1246,-176.5 1138,-176.5 1138,-7.5 1246,-7.5 1246,-176.5"/>
<text text-anchor="start" x="1159.5" y="-164" font-family="Helvetica,sans-Serif" font-size="10.00">SHTC3Sensor</text>
<text text-anchor="start" x="1144.5" y="-149" font-family="Helvetica,sans-Serif" font-size="10.00">&#45;</text>
<text text-anchor="start" x="1155" y="-149" font-family="Helvetica,sans-Serif" font-size="10.00">shtc3</text>
<text text-anchor="start" x="1144.5" y="-134" font-family="Helvetica,sans-Serif" font-size="10.00">&#45;</text>
<text text-anchor="start" x="1155" y="-134" font-family="Helvetica,sans-Serif" font-size="10.00">relative_humidity</text>
<text text-anchor="start" x="1144.5" y="-119" font-family="Helvetica,sans-Serif" font-size="10.00">&#45;</text>
<text text-anchor="start" x="1155" y="-119" font-family="Helvetica,sans-Serif" font-size="10.00">i2c_bus</text>
<text text-anchor="start" x="1142" y="-104" font-family="Helvetica,sans-Serif" font-size="10.00">+</text>
<text text-anchor="start" x="1155" y="-104" font-family="Helvetica,sans-Serif" font-size="10.00">SHTC3Sensor()</text>
<text text-anchor="start" x="1142" y="-89" font-family="Helvetica,sans-Serif" font-size="10.00">+</text>
<text text-anchor="start" x="1155" y="-89" font-family="Helvetica,sans-Serif" font-size="10.00">SHTC3Sensor()</text>
<text text-anchor="start" x="1142" y="-74" font-family="Helvetica,sans-Serif" font-size="10.00">+</text>
<text text-anchor="start" x="1155" y="-74" font-family="Helvetica,sans-Serif" font-size="10.00">verify()</text>
<text text-anchor="start" x="1142" y="-59" font-family="Helvetica,sans-Serif" font-size="10.00">+</text>
<text text-anchor="start" x="1155" y="-59" font-family="Helvetica,sans-Serif" font-size="10.00">readData()</text>
<text text-anchor="start" x="1142" y="-44" font-family="Helvetica,sans-Serif" font-size="10.00">+</text>
<text text-anchor="start" x="1155" y="-44" font-family="Helvetica,sans-Serif" font-size="10.00">readDataPacket()</text>
<text text-anchor="start" x="1142" y="-29" font-family="Helvetica,sans-Serif" font-size="10.00">+</text>
<text text-anchor="start" x="1155" y="-29" font-family="Helvetica,sans-Serif" font-size="10.00">decodeToCSV()</text>
<text text-anchor="start" x="1142" y="-14" font-family="Helvetica,sans-Serif" font-size="10.00">+</text>
<text text-anchor="start" x="1155" y="-14" font-family="Helvetica,sans-Serif" font-size="10.00">getRelHum()</text>
<polygon fill="#666666" stroke="#666666" points="1138,-159 1138,-159 1246,-159 1246,-159 1138,-159"/>
<polygon fill="#666666" stroke="#666666" points="1138,-114 1138,-114 1153,-114 1153,-114 1138,-114"/>
<polygon fill="#666666" stroke="#666666" points="1153,-114 1153,-114 1246,-114 1246,-114 1153,-114"/>
<polygon fill="none" stroke="#666666" points="1138,-7.5 1138,-176.5 1246,-176.5 1246,-7.5 1138,-7.5"/>
</a>
</g>
</g>
<!-- Node1&#45;&gt;Node12 -->
<g id="edge11_Node000001_Node000012" class="edge">
<title>Node1&#45;&gt;Node12</title>
<g id="a_edge11_Node000001_Node000012"><a xlink:title=" ">
<path fill="none" stroke="#63b8ff" d="M831.2,-357.38C911.7,-324.45 1039.19,-264.41 1129,-184 1132.01,-181.31 1134.94,-178.45 1137.8,-175.46"/>
<polygon fill="none" stroke="#63b8ff" points="829.57,-354.26 821.62,-361.26 832.2,-360.75 829.57,-354.26"/>
</a>
</g>
</g>
<!-- Node13 -->
<g id="Node000013" class="node">
<title>Node13</title>
<g id="a_Node000013"><a xlink:href="classTMP11xSensor.html" target="_top" xlink:title="Implementation of a Sensor for the TMP117.">
<polygon fill="white" stroke="transparent" points="1370,-176.5 1264,-176.5 1264,-7.5 1370,-7.5 1370,-176.5"/>
<text text-anchor="start" x="1280.5" y="-164" font-family="Helvetica,sans-Serif" font-size="10.00">TMP11xSensor</text>
<text text-anchor="start" x="1270.5" y="-149" font-family="Helvetica,sans-Serif" font-size="10.00">&#45;</text>
<text text-anchor="start" x="1281" y="-149" font-family="Helvetica,sans-Serif" font-size="10.00">tmp</text>
<text text-anchor="start" x="1270.5" y="-134" font-family="Helvetica,sans-Serif" font-size="10.00">&#45;</text>
<text text-anchor="start" x="1281" y="-134" font-family="Helvetica,sans-Serif" font-size="10.00">tempC</text>
<text text-anchor="start" x="1270.5" y="-119" font-family="Helvetica,sans-Serif" font-size="10.00">&#45;</text>
<text text-anchor="start" x="1281" y="-119" font-family="Helvetica,sans-Serif" font-size="10.00">i2c_bus</text>
<text text-anchor="start" x="1268" y="-104" font-family="Helvetica,sans-Serif" font-size="10.00">+</text>
<text text-anchor="start" x="1281" y="-104" font-family="Helvetica,sans-Serif" font-size="10.00">TMP11xSensor()</text>
<text text-anchor="start" x="1268" y="-89" font-family="Helvetica,sans-Serif" font-size="10.00">+</text>
<text text-anchor="start" x="1281" y="-89" font-family="Helvetica,sans-Serif" font-size="10.00">TMP11xSensor()</text>
<text text-anchor="start" x="1268" y="-74" font-family="Helvetica,sans-Serif" font-size="10.00">+</text>
<text text-anchor="start" x="1281" y="-74" font-family="Helvetica,sans-Serif" font-size="10.00">verify()</text>
<text text-anchor="start" x="1268" y="-59" font-family="Helvetica,sans-Serif" font-size="10.00">+</text>
<text text-anchor="start" x="1281" y="-59" font-family="Helvetica,sans-Serif" font-size="10.00">readData()</text>
<text text-anchor="start" x="1268" y="-44" font-family="Helvetica,sans-Serif" font-size="10.00">+</text>
<text text-anchor="start" x="1281" y="-44" font-family="Helvetica,sans-Serif" font-size="10.00">readDataPacket()</text>
<text text-anchor="start" x="1268" y="-29" font-family="Helvetica,sans-Serif" font-size="10.00">+</text>
<text text-anchor="start" x="1281" y="-29" font-family="Helvetica,sans-Serif" font-size="10.00">decodeToCSV()</text>
<text text-anchor="start" x="1268" y="-14" font-family="Helvetica,sans-Serif" font-size="10.00">+</text>
<text text-anchor="start" x="1281" y="-14" font-family="Helvetica,sans-Serif" font-size="10.00">getTempC()</text>
<polygon fill="#666666" stroke="#666666" points="1264,-159 1264,-159 1370,-159 1370,-159 1264,-159"/>
<polygon fill="#666666" stroke="#666666" points="1264,-114 1264,-114 1279,-114 1279,-114 1264,-114"/>
<polygon fill="#666666" stroke="#666666" points="1279,-114 1279,-114 1370,-114 1370,-114 1279,-114"/>
<polygon fill="none" stroke="#666666" points="1264,-7.5 1264,-176.5 1370,-176.5 1370,-7.5 1264,-7.5"/>
</a>
</g>
</g>
<!-- Node1&#45;&gt;Node13 -->
<g id="edge12_Node000001_Node000013" class="edge">
<title>Node1&#45;&gt;Node13</title>
<g id="a_edge12_Node000001_Node000013"><a xlink:title=" ">
<path fill="none" stroke="#63b8ff" d="M831.53,-369.89C936.26,-344.77 1125.95,-288.01 1255,-184 1257.98,-181.6 1260.87,-179.02 1263.67,-176.3"/>
<polygon fill="none" stroke="#63b8ff" points="830.59,-366.51 821.66,-372.22 832.2,-373.32 830.59,-366.51"/>
</a>
</g>
</g>
<!-- Node14 -->
<g id="Node000014" class="node">
<title>Node14</title>
<g id="a_Node000014"><a xlink:href="classTempSensor.html" target="_top" xlink:title="Implementation of a Sensor for the onboard temperature sensor.">
<polygon fill="white" stroke="transparent" points="1494,-154 1388,-154 1388,-30 1494,-30 1494,-154"/>
<text text-anchor="start" x="1411" y="-142" font-family="Helvetica,sans-Serif" font-size="10.00">TempSensor</text>
<text text-anchor="start" x="1439" y="-127" font-family="Helvetica,sans-Serif" font-size="10.00"> </text>
<text text-anchor="start" x="1392" y="-112" font-family="Helvetica,sans-Serif" font-size="10.00">+</text>
<text text-anchor="start" x="1405" y="-112" font-family="Helvetica,sans-Serif" font-size="10.00">TempSensor()</text>
<text text-anchor="start" x="1392" y="-97" font-family="Helvetica,sans-Serif" font-size="10.00">+</text>
<text text-anchor="start" x="1405" y="-97" font-family="Helvetica,sans-Serif" font-size="10.00">TempSensor()</text>
<text text-anchor="start" x="1392" y="-82" font-family="Helvetica,sans-Serif" font-size="10.00">+</text>
<text text-anchor="start" x="1405" y="-82" font-family="Helvetica,sans-Serif" font-size="10.00">verify()</text>
<text text-anchor="start" x="1392" y="-67" font-family="Helvetica,sans-Serif" font-size="10.00">+</text>
<text text-anchor="start" x="1405" y="-67" font-family="Helvetica,sans-Serif" font-size="10.00">readData()</text>
<text text-anchor="start" x="1392" y="-52" font-family="Helvetica,sans-Serif" font-size="10.00">+</text>
<text text-anchor="start" x="1405" y="-52" font-family="Helvetica,sans-Serif" font-size="10.00">readDataPacket()</text>
<text text-anchor="start" x="1392" y="-37" font-family="Helvetica,sans-Serif" font-size="10.00">+</text>
<text text-anchor="start" x="1405" y="-37" font-family="Helvetica,sans-Serif" font-size="10.00">decodeToCSV()</text>
<polygon fill="#666666" stroke="#666666" points="1388,-137 1388,-137 1494,-137 1494,-137 1388,-137"/>
<polygon fill="#666666" stroke="#666666" points="1388,-122 1388,-122 1494,-122 1494,-122 1388,-122"/>
<polygon fill="none" stroke="#666666" points="1388,-30 1388,-154 1494,-154 1494,-30 1388,-30"/>
</a>
</g>
</g>
<!-- Node1&#45;&gt;Node14 -->
<g id="edge13_Node000001_Node000014" class="edge">
<title>Node1&#45;&gt;Node14</title>
<g id="a_edge13_Node000001_Node000014"><a xlink:title=" ">
<path fill="none" stroke="#63b8ff" d="M831.5,-377.42C956.99,-360.05 1209.52,-310.95 1379,-184 1389.86,-175.86 1399.47,-165.24 1407.68,-154.14"/>
<polygon fill="none" stroke="#63b8ff" points="831.03,-373.95 821.59,-378.76 831.97,-380.89 831.03,-373.95"/>
</a>
</g>
</g>
<!-- Node2 -->
<g id="Node000002" class="node">
<title>Node2</title>
<g id="a_Node000002"><a xlink:href="classDevice.html" target="_top" xlink:title="Implements the recovery system for Sensor and Storage objects.">
<polygon fill="white" stroke="transparent" points="816.5,-834 693.5,-834 693.5,-590 816.5,-590 816.5,-834"/>
<text text-anchor="start" x="738.5" y="-822" font-family="Helvetica,sans-Serif" font-size="10.00">Device</text>
<text text-anchor="start" x="698" y="-807" font-family="Helvetica,sans-Serif" font-size="10.00">#</text>
<text text-anchor="start" x="711" y="-807" font-family="Helvetica,sans-Serif" font-size="10.00">verified</text>
<text text-anchor="start" x="698" y="-792" font-family="Helvetica,sans-Serif" font-size="10.00">#</text>
<text text-anchor="start" x="711" y="-792" font-family="Helvetica,sans-Serif" font-size="10.00">device_name</text>
<text text-anchor="start" x="700.5" y="-777" font-family="Helvetica,sans-Serif" font-size="10.00">&#45;</text>
<text text-anchor="start" x="711" y="-777" font-family="Helvetica,sans-Serif" font-size="10.00">last_attempt</text>
<text text-anchor="start" x="700.5" y="-762" font-family="Helvetica,sans-Serif" font-size="10.00">&#45;</text>
<text text-anchor="start" x="711" y="-762" font-family="Helvetica,sans-Serif" font-size="10.00">max_attempts</text>
<text text-anchor="start" x="700.5" y="-747" font-family="Helvetica,sans-Serif" font-size="10.00">&#45;</text>
<text text-anchor="start" x="711" y="-747" font-family="Helvetica,sans-Serif" font-size="10.00">attempt_number</text>
<text text-anchor="start" x="700.5" y="-732" font-family="Helvetica,sans-Serif" font-size="10.00">&#45;</text>
<text text-anchor="start" x="711" y="-732" font-family="Helvetica,sans-Serif" font-size="10.00">wait_factor</text>
<text text-anchor="start" x="698" y="-717" font-family="Helvetica,sans-Serif" font-size="10.00">+</text>
<text text-anchor="start" x="711" y="-717" font-family="Helvetica,sans-Serif" font-size="10.00">Device()</text>
<text text-anchor="start" x="698" y="-702" font-family="Helvetica,sans-Serif" font-size="10.00">+</text>
<text text-anchor="start" x="711" y="-702" font-family="Helvetica,sans-Serif" font-size="10.00">Device()</text>
<text text-anchor="start" x="698" y="-687" font-family="Helvetica,sans-Serif" font-size="10.00">+</text>
<text text-anchor="start" x="711" y="-687" font-family="Helvetica,sans-Serif" font-size="10.00">getDeviceName()</text>
<text text-anchor="start" x="698" y="-672" font-family="Helvetica,sans-Serif" font-size="10.00">+</text>
<text text-anchor="start" x="711" y="-672" font-family="Helvetica,sans-Serif" font-size="10.00">verify()</text>
<text text-anchor="start" x="698" y="-657" font-family="Helvetica,sans-Serif" font-size="10.00">+</text>
<text text-anchor="start" x="711" y="-657" font-family="Helvetica,sans-Serif" font-size="10.00">getVerified()</text>
<text text-anchor="start" x="698" y="-642" font-family="Helvetica,sans-Serif" font-size="10.00">+</text>
<text text-anchor="start" x="711" y="-642" font-family="Helvetica,sans-Serif" font-size="10.00">recoveryConfig()</text>
<text text-anchor="start" x="698" y="-627" font-family="Helvetica,sans-Serif" font-size="10.00">+</text>
<text text-anchor="start" x="711" y="-627" font-family="Helvetica,sans-Serif" font-size="10.00">setWaitFactor()</text>
<text text-anchor="start" x="698" y="-612" font-family="Helvetica,sans-Serif" font-size="10.00">+</text>
<text text-anchor="start" x="711" y="-612" font-family="Helvetica,sans-Serif" font-size="10.00">setMaxAttempts()</text>
<text text-anchor="start" x="698" y="-597" font-family="Helvetica,sans-Serif" font-size="10.00">+</text>
<text text-anchor="start" x="711" y="-597" font-family="Helvetica,sans-Serif" font-size="10.00">attemptConnection()</text>
<polygon fill="#666666" stroke="#666666" points="694,-817 694,-817 817,-817 817,-817 694,-817"/>
<polygon fill="#666666" stroke="#666666" points="694,-727 694,-727 709,-727 709,-727 694,-727"/>
<polygon fill="#666666" stroke="#666666" points="709,-727 709,-727 817,-727 817,-727 709,-727"/>
<polygon fill="none" stroke="#666666" points="693.5,-590 693.5,-834 816.5,-834 816.5,-590 693.5,-590"/>
</a>
</g>
</g>
<!-- Node2&#45;&gt;Node1 -->
<g id="edge1_Node000001_Node000002" class="edge">
<title>Node2&#45;&gt;Node1</title>
<g id="a_edge1_Node000001_Node000002"><a xlink:title=" ">
<path fill="none" stroke="#63b8ff" d="M755,-579.65C755,-571.27 755,-562.78 755,-554.27"/>
<polygon fill="none" stroke="#63b8ff" points="751.5,-579.81 755,-589.81 758.5,-579.81 751.5,-579.81"/>
</a>
</g>
</g>
</g>
</svg>
