<?xml version="1.0" encoding="UTF-8" standalone="no"?>
<!DOCTYPE svg PUBLIC "-//W3C//DTD SVG 1.1//EN"
 "http://www.w3.org/Graphics/SVG/1.1/DTD/svg11.dtd">
<!-- Generated by graphviz version 12.1.2 (20240928.0832)
 -->
<!-- Title: FlashStorage Pages: 1 -->
<svg width="655pt" height="852pt"
 viewBox="0.00 0.00 655.00 852.00" xmlns="http://www.w3.org/2000/svg" xmlns:xlink="http://www.w3.org/1999/xlink">
<g id="graph0" class="graph" transform="scale(1 1) rotate(0) translate(4 848)">
<title>FlashStorage</title>
<!-- Node1 -->
<g id="Node000001" class="node">
<title>Node1</title>
<g id="a_Node000001"><a xlink:title=" ">
<polygon fill="#999999" stroke="none" points="447,-308 309,-308 309,0 447,0 447,-308"/>
<text text-anchor="start" x="349.12" y="-294.5" font-family="Helvetica,sans-Serif" font-size="10.00">FlashStorage</text>
<text text-anchor="start" x="376.5" y="-278.5" font-family="Helvetica,sans-Serif" font-size="10.00"> </text>
<text text-anchor="start" x="313" y="-262.5" font-family="Helvetica,sans-Serif" font-size="10.00">+</text>
<text text-anchor="start" x="323" y="-262.5" font-family="Helvetica,sans-Serif" font-size="10.00">FlashStorage()</text>
<text text-anchor="start" x="313" y="-246.5" font-family="Helvetica,sans-Serif" font-size="10.00">+</text>
<text text-anchor="start" x="323" y="-246.5" font-family="Helvetica,sans-Serif" font-size="10.00">verify()</text>
<text text-anchor="start" x="313" y="-230.5" font-family="Helvetica,sans-Serif" font-size="10.00">+</text>
<text text-anchor="start" x="323" y="-230.5" font-family="Helvetica,sans-Serif" font-size="10.00">store()</text>
<text text-anchor="start" x="313" y="-214.5" font-family="Helvetica,sans-Serif" font-size="10.00">+</text>
<text text-anchor="start" x="323" y="-214.5" font-family="Helvetica,sans-Serif" font-size="10.00">storePacket()</text>
<text text-anchor="start" x="313" y="-198.5" font-family="Helvetica,sans-Serif" font-size="10.00">+</text>
<text text-anchor="start" x="323" y="-198.5" font-family="Helvetica,sans-Serif" font-size="10.00">dump()</text>
<text text-anchor="start" x="313" y="-182.5" font-family="Helvetica,sans-Serif" font-size="10.00">+</text>
<text text-anchor="start" x="323" y="-182.5" font-family="Helvetica,sans-Serif" font-size="10.00">reinitFlash()</text>
<text text-anchor="start" x="313" y="-166.5" font-family="Helvetica,sans-Serif" font-size="10.00">+</text>
<text text-anchor="start" x="323" y="-166.5" font-family="Helvetica,sans-Serif" font-size="10.00">erase()</text>
<text text-anchor="start" x="313" y="-150.5" font-family="Helvetica,sans-Serif" font-size="10.00">+</text>
<text text-anchor="start" x="323" y="-150.5" font-family="Helvetica,sans-Serif" font-size="10.00">downloadFile()</text>
<text text-anchor="start" x="313" y="-134.5" font-family="Helvetica,sans-Serif" font-size="10.00">+</text>
<text text-anchor="start" x="323" y="-134.5" font-family="Helvetica,sans-Serif" font-size="10.00">getStatus()</text>
<text text-anchor="start" x="313" y="-118.5" font-family="Helvetica,sans-Serif" font-size="10.00">+</text>
<text text-anchor="start" x="323" y="-118.5" font-family="Helvetica,sans-Serif" font-size="10.00">atomicStore()</text>
<text text-anchor="start" x="313" y="-102.5" font-family="Helvetica,sans-Serif" font-size="10.00">+</text>
<text text-anchor="start" x="323" y="-102.5" font-family="Helvetica,sans-Serif" font-size="10.00">removeFile()</text>
<text text-anchor="start" x="313" y="-86.5" font-family="Helvetica,sans-Serif" font-size="10.00">+</text>
<text text-anchor="start" x="323" y="-86.5" font-family="Helvetica,sans-Serif" font-size="10.00">checkFreeSpaceWarnings()</text>
<text text-anchor="start" x="314.5" y="-70.5" font-family="Helvetica,sans-Serif" font-size="10.00">&#45;</text>
<text text-anchor="start" x="323" y="-70.5" font-family="Helvetica,sans-Serif" font-size="10.00">indexFlash()</text>
<text text-anchor="start" x="314.5" y="-54.5" font-family="Helvetica,sans-Serif" font-size="10.00">&#45;</text>
<text text-anchor="start" x="323" y="-54.5" font-family="Helvetica,sans-Serif" font-size="10.00">loadAddress()</text>
<text text-anchor="start" x="314.5" y="-38.5" font-family="Helvetica,sans-Serif" font-size="10.00">&#45;</text>
<text text-anchor="start" x="323" y="-38.5" font-family="Helvetica,sans-Serif" font-size="10.00">isSectorEmpty()</text>
<text text-anchor="start" x="314.5" y="-22.5" font-family="Helvetica,sans-Serif" font-size="10.00">&#45;</text>
<text text-anchor="start" x="323" y="-22.5" font-family="Helvetica,sans-Serif" font-size="10.00">readFileHeader()</text>
<text text-anchor="start" x="314.5" y="-6.5" font-family="Helvetica,sans-Serif" font-size="10.00">&#45;</text>
<text text-anchor="start" x="323" y="-6.5" font-family="Helvetica,sans-Serif" font-size="10.00">writeFileHeader()</text>
<polygon fill="#666666" stroke="#666666" points="309,-290 309,-290 447,-290 447,-290 309,-290"/>
<polygon fill="#666666" stroke="#666666" points="309,-274 309,-274 447,-274 447,-274 309,-274"/>
<polygon fill="none" stroke="#666666" points="309,0 309,-308 447,-308 447,0 309,0"/>
</a>
</g>
</g>
<!-- Node2 -->
<g id="Node000002" class="node">
<title>Node2</title>
<g id="a_Node000002"><a xlink:href="classStorage.html" target="_top" xlink:title="Parent class for all data storage devices (sd card, radio, etc)">
<polygon fill="white" stroke="none" points="290,-504 214,-504 214,-404 290,-404 290,-504"/>
<text text-anchor="start" x="235.12" y="-490.5" font-family="Helvetica,sans-Serif" font-size="10.00">Storage</text>
<text text-anchor="start" x="250.5" y="-474.5" font-family="Helvetica,sans-Serif" font-size="10.00"> </text>
<text text-anchor="start" x="218" y="-458.5" font-family="Helvetica,sans-Serif" font-size="10.00">+</text>
<text text-anchor="start" x="228" y="-458.5" font-family="Helvetica,sans-Serif" font-size="10.00">Storage()</text>
<text text-anchor="start" x="218" y="-442.5" font-family="Helvetica,sans-Serif" font-size="10.00">+</text>
<text text-anchor="start" x="228" y="-442.5" font-family="Helvetica,sans-Serif" font-size="10.00">verify()</text>
<text text-anchor="start" x="218" y="-426.5" font-family="Helvetica,sans-Serif" font-size="10.00">+</text>
<text text-anchor="start" x="228" y="-426.5" font-family="Helvetica,sans-Serif" font-size="10.00">store()</text>
<text text-anchor="start" x="218" y="-410.5" font-family="Helvetica,sans-Serif" font-size="10.00">+</text>
<text text-anchor="start" x="228" y="-410.5" font-family="Helvetica,sans-Serif" font-size="10.00">storePacket()</text>
<polygon fill="#666666" stroke="#666666" points="214,-486 214,-486 290,-486 290,-486 214,-486"/>
<polygon fill="#666666" stroke="#666666" points="214,-470 214,-470 290,-470 290,-470 214,-470"/>
<polygon fill="none" stroke="#666666" points="214,-404 214,-504 290,-504 290,-404 214,-404"/>
</a>
</g>
</g>
<!-- Node2&#45;&gt;Node1 -->
<g id="edge1_Node000001_Node000002" class="edge">
<title>Node2&#45;&gt;Node1</title>
<g id="a_edge1_Node000001_Node000002"><a xlink:title=" ">
<path fill="none" stroke="#63b8ff" d="M277.04,-393.77C287.6,-368.8 300.43,-338.46 313.35,-307.91"/>
<polygon fill="none" stroke="#63b8ff" points="273.93,-392.16 273.25,-402.73 280.37,-394.88 273.93,-392.16"/>
</a>
</g>
</g>
<!-- Node3 -->
<g id="Node000003" class="node">
<title>Node3</title>
<g id="a_Node000003"><a xlink:href="classDevice.html" target="_top" xlink:title="Implements the recovery system for Sensor and Storage objects.">
<polygon fill="white" stroke="none" points="246,-732 140,-732 140,-552 246,-552 246,-732"/>
<text text-anchor="start" x="177.62" y="-718.5" font-family="Helvetica,sans-Serif" font-size="10.00">Device</text>
<text text-anchor="start" x="191.5" y="-702.5" font-family="Helvetica,sans-Serif" font-size="10.00"> </text>
<text text-anchor="start" x="144" y="-686.5" font-family="Helvetica,sans-Serif" font-size="10.00">+</text>
<text text-anchor="start" x="154" y="-686.5" font-family="Helvetica,sans-Serif" font-size="10.00">Device()</text>
<text text-anchor="start" x="144" y="-670.5" font-family="Helvetica,sans-Serif" font-size="10.00">+</text>
<text text-anchor="start" x="154" y="-670.5" font-family="Helvetica,sans-Serif" font-size="10.00">Device()</text>
<text text-anchor="start" x="144" y="-654.5" font-family="Helvetica,sans-Serif" font-size="10.00">+</text>
<text text-anchor="start" x="154" y="-654.5" font-family="Helvetica,sans-Serif" font-size="10.00">getDeviceName()</text>
<text text-anchor="start" x="144" y="-638.5" font-family="Helvetica,sans-Serif" font-size="10.00">+</text>
<text text-anchor="start" x="154" y="-638.5" font-family="Helvetica,sans-Serif" font-size="10.00">verify()</text>
<text text-anchor="start" x="144" y="-622.5" font-family="Helvetica,sans-Serif" font-size="10.00">+</text>
<text text-anchor="start" x="154" y="-622.5" font-family="Helvetica,sans-Serif" font-size="10.00">getVerified()</text>
<text text-anchor="start" x="144" y="-606.5" font-family="Helvetica,sans-Serif" font-size="10.00">+</text>
<text text-anchor="start" x="154" y="-606.5" font-family="Helvetica,sans-Serif" font-size="10.00">recoveryConfig()</text>
<text text-anchor="start" x="144" y="-590.5" font-family="Helvetica,sans-Serif" font-size="10.00">+</text>
<text text-anchor="start" x="154" y="-590.5" font-family="Helvetica,sans-Serif" font-size="10.00">setWaitFactor()</text>
<text text-anchor="start" x="144" y="-574.5" font-family="Helvetica,sans-Serif" font-size="10.00">+</text>
<text text-anchor="start" x="154" y="-574.5" font-family="Helvetica,sans-Serif" font-size="10.00">setMaxAttempts()</text>
<text text-anchor="start" x="144" y="-558.5" font-family="Helvetica,sans-Serif" font-size="10.00">+</text>
<text text-anchor="start" x="154" y="-558.5" font-family="Helvetica,sans-Serif" font-size="10.00">attemptConnection()</text>
<polygon fill="#666666" stroke="#666666" points="140,-714 140,-714 246,-714 246,-714 140,-714"/>
<polygon fill="#666666" stroke="#666666" points="140,-698 140,-698 246,-698 246,-698 140,-698"/>
<polygon fill="none" stroke="#666666" points="140,-552 140,-732 246,-732 246,-552 140,-552"/>
</a>
</g>
</g>
<!-- Node3&#45;&gt;Node2 -->
<g id="edge2_Node000002_Node000003" class="edge">
<title>Node3&#45;&gt;Node2</title>
<g id="a_edge2_Node000002_Node000003"><a xlink:title=" ">
<path fill="none" stroke="#63b8ff" d="M224.67,-541.17C228.78,-528.2 232.84,-515.41 236.52,-503.82"/>
<polygon fill="none" stroke="#63b8ff" points="221.35,-540.05 221.66,-550.64 228.02,-542.17 221.35,-540.05"/>
</a>
</g>
</g>
<!-- Node4 -->
<g id="Node000004" class="node">
<title>Node4</title>
<g id="a_Node000004"><a xlink:title=" ">
<polygon fill="white" stroke="none" points="145,-844 75,-844 75,-792 145,-792 145,-844"/>
<text text-anchor="start" x="80" y="-830.5" font-family="Helvetica,sans-Serif" font-size="10.00">unsigned long</text>
<text text-anchor="start" x="108.5" y="-814.5" font-family="Helvetica,sans-Serif" font-size="10.00"> </text>
<text text-anchor="start" x="108.5" y="-798.5" font-family="Helvetica,sans-Serif" font-size="10.00"> </text>
<polygon fill="#666666" stroke="#666666" points="75,-826 75,-826 145,-826 145,-826 75,-826"/>
<polygon fill="#666666" stroke="#666666" points="75,-810 75,-810 145,-810 145,-810 75,-810"/>
<polygon fill="none" stroke="#666666" points="75,-792 75,-844 145,-844 145,-792 75,-792"/>
</a>
</g>
</g>
<!-- Node4&#45;&gt;Node3 -->
<g id="edge3_Node000003_Node000004" class="edge">
<title>Node4&#45;&gt;Node3</title>
<g id="a_edge3_Node000003_Node000004"><a xlink:title=" ">
<path fill="none" stroke="#63b8ff" d="M115.36,-792.28C118.56,-779.39 123.15,-763.54 129,-750 130.65,-746.17 132.42,-742.32 134.27,-738.46"/>
<polygon fill="none" stroke="#63b8ff" points="134.28,-738.43 133.39,-731.28 139.66,-727.71 140.55,-734.86 134.28,-738.43"/>
</a>
</g>
<text text-anchor="middle" x="159" y="-764.5" font-family="Helvetica,sans-Serif" font-size="10.00" fill="grey"> &#45;last_attempt</text>
<text text-anchor="middle" x="159" y="-752.5" font-family="Helvetica,sans-Serif" font-size="10.00" fill="grey">&#45;wait_factor</text>
</g>
<!-- Node5 -->
<g id="Node000005" class="node">
<title>Node5</title>
<g id="a_Node000005"><a xlink:title=" ">
<polygon fill="white" stroke="none" points="20,-844 0,-844 0,-792 20,-792 20,-844"/>
<text text-anchor="start" x="4.75" y="-830.5" font-family="Helvetica,sans-Serif" font-size="10.00">int</text>
<text text-anchor="start" x="8.5" y="-814.5" font-family="Helvetica,sans-Serif" font-size="10.00"> </text>
<text text-anchor="start" x="8.5" y="-798.5" font-family="Helvetica,sans-Serif" font-size="10.00"> </text>
<polygon fill="#666666" stroke="#666666" points="0,-826 0,-826 20,-826 20,-826 0,-826"/>
<polygon fill="#666666" stroke="#666666" points="0,-810 0,-810 20,-810 20,-810 0,-810"/>
<polygon fill="none" stroke="#666666" points="0,-792 0,-844 20,-844 20,-792 0,-792"/>
</a>
</g>
</g>
<!-- Node5&#45;&gt;Node3 -->
<g id="edge4_Node000003_Node000005" class="edge">
<title>Node5&#45;&gt;Node3</title>
<g id="a_edge4_Node000003_Node000005"><a xlink:title=" ">
<path fill="none" stroke="#63b8ff" d="M17.65,-792.3C22.66,-778.81 30.21,-762.39 40.5,-750 64.98,-720.53 99.45,-695.42 129.43,-676.95"/>
<polygon fill="none" stroke="#63b8ff" points="129.19,-677.1 132.27,-670.58 139.48,-670.91 136.39,-677.43 129.19,-677.1"/>
</a>
</g>
<text text-anchor="middle" x="78.75" y="-764.5" font-family="Helvetica,sans-Serif" font-size="10.00" fill="grey"> &#45;attempt_number</text>
<text text-anchor="middle" x="78.75" y="-752.5" font-family="Helvetica,sans-Serif" font-size="10.00" fill="grey">&#45;max_attempts</text>
</g>
<!-- Node6 -->
<g id="Node000006" class="node">
<title>Node6</title>
<g id="a_Node000006"><a xlink:title=" ">
<polygon fill="white" stroke="none" points="323,-844 295,-844 295,-792 323,-792 323,-844"/>
<text text-anchor="start" x="300" y="-830.5" font-family="Helvetica,sans-Serif" font-size="10.00">bool</text>
<text text-anchor="start" x="307.5" y="-814.5" font-family="Helvetica,sans-Serif" font-size="10.00"> </text>
<text text-anchor="start" x="307.5" y="-798.5" font-family="Helvetica,sans-Serif" font-size="10.00"> </text>
<polygon fill="#666666" stroke="#666666" points="295,-826 295,-826 323,-826 323,-826 295,-826"/>
<polygon fill="#666666" stroke="#666666" points="295,-810 295,-810 323,-810 323,-810 295,-810"/>
<polygon fill="none" stroke="#666666" points="295,-792 295,-844 323,-844 323,-792 295,-792"/>
</a>
</g>
</g>
<!-- Node6&#45;&gt;Node1 -->
<g id="edge10_Node000001_Node000006" class="edge">
<title>Node6&#45;&gt;Node1</title>
<g id="a_edge10_Node000001_Node000006"><a xlink:title=" ">
<path fill="none" stroke="#63b8ff" d="M317.43,-792.2C319.18,-786.3 320.84,-779.97 322,-774 323.08,-768.42 346.99,-502.15 363.21,-320.69"/>
<polygon fill="none" stroke="#63b8ff" points="363.22,-320.63 359.77,-314.3 364.29,-308.68 367.74,-315.01 363.22,-320.63"/>
</a>
</g>
<text text-anchor="middle" x="370.04" y="-524.5" font-family="Helvetica,sans-Serif" font-size="10.00" fill="grey"> &#45;active_file</text>
</g>
<!-- Node6&#45;&gt;Node3 -->
<g id="edge5_Node000003_Node000006" class="edge">
<title>Node6&#45;&gt;Node3</title>
<g id="a_edge5_Node000003_Node000006"><a xlink:title=" ">
<path fill="none" stroke="#63b8ff" d="M295.01,-796.01C284.35,-780.02 268.88,-756.81 253.19,-733.29"/>
<polygon fill="none" stroke="#63b8ff" points="253.14,-733.21 246.48,-730.44 246.48,-723.23 253.14,-726 253.14,-733.21"/>
</a>
</g>
<text text-anchor="middle" x="297.76" y="-758.5" font-family="Helvetica,sans-Serif" font-size="10.00" fill="grey"> #verified</text>
</g>
<!-- Node7 -->
<g id="Node000007" class="node">
<title>Node7</title>
<g id="a_Node000007"><a xlink:title=" ">
<polygon fill="white" stroke="none" points="210.5,-844 175.5,-844 175.5,-792 210.5,-792 210.5,-844"/>
<text text-anchor="start" x="180.25" y="-830.5" font-family="Helvetica,sans-Serif" font-size="10.00">String</text>
<text text-anchor="start" x="191.5" y="-814.5" font-family="Helvetica,sans-Serif" font-size="10.00"> </text>
<text text-anchor="start" x="191.5" y="-798.5" font-family="Helvetica,sans-Serif" font-size="10.00"> </text>
<polygon fill="#666666" stroke="#666666" points="175.5,-826 175.5,-826 210.5,-826 210.5,-826 175.5,-826"/>
<polygon fill="#666666" stroke="#666666" points="175.5,-810 175.5,-810 210.5,-810 210.5,-810 175.5,-810"/>
<polygon fill="none" stroke="#666666" points="175.5,-792 175.5,-844 210.5,-844 210.5,-792 175.5,-792"/>
</a>
</g>
</g>
<!-- Node7&#45;&gt;Node3 -->
<g id="edge6_Node000003_Node000007" class="edge">
<title>Node7&#45;&gt;Node3</title>
<g id="a_edge6_Node000003_Node000007"><a xlink:title=" ">
<path fill="none" stroke="#63b8ff" d="M193,-792.07C193,-779.14 193,-762.39 193,-744.81"/>
<polygon fill="none" stroke="#63b8ff" points="193,-744.81 189,-738.81 193,-732.81 197,-738.81 193,-744.81"/>
</a>
</g>
<text text-anchor="middle" x="226" y="-758.5" font-family="Helvetica,sans-Serif" font-size="10.00" fill="grey"> #device_name</text>
</g>
<!-- Node8 -->
<g id="Node000008" class="node">
<title>Node8</title>
<g id="a_Node000008"><a xlink:title=" ">
<polygon fill="white" stroke="none" points="409,-480 365,-480 365,-428 409,-428 409,-480"/>
<text text-anchor="start" x="369.75" y="-466.5" font-family="Helvetica,sans-Serif" font-size="10.00">uint32_t</text>
<text text-anchor="start" x="385.5" y="-450.5" font-family="Helvetica,sans-Serif" font-size="10.00"> </text>
<text text-anchor="start" x="385.5" y="-434.5" font-family="Helvetica,sans-Serif" font-size="10.00"> </text>
<polygon fill="#666666" stroke="#666666" points="365,-462 365,-462 409,-462 409,-462 365,-462"/>
<polygon fill="#666666" stroke="#666666" points="365,-446 365,-446 409,-446 409,-446 365,-446"/>
<polygon fill="none" stroke="#666666" points="365,-428 365,-480 409,-480 409,-428 365,-428"/>
</a>
</g>
</g>
<!-- Node8&#45;&gt;Node1 -->
<g id="edge7_Node000001_Node000008" class="edge">
<title>Node8&#45;&gt;Node1</title>
<g id="a_edge7_Node000001_Node000008"><a xlink:title=" ">
<path fill="none" stroke="#63b8ff" d="M383.24,-428.25C381.5,-415.63 379.63,-400.04 378.75,-386 377.42,-364.92 376.61,-342.74 376.16,-320.8"/>
<polygon fill="none" stroke="#63b8ff" points="376.16,-320.82 372.05,-314.89 375.94,-308.82 380.05,-314.75 376.16,-320.82"/>
</a>
</g>
<text text-anchor="middle" x="423.38" y="-376.5" font-family="Helvetica,sans-Serif" font-size="10.00" fill="grey"> &#45;FILE_HEADER</text>
<text text-anchor="middle" x="423.38" y="-364.5" font-family="Helvetica,sans-Serif" font-size="10.00" fill="grey">&#45;MAX_SIZE</text>
<text text-anchor="middle" x="423.38" y="-352.5" font-family="Helvetica,sans-Serif" font-size="10.00" fill="grey">&#45;SECTOR_SIZE</text>
<text text-anchor="middle" x="423.38" y="-340.5" font-family="Helvetica,sans-Serif" font-size="10.00" fill="grey">&#45;START_ADDRESS</text>
<text text-anchor="middle" x="423.38" y="-328.5" font-family="Helvetica,sans-Serif" font-size="10.00" fill="grey">&#45;address</text>
</g>
<!-- Node9 -->
<g id="Node000009" class="node">
<title>Node9</title>
<g id="a_Node000009"><a xlink:title=" ">
<polygon fill="white" stroke="none" points="541,-480 439,-480 439,-428 541,-428 541,-480"/>
<text text-anchor="start" x="443.88" y="-466.5" font-family="Helvetica,sans-Serif" font-size="10.00">vector&lt; FileHeader &gt;</text>
<text text-anchor="start" x="488.5" y="-450.5" font-family="Helvetica,sans-Serif" font-size="10.00"> </text>
<text text-anchor="start" x="488.5" y="-434.5" font-family="Helvetica,sans-Serif" font-size="10.00"> </text>
<polygon fill="#666666" stroke="#666666" points="439,-462 439,-462 541,-462 541,-462 439,-462"/>
<polygon fill="#666666" stroke="#666666" points="439,-446 439,-446 541,-446 541,-446 439,-446"/>
<polygon fill="none" stroke="#666666" points="439,-428 439,-480 541,-480 541,-428 439,-428"/>
</a>
</g>
</g>
<!-- Node9&#45;&gt;Node1 -->
<g id="edge8_Node000001_Node000009" class="edge">
<title>Node9&#45;&gt;Node1</title>
<g id="a_edge8_Node000001_Node000009"><a xlink:title=" ">
<path fill="none" stroke="#63b8ff" d="M488,-428.09C485.39,-402.06 479.68,-360.32 468,-326 463.53,-312.86 458.15,-299.5 452.28,-286.33"/>
<polygon fill="none" stroke="#63b8ff" points="452.38,-286.55 446.24,-282.76 447.37,-275.64 453.51,-279.43 452.38,-286.55"/>
</a>
</g>
<text text-anchor="middle" x="503.47" y="-352.5" font-family="Helvetica,sans-Serif" font-size="10.00" fill="grey"> &#45;file_data</text>
</g>
<!-- Node10 -->
<g id="Node000010" class="node">
<title>Node10</title>
<g id="a_Node000010"><a xlink:title=" ">
<polygon fill="white" stroke="none" points="647,-480 559,-480 559,-428 647,-428 647,-480"/>
<text text-anchor="start" x="563.62" y="-466.5" font-family="Helvetica,sans-Serif" font-size="10.00">SFE_SPI_FLASH</text>
<text text-anchor="start" x="601.5" y="-450.5" font-family="Helvetica,sans-Serif" font-size="10.00"> </text>
<text text-anchor="start" x="601.5" y="-434.5" font-family="Helvetica,sans-Serif" font-size="10.00"> </text>
<polygon fill="#666666" stroke="#666666" points="559,-462 559,-462 647,-462 647,-462 559,-462"/>
<polygon fill="#666666" stroke="#666666" points="559,-446 559,-446 647,-446 647,-446 559,-446"/>
<polygon fill="none" stroke="#666666" points="559,-428 559,-480 647,-480 647,-428 559,-428"/>
</a>
</g>
</g>
<!-- Node10&#45;&gt;Node1 -->
<g id="edge9_Node000001_Node000010" class="edge">
<title>Node10&#45;&gt;Node1</title>
<g id="a_edge9_Node000001_Node000010"><a xlink:title=" ">
<path fill="none" stroke="#63b8ff" d="M590.44,-428.25C576.69,-401.99 553.35,-359.72 529,-326 506.81,-295.27 480.1,-263.61 455.36,-236.02"/>
<polygon fill="none" stroke="#63b8ff" points="455.35,-236.01 448.36,-234.24 447.3,-227.11 454.29,-228.88 455.35,-236.01"/>
</a>
</g>
<text text-anchor="middle" x="579.34" y="-352.5" font-family="Helvetica,sans-Serif" font-size="10.00" fill="grey"> &#45;flash</text>
</g>
</g>
</svg>
