<?xml version="1.0" encoding="UTF-8" standalone="no"?>
<!DOCTYPE svg PUBLIC "-//W3C//DTD SVG 1.1//EN"
 "http://www.w3.org/Graphics/SVG/1.1/DTD/svg11.dtd">
<!-- Generated by graphviz version 12.1.2 (20240928.0832)
 -->
<!-- Title: Device::getVerified Pages: 1 -->
<svg width="303pt" height="66pt"
 viewBox="0.00 0.00 302.50 66.00" xmlns="http://www.w3.org/2000/svg" xmlns:xlink="http://www.w3.org/1999/xlink">
<g id="graph0" class="graph" transform="scale(1 1) rotate(0) translate(4 62)">
<title>Device::getVerified</title>
<!-- Node1 -->
<g id="Node000001" class="node">
<title>Node1</title>
<g id="a_Node000001"><a xlink:title="Get if the Device is Verified.">
<polygon fill="#999999" stroke="#666666" points="294.5,-39 196,-39 196,-19 294.5,-19 294.5,-39"/>
<text text-anchor="middle" x="245.25" y="-25.5" font-family="Helvetica,sans-Serif" font-size="10.00">Device::getVerified</text>
</a>
</g>
</g>
<!-- Node2 -->
<g id="Node000002" class="node">
<title>Node2</title>
<g id="a_Node000002"><a xlink:href="classENS160Sensor.html#aac8ea849d26c4a6a567924805d378990" target="_top" xlink:title="Reads Air Quality Index, TVOC (ppb), and ECOS (ppm)">
<polygon fill="white" stroke="#666666" points="144.62,-58 15.38,-58 15.38,-38 144.62,-38 144.62,-58"/>
<text text-anchor="middle" x="80" y="-44.5" font-family="Helvetica,sans-Serif" font-size="10.00">ENS160Sensor::readData</text>
</a>
</g>
</g>
<!-- Node1&#45;&gt;Node2 -->
<g id="edge1_Node000001_Node000002" class="edge">
<title>Node1&#45;&gt;Node2</title>
<g id="a_edge1_Node000001_Node000002"><a xlink:title=" ">
<path fill="none" stroke="#63b8ff" d="M184.64,-35.94C171.77,-37.44 158.11,-39.02 145.08,-40.54"/>
<polygon fill="#63b8ff" stroke="#63b8ff" points="184.68,-39.46 194.21,-34.82 183.87,-32.5 184.68,-39.46"/>
</a>
</g>
</g>
<!-- Node3 -->
<g id="Node000003" class="node">
<title>Node3</title>
<g id="a_Node000003"><a xlink:href="classENS160Sensor.html#a967adb086f27d1ce5ea911bcd6d4f948" target="_top" xlink:title="Used for creating packets, reads data from the sensor and appends it to the passed uint8_t array poin...">
<polygon fill="white" stroke="#666666" points="160,-20 0,-20 0,0 160,0 160,-20"/>
<text text-anchor="middle" x="80" y="-6.5" font-family="Helvetica,sans-Serif" font-size="10.00">ENS160Sensor::readDataPacket</text>
</a>
</g>
</g>
<!-- Node1&#45;&gt;Node3 -->
<g id="edge2_Node000001_Node000003" class="edge">
<title>Node1&#45;&gt;Node3</title>
<g id="a_edge2_Node000001_Node000003"><a xlink:title=" ">
<path fill="none" stroke="#63b8ff" d="M184.42,-22.04C176.54,-21.12 168.37,-20.17 160.23,-19.22"/>
<polygon fill="#63b8ff" stroke="#63b8ff" points="183.87,-25.5 194.21,-23.18 184.68,-18.54 183.87,-25.5"/>
</a>
</g>
</g>
</g>
</svg>
