<?xml version="1.0" encoding="UTF-8" standalone="no"?>
<!DOCTYPE svg PUBLIC "-//W3C//DTD SVG 1.1//EN"
 "http://www.w3.org/Graphics/SVG/1.1/DTD/svg11.dtd">
<!-- Generated by graphviz version 12.1.2 (20240928.0832)
 -->
<!-- Title: Storage::storePacket Pages: 1 -->
<svg width="413pt" height="28pt"
 viewBox="0.00 0.00 413.25 28.00" xmlns="http://www.w3.org/2000/svg" xmlns:xlink="http://www.w3.org/1999/xlink">

<svg id="main" version="1.1" xmlns="http://www.w3.org/2000/svg" xmlns:xlink="http://www.w3.org/1999/xlink" xml:space="preserve">

<style type="text/css"><![CDATA[
.node, .edge {opacity: 0.7;}
.node.selected, .edge.selected {opacity: 1;}
.edge:hover path { stroke: red; }
.edge:hover polygon { stroke: red; fill: red; }
]]></style>
<script type="application/ecmascript" xlink:href="svg.min.js"/>
<svg id="graph" class="graph">
<g id="graph0" class="graph" transform="scale(1 1) rotate(0) translate(4 24)">
<title>Storage::storePacket</title>
<!-- Node1 -->
<g id="Node000001" class="node">
<title>Node1</title>
<g id="a_Node000001"><a xlink:title="Send packet data to storage device.">
<polygon fill="#999999" stroke="#666666" points="405.25,-20 297,-20 297,0 405.25,0 405.25,-20"/>
<text text-anchor="middle" x="351.12" y="-6.5" font-family="Helvetica,sans-Serif" font-size="10.00">Storage::storePacket</text>
</a>
</g>
</g>
<!-- Node2 -->
<g id="Node000002" class="node">
<title>Node2</title>
<g id="a_Node000002"><a xlink:href="main1_8cpp.html#a5ea9df4efc2cfe37ef8d6fcfb3157a43" target="_top" xlink:title="Sends data to each storage device.">
<polygon fill="white" stroke="#666666" points="261,-20 171.5,-20 171.5,0 261,0 261,-20"/>
<text text-anchor="middle" x="216.25" y="-6.5" font-family="Helvetica,sans-Serif" font-size="10.00">storeDataPacket</text>
</a>
</g>
</g>
<!-- Node1&#45;&gt;Node2 -->
<g id="edge1_Node000001_Node000002" class="edge">
<title>Node1&#45;&gt;Node2</title>
<g id="a_edge1_Node000001_Node000002"><a xlink:title=" ">
<path fill="none" stroke="#63b8ff" d="M285.34,-10C277.15,-10 268.93,-10 261.17,-10"/>
<polygon fill="#63b8ff" stroke="#63b8ff" points="285.33,-13.5 295.33,-10 285.33,-6.5 285.33,-13.5"/>
</a>
</g>
</g>
<!-- Node3 -->
<g id="Node000003" class="node">
<title>Node3</title>
<g id="a_Node000003"><a xlink:href="main1_8cpp.html#a5d5c43a90af6e8b0e11c818a7e1681e7" target="_top" xlink:title="Loop for core 1.">
<polygon fill="white" stroke="#666666" points="135.5,-20 75.25,-20 75.25,0 135.5,0 135.5,-20"/>
<text text-anchor="middle" x="105.38" y="-6.5" font-family="Helvetica,sans-Serif" font-size="10.00">real_loop1</text>
</a>
</g>
</g>
<!-- Node2&#45;&gt;Node3 -->
<g id="edge2_Node000002_Node000003" class="edge">
<title>Node2&#45;&gt;Node3</title>
<g id="a_edge2_Node000002_Node000003"><a xlink:title=" ">
<path fill="none" stroke="#63b8ff" d="M159.97,-10C151.64,-10 143.33,-10 135.83,-10"/>
<polygon fill="#63b8ff" stroke="#63b8ff" points="159.77,-13.5 169.77,-10 159.77,-6.5 159.77,-13.5"/>
</a>
</g>
</g>
<!-- Node4 -->
<g id="Node000004" class="node">
<title>Node4</title>
<g id="a_Node000004"><a xlink:href="main_8cpp.html#a39ceba300a80e348e278539f57e0ca79" target="_top" xlink:title=" ">
<polygon fill="white" stroke="#666666" points="39.25,-20 0,-20 0,0 39.25,0 39.25,-20"/>
<text text-anchor="middle" x="19.62" y="-6.5" font-family="Helvetica,sans-Serif" font-size="10.00">loop1</text>
</a>
</g>
</g>
<!-- Node3&#45;&gt;Node4 -->
<g id="edge3_Node000003_Node000004" class="edge">
<title>Node3&#45;&gt;Node4</title>
<g id="a_edge3_Node000003_Node000004"><a xlink:title=" ">
<path fill="none" stroke="#63b8ff" d="M63.73,-10C55.27,-10 46.75,-10 39.55,-10"/>
<polygon fill="#63b8ff" stroke="#63b8ff" points="63.57,-13.5 73.57,-10 63.57,-6.5 63.57,-13.5"/>
</a>
</g>
</g>
</g>
</svg>
</svg>

<style type='text/css'>
<![CDATA[
[data-mouse-over-selected='false'] { opacity: 0.7; }
[data-mouse-over-selected='true']  { opacity: 1.0; }
]]>
</style>
<script type="application/ecmascript"><![CDATA[
document.addEventListener('DOMContentLoaded', (event) => {
  highlightEdges();
  highlightAdjacentNodes();
});
]]></script>
</svg>
