<?xml version="1.0" encoding="UTF-8" standalone="no"?>
<!DOCTYPE svg PUBLIC "-//W3C//DTD SVG 1.1//EN"
 "http://www.w3.org/Graphics/SVG/1.1/DTD/svg11.dtd">
<!-- Generated by graphviz version 12.1.2 (20240928.0832)
 -->
<!-- Title: TempSensor Pages: 1 -->
<svg width="442pt" height="798pt"
 viewBox="0.00 0.00 442.47 798.00" xmlns="http://www.w3.org/2000/svg" xmlns:xlink="http://www.w3.org/1999/xlink">
<g id="graph0" class="graph" transform="scale(1 1) rotate(0) translate(4 794)">
<title>TempSensor</title>
<!-- Node1 -->
<g id="Node000001" class="node">
<title>Node1</title>
<g id="a_Node000001"><a xlink:title="Implementation of a Sensor for the onboard temperature sensor.">
<polygon fill="#999999" stroke="none" points="302,-132 208,-132 208,0 302,0 302,-132"/>
<text text-anchor="start" x="227.62" y="-118.5" font-family="Helvetica,sans-Serif" font-size="10.00">TempSensor</text>
<text text-anchor="start" x="253.5" y="-102.5" font-family="Helvetica,sans-Serif" font-size="10.00"> </text>
<text text-anchor="start" x="212" y="-86.5" font-family="Helvetica,sans-Serif" font-size="10.00">+</text>
<text text-anchor="start" x="222" y="-86.5" font-family="Helvetica,sans-Serif" font-size="10.00">TempSensor()</text>
<text text-anchor="start" x="212" y="-70.5" font-family="Helvetica,sans-Serif" font-size="10.00">+</text>
<text text-anchor="start" x="222" y="-70.5" font-family="Helvetica,sans-Serif" font-size="10.00">TempSensor()</text>
<text text-anchor="start" x="212" y="-54.5" font-family="Helvetica,sans-Serif" font-size="10.00">+</text>
<text text-anchor="start" x="222" y="-54.5" font-family="Helvetica,sans-Serif" font-size="10.00">verify()</text>
<text text-anchor="start" x="212" y="-38.5" font-family="Helvetica,sans-Serif" font-size="10.00">+</text>
<text text-anchor="start" x="222" y="-38.5" font-family="Helvetica,sans-Serif" font-size="10.00">readData()</text>
<text text-anchor="start" x="212" y="-22.5" font-family="Helvetica,sans-Serif" font-size="10.00">+</text>
<text text-anchor="start" x="222" y="-22.5" font-family="Helvetica,sans-Serif" font-size="10.00">readDataPacket()</text>
<text text-anchor="start" x="212" y="-6.5" font-family="Helvetica,sans-Serif" font-size="10.00">+</text>
<text text-anchor="start" x="222" y="-6.5" font-family="Helvetica,sans-Serif" font-size="10.00">decodeToCSV()</text>
<polygon fill="#666666" stroke="#666666" points="208,-114 208,-114 302,-114 302,-114 208,-114"/>
<polygon fill="#666666" stroke="#666666" points="208,-98 208,-98 302,-98 302,-98 208,-98"/>
<polygon fill="none" stroke="#666666" points="208,0 208,-132 302,-132 302,0 208,0"/>
</a>
</g>
</g>
<!-- Node2 -->
<g id="Node000002" class="node">
<title>Node2</title>
<g id="a_Node000002"><a xlink:href="classSensor.html" target="_top" xlink:title="Parent class for sensor objects.">
<polygon fill="white" stroke="none" points="315,-461 195,-461 195,-169 315,-169 315,-461"/>
<text text-anchor="start" x="239.62" y="-447.5" font-family="Helvetica,sans-Serif" font-size="10.00">Sensor</text>
<text text-anchor="start" x="253.5" y="-431.5" font-family="Helvetica,sans-Serif" font-size="10.00"> </text>
<text text-anchor="start" x="199" y="-415.5" font-family="Helvetica,sans-Serif" font-size="10.00">+</text>
<text text-anchor="start" x="209" y="-415.5" font-family="Helvetica,sans-Serif" font-size="10.00">Sensor()</text>
<text text-anchor="start" x="199" y="-399.5" font-family="Helvetica,sans-Serif" font-size="10.00">+</text>
<text text-anchor="start" x="209" y="-399.5" font-family="Helvetica,sans-Serif" font-size="10.00">Sensor()</text>
<text text-anchor="start" x="199" y="-383.5" font-family="Helvetica,sans-Serif" font-size="10.00">+</text>
<text text-anchor="start" x="209" y="-383.5" font-family="Helvetica,sans-Serif" font-size="10.00">Sensor()</text>
<text text-anchor="start" x="199" y="-367.5" font-family="Helvetica,sans-Serif" font-size="10.00">+</text>
<text text-anchor="start" x="209" y="-367.5" font-family="Helvetica,sans-Serif" font-size="10.00">Sensor()</text>
<text text-anchor="start" x="199" y="-351.5" font-family="Helvetica,sans-Serif" font-size="10.00">+</text>
<text text-anchor="start" x="209" y="-351.5" font-family="Helvetica,sans-Serif" font-size="10.00">getPeriod()</text>
<text text-anchor="start" x="199" y="-335.5" font-family="Helvetica,sans-Serif" font-size="10.00">+</text>
<text text-anchor="start" x="209" y="-335.5" font-family="Helvetica,sans-Serif" font-size="10.00">setPeriod()</text>
<text text-anchor="start" x="199" y="-319.5" font-family="Helvetica,sans-Serif" font-size="10.00">+</text>
<text text-anchor="start" x="209" y="-319.5" font-family="Helvetica,sans-Serif" font-size="10.00">getLastExecution()</text>
<text text-anchor="start" x="199" y="-303.5" font-family="Helvetica,sans-Serif" font-size="10.00">+</text>
<text text-anchor="start" x="209" y="-303.5" font-family="Helvetica,sans-Serif" font-size="10.00">setLastExecution()</text>
<text text-anchor="start" x="199" y="-287.5" font-family="Helvetica,sans-Serif" font-size="10.00">+</text>
<text text-anchor="start" x="209" y="-287.5" font-family="Helvetica,sans-Serif" font-size="10.00">getSensorCSVHeader()</text>
<text text-anchor="start" x="199" y="-271.5" font-family="Helvetica,sans-Serif" font-size="10.00">+</text>
<text text-anchor="start" x="209" y="-271.5" font-family="Helvetica,sans-Serif" font-size="10.00">verify()</text>
<text text-anchor="start" x="199" y="-255.5" font-family="Helvetica,sans-Serif" font-size="10.00">+</text>
<text text-anchor="start" x="209" y="-255.5" font-family="Helvetica,sans-Serif" font-size="10.00">readData()</text>
<text text-anchor="start" x="199" y="-239.5" font-family="Helvetica,sans-Serif" font-size="10.00">+</text>
<text text-anchor="start" x="209" y="-239.5" font-family="Helvetica,sans-Serif" font-size="10.00">readDataPacket()</text>
<text text-anchor="start" x="199" y="-223.5" font-family="Helvetica,sans-Serif" font-size="10.00">+</text>
<text text-anchor="start" x="209" y="-223.5" font-family="Helvetica,sans-Serif" font-size="10.00">decodeToCSV()</text>
<text text-anchor="start" x="199" y="-207.5" font-family="Helvetica,sans-Serif" font-size="10.00">+</text>
<text text-anchor="start" x="209" y="-207.5" font-family="Helvetica,sans-Serif" font-size="10.00">getDataPacket()</text>
<text text-anchor="start" x="199" y="-191.5" font-family="Helvetica,sans-Serif" font-size="10.00">+</text>
<text text-anchor="start" x="209" y="-191.5" font-family="Helvetica,sans-Serif" font-size="10.00">readEmpty()</text>
<text text-anchor="start" x="199" y="-175.5" font-family="Helvetica,sans-Serif" font-size="10.00">+</text>
<text text-anchor="start" x="209" y="-175.5" font-family="Helvetica,sans-Serif" font-size="10.00">getDataCSV()</text>
<polygon fill="#666666" stroke="#666666" points="195,-443 195,-443 315,-443 315,-443 195,-443"/>
<polygon fill="#666666" stroke="#666666" points="195,-427 195,-427 315,-427 315,-427 195,-427"/>
<polygon fill="none" stroke="#666666" points="195,-169 195,-461 315,-461 315,-169 195,-169"/>
</a>
</g>
</g>
<!-- Node2&#45;&gt;Node1 -->
<g id="edge1_Node000001_Node000002" class="edge">
<title>Node2&#45;&gt;Node1</title>
<g id="a_edge1_Node000001_Node000002"><a xlink:title=" ">
<path fill="none" stroke="#63b8ff" d="M255,-157.81C255,-148.88 255,-140.19 255,-131.95"/>
<polygon fill="none" stroke="#63b8ff" points="251.5,-157.73 255,-167.73 258.5,-157.73 251.5,-157.73"/>
</a>
</g>
</g>
<!-- Node3 -->
<g id="Node000003" class="node">
<title>Node3</title>
<g id="a_Node000003"><a xlink:href="classDevice.html" target="_top" xlink:title="Implements the recovery system for Sensor and Storage objects.">
<polygon fill="white" stroke="none" points="242,-678 136,-678 136,-498 242,-498 242,-678"/>
<text text-anchor="start" x="173.62" y="-664.5" font-family="Helvetica,sans-Serif" font-size="10.00">Device</text>
<text text-anchor="start" x="187.5" y="-648.5" font-family="Helvetica,sans-Serif" font-size="10.00"> </text>
<text text-anchor="start" x="140" y="-632.5" font-family="Helvetica,sans-Serif" font-size="10.00">+</text>
<text text-anchor="start" x="150" y="-632.5" font-family="Helvetica,sans-Serif" font-size="10.00">Device()</text>
<text text-anchor="start" x="140" y="-616.5" font-family="Helvetica,sans-Serif" font-size="10.00">+</text>
<text text-anchor="start" x="150" y="-616.5" font-family="Helvetica,sans-Serif" font-size="10.00">Device()</text>
<text text-anchor="start" x="140" y="-600.5" font-family="Helvetica,sans-Serif" font-size="10.00">+</text>
<text text-anchor="start" x="150" y="-600.5" font-family="Helvetica,sans-Serif" font-size="10.00">getDeviceName()</text>
<text text-anchor="start" x="140" y="-584.5" font-family="Helvetica,sans-Serif" font-size="10.00">+</text>
<text text-anchor="start" x="150" y="-584.5" font-family="Helvetica,sans-Serif" font-size="10.00">verify()</text>
<text text-anchor="start" x="140" y="-568.5" font-family="Helvetica,sans-Serif" font-size="10.00">+</text>
<text text-anchor="start" x="150" y="-568.5" font-family="Helvetica,sans-Serif" font-size="10.00">getVerified()</text>
<text text-anchor="start" x="140" y="-552.5" font-family="Helvetica,sans-Serif" font-size="10.00">+</text>
<text text-anchor="start" x="150" y="-552.5" font-family="Helvetica,sans-Serif" font-size="10.00">recoveryConfig()</text>
<text text-anchor="start" x="140" y="-536.5" font-family="Helvetica,sans-Serif" font-size="10.00">+</text>
<text text-anchor="start" x="150" y="-536.5" font-family="Helvetica,sans-Serif" font-size="10.00">setWaitFactor()</text>
<text text-anchor="start" x="140" y="-520.5" font-family="Helvetica,sans-Serif" font-size="10.00">+</text>
<text text-anchor="start" x="150" y="-520.5" font-family="Helvetica,sans-Serif" font-size="10.00">setMaxAttempts()</text>
<text text-anchor="start" x="140" y="-504.5" font-family="Helvetica,sans-Serif" font-size="10.00">+</text>
<text text-anchor="start" x="150" y="-504.5" font-family="Helvetica,sans-Serif" font-size="10.00">attemptConnection()</text>
<polygon fill="#666666" stroke="#666666" points="136,-660 136,-660 242,-660 242,-660 136,-660"/>
<polygon fill="#666666" stroke="#666666" points="136,-644 136,-644 242,-644 242,-644 136,-644"/>
<polygon fill="none" stroke="#666666" points="136,-498 136,-678 242,-678 242,-498 136,-498"/>
</a>
</g>
</g>
<!-- Node3&#45;&gt;Node2 -->
<g id="edge2_Node000002_Node000003" class="edge">
<title>Node3&#45;&gt;Node2</title>
<g id="a_edge2_Node000002_Node000003"><a xlink:title=" ">
<path fill="none" stroke="#63b8ff" d="M213.33,-487.12C215.42,-478.53 217.56,-469.75 219.71,-460.91"/>
<polygon fill="none" stroke="#63b8ff" points="209.93,-486.25 210.97,-496.79 216.74,-487.91 209.93,-486.25"/>
</a>
</g>
</g>
<!-- Node4 -->
<g id="Node000004" class="node">
<title>Node4</title>
<g id="a_Node000004"><a xlink:title=" ">
<polygon fill="white" stroke="none" points="70,-790 0,-790 0,-738 70,-738 70,-790"/>
<text text-anchor="start" x="5" y="-776.5" font-family="Helvetica,sans-Serif" font-size="10.00">unsigned long</text>
<text text-anchor="start" x="33.5" y="-760.5" font-family="Helvetica,sans-Serif" font-size="10.00"> </text>
<text text-anchor="start" x="33.5" y="-744.5" font-family="Helvetica,sans-Serif" font-size="10.00"> </text>
<polygon fill="#666666" stroke="#666666" points="0,-772 0,-772 70,-772 70,-772 0,-772"/>
<polygon fill="#666666" stroke="#666666" points="0,-756 0,-756 70,-756 70,-756 0,-756"/>
<polygon fill="none" stroke="#666666" points="0,-738 0,-790 70,-790 70,-738 0,-738"/>
</a>
</g>
</g>
<!-- Node4&#45;&gt;Node2 -->
<g id="edge7_Node000002_Node000004" class="edge">
<title>Node4&#45;&gt;Node2</title>
<g id="a_edge7_Node000002_Node000004"><a xlink:title=" ">
<path fill="none" stroke="#63b8ff" d="M30.74,-738.06C23.61,-689.15 13.64,-578.45 52.75,-498 81.39,-439.08 138.36,-390.58 184.56,-358.51"/>
<polygon fill="none" stroke="#63b8ff" points="184.47,-358.57 187.19,-351.88 194.4,-351.82 191.69,-358.5 184.47,-358.57"/>
</a>
</g>
<text text-anchor="middle" x="89.88" y="-590.5" font-family="Helvetica,sans-Serif" font-size="10.00" fill="grey"> &#45;last_execution</text>
<text text-anchor="middle" x="89.88" y="-578.5" font-family="Helvetica,sans-Serif" font-size="10.00" fill="grey">&#45;minimum_period</text>
</g>
<!-- Node4&#45;&gt;Node3 -->
<g id="edge3_Node000003_Node000004" class="edge">
<title>Node4&#45;&gt;Node3</title>
<g id="a_edge3_Node000003_Node000004"><a xlink:title=" ">
<path fill="none" stroke="#63b8ff" d="M48.57,-738.12C56.19,-725.04 66.3,-709.06 77,-696 84.37,-687 87.58,-686.02 96,-678 106.04,-668.44 116.67,-658.29 127.02,-648.4"/>
<polygon fill="none" stroke="#63b8ff" points="127.09,-648.33 128.67,-641.29 135.77,-640.03 134.2,-647.07 127.09,-648.33"/>
</a>
</g>
<text text-anchor="middle" x="107" y="-710.5" font-family="Helvetica,sans-Serif" font-size="10.00" fill="grey"> &#45;last_attempt</text>
<text text-anchor="middle" x="107" y="-698.5" font-family="Helvetica,sans-Serif" font-size="10.00" fill="grey">&#45;wait_factor</text>
</g>
<!-- Node5 -->
<g id="Node000005" class="node">
<title>Node5</title>
<g id="a_Node000005"><a xlink:title=" ">
<polygon fill="white" stroke="none" points="367,-790 347,-790 347,-738 367,-738 367,-790"/>
<text text-anchor="start" x="351.75" y="-776.5" font-family="Helvetica,sans-Serif" font-size="10.00">int</text>
<text text-anchor="start" x="355.5" y="-760.5" font-family="Helvetica,sans-Serif" font-size="10.00"> </text>
<text text-anchor="start" x="355.5" y="-744.5" font-family="Helvetica,sans-Serif" font-size="10.00"> </text>
<polygon fill="#666666" stroke="#666666" points="347,-772 347,-772 367,-772 367,-772 347,-772"/>
<polygon fill="#666666" stroke="#666666" points="347,-756 347,-756 367,-756 367,-756 347,-756"/>
<polygon fill="none" stroke="#666666" points="347,-738 347,-790 367,-790 367,-738 347,-738"/>
</a>
</g>
</g>
<!-- Node5&#45;&gt;Node2 -->
<g id="edge9_Node000002_Node000005" class="edge">
<title>Node5&#45;&gt;Node2</title>
<g id="a_edge9_Node000002_Node000005"><a xlink:title=" ">
<path fill="none" stroke="#63b8ff" d="M366.83,-750.25C372.48,-742.09 379.03,-731.01 382,-720 384.78,-709.7 383.51,-706.56 382,-696 370.89,-618.54 345.02,-535.78 319.51,-467.33"/>
<polygon fill="none" stroke="#63b8ff" points="319.47,-467.24 313.61,-463.03 315.24,-456.01 321.1,-460.21 319.47,-467.24"/>
</a>
</g>
<text text-anchor="middle" x="406.72" y="-584.5" font-family="Helvetica,sans-Serif" font-size="10.00" fill="grey"> #num_fields</text>
</g>
<!-- Node5&#45;&gt;Node3 -->
<g id="edge4_Node000003_Node000005" class="edge">
<title>Node5&#45;&gt;Node3</title>
<g id="a_edge4_Node000003_Node000005"><a xlink:title=" ">
<path fill="none" stroke="#63b8ff" d="M347.19,-755.92C328.38,-742.12 286.42,-710.11 256,-678 254.05,-675.95 252.11,-673.84 250.18,-671.68"/>
<polygon fill="none" stroke="#63b8ff" points="250.25,-671.76 243.29,-669.85 242.38,-662.7 249.33,-664.61 250.25,-671.76"/>
</a>
</g>
<text text-anchor="middle" x="339.26" y="-710.5" font-family="Helvetica,sans-Serif" font-size="10.00" fill="grey"> &#45;attempt_number</text>
<text text-anchor="middle" x="339.26" y="-698.5" font-family="Helvetica,sans-Serif" font-size="10.00" fill="grey">&#45;max_attempts</text>
</g>
<!-- Node6 -->
<g id="Node000006" class="node">
<title>Node6</title>
<g id="a_Node000006"><a xlink:title=" ">
<polygon fill="white" stroke="none" points="148,-790 120,-790 120,-738 148,-738 148,-790"/>
<text text-anchor="start" x="125" y="-776.5" font-family="Helvetica,sans-Serif" font-size="10.00">bool</text>
<text text-anchor="start" x="132.5" y="-760.5" font-family="Helvetica,sans-Serif" font-size="10.00"> </text>
<text text-anchor="start" x="132.5" y="-744.5" font-family="Helvetica,sans-Serif" font-size="10.00"> </text>
<polygon fill="#666666" stroke="#666666" points="120,-772 120,-772 148,-772 148,-772 120,-772"/>
<polygon fill="#666666" stroke="#666666" points="120,-756 120,-756 148,-756 148,-756 120,-756"/>
<polygon fill="none" stroke="#666666" points="120,-738 120,-790 148,-790 148,-738 120,-738"/>
</a>
</g>
</g>
<!-- Node6&#45;&gt;Node3 -->
<g id="edge5_Node000003_Node000006" class="edge">
<title>Node6&#45;&gt;Node3</title>
<g id="a_edge5_Node000003_Node000006"><a xlink:title=" ">
<path fill="none" stroke="#63b8ff" d="M137.32,-738.23C139.34,-725.47 142.29,-709.75 146.25,-696 146.81,-694.04 147.4,-692.08 148.01,-690.1"/>
<polygon fill="none" stroke="#63b8ff" points="147.99,-690.14 146.03,-683.2 151.68,-678.72 153.64,-685.66 147.99,-690.14"/>
</a>
</g>
<text text-anchor="middle" x="166.12" y="-704.5" font-family="Helvetica,sans-Serif" font-size="10.00" fill="grey"> #verified</text>
</g>
<!-- Node7 -->
<g id="Node000007" class="node">
<title>Node7</title>
<g id="a_Node000007"><a xlink:title=" ">
<polygon fill="white" stroke="none" points="254.5,-790 219.5,-790 219.5,-738 254.5,-738 254.5,-790"/>
<text text-anchor="start" x="224.25" y="-776.5" font-family="Helvetica,sans-Serif" font-size="10.00">String</text>
<text text-anchor="start" x="235.5" y="-760.5" font-family="Helvetica,sans-Serif" font-size="10.00"> </text>
<text text-anchor="start" x="235.5" y="-744.5" font-family="Helvetica,sans-Serif" font-size="10.00"> </text>
<polygon fill="#666666" stroke="#666666" points="219.5,-772 219.5,-772 254.5,-772 254.5,-772 219.5,-772"/>
<polygon fill="#666666" stroke="#666666" points="219.5,-756 219.5,-756 254.5,-756 254.5,-756 219.5,-756"/>
<polygon fill="none" stroke="#666666" points="219.5,-738 219.5,-790 254.5,-790 254.5,-738 219.5,-738"/>
</a>
</g>
</g>
<!-- Node7&#45;&gt;Node2 -->
<g id="edge8_Node000002_Node000007" class="edge">
<title>Node7&#45;&gt;Node2</title>
<g id="a_edge8_Node000002_Node000007"><a xlink:title=" ">
<path fill="none" stroke="#63b8ff" d="M254.41,-740.49C258.34,-734.19 261.95,-727.12 264,-720 266.95,-709.75 264.13,-706.67 264,-696 263.14,-623.01 261.34,-542.14 259.57,-473.84"/>
<polygon fill="none" stroke="#63b8ff" points="259.57,-473.69 255.42,-467.8 259.26,-461.69 263.41,-467.59 259.57,-473.69"/>
</a>
</g>
<text text-anchor="middle" x="291.89" y="-590.5" font-family="Helvetica,sans-Serif" font-size="10.00" fill="grey"> &#45;csv_header</text>
<text text-anchor="middle" x="291.89" y="-578.5" font-family="Helvetica,sans-Serif" font-size="10.00" fill="grey">&#45;empty_csv</text>
</g>
<!-- Node7&#45;&gt;Node3 -->
<g id="edge6_Node000003_Node000007" class="edge">
<title>Node7&#45;&gt;Node3</title>
<g id="a_edge6_Node000003_Node000007"><a xlink:title=" ">
<path fill="none" stroke="#63b8ff" d="M219.69,-748.91C211.6,-741.27 202.74,-731.13 198,-720 194.07,-710.78 191.23,-700.87 189.22,-690.77"/>
<polygon fill="none" stroke="#63b8ff" points="189.19,-690.65 184.27,-685.38 187.23,-678.81 192.16,-684.07 189.19,-690.65"/>
</a>
</g>
<text text-anchor="middle" x="231" y="-704.5" font-family="Helvetica,sans-Serif" font-size="10.00" fill="grey"> #device_name</text>
</g>
</g>
</svg>
