<?xml version="1.0" encoding="UTF-8" standalone="no"?>
<!DOCTYPE svg PUBLIC "-//W3C//DTD SVG 1.1//EN"
 "http://www.w3.org/Graphics/SVG/1.1/DTD/svg11.dtd">
<!-- Generated by graphviz version 12.1.2 (20240928.0832)
 -->
<!-- Title: RadioStorage Pages: 1 -->
<svg width="392pt" height="585pt"
 viewBox="0.00 0.00 392.29 585.00" xmlns="http://www.w3.org/2000/svg" xmlns:xlink="http://www.w3.org/1999/xlink">
<g id="graph0" class="graph" transform="scale(1 1) rotate(0) translate(4 581)">
<title>RadioStorage</title>
<!-- Node1 -->
<g id="Node000001" class="node">
<title>Node1</title>
<g id="a_Node000001"><a xlink:title="Implementation of a Storage device to interface with an SD card.">
<polygon fill="#999999" stroke="none" points="360.5,-100 277.5,-100 277.5,0 360.5,0 360.5,-100"/>
<text text-anchor="start" x="289.38" y="-86.5" font-family="Helvetica,sans-Serif" font-size="10.00">RadioStorage</text>
<text text-anchor="start" x="317.5" y="-70.5" font-family="Helvetica,sans-Serif" font-size="10.00"> </text>
<text text-anchor="start" x="281.5" y="-54.5" font-family="Helvetica,sans-Serif" font-size="10.00">+</text>
<text text-anchor="start" x="291.5" y="-54.5" font-family="Helvetica,sans-Serif" font-size="10.00">RadioStorage()</text>
<text text-anchor="start" x="281.5" y="-38.5" font-family="Helvetica,sans-Serif" font-size="10.00">+</text>
<text text-anchor="start" x="291.5" y="-38.5" font-family="Helvetica,sans-Serif" font-size="10.00">verify()</text>
<text text-anchor="start" x="281.5" y="-22.5" font-family="Helvetica,sans-Serif" font-size="10.00">+</text>
<text text-anchor="start" x="291.5" y="-22.5" font-family="Helvetica,sans-Serif" font-size="10.00">store()</text>
<text text-anchor="start" x="281.5" y="-6.5" font-family="Helvetica,sans-Serif" font-size="10.00">+</text>
<text text-anchor="start" x="291.5" y="-6.5" font-family="Helvetica,sans-Serif" font-size="10.00">storePacket()</text>
<polygon fill="#666666" stroke="#666666" points="277.5,-82 277.5,-82 360.5,-82 360.5,-82 277.5,-82"/>
<polygon fill="#666666" stroke="#666666" points="277.5,-66 277.5,-66 360.5,-66 360.5,-66 277.5,-66"/>
<polygon fill="none" stroke="#666666" points="277.5,0 277.5,-100 360.5,-100 360.5,0 277.5,0"/>
</a>
</g>
</g>
<!-- Node2 -->
<g id="Node000002" class="node">
<title>Node2</title>
<g id="a_Node000002"><a xlink:href="classStorage.html" target="_top" xlink:title="Parent class for all data storage devices (sd card, radio, etc)">
<polygon fill="white" stroke="none" points="315,-237 239,-237 239,-137 315,-137 315,-237"/>
<text text-anchor="start" x="260.12" y="-223.5" font-family="Helvetica,sans-Serif" font-size="10.00">Storage</text>
<text text-anchor="start" x="275.5" y="-207.5" font-family="Helvetica,sans-Serif" font-size="10.00"> </text>
<text text-anchor="start" x="243" y="-191.5" font-family="Helvetica,sans-Serif" font-size="10.00">+</text>
<text text-anchor="start" x="253" y="-191.5" font-family="Helvetica,sans-Serif" font-size="10.00">Storage()</text>
<text text-anchor="start" x="243" y="-175.5" font-family="Helvetica,sans-Serif" font-size="10.00">+</text>
<text text-anchor="start" x="253" y="-175.5" font-family="Helvetica,sans-Serif" font-size="10.00">verify()</text>
<text text-anchor="start" x="243" y="-159.5" font-family="Helvetica,sans-Serif" font-size="10.00">+</text>
<text text-anchor="start" x="253" y="-159.5" font-family="Helvetica,sans-Serif" font-size="10.00">store()</text>
<text text-anchor="start" x="243" y="-143.5" font-family="Helvetica,sans-Serif" font-size="10.00">+</text>
<text text-anchor="start" x="253" y="-143.5" font-family="Helvetica,sans-Serif" font-size="10.00">storePacket()</text>
<polygon fill="#666666" stroke="#666666" points="239,-219 239,-219 315,-219 315,-219 239,-219"/>
<polygon fill="#666666" stroke="#666666" points="239,-203 239,-203 315,-203 315,-203 239,-203"/>
<polygon fill="none" stroke="#666666" points="239,-137 239,-237 315,-237 315,-137 239,-137"/>
</a>
</g>
</g>
<!-- Node2&#45;&gt;Node1 -->
<g id="edge1_Node000001_Node000002" class="edge">
<title>Node2&#45;&gt;Node1</title>
<g id="a_edge1_Node000001_Node000002"><a xlink:title=" ">
<path fill="none" stroke="#63b8ff" d="M295.52,-126.47C298.31,-117.51 301.15,-108.36 303.86,-99.67"/>
<polygon fill="none" stroke="#63b8ff" points="292.24,-125.23 292.61,-135.82 298.93,-127.31 292.24,-125.23"/>
</a>
</g>
</g>
<!-- Node3 -->
<g id="Node000003" class="node">
<title>Node3</title>
<g id="a_Node000003"><a xlink:href="classDevice.html" target="_top" xlink:title="Implements the recovery system for Sensor and Storage objects.">
<polygon fill="white" stroke="none" points="271,-465 165,-465 165,-285 271,-285 271,-465"/>
<text text-anchor="start" x="202.62" y="-451.5" font-family="Helvetica,sans-Serif" font-size="10.00">Device</text>
<text text-anchor="start" x="216.5" y="-435.5" font-family="Helvetica,sans-Serif" font-size="10.00"> </text>
<text text-anchor="start" x="169" y="-419.5" font-family="Helvetica,sans-Serif" font-size="10.00">+</text>
<text text-anchor="start" x="179" y="-419.5" font-family="Helvetica,sans-Serif" font-size="10.00">Device()</text>
<text text-anchor="start" x="169" y="-403.5" font-family="Helvetica,sans-Serif" font-size="10.00">+</text>
<text text-anchor="start" x="179" y="-403.5" font-family="Helvetica,sans-Serif" font-size="10.00">Device()</text>
<text text-anchor="start" x="169" y="-387.5" font-family="Helvetica,sans-Serif" font-size="10.00">+</text>
<text text-anchor="start" x="179" y="-387.5" font-family="Helvetica,sans-Serif" font-size="10.00">getDeviceName()</text>
<text text-anchor="start" x="169" y="-371.5" font-family="Helvetica,sans-Serif" font-size="10.00">+</text>
<text text-anchor="start" x="179" y="-371.5" font-family="Helvetica,sans-Serif" font-size="10.00">verify()</text>
<text text-anchor="start" x="169" y="-355.5" font-family="Helvetica,sans-Serif" font-size="10.00">+</text>
<text text-anchor="start" x="179" y="-355.5" font-family="Helvetica,sans-Serif" font-size="10.00">getVerified()</text>
<text text-anchor="start" x="169" y="-339.5" font-family="Helvetica,sans-Serif" font-size="10.00">+</text>
<text text-anchor="start" x="179" y="-339.5" font-family="Helvetica,sans-Serif" font-size="10.00">recoveryConfig()</text>
<text text-anchor="start" x="169" y="-323.5" font-family="Helvetica,sans-Serif" font-size="10.00">+</text>
<text text-anchor="start" x="179" y="-323.5" font-family="Helvetica,sans-Serif" font-size="10.00">setWaitFactor()</text>
<text text-anchor="start" x="169" y="-307.5" font-family="Helvetica,sans-Serif" font-size="10.00">+</text>
<text text-anchor="start" x="179" y="-307.5" font-family="Helvetica,sans-Serif" font-size="10.00">setMaxAttempts()</text>
<text text-anchor="start" x="169" y="-291.5" font-family="Helvetica,sans-Serif" font-size="10.00">+</text>
<text text-anchor="start" x="179" y="-291.5" font-family="Helvetica,sans-Serif" font-size="10.00">attemptConnection()</text>
<polygon fill="#666666" stroke="#666666" points="165,-447 165,-447 271,-447 271,-447 165,-447"/>
<polygon fill="#666666" stroke="#666666" points="165,-431 165,-431 271,-431 271,-431 165,-431"/>
<polygon fill="none" stroke="#666666" points="165,-285 165,-465 271,-465 271,-285 165,-285"/>
</a>
</g>
</g>
<!-- Node3&#45;&gt;Node2 -->
<g id="edge2_Node000002_Node000003" class="edge">
<title>Node3&#45;&gt;Node2</title>
<g id="a_edge2_Node000002_Node000003"><a xlink:title=" ">
<path fill="none" stroke="#63b8ff" d="M249.67,-274.17C253.78,-261.2 257.84,-248.41 261.52,-236.82"/>
<polygon fill="none" stroke="#63b8ff" points="246.35,-273.05 246.66,-283.64 253.02,-275.17 246.35,-273.05"/>
</a>
</g>
</g>
<!-- Node4 -->
<g id="Node000004" class="node">
<title>Node4</title>
<g id="a_Node000004"><a xlink:title=" ">
<polygon fill="white" stroke="none" points="70,-577 0,-577 0,-525 70,-525 70,-577"/>
<text text-anchor="start" x="5" y="-563.5" font-family="Helvetica,sans-Serif" font-size="10.00">unsigned long</text>
<text text-anchor="start" x="33.5" y="-547.5" font-family="Helvetica,sans-Serif" font-size="10.00"> </text>
<text text-anchor="start" x="33.5" y="-531.5" font-family="Helvetica,sans-Serif" font-size="10.00"> </text>
<polygon fill="#666666" stroke="#666666" points="0,-559 0,-559 70,-559 70,-559 0,-559"/>
<polygon fill="#666666" stroke="#666666" points="0,-543 0,-543 70,-543 70,-543 0,-543"/>
<polygon fill="none" stroke="#666666" points="0,-525 0,-577 70,-577 70,-525 0,-525"/>
</a>
</g>
</g>
<!-- Node4&#45;&gt;Node3 -->
<g id="edge3_Node000003_Node000004" class="edge">
<title>Node4&#45;&gt;Node3</title>
<g id="a_edge3_Node000003_Node000004"><a xlink:title=" ">
<path fill="none" stroke="#63b8ff" d="M42.01,-525.27C46.7,-511.78 53.88,-495.36 64,-483 88.61,-452.94 123.75,-427.65 154.24,-409.22"/>
<polygon fill="none" stroke="#63b8ff" points="154.12,-409.29 157.26,-402.8 164.46,-403.2 161.32,-409.69 154.12,-409.29"/>
</a>
</g>
<text text-anchor="middle" x="94" y="-497.5" font-family="Helvetica,sans-Serif" font-size="10.00" fill="grey"> &#45;last_attempt</text>
<text text-anchor="middle" x="94" y="-485.5" font-family="Helvetica,sans-Serif" font-size="10.00" fill="grey">&#45;wait_factor</text>
</g>
<!-- Node5 -->
<g id="Node000005" class="node">
<title>Node5</title>
<g id="a_Node000005"><a xlink:title=" ">
<polygon fill="white" stroke="none" points="128,-577 108,-577 108,-525 128,-525 128,-577"/>
<text text-anchor="start" x="112.75" y="-563.5" font-family="Helvetica,sans-Serif" font-size="10.00">int</text>
<text text-anchor="start" x="116.5" y="-547.5" font-family="Helvetica,sans-Serif" font-size="10.00"> </text>
<text text-anchor="start" x="116.5" y="-531.5" font-family="Helvetica,sans-Serif" font-size="10.00"> </text>
<polygon fill="#666666" stroke="#666666" points="108,-559 108,-559 128,-559 128,-559 108,-559"/>
<polygon fill="#666666" stroke="#666666" points="108,-543 108,-543 128,-543 128,-543 108,-543"/>
<polygon fill="none" stroke="#666666" points="108,-525 108,-577 128,-577 128,-525 108,-525"/>
</a>
</g>
</g>
<!-- Node5&#45;&gt;Node3 -->
<g id="edge4_Node000003_Node000005" class="edge">
<title>Node5&#45;&gt;Node3</title>
<g id="a_edge4_Node000003_Node000005"><a xlink:title=" ">
<path fill="none" stroke="#63b8ff" d="M123,-525.01C126.15,-512.05 130.88,-496.22 137.5,-483 143.26,-471.5 150.28,-459.97 157.76,-448.97"/>
<polygon fill="none" stroke="#63b8ff" points="157.63,-449.16 157.81,-441.95 164.53,-439.33 164.36,-446.54 157.63,-449.16"/>
</a>
</g>
<text text-anchor="middle" x="175.75" y="-497.5" font-family="Helvetica,sans-Serif" font-size="10.00" fill="grey"> &#45;attempt_number</text>
<text text-anchor="middle" x="175.75" y="-485.5" font-family="Helvetica,sans-Serif" font-size="10.00" fill="grey">&#45;max_attempts</text>
</g>
<!-- Node6 -->
<g id="Node000006" class="node">
<title>Node6</title>
<g id="a_Node000006"><a xlink:title=" ">
<polygon fill="white" stroke="none" points="232,-577 204,-577 204,-525 232,-525 232,-577"/>
<text text-anchor="start" x="209" y="-563.5" font-family="Helvetica,sans-Serif" font-size="10.00">bool</text>
<text text-anchor="start" x="216.5" y="-547.5" font-family="Helvetica,sans-Serif" font-size="10.00"> </text>
<text text-anchor="start" x="216.5" y="-531.5" font-family="Helvetica,sans-Serif" font-size="10.00"> </text>
<polygon fill="#666666" stroke="#666666" points="204,-559 204,-559 232,-559 232,-559 204,-559"/>
<polygon fill="#666666" stroke="#666666" points="204,-543 204,-543 232,-543 232,-543 204,-543"/>
<polygon fill="none" stroke="#666666" points="204,-525 204,-577 232,-577 232,-525 204,-525"/>
</a>
</g>
</g>
<!-- Node6&#45;&gt;Node3 -->
<g id="edge5_Node000003_Node000006" class="edge">
<title>Node6&#45;&gt;Node3</title>
<g id="a_edge5_Node000003_Node000006"><a xlink:title=" ">
<path fill="none" stroke="#63b8ff" d="M218,-525.07C218,-512.14 218,-495.39 218,-477.81"/>
<polygon fill="none" stroke="#63b8ff" points="218,-477.81 214,-471.81 218,-465.81 222,-471.81 218,-477.81"/>
</a>
</g>
<text text-anchor="middle" x="237.88" y="-491.5" font-family="Helvetica,sans-Serif" font-size="10.00" fill="grey"> #verified</text>
</g>
<!-- Node7 -->
<g id="Node000007" class="node">
<title>Node7</title>
<g id="a_Node000007"><a xlink:title=" ">
<polygon fill="white" stroke="none" points="338.5,-577 303.5,-577 303.5,-525 338.5,-525 338.5,-577"/>
<text text-anchor="start" x="308.25" y="-563.5" font-family="Helvetica,sans-Serif" font-size="10.00">String</text>
<text text-anchor="start" x="319.5" y="-547.5" font-family="Helvetica,sans-Serif" font-size="10.00"> </text>
<text text-anchor="start" x="319.5" y="-531.5" font-family="Helvetica,sans-Serif" font-size="10.00"> </text>
<polygon fill="#666666" stroke="#666666" points="303.5,-559 303.5,-559 338.5,-559 338.5,-559 303.5,-559"/>
<polygon fill="#666666" stroke="#666666" points="303.5,-543 303.5,-543 338.5,-543 338.5,-543 303.5,-543"/>
<polygon fill="none" stroke="#666666" points="303.5,-525 303.5,-577 338.5,-577 338.5,-525 303.5,-525"/>
</a>
</g>
</g>
<!-- Node7&#45;&gt;Node1 -->
<g id="edge7_Node000001_Node000007" class="edge">
<title>Node7&#45;&gt;Node1</title>
<g id="a_edge7_Node000001_Node000007"><a xlink:title=" ">
<path fill="none" stroke="#63b8ff" d="M338.41,-527.49C342.34,-521.19 345.95,-514.12 348,-507 350.95,-496.75 348.36,-493.66 348,-483 343.57,-350.9 331.54,-196.45 324.45,-112.68"/>
<polygon fill="none" stroke="#63b8ff" points="324.45,-112.71 319.95,-107.08 323.43,-100.76 327.92,-106.4 324.45,-112.71"/>
</a>
</g>
<text text-anchor="middle" x="360.29" y="-257.5" font-family="Helvetica,sans-Serif" font-size="10.00" fill="grey"> &#45;file_name</text>
</g>
<!-- Node7&#45;&gt;Node3 -->
<g id="edge6_Node000003_Node000007" class="edge">
<title>Node7&#45;&gt;Node3</title>
<g id="a_edge6_Node000003_Node000007"><a xlink:title=" ">
<path fill="none" stroke="#63b8ff" d="M303.87,-533.36C296.59,-525.74 288.33,-516.34 282,-507 275.41,-497.28 269.11,-486.78 263.21,-476.11"/>
<polygon fill="none" stroke="#63b8ff" points="263.32,-476.3 256.95,-472.91 257.63,-465.73 264,-469.13 263.32,-476.3"/>
</a>
</g>
<text text-anchor="middle" x="315" y="-491.5" font-family="Helvetica,sans-Serif" font-size="10.00" fill="grey"> #device_name</text>
</g>
</g>
</svg>
