<?xml version="1.0" encoding="UTF-8" standalone="no"?>
<!DOCTYPE svg PUBLIC "-//W3C//DTD SVG 1.1//EN"
 "http://www.w3.org/Graphics/SVG/1.1/DTD/svg11.dtd">
<!-- Generated by graphviz version 12.1.2 (20240928.0832)
 -->
<!-- Title: Device Pages: 1 -->
<svg width="335pt" height="300pt"
 viewBox="0.00 0.00 334.94 300.00" xmlns="http://www.w3.org/2000/svg" xmlns:xlink="http://www.w3.org/1999/xlink">

<svg id="main" version="1.1" xmlns="http://www.w3.org/2000/svg" xmlns:xlink="http://www.w3.org/1999/xlink" xml:space="preserve">

<style type="text/css"><![CDATA[
.node, .edge {opacity: 0.7;}
.node.selected, .edge.selected {opacity: 1;}
.edge:hover path { stroke: red; }
.edge:hover polygon { stroke: red; fill: red; }
]]></style>
<script type="application/ecmascript" xlink:href="svg.min.js"/>
<svg id="graph" class="graph">
<g id="graph0" class="graph" transform="scale(1 1) rotate(0) translate(4 296)">
<title>Device</title>
<!-- Node1 -->
<g id="Node000001" class="node">
<title>Node1</title>
<g id="a_Node000001"><a xlink:title="Implements the recovery system for Sensor and Storage objects.">
<polygon fill="#999999" stroke="none" points="221,-180 115,-180 115,0 221,0 221,-180"/>
<text text-anchor="start" x="152.62" y="-166.5" font-family="Helvetica,sans-Serif" font-size="10.00">Device</text>
<text text-anchor="start" x="166.5" y="-150.5" font-family="Helvetica,sans-Serif" font-size="10.00"> </text>
<text text-anchor="start" x="119" y="-134.5" font-family="Helvetica,sans-Serif" font-size="10.00">+</text>
<text text-anchor="start" x="129" y="-134.5" font-family="Helvetica,sans-Serif" font-size="10.00">Device()</text>
<text text-anchor="start" x="119" y="-118.5" font-family="Helvetica,sans-Serif" font-size="10.00">+</text>
<text text-anchor="start" x="129" y="-118.5" font-family="Helvetica,sans-Serif" font-size="10.00">Device()</text>
<text text-anchor="start" x="119" y="-102.5" font-family="Helvetica,sans-Serif" font-size="10.00">+</text>
<text text-anchor="start" x="129" y="-102.5" font-family="Helvetica,sans-Serif" font-size="10.00">getDeviceName()</text>
<text text-anchor="start" x="119" y="-86.5" font-family="Helvetica,sans-Serif" font-size="10.00">+</text>
<text text-anchor="start" x="129" y="-86.5" font-family="Helvetica,sans-Serif" font-size="10.00">verify()</text>
<text text-anchor="start" x="119" y="-70.5" font-family="Helvetica,sans-Serif" font-size="10.00">+</text>
<text text-anchor="start" x="129" y="-70.5" font-family="Helvetica,sans-Serif" font-size="10.00">getVerified()</text>
<text text-anchor="start" x="119" y="-54.5" font-family="Helvetica,sans-Serif" font-size="10.00">+</text>
<text text-anchor="start" x="129" y="-54.5" font-family="Helvetica,sans-Serif" font-size="10.00">recoveryConfig()</text>
<text text-anchor="start" x="119" y="-38.5" font-family="Helvetica,sans-Serif" font-size="10.00">+</text>
<text text-anchor="start" x="129" y="-38.5" font-family="Helvetica,sans-Serif" font-size="10.00">setWaitFactor()</text>
<text text-anchor="start" x="119" y="-22.5" font-family="Helvetica,sans-Serif" font-size="10.00">+</text>
<text text-anchor="start" x="129" y="-22.5" font-family="Helvetica,sans-Serif" font-size="10.00">setMaxAttempts()</text>
<text text-anchor="start" x="119" y="-6.5" font-family="Helvetica,sans-Serif" font-size="10.00">+</text>
<text text-anchor="start" x="129" y="-6.5" font-family="Helvetica,sans-Serif" font-size="10.00">attemptConnection()</text>
<polygon fill="#666666" stroke="#666666" points="115,-162 115,-162 221,-162 221,-162 115,-162"/>
<polygon fill="#666666" stroke="#666666" points="115,-146 115,-146 221,-146 221,-146 115,-146"/>
<polygon fill="none" stroke="#666666" points="115,0 115,-180 221,-180 221,0 115,0"/>
</a>
</g>
</g>
<!-- Node2 -->
<g id="Node000002" class="node">
<title>Node2</title>
<g id="a_Node000002"><a xlink:title=" ">
<polygon fill="white" stroke="none" points="70,-292 0,-292 0,-240 70,-240 70,-292"/>
<text text-anchor="start" x="5" y="-278.5" font-family="Helvetica,sans-Serif" font-size="10.00">unsigned long</text>
<text text-anchor="start" x="33.5" y="-262.5" font-family="Helvetica,sans-Serif" font-size="10.00"> </text>
<text text-anchor="start" x="33.5" y="-246.5" font-family="Helvetica,sans-Serif" font-size="10.00"> </text>
<polygon fill="#666666" stroke="#666666" points="0,-274 0,-274 70,-274 70,-274 0,-274"/>
<polygon fill="#666666" stroke="#666666" points="0,-258 0,-258 70,-258 70,-258 0,-258"/>
<polygon fill="none" stroke="#666666" points="0,-240 0,-292 70,-292 70,-240 0,-240"/>
</a>
</g>
</g>
<!-- Node2&#45;&gt;Node1 -->
<g id="edge1_Node000001_Node000002" class="edge">
<title>Node2&#45;&gt;Node1</title>
<g id="a_edge1_Node000001_Node000002"><a xlink:title=" ">
<path fill="none" stroke="#63b8ff" d="M37.83,-240.13C40.16,-226.9 44.39,-210.79 52,-198 65.67,-175.04 85.76,-154.05 105.39,-136.85"/>
<polygon fill="none" stroke="#63b8ff" points="105.44,-136.82 107.42,-129.89 114.59,-129.06 112.6,-135.99 105.44,-136.82"/>
</a>
</g>
<text text-anchor="middle" x="82" y="-212.5" font-family="Helvetica,sans-Serif" font-size="10.00" fill="grey"> &#45;last_attempt</text>
<text text-anchor="middle" x="82" y="-200.5" font-family="Helvetica,sans-Serif" font-size="10.00" fill="grey">&#45;wait_factor</text>
</g>
<!-- Node3 -->
<g id="Node000003" class="node">
<title>Node3</title>
<g id="a_Node000003"><a xlink:title=" ">
<polygon fill="white" stroke="none" points="128,-292 108,-292 108,-240 128,-240 128,-292"/>
<text text-anchor="start" x="112.75" y="-278.5" font-family="Helvetica,sans-Serif" font-size="10.00">int</text>
<text text-anchor="start" x="116.5" y="-262.5" font-family="Helvetica,sans-Serif" font-size="10.00"> </text>
<text text-anchor="start" x="116.5" y="-246.5" font-family="Helvetica,sans-Serif" font-size="10.00"> </text>
<polygon fill="#666666" stroke="#666666" points="108,-274 108,-274 128,-274 128,-274 108,-274"/>
<polygon fill="#666666" stroke="#666666" points="108,-258 108,-258 128,-258 128,-258 108,-258"/>
<polygon fill="none" stroke="#666666" points="108,-240 108,-292 128,-292 128,-240 108,-240"/>
</a>
</g>
</g>
<!-- Node3&#45;&gt;Node1 -->
<g id="edge2_Node000001_Node000003" class="edge">
<title>Node3&#45;&gt;Node1</title>
<g id="a_edge2_Node000001_Node000003"><a xlink:title=" ">
<path fill="none" stroke="#63b8ff" d="M116.2,-240.21C115.87,-227.45 116.37,-211.73 119.5,-198 119.92,-196.14 120.38,-194.26 120.87,-192.39"/>
<polygon fill="none" stroke="#63b8ff" points="120.88,-192.36 118.74,-185.48 124.27,-180.85 126.41,-187.74 120.88,-192.36"/>
</a>
</g>
<text text-anchor="middle" x="157.75" y="-212.5" font-family="Helvetica,sans-Serif" font-size="10.00" fill="grey"> &#45;attempt_number</text>
<text text-anchor="middle" x="157.75" y="-200.5" font-family="Helvetica,sans-Serif" font-size="10.00" fill="grey">&#45;max_attempts</text>
</g>
<!-- Node4 -->
<g id="Node000004" class="node">
<title>Node4</title>
<g id="a_Node000004"><a xlink:title=" ">
<polygon fill="white" stroke="none" points="232,-292 204,-292 204,-240 232,-240 232,-292"/>
<text text-anchor="start" x="209" y="-278.5" font-family="Helvetica,sans-Serif" font-size="10.00">bool</text>
<text text-anchor="start" x="216.5" y="-262.5" font-family="Helvetica,sans-Serif" font-size="10.00"> </text>
<text text-anchor="start" x="216.5" y="-246.5" font-family="Helvetica,sans-Serif" font-size="10.00"> </text>
<polygon fill="#666666" stroke="#666666" points="204,-274 204,-274 232,-274 232,-274 204,-274"/>
<polygon fill="#666666" stroke="#666666" points="204,-258 204,-258 232,-258 232,-258 204,-258"/>
<polygon fill="none" stroke="#666666" points="204,-240 204,-292 232,-292 232,-240 204,-240"/>
</a>
</g>
</g>
<!-- Node4&#45;&gt;Node1 -->
<g id="edge3_Node000001_Node000004" class="edge">
<title>Node4&#45;&gt;Node1</title>
<g id="a_edge3_Node000001_Node000004"><a xlink:title=" ">
<path fill="none" stroke="#63b8ff" d="M210.84,-240.07C207.08,-227.01 202.21,-210.07 197.11,-192.3"/>
<polygon fill="none" stroke="#63b8ff" points="197.11,-192.31 191.61,-187.65 193.8,-180.78 199.3,-185.44 197.11,-192.31"/>
</a>
</g>
<text text-anchor="middle" x="224.47" y="-206.5" font-family="Helvetica,sans-Serif" font-size="10.00" fill="grey"> #verified</text>
</g>
<!-- Node5 -->
<g id="Node000005" class="node">
<title>Node5</title>
<g id="a_Node000005"><a xlink:title=" ">
<polygon fill="white" stroke="none" points="298.5,-292 263.5,-292 263.5,-240 298.5,-240 298.5,-292"/>
<text text-anchor="start" x="268.25" y="-278.5" font-family="Helvetica,sans-Serif" font-size="10.00">String</text>
<text text-anchor="start" x="279.5" y="-262.5" font-family="Helvetica,sans-Serif" font-size="10.00"> </text>
<text text-anchor="start" x="279.5" y="-246.5" font-family="Helvetica,sans-Serif" font-size="10.00"> </text>
<polygon fill="#666666" stroke="#666666" points="263.5,-274 263.5,-274 298.5,-274 298.5,-274 263.5,-274"/>
<polygon fill="#666666" stroke="#666666" points="263.5,-258 263.5,-258 298.5,-258 298.5,-258 263.5,-258"/>
<polygon fill="none" stroke="#666666" points="263.5,-240 263.5,-292 298.5,-292 298.5,-240 263.5,-240"/>
</a>
</g>
</g>
<!-- Node5&#45;&gt;Node1 -->
<g id="edge4_Node000001_Node000005" class="edge">
<title>Node5&#45;&gt;Node1</title>
<g id="a_edge4_Node000001_Node000005"><a xlink:title=" ">
<path fill="none" stroke="#63b8ff" d="M270.14,-240.23C264.15,-227.34 256.27,-211.49 248,-198 241.99,-188.2 235.31,-178.18 228.44,-168.4"/>
<polygon fill="none" stroke="#63b8ff" points="228.44,-168.39 221.7,-165.83 221.46,-158.63 228.21,-161.18 228.44,-168.39"/>
</a>
</g>
<text text-anchor="middle" x="293.94" y="-206.5" font-family="Helvetica,sans-Serif" font-size="10.00" fill="grey"> #device_name</text>
</g>
</g>
</svg>
</svg>

<style type='text/css'>
<![CDATA[
[data-mouse-over-selected='false'] { opacity: 0.7; }
[data-mouse-over-selected='true']  { opacity: 1.0; }
]]>
</style>
<script type="application/ecmascript"><![CDATA[
document.addEventListener('DOMContentLoaded', (event) => {
  highlightEdges();
  highlightAdjacentNodes();
});
]]></script>
</svg>
