<?xml version="1.0" encoding="UTF-8" standalone="no"?>
<!DOCTYPE svg PUBLIC "-//W3C//DTD SVG 1.1//EN"
 "http://www.w3.org/Graphics/SVG/1.1/DTD/svg11.dtd">
<!-- Generated by graphviz version 2.43.0 (0)
 -->
<!-- Title: RadioStorage Pages: 1 -->
<!--zoomable 566 -->

<svg id="main" version="1.1" xmlns="http://www.w3.org/2000/svg" xmlns:xlink="http://www.w3.org/1999/xlink" xml:space="preserve" onload="init(evt)">
<style type="text/css"><![CDATA[
.node, .edge {opacity: 0.7;}
.node.selected, .edge.selected {opacity: 1;}
.edge:hover path { stroke: red; }
.edge:hover polygon { stroke: red; fill: red; }
]]></style>

<defs>
  <circle id="rim" cx="0" cy="0" r="7"/>
  <circle id="rim2" cx="0" cy="0" r="3.5"/>
  <g id="zoomPlus">
    <use xlink:href="#rim" fill="#404040"><set attributeName="fill" to="#808080" begin="zoomplus.mouseover" end="zoomplus.mouseout"/></use>
    <path d="M-4,0h8M0,-4v8" fill="none" stroke="white" stroke-width="1.5" pointer-events="none"/>
  </g>
  <g id="zoomMin">
    <use xlink:href="#rim" fill="#404040"><set attributeName="fill" to="#808080" begin="zoomminus.mouseover" end="zoomminus.mouseout"/></use>
    <path d="M-4,0h8" fill="none" stroke="white" stroke-width="1.5" pointer-events="none"/>
  </g>
  <g id="arrowUp" transform="translate(30 24)">
    <use xlink:href="#rim"/>
    <path pointer-events="none" fill="none" stroke="white" stroke-width="1.5" d="M0,-3.0v7 M-2.5,-0.5L0,-3.0L2.5,-0.5"/>
  </g>
  <g id="arrowRight" transform="rotate(90) translate(36 -43)">
    <use xlink:href="#rim"/>
    <path pointer-events="none" fill="none" stroke="white" stroke-width="1.5" d="M0,-3.0v7 M-2.5,-0.5L0,-3.0L2.5,-0.5"/>
  </g>
  <g id="arrowDown" transform="rotate(180) translate(-30 -48)">
    <use xlink:href="#rim"/>
    <path pointer-events="none" fill="none" stroke="white" stroke-width="1.5" d="M0,-3.0v7 M-2.5,-0.5L0,-3.0L2.5,-0.5"/>
  </g>
  <g id="arrowLeft" transform="rotate(270) translate(-36 17)">
    <use xlink:href="#rim"/>
    <path pointer-events="none" fill="none" stroke="white" stroke-width="1.5" d="M0,-3.0v7 M-2.5,-0.5L0,-3.0L2.5,-0.5"/>
  </g>
  <g id="resetDef">
    <use xlink:href="#rim2" fill="#404040"><set attributeName="fill" to="#808080" begin="reset.mouseover" end="reset.mouseout"/></use>
  </g>
</defs>
<script type="application/ecmascript">
var viewWidth = 370;
var viewHeight = 566;
var sectionId = 'dynsection-1';
</script>
<script type="application/ecmascript" xlink:href="svg.min.js"/>
<svg id="graph" class="graph">
<g id="viewport">
<title>RadioStorage</title>
<!-- Node1 -->
<g id="Node000001" class="node">
<title>Node1</title>
<g id="a_Node000001"><a xlink:title="Implementation of a Storage device to interface with an SD card.">
<polygon fill="#999999" stroke="transparent" points="213.39,-94 119.39,-94 119.39,0 213.39,0 213.39,-94"/>
<text text-anchor="start" x="133.39" y="-82" font-family="Helvetica,sans-Serif" font-size="10.00">RadioStorage</text>
<text text-anchor="start" x="164.39" y="-67" font-family="Helvetica,sans-Serif" font-size="10.00"> </text>
<text text-anchor="start" x="123.39" y="-52" font-family="Helvetica,sans-Serif" font-size="10.00">+</text>
<text text-anchor="start" x="136.39" y="-52" font-family="Helvetica,sans-Serif" font-size="10.00">RadioStorage()</text>
<text text-anchor="start" x="123.39" y="-37" font-family="Helvetica,sans-Serif" font-size="10.00">+</text>
<text text-anchor="start" x="136.39" y="-37" font-family="Helvetica,sans-Serif" font-size="10.00">verify()</text>
<text text-anchor="start" x="123.39" y="-22" font-family="Helvetica,sans-Serif" font-size="10.00">+</text>
<text text-anchor="start" x="136.39" y="-22" font-family="Helvetica,sans-Serif" font-size="10.00">store()</text>
<text text-anchor="start" x="123.39" y="-7" font-family="Helvetica,sans-Serif" font-size="10.00">+</text>
<text text-anchor="start" x="136.39" y="-7" font-family="Helvetica,sans-Serif" font-size="10.00">storePacket()</text>
<polygon fill="#666666" stroke="#666666" points="119.39,-77 119.39,-77 213.39,-77 213.39,-77 119.39,-77"/>
<polygon fill="#666666" stroke="#666666" points="119.39,-62 119.39,-62 213.39,-62 213.39,-62 119.39,-62"/>
<polygon fill="none" stroke="#666666" points="119.39,0 119.39,-94 213.39,-94 213.39,0 119.39,0"/>
</a>
</g>
</g>
<!-- Node2 -->
<g id="Node000002" class="node">
<title>Node2</title>
<g id="a_Node000002"><a xlink:href="classStorage.html" target="_top" xlink:title="Parent class for all data storage devices (sd card, radio, etc)">
<polygon fill="white" stroke="transparent" points="145.89,-235 60.89,-235 60.89,-141 145.89,-141 145.89,-235"/>
<text text-anchor="start" x="84.89" y="-223" font-family="Helvetica,sans-Serif" font-size="10.00">Storage</text>
<text text-anchor="start" x="101.89" y="-208" font-family="Helvetica,sans-Serif" font-size="10.00"> </text>
<text text-anchor="start" x="65.39" y="-193" font-family="Helvetica,sans-Serif" font-size="10.00">+</text>
<text text-anchor="start" x="78.39" y="-193" font-family="Helvetica,sans-Serif" font-size="10.00">Storage()</text>
<text text-anchor="start" x="65.39" y="-178" font-family="Helvetica,sans-Serif" font-size="10.00">+</text>
<text text-anchor="start" x="78.39" y="-178" font-family="Helvetica,sans-Serif" font-size="10.00">verify()</text>
<text text-anchor="start" x="65.39" y="-163" font-family="Helvetica,sans-Serif" font-size="10.00">+</text>
<text text-anchor="start" x="78.39" y="-163" font-family="Helvetica,sans-Serif" font-size="10.00">store()</text>
<text text-anchor="start" x="65.39" y="-148" font-family="Helvetica,sans-Serif" font-size="10.00">+</text>
<text text-anchor="start" x="78.39" y="-148" font-family="Helvetica,sans-Serif" font-size="10.00">storePacket()</text>
<polygon fill="#666666" stroke="#666666" points="61.39,-218 61.39,-218 146.39,-218 146.39,-218 61.39,-218"/>
<polygon fill="#666666" stroke="#666666" points="61.39,-203 61.39,-203 146.39,-203 146.39,-203 61.39,-203"/>
<polygon fill="none" stroke="#666666" points="60.89,-141 60.89,-235 145.89,-235 145.89,-141 60.89,-141"/>
</a>
</g>
</g>
<!-- Node2&#45;&gt;Node1 -->
<g id="edge1_Node000001_Node000002" class="edge">
<title>Node2&#45;&gt;Node1</title>
<g id="a_edge1_Node000001_Node000002"><a xlink:title=" ">
<path fill="none" stroke="#63b8ff" d="M128.59,-131.4C134.2,-119.02 140.09,-106.03 145.51,-94.08"/>
<polygon fill="none" stroke="#63b8ff" points="125.31,-130.16 124.37,-140.72 131.69,-133.05 125.31,-130.16"/>
</a>
</g>
</g>
<!-- Node3 -->
<g id="Node000003" class="node">
<title>Node3</title>
<g id="a_Node000003"><a xlink:href="classDevice.html" target="_top" xlink:title="Implements the recovery system for Sensor and Storage objects.">
<polygon fill="white" stroke="transparent" points="201.89,-451 78.89,-451 78.89,-282 201.89,-282 201.89,-451"/>
<text text-anchor="start" x="123.89" y="-438.5" font-family="Helvetica,sans-Serif" font-size="10.00">Device</text>
<text text-anchor="start" x="138.89" y="-423.5" font-family="Helvetica,sans-Serif" font-size="10.00"> </text>
<text text-anchor="start" x="83.39" y="-408.5" font-family="Helvetica,sans-Serif" font-size="10.00">+</text>
<text text-anchor="start" x="96.39" y="-408.5" font-family="Helvetica,sans-Serif" font-size="10.00">Device()</text>
<text text-anchor="start" x="83.39" y="-393.5" font-family="Helvetica,sans-Serif" font-size="10.00">+</text>
<text text-anchor="start" x="96.39" y="-393.5" font-family="Helvetica,sans-Serif" font-size="10.00">Device()</text>
<text text-anchor="start" x="83.39" y="-378.5" font-family="Helvetica,sans-Serif" font-size="10.00">+</text>
<text text-anchor="start" x="96.39" y="-378.5" font-family="Helvetica,sans-Serif" font-size="10.00">getDeviceName()</text>
<text text-anchor="start" x="83.39" y="-363.5" font-family="Helvetica,sans-Serif" font-size="10.00">+</text>
<text text-anchor="start" x="96.39" y="-363.5" font-family="Helvetica,sans-Serif" font-size="10.00">verify()</text>
<text text-anchor="start" x="83.39" y="-348.5" font-family="Helvetica,sans-Serif" font-size="10.00">+</text>
<text text-anchor="start" x="96.39" y="-348.5" font-family="Helvetica,sans-Serif" font-size="10.00">getVerified()</text>
<text text-anchor="start" x="83.39" y="-333.5" font-family="Helvetica,sans-Serif" font-size="10.00">+</text>
<text text-anchor="start" x="96.39" y="-333.5" font-family="Helvetica,sans-Serif" font-size="10.00">recoveryConfig()</text>
<text text-anchor="start" x="83.39" y="-318.5" font-family="Helvetica,sans-Serif" font-size="10.00">+</text>
<text text-anchor="start" x="96.39" y="-318.5" font-family="Helvetica,sans-Serif" font-size="10.00">setWaitFactor()</text>
<text text-anchor="start" x="83.39" y="-303.5" font-family="Helvetica,sans-Serif" font-size="10.00">+</text>
<text text-anchor="start" x="96.39" y="-303.5" font-family="Helvetica,sans-Serif" font-size="10.00">setMaxAttempts()</text>
<text text-anchor="start" x="83.39" y="-288.5" font-family="Helvetica,sans-Serif" font-size="10.00">+</text>
<text text-anchor="start" x="96.39" y="-288.5" font-family="Helvetica,sans-Serif" font-size="10.00">attemptConnection()</text>
<polygon fill="#666666" stroke="#666666" points="79.39,-433.5 79.39,-433.5 202.39,-433.5 202.39,-433.5 79.39,-433.5"/>
<polygon fill="#666666" stroke="#666666" points="79.39,-418.5 79.39,-418.5 202.39,-418.5 202.39,-418.5 79.39,-418.5"/>
<polygon fill="none" stroke="#666666" points="78.89,-282 78.89,-451 201.89,-451 201.89,-282 78.89,-282"/>
</a>
</g>
</g>
<!-- Node3&#45;&gt;Node2 -->
<g id="edge2_Node000002_Node000003" class="edge">
<title>Node3&#45;&gt;Node2</title>
<g id="a_edge2_Node000002_Node000003"><a xlink:title=" ">
<path fill="none" stroke="#63b8ff" d="M120.74,-271.75C118.09,-259.1 115.47,-246.6 113.1,-235.3"/>
<polygon fill="none" stroke="#63b8ff" points="117.39,-272.83 122.87,-281.9 124.24,-271.4 117.39,-272.83"/>
</a>
</g>
</g>
<!-- Node4 -->
<g id="Node000004" class="node">
<title>Node4</title>
<g id="a_Node000004"><a xlink:title=" ">
<polygon fill="white" stroke="transparent" points="351.89,-558 272.89,-558 272.89,-509 351.89,-509 351.89,-558"/>
<text text-anchor="start" x="278.39" y="-545.5" font-family="Helvetica,sans-Serif" font-size="10.00">unsigned long</text>
<text text-anchor="start" x="310.89" y="-530.5" font-family="Helvetica,sans-Serif" font-size="10.00"> </text>
<text text-anchor="start" x="310.89" y="-515.5" font-family="Helvetica,sans-Serif" font-size="10.00"> </text>
<polygon fill="#666666" stroke="#666666" points="273.39,-540.5 273.39,-540.5 352.39,-540.5 352.39,-540.5 273.39,-540.5"/>
<polygon fill="#666666" stroke="#666666" points="273.39,-525.5 273.39,-525.5 352.39,-525.5 352.39,-525.5 273.39,-525.5"/>
<polygon fill="none" stroke="#666666" points="272.89,-509 272.89,-558 351.89,-558 351.89,-509 272.89,-509"/>
</a>
</g>
</g>
<!-- Node4&#45;&gt;Node3 -->
<g id="edge3_Node000003_Node000004" class="edge">
<title>Node4&#45;&gt;Node3</title>
<g id="a_edge3_Node000003_Node000004"><a xlink:title=" ">
<path fill="none" stroke="#63b8ff" d="M302.84,-508.91C296.98,-496.23 288.63,-480.81 278.39,-469 259.47,-447.17 235.04,-427.3 212.01,-411.03"/>
<polygon fill="none" stroke="#63b8ff" points="211.78,-410.87 204.57,-410.76 201.9,-404.06 209.11,-404.17 211.78,-410.87"/>
</a>
</g>
<text text-anchor="middle" x="327.39" y="-483" font-family="Helvetica,sans-Serif" font-size="10.00" fill="grey"> &#45;last_attempt</text>
<text text-anchor="middle" x="327.39" y="-472" font-family="Helvetica,sans-Serif" font-size="10.00" fill="grey">&#45;wait_factor</text>
</g>
<!-- Node5 -->
<g id="Node000005" class="node">
<title>Node5</title>
<g id="a_Node000005"><a xlink:title=" ">
<polygon fill="white" stroke="transparent" points="23.89,-558 0.89,-558 0.89,-509 23.89,-509 23.89,-558"/>
<text text-anchor="start" x="6.39" y="-545.5" font-family="Helvetica,sans-Serif" font-size="10.00">int</text>
<text text-anchor="start" x="10.89" y="-530.5" font-family="Helvetica,sans-Serif" font-size="10.00"> </text>
<text text-anchor="start" x="10.89" y="-515.5" font-family="Helvetica,sans-Serif" font-size="10.00"> </text>
<polygon fill="#666666" stroke="#666666" points="1.39,-540.5 1.39,-540.5 24.39,-540.5 24.39,-540.5 1.39,-540.5"/>
<polygon fill="#666666" stroke="#666666" points="1.39,-525.5 1.39,-525.5 24.39,-525.5 24.39,-525.5 1.39,-525.5"/>
<polygon fill="none" stroke="#666666" points="0.89,-509 0.89,-558 23.89,-558 23.89,-509 0.89,-509"/>
</a>
</g>
</g>
<!-- Node5&#45;&gt;Node1 -->
<g id="edge8_Node000001_Node000005" class="edge">
<title>Node5&#45;&gt;Node1</title>
<g id="a_edge8_Node000001_Node000005"><a xlink:title=" ">
<path fill="none" stroke="#63b8ff" d="M8.75,-508.64C0.18,-444.6 -15.78,-265.42 51.39,-141 64.61,-116.52 87.23,-96.1 108.94,-80.7"/>
<polygon fill="none" stroke="#63b8ff" points="109.22,-80.51 111.93,-73.82 119.14,-73.76 116.43,-80.44 109.22,-80.51"/>
</a>
</g>
<text text-anchor="middle" x="28.39" y="-256" font-family="Helvetica,sans-Serif" font-size="10.00" fill="grey"> &#45;state</text>
</g>
<!-- Node5&#45;&gt;Node3 -->
<g id="edge4_Node000003_Node000005" class="edge">
<title>Node5&#45;&gt;Node3</title>
<g id="a_edge4_Node000003_Node000005"><a xlink:title=" ">
<path fill="none" stroke="#63b8ff" d="M23.76,-508.77C30.07,-496.48 38.43,-481.47 47.39,-469 54.52,-459.07 62.52,-449.06 70.74,-439.39"/>
<polygon fill="none" stroke="#63b8ff" points="70.82,-439.3 71.73,-432.15 78.68,-430.24 77.77,-437.39 70.82,-439.3"/>
</a>
</g>
<text text-anchor="middle" x="91.89" y="-483" font-family="Helvetica,sans-Serif" font-size="10.00" fill="grey"> &#45;attempt_number</text>
<text text-anchor="middle" x="91.89" y="-472" font-family="Helvetica,sans-Serif" font-size="10.00" fill="grey">&#45;max_attempts</text>
</g>
<!-- Node6 -->
<g id="Node000006" class="node">
<title>Node6</title>
<g id="a_Node000006"><a xlink:title=" ">
<polygon fill="white" stroke="transparent" points="156.39,-558 124.39,-558 124.39,-509 156.39,-509 156.39,-558"/>
<text text-anchor="start" x="129.39" y="-545.5" font-family="Helvetica,sans-Serif" font-size="10.00">bool</text>
<text text-anchor="start" x="138.39" y="-530.5" font-family="Helvetica,sans-Serif" font-size="10.00"> </text>
<text text-anchor="start" x="138.39" y="-515.5" font-family="Helvetica,sans-Serif" font-size="10.00"> </text>
<polygon fill="#666666" stroke="#666666" points="124.39,-540.5 124.39,-540.5 156.39,-540.5 156.39,-540.5 124.39,-540.5"/>
<polygon fill="#666666" stroke="#666666" points="124.39,-525.5 124.39,-525.5 156.39,-525.5 156.39,-525.5 124.39,-525.5"/>
<polygon fill="none" stroke="#666666" points="124.39,-509 124.39,-558 156.39,-558 156.39,-509 124.39,-509"/>
</a>
</g>
</g>
<!-- Node6&#45;&gt;Node3 -->
<g id="edge5_Node000003_Node000006" class="edge">
<title>Node6&#45;&gt;Node3</title>
<g id="a_edge5_Node000003_Node000006"><a xlink:title=" ">
<path fill="none" stroke="#63b8ff" d="M140.39,-508.86C140.39,-496.45 140.39,-480.34 140.39,-463.46"/>
<polygon fill="none" stroke="#63b8ff" points="140.39,-463.07 136.39,-457.07 140.39,-451.07 144.39,-457.07 140.39,-463.07"/>
</a>
</g>
<text text-anchor="middle" x="164.89" y="-477.5" font-family="Helvetica,sans-Serif" font-size="10.00" fill="grey"> #verified</text>
</g>
<!-- Node7 -->
<g id="Node000007" class="node">
<title>Node7</title>
<g id="a_Node000007"><a xlink:title=" ">
<polygon fill="white" stroke="transparent" points="231.89,-558 192.89,-558 192.89,-509 231.89,-509 231.89,-558"/>
<text text-anchor="start" x="198.39" y="-545.5" font-family="Helvetica,sans-Serif" font-size="10.00">String</text>
<text text-anchor="start" x="210.89" y="-530.5" font-family="Helvetica,sans-Serif" font-size="10.00"> </text>
<text text-anchor="start" x="210.89" y="-515.5" font-family="Helvetica,sans-Serif" font-size="10.00"> </text>
<polygon fill="#666666" stroke="#666666" points="193.39,-540.5 193.39,-540.5 232.39,-540.5 232.39,-540.5 193.39,-540.5"/>
<polygon fill="#666666" stroke="#666666" points="193.39,-525.5 193.39,-525.5 232.39,-525.5 232.39,-525.5 193.39,-525.5"/>
<polygon fill="none" stroke="#666666" points="192.89,-509 192.89,-558 231.89,-558 231.89,-509 192.89,-509"/>
</a>
</g>
</g>
<!-- Node7&#45;&gt;Node3 -->
<g id="edge6_Node000003_Node000007" class="edge">
<title>Node7&#45;&gt;Node3</title>
<g id="a_edge6_Node000003_Node000007"><a xlink:title=" ">
<path fill="none" stroke="#63b8ff" d="M204.93,-508.72C200.96,-496.68 195.79,-481.92 190.39,-469 189.43,-466.7 188.44,-464.38 187.43,-462.04"/>
<polygon fill="none" stroke="#63b8ff" points="187.42,-462.01 181.33,-458.14 182.55,-451.04 188.64,-454.9 187.42,-462.01"/>
</a>
</g>
<text text-anchor="middle" x="235.89" y="-477.5" font-family="Helvetica,sans-Serif" font-size="10.00" fill="grey"> #device_name</text>
</g>
<!-- Node8 -->
<g id="Node000008" class="node">
<title>Node8</title>
<g id="a_Node000008"><a xlink:title=" ">
<polygon fill="white" stroke="transparent" points="210.89,-212.5 163.89,-212.5 163.89,-163.5 210.89,-163.5 210.89,-212.5"/>
<text text-anchor="start" x="169.39" y="-200" font-family="Helvetica,sans-Serif" font-size="10.00">SX1276</text>
<text text-anchor="start" x="185.89" y="-185" font-family="Helvetica,sans-Serif" font-size="10.00"> </text>
<text text-anchor="start" x="185.89" y="-170" font-family="Helvetica,sans-Serif" font-size="10.00"> </text>
<polygon fill="#666666" stroke="#666666" points="164.39,-195 164.39,-195 211.39,-195 211.39,-195 164.39,-195"/>
<polygon fill="#666666" stroke="#666666" points="164.39,-180 164.39,-180 211.39,-180 211.39,-180 164.39,-180"/>
<polygon fill="none" stroke="#666666" points="163.89,-163.5 163.89,-212.5 210.89,-212.5 210.89,-163.5 163.89,-163.5"/>
</a>
</g>
</g>
<!-- Node8&#45;&gt;Node1 -->
<g id="edge7_Node000001_Node000008" class="edge">
<title>Node8&#45;&gt;Node1</title>
<g id="a_edge7_Node000001_Node000008"><a xlink:title=" ">
<path fill="none" stroke="#63b8ff" d="M183.83,-163.42C181.45,-147.7 178.22,-126.29 175.18,-106.19"/>
<polygon fill="none" stroke="#63b8ff" points="175.17,-106.1 170.32,-100.76 173.38,-94.23 178.23,-99.57 175.17,-106.1"/>
</a>
</g>
<text text-anchor="middle" x="193.39" y="-115" font-family="Helvetica,sans-Serif" font-size="10.00" fill="grey"> &#45;radio</text>
</g>
<!-- Node9 -->
<g id="Node000009" class="node">
<title>Node9</title>
<g id="a_Node000009"><a xlink:title=" ">
<polygon fill="white" stroke="transparent" points="279.39,-212.5 229.39,-212.5 229.39,-163.5 279.39,-163.5 279.39,-212.5"/>
<text text-anchor="start" x="234.39" y="-200" font-family="Helvetica,sans-Serif" font-size="10.00">uint32_t</text>
<text text-anchor="start" x="252.39" y="-185" font-family="Helvetica,sans-Serif" font-size="10.00"> </text>
<text text-anchor="start" x="252.39" y="-170" font-family="Helvetica,sans-Serif" font-size="10.00"> </text>
<polygon fill="#666666" stroke="#666666" points="229.39,-195 229.39,-195 279.39,-195 279.39,-195 229.39,-195"/>
<polygon fill="#666666" stroke="#666666" points="229.39,-180 229.39,-180 279.39,-180 279.39,-180 229.39,-180"/>
<polygon fill="none" stroke="#666666" points="229.39,-163.5 229.39,-212.5 279.39,-212.5 279.39,-163.5 229.39,-163.5"/>
</a>
</g>
</g>
<!-- Node9&#45;&gt;Node1 -->
<g id="edge9_Node000001_Node000009" class="edge">
<title>Node9&#45;&gt;Node1</title>
<g id="a_edge9_Node000001_Node000009"><a xlink:title=" ">
<path fill="none" stroke="#63b8ff" d="M242.43,-163.23C234.64,-148.24 223.99,-128.65 213.39,-112 211.77,-109.46 210.09,-106.88 208.36,-104.29"/>
<polygon fill="none" stroke="#63b8ff" points="208.31,-104.23 201.62,-101.54 201.52,-94.33 208.22,-97.02 208.31,-104.23"/>
</a>
</g>
<text text-anchor="middle" x="279.89" y="-115" font-family="Helvetica,sans-Serif" font-size="10.00" fill="grey"> &#45;last_transmission_time</text>
</g>
</g>
</svg>

<g id="navigator" transform="translate(0 0)" fill="#404254">
  <rect fill="#f2f5e9" fill-opacity="0.5" stroke="#606060" stroke-width=".5" x="0" y="0" width="60" height="60"/>
  <use id="zoomplus" xlink:href="#zoomPlus" x="17" y="9" onmousedown="handleZoom(evt,'in')"/>
  <use id="zoomminus" xlink:href="#zoomMin" x="42" y="9" onmousedown="handleZoom(evt,'out')"/>
  <use id="reset" xlink:href="#resetDef" x="30" y="36" onmousedown="handleReset()"/>
   <use id="arrowup" xlink:href="#arrowUp" x="0" y="0" onmousedown="handlePan(0,-1)"/>
  <use id="arrowright" xlink:href="#arrowRight" x="0" y="0" onmousedown="handlePan(1,0)"/>
  <use id="arrowdown" xlink:href="#arrowDown" x="0" y="0" onmousedown="handlePan(0,1)"/>
  <use id="arrowleft" xlink:href="#arrowLeft" x="0" y="0" onmousedown="handlePan(-1,0)"/>
</g>
<svg viewBox="0 0 15 15" width="100%" height="30px" preserveAspectRatio="xMaxYMin meet">
 <g id="arrow_out" transform="scale(0.3 0.3)">
  <a xlink:href="classRadioStorage__coll__graph_org.svg" target="_base">
   <rect id="button" ry="5" rx="5" y="6" x="6" height="38" width="38"
        fill="#f2f5e9" fill-opacity="0.5" stroke="#606060" stroke-width="1.0"/>
   <path id="arrow"
     d="M 11.500037,31.436501 C 11.940474,20.09759 22.043105,11.32322 32.158766,21.979434 L 37.068811,17.246167 C 37.068811,17.246167 37.088388,32 37.088388,32 L 22.160133,31.978069 C 22.160133,31.978069 26.997745,27.140456 26.997745,27.140456 C 18.528582,18.264221 13.291696,25.230495 11.500037,31.436501 z"
     style="fill:#404040;"/>
  </a>
 </g>
</svg>

<style type='text/css'>
<![CDATA[
[data-mouse-over-selected='false'] { opacity: 0.7; }
[data-mouse-over-selected='true']  { opacity: 1.0; }
]]>
</style>
<script type="application/ecmascript"><![CDATA[
document.addEventListener('DOMContentLoaded', (event) => {
  highlightEdges();
  highlightAdjacentNodes();
});
]]></script>
</svg>
