<?xml version="1.0" encoding="UTF-8" standalone="no"?>
<!DOCTYPE svg PUBLIC "-//W3C//DTD SVG 1.1//EN"
 "http://www.w3.org/Graphics/SVG/1.1/DTD/svg11.dtd">
<!-- Generated by graphviz version 12.1.2 (20240928.0832)
 -->
<!-- Title: SDStorage Pages: 1 -->
<svg width="486pt" height="596pt"
 viewBox="0.00 0.00 485.50 596.00" xmlns="http://www.w3.org/2000/svg" xmlns:xlink="http://www.w3.org/1999/xlink">
<g id="graph0" class="graph" transform="scale(1 1) rotate(0) translate(4 592)">
<title>SDStorage</title>
<!-- Node1 -->
<g id="Node000001" class="node">
<title>Node1</title>
<g id="a_Node000001"><a xlink:title="Implementation of a Storage device to interface with an SD card.">
<polygon fill="#999999" stroke="none" points="400,-100 324,-100 324,0 400,0 400,-100"/>
<text text-anchor="start" x="338" y="-86.5" font-family="Helvetica,sans-Serif" font-size="10.00">SDStorage</text>
<text text-anchor="start" x="360.5" y="-70.5" font-family="Helvetica,sans-Serif" font-size="10.00"> </text>
<text text-anchor="start" x="328" y="-54.5" font-family="Helvetica,sans-Serif" font-size="10.00">+</text>
<text text-anchor="start" x="338" y="-54.5" font-family="Helvetica,sans-Serif" font-size="10.00">SDStorage()</text>
<text text-anchor="start" x="328" y="-38.5" font-family="Helvetica,sans-Serif" font-size="10.00">+</text>
<text text-anchor="start" x="338" y="-38.5" font-family="Helvetica,sans-Serif" font-size="10.00">verify()</text>
<text text-anchor="start" x="328" y="-22.5" font-family="Helvetica,sans-Serif" font-size="10.00">+</text>
<text text-anchor="start" x="338" y="-22.5" font-family="Helvetica,sans-Serif" font-size="10.00">store()</text>
<text text-anchor="start" x="328" y="-6.5" font-family="Helvetica,sans-Serif" font-size="10.00">+</text>
<text text-anchor="start" x="338" y="-6.5" font-family="Helvetica,sans-Serif" font-size="10.00">storePacket()</text>
<polygon fill="#666666" stroke="#666666" points="324,-82 324,-82 400,-82 400,-82 324,-82"/>
<polygon fill="#666666" stroke="#666666" points="324,-66 324,-66 400,-66 400,-66 324,-66"/>
<polygon fill="none" stroke="#666666" points="324,0 324,-100 400,-100 400,0 324,0"/>
</a>
</g>
</g>
<!-- Node2 -->
<g id="Node000002" class="node">
<title>Node2</title>
<g id="a_Node000002"><a xlink:href="classStorage.html" target="_top" xlink:title="Parent class for all data storage devices (sd card, radio, etc)">
<polygon fill="white" stroke="none" points="315,-248 239,-248 239,-148 315,-148 315,-248"/>
<text text-anchor="start" x="260.12" y="-234.5" font-family="Helvetica,sans-Serif" font-size="10.00">Storage</text>
<text text-anchor="start" x="275.5" y="-218.5" font-family="Helvetica,sans-Serif" font-size="10.00"> </text>
<text text-anchor="start" x="243" y="-202.5" font-family="Helvetica,sans-Serif" font-size="10.00">+</text>
<text text-anchor="start" x="253" y="-202.5" font-family="Helvetica,sans-Serif" font-size="10.00">Storage()</text>
<text text-anchor="start" x="243" y="-186.5" font-family="Helvetica,sans-Serif" font-size="10.00">+</text>
<text text-anchor="start" x="253" y="-186.5" font-family="Helvetica,sans-Serif" font-size="10.00">verify()</text>
<text text-anchor="start" x="243" y="-170.5" font-family="Helvetica,sans-Serif" font-size="10.00">+</text>
<text text-anchor="start" x="253" y="-170.5" font-family="Helvetica,sans-Serif" font-size="10.00">store()</text>
<text text-anchor="start" x="243" y="-154.5" font-family="Helvetica,sans-Serif" font-size="10.00">+</text>
<text text-anchor="start" x="253" y="-154.5" font-family="Helvetica,sans-Serif" font-size="10.00">storePacket()</text>
<polygon fill="#666666" stroke="#666666" points="239,-230 239,-230 315,-230 315,-230 239,-230"/>
<polygon fill="#666666" stroke="#666666" points="239,-214 239,-214 315,-214 315,-214 239,-214"/>
<polygon fill="none" stroke="#666666" points="239,-148 239,-248 315,-248 315,-148 239,-148"/>
</a>
</g>
</g>
<!-- Node2&#45;&gt;Node1 -->
<g id="edge1_Node000001_Node000002" class="edge">
<title>Node2&#45;&gt;Node1</title>
<g id="a_edge1_Node000001_Node000002"><a xlink:title=" ">
<path fill="none" stroke="#63b8ff" d="M310.94,-138.7C318.43,-125.84 326.29,-112.34 333.53,-99.9"/>
<polygon fill="none" stroke="#63b8ff" points="308.07,-136.67 306.07,-147.08 314.12,-140.19 308.07,-136.67"/>
</a>
</g>
</g>
<!-- Node3 -->
<g id="Node000003" class="node">
<title>Node3</title>
<g id="a_Node000003"><a xlink:href="classDevice.html" target="_top" xlink:title="Implements the recovery system for Sensor and Storage objects.">
<polygon fill="white" stroke="none" points="271,-476 165,-476 165,-296 271,-296 271,-476"/>
<text text-anchor="start" x="202.62" y="-462.5" font-family="Helvetica,sans-Serif" font-size="10.00">Device</text>
<text text-anchor="start" x="216.5" y="-446.5" font-family="Helvetica,sans-Serif" font-size="10.00"> </text>
<text text-anchor="start" x="169" y="-430.5" font-family="Helvetica,sans-Serif" font-size="10.00">+</text>
<text text-anchor="start" x="179" y="-430.5" font-family="Helvetica,sans-Serif" font-size="10.00">Device()</text>
<text text-anchor="start" x="169" y="-414.5" font-family="Helvetica,sans-Serif" font-size="10.00">+</text>
<text text-anchor="start" x="179" y="-414.5" font-family="Helvetica,sans-Serif" font-size="10.00">Device()</text>
<text text-anchor="start" x="169" y="-398.5" font-family="Helvetica,sans-Serif" font-size="10.00">+</text>
<text text-anchor="start" x="179" y="-398.5" font-family="Helvetica,sans-Serif" font-size="10.00">getDeviceName()</text>
<text text-anchor="start" x="169" y="-382.5" font-family="Helvetica,sans-Serif" font-size="10.00">+</text>
<text text-anchor="start" x="179" y="-382.5" font-family="Helvetica,sans-Serif" font-size="10.00">verify()</text>
<text text-anchor="start" x="169" y="-366.5" font-family="Helvetica,sans-Serif" font-size="10.00">+</text>
<text text-anchor="start" x="179" y="-366.5" font-family="Helvetica,sans-Serif" font-size="10.00">getVerified()</text>
<text text-anchor="start" x="169" y="-350.5" font-family="Helvetica,sans-Serif" font-size="10.00">+</text>
<text text-anchor="start" x="179" y="-350.5" font-family="Helvetica,sans-Serif" font-size="10.00">recoveryConfig()</text>
<text text-anchor="start" x="169" y="-334.5" font-family="Helvetica,sans-Serif" font-size="10.00">+</text>
<text text-anchor="start" x="179" y="-334.5" font-family="Helvetica,sans-Serif" font-size="10.00">setWaitFactor()</text>
<text text-anchor="start" x="169" y="-318.5" font-family="Helvetica,sans-Serif" font-size="10.00">+</text>
<text text-anchor="start" x="179" y="-318.5" font-family="Helvetica,sans-Serif" font-size="10.00">setMaxAttempts()</text>
<text text-anchor="start" x="169" y="-302.5" font-family="Helvetica,sans-Serif" font-size="10.00">+</text>
<text text-anchor="start" x="179" y="-302.5" font-family="Helvetica,sans-Serif" font-size="10.00">attemptConnection()</text>
<polygon fill="#666666" stroke="#666666" points="165,-458 165,-458 271,-458 271,-458 165,-458"/>
<polygon fill="#666666" stroke="#666666" points="165,-442 165,-442 271,-442 271,-442 165,-442"/>
<polygon fill="none" stroke="#666666" points="165,-296 165,-476 271,-476 271,-296 165,-296"/>
</a>
</g>
</g>
<!-- Node3&#45;&gt;Node2 -->
<g id="edge2_Node000002_Node000003" class="edge">
<title>Node3&#45;&gt;Node2</title>
<g id="a_edge2_Node000002_Node000003"><a xlink:title=" ">
<path fill="none" stroke="#63b8ff" d="M249.67,-285.17C253.78,-272.2 257.84,-259.41 261.52,-247.82"/>
<polygon fill="none" stroke="#63b8ff" points="246.35,-284.05 246.66,-294.64 253.02,-286.17 246.35,-284.05"/>
</a>
</g>
</g>
<!-- Node4 -->
<g id="Node000004" class="node">
<title>Node4</title>
<g id="a_Node000004"><a xlink:title=" ">
<polygon fill="white" stroke="none" points="70,-588 0,-588 0,-536 70,-536 70,-588"/>
<text text-anchor="start" x="5" y="-574.5" font-family="Helvetica,sans-Serif" font-size="10.00">unsigned long</text>
<text text-anchor="start" x="33.5" y="-558.5" font-family="Helvetica,sans-Serif" font-size="10.00"> </text>
<text text-anchor="start" x="33.5" y="-542.5" font-family="Helvetica,sans-Serif" font-size="10.00"> </text>
<polygon fill="#666666" stroke="#666666" points="0,-570 0,-570 70,-570 70,-570 0,-570"/>
<polygon fill="#666666" stroke="#666666" points="0,-554 0,-554 70,-554 70,-554 0,-554"/>
<polygon fill="none" stroke="#666666" points="0,-536 0,-588 70,-588 70,-536 0,-536"/>
</a>
</g>
</g>
<!-- Node4&#45;&gt;Node3 -->
<g id="edge3_Node000003_Node000004" class="edge">
<title>Node4&#45;&gt;Node3</title>
<g id="a_edge3_Node000003_Node000004"><a xlink:title=" ">
<path fill="none" stroke="#63b8ff" d="M42.01,-536.27C46.7,-522.78 53.88,-506.36 64,-494 88.61,-463.94 123.75,-438.65 154.24,-420.22"/>
<polygon fill="none" stroke="#63b8ff" points="154.12,-420.29 157.26,-413.8 164.46,-414.2 161.32,-420.69 154.12,-420.29"/>
</a>
</g>
<text text-anchor="middle" x="94" y="-508.5" font-family="Helvetica,sans-Serif" font-size="10.00" fill="grey"> &#45;last_attempt</text>
<text text-anchor="middle" x="94" y="-496.5" font-family="Helvetica,sans-Serif" font-size="10.00" fill="grey">&#45;wait_factor</text>
</g>
<!-- Node5 -->
<g id="Node000005" class="node">
<title>Node5</title>
<g id="a_Node000005"><a xlink:title=" ">
<polygon fill="white" stroke="none" points="128,-588 108,-588 108,-536 128,-536 128,-588"/>
<text text-anchor="start" x="112.75" y="-574.5" font-family="Helvetica,sans-Serif" font-size="10.00">int</text>
<text text-anchor="start" x="116.5" y="-558.5" font-family="Helvetica,sans-Serif" font-size="10.00"> </text>
<text text-anchor="start" x="116.5" y="-542.5" font-family="Helvetica,sans-Serif" font-size="10.00"> </text>
<polygon fill="#666666" stroke="#666666" points="108,-570 108,-570 128,-570 128,-570 108,-570"/>
<polygon fill="#666666" stroke="#666666" points="108,-554 108,-554 128,-554 128,-554 108,-554"/>
<polygon fill="none" stroke="#666666" points="108,-536 108,-588 128,-588 128,-536 108,-536"/>
</a>
</g>
</g>
<!-- Node5&#45;&gt;Node3 -->
<g id="edge4_Node000003_Node000005" class="edge">
<title>Node5&#45;&gt;Node3</title>
<g id="a_edge4_Node000003_Node000005"><a xlink:title=" ">
<path fill="none" stroke="#63b8ff" d="M123,-536.01C126.15,-523.05 130.88,-507.22 137.5,-494 143.26,-482.5 150.28,-470.97 157.76,-459.97"/>
<polygon fill="none" stroke="#63b8ff" points="157.63,-460.16 157.81,-452.95 164.53,-450.33 164.36,-457.54 157.63,-460.16"/>
</a>
</g>
<text text-anchor="middle" x="175.75" y="-508.5" font-family="Helvetica,sans-Serif" font-size="10.00" fill="grey"> &#45;attempt_number</text>
<text text-anchor="middle" x="175.75" y="-496.5" font-family="Helvetica,sans-Serif" font-size="10.00" fill="grey">&#45;max_attempts</text>
</g>
<!-- Node6 -->
<g id="Node000006" class="node">
<title>Node6</title>
<g id="a_Node000006"><a xlink:title=" ">
<polygon fill="white" stroke="none" points="232,-588 204,-588 204,-536 232,-536 232,-588"/>
<text text-anchor="start" x="209" y="-574.5" font-family="Helvetica,sans-Serif" font-size="10.00">bool</text>
<text text-anchor="start" x="216.5" y="-558.5" font-family="Helvetica,sans-Serif" font-size="10.00"> </text>
<text text-anchor="start" x="216.5" y="-542.5" font-family="Helvetica,sans-Serif" font-size="10.00"> </text>
<polygon fill="#666666" stroke="#666666" points="204,-570 204,-570 232,-570 232,-570 204,-570"/>
<polygon fill="#666666" stroke="#666666" points="204,-554 204,-554 232,-554 232,-554 204,-554"/>
<polygon fill="none" stroke="#666666" points="204,-536 204,-588 232,-588 232,-536 204,-536"/>
</a>
</g>
</g>
<!-- Node6&#45;&gt;Node3 -->
<g id="edge5_Node000003_Node000006" class="edge">
<title>Node6&#45;&gt;Node3</title>
<g id="a_edge5_Node000003_Node000006"><a xlink:title=" ">
<path fill="none" stroke="#63b8ff" d="M218,-536.07C218,-523.14 218,-506.39 218,-488.81"/>
<polygon fill="none" stroke="#63b8ff" points="218,-488.81 214,-482.81 218,-476.81 222,-482.81 218,-488.81"/>
</a>
</g>
<text text-anchor="middle" x="237.88" y="-502.5" font-family="Helvetica,sans-Serif" font-size="10.00" fill="grey"> #verified</text>
</g>
<!-- Node7 -->
<g id="Node000007" class="node">
<title>Node7</title>
<g id="a_Node000007"><a xlink:title=" ">
<polygon fill="white" stroke="none" points="338.5,-588 303.5,-588 303.5,-536 338.5,-536 338.5,-588"/>
<text text-anchor="start" x="308.25" y="-574.5" font-family="Helvetica,sans-Serif" font-size="10.00">String</text>
<text text-anchor="start" x="319.5" y="-558.5" font-family="Helvetica,sans-Serif" font-size="10.00"> </text>
<text text-anchor="start" x="319.5" y="-542.5" font-family="Helvetica,sans-Serif" font-size="10.00"> </text>
<polygon fill="#666666" stroke="#666666" points="303.5,-570 303.5,-570 338.5,-570 338.5,-570 303.5,-570"/>
<polygon fill="#666666" stroke="#666666" points="303.5,-554 303.5,-554 338.5,-554 338.5,-554 303.5,-554"/>
<polygon fill="none" stroke="#666666" points="303.5,-536 303.5,-588 338.5,-588 338.5,-536 303.5,-536"/>
</a>
</g>
</g>
<!-- Node7&#45;&gt;Node1 -->
<g id="edge7_Node000001_Node000007" class="edge">
<title>Node7&#45;&gt;Node1</title>
<g id="a_edge7_Node000001_Node000007"><a xlink:title=" ">
<path fill="none" stroke="#63b8ff" d="M338.27,-538.44C342.2,-532.15 345.84,-525.08 348,-518 390.58,-378.02 380.11,-203.45 370.2,-112.53"/>
<polygon fill="none" stroke="#63b8ff" points="370.21,-112.56 365.56,-107.05 368.86,-100.63 373.51,-106.15 370.21,-112.56"/>
</a>
</g>
<text text-anchor="middle" x="403.04" y="-268.5" font-family="Helvetica,sans-Serif" font-size="10.00" fill="grey"> &#45;file_name</text>
</g>
<!-- Node7&#45;&gt;Node3 -->
<g id="edge6_Node000003_Node000007" class="edge">
<title>Node7&#45;&gt;Node3</title>
<g id="a_edge6_Node000003_Node000007"><a xlink:title=" ">
<path fill="none" stroke="#63b8ff" d="M303.87,-544.36C296.59,-536.74 288.33,-527.34 282,-518 275.41,-508.28 269.11,-497.78 263.21,-487.11"/>
<polygon fill="none" stroke="#63b8ff" points="263.32,-487.3 256.95,-483.91 257.63,-476.73 264,-480.13 263.32,-487.3"/>
</a>
</g>
<text text-anchor="middle" x="315" y="-502.5" font-family="Helvetica,sans-Serif" font-size="10.00" fill="grey"> #device_name</text>
</g>
<!-- Node8 -->
<g id="Node000008" class="node">
<title>Node8</title>
<g id="a_Node000008"><a xlink:title=" ">
<polygon fill="white" stroke="none" points="477.5,-224 390.5,-224 390.5,-172 477.5,-172 477.5,-224"/>
<text text-anchor="start" x="395.38" y="-210.5" font-family="Helvetica,sans-Serif" font-size="10.00">SPIClassRP2040</text>
<text text-anchor="start" x="432.5" y="-194.5" font-family="Helvetica,sans-Serif" font-size="10.00"> </text>
<text text-anchor="start" x="432.5" y="-178.5" font-family="Helvetica,sans-Serif" font-size="10.00"> </text>
<polygon fill="#666666" stroke="#666666" points="390.5,-206 390.5,-206 477.5,-206 477.5,-206 390.5,-206"/>
<polygon fill="#666666" stroke="#666666" points="390.5,-190 390.5,-190 477.5,-190 477.5,-190 390.5,-190"/>
<polygon fill="none" stroke="#666666" points="390.5,-172 390.5,-224 477.5,-224 477.5,-172 390.5,-172"/>
</a>
</g>
</g>
<!-- Node8&#45;&gt;Node1 -->
<g id="edge8_Node000001_Node000008" class="edge">
<title>Node8&#45;&gt;Node1</title>
<g id="a_edge8_Node000001_Node000008"><a xlink:title=" ">
<path fill="none" stroke="#63b8ff" d="M421.79,-172.23C413.56,-155.55 402.33,-132.79 391.83,-111.49"/>
<polygon fill="none" stroke="#63b8ff" points="391.8,-111.43 385.56,-107.82 386.49,-100.67 392.73,-104.28 391.8,-111.43"/>
</a>
</g>
<text text-anchor="middle" x="422.66" y="-120.5" font-family="Helvetica,sans-Serif" font-size="10.00" fill="grey"> &#45;sd_spi_1</text>
</g>
</g>
</svg>
