<?xml version="1.0" encoding="UTF-8" standalone="no"?>
<!DOCTYPE svg PUBLIC "-//W3C//DTD SVG 1.1//EN"
 "http://www.w3.org/Graphics/SVG/1.1/DTD/svg11.dtd">
<!-- Generated by graphviz version 12.1.2 (20240928.0832)
 -->
<!-- Title: ErrorDisplay Pages: 1 -->
<svg width="230pt" height="208pt"
 viewBox="0.00 0.00 230.00 208.00" xmlns="http://www.w3.org/2000/svg" xmlns:xlink="http://www.w3.org/1999/xlink">

<svg id="main" version="1.1" xmlns="http://www.w3.org/2000/svg" xmlns:xlink="http://www.w3.org/1999/xlink" xml:space="preserve">

<style type="text/css"><![CDATA[
.node, .edge {opacity: 0.7;}
.node.selected, .edge.selected {opacity: 1;}
.edge:hover path { stroke: red; }
.edge:hover polygon { stroke: red; fill: red; }
]]></style>
<script type="application/ecmascript" xlink:href="svg.min.js"/>
<svg id="graph" class="graph">
<g id="graph0" class="graph" transform="scale(1 1) rotate(0) translate(4 204)">
<title>ErrorDisplay</title>
<!-- Node1 -->
<g id="Node000001" class="node">
<title>Node1</title>
<g id="a_Node000001"><a xlink:title="Singleton class for the 3 GPIO LED Error Display.">
<polygon fill="#999999" stroke="none" points="178.5,-100 100.5,-100 100.5,0 178.5,0 178.5,-100"/>
<text text-anchor="start" x="112.5" y="-86.5" font-family="Helvetica,sans-Serif" font-size="10.00">ErrorDisplay</text>
<text text-anchor="start" x="138" y="-70.5" font-family="Helvetica,sans-Serif" font-size="10.00"> </text>
<text text-anchor="start" x="104.5" y="-54.5" font-family="Helvetica,sans-Serif" font-size="10.00">+</text>
<text text-anchor="start" x="114.5" y="-54.5" font-family="Helvetica,sans-Serif" font-size="10.00">addCode()</text>
<text text-anchor="start" x="104.5" y="-38.5" font-family="Helvetica,sans-Serif" font-size="10.00">+</text>
<text text-anchor="start" x="114.5" y="-38.5" font-family="Helvetica,sans-Serif" font-size="10.00">toggle()</text>
<text text-anchor="start" x="104.5" y="-22.5" font-family="Helvetica,sans-Serif" font-size="10.00">+</text>
<text text-anchor="start" x="114.5" y="-22.5" font-family="Helvetica,sans-Serif" font-size="10.00">instance()</text>
<text text-anchor="start" x="106" y="-6.5" font-family="Helvetica,sans-Serif" font-size="10.00">&#45;</text>
<text text-anchor="start" x="114.5" y="-6.5" font-family="Helvetica,sans-Serif" font-size="10.00">ErrorDisplay()</text>
<polygon fill="#666666" stroke="#666666" points="100.5,-82 100.5,-82 178.5,-82 178.5,-82 100.5,-82"/>
<polygon fill="#666666" stroke="#666666" points="100.5,-66 100.5,-66 178.5,-66 178.5,-66 100.5,-66"/>
<polygon fill="none" stroke="#666666" points="100.5,0 100.5,-100 178.5,-100 178.5,0 100.5,0"/>
</a>
</g>
</g>
<!-- Node2 -->
<g id="Node000002" class="node">
<title>Node2</title>
<g id="a_Node000002"><a xlink:title=" ">
<polygon fill="white" stroke="none" points="45,-200 0,-200 0,-148 45,-148 45,-200"/>
<text text-anchor="start" x="4.88" y="-186.5" font-family="Helvetica,sans-Serif" font-size="10.00">mutex_t</text>
<text text-anchor="start" x="21" y="-170.5" font-family="Helvetica,sans-Serif" font-size="10.00"> </text>
<text text-anchor="start" x="21" y="-154.5" font-family="Helvetica,sans-Serif" font-size="10.00"> </text>
<polygon fill="#666666" stroke="#666666" points="0,-182 0,-182 45,-182 45,-182 0,-182"/>
<polygon fill="#666666" stroke="#666666" points="0,-166 0,-166 45,-166 45,-166 0,-166"/>
<polygon fill="none" stroke="#666666" points="0,-148 0,-200 45,-200 45,-148 0,-148"/>
</a>
</g>
</g>
<!-- Node2&#45;&gt;Node1 -->
<g id="edge1_Node000001_Node000002" class="edge">
<title>Node2&#45;&gt;Node1</title>
<g id="a_edge1_Node000001_Node000002"><a xlink:title=" ">
<path fill="none" stroke="#63b8ff" d="M27.62,-148.08C30.56,-138.03 35.05,-126.76 41.75,-118 54.47,-101.38 72.51,-87.39 89.64,-76.56"/>
<polygon fill="none" stroke="#63b8ff" points="89.65,-76.56 92.73,-70.04 99.93,-70.38 96.85,-76.9 89.65,-76.56"/>
</a>
</g>
<text text-anchor="middle" x="88.62" y="-120.5" font-family="Helvetica,sans-Serif" font-size="10.00" fill="grey"> &#45;error_display_mutex</text>
</g>
<!-- Node3 -->
<g id="Node000003" class="node">
<title>Node3</title>
<g id="a_Node000003"><a xlink:title=" ">
<polygon fill="white" stroke="none" points="149.5,-200 129.5,-200 129.5,-148 149.5,-148 149.5,-200"/>
<text text-anchor="start" x="134.25" y="-186.5" font-family="Helvetica,sans-Serif" font-size="10.00">int</text>
<text text-anchor="start" x="138" y="-170.5" font-family="Helvetica,sans-Serif" font-size="10.00"> </text>
<text text-anchor="start" x="138" y="-154.5" font-family="Helvetica,sans-Serif" font-size="10.00"> </text>
<polygon fill="#666666" stroke="#666666" points="129.5,-182 129.5,-182 149.5,-182 149.5,-182 129.5,-182"/>
<polygon fill="#666666" stroke="#666666" points="129.5,-166 129.5,-166 149.5,-166 149.5,-166 129.5,-166"/>
<polygon fill="none" stroke="#666666" points="129.5,-148 129.5,-200 149.5,-200 149.5,-148 129.5,-148"/>
</a>
</g>
</g>
<!-- Node3&#45;&gt;Node1 -->
<g id="edge2_Node000001_Node000003" class="edge">
<title>Node3&#45;&gt;Node1</title>
<g id="a_edge2_Node000001_Node000003"><a xlink:title=" ">
<path fill="none" stroke="#63b8ff" d="M139.5,-148.02C139.5,-137.67 139.5,-125.17 139.5,-112.63"/>
<polygon fill="none" stroke="#63b8ff" points="139.5,-112.54 135.5,-106.54 139.5,-100.54 143.5,-106.54 139.5,-112.54"/>
</a>
</g>
<text text-anchor="middle" x="161.62" y="-120.5" font-family="Helvetica,sans-Serif" font-size="10.00" fill="grey"> &#45;pin_level</text>
</g>
<!-- Node4 -->
<g id="Node000004" class="node">
<title>Node4</title>
<g id="a_Node000004"><a xlink:title=" ">
<polygon fill="white" stroke="none" points="222,-200 191,-200 191,-148 222,-148 222,-200"/>
<text text-anchor="start" x="196" y="-186.5" font-family="Helvetica,sans-Serif" font-size="10.00">Error</text>
<text text-anchor="start" x="205" y="-170.5" font-family="Helvetica,sans-Serif" font-size="10.00"> </text>
<text text-anchor="start" x="205" y="-154.5" font-family="Helvetica,sans-Serif" font-size="10.00"> </text>
<polygon fill="#666666" stroke="#666666" points="191,-182 191,-182 222,-182 222,-182 191,-182"/>
<polygon fill="#666666" stroke="#666666" points="191,-166 191,-166 222,-166 222,-166 191,-166"/>
<polygon fill="none" stroke="#666666" points="191,-148 191,-200 222,-200 222,-148 191,-148"/>
</a>
</g>
</g>
<!-- Node4&#45;&gt;Node1 -->
<g id="edge3_Node000001_Node000004" class="edge">
<title>Node4&#45;&gt;Node1</title>
<g id="a_edge3_Node000001_Node000004"><a xlink:title=" ">
<path fill="none" stroke="#63b8ff" d="M197.83,-148.13C194.15,-138.52 189.54,-127.55 184.5,-118 183.25,-115.63 181.93,-113.24 180.57,-110.84"/>
<polygon fill="none" stroke="#63b8ff" points="180.51,-110.75 174,-107.64 174.36,-100.44 180.87,-103.54 180.51,-110.75"/>
</a>
</g>
<text text-anchor="middle" x="203.67" y="-120.5" font-family="Helvetica,sans-Serif" font-size="10.00" fill="grey"> &#45;code</text>
</g>
</g>
</svg>
</svg>

<style type='text/css'>
<![CDATA[
[data-mouse-over-selected='false'] { opacity: 0.7; }
[data-mouse-over-selected='true']  { opacity: 1.0; }
]]>
</style>
<script type="application/ecmascript"><![CDATA[
document.addEventListener('DOMContentLoaded', (event) => {
  highlightEdges();
  highlightAdjacentNodes();
});
]]></script>
</svg>
