<?xml version="1.0" encoding="UTF-8" standalone="no"?>
<!DOCTYPE svg PUBLIC "-//W3C//DTD SVG 1.1//EN"
 "http://www.w3.org/Graphics/SVG/1.1/DTD/svg11.dtd">
<!-- Generated by graphviz version 12.1.2 (20240928.0832)
 -->
<!-- Title: ICM20948Sensor Pages: 1 -->
<!--zoomable 845 -->

<svg id="main" version="1.1" xmlns="http://www.w3.org/2000/svg" xmlns:xlink="http://www.w3.org/1999/xlink" xml:space="preserve" onload="init(evt)">

<style type="text/css"><![CDATA[
.node, .edge {opacity: 0.7;}
.node.selected, .edge.selected {opacity: 1;}
.edge:hover path { stroke: red; }
.edge:hover polygon { stroke: red; fill: red; }
]]></style>

<defs>
  <circle id="rim" cx="0" cy="0" r="7"/>
  <circle id="rim2" cx="0" cy="0" r="3.5"/>
  <g id="zoomPlus">
    <use xlink:href="#rim" fill="#404040"><set attributeName="fill" to="#808080" begin="zoomplus.mouseover" end="zoomplus.mouseout"/></use>
    <path d="M-4,0h8M0,-4v8" fill="none" stroke="white" stroke-width="1.5" pointer-events="none"/>
  </g>
  <g id="zoomMin">
    <use xlink:href="#rim" fill="#404040"><set attributeName="fill" to="#808080" begin="zoomminus.mouseover" end="zoomminus.mouseout"/></use>
    <path d="M-4,0h8" fill="none" stroke="white" stroke-width="1.5" pointer-events="none"/>
  </g>
  <g id="arrowUp" transform="translate(30 24)">
    <use xlink:href="#rim"/>
    <path pointer-events="none" fill="none" stroke="white" stroke-width="1.5" d="M0,-3.0v7 M-2.5,-0.5L0,-3.0L2.5,-0.5"/>
  </g>
  <g id="arrowRight" transform="rotate(90) translate(36 -43)">
    <use xlink:href="#rim"/>
    <path pointer-events="none" fill="none" stroke="white" stroke-width="1.5" d="M0,-3.0v7 M-2.5,-0.5L0,-3.0L2.5,-0.5"/>
  </g>
  <g id="arrowDown" transform="rotate(180) translate(-30 -48)">
    <use xlink:href="#rim"/>
    <path pointer-events="none" fill="none" stroke="white" stroke-width="1.5" d="M0,-3.0v7 M-2.5,-0.5L0,-3.0L2.5,-0.5"/>
  </g>
  <g id="arrowLeft" transform="rotate(270) translate(-36 17)">
    <use xlink:href="#rim"/>
    <path pointer-events="none" fill="none" stroke="white" stroke-width="1.5" d="M0,-3.0v7 M-2.5,-0.5L0,-3.0L2.5,-0.5"/>
  </g>
  <g id="resetDef">
    <use xlink:href="#rim2" fill="#404040"><set attributeName="fill" to="#808080" begin="reset.mouseover" end="reset.mouseout"/></use>
  </g>
</defs>
<script type="application/ecmascript">
var viewWidth = 539;
var viewHeight = 845;
var sectionId = 'dynsection-1';
</script>
<script type="application/ecmascript" xlink:href="svg.min.js"/>
<svg id="graph" class="graph">
<g id="viewport">
<title>ICM20948Sensor</title>
<!-- Node1 -->
<g id="Node000001" class="node">
<title>Node1</title>
<g id="a_Node000001"><a xlink:title="Implementation of the Sensor class for the Adafruit ICM20948 (9&#45;axis IMU)">
<polygon fill="#999999" stroke="none" points="429.5,-132 330.5,-132 330.5,0 429.5,0 429.5,-132"/>
<text text-anchor="start" x="342.12" y="-118.5" font-family="Helvetica,sans-Serif" font-size="10.00">ICM20948Sensor</text>
<text text-anchor="start" x="378.5" y="-102.5" font-family="Helvetica,sans-Serif" font-size="10.00"> </text>
<text text-anchor="start" x="334.5" y="-86.5" font-family="Helvetica,sans-Serif" font-size="10.00">+</text>
<text text-anchor="start" x="344.5" y="-86.5" font-family="Helvetica,sans-Serif" font-size="10.00">ICM20948Sensor()</text>
<text text-anchor="start" x="334.5" y="-70.5" font-family="Helvetica,sans-Serif" font-size="10.00">+</text>
<text text-anchor="start" x="344.5" y="-70.5" font-family="Helvetica,sans-Serif" font-size="10.00">ICM20948Sensor()</text>
<text text-anchor="start" x="334.5" y="-54.5" font-family="Helvetica,sans-Serif" font-size="10.00">+</text>
<text text-anchor="start" x="344.5" y="-54.5" font-family="Helvetica,sans-Serif" font-size="10.00">verify()</text>
<text text-anchor="start" x="334.5" y="-38.5" font-family="Helvetica,sans-Serif" font-size="10.00">+</text>
<text text-anchor="start" x="344.5" y="-38.5" font-family="Helvetica,sans-Serif" font-size="10.00">readData()</text>
<text text-anchor="start" x="334.5" y="-22.5" font-family="Helvetica,sans-Serif" font-size="10.00">+</text>
<text text-anchor="start" x="344.5" y="-22.5" font-family="Helvetica,sans-Serif" font-size="10.00">readDataPacket()</text>
<text text-anchor="start" x="334.5" y="-6.5" font-family="Helvetica,sans-Serif" font-size="10.00">+</text>
<text text-anchor="start" x="344.5" y="-6.5" font-family="Helvetica,sans-Serif" font-size="10.00">decodeToCSV()</text>
<polygon fill="#666666" stroke="#666666" points="330.5,-114 330.5,-114 429.5,-114 429.5,-114 330.5,-114"/>
<polygon fill="#666666" stroke="#666666" points="330.5,-98 330.5,-98 429.5,-98 429.5,-98 330.5,-98"/>
<polygon fill="none" stroke="#666666" points="330.5,0 330.5,-132 429.5,-132 429.5,0 330.5,0"/>
</a>
</g>
</g>
<!-- Node2 -->
<g id="Node000002" class="node">
<title>Node2</title>
<g id="a_Node000002"><a xlink:href="classSensor.html" target="_top" xlink:title="Parent class for sensor objects.">
<polygon fill="white" stroke="none" points="315,-508 195,-508 195,-216 315,-216 315,-508"/>
<text text-anchor="start" x="239.62" y="-494.5" font-family="Helvetica,sans-Serif" font-size="10.00">Sensor</text>
<text text-anchor="start" x="253.5" y="-478.5" font-family="Helvetica,sans-Serif" font-size="10.00"> </text>
<text text-anchor="start" x="199" y="-462.5" font-family="Helvetica,sans-Serif" font-size="10.00">+</text>
<text text-anchor="start" x="209" y="-462.5" font-family="Helvetica,sans-Serif" font-size="10.00">Sensor()</text>
<text text-anchor="start" x="199" y="-446.5" font-family="Helvetica,sans-Serif" font-size="10.00">+</text>
<text text-anchor="start" x="209" y="-446.5" font-family="Helvetica,sans-Serif" font-size="10.00">Sensor()</text>
<text text-anchor="start" x="199" y="-430.5" font-family="Helvetica,sans-Serif" font-size="10.00">+</text>
<text text-anchor="start" x="209" y="-430.5" font-family="Helvetica,sans-Serif" font-size="10.00">Sensor()</text>
<text text-anchor="start" x="199" y="-414.5" font-family="Helvetica,sans-Serif" font-size="10.00">+</text>
<text text-anchor="start" x="209" y="-414.5" font-family="Helvetica,sans-Serif" font-size="10.00">Sensor()</text>
<text text-anchor="start" x="199" y="-398.5" font-family="Helvetica,sans-Serif" font-size="10.00">+</text>
<text text-anchor="start" x="209" y="-398.5" font-family="Helvetica,sans-Serif" font-size="10.00">getPeriod()</text>
<text text-anchor="start" x="199" y="-382.5" font-family="Helvetica,sans-Serif" font-size="10.00">+</text>
<text text-anchor="start" x="209" y="-382.5" font-family="Helvetica,sans-Serif" font-size="10.00">setPeriod()</text>
<text text-anchor="start" x="199" y="-366.5" font-family="Helvetica,sans-Serif" font-size="10.00">+</text>
<text text-anchor="start" x="209" y="-366.5" font-family="Helvetica,sans-Serif" font-size="10.00">getLastExecution()</text>
<text text-anchor="start" x="199" y="-350.5" font-family="Helvetica,sans-Serif" font-size="10.00">+</text>
<text text-anchor="start" x="209" y="-350.5" font-family="Helvetica,sans-Serif" font-size="10.00">setLastExecution()</text>
<text text-anchor="start" x="199" y="-334.5" font-family="Helvetica,sans-Serif" font-size="10.00">+</text>
<text text-anchor="start" x="209" y="-334.5" font-family="Helvetica,sans-Serif" font-size="10.00">getSensorCSVHeader()</text>
<text text-anchor="start" x="199" y="-318.5" font-family="Helvetica,sans-Serif" font-size="10.00">+</text>
<text text-anchor="start" x="209" y="-318.5" font-family="Helvetica,sans-Serif" font-size="10.00">verify()</text>
<text text-anchor="start" x="199" y="-302.5" font-family="Helvetica,sans-Serif" font-size="10.00">+</text>
<text text-anchor="start" x="209" y="-302.5" font-family="Helvetica,sans-Serif" font-size="10.00">readData()</text>
<text text-anchor="start" x="199" y="-286.5" font-family="Helvetica,sans-Serif" font-size="10.00">+</text>
<text text-anchor="start" x="209" y="-286.5" font-family="Helvetica,sans-Serif" font-size="10.00">readDataPacket()</text>
<text text-anchor="start" x="199" y="-270.5" font-family="Helvetica,sans-Serif" font-size="10.00">+</text>
<text text-anchor="start" x="209" y="-270.5" font-family="Helvetica,sans-Serif" font-size="10.00">decodeToCSV()</text>
<text text-anchor="start" x="199" y="-254.5" font-family="Helvetica,sans-Serif" font-size="10.00">+</text>
<text text-anchor="start" x="209" y="-254.5" font-family="Helvetica,sans-Serif" font-size="10.00">getDataPacket()</text>
<text text-anchor="start" x="199" y="-238.5" font-family="Helvetica,sans-Serif" font-size="10.00">+</text>
<text text-anchor="start" x="209" y="-238.5" font-family="Helvetica,sans-Serif" font-size="10.00">readEmpty()</text>
<text text-anchor="start" x="199" y="-222.5" font-family="Helvetica,sans-Serif" font-size="10.00">+</text>
<text text-anchor="start" x="209" y="-222.5" font-family="Helvetica,sans-Serif" font-size="10.00">getDataCSV()</text>
<polygon fill="#666666" stroke="#666666" points="195,-490 195,-490 315,-490 315,-490 195,-490"/>
<polygon fill="#666666" stroke="#666666" points="195,-474 195,-474 315,-474 315,-474 195,-474"/>
<polygon fill="none" stroke="#666666" points="195,-216 195,-508 315,-508 315,-216 195,-216"/>
</a>
</g>
</g>
<!-- Node2&#45;&gt;Node1 -->
<g id="edge1_Node000001_Node000002" class="edge">
<title>Node2&#45;&gt;Node1</title>
<g id="a_edge1_Node000001_Node000002"><a xlink:title=" ">
<path fill="none" stroke="#63b8ff" d="M319.39,-209.55C331.01,-182.23 342.53,-155.12 352.37,-131.99"/>
<polygon fill="none" stroke="#63b8ff" points="316.22,-208.06 315.53,-218.63 322.66,-210.8 316.22,-208.06"/>
</a>
</g>
</g>
<!-- Node3 -->
<g id="Node000003" class="node">
<title>Node3</title>
<g id="a_Node000003"><a xlink:href="classDevice.html" target="_top" xlink:title="Implements the recovery system for Sensor and Storage objects.">
<polygon fill="white" stroke="none" points="242,-725 136,-725 136,-545 242,-545 242,-725"/>
<text text-anchor="start" x="173.62" y="-711.5" font-family="Helvetica,sans-Serif" font-size="10.00">Device</text>
<text text-anchor="start" x="187.5" y="-695.5" font-family="Helvetica,sans-Serif" font-size="10.00"> </text>
<text text-anchor="start" x="140" y="-679.5" font-family="Helvetica,sans-Serif" font-size="10.00">+</text>
<text text-anchor="start" x="150" y="-679.5" font-family="Helvetica,sans-Serif" font-size="10.00">Device()</text>
<text text-anchor="start" x="140" y="-663.5" font-family="Helvetica,sans-Serif" font-size="10.00">+</text>
<text text-anchor="start" x="150" y="-663.5" font-family="Helvetica,sans-Serif" font-size="10.00">Device()</text>
<text text-anchor="start" x="140" y="-647.5" font-family="Helvetica,sans-Serif" font-size="10.00">+</text>
<text text-anchor="start" x="150" y="-647.5" font-family="Helvetica,sans-Serif" font-size="10.00">getDeviceName()</text>
<text text-anchor="start" x="140" y="-631.5" font-family="Helvetica,sans-Serif" font-size="10.00">+</text>
<text text-anchor="start" x="150" y="-631.5" font-family="Helvetica,sans-Serif" font-size="10.00">verify()</text>
<text text-anchor="start" x="140" y="-615.5" font-family="Helvetica,sans-Serif" font-size="10.00">+</text>
<text text-anchor="start" x="150" y="-615.5" font-family="Helvetica,sans-Serif" font-size="10.00">getVerified()</text>
<text text-anchor="start" x="140" y="-599.5" font-family="Helvetica,sans-Serif" font-size="10.00">+</text>
<text text-anchor="start" x="150" y="-599.5" font-family="Helvetica,sans-Serif" font-size="10.00">recoveryConfig()</text>
<text text-anchor="start" x="140" y="-583.5" font-family="Helvetica,sans-Serif" font-size="10.00">+</text>
<text text-anchor="start" x="150" y="-583.5" font-family="Helvetica,sans-Serif" font-size="10.00">setWaitFactor()</text>
<text text-anchor="start" x="140" y="-567.5" font-family="Helvetica,sans-Serif" font-size="10.00">+</text>
<text text-anchor="start" x="150" y="-567.5" font-family="Helvetica,sans-Serif" font-size="10.00">setMaxAttempts()</text>
<text text-anchor="start" x="140" y="-551.5" font-family="Helvetica,sans-Serif" font-size="10.00">+</text>
<text text-anchor="start" x="150" y="-551.5" font-family="Helvetica,sans-Serif" font-size="10.00">attemptConnection()</text>
<polygon fill="#666666" stroke="#666666" points="136,-707 136,-707 242,-707 242,-707 136,-707"/>
<polygon fill="#666666" stroke="#666666" points="136,-691 136,-691 242,-691 242,-691 136,-691"/>
<polygon fill="none" stroke="#666666" points="136,-545 136,-725 242,-725 242,-545 136,-545"/>
</a>
</g>
</g>
<!-- Node3&#45;&gt;Node2 -->
<g id="edge2_Node000002_Node000003" class="edge">
<title>Node3&#45;&gt;Node2</title>
<g id="a_edge2_Node000002_Node000003"><a xlink:title=" ">
<path fill="none" stroke="#63b8ff" d="M213.33,-534.12C215.42,-525.53 217.56,-516.75 219.71,-507.91"/>
<polygon fill="none" stroke="#63b8ff" points="209.93,-533.25 210.97,-543.79 216.74,-534.91 209.93,-533.25"/>
</a>
</g>
</g>
<!-- Node4 -->
<g id="Node000004" class="node">
<title>Node4</title>
<g id="a_Node000004"><a xlink:title=" ">
<polygon fill="white" stroke="none" points="70,-837 0,-837 0,-785 70,-785 70,-837"/>
<text text-anchor="start" x="5" y="-823.5" font-family="Helvetica,sans-Serif" font-size="10.00">unsigned long</text>
<text text-anchor="start" x="33.5" y="-807.5" font-family="Helvetica,sans-Serif" font-size="10.00"> </text>
<text text-anchor="start" x="33.5" y="-791.5" font-family="Helvetica,sans-Serif" font-size="10.00"> </text>
<polygon fill="#666666" stroke="#666666" points="0,-819 0,-819 70,-819 70,-819 0,-819"/>
<polygon fill="#666666" stroke="#666666" points="0,-803 0,-803 70,-803 70,-803 0,-803"/>
<polygon fill="none" stroke="#666666" points="0,-785 0,-837 70,-837 70,-785 0,-785"/>
</a>
</g>
</g>
<!-- Node4&#45;&gt;Node2 -->
<g id="edge7_Node000002_Node000004" class="edge">
<title>Node4&#45;&gt;Node2</title>
<g id="a_edge7_Node000002_Node000004"><a xlink:title=" ">
<path fill="none" stroke="#63b8ff" d="M30.74,-785.06C23.61,-736.15 13.64,-625.45 52.75,-545 81.39,-486.08 138.36,-437.58 184.56,-405.51"/>
<polygon fill="none" stroke="#63b8ff" points="184.47,-405.57 187.19,-398.88 194.4,-398.82 191.69,-405.5 184.47,-405.57"/>
</a>
</g>
<text text-anchor="middle" x="89.88" y="-637.5" font-family="Helvetica,sans-Serif" font-size="10.00" fill="grey"> &#45;last_execution</text>
<text text-anchor="middle" x="89.88" y="-625.5" font-family="Helvetica,sans-Serif" font-size="10.00" fill="grey">&#45;minimum_period</text>
</g>
<!-- Node4&#45;&gt;Node3 -->
<g id="edge3_Node000003_Node000004" class="edge">
<title>Node4&#45;&gt;Node3</title>
<g id="a_edge3_Node000003_Node000004"><a xlink:title=" ">
<path fill="none" stroke="#63b8ff" d="M48.57,-785.12C56.19,-772.04 66.3,-756.06 77,-743 84.37,-734 87.58,-733.02 96,-725 106.04,-715.44 116.67,-705.29 127.02,-695.4"/>
<polygon fill="none" stroke="#63b8ff" points="127.09,-695.33 128.67,-688.29 135.77,-687.03 134.2,-694.07 127.09,-695.33"/>
</a>
</g>
<text text-anchor="middle" x="107" y="-757.5" font-family="Helvetica,sans-Serif" font-size="10.00" fill="grey"> &#45;last_attempt</text>
<text text-anchor="middle" x="107" y="-745.5" font-family="Helvetica,sans-Serif" font-size="10.00" fill="grey">&#45;wait_factor</text>
</g>
<!-- Node5 -->
<g id="Node000005" class="node">
<title>Node5</title>
<g id="a_Node000005"><a xlink:title=" ">
<polygon fill="white" stroke="none" points="367,-837 347,-837 347,-785 367,-785 367,-837"/>
<text text-anchor="start" x="351.75" y="-823.5" font-family="Helvetica,sans-Serif" font-size="10.00">int</text>
<text text-anchor="start" x="355.5" y="-807.5" font-family="Helvetica,sans-Serif" font-size="10.00"> </text>
<text text-anchor="start" x="355.5" y="-791.5" font-family="Helvetica,sans-Serif" font-size="10.00"> </text>
<polygon fill="#666666" stroke="#666666" points="347,-819 347,-819 367,-819 367,-819 347,-819"/>
<polygon fill="#666666" stroke="#666666" points="347,-803 347,-803 367,-803 367,-803 347,-803"/>
<polygon fill="none" stroke="#666666" points="347,-785 347,-837 367,-837 367,-785 347,-785"/>
</a>
</g>
</g>
<!-- Node5&#45;&gt;Node2 -->
<g id="edge9_Node000002_Node000005" class="edge">
<title>Node5&#45;&gt;Node2</title>
<g id="a_edge9_Node000002_Node000005"><a xlink:title=" ">
<path fill="none" stroke="#63b8ff" d="M366.83,-797.25C372.48,-789.09 379.03,-778.01 382,-767 384.78,-756.7 383.51,-753.56 382,-743 370.89,-665.54 345.02,-582.78 319.51,-514.33"/>
<polygon fill="none" stroke="#63b8ff" points="319.47,-514.24 313.61,-510.03 315.24,-503.01 321.1,-507.21 319.47,-514.24"/>
</a>
</g>
<text text-anchor="middle" x="406.72" y="-631.5" font-family="Helvetica,sans-Serif" font-size="10.00" fill="grey"> #num_fields</text>
</g>
<!-- Node5&#45;&gt;Node3 -->
<g id="edge4_Node000003_Node000005" class="edge">
<title>Node5&#45;&gt;Node3</title>
<g id="a_edge4_Node000003_Node000005"><a xlink:title=" ">
<path fill="none" stroke="#63b8ff" d="M347.19,-802.92C328.38,-789.12 286.42,-757.11 256,-725 254.05,-722.95 252.11,-720.84 250.18,-718.68"/>
<polygon fill="none" stroke="#63b8ff" points="250.25,-718.76 243.29,-716.85 242.38,-709.7 249.33,-711.61 250.25,-718.76"/>
</a>
</g>
<text text-anchor="middle" x="339.26" y="-757.5" font-family="Helvetica,sans-Serif" font-size="10.00" fill="grey"> &#45;attempt_number</text>
<text text-anchor="middle" x="339.26" y="-745.5" font-family="Helvetica,sans-Serif" font-size="10.00" fill="grey">&#45;max_attempts</text>
</g>
<!-- Node6 -->
<g id="Node000006" class="node">
<title>Node6</title>
<g id="a_Node000006"><a xlink:title=" ">
<polygon fill="white" stroke="none" points="148,-837 120,-837 120,-785 148,-785 148,-837"/>
<text text-anchor="start" x="125" y="-823.5" font-family="Helvetica,sans-Serif" font-size="10.00">bool</text>
<text text-anchor="start" x="132.5" y="-807.5" font-family="Helvetica,sans-Serif" font-size="10.00"> </text>
<text text-anchor="start" x="132.5" y="-791.5" font-family="Helvetica,sans-Serif" font-size="10.00"> </text>
<polygon fill="#666666" stroke="#666666" points="120,-819 120,-819 148,-819 148,-819 120,-819"/>
<polygon fill="#666666" stroke="#666666" points="120,-803 120,-803 148,-803 148,-803 120,-803"/>
<polygon fill="none" stroke="#666666" points="120,-785 120,-837 148,-837 148,-785 120,-785"/>
</a>
</g>
</g>
<!-- Node6&#45;&gt;Node3 -->
<g id="edge5_Node000003_Node000006" class="edge">
<title>Node6&#45;&gt;Node3</title>
<g id="a_edge5_Node000003_Node000006"><a xlink:title=" ">
<path fill="none" stroke="#63b8ff" d="M137.32,-785.23C139.34,-772.47 142.29,-756.75 146.25,-743 146.81,-741.04 147.4,-739.08 148.01,-737.1"/>
<polygon fill="none" stroke="#63b8ff" points="147.99,-737.14 146.03,-730.2 151.68,-725.72 153.64,-732.66 147.99,-737.14"/>
</a>
</g>
<text text-anchor="middle" x="166.12" y="-751.5" font-family="Helvetica,sans-Serif" font-size="10.00" fill="grey"> #verified</text>
</g>
<!-- Node7 -->
<g id="Node000007" class="node">
<title>Node7</title>
<g id="a_Node000007"><a xlink:title=" ">
<polygon fill="white" stroke="none" points="254.5,-837 219.5,-837 219.5,-785 254.5,-785 254.5,-837"/>
<text text-anchor="start" x="224.25" y="-823.5" font-family="Helvetica,sans-Serif" font-size="10.00">String</text>
<text text-anchor="start" x="235.5" y="-807.5" font-family="Helvetica,sans-Serif" font-size="10.00"> </text>
<text text-anchor="start" x="235.5" y="-791.5" font-family="Helvetica,sans-Serif" font-size="10.00"> </text>
<polygon fill="#666666" stroke="#666666" points="219.5,-819 219.5,-819 254.5,-819 254.5,-819 219.5,-819"/>
<polygon fill="#666666" stroke="#666666" points="219.5,-803 219.5,-803 254.5,-803 254.5,-803 219.5,-803"/>
<polygon fill="none" stroke="#666666" points="219.5,-785 219.5,-837 254.5,-837 254.5,-785 219.5,-785"/>
</a>
</g>
</g>
<!-- Node7&#45;&gt;Node2 -->
<g id="edge8_Node000002_Node000007" class="edge">
<title>Node7&#45;&gt;Node2</title>
<g id="a_edge8_Node000002_Node000007"><a xlink:title=" ">
<path fill="none" stroke="#63b8ff" d="M254.41,-787.49C258.34,-781.19 261.95,-774.12 264,-767 266.95,-756.75 264.13,-753.67 264,-743 263.14,-670.01 261.34,-589.14 259.57,-520.84"/>
<polygon fill="none" stroke="#63b8ff" points="259.57,-520.69 255.42,-514.8 259.26,-508.69 263.41,-514.59 259.57,-520.69"/>
</a>
</g>
<text text-anchor="middle" x="291.89" y="-637.5" font-family="Helvetica,sans-Serif" font-size="10.00" fill="grey"> &#45;csv_header</text>
<text text-anchor="middle" x="291.89" y="-625.5" font-family="Helvetica,sans-Serif" font-size="10.00" fill="grey">&#45;empty_csv</text>
</g>
<!-- Node7&#45;&gt;Node3 -->
<g id="edge6_Node000003_Node000007" class="edge">
<title>Node7&#45;&gt;Node3</title>
<g id="a_edge6_Node000003_Node000007"><a xlink:title=" ">
<path fill="none" stroke="#63b8ff" d="M219.69,-795.91C211.6,-788.27 202.74,-778.13 198,-767 194.07,-757.78 191.23,-747.87 189.22,-737.77"/>
<polygon fill="none" stroke="#63b8ff" points="189.19,-737.65 184.27,-732.38 187.23,-725.81 192.16,-731.07 189.19,-737.65"/>
</a>
</g>
<text text-anchor="middle" x="231" y="-751.5" font-family="Helvetica,sans-Serif" font-size="10.00" fill="grey"> #device_name</text>
</g>
<!-- Node8 -->
<g id="Node000008" class="node">
<title>Node8</title>
<g id="a_Node000008"><a xlink:title=" ">
<polygon fill="white" stroke="none" points="427,-388 333,-388 333,-336 427,-336 427,-388"/>
<text text-anchor="start" x="338" y="-374.5" font-family="Helvetica,sans-Serif" font-size="10.00">Adafruit_ICM20948</text>
<text text-anchor="start" x="378.5" y="-358.5" font-family="Helvetica,sans-Serif" font-size="10.00"> </text>
<text text-anchor="start" x="378.5" y="-342.5" font-family="Helvetica,sans-Serif" font-size="10.00"> </text>
<polygon fill="#666666" stroke="#666666" points="333,-370 333,-370 427,-370 427,-370 333,-370"/>
<polygon fill="#666666" stroke="#666666" points="333,-354 333,-354 427,-354 427,-354 333,-354"/>
<polygon fill="none" stroke="#666666" points="333,-336 333,-388 427,-388 427,-336 333,-336"/>
</a>
</g>
</g>
<!-- Node8&#45;&gt;Node1 -->
<g id="edge10_Node000001_Node000008" class="edge">
<title>Node8&#45;&gt;Node1</title>
<g id="a_edge10_Node000001_Node000008"><a xlink:title=" ">
<path fill="none" stroke="#63b8ff" d="M380,-336.19C380,-294.42 380,-208.4 380,-144.79"/>
<polygon fill="none" stroke="#63b8ff" points="380,-144.88 376,-138.88 380,-132.88 384,-138.88 380,-144.88"/>
</a>
</g>
<text text-anchor="middle" x="390.88" y="-170.5" font-family="Helvetica,sans-Serif" font-size="10.00" fill="grey"> &#45;icm</text>
</g>
<!-- Node9 -->
<g id="Node000009" class="node">
<title>Node9</title>
<g id="a_Node000009"><a xlink:title=" ">
<polygon fill="white" stroke="none" points="531,-388 445,-388 445,-336 531,-336 531,-388"/>
<text text-anchor="start" x="449.75" y="-374.5" font-family="Helvetica,sans-Serif" font-size="10.00">Adafruit_Sensor *</text>
<text text-anchor="start" x="486.5" y="-358.5" font-family="Helvetica,sans-Serif" font-size="10.00"> </text>
<text text-anchor="start" x="486.5" y="-342.5" font-family="Helvetica,sans-Serif" font-size="10.00"> </text>
<polygon fill="#666666" stroke="#666666" points="445,-370 445,-370 531,-370 531,-370 445,-370"/>
<polygon fill="#666666" stroke="#666666" points="445,-354 445,-354 531,-354 531,-354 445,-354"/>
<polygon fill="none" stroke="#666666" points="445,-336 445,-388 531,-388 531,-336 445,-336"/>
</a>
</g>
</g>
<!-- Node9&#45;&gt;Node1 -->
<g id="edge11_Node000001_Node000009" class="edge">
<title>Node9&#45;&gt;Node1</title>
<g id="a_edge11_Node000001_Node000009"><a xlink:title=" ">
<path fill="none" stroke="#63b8ff" d="M479.19,-336.07C468.94,-307.15 451.44,-258.05 436,-216 427.4,-192.58 417.9,-167.15 409.21,-144.04"/>
<polygon fill="none" stroke="#63b8ff" points="409.16,-143.9 403.3,-139.7 404.93,-132.67 410.78,-136.88 409.16,-143.9"/>
</a>
</g>
<text text-anchor="middle" x="453.63" y="-188.5" font-family="Helvetica,sans-Serif" font-size="10.00" fill="grey"> &#45;icm_accel</text>
<text text-anchor="middle" x="453.63" y="-176.5" font-family="Helvetica,sans-Serif" font-size="10.00" fill="grey">&#45;icm_gyro</text>
<text text-anchor="middle" x="453.63" y="-164.5" font-family="Helvetica,sans-Serif" font-size="10.00" fill="grey">&#45;icm_mag</text>
<text text-anchor="middle" x="453.63" y="-152.5" font-family="Helvetica,sans-Serif" font-size="10.00" fill="grey">&#45;icm_temp</text>
</g>
</g>
</svg>

<g id="navigator" transform="translate(0 0)" fill="#404254">
  <rect fill="#f2f5e9" fill-opacity="0.5" stroke="#606060" stroke-width=".5" x="0" y="0" width="60" height="60"/>
  <use id="zoomplus" xlink:href="#zoomPlus" x="17" y="9" onmousedown="handleZoom(evt,'in')"/>
  <use id="zoomminus" xlink:href="#zoomMin" x="42" y="9" onmousedown="handleZoom(evt,'out')"/>
  <use id="reset" xlink:href="#resetDef" x="30" y="36" onmousedown="handleReset()"/>
   <use id="arrowup" xlink:href="#arrowUp" x="0" y="0" onmousedown="handlePan(0,-1)"/>
  <use id="arrowright" xlink:href="#arrowRight" x="0" y="0" onmousedown="handlePan(1,0)"/>
  <use id="arrowdown" xlink:href="#arrowDown" x="0" y="0" onmousedown="handlePan(0,1)"/>
  <use id="arrowleft" xlink:href="#arrowLeft" x="0" y="0" onmousedown="handlePan(-1,0)"/>
</g>
<svg viewBox="0 0 15 15" width="100%" height="30px" preserveAspectRatio="xMaxYMin meet">
 <g id="arrow_out" transform="scale(0.3 0.3)">
  <a xlink:href="classICM20948Sensor__coll__graph_org.svg" target="_base">
   <rect id="button" ry="5" rx="5" y="6" x="6" height="38" width="38"
        fill="#f2f5e9" fill-opacity="0.5" stroke="#606060" stroke-width="1.0"/>
   <path id="arrow"
     d="M 11.500037,31.436501 C 11.940474,20.09759 22.043105,11.32322 32.158766,21.979434 L 37.068811,17.246167 C 37.068811,17.246167 37.088388,32 37.088388,32 L 22.160133,31.978069 C 22.160133,31.978069 26.997745,27.140456 26.997745,27.140456 C 18.528582,18.264221 13.291696,25.230495 11.500037,31.436501 z"
     style="fill:#404040;"/>
  </a>
 </g>
</svg>

<style type='text/css'>
<![CDATA[
[data-mouse-over-selected='false'] { opacity: 0.7; }
[data-mouse-over-selected='true']  { opacity: 1.0; }
]]>
</style>
<script type="application/ecmascript"><![CDATA[
document.addEventListener('DOMContentLoaded', (event) => {
  highlightEdges();
  highlightAdjacentNodes();
});
]]></script>
</svg>
