<?xml version="1.0" encoding="UTF-8" standalone="no"?>
<!DOCTYPE svg PUBLIC "-//W3C//DTD SVG 1.1//EN"
 "http://www.w3.org/Graphics/SVG/1.1/DTD/svg11.dtd">
<!-- Generated by graphviz version 12.1.2 (20240928.0832)
 -->
<!-- Title: ENS160Sensor::readDataPacket Pages: 1 -->
<svg width="339pt" height="104pt"
 viewBox="0.00 0.00 339.25 104.00" xmlns="http://www.w3.org/2000/svg" xmlns:xlink="http://www.w3.org/1999/xlink">
<g id="graph0" class="graph" transform="scale(1 1) rotate(0) translate(4 100)">
<title>ENS160Sensor::readDataPacket</title>
<!-- Node1 -->
<g id="Node000001" class="node">
<title>Node1</title>
<g id="a_Node000001"><a xlink:title="Used for creating packets, reads data from the sensor and appends it to the passed uint8_t array poin...">
<polygon fill="#999999" stroke="#666666" points="160,-58 0,-58 0,-38 160,-38 160,-58"/>
<text text-anchor="middle" x="80" y="-44.5" font-family="Helvetica,sans-Serif" font-size="10.00">ENS160Sensor::readDataPacket</text>
</a>
</g>
</g>
<!-- Node2 -->
<g id="Node000002" class="node">
<title>Node2</title>
<g id="a_Node000002"><a xlink:href="classSHTC3Sensor.html#ae7355733a5c84c5812b69a88285610b8" target="_top" xlink:title="Getter for relative humidity.">
<polygon fill="white" stroke="#666666" points="331.25,-96 196,-96 196,-76 331.25,-76 331.25,-96"/>
<text text-anchor="middle" x="263.62" y="-82.5" font-family="Helvetica,sans-Serif" font-size="10.00">SHTC3Sensor::getRelHum</text>
</a>
</g>
</g>
<!-- Node1&#45;&gt;Node2 -->
<g id="edge1_Node000001_Node000002" class="edge">
<title>Node1&#45;&gt;Node2</title>
<g id="a_edge1_Node000001_Node000002"><a xlink:title=" ">
<path fill="none" stroke="#63b8ff" d="M131.11,-58.48C152.95,-63.05 178.74,-68.45 201.68,-73.25"/>
<polygon fill="#63b8ff" stroke="#63b8ff" points="200.69,-76.62 211.2,-75.24 202.13,-69.77 200.69,-76.62"/>
</a>
</g>
</g>
<!-- Node3 -->
<g id="Node000003" class="node">
<title>Node3</title>
<g id="a_Node000003"><a xlink:href="classTMP117Sensor.html#a8fcbf5633c60d32b43ea87d89e781e39" target="_top" xlink:title="Getter for tempC.">
<polygon fill="white" stroke="#666666" points="330.5,-58 196.75,-58 196.75,-38 330.5,-38 330.5,-58"/>
<text text-anchor="middle" x="263.62" y="-44.5" font-family="Helvetica,sans-Serif" font-size="10.00">TMP117Sensor::getTempC</text>
</a>
</g>
</g>
<!-- Node1&#45;&gt;Node3 -->
<g id="edge2_Node000001_Node000003" class="edge">
<title>Node1&#45;&gt;Node3</title>
<g id="a_edge2_Node000001_Node000003"><a xlink:title=" ">
<path fill="none" stroke="#63b8ff" d="M160.4,-48C168.57,-48 176.87,-48 185.03,-48"/>
<polygon fill="#63b8ff" stroke="#63b8ff" points="184.92,-51.5 194.92,-48 184.92,-44.5 184.92,-51.5"/>
</a>
</g>
</g>
<!-- Node4 -->
<g id="Node000004" class="node">
<title>Node4</title>
<g id="a_Node000004"><a xlink:href="classDevice.html#a030b016bedb9a917634091199a946c94" target="_top" xlink:title="Get if the Device is Verified.">
<polygon fill="white" stroke="#666666" points="312.88,-20 214.38,-20 214.38,0 312.88,0 312.88,-20"/>
<text text-anchor="middle" x="263.62" y="-6.5" font-family="Helvetica,sans-Serif" font-size="10.00">Device::getVerified</text>
</a>
</g>
</g>
<!-- Node1&#45;&gt;Node4 -->
<g id="edge3_Node000001_Node000004" class="edge">
<title>Node1&#45;&gt;Node4</title>
<g id="a_edge3_Node000001_Node000004"><a xlink:title=" ">
<path fill="none" stroke="#63b8ff" d="M131.11,-37.52C153.31,-32.87 179.6,-27.37 202.81,-22.51"/>
<polygon fill="#63b8ff" stroke="#63b8ff" points="203.38,-25.97 212.45,-20.5 201.95,-19.12 203.38,-25.97"/>
</a>
</g>
</g>
</g>
</svg>
