<?xml version="1.0" encoding="UTF-8" standalone="no"?>
<!DOCTYPE svg PUBLIC "-//W3C//DTD SVG 1.1//EN"
 "http://www.w3.org/Graphics/SVG/1.1/DTD/svg11.dtd">
<!-- Generated by graphviz version 2.43.0 (0)
 -->
<!-- Title: FlashStorage Pages: 1 -->
<!--zoomable 805 -->

<svg id="main" version="1.1" xmlns="http://www.w3.org/2000/svg" xmlns:xlink="http://www.w3.org/1999/xlink" xml:space="preserve" onload="init(evt)">
<style type="text/css"><![CDATA[
.node, .edge {opacity: 0.7;}
.node.selected, .edge.selected {opacity: 1;}
.edge:hover path { stroke: red; }
.edge:hover polygon { stroke: red; fill: red; }
]]></style>

<defs>
  <circle id="rim" cx="0" cy="0" r="7"/>
  <circle id="rim2" cx="0" cy="0" r="3.5"/>
  <g id="zoomPlus">
    <use xlink:href="#rim" fill="#404040"><set attributeName="fill" to="#808080" begin="zoomplus.mouseover" end="zoomplus.mouseout"/></use>
    <path d="M-4,0h8M0,-4v8" fill="none" stroke="white" stroke-width="1.5" pointer-events="none"/>
  </g>
  <g id="zoomMin">
    <use xlink:href="#rim" fill="#404040"><set attributeName="fill" to="#808080" begin="zoomminus.mouseover" end="zoomminus.mouseout"/></use>
    <path d="M-4,0h8" fill="none" stroke="white" stroke-width="1.5" pointer-events="none"/>
  </g>
  <g id="arrowUp" transform="translate(30 24)">
    <use xlink:href="#rim"/>
    <path pointer-events="none" fill="none" stroke="white" stroke-width="1.5" d="M0,-3.0v7 M-2.5,-0.5L0,-3.0L2.5,-0.5"/>
  </g>
  <g id="arrowRight" transform="rotate(90) translate(36 -43)">
    <use xlink:href="#rim"/>
    <path pointer-events="none" fill="none" stroke="white" stroke-width="1.5" d="M0,-3.0v7 M-2.5,-0.5L0,-3.0L2.5,-0.5"/>
  </g>
  <g id="arrowDown" transform="rotate(180) translate(-30 -48)">
    <use xlink:href="#rim"/>
    <path pointer-events="none" fill="none" stroke="white" stroke-width="1.5" d="M0,-3.0v7 M-2.5,-0.5L0,-3.0L2.5,-0.5"/>
  </g>
  <g id="arrowLeft" transform="rotate(270) translate(-36 17)">
    <use xlink:href="#rim"/>
    <path pointer-events="none" fill="none" stroke="white" stroke-width="1.5" d="M0,-3.0v7 M-2.5,-0.5L0,-3.0L2.5,-0.5"/>
  </g>
  <g id="resetDef">
    <use xlink:href="#rim2" fill="#404040"><set attributeName="fill" to="#808080" begin="reset.mouseover" end="reset.mouseout"/></use>
  </g>
</defs>
<script type="application/ecmascript">
var viewWidth = 817;
var viewHeight = 805;
var sectionId = 'dynsection-1';
</script>
<script type="application/ecmascript" xlink:href="svg.min.js"/>
<svg id="graph" class="graph">
<g id="viewport">
<title>FlashStorage</title>
<!-- Node1 -->
<g id="Node000001" class="node">
<title>Node1</title>
<g id="a_Node000001"><a xlink:title=" ">
<polygon fill="#999999" stroke="transparent" points="572,-289 419,-289 419,0 572,0 572,-289"/>
<text text-anchor="start" x="464" y="-276.5" font-family="Helvetica,sans-Serif" font-size="10.00">FlashStorage</text>
<text text-anchor="start" x="494" y="-261.5" font-family="Helvetica,sans-Serif" font-size="10.00"> </text>
<text text-anchor="start" x="423.5" y="-246.5" font-family="Helvetica,sans-Serif" font-size="10.00">+</text>
<text text-anchor="start" x="436.5" y="-246.5" font-family="Helvetica,sans-Serif" font-size="10.00">FlashStorage()</text>
<text text-anchor="start" x="423.5" y="-231.5" font-family="Helvetica,sans-Serif" font-size="10.00">+</text>
<text text-anchor="start" x="436.5" y="-231.5" font-family="Helvetica,sans-Serif" font-size="10.00">verify()</text>
<text text-anchor="start" x="423.5" y="-216.5" font-family="Helvetica,sans-Serif" font-size="10.00">+</text>
<text text-anchor="start" x="436.5" y="-216.5" font-family="Helvetica,sans-Serif" font-size="10.00">store()</text>
<text text-anchor="start" x="423.5" y="-201.5" font-family="Helvetica,sans-Serif" font-size="10.00">+</text>
<text text-anchor="start" x="436.5" y="-201.5" font-family="Helvetica,sans-Serif" font-size="10.00">storePacket()</text>
<text text-anchor="start" x="423.5" y="-186.5" font-family="Helvetica,sans-Serif" font-size="10.00">+</text>
<text text-anchor="start" x="436.5" y="-186.5" font-family="Helvetica,sans-Serif" font-size="10.00">dump()</text>
<text text-anchor="start" x="423.5" y="-171.5" font-family="Helvetica,sans-Serif" font-size="10.00">+</text>
<text text-anchor="start" x="436.5" y="-171.5" font-family="Helvetica,sans-Serif" font-size="10.00">reinitFlash()</text>
<text text-anchor="start" x="423.5" y="-156.5" font-family="Helvetica,sans-Serif" font-size="10.00">+</text>
<text text-anchor="start" x="436.5" y="-156.5" font-family="Helvetica,sans-Serif" font-size="10.00">erase()</text>
<text text-anchor="start" x="423.5" y="-141.5" font-family="Helvetica,sans-Serif" font-size="10.00">+</text>
<text text-anchor="start" x="436.5" y="-141.5" font-family="Helvetica,sans-Serif" font-size="10.00">downloadFile()</text>
<text text-anchor="start" x="423.5" y="-126.5" font-family="Helvetica,sans-Serif" font-size="10.00">+</text>
<text text-anchor="start" x="436.5" y="-126.5" font-family="Helvetica,sans-Serif" font-size="10.00">getStatus()</text>
<text text-anchor="start" x="423.5" y="-111.5" font-family="Helvetica,sans-Serif" font-size="10.00">+</text>
<text text-anchor="start" x="436.5" y="-111.5" font-family="Helvetica,sans-Serif" font-size="10.00">atomicStore()</text>
<text text-anchor="start" x="423.5" y="-96.5" font-family="Helvetica,sans-Serif" font-size="10.00">+</text>
<text text-anchor="start" x="436.5" y="-96.5" font-family="Helvetica,sans-Serif" font-size="10.00">removeFile()</text>
<text text-anchor="start" x="423.5" y="-81.5" font-family="Helvetica,sans-Serif" font-size="10.00">+</text>
<text text-anchor="start" x="436.5" y="-81.5" font-family="Helvetica,sans-Serif" font-size="10.00">checkFreeSpaceWarnings()</text>
<text text-anchor="start" x="426" y="-66.5" font-family="Helvetica,sans-Serif" font-size="10.00">&#45;</text>
<text text-anchor="start" x="436.5" y="-66.5" font-family="Helvetica,sans-Serif" font-size="10.00">indexFlash()</text>
<text text-anchor="start" x="426" y="-51.5" font-family="Helvetica,sans-Serif" font-size="10.00">&#45;</text>
<text text-anchor="start" x="436.5" y="-51.5" font-family="Helvetica,sans-Serif" font-size="10.00">loadAddress()</text>
<text text-anchor="start" x="426" y="-36.5" font-family="Helvetica,sans-Serif" font-size="10.00">&#45;</text>
<text text-anchor="start" x="436.5" y="-36.5" font-family="Helvetica,sans-Serif" font-size="10.00">isSectorEmpty()</text>
<text text-anchor="start" x="426" y="-21.5" font-family="Helvetica,sans-Serif" font-size="10.00">&#45;</text>
<text text-anchor="start" x="436.5" y="-21.5" font-family="Helvetica,sans-Serif" font-size="10.00">readFileHeader()</text>
<text text-anchor="start" x="426" y="-6.5" font-family="Helvetica,sans-Serif" font-size="10.00">&#45;</text>
<text text-anchor="start" x="436.5" y="-6.5" font-family="Helvetica,sans-Serif" font-size="10.00">writeFileHeader()</text>
<polygon fill="#666666" stroke="#666666" points="419.5,-271.5 419.5,-271.5 572.5,-271.5 572.5,-271.5 419.5,-271.5"/>
<polygon fill="#666666" stroke="#666666" points="419.5,-256.5 419.5,-256.5 572.5,-256.5 572.5,-256.5 419.5,-256.5"/>
<polygon fill="none" stroke="#666666" points="419,0 419,-289 572,-289 572,0 419,0"/>
</a>
</g>
</g>
<!-- Node2 -->
<g id="Node000002" class="node">
<title>Node2</title>
<g id="a_Node000002"><a xlink:href="classStorage.html" target="_top" xlink:title="Parent class for all data storage devices (sd card, radio, etc)">
<polygon fill="white" stroke="transparent" points="329,-474 244,-474 244,-380 329,-380 329,-474"/>
<text text-anchor="start" x="268" y="-462" font-family="Helvetica,sans-Serif" font-size="10.00">Storage</text>
<text text-anchor="start" x="285" y="-447" font-family="Helvetica,sans-Serif" font-size="10.00"> </text>
<text text-anchor="start" x="248.5" y="-432" font-family="Helvetica,sans-Serif" font-size="10.00">+</text>
<text text-anchor="start" x="261.5" y="-432" font-family="Helvetica,sans-Serif" font-size="10.00">Storage()</text>
<text text-anchor="start" x="248.5" y="-417" font-family="Helvetica,sans-Serif" font-size="10.00">+</text>
<text text-anchor="start" x="261.5" y="-417" font-family="Helvetica,sans-Serif" font-size="10.00">verify()</text>
<text text-anchor="start" x="248.5" y="-402" font-family="Helvetica,sans-Serif" font-size="10.00">+</text>
<text text-anchor="start" x="261.5" y="-402" font-family="Helvetica,sans-Serif" font-size="10.00">store()</text>
<text text-anchor="start" x="248.5" y="-387" font-family="Helvetica,sans-Serif" font-size="10.00">+</text>
<text text-anchor="start" x="261.5" y="-387" font-family="Helvetica,sans-Serif" font-size="10.00">storePacket()</text>
<polygon fill="#666666" stroke="#666666" points="244.5,-457 244.5,-457 329.5,-457 329.5,-457 244.5,-457"/>
<polygon fill="#666666" stroke="#666666" points="244.5,-442 244.5,-442 329.5,-442 329.5,-442 244.5,-442"/>
<polygon fill="none" stroke="#666666" points="244,-380 244,-474 329,-474 329,-380 244,-380"/>
</a>
</g>
</g>
<!-- Node2&#45;&gt;Node1 -->
<g id="edge1_Node000001_Node000002" class="edge">
<title>Node2&#45;&gt;Node1</title>
<g id="a_edge1_Node000001_Node000002"><a xlink:title=" ">
<path fill="none" stroke="#63b8ff" d="M321.89,-371.33C335.48,-350.89 351.36,-327.64 366.5,-307 382.95,-284.58 401.26,-260.93 418.8,-238.85"/>
<polygon fill="none" stroke="#63b8ff" points="318.82,-369.63 316.22,-379.9 324.66,-373.5 318.82,-369.63"/>
</a>
</g>
</g>
<!-- Node3 -->
<g id="Node000003" class="node">
<title>Node3</title>
<g id="a_Node000003"><a xlink:href="classDevice.html" target="_top" xlink:title="Implements the recovery system for Sensor and Storage objects.">
<polygon fill="white" stroke="transparent" points="278,-690 155,-690 155,-521 278,-521 278,-690"/>
<text text-anchor="start" x="200" y="-677.5" font-family="Helvetica,sans-Serif" font-size="10.00">Device</text>
<text text-anchor="start" x="215" y="-662.5" font-family="Helvetica,sans-Serif" font-size="10.00"> </text>
<text text-anchor="start" x="159.5" y="-647.5" font-family="Helvetica,sans-Serif" font-size="10.00">+</text>
<text text-anchor="start" x="172.5" y="-647.5" font-family="Helvetica,sans-Serif" font-size="10.00">Device()</text>
<text text-anchor="start" x="159.5" y="-632.5" font-family="Helvetica,sans-Serif" font-size="10.00">+</text>
<text text-anchor="start" x="172.5" y="-632.5" font-family="Helvetica,sans-Serif" font-size="10.00">Device()</text>
<text text-anchor="start" x="159.5" y="-617.5" font-family="Helvetica,sans-Serif" font-size="10.00">+</text>
<text text-anchor="start" x="172.5" y="-617.5" font-family="Helvetica,sans-Serif" font-size="10.00">getDeviceName()</text>
<text text-anchor="start" x="159.5" y="-602.5" font-family="Helvetica,sans-Serif" font-size="10.00">+</text>
<text text-anchor="start" x="172.5" y="-602.5" font-family="Helvetica,sans-Serif" font-size="10.00">verify()</text>
<text text-anchor="start" x="159.5" y="-587.5" font-family="Helvetica,sans-Serif" font-size="10.00">+</text>
<text text-anchor="start" x="172.5" y="-587.5" font-family="Helvetica,sans-Serif" font-size="10.00">getVerified()</text>
<text text-anchor="start" x="159.5" y="-572.5" font-family="Helvetica,sans-Serif" font-size="10.00">+</text>
<text text-anchor="start" x="172.5" y="-572.5" font-family="Helvetica,sans-Serif" font-size="10.00">recoveryConfig()</text>
<text text-anchor="start" x="159.5" y="-557.5" font-family="Helvetica,sans-Serif" font-size="10.00">+</text>
<text text-anchor="start" x="172.5" y="-557.5" font-family="Helvetica,sans-Serif" font-size="10.00">setWaitFactor()</text>
<text text-anchor="start" x="159.5" y="-542.5" font-family="Helvetica,sans-Serif" font-size="10.00">+</text>
<text text-anchor="start" x="172.5" y="-542.5" font-family="Helvetica,sans-Serif" font-size="10.00">setMaxAttempts()</text>
<text text-anchor="start" x="159.5" y="-527.5" font-family="Helvetica,sans-Serif" font-size="10.00">+</text>
<text text-anchor="start" x="172.5" y="-527.5" font-family="Helvetica,sans-Serif" font-size="10.00">attemptConnection()</text>
<polygon fill="#666666" stroke="#666666" points="155.5,-672.5 155.5,-672.5 278.5,-672.5 278.5,-672.5 155.5,-672.5"/>
<polygon fill="#666666" stroke="#666666" points="155.5,-657.5 155.5,-657.5 278.5,-657.5 278.5,-657.5 155.5,-657.5"/>
<polygon fill="none" stroke="#666666" points="155,-521 155,-690 278,-690 278,-521 155,-521"/>
</a>
</g>
</g>
<!-- Node3&#45;&gt;Node2 -->
<g id="edge2_Node000002_Node000003" class="edge">
<title>Node3&#45;&gt;Node2</title>
<g id="a_edge2_Node000002_Node000003"><a xlink:title=" ">
<path fill="none" stroke="#63b8ff" d="M253.39,-511.5C258.5,-498.59 263.57,-485.82 268.14,-474.3"/>
<polygon fill="none" stroke="#63b8ff" points="250.09,-510.32 249.66,-520.9 256.6,-512.9 250.09,-510.32"/>
</a>
</g>
</g>
<!-- Node4 -->
<g id="Node000004" class="node">
<title>Node4</title>
<g id="a_Node000004"><a xlink:title=" ">
<polygon fill="white" stroke="transparent" points="163,-797 84,-797 84,-748 163,-748 163,-797"/>
<text text-anchor="start" x="89.5" y="-784.5" font-family="Helvetica,sans-Serif" font-size="10.00">unsigned long</text>
<text text-anchor="start" x="122" y="-769.5" font-family="Helvetica,sans-Serif" font-size="10.00"> </text>
<text text-anchor="start" x="122" y="-754.5" font-family="Helvetica,sans-Serif" font-size="10.00"> </text>
<polygon fill="#666666" stroke="#666666" points="84.5,-779.5 84.5,-779.5 163.5,-779.5 163.5,-779.5 84.5,-779.5"/>
<polygon fill="#666666" stroke="#666666" points="84.5,-764.5 84.5,-764.5 163.5,-764.5 163.5,-764.5 84.5,-764.5"/>
<polygon fill="none" stroke="#666666" points="84,-748 84,-797 163,-797 163,-748 84,-748"/>
</a>
</g>
</g>
<!-- Node4&#45;&gt;Node3 -->
<g id="edge3_Node000003_Node000004" class="edge">
<title>Node4&#45;&gt;Node3</title>
<g id="a_edge3_Node000003_Node000004"><a xlink:title=" ">
<path fill="none" stroke="#63b8ff" d="M128.54,-747.86C131.66,-735.59 136.26,-720.58 142.5,-708 144.46,-704.06 146.56,-700.1 148.79,-696.17"/>
<polygon fill="none" stroke="#63b8ff" points="148.81,-696.13 148.42,-688.93 154.92,-685.8 155.3,-693 148.81,-696.13"/>
</a>
</g>
<text text-anchor="middle" x="177.5" y="-722" font-family="Helvetica,sans-Serif" font-size="10.00" fill="grey"> &#45;last_attempt</text>
<text text-anchor="middle" x="177.5" y="-711" font-family="Helvetica,sans-Serif" font-size="10.00" fill="grey">&#45;wait_factor</text>
</g>
<!-- Node5 -->
<g id="Node000005" class="node">
<title>Node5</title>
<g id="a_Node000005"><a xlink:title=" ">
<polygon fill="white" stroke="transparent" points="23,-797 0,-797 0,-748 23,-748 23,-797"/>
<text text-anchor="start" x="5.5" y="-784.5" font-family="Helvetica,sans-Serif" font-size="10.00">int</text>
<text text-anchor="start" x="10" y="-769.5" font-family="Helvetica,sans-Serif" font-size="10.00"> </text>
<text text-anchor="start" x="10" y="-754.5" font-family="Helvetica,sans-Serif" font-size="10.00"> </text>
<polygon fill="#666666" stroke="#666666" points="0.5,-779.5 0.5,-779.5 23.5,-779.5 23.5,-779.5 0.5,-779.5"/>
<polygon fill="#666666" stroke="#666666" points="0.5,-764.5 0.5,-764.5 23.5,-764.5 23.5,-764.5 0.5,-764.5"/>
<polygon fill="none" stroke="#666666" points="0,-748 0,-797 23,-797 23,-748 0,-748"/>
</a>
</g>
</g>
<!-- Node5&#45;&gt;Node3 -->
<g id="edge4_Node000003_Node000005" class="edge">
<title>Node5&#45;&gt;Node3</title>
<g id="a_edge4_Node000003_Node000005"><a xlink:title=" ">
<path fill="none" stroke="#63b8ff" d="M18.81,-747.76C23.67,-734.87 31.1,-719.31 41.5,-708 69.7,-677.32 109.36,-653.27 143.79,-636.3"/>
<polygon fill="none" stroke="#63b8ff" points="143.94,-636.23 147.62,-630.03 154.76,-631.04 151.08,-637.24 143.94,-636.23"/>
</a>
</g>
<text text-anchor="middle" x="86" y="-722" font-family="Helvetica,sans-Serif" font-size="10.00" fill="grey"> &#45;attempt_number</text>
<text text-anchor="middle" x="86" y="-711" font-family="Helvetica,sans-Serif" font-size="10.00" fill="grey">&#45;max_attempts</text>
</g>
<!-- Node6 -->
<g id="Node000006" class="node">
<title>Node6</title>
<g id="a_Node000006"><a xlink:title=" ">
<polygon fill="white" stroke="transparent" points="364.5,-797 332.5,-797 332.5,-748 364.5,-748 364.5,-797"/>
<text text-anchor="start" x="337.5" y="-784.5" font-family="Helvetica,sans-Serif" font-size="10.00">bool</text>
<text text-anchor="start" x="346.5" y="-769.5" font-family="Helvetica,sans-Serif" font-size="10.00"> </text>
<text text-anchor="start" x="346.5" y="-754.5" font-family="Helvetica,sans-Serif" font-size="10.00"> </text>
<polygon fill="#666666" stroke="#666666" points="332.5,-779.5 332.5,-779.5 364.5,-779.5 364.5,-779.5 332.5,-779.5"/>
<polygon fill="#666666" stroke="#666666" points="332.5,-764.5 332.5,-764.5 364.5,-764.5 364.5,-764.5 332.5,-764.5"/>
<polygon fill="none" stroke="#666666" points="332.5,-748 332.5,-797 364.5,-797 364.5,-748 332.5,-748"/>
</a>
</g>
</g>
<!-- Node6&#45;&gt;Node1 -->
<g id="edge11_Node000001_Node000006" class="edge">
<title>Node6&#45;&gt;Node1</title>
<g id="a_edge11_Node000001_Node000006"><a xlink:title=" ">
<path fill="none" stroke="#63b8ff" d="M360.28,-747.81C362.7,-742.1 364.97,-735.93 366.5,-730 405.63,-578.69 363.22,-531.78 400.5,-380 406.94,-353.8 415.75,-326.68 425.43,-300.58"/>
<polygon fill="none" stroke="#63b8ff" points="425.54,-300.3 423.92,-293.27 429.78,-289.07 431.4,-296.1 425.54,-300.3"/>
</a>
</g>
<text text-anchor="middle" x="413.5" y="-495" font-family="Helvetica,sans-Serif" font-size="10.00" fill="grey"> &#45;active_file</text>
</g>
<!-- Node6&#45;&gt;Node3 -->
<g id="edge5_Node000003_Node000006" class="edge">
<title>Node6&#45;&gt;Node3</title>
<g id="a_edge5_Node000003_Node000006"><a xlink:title=" ">
<path fill="none" stroke="#63b8ff" d="M332.31,-751.27C320.33,-736.28 303.1,-714.75 285.58,-692.85"/>
<polygon fill="none" stroke="#63b8ff" points="285.56,-692.83 278.69,-690.64 278.07,-683.46 284.94,-685.65 285.56,-692.83"/>
</a>
</g>
<text text-anchor="middle" x="338" y="-716.5" font-family="Helvetica,sans-Serif" font-size="10.00" fill="grey"> #verified</text>
</g>
<!-- Node7 -->
<g id="Node000007" class="node">
<title>Node7</title>
<g id="a_Node000007"><a xlink:title=" ">
<polygon fill="white" stroke="transparent" points="236,-797 197,-797 197,-748 236,-748 236,-797"/>
<text text-anchor="start" x="202.5" y="-784.5" font-family="Helvetica,sans-Serif" font-size="10.00">String</text>
<text text-anchor="start" x="215" y="-769.5" font-family="Helvetica,sans-Serif" font-size="10.00"> </text>
<text text-anchor="start" x="215" y="-754.5" font-family="Helvetica,sans-Serif" font-size="10.00"> </text>
<polygon fill="#666666" stroke="#666666" points="197.5,-779.5 197.5,-779.5 236.5,-779.5 236.5,-779.5 197.5,-779.5"/>
<polygon fill="#666666" stroke="#666666" points="197.5,-764.5 197.5,-764.5 236.5,-764.5 236.5,-764.5 197.5,-764.5"/>
<polygon fill="none" stroke="#666666" points="197,-748 197,-797 236,-797 236,-748 197,-748"/>
</a>
</g>
</g>
<!-- Node7&#45;&gt;Node3 -->
<g id="edge6_Node000003_Node000007" class="edge">
<title>Node7&#45;&gt;Node3</title>
<g id="a_edge6_Node000003_Node000007"><a xlink:title=" ">
<path fill="none" stroke="#63b8ff" d="M216.5,-747.86C216.5,-735.45 216.5,-719.34 216.5,-702.46"/>
<polygon fill="none" stroke="#63b8ff" points="216.5,-702.07 212.5,-696.07 216.5,-690.07 220.5,-696.07 216.5,-702.07"/>
</a>
</g>
<text text-anchor="middle" x="255" y="-716.5" font-family="Helvetica,sans-Serif" font-size="10.00" fill="grey"> #device_name</text>
</g>
<!-- Node8 -->
<g id="Node000008" class="node">
<title>Node8</title>
<g id="a_Node000008"><a xlink:title=" ">
<polygon fill="white" stroke="transparent" points="498,-451.5 409,-451.5 409,-402.5 498,-402.5 498,-451.5"/>
<text text-anchor="start" x="414.5" y="-439" font-family="Helvetica,sans-Serif" font-size="10.00">SPIClassRP2040</text>
<text text-anchor="start" x="452" y="-424" font-family="Helvetica,sans-Serif" font-size="10.00"> </text>
<text text-anchor="start" x="452" y="-409" font-family="Helvetica,sans-Serif" font-size="10.00"> </text>
<polygon fill="#666666" stroke="#666666" points="409.5,-434 409.5,-434 498.5,-434 498.5,-434 409.5,-434"/>
<polygon fill="#666666" stroke="#666666" points="409.5,-419 409.5,-419 498.5,-419 498.5,-419 409.5,-419"/>
<polygon fill="none" stroke="#666666" points="409,-402.5 409,-451.5 498,-451.5 498,-402.5 409,-402.5"/>
</a>
</g>
</g>
<!-- Node8&#45;&gt;Node1 -->
<g id="edge7_Node000001_Node000008" class="edge">
<title>Node8&#45;&gt;Node1</title>
<g id="a_edge7_Node000001_Node000008"><a xlink:title=" ">
<path fill="none" stroke="#63b8ff" d="M452.03,-402.18C450.93,-378.07 450.26,-339.78 454.5,-307 454.75,-305.07 455.01,-303.13 455.29,-301.18"/>
<polygon fill="none" stroke="#63b8ff" points="455.32,-300.98 452.3,-294.44 457.18,-289.13 460.2,-295.67 455.32,-300.98"/>
</a>
</g>
<text text-anchor="middle" x="485" y="-332" font-family="Helvetica,sans-Serif" font-size="10.00" fill="grey"> &#45;flash_spi_1</text>
</g>
<!-- Node9 -->
<g id="Node000009" class="node">
<title>Node9</title>
<g id="a_Node000009"><a xlink:title=" ">
<polygon fill="white" stroke="transparent" points="566.5,-451.5 516.5,-451.5 516.5,-402.5 566.5,-402.5 566.5,-451.5"/>
<text text-anchor="start" x="521.5" y="-439" font-family="Helvetica,sans-Serif" font-size="10.00">uint32_t</text>
<text text-anchor="start" x="539.5" y="-424" font-family="Helvetica,sans-Serif" font-size="10.00"> </text>
<text text-anchor="start" x="539.5" y="-409" font-family="Helvetica,sans-Serif" font-size="10.00"> </text>
<polygon fill="#666666" stroke="#666666" points="516.5,-434 516.5,-434 566.5,-434 566.5,-434 516.5,-434"/>
<polygon fill="#666666" stroke="#666666" points="516.5,-419 516.5,-419 566.5,-419 566.5,-419 516.5,-419"/>
<polygon fill="none" stroke="#666666" points="516.5,-402.5 516.5,-451.5 566.5,-451.5 566.5,-402.5 516.5,-402.5"/>
</a>
</g>
</g>
<!-- Node9&#45;&gt;Node1 -->
<g id="edge8_Node000001_Node000009" class="edge">
<title>Node9&#45;&gt;Node1</title>
<g id="a_edge8_Node000001_Node000009"><a xlink:title=" ">
<path fill="none" stroke="#63b8ff" d="M537.58,-402.08C533.73,-378.62 527.51,-340.69 521.02,-301.11"/>
<polygon fill="none" stroke="#63b8ff" points="520.99,-300.91 516.07,-295.64 519.04,-289.07 523.96,-294.34 520.99,-300.91"/>
</a>
</g>
<text text-anchor="middle" x="572.5" y="-354" font-family="Helvetica,sans-Serif" font-size="10.00" fill="grey"> &#45;FILE_HEADER</text>
<text text-anchor="middle" x="572.5" y="-343" font-family="Helvetica,sans-Serif" font-size="10.00" fill="grey">&#45;MAX_SIZE</text>
<text text-anchor="middle" x="572.5" y="-332" font-family="Helvetica,sans-Serif" font-size="10.00" fill="grey">&#45;SECTOR_SIZE</text>
<text text-anchor="middle" x="572.5" y="-321" font-family="Helvetica,sans-Serif" font-size="10.00" fill="grey">&#45;START_ADDRESS</text>
<text text-anchor="middle" x="572.5" y="-310" font-family="Helvetica,sans-Serif" font-size="10.00" fill="grey">&#45;address</text>
</g>
<!-- Node10 -->
<g id="Node000010" class="node">
<title>Node10</title>
<g id="a_Node000010"><a xlink:title=" ">
<polygon fill="white" stroke="transparent" points="704.5,-451.5 588.5,-451.5 588.5,-402.5 704.5,-402.5 704.5,-451.5"/>
<text text-anchor="start" x="593.5" y="-439" font-family="Helvetica,sans-Serif" font-size="10.00">vector&lt; FileHeader &gt;</text>
<text text-anchor="start" x="644.5" y="-424" font-family="Helvetica,sans-Serif" font-size="10.00"> </text>
<text text-anchor="start" x="644.5" y="-409" font-family="Helvetica,sans-Serif" font-size="10.00"> </text>
<polygon fill="#666666" stroke="#666666" points="588.5,-434 588.5,-434 704.5,-434 704.5,-434 588.5,-434"/>
<polygon fill="#666666" stroke="#666666" points="588.5,-419 588.5,-419 704.5,-419 704.5,-419 588.5,-419"/>
<polygon fill="none" stroke="#666666" points="588.5,-402.5 588.5,-451.5 704.5,-451.5 704.5,-402.5 588.5,-402.5"/>
</a>
</g>
</g>
<!-- Node10&#45;&gt;Node1 -->
<g id="edge9_Node000001_Node000010" class="edge">
<title>Node10&#45;&gt;Node1</title>
<g id="a_edge9_Node000001_Node000010"><a xlink:title=" ">
<path fill="none" stroke="#63b8ff" d="M644.15,-402.21C641.02,-377.47 634.09,-338.07 619.5,-307 608.8,-284.21 594.46,-261.6 579.32,-240.84"/>
<polygon fill="none" stroke="#63b8ff" points="579.25,-240.74 572.46,-238.32 572.09,-231.12 578.88,-233.54 579.25,-240.74"/>
</a>
</g>
<text text-anchor="middle" x="661" y="-332" font-family="Helvetica,sans-Serif" font-size="10.00" fill="grey"> &#45;file_data</text>
</g>
<!-- Node11 -->
<g id="Node000011" class="node">
<title>Node11</title>
<g id="a_Node000011"><a xlink:title=" ">
<polygon fill="white" stroke="transparent" points="808.5,-451.5 722.5,-451.5 722.5,-402.5 808.5,-402.5 808.5,-451.5"/>
<text text-anchor="start" x="727.5" y="-439" font-family="Helvetica,sans-Serif" font-size="10.00">SFE_SPI_FLASH</text>
<text text-anchor="start" x="763.5" y="-424" font-family="Helvetica,sans-Serif" font-size="10.00"> </text>
<text text-anchor="start" x="763.5" y="-409" font-family="Helvetica,sans-Serif" font-size="10.00"> </text>
<polygon fill="#666666" stroke="#666666" points="722.5,-434 722.5,-434 808.5,-434 808.5,-434 722.5,-434"/>
<polygon fill="#666666" stroke="#666666" points="722.5,-419 722.5,-419 808.5,-419 808.5,-419 722.5,-419"/>
<polygon fill="none" stroke="#666666" points="722.5,-402.5 722.5,-451.5 808.5,-451.5 808.5,-402.5 722.5,-402.5"/>
</a>
</g>
</g>
<!-- Node11&#45;&gt;Node1 -->
<g id="edge10_Node000001_Node000011" class="edge">
<title>Node11&#45;&gt;Node1</title>
<g id="a_edge10_Node000001_Node000011"><a xlink:title=" ">
<path fill="none" stroke="#63b8ff" d="M753.16,-402.16C739.51,-377.02 715.92,-336.98 689.5,-307 657.72,-270.94 617.55,-236.13 582.03,-208.12"/>
<polygon fill="none" stroke="#63b8ff" points="581.6,-207.79 574.41,-207.25 572.14,-200.41 579.33,-200.95 581.6,-207.79"/>
</a>
</g>
<text text-anchor="middle" x="743" y="-332" font-family="Helvetica,sans-Serif" font-size="10.00" fill="grey"> &#45;flash</text>
</g>
</g>
</svg>

<g id="navigator" transform="translate(0 0)" fill="#404254">
  <rect fill="#f2f5e9" fill-opacity="0.5" stroke="#606060" stroke-width=".5" x="0" y="0" width="60" height="60"/>
  <use id="zoomplus" xlink:href="#zoomPlus" x="17" y="9" onmousedown="handleZoom(evt,'in')"/>
  <use id="zoomminus" xlink:href="#zoomMin" x="42" y="9" onmousedown="handleZoom(evt,'out')"/>
  <use id="reset" xlink:href="#resetDef" x="30" y="36" onmousedown="handleReset()"/>
   <use id="arrowup" xlink:href="#arrowUp" x="0" y="0" onmousedown="handlePan(0,-1)"/>
  <use id="arrowright" xlink:href="#arrowRight" x="0" y="0" onmousedown="handlePan(1,0)"/>
  <use id="arrowdown" xlink:href="#arrowDown" x="0" y="0" onmousedown="handlePan(0,1)"/>
  <use id="arrowleft" xlink:href="#arrowLeft" x="0" y="0" onmousedown="handlePan(-1,0)"/>
</g>
<svg viewBox="0 0 15 15" width="100%" height="30px" preserveAspectRatio="xMaxYMin meet">
 <g id="arrow_out" transform="scale(0.3 0.3)">
  <a xlink:href="classFlashStorage__coll__graph_org.svg" target="_base">
   <rect id="button" ry="5" rx="5" y="6" x="6" height="38" width="38"
        fill="#f2f5e9" fill-opacity="0.5" stroke="#606060" stroke-width="1.0"/>
   <path id="arrow"
     d="M 11.500037,31.436501 C 11.940474,20.09759 22.043105,11.32322 32.158766,21.979434 L 37.068811,17.246167 C 37.068811,17.246167 37.088388,32 37.088388,32 L 22.160133,31.978069 C 22.160133,31.978069 26.997745,27.140456 26.997745,27.140456 C 18.528582,18.264221 13.291696,25.230495 11.500037,31.436501 z"
     style="fill:#404040;"/>
  </a>
 </g>
</svg>

<style type='text/css'>
<![CDATA[
[data-mouse-over-selected='false'] { opacity: 0.7; }
[data-mouse-over-selected='true']  { opacity: 1.0; }
]]>
</style>
<script type="application/ecmascript"><![CDATA[
document.addEventListener('DOMContentLoaded', (event) => {
  highlightEdges();
  highlightAdjacentNodes();
});
]]></script>
</svg>
