<?xml version="1.0" encoding="UTF-8" standalone="no"?>
<!DOCTYPE svg PUBLIC "-//W3C//DTD SVG 1.1//EN"
 "http://www.w3.org/Graphics/SVG/1.1/DTD/svg11.dtd">
<!-- Generated by graphviz version 12.1.2 (20240928.0832)
 -->
<!-- Title: BME680Sensor Pages: 1 -->
<svg width="442pt" height="809pt"
 viewBox="0.00 0.00 442.47 809.00" xmlns="http://www.w3.org/2000/svg" xmlns:xlink="http://www.w3.org/1999/xlink">
<g id="graph0" class="graph" transform="scale(1 1) rotate(0) translate(4 805)">
<title>BME680Sensor</title>
<!-- Node1 -->
<g id="Node000001" class="node">
<title>Node1</title>
<g id="a_Node000001"><a xlink:title="A class to interface with the Adafruit BME680 sensor for environmental data collection.">
<polygon fill="#999999" stroke="none" points="362,-132 268,-132 268,0 362,0 362,-132"/>
<text text-anchor="start" x="280.88" y="-118.5" font-family="Helvetica,sans-Serif" font-size="10.00">BME680Sensor</text>
<text text-anchor="start" x="313.5" y="-102.5" font-family="Helvetica,sans-Serif" font-size="10.00"> </text>
<text text-anchor="start" x="272" y="-86.5" font-family="Helvetica,sans-Serif" font-size="10.00">+</text>
<text text-anchor="start" x="282" y="-86.5" font-family="Helvetica,sans-Serif" font-size="10.00">BME680Sensor()</text>
<text text-anchor="start" x="272" y="-70.5" font-family="Helvetica,sans-Serif" font-size="10.00">+</text>
<text text-anchor="start" x="282" y="-70.5" font-family="Helvetica,sans-Serif" font-size="10.00">BME680Sensor()</text>
<text text-anchor="start" x="272" y="-54.5" font-family="Helvetica,sans-Serif" font-size="10.00">+</text>
<text text-anchor="start" x="282" y="-54.5" font-family="Helvetica,sans-Serif" font-size="10.00">verify()</text>
<text text-anchor="start" x="272" y="-38.5" font-family="Helvetica,sans-Serif" font-size="10.00">+</text>
<text text-anchor="start" x="282" y="-38.5" font-family="Helvetica,sans-Serif" font-size="10.00">readData()</text>
<text text-anchor="start" x="272" y="-22.5" font-family="Helvetica,sans-Serif" font-size="10.00">+</text>
<text text-anchor="start" x="282" y="-22.5" font-family="Helvetica,sans-Serif" font-size="10.00">readDataPacket()</text>
<text text-anchor="start" x="272" y="-6.5" font-family="Helvetica,sans-Serif" font-size="10.00">+</text>
<text text-anchor="start" x="282" y="-6.5" font-family="Helvetica,sans-Serif" font-size="10.00">decodeToCSV()</text>
<polygon fill="#666666" stroke="#666666" points="268,-114 268,-114 362,-114 362,-114 268,-114"/>
<polygon fill="#666666" stroke="#666666" points="268,-98 268,-98 362,-98 362,-98 268,-98"/>
<polygon fill="none" stroke="#666666" points="268,0 268,-132 362,-132 362,0 268,0"/>
</a>
</g>
</g>
<!-- Node2 -->
<g id="Node000002" class="node">
<title>Node2</title>
<g id="a_Node000002"><a xlink:href="classSensor.html" target="_top" xlink:title="Parent class for sensor objects.">
<polygon fill="white" stroke="none" points="315,-472 195,-472 195,-180 315,-180 315,-472"/>
<text text-anchor="start" x="239.62" y="-458.5" font-family="Helvetica,sans-Serif" font-size="10.00">Sensor</text>
<text text-anchor="start" x="253.5" y="-442.5" font-family="Helvetica,sans-Serif" font-size="10.00"> </text>
<text text-anchor="start" x="199" y="-426.5" font-family="Helvetica,sans-Serif" font-size="10.00">+</text>
<text text-anchor="start" x="209" y="-426.5" font-family="Helvetica,sans-Serif" font-size="10.00">Sensor()</text>
<text text-anchor="start" x="199" y="-410.5" font-family="Helvetica,sans-Serif" font-size="10.00">+</text>
<text text-anchor="start" x="209" y="-410.5" font-family="Helvetica,sans-Serif" font-size="10.00">Sensor()</text>
<text text-anchor="start" x="199" y="-394.5" font-family="Helvetica,sans-Serif" font-size="10.00">+</text>
<text text-anchor="start" x="209" y="-394.5" font-family="Helvetica,sans-Serif" font-size="10.00">Sensor()</text>
<text text-anchor="start" x="199" y="-378.5" font-family="Helvetica,sans-Serif" font-size="10.00">+</text>
<text text-anchor="start" x="209" y="-378.5" font-family="Helvetica,sans-Serif" font-size="10.00">Sensor()</text>
<text text-anchor="start" x="199" y="-362.5" font-family="Helvetica,sans-Serif" font-size="10.00">+</text>
<text text-anchor="start" x="209" y="-362.5" font-family="Helvetica,sans-Serif" font-size="10.00">getPeriod()</text>
<text text-anchor="start" x="199" y="-346.5" font-family="Helvetica,sans-Serif" font-size="10.00">+</text>
<text text-anchor="start" x="209" y="-346.5" font-family="Helvetica,sans-Serif" font-size="10.00">setPeriod()</text>
<text text-anchor="start" x="199" y="-330.5" font-family="Helvetica,sans-Serif" font-size="10.00">+</text>
<text text-anchor="start" x="209" y="-330.5" font-family="Helvetica,sans-Serif" font-size="10.00">getLastExecution()</text>
<text text-anchor="start" x="199" y="-314.5" font-family="Helvetica,sans-Serif" font-size="10.00">+</text>
<text text-anchor="start" x="209" y="-314.5" font-family="Helvetica,sans-Serif" font-size="10.00">setLastExecution()</text>
<text text-anchor="start" x="199" y="-298.5" font-family="Helvetica,sans-Serif" font-size="10.00">+</text>
<text text-anchor="start" x="209" y="-298.5" font-family="Helvetica,sans-Serif" font-size="10.00">getSensorCSVHeader()</text>
<text text-anchor="start" x="199" y="-282.5" font-family="Helvetica,sans-Serif" font-size="10.00">+</text>
<text text-anchor="start" x="209" y="-282.5" font-family="Helvetica,sans-Serif" font-size="10.00">verify()</text>
<text text-anchor="start" x="199" y="-266.5" font-family="Helvetica,sans-Serif" font-size="10.00">+</text>
<text text-anchor="start" x="209" y="-266.5" font-family="Helvetica,sans-Serif" font-size="10.00">readData()</text>
<text text-anchor="start" x="199" y="-250.5" font-family="Helvetica,sans-Serif" font-size="10.00">+</text>
<text text-anchor="start" x="209" y="-250.5" font-family="Helvetica,sans-Serif" font-size="10.00">readDataPacket()</text>
<text text-anchor="start" x="199" y="-234.5" font-family="Helvetica,sans-Serif" font-size="10.00">+</text>
<text text-anchor="start" x="209" y="-234.5" font-family="Helvetica,sans-Serif" font-size="10.00">decodeToCSV()</text>
<text text-anchor="start" x="199" y="-218.5" font-family="Helvetica,sans-Serif" font-size="10.00">+</text>
<text text-anchor="start" x="209" y="-218.5" font-family="Helvetica,sans-Serif" font-size="10.00">getDataPacket()</text>
<text text-anchor="start" x="199" y="-202.5" font-family="Helvetica,sans-Serif" font-size="10.00">+</text>
<text text-anchor="start" x="209" y="-202.5" font-family="Helvetica,sans-Serif" font-size="10.00">readEmpty()</text>
<text text-anchor="start" x="199" y="-186.5" font-family="Helvetica,sans-Serif" font-size="10.00">+</text>
<text text-anchor="start" x="209" y="-186.5" font-family="Helvetica,sans-Serif" font-size="10.00">getDataCSV()</text>
<polygon fill="#666666" stroke="#666666" points="195,-454 195,-454 315,-454 315,-454 195,-454"/>
<polygon fill="#666666" stroke="#666666" points="195,-438 195,-438 315,-438 315,-438 195,-438"/>
<polygon fill="none" stroke="#666666" points="195,-180 195,-472 315,-472 315,-180 195,-180"/>
</a>
</g>
</g>
<!-- Node2&#45;&gt;Node1 -->
<g id="edge1_Node000001_Node000002" class="edge">
<title>Node2&#45;&gt;Node1</title>
<g id="a_edge1_Node000001_Node000002"><a xlink:title=" ">
<path fill="none" stroke="#63b8ff" d="M291.24,-169.15C294.27,-156.13 297.21,-143.49 299.93,-131.79"/>
<polygon fill="none" stroke="#63b8ff" points="287.88,-168.16 289.03,-178.69 294.7,-169.74 287.88,-168.16"/>
</a>
</g>
</g>
<!-- Node3 -->
<g id="Node000003" class="node">
<title>Node3</title>
<g id="a_Node000003"><a xlink:href="classDevice.html" target="_top" xlink:title="Implements the recovery system for Sensor and Storage objects.">
<polygon fill="white" stroke="none" points="242,-689 136,-689 136,-509 242,-509 242,-689"/>
<text text-anchor="start" x="173.62" y="-675.5" font-family="Helvetica,sans-Serif" font-size="10.00">Device</text>
<text text-anchor="start" x="187.5" y="-659.5" font-family="Helvetica,sans-Serif" font-size="10.00"> </text>
<text text-anchor="start" x="140" y="-643.5" font-family="Helvetica,sans-Serif" font-size="10.00">+</text>
<text text-anchor="start" x="150" y="-643.5" font-family="Helvetica,sans-Serif" font-size="10.00">Device()</text>
<text text-anchor="start" x="140" y="-627.5" font-family="Helvetica,sans-Serif" font-size="10.00">+</text>
<text text-anchor="start" x="150" y="-627.5" font-family="Helvetica,sans-Serif" font-size="10.00">Device()</text>
<text text-anchor="start" x="140" y="-611.5" font-family="Helvetica,sans-Serif" font-size="10.00">+</text>
<text text-anchor="start" x="150" y="-611.5" font-family="Helvetica,sans-Serif" font-size="10.00">getDeviceName()</text>
<text text-anchor="start" x="140" y="-595.5" font-family="Helvetica,sans-Serif" font-size="10.00">+</text>
<text text-anchor="start" x="150" y="-595.5" font-family="Helvetica,sans-Serif" font-size="10.00">verify()</text>
<text text-anchor="start" x="140" y="-579.5" font-family="Helvetica,sans-Serif" font-size="10.00">+</text>
<text text-anchor="start" x="150" y="-579.5" font-family="Helvetica,sans-Serif" font-size="10.00">getVerified()</text>
<text text-anchor="start" x="140" y="-563.5" font-family="Helvetica,sans-Serif" font-size="10.00">+</text>
<text text-anchor="start" x="150" y="-563.5" font-family="Helvetica,sans-Serif" font-size="10.00">recoveryConfig()</text>
<text text-anchor="start" x="140" y="-547.5" font-family="Helvetica,sans-Serif" font-size="10.00">+</text>
<text text-anchor="start" x="150" y="-547.5" font-family="Helvetica,sans-Serif" font-size="10.00">setWaitFactor()</text>
<text text-anchor="start" x="140" y="-531.5" font-family="Helvetica,sans-Serif" font-size="10.00">+</text>
<text text-anchor="start" x="150" y="-531.5" font-family="Helvetica,sans-Serif" font-size="10.00">setMaxAttempts()</text>
<text text-anchor="start" x="140" y="-515.5" font-family="Helvetica,sans-Serif" font-size="10.00">+</text>
<text text-anchor="start" x="150" y="-515.5" font-family="Helvetica,sans-Serif" font-size="10.00">attemptConnection()</text>
<polygon fill="#666666" stroke="#666666" points="136,-671 136,-671 242,-671 242,-671 136,-671"/>
<polygon fill="#666666" stroke="#666666" points="136,-655 136,-655 242,-655 242,-655 136,-655"/>
<polygon fill="none" stroke="#666666" points="136,-509 136,-689 242,-689 242,-509 136,-509"/>
</a>
</g>
</g>
<!-- Node3&#45;&gt;Node2 -->
<g id="edge2_Node000002_Node000003" class="edge">
<title>Node3&#45;&gt;Node2</title>
<g id="a_edge2_Node000002_Node000003"><a xlink:title=" ">
<path fill="none" stroke="#63b8ff" d="M213.33,-498.12C215.42,-489.53 217.56,-480.75 219.71,-471.91"/>
<polygon fill="none" stroke="#63b8ff" points="209.93,-497.25 210.97,-507.79 216.74,-498.91 209.93,-497.25"/>
</a>
</g>
</g>
<!-- Node4 -->
<g id="Node000004" class="node">
<title>Node4</title>
<g id="a_Node000004"><a xlink:title=" ">
<polygon fill="white" stroke="none" points="70,-801 0,-801 0,-749 70,-749 70,-801"/>
<text text-anchor="start" x="5" y="-787.5" font-family="Helvetica,sans-Serif" font-size="10.00">unsigned long</text>
<text text-anchor="start" x="33.5" y="-771.5" font-family="Helvetica,sans-Serif" font-size="10.00"> </text>
<text text-anchor="start" x="33.5" y="-755.5" font-family="Helvetica,sans-Serif" font-size="10.00"> </text>
<polygon fill="#666666" stroke="#666666" points="0,-783 0,-783 70,-783 70,-783 0,-783"/>
<polygon fill="#666666" stroke="#666666" points="0,-767 0,-767 70,-767 70,-767 0,-767"/>
<polygon fill="none" stroke="#666666" points="0,-749 0,-801 70,-801 70,-749 0,-749"/>
</a>
</g>
</g>
<!-- Node4&#45;&gt;Node2 -->
<g id="edge7_Node000002_Node000004" class="edge">
<title>Node4&#45;&gt;Node2</title>
<g id="a_edge7_Node000002_Node000004"><a xlink:title=" ">
<path fill="none" stroke="#63b8ff" d="M30.74,-749.06C23.61,-700.15 13.64,-589.45 52.75,-509 81.39,-450.08 138.36,-401.58 184.56,-369.51"/>
<polygon fill="none" stroke="#63b8ff" points="184.47,-369.57 187.19,-362.88 194.4,-362.82 191.69,-369.5 184.47,-369.57"/>
</a>
</g>
<text text-anchor="middle" x="89.88" y="-601.5" font-family="Helvetica,sans-Serif" font-size="10.00" fill="grey"> &#45;last_execution</text>
<text text-anchor="middle" x="89.88" y="-589.5" font-family="Helvetica,sans-Serif" font-size="10.00" fill="grey">&#45;minimum_period</text>
</g>
<!-- Node4&#45;&gt;Node3 -->
<g id="edge3_Node000003_Node000004" class="edge">
<title>Node4&#45;&gt;Node3</title>
<g id="a_edge3_Node000003_Node000004"><a xlink:title=" ">
<path fill="none" stroke="#63b8ff" d="M48.57,-749.12C56.19,-736.04 66.3,-720.06 77,-707 84.37,-698 87.58,-697.02 96,-689 106.04,-679.44 116.67,-669.29 127.02,-659.4"/>
<polygon fill="none" stroke="#63b8ff" points="127.09,-659.33 128.67,-652.29 135.77,-651.03 134.2,-658.07 127.09,-659.33"/>
</a>
</g>
<text text-anchor="middle" x="107" y="-721.5" font-family="Helvetica,sans-Serif" font-size="10.00" fill="grey"> &#45;last_attempt</text>
<text text-anchor="middle" x="107" y="-709.5" font-family="Helvetica,sans-Serif" font-size="10.00" fill="grey">&#45;wait_factor</text>
</g>
<!-- Node5 -->
<g id="Node000005" class="node">
<title>Node5</title>
<g id="a_Node000005"><a xlink:title=" ">
<polygon fill="white" stroke="none" points="367,-801 347,-801 347,-749 367,-749 367,-801"/>
<text text-anchor="start" x="351.75" y="-787.5" font-family="Helvetica,sans-Serif" font-size="10.00">int</text>
<text text-anchor="start" x="355.5" y="-771.5" font-family="Helvetica,sans-Serif" font-size="10.00"> </text>
<text text-anchor="start" x="355.5" y="-755.5" font-family="Helvetica,sans-Serif" font-size="10.00"> </text>
<polygon fill="#666666" stroke="#666666" points="347,-783 347,-783 367,-783 367,-783 347,-783"/>
<polygon fill="#666666" stroke="#666666" points="347,-767 347,-767 367,-767 367,-767 347,-767"/>
<polygon fill="none" stroke="#666666" points="347,-749 347,-801 367,-801 367,-749 347,-749"/>
</a>
</g>
</g>
<!-- Node5&#45;&gt;Node2 -->
<g id="edge9_Node000002_Node000005" class="edge">
<title>Node5&#45;&gt;Node2</title>
<g id="a_edge9_Node000002_Node000005"><a xlink:title=" ">
<path fill="none" stroke="#63b8ff" d="M366.83,-761.25C372.48,-753.09 379.03,-742.01 382,-731 384.78,-720.7 383.51,-717.56 382,-707 370.89,-629.54 345.02,-546.78 319.51,-478.33"/>
<polygon fill="none" stroke="#63b8ff" points="319.47,-478.24 313.61,-474.03 315.24,-467.01 321.1,-471.21 319.47,-478.24"/>
</a>
</g>
<text text-anchor="middle" x="406.72" y="-595.5" font-family="Helvetica,sans-Serif" font-size="10.00" fill="grey"> #num_fields</text>
</g>
<!-- Node5&#45;&gt;Node3 -->
<g id="edge4_Node000003_Node000005" class="edge">
<title>Node5&#45;&gt;Node3</title>
<g id="a_edge4_Node000003_Node000005"><a xlink:title=" ">
<path fill="none" stroke="#63b8ff" d="M347.19,-766.92C328.38,-753.12 286.42,-721.11 256,-689 254.05,-686.95 252.11,-684.84 250.18,-682.68"/>
<polygon fill="none" stroke="#63b8ff" points="250.25,-682.76 243.29,-680.85 242.38,-673.7 249.33,-675.61 250.25,-682.76"/>
</a>
</g>
<text text-anchor="middle" x="339.26" y="-721.5" font-family="Helvetica,sans-Serif" font-size="10.00" fill="grey"> &#45;attempt_number</text>
<text text-anchor="middle" x="339.26" y="-709.5" font-family="Helvetica,sans-Serif" font-size="10.00" fill="grey">&#45;max_attempts</text>
</g>
<!-- Node6 -->
<g id="Node000006" class="node">
<title>Node6</title>
<g id="a_Node000006"><a xlink:title=" ">
<polygon fill="white" stroke="none" points="148,-801 120,-801 120,-749 148,-749 148,-801"/>
<text text-anchor="start" x="125" y="-787.5" font-family="Helvetica,sans-Serif" font-size="10.00">bool</text>
<text text-anchor="start" x="132.5" y="-771.5" font-family="Helvetica,sans-Serif" font-size="10.00"> </text>
<text text-anchor="start" x="132.5" y="-755.5" font-family="Helvetica,sans-Serif" font-size="10.00"> </text>
<polygon fill="#666666" stroke="#666666" points="120,-783 120,-783 148,-783 148,-783 120,-783"/>
<polygon fill="#666666" stroke="#666666" points="120,-767 120,-767 148,-767 148,-767 120,-767"/>
<polygon fill="none" stroke="#666666" points="120,-749 120,-801 148,-801 148,-749 120,-749"/>
</a>
</g>
</g>
<!-- Node6&#45;&gt;Node3 -->
<g id="edge5_Node000003_Node000006" class="edge">
<title>Node6&#45;&gt;Node3</title>
<g id="a_edge5_Node000003_Node000006"><a xlink:title=" ">
<path fill="none" stroke="#63b8ff" d="M137.32,-749.23C139.34,-736.47 142.29,-720.75 146.25,-707 146.81,-705.04 147.4,-703.08 148.01,-701.1"/>
<polygon fill="none" stroke="#63b8ff" points="147.99,-701.14 146.03,-694.2 151.68,-689.72 153.64,-696.66 147.99,-701.14"/>
</a>
</g>
<text text-anchor="middle" x="166.12" y="-715.5" font-family="Helvetica,sans-Serif" font-size="10.00" fill="grey"> #verified</text>
</g>
<!-- Node7 -->
<g id="Node000007" class="node">
<title>Node7</title>
<g id="a_Node000007"><a xlink:title=" ">
<polygon fill="white" stroke="none" points="254.5,-801 219.5,-801 219.5,-749 254.5,-749 254.5,-801"/>
<text text-anchor="start" x="224.25" y="-787.5" font-family="Helvetica,sans-Serif" font-size="10.00">String</text>
<text text-anchor="start" x="235.5" y="-771.5" font-family="Helvetica,sans-Serif" font-size="10.00"> </text>
<text text-anchor="start" x="235.5" y="-755.5" font-family="Helvetica,sans-Serif" font-size="10.00"> </text>
<polygon fill="#666666" stroke="#666666" points="219.5,-783 219.5,-783 254.5,-783 254.5,-783 219.5,-783"/>
<polygon fill="#666666" stroke="#666666" points="219.5,-767 219.5,-767 254.5,-767 254.5,-767 219.5,-767"/>
<polygon fill="none" stroke="#666666" points="219.5,-749 219.5,-801 254.5,-801 254.5,-749 219.5,-749"/>
</a>
</g>
</g>
<!-- Node7&#45;&gt;Node2 -->
<g id="edge8_Node000002_Node000007" class="edge">
<title>Node7&#45;&gt;Node2</title>
<g id="a_edge8_Node000002_Node000007"><a xlink:title=" ">
<path fill="none" stroke="#63b8ff" d="M254.41,-751.49C258.34,-745.19 261.95,-738.12 264,-731 266.95,-720.75 264.13,-717.67 264,-707 263.14,-634.01 261.34,-553.14 259.57,-484.84"/>
<polygon fill="none" stroke="#63b8ff" points="259.57,-484.69 255.42,-478.8 259.26,-472.69 263.41,-478.59 259.57,-484.69"/>
</a>
</g>
<text text-anchor="middle" x="291.89" y="-601.5" font-family="Helvetica,sans-Serif" font-size="10.00" fill="grey"> &#45;csv_header</text>
<text text-anchor="middle" x="291.89" y="-589.5" font-family="Helvetica,sans-Serif" font-size="10.00" fill="grey">&#45;empty_csv</text>
</g>
<!-- Node7&#45;&gt;Node3 -->
<g id="edge6_Node000003_Node000007" class="edge">
<title>Node7&#45;&gt;Node3</title>
<g id="a_edge6_Node000003_Node000007"><a xlink:title=" ">
<path fill="none" stroke="#63b8ff" d="M219.69,-759.91C211.6,-752.27 202.74,-742.13 198,-731 194.07,-721.78 191.23,-711.87 189.22,-701.77"/>
<polygon fill="none" stroke="#63b8ff" points="189.19,-701.65 184.27,-696.38 187.23,-689.81 192.16,-695.07 189.19,-701.65"/>
</a>
</g>
<text text-anchor="middle" x="231" y="-715.5" font-family="Helvetica,sans-Serif" font-size="10.00" fill="grey"> #device_name</text>
</g>
<!-- Node8 -->
<g id="Node000008" class="node">
<title>Node8</title>
<g id="a_Node000008"><a xlink:title=" ">
<polygon fill="white" stroke="none" points="419,-352 333,-352 333,-300 419,-300 419,-352"/>
<text text-anchor="start" x="337.75" y="-338.5" font-family="Helvetica,sans-Serif" font-size="10.00">Adafruit_BME680</text>
<text text-anchor="start" x="374.5" y="-322.5" font-family="Helvetica,sans-Serif" font-size="10.00"> </text>
<text text-anchor="start" x="374.5" y="-306.5" font-family="Helvetica,sans-Serif" font-size="10.00"> </text>
<polygon fill="#666666" stroke="#666666" points="333,-334 333,-334 419,-334 419,-334 333,-334"/>
<polygon fill="#666666" stroke="#666666" points="333,-318 333,-318 419,-318 419,-318 333,-318"/>
<polygon fill="none" stroke="#666666" points="333,-300 333,-352 419,-352 419,-300 333,-300"/>
</a>
</g>
</g>
<!-- Node8&#45;&gt;Node1 -->
<g id="edge10_Node000001_Node000008" class="edge">
<title>Node8&#45;&gt;Node1</title>
<g id="a_edge10_Node000001_Node000008"><a xlink:title=" ">
<path fill="none" stroke="#63b8ff" d="M370.15,-300.26C361.74,-264.71 345.88,-197.59 333.31,-144.45"/>
<polygon fill="none" stroke="#63b8ff" points="333.33,-144.52 328.05,-139.6 330.57,-132.84 335.84,-137.76 333.33,-144.52"/>
</a>
</g>
<text text-anchor="middle" x="348.85" y="-152.5" font-family="Helvetica,sans-Serif" font-size="10.00" fill="grey"> &#45;bme</text>
</g>
</g>
</svg>
