<?xml version="1.0" encoding="UTF-8" standalone="no"?>
<!DOCTYPE svg PUBLIC "-//W3C//DTD SVG 1.1//EN"
 "http://www.w3.org/Graphics/SVG/1.1/DTD/svg11.dtd">
<!-- Generated by graphviz version 12.1.2 (20240928.0832)
 -->
<!-- Title: SHTC3Sensor Pages: 1 -->
<svg width="576pt" height="825pt"
 viewBox="0.00 0.00 575.50 825.00" xmlns="http://www.w3.org/2000/svg" xmlns:xlink="http://www.w3.org/1999/xlink">
<g id="graph0" class="graph" transform="scale(1 1) rotate(0) translate(4 821)">
<title>SHTC3Sensor</title>
<!-- Node1 -->
<g id="Node000001" class="node">
<title>Node1</title>
<g id="a_Node000001"><a xlink:title="Implementation of a Sensor for the SHTC3.">
<polygon fill="#999999" stroke="none" points="452,-148 358,-148 358,0 452,0 452,-148"/>
<text text-anchor="start" x="373.12" y="-134.5" font-family="Helvetica,sans-Serif" font-size="10.00">SHTC3Sensor</text>
<text text-anchor="start" x="403.5" y="-118.5" font-family="Helvetica,sans-Serif" font-size="10.00"> </text>
<text text-anchor="start" x="362" y="-102.5" font-family="Helvetica,sans-Serif" font-size="10.00">+</text>
<text text-anchor="start" x="372" y="-102.5" font-family="Helvetica,sans-Serif" font-size="10.00">SHTC3Sensor()</text>
<text text-anchor="start" x="362" y="-86.5" font-family="Helvetica,sans-Serif" font-size="10.00">+</text>
<text text-anchor="start" x="372" y="-86.5" font-family="Helvetica,sans-Serif" font-size="10.00">SHTC3Sensor()</text>
<text text-anchor="start" x="362" y="-70.5" font-family="Helvetica,sans-Serif" font-size="10.00">+</text>
<text text-anchor="start" x="372" y="-70.5" font-family="Helvetica,sans-Serif" font-size="10.00">verify()</text>
<text text-anchor="start" x="362" y="-54.5" font-family="Helvetica,sans-Serif" font-size="10.00">+</text>
<text text-anchor="start" x="372" y="-54.5" font-family="Helvetica,sans-Serif" font-size="10.00">readData()</text>
<text text-anchor="start" x="362" y="-38.5" font-family="Helvetica,sans-Serif" font-size="10.00">+</text>
<text text-anchor="start" x="372" y="-38.5" font-family="Helvetica,sans-Serif" font-size="10.00">readDataPacket()</text>
<text text-anchor="start" x="362" y="-22.5" font-family="Helvetica,sans-Serif" font-size="10.00">+</text>
<text text-anchor="start" x="372" y="-22.5" font-family="Helvetica,sans-Serif" font-size="10.00">decodeToCSV()</text>
<text text-anchor="start" x="362" y="-6.5" font-family="Helvetica,sans-Serif" font-size="10.00">+</text>
<text text-anchor="start" x="372" y="-6.5" font-family="Helvetica,sans-Serif" font-size="10.00">getRelHum()</text>
<polygon fill="#666666" stroke="#666666" points="358,-130 358,-130 452,-130 452,-130 358,-130"/>
<polygon fill="#666666" stroke="#666666" points="358,-114 358,-114 452,-114 452,-114 358,-114"/>
<polygon fill="none" stroke="#666666" points="358,0 358,-148 452,-148 452,0 358,0"/>
</a>
</g>
</g>
<!-- Node2 -->
<g id="Node000002" class="node">
<title>Node2</title>
<g id="a_Node000002"><a xlink:href="classSensor.html" target="_top" xlink:title="Parent class for sensor objects.">
<polygon fill="white" stroke="none" points="315,-488 195,-488 195,-196 315,-196 315,-488"/>
<text text-anchor="start" x="239.62" y="-474.5" font-family="Helvetica,sans-Serif" font-size="10.00">Sensor</text>
<text text-anchor="start" x="253.5" y="-458.5" font-family="Helvetica,sans-Serif" font-size="10.00"> </text>
<text text-anchor="start" x="199" y="-442.5" font-family="Helvetica,sans-Serif" font-size="10.00">+</text>
<text text-anchor="start" x="209" y="-442.5" font-family="Helvetica,sans-Serif" font-size="10.00">Sensor()</text>
<text text-anchor="start" x="199" y="-426.5" font-family="Helvetica,sans-Serif" font-size="10.00">+</text>
<text text-anchor="start" x="209" y="-426.5" font-family="Helvetica,sans-Serif" font-size="10.00">Sensor()</text>
<text text-anchor="start" x="199" y="-410.5" font-family="Helvetica,sans-Serif" font-size="10.00">+</text>
<text text-anchor="start" x="209" y="-410.5" font-family="Helvetica,sans-Serif" font-size="10.00">Sensor()</text>
<text text-anchor="start" x="199" y="-394.5" font-family="Helvetica,sans-Serif" font-size="10.00">+</text>
<text text-anchor="start" x="209" y="-394.5" font-family="Helvetica,sans-Serif" font-size="10.00">Sensor()</text>
<text text-anchor="start" x="199" y="-378.5" font-family="Helvetica,sans-Serif" font-size="10.00">+</text>
<text text-anchor="start" x="209" y="-378.5" font-family="Helvetica,sans-Serif" font-size="10.00">getPeriod()</text>
<text text-anchor="start" x="199" y="-362.5" font-family="Helvetica,sans-Serif" font-size="10.00">+</text>
<text text-anchor="start" x="209" y="-362.5" font-family="Helvetica,sans-Serif" font-size="10.00">setPeriod()</text>
<text text-anchor="start" x="199" y="-346.5" font-family="Helvetica,sans-Serif" font-size="10.00">+</text>
<text text-anchor="start" x="209" y="-346.5" font-family="Helvetica,sans-Serif" font-size="10.00">getLastExecution()</text>
<text text-anchor="start" x="199" y="-330.5" font-family="Helvetica,sans-Serif" font-size="10.00">+</text>
<text text-anchor="start" x="209" y="-330.5" font-family="Helvetica,sans-Serif" font-size="10.00">setLastExecution()</text>
<text text-anchor="start" x="199" y="-314.5" font-family="Helvetica,sans-Serif" font-size="10.00">+</text>
<text text-anchor="start" x="209" y="-314.5" font-family="Helvetica,sans-Serif" font-size="10.00">getSensorCSVHeader()</text>
<text text-anchor="start" x="199" y="-298.5" font-family="Helvetica,sans-Serif" font-size="10.00">+</text>
<text text-anchor="start" x="209" y="-298.5" font-family="Helvetica,sans-Serif" font-size="10.00">verify()</text>
<text text-anchor="start" x="199" y="-282.5" font-family="Helvetica,sans-Serif" font-size="10.00">+</text>
<text text-anchor="start" x="209" y="-282.5" font-family="Helvetica,sans-Serif" font-size="10.00">readData()</text>
<text text-anchor="start" x="199" y="-266.5" font-family="Helvetica,sans-Serif" font-size="10.00">+</text>
<text text-anchor="start" x="209" y="-266.5" font-family="Helvetica,sans-Serif" font-size="10.00">readDataPacket()</text>
<text text-anchor="start" x="199" y="-250.5" font-family="Helvetica,sans-Serif" font-size="10.00">+</text>
<text text-anchor="start" x="209" y="-250.5" font-family="Helvetica,sans-Serif" font-size="10.00">decodeToCSV()</text>
<text text-anchor="start" x="199" y="-234.5" font-family="Helvetica,sans-Serif" font-size="10.00">+</text>
<text text-anchor="start" x="209" y="-234.5" font-family="Helvetica,sans-Serif" font-size="10.00">getDataPacket()</text>
<text text-anchor="start" x="199" y="-218.5" font-family="Helvetica,sans-Serif" font-size="10.00">+</text>
<text text-anchor="start" x="209" y="-218.5" font-family="Helvetica,sans-Serif" font-size="10.00">readEmpty()</text>
<text text-anchor="start" x="199" y="-202.5" font-family="Helvetica,sans-Serif" font-size="10.00">+</text>
<text text-anchor="start" x="209" y="-202.5" font-family="Helvetica,sans-Serif" font-size="10.00">getDataCSV()</text>
<polygon fill="#666666" stroke="#666666" points="195,-470 195,-470 315,-470 315,-470 195,-470"/>
<polygon fill="#666666" stroke="#666666" points="195,-454 195,-454 315,-454 315,-454 195,-454"/>
<polygon fill="none" stroke="#666666" points="195,-196 195,-488 315,-488 315,-196 195,-196"/>
</a>
</g>
</g>
<!-- Node2&#45;&gt;Node1 -->
<g id="edge1_Node000001_Node000002" class="edge">
<title>Node2&#45;&gt;Node1</title>
<g id="a_edge1_Node000001_Node000002"><a xlink:title=" ">
<path fill="none" stroke="#63b8ff" d="M320.45,-202.31C321.63,-200.19 322.82,-198.08 324,-196 334.31,-177.87 346.39,-158.86 358.02,-141.42"/>
<polygon fill="none" stroke="#63b8ff" points="317.4,-200.61 315.68,-211.06 323.54,-203.96 317.4,-200.61"/>
</a>
</g>
</g>
<!-- Node3 -->
<g id="Node000003" class="node">
<title>Node3</title>
<g id="a_Node000003"><a xlink:href="classDevice.html" target="_top" xlink:title="Implements the recovery system for Sensor and Storage objects.">
<polygon fill="white" stroke="none" points="242,-705 136,-705 136,-525 242,-525 242,-705"/>
<text text-anchor="start" x="173.62" y="-691.5" font-family="Helvetica,sans-Serif" font-size="10.00">Device</text>
<text text-anchor="start" x="187.5" y="-675.5" font-family="Helvetica,sans-Serif" font-size="10.00"> </text>
<text text-anchor="start" x="140" y="-659.5" font-family="Helvetica,sans-Serif" font-size="10.00">+</text>
<text text-anchor="start" x="150" y="-659.5" font-family="Helvetica,sans-Serif" font-size="10.00">Device()</text>
<text text-anchor="start" x="140" y="-643.5" font-family="Helvetica,sans-Serif" font-size="10.00">+</text>
<text text-anchor="start" x="150" y="-643.5" font-family="Helvetica,sans-Serif" font-size="10.00">Device()</text>
<text text-anchor="start" x="140" y="-627.5" font-family="Helvetica,sans-Serif" font-size="10.00">+</text>
<text text-anchor="start" x="150" y="-627.5" font-family="Helvetica,sans-Serif" font-size="10.00">getDeviceName()</text>
<text text-anchor="start" x="140" y="-611.5" font-family="Helvetica,sans-Serif" font-size="10.00">+</text>
<text text-anchor="start" x="150" y="-611.5" font-family="Helvetica,sans-Serif" font-size="10.00">verify()</text>
<text text-anchor="start" x="140" y="-595.5" font-family="Helvetica,sans-Serif" font-size="10.00">+</text>
<text text-anchor="start" x="150" y="-595.5" font-family="Helvetica,sans-Serif" font-size="10.00">getVerified()</text>
<text text-anchor="start" x="140" y="-579.5" font-family="Helvetica,sans-Serif" font-size="10.00">+</text>
<text text-anchor="start" x="150" y="-579.5" font-family="Helvetica,sans-Serif" font-size="10.00">recoveryConfig()</text>
<text text-anchor="start" x="140" y="-563.5" font-family="Helvetica,sans-Serif" font-size="10.00">+</text>
<text text-anchor="start" x="150" y="-563.5" font-family="Helvetica,sans-Serif" font-size="10.00">setWaitFactor()</text>
<text text-anchor="start" x="140" y="-547.5" font-family="Helvetica,sans-Serif" font-size="10.00">+</text>
<text text-anchor="start" x="150" y="-547.5" font-family="Helvetica,sans-Serif" font-size="10.00">setMaxAttempts()</text>
<text text-anchor="start" x="140" y="-531.5" font-family="Helvetica,sans-Serif" font-size="10.00">+</text>
<text text-anchor="start" x="150" y="-531.5" font-family="Helvetica,sans-Serif" font-size="10.00">attemptConnection()</text>
<polygon fill="#666666" stroke="#666666" points="136,-687 136,-687 242,-687 242,-687 136,-687"/>
<polygon fill="#666666" stroke="#666666" points="136,-671 136,-671 242,-671 242,-671 136,-671"/>
<polygon fill="none" stroke="#666666" points="136,-525 136,-705 242,-705 242,-525 136,-525"/>
</a>
</g>
</g>
<!-- Node3&#45;&gt;Node2 -->
<g id="edge2_Node000002_Node000003" class="edge">
<title>Node3&#45;&gt;Node2</title>
<g id="a_edge2_Node000002_Node000003"><a xlink:title=" ">
<path fill="none" stroke="#63b8ff" d="M213.33,-514.12C215.42,-505.53 217.56,-496.75 219.71,-487.91"/>
<polygon fill="none" stroke="#63b8ff" points="209.93,-513.25 210.97,-523.79 216.74,-514.91 209.93,-513.25"/>
</a>
</g>
</g>
<!-- Node4 -->
<g id="Node000004" class="node">
<title>Node4</title>
<g id="a_Node000004"><a xlink:title=" ">
<polygon fill="white" stroke="none" points="70,-817 0,-817 0,-765 70,-765 70,-817"/>
<text text-anchor="start" x="5" y="-803.5" font-family="Helvetica,sans-Serif" font-size="10.00">unsigned long</text>
<text text-anchor="start" x="33.5" y="-787.5" font-family="Helvetica,sans-Serif" font-size="10.00"> </text>
<text text-anchor="start" x="33.5" y="-771.5" font-family="Helvetica,sans-Serif" font-size="10.00"> </text>
<polygon fill="#666666" stroke="#666666" points="0,-799 0,-799 70,-799 70,-799 0,-799"/>
<polygon fill="#666666" stroke="#666666" points="0,-783 0,-783 70,-783 70,-783 0,-783"/>
<polygon fill="none" stroke="#666666" points="0,-765 0,-817 70,-817 70,-765 0,-765"/>
</a>
</g>
</g>
<!-- Node4&#45;&gt;Node2 -->
<g id="edge7_Node000002_Node000004" class="edge">
<title>Node4&#45;&gt;Node2</title>
<g id="a_edge7_Node000002_Node000004"><a xlink:title=" ">
<path fill="none" stroke="#63b8ff" d="M30.74,-765.06C23.61,-716.15 13.64,-605.45 52.75,-525 81.39,-466.08 138.36,-417.58 184.56,-385.51"/>
<polygon fill="none" stroke="#63b8ff" points="184.47,-385.57 187.19,-378.88 194.4,-378.82 191.69,-385.5 184.47,-385.57"/>
</a>
</g>
<text text-anchor="middle" x="89.88" y="-617.5" font-family="Helvetica,sans-Serif" font-size="10.00" fill="grey"> &#45;last_execution</text>
<text text-anchor="middle" x="89.88" y="-605.5" font-family="Helvetica,sans-Serif" font-size="10.00" fill="grey">&#45;minimum_period</text>
</g>
<!-- Node4&#45;&gt;Node3 -->
<g id="edge3_Node000003_Node000004" class="edge">
<title>Node4&#45;&gt;Node3</title>
<g id="a_edge3_Node000003_Node000004"><a xlink:title=" ">
<path fill="none" stroke="#63b8ff" d="M48.57,-765.12C56.19,-752.04 66.3,-736.06 77,-723 84.37,-714 87.58,-713.02 96,-705 106.04,-695.44 116.67,-685.29 127.02,-675.4"/>
<polygon fill="none" stroke="#63b8ff" points="127.09,-675.33 128.67,-668.29 135.77,-667.03 134.2,-674.07 127.09,-675.33"/>
</a>
</g>
<text text-anchor="middle" x="107" y="-737.5" font-family="Helvetica,sans-Serif" font-size="10.00" fill="grey"> &#45;last_attempt</text>
<text text-anchor="middle" x="107" y="-725.5" font-family="Helvetica,sans-Serif" font-size="10.00" fill="grey">&#45;wait_factor</text>
</g>
<!-- Node5 -->
<g id="Node000005" class="node">
<title>Node5</title>
<g id="a_Node000005"><a xlink:title=" ">
<polygon fill="white" stroke="none" points="367,-817 347,-817 347,-765 367,-765 367,-817"/>
<text text-anchor="start" x="351.75" y="-803.5" font-family="Helvetica,sans-Serif" font-size="10.00">int</text>
<text text-anchor="start" x="355.5" y="-787.5" font-family="Helvetica,sans-Serif" font-size="10.00"> </text>
<text text-anchor="start" x="355.5" y="-771.5" font-family="Helvetica,sans-Serif" font-size="10.00"> </text>
<polygon fill="#666666" stroke="#666666" points="347,-799 347,-799 367,-799 367,-799 347,-799"/>
<polygon fill="#666666" stroke="#666666" points="347,-783 347,-783 367,-783 367,-783 347,-783"/>
<polygon fill="none" stroke="#666666" points="347,-765 347,-817 367,-817 367,-765 347,-765"/>
</a>
</g>
</g>
<!-- Node5&#45;&gt;Node2 -->
<g id="edge9_Node000002_Node000005" class="edge">
<title>Node5&#45;&gt;Node2</title>
<g id="a_edge9_Node000002_Node000005"><a xlink:title=" ">
<path fill="none" stroke="#63b8ff" d="M366.83,-777.25C372.48,-769.09 379.03,-758.01 382,-747 384.78,-736.7 383.51,-733.56 382,-723 370.89,-645.54 345.02,-562.78 319.51,-494.33"/>
<polygon fill="none" stroke="#63b8ff" points="319.47,-494.24 313.61,-490.03 315.24,-483.01 321.1,-487.21 319.47,-494.24"/>
</a>
</g>
<text text-anchor="middle" x="406.72" y="-611.5" font-family="Helvetica,sans-Serif" font-size="10.00" fill="grey"> #num_fields</text>
</g>
<!-- Node5&#45;&gt;Node3 -->
<g id="edge4_Node000003_Node000005" class="edge">
<title>Node5&#45;&gt;Node3</title>
<g id="a_edge4_Node000003_Node000005"><a xlink:title=" ">
<path fill="none" stroke="#63b8ff" d="M347.19,-782.92C328.38,-769.12 286.42,-737.11 256,-705 254.05,-702.95 252.11,-700.84 250.18,-698.68"/>
<polygon fill="none" stroke="#63b8ff" points="250.25,-698.76 243.29,-696.85 242.38,-689.7 249.33,-691.61 250.25,-698.76"/>
</a>
</g>
<text text-anchor="middle" x="339.26" y="-737.5" font-family="Helvetica,sans-Serif" font-size="10.00" fill="grey"> &#45;attempt_number</text>
<text text-anchor="middle" x="339.26" y="-725.5" font-family="Helvetica,sans-Serif" font-size="10.00" fill="grey">&#45;max_attempts</text>
</g>
<!-- Node6 -->
<g id="Node000006" class="node">
<title>Node6</title>
<g id="a_Node000006"><a xlink:title=" ">
<polygon fill="white" stroke="none" points="148,-817 120,-817 120,-765 148,-765 148,-817"/>
<text text-anchor="start" x="125" y="-803.5" font-family="Helvetica,sans-Serif" font-size="10.00">bool</text>
<text text-anchor="start" x="132.5" y="-787.5" font-family="Helvetica,sans-Serif" font-size="10.00"> </text>
<text text-anchor="start" x="132.5" y="-771.5" font-family="Helvetica,sans-Serif" font-size="10.00"> </text>
<polygon fill="#666666" stroke="#666666" points="120,-799 120,-799 148,-799 148,-799 120,-799"/>
<polygon fill="#666666" stroke="#666666" points="120,-783 120,-783 148,-783 148,-783 120,-783"/>
<polygon fill="none" stroke="#666666" points="120,-765 120,-817 148,-817 148,-765 120,-765"/>
</a>
</g>
</g>
<!-- Node6&#45;&gt;Node3 -->
<g id="edge5_Node000003_Node000006" class="edge">
<title>Node6&#45;&gt;Node3</title>
<g id="a_edge5_Node000003_Node000006"><a xlink:title=" ">
<path fill="none" stroke="#63b8ff" d="M137.32,-765.23C139.34,-752.47 142.29,-736.75 146.25,-723 146.81,-721.04 147.4,-719.08 148.01,-717.1"/>
<polygon fill="none" stroke="#63b8ff" points="147.99,-717.14 146.03,-710.2 151.68,-705.72 153.64,-712.66 147.99,-717.14"/>
</a>
</g>
<text text-anchor="middle" x="166.12" y="-731.5" font-family="Helvetica,sans-Serif" font-size="10.00" fill="grey"> #verified</text>
</g>
<!-- Node7 -->
<g id="Node000007" class="node">
<title>Node7</title>
<g id="a_Node000007"><a xlink:title=" ">
<polygon fill="white" stroke="none" points="254.5,-817 219.5,-817 219.5,-765 254.5,-765 254.5,-817"/>
<text text-anchor="start" x="224.25" y="-803.5" font-family="Helvetica,sans-Serif" font-size="10.00">String</text>
<text text-anchor="start" x="235.5" y="-787.5" font-family="Helvetica,sans-Serif" font-size="10.00"> </text>
<text text-anchor="start" x="235.5" y="-771.5" font-family="Helvetica,sans-Serif" font-size="10.00"> </text>
<polygon fill="#666666" stroke="#666666" points="219.5,-799 219.5,-799 254.5,-799 254.5,-799 219.5,-799"/>
<polygon fill="#666666" stroke="#666666" points="219.5,-783 219.5,-783 254.5,-783 254.5,-783 219.5,-783"/>
<polygon fill="none" stroke="#666666" points="219.5,-765 219.5,-817 254.5,-817 254.5,-765 219.5,-765"/>
</a>
</g>
</g>
<!-- Node7&#45;&gt;Node2 -->
<g id="edge8_Node000002_Node000007" class="edge">
<title>Node7&#45;&gt;Node2</title>
<g id="a_edge8_Node000002_Node000007"><a xlink:title=" ">
<path fill="none" stroke="#63b8ff" d="M254.41,-767.49C258.34,-761.19 261.95,-754.12 264,-747 266.95,-736.75 264.13,-733.67 264,-723 263.14,-650.01 261.34,-569.14 259.57,-500.84"/>
<polygon fill="none" stroke="#63b8ff" points="259.57,-500.69 255.42,-494.8 259.26,-488.69 263.41,-494.59 259.57,-500.69"/>
</a>
</g>
<text text-anchor="middle" x="291.89" y="-617.5" font-family="Helvetica,sans-Serif" font-size="10.00" fill="grey"> &#45;csv_header</text>
<text text-anchor="middle" x="291.89" y="-605.5" font-family="Helvetica,sans-Serif" font-size="10.00" fill="grey">&#45;empty_csv</text>
</g>
<!-- Node7&#45;&gt;Node3 -->
<g id="edge6_Node000003_Node000007" class="edge">
<title>Node7&#45;&gt;Node3</title>
<g id="a_edge6_Node000003_Node000007"><a xlink:title=" ">
<path fill="none" stroke="#63b8ff" d="M219.69,-775.91C211.6,-768.27 202.74,-758.13 198,-747 194.07,-737.78 191.23,-727.87 189.22,-717.77"/>
<polygon fill="none" stroke="#63b8ff" points="189.19,-717.65 184.27,-712.38 187.23,-705.81 192.16,-711.07 189.19,-717.65"/>
</a>
</g>
<text text-anchor="middle" x="231" y="-731.5" font-family="Helvetica,sans-Serif" font-size="10.00" fill="grey"> #device_name</text>
</g>
<!-- Node8 -->
<g id="Node000008" class="node">
<title>Node8</title>
<g id="a_Node000008"><a xlink:title=" ">
<polygon fill="white" stroke="none" points="415,-368 333,-368 333,-316 415,-316 415,-368"/>
<text text-anchor="start" x="338" y="-354.5" font-family="Helvetica,sans-Serif" font-size="10.00">Adafruit_SHTC3</text>
<text text-anchor="start" x="372.5" y="-338.5" font-family="Helvetica,sans-Serif" font-size="10.00"> </text>
<text text-anchor="start" x="372.5" y="-322.5" font-family="Helvetica,sans-Serif" font-size="10.00"> </text>
<polygon fill="#666666" stroke="#666666" points="333,-350 333,-350 415,-350 415,-350 333,-350"/>
<polygon fill="#666666" stroke="#666666" points="333,-334 333,-334 415,-334 415,-334 333,-334"/>
<polygon fill="none" stroke="#666666" points="333,-316 333,-368 415,-368 415,-316 333,-316"/>
</a>
</g>
</g>
<!-- Node8&#45;&gt;Node1 -->
<g id="edge10_Node000001_Node000008" class="edge">
<title>Node8&#45;&gt;Node1</title>
<g id="a_edge10_Node000001_Node000008"><a xlink:title=" ">
<path fill="none" stroke="#63b8ff" d="M374.36,-316.25C375.13,-282.23 377.53,-219.21 385,-166 385.25,-164.24 385.51,-162.46 385.79,-160.68"/>
<polygon fill="none" stroke="#63b8ff" points="385.81,-160.55 382.86,-153.97 387.81,-148.72 390.75,-155.31 385.81,-160.55"/>
</a>
</g>
<text text-anchor="middle" x="400" y="-168.5" font-family="Helvetica,sans-Serif" font-size="10.00" fill="grey"> &#45;shtc3</text>
</g>
<!-- Node9 -->
<g id="Node000009" class="node">
<title>Node9</title>
<g id="a_Node000009"><a xlink:title=" ">
<polygon fill="white" stroke="none" points="461,-368 433,-368 433,-316 461,-316 461,-368"/>
<text text-anchor="start" x="437.62" y="-354.5" font-family="Helvetica,sans-Serif" font-size="10.00">float</text>
<text text-anchor="start" x="445.5" y="-338.5" font-family="Helvetica,sans-Serif" font-size="10.00"> </text>
<text text-anchor="start" x="445.5" y="-322.5" font-family="Helvetica,sans-Serif" font-size="10.00"> </text>
<polygon fill="#666666" stroke="#666666" points="433,-350 433,-350 461,-350 461,-350 433,-350"/>
<polygon fill="#666666" stroke="#666666" points="433,-334 433,-334 461,-334 461,-334 433,-334"/>
<polygon fill="none" stroke="#666666" points="433,-316 433,-368 461,-368 461,-316 433,-316"/>
</a>
</g>
</g>
<!-- Node9&#45;&gt;Node1 -->
<g id="edge11_Node000001_Node000009" class="edge">
<title>Node9&#45;&gt;Node1</title>
<g id="a_edge11_Node000001_Node000009"><a xlink:title=" ">
<path fill="none" stroke="#63b8ff" d="M443.12,-316.45C437.58,-281.33 427.1,-214.97 418.53,-160.7"/>
<polygon fill="none" stroke="#63b8ff" points="418.52,-160.65 413.64,-155.35 416.65,-148.8 421.54,-154.1 418.52,-160.65"/>
</a>
</g>
<text text-anchor="middle" x="460.75" y="-168.5" font-family="Helvetica,sans-Serif" font-size="10.00" fill="grey"> &#45;relative_humidity</text>
</g>
<!-- Node10 -->
<g id="Node000010" class="node">
<title>Node10</title>
<g id="a_Node000010"><a xlink:title=" ">
<polygon fill="white" stroke="none" points="567.5,-368 512.5,-368 512.5,-316 567.5,-316 567.5,-368"/>
<text text-anchor="start" x="517.5" y="-354.5" font-family="Helvetica,sans-Serif" font-size="10.00">TwoWire *</text>
<text text-anchor="start" x="538.5" y="-338.5" font-family="Helvetica,sans-Serif" font-size="10.00"> </text>
<text text-anchor="start" x="538.5" y="-322.5" font-family="Helvetica,sans-Serif" font-size="10.00"> </text>
<polygon fill="#666666" stroke="#666666" points="512.5,-350 512.5,-350 567.5,-350 567.5,-350 512.5,-350"/>
<polygon fill="#666666" stroke="#666666" points="512.5,-334 512.5,-334 567.5,-334 567.5,-334 512.5,-334"/>
<polygon fill="none" stroke="#666666" points="512.5,-316 512.5,-368 567.5,-368 567.5,-316 512.5,-316"/>
</a>
</g>
</g>
<!-- Node10&#45;&gt;Node1 -->
<g id="edge12_Node000001_Node000010" class="edge">
<title>Node10&#45;&gt;Node1</title>
<g id="a_edge12_Node000001_Node000010"><a xlink:title=" ">
<path fill="none" stroke="#63b8ff" d="M539.82,-316.13C538.54,-280.6 532.31,-214.27 505,-166 494.13,-146.79 477.75,-129.41 461.38,-115.11"/>
<polygon fill="none" stroke="#63b8ff" points="461.66,-115.35 454.49,-114.56 452.47,-107.64 459.64,-108.43 461.66,-115.35"/>
</a>
</g>
<text text-anchor="middle" x="529.36" y="-168.5" font-family="Helvetica,sans-Serif" font-size="10.00" fill="grey"> &#45;i2c_bus</text>
</g>
</g>
</svg>
