<?xml version="1.0" encoding="UTF-8" standalone="no"?>
<!DOCTYPE svg PUBLIC "-//W3C//DTD SVG 1.1//EN"
 "http://www.w3.org/Graphics/SVG/1.1/DTD/svg11.dtd">
<!-- Generated by graphviz version 12.1.2 (20240928.0832)
 -->
<!-- Title: LSM9DS1Sensor Pages: 1 -->
<svg width="502pt" height="865pt"
 viewBox="0.00 0.00 501.76 865.00" xmlns="http://www.w3.org/2000/svg" xmlns:xlink="http://www.w3.org/1999/xlink">
<g id="graph0" class="graph" transform="scale(1 1) rotate(0) translate(4 861)">
<title>LSM9DS1Sensor</title>
<!-- Node1 -->
<g id="Node000001" class="node">
<title>Node1</title>
<g id="a_Node000001"><a xlink:title="Implementation of the Sensor class for the LSM9DS1 (9&#45;axis IMU)">
<polygon fill="#999999" stroke="none" points="429.5,-164 330.5,-164 330.5,0 429.5,0 429.5,-164"/>
<text text-anchor="start" x="342.12" y="-150.5" font-family="Helvetica,sans-Serif" font-size="10.00">LSM9DS1Sensor</text>
<text text-anchor="start" x="378.5" y="-134.5" font-family="Helvetica,sans-Serif" font-size="10.00"> </text>
<text text-anchor="start" x="334.5" y="-118.5" font-family="Helvetica,sans-Serif" font-size="10.00">+</text>
<text text-anchor="start" x="344.5" y="-118.5" font-family="Helvetica,sans-Serif" font-size="10.00">LSM9DS1Sensor()</text>
<text text-anchor="start" x="334.5" y="-102.5" font-family="Helvetica,sans-Serif" font-size="10.00">+</text>
<text text-anchor="start" x="344.5" y="-102.5" font-family="Helvetica,sans-Serif" font-size="10.00">LSM9DS1Sensor()</text>
<text text-anchor="start" x="334.5" y="-86.5" font-family="Helvetica,sans-Serif" font-size="10.00">+</text>
<text text-anchor="start" x="344.5" y="-86.5" font-family="Helvetica,sans-Serif" font-size="10.00">verify()</text>
<text text-anchor="start" x="334.5" y="-70.5" font-family="Helvetica,sans-Serif" font-size="10.00">+</text>
<text text-anchor="start" x="344.5" y="-70.5" font-family="Helvetica,sans-Serif" font-size="10.00">readData()</text>
<text text-anchor="start" x="334.5" y="-54.5" font-family="Helvetica,sans-Serif" font-size="10.00">+</text>
<text text-anchor="start" x="344.5" y="-54.5" font-family="Helvetica,sans-Serif" font-size="10.00">calibrate()</text>
<text text-anchor="start" x="334.5" y="-38.5" font-family="Helvetica,sans-Serif" font-size="10.00">+</text>
<text text-anchor="start" x="344.5" y="-38.5" font-family="Helvetica,sans-Serif" font-size="10.00">readDataPacket()</text>
<text text-anchor="start" x="334.5" y="-22.5" font-family="Helvetica,sans-Serif" font-size="10.00">+</text>
<text text-anchor="start" x="344.5" y="-22.5" font-family="Helvetica,sans-Serif" font-size="10.00">decodeToCSV()</text>
<text text-anchor="start" x="336" y="-6.5" font-family="Helvetica,sans-Serif" font-size="10.00">&#45;</text>
<text text-anchor="start" x="344.5" y="-6.5" font-family="Helvetica,sans-Serif" font-size="10.00">setupSensor()</text>
<polygon fill="#666666" stroke="#666666" points="330.5,-146 330.5,-146 429.5,-146 429.5,-146 330.5,-146"/>
<polygon fill="#666666" stroke="#666666" points="330.5,-130 330.5,-130 429.5,-130 429.5,-130 330.5,-130"/>
<polygon fill="none" stroke="#666666" points="330.5,0 330.5,-164 429.5,-164 429.5,0 330.5,0"/>
</a>
</g>
</g>
<!-- Node2 -->
<g id="Node000002" class="node">
<title>Node2</title>
<g id="a_Node000002"><a xlink:href="classSensor.html" target="_top" xlink:title="Parent class for sensor objects.">
<polygon fill="white" stroke="none" points="315,-528 195,-528 195,-236 315,-236 315,-528"/>
<text text-anchor="start" x="239.62" y="-514.5" font-family="Helvetica,sans-Serif" font-size="10.00">Sensor</text>
<text text-anchor="start" x="253.5" y="-498.5" font-family="Helvetica,sans-Serif" font-size="10.00"> </text>
<text text-anchor="start" x="199" y="-482.5" font-family="Helvetica,sans-Serif" font-size="10.00">+</text>
<text text-anchor="start" x="209" y="-482.5" font-family="Helvetica,sans-Serif" font-size="10.00">Sensor()</text>
<text text-anchor="start" x="199" y="-466.5" font-family="Helvetica,sans-Serif" font-size="10.00">+</text>
<text text-anchor="start" x="209" y="-466.5" font-family="Helvetica,sans-Serif" font-size="10.00">Sensor()</text>
<text text-anchor="start" x="199" y="-450.5" font-family="Helvetica,sans-Serif" font-size="10.00">+</text>
<text text-anchor="start" x="209" y="-450.5" font-family="Helvetica,sans-Serif" font-size="10.00">Sensor()</text>
<text text-anchor="start" x="199" y="-434.5" font-family="Helvetica,sans-Serif" font-size="10.00">+</text>
<text text-anchor="start" x="209" y="-434.5" font-family="Helvetica,sans-Serif" font-size="10.00">Sensor()</text>
<text text-anchor="start" x="199" y="-418.5" font-family="Helvetica,sans-Serif" font-size="10.00">+</text>
<text text-anchor="start" x="209" y="-418.5" font-family="Helvetica,sans-Serif" font-size="10.00">getPeriod()</text>
<text text-anchor="start" x="199" y="-402.5" font-family="Helvetica,sans-Serif" font-size="10.00">+</text>
<text text-anchor="start" x="209" y="-402.5" font-family="Helvetica,sans-Serif" font-size="10.00">setPeriod()</text>
<text text-anchor="start" x="199" y="-386.5" font-family="Helvetica,sans-Serif" font-size="10.00">+</text>
<text text-anchor="start" x="209" y="-386.5" font-family="Helvetica,sans-Serif" font-size="10.00">getLastExecution()</text>
<text text-anchor="start" x="199" y="-370.5" font-family="Helvetica,sans-Serif" font-size="10.00">+</text>
<text text-anchor="start" x="209" y="-370.5" font-family="Helvetica,sans-Serif" font-size="10.00">setLastExecution()</text>
<text text-anchor="start" x="199" y="-354.5" font-family="Helvetica,sans-Serif" font-size="10.00">+</text>
<text text-anchor="start" x="209" y="-354.5" font-family="Helvetica,sans-Serif" font-size="10.00">getSensorCSVHeader()</text>
<text text-anchor="start" x="199" y="-338.5" font-family="Helvetica,sans-Serif" font-size="10.00">+</text>
<text text-anchor="start" x="209" y="-338.5" font-family="Helvetica,sans-Serif" font-size="10.00">verify()</text>
<text text-anchor="start" x="199" y="-322.5" font-family="Helvetica,sans-Serif" font-size="10.00">+</text>
<text text-anchor="start" x="209" y="-322.5" font-family="Helvetica,sans-Serif" font-size="10.00">readData()</text>
<text text-anchor="start" x="199" y="-306.5" font-family="Helvetica,sans-Serif" font-size="10.00">+</text>
<text text-anchor="start" x="209" y="-306.5" font-family="Helvetica,sans-Serif" font-size="10.00">readDataPacket()</text>
<text text-anchor="start" x="199" y="-290.5" font-family="Helvetica,sans-Serif" font-size="10.00">+</text>
<text text-anchor="start" x="209" y="-290.5" font-family="Helvetica,sans-Serif" font-size="10.00">decodeToCSV()</text>
<text text-anchor="start" x="199" y="-274.5" font-family="Helvetica,sans-Serif" font-size="10.00">+</text>
<text text-anchor="start" x="209" y="-274.5" font-family="Helvetica,sans-Serif" font-size="10.00">getDataPacket()</text>
<text text-anchor="start" x="199" y="-258.5" font-family="Helvetica,sans-Serif" font-size="10.00">+</text>
<text text-anchor="start" x="209" y="-258.5" font-family="Helvetica,sans-Serif" font-size="10.00">readEmpty()</text>
<text text-anchor="start" x="199" y="-242.5" font-family="Helvetica,sans-Serif" font-size="10.00">+</text>
<text text-anchor="start" x="209" y="-242.5" font-family="Helvetica,sans-Serif" font-size="10.00">getDataCSV()</text>
<polygon fill="#666666" stroke="#666666" points="195,-510 195,-510 315,-510 315,-510 195,-510"/>
<polygon fill="#666666" stroke="#666666" points="195,-494 195,-494 315,-494 315,-494 195,-494"/>
<polygon fill="none" stroke="#666666" points="195,-236 195,-528 315,-528 315,-236 195,-236"/>
</a>
</g>
</g>
<!-- Node2&#45;&gt;Node1 -->
<g id="edge1_Node000001_Node000002" class="edge">
<title>Node2&#45;&gt;Node1</title>
<g id="a_edge1_Node000001_Node000002"><a xlink:title=" ">
<path fill="none" stroke="#63b8ff" d="M319.33,-227.63C328.59,-205.57 337.79,-183.64 346.12,-163.77"/>
<polygon fill="none" stroke="#63b8ff" points="316.16,-226.14 315.52,-236.71 322.62,-228.85 316.16,-226.14"/>
</a>
</g>
</g>
<!-- Node3 -->
<g id="Node000003" class="node">
<title>Node3</title>
<g id="a_Node000003"><a xlink:href="classDevice.html" target="_top" xlink:title="Implements the recovery system for Sensor and Storage objects.">
<polygon fill="white" stroke="none" points="242,-745 136,-745 136,-565 242,-565 242,-745"/>
<text text-anchor="start" x="173.62" y="-731.5" font-family="Helvetica,sans-Serif" font-size="10.00">Device</text>
<text text-anchor="start" x="187.5" y="-715.5" font-family="Helvetica,sans-Serif" font-size="10.00"> </text>
<text text-anchor="start" x="140" y="-699.5" font-family="Helvetica,sans-Serif" font-size="10.00">+</text>
<text text-anchor="start" x="150" y="-699.5" font-family="Helvetica,sans-Serif" font-size="10.00">Device()</text>
<text text-anchor="start" x="140" y="-683.5" font-family="Helvetica,sans-Serif" font-size="10.00">+</text>
<text text-anchor="start" x="150" y="-683.5" font-family="Helvetica,sans-Serif" font-size="10.00">Device()</text>
<text text-anchor="start" x="140" y="-667.5" font-family="Helvetica,sans-Serif" font-size="10.00">+</text>
<text text-anchor="start" x="150" y="-667.5" font-family="Helvetica,sans-Serif" font-size="10.00">getDeviceName()</text>
<text text-anchor="start" x="140" y="-651.5" font-family="Helvetica,sans-Serif" font-size="10.00">+</text>
<text text-anchor="start" x="150" y="-651.5" font-family="Helvetica,sans-Serif" font-size="10.00">verify()</text>
<text text-anchor="start" x="140" y="-635.5" font-family="Helvetica,sans-Serif" font-size="10.00">+</text>
<text text-anchor="start" x="150" y="-635.5" font-family="Helvetica,sans-Serif" font-size="10.00">getVerified()</text>
<text text-anchor="start" x="140" y="-619.5" font-family="Helvetica,sans-Serif" font-size="10.00">+</text>
<text text-anchor="start" x="150" y="-619.5" font-family="Helvetica,sans-Serif" font-size="10.00">recoveryConfig()</text>
<text text-anchor="start" x="140" y="-603.5" font-family="Helvetica,sans-Serif" font-size="10.00">+</text>
<text text-anchor="start" x="150" y="-603.5" font-family="Helvetica,sans-Serif" font-size="10.00">setWaitFactor()</text>
<text text-anchor="start" x="140" y="-587.5" font-family="Helvetica,sans-Serif" font-size="10.00">+</text>
<text text-anchor="start" x="150" y="-587.5" font-family="Helvetica,sans-Serif" font-size="10.00">setMaxAttempts()</text>
<text text-anchor="start" x="140" y="-571.5" font-family="Helvetica,sans-Serif" font-size="10.00">+</text>
<text text-anchor="start" x="150" y="-571.5" font-family="Helvetica,sans-Serif" font-size="10.00">attemptConnection()</text>
<polygon fill="#666666" stroke="#666666" points="136,-727 136,-727 242,-727 242,-727 136,-727"/>
<polygon fill="#666666" stroke="#666666" points="136,-711 136,-711 242,-711 242,-711 136,-711"/>
<polygon fill="none" stroke="#666666" points="136,-565 136,-745 242,-745 242,-565 136,-565"/>
</a>
</g>
</g>
<!-- Node3&#45;&gt;Node2 -->
<g id="edge2_Node000002_Node000003" class="edge">
<title>Node3&#45;&gt;Node2</title>
<g id="a_edge2_Node000002_Node000003"><a xlink:title=" ">
<path fill="none" stroke="#63b8ff" d="M213.33,-554.12C215.42,-545.53 217.56,-536.75 219.71,-527.91"/>
<polygon fill="none" stroke="#63b8ff" points="209.93,-553.25 210.97,-563.79 216.74,-554.91 209.93,-553.25"/>
</a>
</g>
</g>
<!-- Node4 -->
<g id="Node000004" class="node">
<title>Node4</title>
<g id="a_Node000004"><a xlink:title=" ">
<polygon fill="white" stroke="none" points="70,-857 0,-857 0,-805 70,-805 70,-857"/>
<text text-anchor="start" x="5" y="-843.5" font-family="Helvetica,sans-Serif" font-size="10.00">unsigned long</text>
<text text-anchor="start" x="33.5" y="-827.5" font-family="Helvetica,sans-Serif" font-size="10.00"> </text>
<text text-anchor="start" x="33.5" y="-811.5" font-family="Helvetica,sans-Serif" font-size="10.00"> </text>
<polygon fill="#666666" stroke="#666666" points="0,-839 0,-839 70,-839 70,-839 0,-839"/>
<polygon fill="#666666" stroke="#666666" points="0,-823 0,-823 70,-823 70,-823 0,-823"/>
<polygon fill="none" stroke="#666666" points="0,-805 0,-857 70,-857 70,-805 0,-805"/>
</a>
</g>
</g>
<!-- Node4&#45;&gt;Node2 -->
<g id="edge7_Node000002_Node000004" class="edge">
<title>Node4&#45;&gt;Node2</title>
<g id="a_edge7_Node000002_Node000004"><a xlink:title=" ">
<path fill="none" stroke="#63b8ff" d="M30.74,-805.06C23.61,-756.15 13.64,-645.45 52.75,-565 81.39,-506.08 138.36,-457.58 184.56,-425.51"/>
<polygon fill="none" stroke="#63b8ff" points="184.47,-425.57 187.19,-418.88 194.4,-418.82 191.69,-425.5 184.47,-425.57"/>
</a>
</g>
<text text-anchor="middle" x="89.88" y="-657.5" font-family="Helvetica,sans-Serif" font-size="10.00" fill="grey"> &#45;last_execution</text>
<text text-anchor="middle" x="89.88" y="-645.5" font-family="Helvetica,sans-Serif" font-size="10.00" fill="grey">&#45;minimum_period</text>
</g>
<!-- Node4&#45;&gt;Node3 -->
<g id="edge3_Node000003_Node000004" class="edge">
<title>Node4&#45;&gt;Node3</title>
<g id="a_edge3_Node000003_Node000004"><a xlink:title=" ">
<path fill="none" stroke="#63b8ff" d="M48.57,-805.12C56.19,-792.04 66.3,-776.06 77,-763 84.37,-754 87.58,-753.02 96,-745 106.04,-735.44 116.67,-725.29 127.02,-715.4"/>
<polygon fill="none" stroke="#63b8ff" points="127.09,-715.33 128.67,-708.29 135.77,-707.03 134.2,-714.07 127.09,-715.33"/>
</a>
</g>
<text text-anchor="middle" x="107" y="-777.5" font-family="Helvetica,sans-Serif" font-size="10.00" fill="grey"> &#45;last_attempt</text>
<text text-anchor="middle" x="107" y="-765.5" font-family="Helvetica,sans-Serif" font-size="10.00" fill="grey">&#45;wait_factor</text>
</g>
<!-- Node5 -->
<g id="Node000005" class="node">
<title>Node5</title>
<g id="a_Node000005"><a xlink:title=" ">
<polygon fill="white" stroke="none" points="367,-857 347,-857 347,-805 367,-805 367,-857"/>
<text text-anchor="start" x="351.75" y="-843.5" font-family="Helvetica,sans-Serif" font-size="10.00">int</text>
<text text-anchor="start" x="355.5" y="-827.5" font-family="Helvetica,sans-Serif" font-size="10.00"> </text>
<text text-anchor="start" x="355.5" y="-811.5" font-family="Helvetica,sans-Serif" font-size="10.00"> </text>
<polygon fill="#666666" stroke="#666666" points="347,-839 347,-839 367,-839 367,-839 347,-839"/>
<polygon fill="#666666" stroke="#666666" points="347,-823 347,-823 367,-823 367,-823 347,-823"/>
<polygon fill="none" stroke="#666666" points="347,-805 347,-857 367,-857 367,-805 347,-805"/>
</a>
</g>
</g>
<!-- Node5&#45;&gt;Node2 -->
<g id="edge9_Node000002_Node000005" class="edge">
<title>Node5&#45;&gt;Node2</title>
<g id="a_edge9_Node000002_Node000005"><a xlink:title=" ">
<path fill="none" stroke="#63b8ff" d="M366.83,-817.25C372.48,-809.09 379.03,-798.01 382,-787 384.78,-776.7 383.51,-773.56 382,-763 370.89,-685.54 345.02,-602.78 319.51,-534.33"/>
<polygon fill="none" stroke="#63b8ff" points="319.47,-534.24 313.61,-530.03 315.24,-523.01 321.1,-527.21 319.47,-534.24"/>
</a>
</g>
<text text-anchor="middle" x="406.72" y="-651.5" font-family="Helvetica,sans-Serif" font-size="10.00" fill="grey"> #num_fields</text>
</g>
<!-- Node5&#45;&gt;Node3 -->
<g id="edge4_Node000003_Node000005" class="edge">
<title>Node5&#45;&gt;Node3</title>
<g id="a_edge4_Node000003_Node000005"><a xlink:title=" ">
<path fill="none" stroke="#63b8ff" d="M347.19,-822.92C328.38,-809.12 286.42,-777.11 256,-745 254.05,-742.95 252.11,-740.84 250.18,-738.68"/>
<polygon fill="none" stroke="#63b8ff" points="250.25,-738.76 243.29,-736.85 242.38,-729.7 249.33,-731.61 250.25,-738.76"/>
</a>
</g>
<text text-anchor="middle" x="339.26" y="-777.5" font-family="Helvetica,sans-Serif" font-size="10.00" fill="grey"> &#45;attempt_number</text>
<text text-anchor="middle" x="339.26" y="-765.5" font-family="Helvetica,sans-Serif" font-size="10.00" fill="grey">&#45;max_attempts</text>
</g>
<!-- Node6 -->
<g id="Node000006" class="node">
<title>Node6</title>
<g id="a_Node000006"><a xlink:title=" ">
<polygon fill="white" stroke="none" points="148,-857 120,-857 120,-805 148,-805 148,-857"/>
<text text-anchor="start" x="125" y="-843.5" font-family="Helvetica,sans-Serif" font-size="10.00">bool</text>
<text text-anchor="start" x="132.5" y="-827.5" font-family="Helvetica,sans-Serif" font-size="10.00"> </text>
<text text-anchor="start" x="132.5" y="-811.5" font-family="Helvetica,sans-Serif" font-size="10.00"> </text>
<polygon fill="#666666" stroke="#666666" points="120,-839 120,-839 148,-839 148,-839 120,-839"/>
<polygon fill="#666666" stroke="#666666" points="120,-823 120,-823 148,-823 148,-823 120,-823"/>
<polygon fill="none" stroke="#666666" points="120,-805 120,-857 148,-857 148,-805 120,-805"/>
</a>
</g>
</g>
<!-- Node6&#45;&gt;Node3 -->
<g id="edge5_Node000003_Node000006" class="edge">
<title>Node6&#45;&gt;Node3</title>
<g id="a_edge5_Node000003_Node000006"><a xlink:title=" ">
<path fill="none" stroke="#63b8ff" d="M137.32,-805.23C139.34,-792.47 142.29,-776.75 146.25,-763 146.81,-761.04 147.4,-759.08 148.01,-757.1"/>
<polygon fill="none" stroke="#63b8ff" points="147.99,-757.14 146.03,-750.2 151.68,-745.72 153.64,-752.66 147.99,-757.14"/>
</a>
</g>
<text text-anchor="middle" x="166.12" y="-771.5" font-family="Helvetica,sans-Serif" font-size="10.00" fill="grey"> #verified</text>
</g>
<!-- Node7 -->
<g id="Node000007" class="node">
<title>Node7</title>
<g id="a_Node000007"><a xlink:title=" ">
<polygon fill="white" stroke="none" points="254.5,-857 219.5,-857 219.5,-805 254.5,-805 254.5,-857"/>
<text text-anchor="start" x="224.25" y="-843.5" font-family="Helvetica,sans-Serif" font-size="10.00">String</text>
<text text-anchor="start" x="235.5" y="-827.5" font-family="Helvetica,sans-Serif" font-size="10.00"> </text>
<text text-anchor="start" x="235.5" y="-811.5" font-family="Helvetica,sans-Serif" font-size="10.00"> </text>
<polygon fill="#666666" stroke="#666666" points="219.5,-839 219.5,-839 254.5,-839 254.5,-839 219.5,-839"/>
<polygon fill="#666666" stroke="#666666" points="219.5,-823 219.5,-823 254.5,-823 254.5,-823 219.5,-823"/>
<polygon fill="none" stroke="#666666" points="219.5,-805 219.5,-857 254.5,-857 254.5,-805 219.5,-805"/>
</a>
</g>
</g>
<!-- Node7&#45;&gt;Node2 -->
<g id="edge8_Node000002_Node000007" class="edge">
<title>Node7&#45;&gt;Node2</title>
<g id="a_edge8_Node000002_Node000007"><a xlink:title=" ">
<path fill="none" stroke="#63b8ff" d="M254.41,-807.49C258.34,-801.19 261.95,-794.12 264,-787 266.95,-776.75 264.13,-773.67 264,-763 263.14,-690.01 261.34,-609.14 259.57,-540.84"/>
<polygon fill="none" stroke="#63b8ff" points="259.57,-540.69 255.42,-534.8 259.26,-528.69 263.41,-534.59 259.57,-540.69"/>
</a>
</g>
<text text-anchor="middle" x="291.89" y="-657.5" font-family="Helvetica,sans-Serif" font-size="10.00" fill="grey"> &#45;csv_header</text>
<text text-anchor="middle" x="291.89" y="-645.5" font-family="Helvetica,sans-Serif" font-size="10.00" fill="grey">&#45;empty_csv</text>
</g>
<!-- Node7&#45;&gt;Node3 -->
<g id="edge6_Node000003_Node000007" class="edge">
<title>Node7&#45;&gt;Node3</title>
<g id="a_edge6_Node000003_Node000007"><a xlink:title=" ">
<path fill="none" stroke="#63b8ff" d="M219.69,-815.91C211.6,-808.27 202.74,-798.13 198,-787 194.07,-777.78 191.23,-767.87 189.22,-757.77"/>
<polygon fill="none" stroke="#63b8ff" points="189.19,-757.65 184.27,-752.38 187.23,-745.81 192.16,-751.07 189.19,-757.65"/>
</a>
</g>
<text text-anchor="middle" x="231" y="-771.5" font-family="Helvetica,sans-Serif" font-size="10.00" fill="grey"> #device_name</text>
</g>
<!-- Node8 -->
<g id="Node000008" class="node">
<title>Node8</title>
<g id="a_Node000008"><a xlink:title=" ">
<polygon fill="white" stroke="none" points="427,-408 333,-408 333,-356 427,-356 427,-408"/>
<text text-anchor="start" x="338" y="-394.5" font-family="Helvetica,sans-Serif" font-size="10.00">Adafruit_LSM9DS1</text>
<text text-anchor="start" x="378.5" y="-378.5" font-family="Helvetica,sans-Serif" font-size="10.00"> </text>
<text text-anchor="start" x="378.5" y="-362.5" font-family="Helvetica,sans-Serif" font-size="10.00"> </text>
<polygon fill="#666666" stroke="#666666" points="333,-390 333,-390 427,-390 427,-390 333,-390"/>
<polygon fill="#666666" stroke="#666666" points="333,-374 333,-374 427,-374 427,-374 333,-374"/>
<polygon fill="none" stroke="#666666" points="333,-356 333,-408 427,-408 427,-356 333,-356"/>
</a>
</g>
</g>
<!-- Node8&#45;&gt;Node1 -->
<g id="edge10_Node000001_Node000008" class="edge">
<title>Node8&#45;&gt;Node1</title>
<g id="a_edge10_Node000001_Node000008"><a xlink:title=" ">
<path fill="none" stroke="#63b8ff" d="M380,-356.11C380,-316.98 380,-239.08 380,-176.46"/>
<polygon fill="none" stroke="#63b8ff" points="380,-176.66 376,-170.66 380,-164.66 384,-170.66 380,-176.66"/>
</a>
</g>
<text text-anchor="middle" x="390.88" y="-196.5" font-family="Helvetica,sans-Serif" font-size="10.00" fill="grey"> &#45;lsm</text>
</g>
<!-- Node9 -->
<g id="Node000009" class="node">
<title>Node9</title>
<g id="a_Node000009"><a xlink:title=" ">
<polygon fill="white" stroke="none" points="473,-408 445,-408 445,-356 473,-356 473,-408"/>
<text text-anchor="start" x="449.62" y="-394.5" font-family="Helvetica,sans-Serif" font-size="10.00">float</text>
<text text-anchor="start" x="457.5" y="-378.5" font-family="Helvetica,sans-Serif" font-size="10.00"> </text>
<text text-anchor="start" x="457.5" y="-362.5" font-family="Helvetica,sans-Serif" font-size="10.00"> </text>
<polygon fill="#666666" stroke="#666666" points="445,-390 445,-390 473,-390 473,-390 445,-390"/>
<polygon fill="#666666" stroke="#666666" points="445,-374 445,-374 473,-374 473,-374 445,-374"/>
<polygon fill="none" stroke="#666666" points="445,-356 445,-408 473,-408 473,-356 445,-356"/>
</a>
</g>
</g>
<!-- Node9&#45;&gt;Node1 -->
<g id="edge11_Node000001_Node000009" class="edge">
<title>Node9&#45;&gt;Node1</title>
<g id="a_edge11_Node000001_Node000009"><a xlink:title=" ">
<path fill="none" stroke="#63b8ff" d="M456.53,-356.07C453.31,-326.94 446.76,-277.45 436,-236 430.88,-216.28 424.2,-195.53 417.26,-175.91"/>
<polygon fill="none" stroke="#63b8ff" points="417.28,-175.99 411.49,-171.71 413.21,-164.71 419.01,-168.99 417.28,-175.99"/>
</a>
</g>
<text text-anchor="middle" x="461.88" y="-208.5" font-family="Helvetica,sans-Serif" font-size="10.00" fill="grey"> &#45;accel_offsets</text>
<text text-anchor="middle" x="461.88" y="-196.5" font-family="Helvetica,sans-Serif" font-size="10.00" fill="grey">&#45;gyro_offsets</text>
<text text-anchor="middle" x="461.88" y="-184.5" font-family="Helvetica,sans-Serif" font-size="10.00" fill="grey">&#45;mag_offsets</text>
</g>
</g>
</svg>
