<?xml version="1.0" encoding="UTF-8" standalone="no"?>
<!DOCTYPE svg PUBLIC "-//W3C//DTD SVG 1.1//EN"
 "http://www.w3.org/Graphics/SVG/1.1/DTD/svg11.dtd">
<!-- Generated by graphviz version 12.1.2 (20240928.0832)
 -->
<!-- Title: SDStorage Pages: 1 -->
<!--zoomable 556 -->

<svg id="main" version="1.1" xmlns="http://www.w3.org/2000/svg" xmlns:xlink="http://www.w3.org/1999/xlink" xml:space="preserve" onload="init(evt)">

<style type="text/css"><![CDATA[
.node, .edge {opacity: 0.7;}
.node.selected, .edge.selected {opacity: 1;}
.edge:hover path { stroke: red; }
.edge:hover polygon { stroke: red; fill: red; }
]]></style>

<defs>
  <circle id="rim" cx="0" cy="0" r="7"/>
  <circle id="rim2" cx="0" cy="0" r="3.5"/>
  <g id="zoomPlus">
    <use xlink:href="#rim" fill="#404040"><set attributeName="fill" to="#808080" begin="zoomplus.mouseover" end="zoomplus.mouseout"/></use>
    <path d="M-4,0h8M0,-4v8" fill="none" stroke="white" stroke-width="1.5" pointer-events="none"/>
  </g>
  <g id="zoomMin">
    <use xlink:href="#rim" fill="#404040"><set attributeName="fill" to="#808080" begin="zoomminus.mouseover" end="zoomminus.mouseout"/></use>
    <path d="M-4,0h8" fill="none" stroke="white" stroke-width="1.5" pointer-events="none"/>
  </g>
  <g id="arrowUp" transform="translate(30 24)">
    <use xlink:href="#rim"/>
    <path pointer-events="none" fill="none" stroke="white" stroke-width="1.5" d="M0,-3.0v7 M-2.5,-0.5L0,-3.0L2.5,-0.5"/>
  </g>
  <g id="arrowRight" transform="rotate(90) translate(36 -43)">
    <use xlink:href="#rim"/>
    <path pointer-events="none" fill="none" stroke="white" stroke-width="1.5" d="M0,-3.0v7 M-2.5,-0.5L0,-3.0L2.5,-0.5"/>
  </g>
  <g id="arrowDown" transform="rotate(180) translate(-30 -48)">
    <use xlink:href="#rim"/>
    <path pointer-events="none" fill="none" stroke="white" stroke-width="1.5" d="M0,-3.0v7 M-2.5,-0.5L0,-3.0L2.5,-0.5"/>
  </g>
  <g id="arrowLeft" transform="rotate(270) translate(-36 17)">
    <use xlink:href="#rim"/>
    <path pointer-events="none" fill="none" stroke="white" stroke-width="1.5" d="M0,-3.0v7 M-2.5,-0.5L0,-3.0L2.5,-0.5"/>
  </g>
  <g id="resetDef">
    <use xlink:href="#rim2" fill="#404040"><set attributeName="fill" to="#808080" begin="reset.mouseover" end="reset.mouseout"/></use>
  </g>
</defs>
<script type="application/ecmascript">
var viewWidth = 114;
var viewHeight = 556;
var sectionId = 'dynsection-0';
</script>
<script type="application/ecmascript" xlink:href="svg.min.js"/>
<svg id="graph" class="graph">
<g id="viewport">
<title>SDStorage</title>
<!-- Node1 -->
<g id="Node000001" class="node">
<title>Node1</title>
<g id="a_Node000001"><a xlink:title="Implementation of a Storage device to interface with an SD card.">
<polygon fill="#999999" stroke="none" points="91,-116 15,-116 15,0 91,0 91,-116"/>
<text text-anchor="start" x="29" y="-102.5" font-family="Helvetica,sans-Serif" font-size="10.00">SDStorage</text>
<text text-anchor="start" x="20.5" y="-86.5" font-family="Helvetica,sans-Serif" font-size="10.00">&#45;</text>
<text text-anchor="start" x="29" y="-86.5" font-family="Helvetica,sans-Serif" font-size="10.00">file_name</text>
<text text-anchor="start" x="20.5" y="-70.5" font-family="Helvetica,sans-Serif" font-size="10.00">&#45;</text>
<text text-anchor="start" x="29" y="-70.5" font-family="Helvetica,sans-Serif" font-size="10.00">sd_spi_1</text>
<text text-anchor="start" x="19" y="-54.5" font-family="Helvetica,sans-Serif" font-size="10.00">+</text>
<text text-anchor="start" x="29" y="-54.5" font-family="Helvetica,sans-Serif" font-size="10.00">SDStorage()</text>
<text text-anchor="start" x="19" y="-38.5" font-family="Helvetica,sans-Serif" font-size="10.00">+</text>
<text text-anchor="start" x="29" y="-38.5" font-family="Helvetica,sans-Serif" font-size="10.00">verify()</text>
<text text-anchor="start" x="19" y="-22.5" font-family="Helvetica,sans-Serif" font-size="10.00">+</text>
<text text-anchor="start" x="29" y="-22.5" font-family="Helvetica,sans-Serif" font-size="10.00">store()</text>
<text text-anchor="start" x="19" y="-6.5" font-family="Helvetica,sans-Serif" font-size="10.00">+</text>
<text text-anchor="start" x="29" y="-6.5" font-family="Helvetica,sans-Serif" font-size="10.00">storePacket()</text>
<polygon fill="#666666" stroke="#666666" points="15,-98 15,-98 91,-98 91,-98 15,-98"/>
<polygon fill="#666666" stroke="#666666" points="15,-66 15,-66 27,-66 27,-66 15,-66"/>
<polygon fill="#666666" stroke="#666666" points="27,-66 27,-66 91,-66 91,-66 27,-66"/>
<polygon fill="none" stroke="#666666" points="15,0 15,-116 91,-116 91,0 15,0"/>
</a>
</g>
</g>
<!-- Node2 -->
<g id="Node000002" class="node">
<title>Node2</title>
<g id="a_Node000002"><a xlink:href="classStorage.html" target="_top" xlink:title="Parent class for all data storage devices (sd card, radio, etc)">
<polygon fill="white" stroke="none" points="91,-252 15,-252 15,-152 91,-152 91,-252"/>
<text text-anchor="start" x="36.12" y="-238.5" font-family="Helvetica,sans-Serif" font-size="10.00">Storage</text>
<text text-anchor="start" x="51.5" y="-222.5" font-family="Helvetica,sans-Serif" font-size="10.00"> </text>
<text text-anchor="start" x="19" y="-206.5" font-family="Helvetica,sans-Serif" font-size="10.00">+</text>
<text text-anchor="start" x="29" y="-206.5" font-family="Helvetica,sans-Serif" font-size="10.00">Storage()</text>
<text text-anchor="start" x="19" y="-190.5" font-family="Helvetica,sans-Serif" font-size="10.00">+</text>
<text text-anchor="start" x="29" y="-190.5" font-family="Helvetica,sans-Serif" font-size="10.00">verify()</text>
<text text-anchor="start" x="19" y="-174.5" font-family="Helvetica,sans-Serif" font-size="10.00">+</text>
<text text-anchor="start" x="29" y="-174.5" font-family="Helvetica,sans-Serif" font-size="10.00">store()</text>
<text text-anchor="start" x="19" y="-158.5" font-family="Helvetica,sans-Serif" font-size="10.00">+</text>
<text text-anchor="start" x="29" y="-158.5" font-family="Helvetica,sans-Serif" font-size="10.00">storePacket()</text>
<polygon fill="#666666" stroke="#666666" points="15,-234 15,-234 91,-234 91,-234 15,-234"/>
<polygon fill="#666666" stroke="#666666" points="15,-218 15,-218 91,-218 91,-218 15,-218"/>
<polygon fill="none" stroke="#666666" points="15,-152 15,-252 91,-252 91,-152 15,-152"/>
</a>
</g>
</g>
<!-- Node2&#45;&gt;Node1 -->
<g id="edge1_Node000001_Node000002" class="edge">
<title>Node2&#45;&gt;Node1</title>
<g id="a_edge1_Node000001_Node000002"><a xlink:title=" ">
<path fill="none" stroke="#63b8ff" d="M53,-140.65C53,-132.4 53,-123.96 53,-115.78"/>
<polygon fill="none" stroke="#63b8ff" points="49.5,-140.62 53,-150.62 56.5,-140.62 49.5,-140.62"/>
</a>
</g>
</g>
<!-- Node3 -->
<g id="Node000003" class="node">
<title>Node3</title>
<g id="a_Node000003"><a xlink:href="classDevice.html" target="_top" xlink:title="Implements the recovery system for Sensor and Storage objects.">
<polygon fill="white" stroke="none" points="106,-548 0,-548 0,-288 106,-288 106,-548"/>
<text text-anchor="start" x="37.62" y="-534.5" font-family="Helvetica,sans-Serif" font-size="10.00">Device</text>
<text text-anchor="start" x="4.38" y="-518.5" font-family="Helvetica,sans-Serif" font-size="10.00">#</text>
<text text-anchor="start" x="14" y="-518.5" font-family="Helvetica,sans-Serif" font-size="10.00">verified</text>
<text text-anchor="start" x="4.38" y="-502.5" font-family="Helvetica,sans-Serif" font-size="10.00">#</text>
<text text-anchor="start" x="14" y="-502.5" font-family="Helvetica,sans-Serif" font-size="10.00">device_name</text>
<text text-anchor="start" x="5.5" y="-486.5" font-family="Helvetica,sans-Serif" font-size="10.00">&#45;</text>
<text text-anchor="start" x="14" y="-486.5" font-family="Helvetica,sans-Serif" font-size="10.00">last_attempt</text>
<text text-anchor="start" x="5.5" y="-470.5" font-family="Helvetica,sans-Serif" font-size="10.00">&#45;</text>
<text text-anchor="start" x="14" y="-470.5" font-family="Helvetica,sans-Serif" font-size="10.00">max_attempts</text>
<text text-anchor="start" x="5.5" y="-454.5" font-family="Helvetica,sans-Serif" font-size="10.00">&#45;</text>
<text text-anchor="start" x="14" y="-454.5" font-family="Helvetica,sans-Serif" font-size="10.00">attempt_number</text>
<text text-anchor="start" x="5.5" y="-438.5" font-family="Helvetica,sans-Serif" font-size="10.00">&#45;</text>
<text text-anchor="start" x="14" y="-438.5" font-family="Helvetica,sans-Serif" font-size="10.00">wait_factor</text>
<text text-anchor="start" x="4" y="-422.5" font-family="Helvetica,sans-Serif" font-size="10.00">+</text>
<text text-anchor="start" x="14" y="-422.5" font-family="Helvetica,sans-Serif" font-size="10.00">Device()</text>
<text text-anchor="start" x="4" y="-406.5" font-family="Helvetica,sans-Serif" font-size="10.00">+</text>
<text text-anchor="start" x="14" y="-406.5" font-family="Helvetica,sans-Serif" font-size="10.00">Device()</text>
<text text-anchor="start" x="4" y="-390.5" font-family="Helvetica,sans-Serif" font-size="10.00">+</text>
<text text-anchor="start" x="14" y="-390.5" font-family="Helvetica,sans-Serif" font-size="10.00">getDeviceName()</text>
<text text-anchor="start" x="4" y="-374.5" font-family="Helvetica,sans-Serif" font-size="10.00">+</text>
<text text-anchor="start" x="14" y="-374.5" font-family="Helvetica,sans-Serif" font-size="10.00">verify()</text>
<text text-anchor="start" x="4" y="-358.5" font-family="Helvetica,sans-Serif" font-size="10.00">+</text>
<text text-anchor="start" x="14" y="-358.5" font-family="Helvetica,sans-Serif" font-size="10.00">getVerified()</text>
<text text-anchor="start" x="4" y="-342.5" font-family="Helvetica,sans-Serif" font-size="10.00">+</text>
<text text-anchor="start" x="14" y="-342.5" font-family="Helvetica,sans-Serif" font-size="10.00">recoveryConfig()</text>
<text text-anchor="start" x="4" y="-326.5" font-family="Helvetica,sans-Serif" font-size="10.00">+</text>
<text text-anchor="start" x="14" y="-326.5" font-family="Helvetica,sans-Serif" font-size="10.00">setWaitFactor()</text>
<text text-anchor="start" x="4" y="-310.5" font-family="Helvetica,sans-Serif" font-size="10.00">+</text>
<text text-anchor="start" x="14" y="-310.5" font-family="Helvetica,sans-Serif" font-size="10.00">setMaxAttempts()</text>
<text text-anchor="start" x="4" y="-294.5" font-family="Helvetica,sans-Serif" font-size="10.00">+</text>
<text text-anchor="start" x="14" y="-294.5" font-family="Helvetica,sans-Serif" font-size="10.00">attemptConnection()</text>
<polygon fill="#666666" stroke="#666666" points="0,-530 0,-530 106,-530 106,-530 0,-530"/>
<polygon fill="#666666" stroke="#666666" points="0,-434 0,-434 12,-434 12,-434 0,-434"/>
<polygon fill="#666666" stroke="#666666" points="12,-434 12,-434 106,-434 106,-434 12,-434"/>
<polygon fill="none" stroke="#666666" points="0,-288 0,-548 106,-548 106,-288 0,-288"/>
</a>
</g>
</g>
<!-- Node3&#45;&gt;Node2 -->
<g id="edge2_Node000002_Node000003" class="edge">
<title>Node3&#45;&gt;Node2</title>
<g id="a_edge2_Node000002_Node000003"><a xlink:title=" ">
<path fill="none" stroke="#63b8ff" d="M53,-276.82C53,-267.97 53,-259.45 53,-251.55"/>
<polygon fill="none" stroke="#63b8ff" points="49.5,-276.68 53,-286.68 56.5,-276.68 49.5,-276.68"/>
</a>
</g>
</g>
</g>
</svg>

<g id="navigator" transform="translate(0 0)" fill="#404254">
  <rect fill="#f2f5e9" fill-opacity="0.5" stroke="#606060" stroke-width=".5" x="0" y="0" width="60" height="60"/>
  <use id="zoomplus" xlink:href="#zoomPlus" x="17" y="9" onmousedown="handleZoom(evt,'in')"/>
  <use id="zoomminus" xlink:href="#zoomMin" x="42" y="9" onmousedown="handleZoom(evt,'out')"/>
  <use id="reset" xlink:href="#resetDef" x="30" y="36" onmousedown="handleReset()"/>
   <use id="arrowup" xlink:href="#arrowUp" x="0" y="0" onmousedown="handlePan(0,-1)"/>
  <use id="arrowright" xlink:href="#arrowRight" x="0" y="0" onmousedown="handlePan(1,0)"/>
  <use id="arrowdown" xlink:href="#arrowDown" x="0" y="0" onmousedown="handlePan(0,1)"/>
  <use id="arrowleft" xlink:href="#arrowLeft" x="0" y="0" onmousedown="handlePan(-1,0)"/>
</g>
<svg viewBox="0 0 15 15" width="100%" height="30px" preserveAspectRatio="xMaxYMin meet">
 <g id="arrow_out" transform="scale(0.3 0.3)">
  <a xlink:href="classSDStorage__inherit__graph_org.svg" target="_base">
   <rect id="button" ry="5" rx="5" y="6" x="6" height="38" width="38"
        fill="#f2f5e9" fill-opacity="0.5" stroke="#606060" stroke-width="1.0"/>
   <path id="arrow"
     d="M 11.500037,31.436501 C 11.940474,20.09759 22.043105,11.32322 32.158766,21.979434 L 37.068811,17.246167 C 37.068811,17.246167 37.088388,32 37.088388,32 L 22.160133,31.978069 C 22.160133,31.978069 26.997745,27.140456 26.997745,27.140456 C 18.528582,18.264221 13.291696,25.230495 11.500037,31.436501 z"
     style="fill:#404040;"/>
  </a>
 </g>
</svg>

<style type='text/css'>
<![CDATA[
[data-mouse-over-selected='false'] { opacity: 0.7; }
[data-mouse-over-selected='true']  { opacity: 1.0; }
]]>
</style>
<script type="application/ecmascript"><![CDATA[
document.addEventListener('DOMContentLoaded', (event) => {
  highlightEdges();
  highlightAdjacentNodes();
});
]]></script>
</svg>
