<?xml version="1.0" encoding="UTF-8" standalone="no"?>
<!DOCTYPE svg PUBLIC "-//W3C//DTD SVG 1.1//EN"
 "http://www.w3.org/Graphics/SVG/1.1/DTD/svg11.dtd">
<!-- Generated by graphviz version 2.43.0 (0)
 -->
<!-- Title: RadioStorage Pages: 1 -->
<!--zoomable 566 -->

<svg id="main" version="1.1" xmlns="http://www.w3.org/2000/svg" xmlns:xlink="http://www.w3.org/1999/xlink" xml:space="preserve" onload="init(evt)">
<style type="text/css"><![CDATA[
.node, .edge {opacity: 0.7;}
.node.selected, .edge.selected {opacity: 1;}
.edge:hover path { stroke: red; }
.edge:hover polygon { stroke: red; fill: red; }
]]></style>

<defs>
  <circle id="rim" cx="0" cy="0" r="7"/>
  <circle id="rim2" cx="0" cy="0" r="3.5"/>
  <g id="zoomPlus">
    <use xlink:href="#rim" fill="#404040"><set attributeName="fill" to="#808080" begin="zoomplus.mouseover" end="zoomplus.mouseout"/></use>
    <path d="M-4,0h8M0,-4v8" fill="none" stroke="white" stroke-width="1.5" pointer-events="none"/>
  </g>
  <g id="zoomMin">
    <use xlink:href="#rim" fill="#404040"><set attributeName="fill" to="#808080" begin="zoomminus.mouseover" end="zoomminus.mouseout"/></use>
    <path d="M-4,0h8" fill="none" stroke="white" stroke-width="1.5" pointer-events="none"/>
  </g>
  <g id="arrowUp" transform="translate(30 24)">
    <use xlink:href="#rim"/>
    <path pointer-events="none" fill="none" stroke="white" stroke-width="1.5" d="M0,-3.0v7 M-2.5,-0.5L0,-3.0L2.5,-0.5"/>
  </g>
  <g id="arrowRight" transform="rotate(90) translate(36 -43)">
    <use xlink:href="#rim"/>
    <path pointer-events="none" fill="none" stroke="white" stroke-width="1.5" d="M0,-3.0v7 M-2.5,-0.5L0,-3.0L2.5,-0.5"/>
  </g>
  <g id="arrowDown" transform="rotate(180) translate(-30 -48)">
    <use xlink:href="#rim"/>
    <path pointer-events="none" fill="none" stroke="white" stroke-width="1.5" d="M0,-3.0v7 M-2.5,-0.5L0,-3.0L2.5,-0.5"/>
  </g>
  <g id="arrowLeft" transform="rotate(270) translate(-36 17)">
    <use xlink:href="#rim"/>
    <path pointer-events="none" fill="none" stroke="white" stroke-width="1.5" d="M0,-3.0v7 M-2.5,-0.5L0,-3.0L2.5,-0.5"/>
  </g>
  <g id="resetDef">
    <use xlink:href="#rim2" fill="#404040"><set attributeName="fill" to="#808080" begin="reset.mouseover" end="reset.mouseout"/></use>
  </g>
</defs>
<script type="application/ecmascript">
var viewWidth = 370;
var viewHeight = 566;
var sectionId = 'dynsection-1';
</script>
<script type="application/ecmascript" xlink:href="svg.min.js"/>
<svg id="graph" class="graph">
<g id="viewport">
<title>RadioStorage</title>
<!-- Node1 -->
<g id="Node000001" class="node">
<title>Node1</title>
<g id="a_Node000001"><a xlink:title="Implementation of a Storage device to interface with an SD card.">
<polygon fill="#999999" stroke="transparent" points="149.5,-94 55.5,-94 55.5,0 149.5,0 149.5,-94"/>
<text text-anchor="start" x="69.5" y="-82" font-family="Helvetica,sans-Serif" font-size="10.00">RadioStorage</text>
<text text-anchor="start" x="100.5" y="-67" font-family="Helvetica,sans-Serif" font-size="10.00"> </text>
<text text-anchor="start" x="59.5" y="-52" font-family="Helvetica,sans-Serif" font-size="10.00">+</text>
<text text-anchor="start" x="72.5" y="-52" font-family="Helvetica,sans-Serif" font-size="10.00">RadioStorage()</text>
<text text-anchor="start" x="59.5" y="-37" font-family="Helvetica,sans-Serif" font-size="10.00">+</text>
<text text-anchor="start" x="72.5" y="-37" font-family="Helvetica,sans-Serif" font-size="10.00">verify()</text>
<text text-anchor="start" x="59.5" y="-22" font-family="Helvetica,sans-Serif" font-size="10.00">+</text>
<text text-anchor="start" x="72.5" y="-22" font-family="Helvetica,sans-Serif" font-size="10.00">store()</text>
<text text-anchor="start" x="59.5" y="-7" font-family="Helvetica,sans-Serif" font-size="10.00">+</text>
<text text-anchor="start" x="72.5" y="-7" font-family="Helvetica,sans-Serif" font-size="10.00">storePacket()</text>
<polygon fill="#666666" stroke="#666666" points="55.5,-77 55.5,-77 149.5,-77 149.5,-77 55.5,-77"/>
<polygon fill="#666666" stroke="#666666" points="55.5,-62 55.5,-62 149.5,-62 149.5,-62 55.5,-62"/>
<polygon fill="none" stroke="#666666" points="55.5,0 55.5,-94 149.5,-94 149.5,0 55.5,0"/>
</a>
</g>
</g>
<!-- Node2 -->
<g id="Node000002" class="node">
<title>Node2</title>
<g id="a_Node000002"><a xlink:href="classStorage.html" target="_top" xlink:title="Parent class for all data storage devices (sd card, radio, etc)">
<polygon fill="white" stroke="transparent" points="145,-235 60,-235 60,-141 145,-141 145,-235"/>
<text text-anchor="start" x="84" y="-223" font-family="Helvetica,sans-Serif" font-size="10.00">Storage</text>
<text text-anchor="start" x="101" y="-208" font-family="Helvetica,sans-Serif" font-size="10.00"> </text>
<text text-anchor="start" x="64.5" y="-193" font-family="Helvetica,sans-Serif" font-size="10.00">+</text>
<text text-anchor="start" x="77.5" y="-193" font-family="Helvetica,sans-Serif" font-size="10.00">Storage()</text>
<text text-anchor="start" x="64.5" y="-178" font-family="Helvetica,sans-Serif" font-size="10.00">+</text>
<text text-anchor="start" x="77.5" y="-178" font-family="Helvetica,sans-Serif" font-size="10.00">verify()</text>
<text text-anchor="start" x="64.5" y="-163" font-family="Helvetica,sans-Serif" font-size="10.00">+</text>
<text text-anchor="start" x="77.5" y="-163" font-family="Helvetica,sans-Serif" font-size="10.00">store()</text>
<text text-anchor="start" x="64.5" y="-148" font-family="Helvetica,sans-Serif" font-size="10.00">+</text>
<text text-anchor="start" x="77.5" y="-148" font-family="Helvetica,sans-Serif" font-size="10.00">storePacket()</text>
<polygon fill="#666666" stroke="#666666" points="60.5,-218 60.5,-218 145.5,-218 145.5,-218 60.5,-218"/>
<polygon fill="#666666" stroke="#666666" points="60.5,-203 60.5,-203 145.5,-203 145.5,-203 60.5,-203"/>
<polygon fill="none" stroke="#666666" points="60,-141 60,-235 145,-235 145,-141 60,-141"/>
</a>
</g>
</g>
<!-- Node2&#45;&gt;Node1 -->
<g id="edge1_Node000001_Node000002" class="edge">
<title>Node2&#45;&gt;Node1</title>
<g id="a_edge1_Node000001_Node000002"><a xlink:title=" ">
<path fill="none" stroke="#63b8ff" d="M102.5,-130.67C102.5,-118.51 102.5,-105.79 102.5,-94.08"/>
<polygon fill="none" stroke="#63b8ff" points="99,-130.71 102.5,-140.72 106,-130.72 99,-130.71"/>
</a>
</g>
</g>
<!-- Node3 -->
<g id="Node000003" class="node">
<title>Node3</title>
<g id="a_Node000003"><a xlink:href="classDevice.html" target="_top" xlink:title="Implements the recovery system for Sensor and Storage objects.">
<polygon fill="white" stroke="transparent" points="201,-451 78,-451 78,-282 201,-282 201,-451"/>
<text text-anchor="start" x="123" y="-438.5" font-family="Helvetica,sans-Serif" font-size="10.00">Device</text>
<text text-anchor="start" x="138" y="-423.5" font-family="Helvetica,sans-Serif" font-size="10.00"> </text>
<text text-anchor="start" x="82.5" y="-408.5" font-family="Helvetica,sans-Serif" font-size="10.00">+</text>
<text text-anchor="start" x="95.5" y="-408.5" font-family="Helvetica,sans-Serif" font-size="10.00">Device()</text>
<text text-anchor="start" x="82.5" y="-393.5" font-family="Helvetica,sans-Serif" font-size="10.00">+</text>
<text text-anchor="start" x="95.5" y="-393.5" font-family="Helvetica,sans-Serif" font-size="10.00">Device()</text>
<text text-anchor="start" x="82.5" y="-378.5" font-family="Helvetica,sans-Serif" font-size="10.00">+</text>
<text text-anchor="start" x="95.5" y="-378.5" font-family="Helvetica,sans-Serif" font-size="10.00">getDeviceName()</text>
<text text-anchor="start" x="82.5" y="-363.5" font-family="Helvetica,sans-Serif" font-size="10.00">+</text>
<text text-anchor="start" x="95.5" y="-363.5" font-family="Helvetica,sans-Serif" font-size="10.00">verify()</text>
<text text-anchor="start" x="82.5" y="-348.5" font-family="Helvetica,sans-Serif" font-size="10.00">+</text>
<text text-anchor="start" x="95.5" y="-348.5" font-family="Helvetica,sans-Serif" font-size="10.00">getVerified()</text>
<text text-anchor="start" x="82.5" y="-333.5" font-family="Helvetica,sans-Serif" font-size="10.00">+</text>
<text text-anchor="start" x="95.5" y="-333.5" font-family="Helvetica,sans-Serif" font-size="10.00">recoveryConfig()</text>
<text text-anchor="start" x="82.5" y="-318.5" font-family="Helvetica,sans-Serif" font-size="10.00">+</text>
<text text-anchor="start" x="95.5" y="-318.5" font-family="Helvetica,sans-Serif" font-size="10.00">setWaitFactor()</text>
<text text-anchor="start" x="82.5" y="-303.5" font-family="Helvetica,sans-Serif" font-size="10.00">+</text>
<text text-anchor="start" x="95.5" y="-303.5" font-family="Helvetica,sans-Serif" font-size="10.00">setMaxAttempts()</text>
<text text-anchor="start" x="82.5" y="-288.5" font-family="Helvetica,sans-Serif" font-size="10.00">+</text>
<text text-anchor="start" x="95.5" y="-288.5" font-family="Helvetica,sans-Serif" font-size="10.00">attemptConnection()</text>
<polygon fill="#666666" stroke="#666666" points="78.5,-433.5 78.5,-433.5 201.5,-433.5 201.5,-433.5 78.5,-433.5"/>
<polygon fill="#666666" stroke="#666666" points="78.5,-418.5 78.5,-418.5 201.5,-418.5 201.5,-418.5 78.5,-418.5"/>
<polygon fill="none" stroke="#666666" points="78,-282 78,-451 201,-451 201,-282 78,-282"/>
</a>
</g>
</g>
<!-- Node3&#45;&gt;Node2 -->
<g id="edge2_Node000002_Node000003" class="edge">
<title>Node3&#45;&gt;Node2</title>
<g id="a_edge2_Node000002_Node000003"><a xlink:title=" ">
<path fill="none" stroke="#63b8ff" d="M119.85,-271.75C117.19,-259.1 114.57,-246.6 112.21,-235.3"/>
<polygon fill="none" stroke="#63b8ff" points="116.5,-272.83 121.98,-281.9 123.35,-271.4 116.5,-272.83"/>
</a>
</g>
</g>
<!-- Node4 -->
<g id="Node000004" class="node">
<title>Node4</title>
<g id="a_Node000004"><a xlink:title=" ">
<polygon fill="white" stroke="transparent" points="351,-558 272,-558 272,-509 351,-509 351,-558"/>
<text text-anchor="start" x="277.5" y="-545.5" font-family="Helvetica,sans-Serif" font-size="10.00">unsigned long</text>
<text text-anchor="start" x="310" y="-530.5" font-family="Helvetica,sans-Serif" font-size="10.00"> </text>
<text text-anchor="start" x="310" y="-515.5" font-family="Helvetica,sans-Serif" font-size="10.00"> </text>
<polygon fill="#666666" stroke="#666666" points="272.5,-540.5 272.5,-540.5 351.5,-540.5 351.5,-540.5 272.5,-540.5"/>
<polygon fill="#666666" stroke="#666666" points="272.5,-525.5 272.5,-525.5 351.5,-525.5 351.5,-525.5 272.5,-525.5"/>
<polygon fill="none" stroke="#666666" points="272,-509 272,-558 351,-558 351,-509 272,-509"/>
</a>
</g>
</g>
<!-- Node4&#45;&gt;Node3 -->
<g id="edge3_Node000003_Node000004" class="edge">
<title>Node4&#45;&gt;Node3</title>
<g id="a_edge3_Node000003_Node000004"><a xlink:title=" ">
<path fill="none" stroke="#63b8ff" d="M301.94,-508.91C296.08,-496.23 287.74,-480.81 277.5,-469 258.58,-447.17 234.15,-427.3 211.12,-411.03"/>
<polygon fill="none" stroke="#63b8ff" points="210.89,-410.87 203.68,-410.76 201.01,-404.06 208.22,-404.17 210.89,-410.87"/>
</a>
</g>
<text text-anchor="middle" x="326.5" y="-483" font-family="Helvetica,sans-Serif" font-size="10.00" fill="grey"> &#45;last_attempt</text>
<text text-anchor="middle" x="326.5" y="-472" font-family="Helvetica,sans-Serif" font-size="10.00" fill="grey">&#45;wait_factor</text>
</g>
<!-- Node5 -->
<g id="Node000005" class="node">
<title>Node5</title>
<g id="a_Node000005"><a xlink:title=" ">
<polygon fill="white" stroke="transparent" points="23,-558 0,-558 0,-509 23,-509 23,-558"/>
<text text-anchor="start" x="5.5" y="-545.5" font-family="Helvetica,sans-Serif" font-size="10.00">int</text>
<text text-anchor="start" x="10" y="-530.5" font-family="Helvetica,sans-Serif" font-size="10.00"> </text>
<text text-anchor="start" x="10" y="-515.5" font-family="Helvetica,sans-Serif" font-size="10.00"> </text>
<polygon fill="#666666" stroke="#666666" points="0.5,-540.5 0.5,-540.5 23.5,-540.5 23.5,-540.5 0.5,-540.5"/>
<polygon fill="#666666" stroke="#666666" points="0.5,-525.5 0.5,-525.5 23.5,-525.5 23.5,-525.5 0.5,-525.5"/>
<polygon fill="none" stroke="#666666" points="0,-509 0,-558 23,-558 23,-509 0,-509"/>
</a>
</g>
</g>
<!-- Node5&#45;&gt;Node1 -->
<g id="edge8_Node000001_Node000005" class="edge">
<title>Node5&#45;&gt;Node1</title>
<g id="a_edge8_Node000001_Node000005"><a xlink:title=" ">
<path fill="none" stroke="#63b8ff" d="M10.55,-508.89C8.76,-446.94 8.31,-275.23 50.5,-141 54.33,-128.83 59.86,-116.47 65.91,-104.9"/>
<polygon fill="none" stroke="#63b8ff" points="66.07,-104.61 65.44,-97.43 71.83,-94.09 72.46,-101.27 66.07,-104.61"/>
</a>
</g>
<text text-anchor="middle" x="41.5" y="-256" font-family="Helvetica,sans-Serif" font-size="10.00" fill="grey"> &#45;state</text>
</g>
<!-- Node5&#45;&gt;Node3 -->
<g id="edge4_Node000003_Node000005" class="edge">
<title>Node5&#45;&gt;Node3</title>
<g id="a_edge4_Node000003_Node000005"><a xlink:title=" ">
<path fill="none" stroke="#63b8ff" d="M22.87,-508.77C29.17,-496.48 37.54,-481.47 46.5,-469 53.63,-459.07 61.62,-449.06 69.85,-439.39"/>
<polygon fill="none" stroke="#63b8ff" points="69.93,-439.3 70.84,-432.15 77.79,-430.24 76.88,-437.39 69.93,-439.3"/>
</a>
</g>
<text text-anchor="middle" x="91" y="-483" font-family="Helvetica,sans-Serif" font-size="10.00" fill="grey"> &#45;attempt_number</text>
<text text-anchor="middle" x="91" y="-472" font-family="Helvetica,sans-Serif" font-size="10.00" fill="grey">&#45;max_attempts</text>
</g>
<!-- Node6 -->
<g id="Node000006" class="node">
<title>Node6</title>
<g id="a_Node000006"><a xlink:title=" ">
<polygon fill="white" stroke="transparent" points="155.5,-558 123.5,-558 123.5,-509 155.5,-509 155.5,-558"/>
<text text-anchor="start" x="128.5" y="-545.5" font-family="Helvetica,sans-Serif" font-size="10.00">bool</text>
<text text-anchor="start" x="137.5" y="-530.5" font-family="Helvetica,sans-Serif" font-size="10.00"> </text>
<text text-anchor="start" x="137.5" y="-515.5" font-family="Helvetica,sans-Serif" font-size="10.00"> </text>
<polygon fill="#666666" stroke="#666666" points="123.5,-540.5 123.5,-540.5 155.5,-540.5 155.5,-540.5 123.5,-540.5"/>
<polygon fill="#666666" stroke="#666666" points="123.5,-525.5 123.5,-525.5 155.5,-525.5 155.5,-525.5 123.5,-525.5"/>
<polygon fill="none" stroke="#666666" points="123.5,-509 123.5,-558 155.5,-558 155.5,-509 123.5,-509"/>
</a>
</g>
</g>
<!-- Node6&#45;&gt;Node3 -->
<g id="edge5_Node000003_Node000006" class="edge">
<title>Node6&#45;&gt;Node3</title>
<g id="a_edge5_Node000003_Node000006"><a xlink:title=" ">
<path fill="none" stroke="#63b8ff" d="M139.5,-508.86C139.5,-496.45 139.5,-480.34 139.5,-463.46"/>
<polygon fill="none" stroke="#63b8ff" points="139.5,-463.07 135.5,-457.07 139.5,-451.07 143.5,-457.07 139.5,-463.07"/>
</a>
</g>
<text text-anchor="middle" x="164" y="-477.5" font-family="Helvetica,sans-Serif" font-size="10.00" fill="grey"> #verified</text>
</g>
<!-- Node7 -->
<g id="Node000007" class="node">
<title>Node7</title>
<g id="a_Node000007"><a xlink:title=" ">
<polygon fill="white" stroke="transparent" points="231,-558 192,-558 192,-509 231,-509 231,-558"/>
<text text-anchor="start" x="197.5" y="-545.5" font-family="Helvetica,sans-Serif" font-size="10.00">String</text>
<text text-anchor="start" x="210" y="-530.5" font-family="Helvetica,sans-Serif" font-size="10.00"> </text>
<text text-anchor="start" x="210" y="-515.5" font-family="Helvetica,sans-Serif" font-size="10.00"> </text>
<polygon fill="#666666" stroke="#666666" points="192.5,-540.5 192.5,-540.5 231.5,-540.5 231.5,-540.5 192.5,-540.5"/>
<polygon fill="#666666" stroke="#666666" points="192.5,-525.5 192.5,-525.5 231.5,-525.5 231.5,-525.5 192.5,-525.5"/>
<polygon fill="none" stroke="#666666" points="192,-509 192,-558 231,-558 231,-509 192,-509"/>
</a>
</g>
</g>
<!-- Node7&#45;&gt;Node3 -->
<g id="edge6_Node000003_Node000007" class="edge">
<title>Node7&#45;&gt;Node3</title>
<g id="a_edge6_Node000003_Node000007"><a xlink:title=" ">
<path fill="none" stroke="#63b8ff" d="M204.04,-508.72C200.07,-496.68 194.9,-481.92 189.5,-469 188.54,-466.7 187.55,-464.38 186.54,-462.04"/>
<polygon fill="none" stroke="#63b8ff" points="186.52,-462.01 180.44,-458.14 181.66,-451.04 187.75,-454.9 186.52,-462.01"/>
</a>
</g>
<text text-anchor="middle" x="235" y="-477.5" font-family="Helvetica,sans-Serif" font-size="10.00" fill="grey"> #device_name</text>
</g>
<!-- Node8 -->
<g id="Node000008" class="node">
<title>Node8</title>
<g id="a_Node000008"><a xlink:title=" ">
<polygon fill="white" stroke="transparent" points="210,-212.5 163,-212.5 163,-163.5 210,-163.5 210,-212.5"/>
<text text-anchor="start" x="168.5" y="-200" font-family="Helvetica,sans-Serif" font-size="10.00">SX1276</text>
<text text-anchor="start" x="185" y="-185" font-family="Helvetica,sans-Serif" font-size="10.00"> </text>
<text text-anchor="start" x="185" y="-170" font-family="Helvetica,sans-Serif" font-size="10.00"> </text>
<polygon fill="#666666" stroke="#666666" points="163.5,-195 163.5,-195 210.5,-195 210.5,-195 163.5,-195"/>
<polygon fill="#666666" stroke="#666666" points="163.5,-180 163.5,-180 210.5,-180 210.5,-180 163.5,-180"/>
<polygon fill="none" stroke="#666666" points="163,-163.5 163,-212.5 210,-212.5 210,-163.5 163,-163.5"/>
</a>
</g>
</g>
<!-- Node8&#45;&gt;Node1 -->
<g id="edge7_Node000001_Node000008" class="edge">
<title>Node8&#45;&gt;Node1</title>
<g id="a_edge7_Node000001_Node000008"><a xlink:title=" ">
<path fill="none" stroke="#63b8ff" d="M172.25,-163.42C162.52,-147.33 149.21,-125.29 136.81,-104.78"/>
<polygon fill="none" stroke="#63b8ff" points="136.64,-104.5 130.12,-101.43 130.44,-94.23 136.96,-97.3 136.64,-104.5"/>
</a>
</g>
<text text-anchor="middle" x="162.5" y="-115" font-family="Helvetica,sans-Serif" font-size="10.00" fill="grey"> &#45;radio</text>
</g>
</g>
</svg>

<g id="navigator" transform="translate(0 0)" fill="#404254">
  <rect fill="#f2f5e9" fill-opacity="0.5" stroke="#606060" stroke-width=".5" x="0" y="0" width="60" height="60"/>
  <use id="zoomplus" xlink:href="#zoomPlus" x="17" y="9" onmousedown="handleZoom(evt,'in')"/>
  <use id="zoomminus" xlink:href="#zoomMin" x="42" y="9" onmousedown="handleZoom(evt,'out')"/>
  <use id="reset" xlink:href="#resetDef" x="30" y="36" onmousedown="handleReset()"/>
   <use id="arrowup" xlink:href="#arrowUp" x="0" y="0" onmousedown="handlePan(0,-1)"/>
  <use id="arrowright" xlink:href="#arrowRight" x="0" y="0" onmousedown="handlePan(1,0)"/>
  <use id="arrowdown" xlink:href="#arrowDown" x="0" y="0" onmousedown="handlePan(0,1)"/>
  <use id="arrowleft" xlink:href="#arrowLeft" x="0" y="0" onmousedown="handlePan(-1,0)"/>
</g>
<svg viewBox="0 0 15 15" width="100%" height="30px" preserveAspectRatio="xMaxYMin meet">
 <g id="arrow_out" transform="scale(0.3 0.3)">
  <a xlink:href="classRadioStorage__coll__graph_org.svg" target="_base">
   <rect id="button" ry="5" rx="5" y="6" x="6" height="38" width="38"
        fill="#f2f5e9" fill-opacity="0.5" stroke="#606060" stroke-width="1.0"/>
   <path id="arrow"
     d="M 11.500037,31.436501 C 11.940474,20.09759 22.043105,11.32322 32.158766,21.979434 L 37.068811,17.246167 C 37.068811,17.246167 37.088388,32 37.088388,32 L 22.160133,31.978069 C 22.160133,31.978069 26.997745,27.140456 26.997745,27.140456 C 18.528582,18.264221 13.291696,25.230495 11.500037,31.436501 z"
     style="fill:#404040;"/>
  </a>
 </g>
</svg>

<style type='text/css'>
<![CDATA[
[data-mouse-over-selected='false'] { opacity: 0.7; }
[data-mouse-over-selected='true']  { opacity: 1.0; }
]]>
</style>
<script type="application/ecmascript"><![CDATA[
document.addEventListener('DOMContentLoaded', (event) => {
  highlightEdges();
  highlightAdjacentNodes();
});
]]></script>
</svg>
