<?xml version="1.0" encoding="UTF-8" standalone="no"?>
<!DOCTYPE svg PUBLIC "-//W3C//DTD SVG 1.1//EN"
 "http://www.w3.org/Graphics/SVG/1.1/DTD/svg11.dtd">
<!-- Generated by graphviz version 12.1.2 (20240928.0832)
 -->
<!-- Title: SDStorage::storePacket Pages: 1 -->
<svg width="282pt" height="66pt"
 viewBox="0.00 0.00 281.50 66.00" xmlns="http://www.w3.org/2000/svg" xmlns:xlink="http://www.w3.org/1999/xlink">
<g id="graph0" class="graph" transform="scale(1 1) rotate(0) translate(4 62)">
<title>SDStorage::storePacket</title>
<!-- Node1 -->
<g id="Node000001" class="node">
<title>Node1</title>
<g id="a_Node000001"><a xlink:title="Store data on the SD card.">
<polygon fill="#999999" stroke="#666666" points="122.5,-39 0,-39 0,-19 122.5,-19 122.5,-39"/>
<text text-anchor="middle" x="61.25" y="-25.5" font-family="Helvetica,sans-Serif" font-size="10.00">SDStorage::storePacket</text>
</a>
</g>
</g>
<!-- Node2 -->
<g id="Node000002" class="node">
<title>Node2</title>
<g id="a_Node000002"><a xlink:href="classErrorDisplay.html#a25018c85cd6b4055a5e796153b997d13" target="_top" xlink:title="Sets the error code to the given value if the given error is of a higher priority then the current er...">
<polygon fill="white" stroke="#666666" points="273.5,-58 158.5,-58 158.5,-38 273.5,-38 273.5,-58"/>
<text text-anchor="middle" x="216" y="-44.5" font-family="Helvetica,sans-Serif" font-size="10.00">ErrorDisplay::addCode</text>
</a>
</g>
</g>
<!-- Node1&#45;&gt;Node2 -->
<g id="edge1_Node000001_Node000002" class="edge">
<title>Node1&#45;&gt;Node2</title>
<g id="a_edge1_Node000001_Node000002"><a xlink:title=" ">
<path fill="none" stroke="#63b8ff" d="M122.62,-36.51C130.56,-37.5 138.73,-38.51 146.79,-39.52"/>
<polygon fill="#63b8ff" stroke="#63b8ff" points="146.2,-42.97 156.55,-40.73 147.06,-36.02 146.2,-42.97"/>
</a>
</g>
</g>
<!-- Node3 -->
<g id="Node000003" class="node">
<title>Node3</title>
<g id="a_Node000003"><a xlink:href="classErrorDisplay.html#a4f9e7e64ffc64711653b539bf3d8d24f" target="_top" xlink:title="Accesses the only instance of ErrorDisplay (Singleton)">
<polygon fill="white" stroke="#666666" points="272.38,-20 159.62,-20 159.62,0 272.38,0 272.38,-20"/>
<text text-anchor="middle" x="216" y="-6.5" font-family="Helvetica,sans-Serif" font-size="10.00">ErrorDisplay::instance</text>
</a>
</g>
</g>
<!-- Node1&#45;&gt;Node3 -->
<g id="edge2_Node000001_Node000003" class="edge">
<title>Node1&#45;&gt;Node3</title>
<g id="a_edge2_Node000001_Node000003"><a xlink:title=" ">
<path fill="none" stroke="#63b8ff" d="M122.62,-21.49C131.09,-20.44 139.83,-19.35 148.4,-18.28"/>
<polygon fill="#63b8ff" stroke="#63b8ff" points="148.54,-21.79 158.03,-17.09 147.68,-14.85 148.54,-21.79"/>
</a>
</g>
</g>
</g>
</svg>
