<?xml version="1.0" encoding="UTF-8" standalone="no"?>
<!DOCTYPE svg PUBLIC "-//W3C//DTD SVG 1.1//EN"
 "http://www.w3.org/Graphics/SVG/1.1/DTD/svg11.dtd">
<!-- Generated by graphviz version 12.1.2 (20240928.0832)
 -->
<!-- Title: FlashStorage::readFileHeader Pages: 1 -->
<svg width="813pt" height="66pt"
 viewBox="0.00 0.00 812.75 66.00" xmlns="http://www.w3.org/2000/svg" xmlns:xlink="http://www.w3.org/1999/xlink">
<g id="graph0" class="graph" transform="scale(1 1) rotate(0) translate(4 62)">
<title>FlashStorage::readFileHeader</title>
<!-- Node1 -->
<g id="Node000001" class="node">
<title>Node1</title>
<g id="a_Node000001"><a xlink:title="Determines if the first 4 bytes of a sector are a file header.">
<polygon fill="#999999" stroke="#666666" points="804.75,-39 659,-39 659,-19 804.75,-19 804.75,-39"/>
<text text-anchor="middle" x="731.88" y="-25.5" font-family="Helvetica,sans-Serif" font-size="10.00">FlashStorage::readFileHeader</text>
</a>
</g>
</g>
<!-- Node2 -->
<g id="Node000002" class="node">
<title>Node2</title>
<g id="a_Node000002"><a xlink:href="classFlashStorage.html#a959ed7240cf70430f05686720e1ead5a" target="_top" xlink:title="Locates the next available file block &amp; tracks existing files.">
<polygon fill="white" stroke="#666666" points="623,-39 496,-39 496,-19 623,-19 623,-39"/>
<text text-anchor="middle" x="559.5" y="-25.5" font-family="Helvetica,sans-Serif" font-size="10.00">FlashStorage::indexFlash</text>
</a>
</g>
</g>
<!-- Node1&#45;&gt;Node2 -->
<g id="edge1_Node000001_Node000002" class="edge">
<title>Node1&#45;&gt;Node2</title>
<g id="a_edge1_Node000001_Node000002"><a xlink:title=" ">
<path fill="none" stroke="#63b8ff" d="M647.31,-29C639.27,-29 631.22,-29 623.43,-29"/>
<polygon fill="#63b8ff" stroke="#63b8ff" points="647.11,-32.5 657.11,-29 647.11,-25.5 647.11,-32.5"/>
</a>
</g>
</g>
<!-- Node3 -->
<g id="Node000003" class="node">
<title>Node3</title>
<g id="a_Node000003"><a xlink:href="classFlashStorage.html#ad024a499e7eb8774a26f46369f50ad05" target="_top" xlink:title=" ">
<polygon fill="white" stroke="#666666" points="460,-58 335.25,-58 335.25,-38 460,-38 460,-58"/>
<text text-anchor="middle" x="397.62" y="-44.5" font-family="Helvetica,sans-Serif" font-size="10.00">FlashStorage::reinitFlash</text>
</a>
</g>
</g>
<!-- Node2&#45;&gt;Node3 -->
<g id="edge2_Node000002_Node000003" class="edge">
<title>Node2&#45;&gt;Node3</title>
<g id="a_edge2_Node000002_Node000003"><a xlink:title=" ">
<path fill="none" stroke="#63b8ff" d="M484.47,-37.8C476.41,-38.76 468.27,-39.72 460.39,-40.66"/>
<polygon fill="#63b8ff" stroke="#63b8ff" points="484.75,-41.29 494.27,-36.63 483.93,-34.34 484.75,-41.29"/>
</a>
</g>
</g>
<!-- Node7 -->
<g id="Node000007" class="node">
<title>Node7</title>
<g id="a_Node000007"><a xlink:href="classFlashStorage.html#addf2a0a14a0a92ccce2d55eac60282e4" target="_top" xlink:title="Verifies the flash connection and prepares for data storage.">
<polygon fill="white" stroke="#666666" points="449.5,-20 345.75,-20 345.75,0 449.5,0 449.5,-20"/>
<text text-anchor="middle" x="397.62" y="-6.5" font-family="Helvetica,sans-Serif" font-size="10.00">FlashStorage::verify</text>
</a>
</g>
</g>
<!-- Node2&#45;&gt;Node7 -->
<g id="edge7_Node000002_Node000007" class="edge">
<title>Node2&#45;&gt;Node7</title>
<g id="a_edge7_Node000002_Node000007"><a xlink:title=" ">
<path fill="none" stroke="#63b8ff" d="M484.59,-20.22C472.84,-18.82 460.91,-17.4 449.84,-16.09"/>
<polygon fill="#63b8ff" stroke="#63b8ff" points="483.93,-23.66 494.27,-21.37 484.75,-16.71 483.93,-23.66"/>
</a>
</g>
</g>
<!-- Node4 -->
<g id="Node000004" class="node">
<title>Node4</title>
<g id="a_Node000004"><a xlink:href="main1_8cpp.html#a5d5c43a90af6e8b0e11c818a7e1681e7" target="_top" xlink:title="Loop for core 1.">
<polygon fill="white" stroke="#666666" points="135.5,-58 75.25,-58 75.25,-38 135.5,-38 135.5,-58"/>
<text text-anchor="middle" x="105.38" y="-44.5" font-family="Helvetica,sans-Serif" font-size="10.00">real_loop1</text>
</a>
</g>
</g>
<!-- Node3&#45;&gt;Node4 -->
<g id="edge3_Node000003_Node000004" class="edge">
<title>Node3&#45;&gt;Node4</title>
<g id="a_edge3_Node000003_Node000004"><a xlink:title=" ">
<path fill="none" stroke="#63b8ff" d="M323.63,-48C262.93,-48 179.66,-48 135.94,-48"/>
<polygon fill="#63b8ff" stroke="#63b8ff" points="323.56,-51.5 333.56,-48 323.56,-44.5 323.56,-51.5"/>
</a>
</g>
</g>
<!-- Node6 -->
<g id="Node000006" class="node">
<title>Node6</title>
<g id="a_Node000006"><a xlink:href="classFlashStorage.html#ad8daa31feba03cb7d02efb3124962f20" target="_top" xlink:title="Deletes a file by erasing the sectors it occupies.">
<polygon fill="white" stroke="#666666" points="299.25,-39 171.5,-39 171.5,-19 299.25,-19 299.25,-39"/>
<text text-anchor="middle" x="235.38" y="-25.5" font-family="Helvetica,sans-Serif" font-size="10.00">FlashStorage::removeFile</text>
</a>
</g>
</g>
<!-- Node3&#45;&gt;Node6 -->
<g id="edge5_Node000003_Node000006" class="edge">
<title>Node3&#45;&gt;Node6</title>
<g id="a_edge5_Node000003_Node000006"><a xlink:title=" ">
<path fill="none" stroke="#63b8ff" d="M323.79,-39.36C315.71,-38.41 307.52,-37.44 299.57,-36.49"/>
<polygon fill="#63b8ff" stroke="#63b8ff" points="323.28,-42.83 333.62,-40.53 324.11,-35.88 323.28,-42.83"/>
</a>
</g>
</g>
<!-- Node5 -->
<g id="Node000005" class="node">
<title>Node5</title>
<g id="a_Node000005"><a xlink:href="main_8cpp.html#a39ceba300a80e348e278539f57e0ca79" target="_top" xlink:title=" ">
<polygon fill="white" stroke="#666666" points="39.25,-58 0,-58 0,-38 39.25,-38 39.25,-58"/>
<text text-anchor="middle" x="19.62" y="-44.5" font-family="Helvetica,sans-Serif" font-size="10.00">loop1</text>
</a>
</g>
</g>
<!-- Node4&#45;&gt;Node5 -->
<g id="edge4_Node000004_Node000005" class="edge">
<title>Node4&#45;&gt;Node5</title>
<g id="a_edge4_Node000004_Node000005"><a xlink:title=" ">
<path fill="none" stroke="#63b8ff" d="M63.73,-48C55.27,-48 46.75,-48 39.55,-48"/>
<polygon fill="#63b8ff" stroke="#63b8ff" points="63.57,-51.5 73.57,-48 63.57,-44.5 63.57,-51.5"/>
</a>
</g>
</g>
<!-- Node6&#45;&gt;Node4 -->
<g id="edge6_Node000006_Node000004" class="edge">
<title>Node6&#45;&gt;Node4</title>
<g id="a_edge6_Node000006_Node000004"><a xlink:title=" ">
<path fill="none" stroke="#63b8ff" d="M159.88,-40.06C151.4,-41.32 143.17,-42.54 135.82,-43.63"/>
<polygon fill="#63b8ff" stroke="#63b8ff" points="160.25,-43.54 169.63,-38.61 159.22,-36.62 160.25,-43.54"/>
</a>
</g>
</g>
</g>
</svg>
