<?xml version="1.0" encoding="UTF-8" standalone="no"?>
<!DOCTYPE svg PUBLIC "-//W3C//DTD SVG 1.1//EN"
 "http://www.w3.org/Graphics/SVG/1.1/DTD/svg11.dtd">
<!-- Generated by graphviz version 12.1.2 (20240928.0832)
 -->
<!-- Title: Sensor Pages: 1 -->
<svg width="442pt" height="629pt"
 viewBox="0.00 0.00 442.47 629.00" xmlns="http://www.w3.org/2000/svg" xmlns:xlink="http://www.w3.org/1999/xlink">
<g id="graph0" class="graph" transform="scale(1 1) rotate(0) translate(4 625)">
<title>Sensor</title>
<!-- Node1 -->
<g id="Node000001" class="node">
<title>Node1</title>
<g id="a_Node000001"><a xlink:title="Parent class for sensor objects.">
<polygon fill="#999999" stroke="none" points="315,-292 195,-292 195,0 315,0 315,-292"/>
<text text-anchor="start" x="239.62" y="-278.5" font-family="Helvetica,sans-Serif" font-size="10.00">Sensor</text>
<text text-anchor="start" x="253.5" y="-262.5" font-family="Helvetica,sans-Serif" font-size="10.00"> </text>
<text text-anchor="start" x="199" y="-246.5" font-family="Helvetica,sans-Serif" font-size="10.00">+</text>
<text text-anchor="start" x="209" y="-246.5" font-family="Helvetica,sans-Serif" font-size="10.00">Sensor()</text>
<text text-anchor="start" x="199" y="-230.5" font-family="Helvetica,sans-Serif" font-size="10.00">+</text>
<text text-anchor="start" x="209" y="-230.5" font-family="Helvetica,sans-Serif" font-size="10.00">Sensor()</text>
<text text-anchor="start" x="199" y="-214.5" font-family="Helvetica,sans-Serif" font-size="10.00">+</text>
<text text-anchor="start" x="209" y="-214.5" font-family="Helvetica,sans-Serif" font-size="10.00">Sensor()</text>
<text text-anchor="start" x="199" y="-198.5" font-family="Helvetica,sans-Serif" font-size="10.00">+</text>
<text text-anchor="start" x="209" y="-198.5" font-family="Helvetica,sans-Serif" font-size="10.00">Sensor()</text>
<text text-anchor="start" x="199" y="-182.5" font-family="Helvetica,sans-Serif" font-size="10.00">+</text>
<text text-anchor="start" x="209" y="-182.5" font-family="Helvetica,sans-Serif" font-size="10.00">getPeriod()</text>
<text text-anchor="start" x="199" y="-166.5" font-family="Helvetica,sans-Serif" font-size="10.00">+</text>
<text text-anchor="start" x="209" y="-166.5" font-family="Helvetica,sans-Serif" font-size="10.00">setPeriod()</text>
<text text-anchor="start" x="199" y="-150.5" font-family="Helvetica,sans-Serif" font-size="10.00">+</text>
<text text-anchor="start" x="209" y="-150.5" font-family="Helvetica,sans-Serif" font-size="10.00">getLastExecution()</text>
<text text-anchor="start" x="199" y="-134.5" font-family="Helvetica,sans-Serif" font-size="10.00">+</text>
<text text-anchor="start" x="209" y="-134.5" font-family="Helvetica,sans-Serif" font-size="10.00">setLastExecution()</text>
<text text-anchor="start" x="199" y="-118.5" font-family="Helvetica,sans-Serif" font-size="10.00">+</text>
<text text-anchor="start" x="209" y="-118.5" font-family="Helvetica,sans-Serif" font-size="10.00">getSensorCSVHeader()</text>
<text text-anchor="start" x="199" y="-102.5" font-family="Helvetica,sans-Serif" font-size="10.00">+</text>
<text text-anchor="start" x="209" y="-102.5" font-family="Helvetica,sans-Serif" font-size="10.00">verify()</text>
<text text-anchor="start" x="199" y="-86.5" font-family="Helvetica,sans-Serif" font-size="10.00">+</text>
<text text-anchor="start" x="209" y="-86.5" font-family="Helvetica,sans-Serif" font-size="10.00">readData()</text>
<text text-anchor="start" x="199" y="-70.5" font-family="Helvetica,sans-Serif" font-size="10.00">+</text>
<text text-anchor="start" x="209" y="-70.5" font-family="Helvetica,sans-Serif" font-size="10.00">readDataPacket()</text>
<text text-anchor="start" x="199" y="-54.5" font-family="Helvetica,sans-Serif" font-size="10.00">+</text>
<text text-anchor="start" x="209" y="-54.5" font-family="Helvetica,sans-Serif" font-size="10.00">decodeToCSV()</text>
<text text-anchor="start" x="199" y="-38.5" font-family="Helvetica,sans-Serif" font-size="10.00">+</text>
<text text-anchor="start" x="209" y="-38.5" font-family="Helvetica,sans-Serif" font-size="10.00">getDataPacket()</text>
<text text-anchor="start" x="199" y="-22.5" font-family="Helvetica,sans-Serif" font-size="10.00">+</text>
<text text-anchor="start" x="209" y="-22.5" font-family="Helvetica,sans-Serif" font-size="10.00">readEmpty()</text>
<text text-anchor="start" x="199" y="-6.5" font-family="Helvetica,sans-Serif" font-size="10.00">+</text>
<text text-anchor="start" x="209" y="-6.5" font-family="Helvetica,sans-Serif" font-size="10.00">getDataCSV()</text>
<polygon fill="#666666" stroke="#666666" points="195,-274 195,-274 315,-274 315,-274 195,-274"/>
<polygon fill="#666666" stroke="#666666" points="195,-258 195,-258 315,-258 315,-258 195,-258"/>
<polygon fill="none" stroke="#666666" points="195,0 195,-292 315,-292 315,0 195,0"/>
</a>
</g>
</g>
<!-- Node2 -->
<g id="Node000002" class="node">
<title>Node2</title>
<g id="a_Node000002"><a xlink:href="classDevice.html" target="_top" xlink:title="Implements the recovery system for Sensor and Storage objects.">
<polygon fill="white" stroke="none" points="242,-509 136,-509 136,-329 242,-329 242,-509"/>
<text text-anchor="start" x="173.62" y="-495.5" font-family="Helvetica,sans-Serif" font-size="10.00">Device</text>
<text text-anchor="start" x="187.5" y="-479.5" font-family="Helvetica,sans-Serif" font-size="10.00"> </text>
<text text-anchor="start" x="140" y="-463.5" font-family="Helvetica,sans-Serif" font-size="10.00">+</text>
<text text-anchor="start" x="150" y="-463.5" font-family="Helvetica,sans-Serif" font-size="10.00">Device()</text>
<text text-anchor="start" x="140" y="-447.5" font-family="Helvetica,sans-Serif" font-size="10.00">+</text>
<text text-anchor="start" x="150" y="-447.5" font-family="Helvetica,sans-Serif" font-size="10.00">Device()</text>
<text text-anchor="start" x="140" y="-431.5" font-family="Helvetica,sans-Serif" font-size="10.00">+</text>
<text text-anchor="start" x="150" y="-431.5" font-family="Helvetica,sans-Serif" font-size="10.00">getDeviceName()</text>
<text text-anchor="start" x="140" y="-415.5" font-family="Helvetica,sans-Serif" font-size="10.00">+</text>
<text text-anchor="start" x="150" y="-415.5" font-family="Helvetica,sans-Serif" font-size="10.00">verify()</text>
<text text-anchor="start" x="140" y="-399.5" font-family="Helvetica,sans-Serif" font-size="10.00">+</text>
<text text-anchor="start" x="150" y="-399.5" font-family="Helvetica,sans-Serif" font-size="10.00">getVerified()</text>
<text text-anchor="start" x="140" y="-383.5" font-family="Helvetica,sans-Serif" font-size="10.00">+</text>
<text text-anchor="start" x="150" y="-383.5" font-family="Helvetica,sans-Serif" font-size="10.00">recoveryConfig()</text>
<text text-anchor="start" x="140" y="-367.5" font-family="Helvetica,sans-Serif" font-size="10.00">+</text>
<text text-anchor="start" x="150" y="-367.5" font-family="Helvetica,sans-Serif" font-size="10.00">setWaitFactor()</text>
<text text-anchor="start" x="140" y="-351.5" font-family="Helvetica,sans-Serif" font-size="10.00">+</text>
<text text-anchor="start" x="150" y="-351.5" font-family="Helvetica,sans-Serif" font-size="10.00">setMaxAttempts()</text>
<text text-anchor="start" x="140" y="-335.5" font-family="Helvetica,sans-Serif" font-size="10.00">+</text>
<text text-anchor="start" x="150" y="-335.5" font-family="Helvetica,sans-Serif" font-size="10.00">attemptConnection()</text>
<polygon fill="#666666" stroke="#666666" points="136,-491 136,-491 242,-491 242,-491 136,-491"/>
<polygon fill="#666666" stroke="#666666" points="136,-475 136,-475 242,-475 242,-475 136,-475"/>
<polygon fill="none" stroke="#666666" points="136,-329 136,-509 242,-509 242,-329 136,-329"/>
</a>
</g>
</g>
<!-- Node2&#45;&gt;Node1 -->
<g id="edge1_Node000001_Node000002" class="edge">
<title>Node2&#45;&gt;Node1</title>
<g id="a_edge1_Node000001_Node000002"><a xlink:title=" ">
<path fill="none" stroke="#63b8ff" d="M213.33,-318.12C215.42,-309.53 217.56,-300.75 219.71,-291.91"/>
<polygon fill="none" stroke="#63b8ff" points="209.93,-317.25 210.97,-327.79 216.74,-318.91 209.93,-317.25"/>
</a>
</g>
</g>
<!-- Node3 -->
<g id="Node000003" class="node">
<title>Node3</title>
<g id="a_Node000003"><a xlink:title=" ">
<polygon fill="white" stroke="none" points="70,-621 0,-621 0,-569 70,-569 70,-621"/>
<text text-anchor="start" x="5" y="-607.5" font-family="Helvetica,sans-Serif" font-size="10.00">unsigned long</text>
<text text-anchor="start" x="33.5" y="-591.5" font-family="Helvetica,sans-Serif" font-size="10.00"> </text>
<text text-anchor="start" x="33.5" y="-575.5" font-family="Helvetica,sans-Serif" font-size="10.00"> </text>
<polygon fill="#666666" stroke="#666666" points="0,-603 0,-603 70,-603 70,-603 0,-603"/>
<polygon fill="#666666" stroke="#666666" points="0,-587 0,-587 70,-587 70,-587 0,-587"/>
<polygon fill="none" stroke="#666666" points="0,-569 0,-621 70,-621 70,-569 0,-569"/>
</a>
</g>
</g>
<!-- Node3&#45;&gt;Node1 -->
<g id="edge6_Node000001_Node000003" class="edge">
<title>Node3&#45;&gt;Node1</title>
<g id="a_edge6_Node000001_Node000003"><a xlink:title=" ">
<path fill="none" stroke="#63b8ff" d="M30.74,-569.06C23.61,-520.15 13.64,-409.45 52.75,-329 81.39,-270.08 138.36,-221.58 184.56,-189.51"/>
<polygon fill="none" stroke="#63b8ff" points="184.47,-189.57 187.19,-182.88 194.4,-182.82 191.69,-189.5 184.47,-189.57"/>
</a>
</g>
<text text-anchor="middle" x="89.88" y="-421.5" font-family="Helvetica,sans-Serif" font-size="10.00" fill="grey"> &#45;last_execution</text>
<text text-anchor="middle" x="89.88" y="-409.5" font-family="Helvetica,sans-Serif" font-size="10.00" fill="grey">&#45;minimum_period</text>
</g>
<!-- Node3&#45;&gt;Node2 -->
<g id="edge2_Node000002_Node000003" class="edge">
<title>Node3&#45;&gt;Node2</title>
<g id="a_edge2_Node000002_Node000003"><a xlink:title=" ">
<path fill="none" stroke="#63b8ff" d="M48.57,-569.12C56.19,-556.04 66.3,-540.06 77,-527 84.37,-518 87.58,-517.02 96,-509 106.04,-499.44 116.67,-489.29 127.02,-479.4"/>
<polygon fill="none" stroke="#63b8ff" points="127.09,-479.33 128.67,-472.29 135.77,-471.03 134.2,-478.07 127.09,-479.33"/>
</a>
</g>
<text text-anchor="middle" x="107" y="-541.5" font-family="Helvetica,sans-Serif" font-size="10.00" fill="grey"> &#45;last_attempt</text>
<text text-anchor="middle" x="107" y="-529.5" font-family="Helvetica,sans-Serif" font-size="10.00" fill="grey">&#45;wait_factor</text>
</g>
<!-- Node4 -->
<g id="Node000004" class="node">
<title>Node4</title>
<g id="a_Node000004"><a xlink:title=" ">
<polygon fill="white" stroke="none" points="367,-621 347,-621 347,-569 367,-569 367,-621"/>
<text text-anchor="start" x="351.75" y="-607.5" font-family="Helvetica,sans-Serif" font-size="10.00">int</text>
<text text-anchor="start" x="355.5" y="-591.5" font-family="Helvetica,sans-Serif" font-size="10.00"> </text>
<text text-anchor="start" x="355.5" y="-575.5" font-family="Helvetica,sans-Serif" font-size="10.00"> </text>
<polygon fill="#666666" stroke="#666666" points="347,-603 347,-603 367,-603 367,-603 347,-603"/>
<polygon fill="#666666" stroke="#666666" points="347,-587 347,-587 367,-587 367,-587 347,-587"/>
<polygon fill="none" stroke="#666666" points="347,-569 347,-621 367,-621 367,-569 347,-569"/>
</a>
</g>
</g>
<!-- Node4&#45;&gt;Node1 -->
<g id="edge8_Node000001_Node000004" class="edge">
<title>Node4&#45;&gt;Node1</title>
<g id="a_edge8_Node000001_Node000004"><a xlink:title=" ">
<path fill="none" stroke="#63b8ff" d="M366.83,-581.25C372.48,-573.09 379.03,-562.01 382,-551 384.78,-540.7 383.51,-537.56 382,-527 370.89,-449.54 345.02,-366.78 319.51,-298.33"/>
<polygon fill="none" stroke="#63b8ff" points="319.47,-298.24 313.61,-294.03 315.24,-287.01 321.1,-291.21 319.47,-298.24"/>
</a>
</g>
<text text-anchor="middle" x="406.72" y="-415.5" font-family="Helvetica,sans-Serif" font-size="10.00" fill="grey"> #num_fields</text>
</g>
<!-- Node4&#45;&gt;Node2 -->
<g id="edge3_Node000002_Node000004" class="edge">
<title>Node4&#45;&gt;Node2</title>
<g id="a_edge3_Node000002_Node000004"><a xlink:title=" ">
<path fill="none" stroke="#63b8ff" d="M347.19,-586.92C328.38,-573.12 286.42,-541.11 256,-509 254.05,-506.95 252.11,-504.84 250.18,-502.68"/>
<polygon fill="none" stroke="#63b8ff" points="250.25,-502.76 243.29,-500.85 242.38,-493.7 249.33,-495.61 250.25,-502.76"/>
</a>
</g>
<text text-anchor="middle" x="339.26" y="-541.5" font-family="Helvetica,sans-Serif" font-size="10.00" fill="grey"> &#45;attempt_number</text>
<text text-anchor="middle" x="339.26" y="-529.5" font-family="Helvetica,sans-Serif" font-size="10.00" fill="grey">&#45;max_attempts</text>
</g>
<!-- Node5 -->
<g id="Node000005" class="node">
<title>Node5</title>
<g id="a_Node000005"><a xlink:title=" ">
<polygon fill="white" stroke="none" points="148,-621 120,-621 120,-569 148,-569 148,-621"/>
<text text-anchor="start" x="125" y="-607.5" font-family="Helvetica,sans-Serif" font-size="10.00">bool</text>
<text text-anchor="start" x="132.5" y="-591.5" font-family="Helvetica,sans-Serif" font-size="10.00"> </text>
<text text-anchor="start" x="132.5" y="-575.5" font-family="Helvetica,sans-Serif" font-size="10.00"> </text>
<polygon fill="#666666" stroke="#666666" points="120,-603 120,-603 148,-603 148,-603 120,-603"/>
<polygon fill="#666666" stroke="#666666" points="120,-587 120,-587 148,-587 148,-587 120,-587"/>
<polygon fill="none" stroke="#666666" points="120,-569 120,-621 148,-621 148,-569 120,-569"/>
</a>
</g>
</g>
<!-- Node5&#45;&gt;Node2 -->
<g id="edge4_Node000002_Node000005" class="edge">
<title>Node5&#45;&gt;Node2</title>
<g id="a_edge4_Node000002_Node000005"><a xlink:title=" ">
<path fill="none" stroke="#63b8ff" d="M137.32,-569.23C139.34,-556.47 142.29,-540.75 146.25,-527 146.81,-525.04 147.4,-523.08 148.01,-521.1"/>
<polygon fill="none" stroke="#63b8ff" points="147.99,-521.14 146.03,-514.2 151.68,-509.72 153.64,-516.66 147.99,-521.14"/>
</a>
</g>
<text text-anchor="middle" x="166.12" y="-535.5" font-family="Helvetica,sans-Serif" font-size="10.00" fill="grey"> #verified</text>
</g>
<!-- Node6 -->
<g id="Node000006" class="node">
<title>Node6</title>
<g id="a_Node000006"><a xlink:title=" ">
<polygon fill="white" stroke="none" points="254.5,-621 219.5,-621 219.5,-569 254.5,-569 254.5,-621"/>
<text text-anchor="start" x="224.25" y="-607.5" font-family="Helvetica,sans-Serif" font-size="10.00">String</text>
<text text-anchor="start" x="235.5" y="-591.5" font-family="Helvetica,sans-Serif" font-size="10.00"> </text>
<text text-anchor="start" x="235.5" y="-575.5" font-family="Helvetica,sans-Serif" font-size="10.00"> </text>
<polygon fill="#666666" stroke="#666666" points="219.5,-603 219.5,-603 254.5,-603 254.5,-603 219.5,-603"/>
<polygon fill="#666666" stroke="#666666" points="219.5,-587 219.5,-587 254.5,-587 254.5,-587 219.5,-587"/>
<polygon fill="none" stroke="#666666" points="219.5,-569 219.5,-621 254.5,-621 254.5,-569 219.5,-569"/>
</a>
</g>
</g>
<!-- Node6&#45;&gt;Node1 -->
<g id="edge7_Node000001_Node000006" class="edge">
<title>Node6&#45;&gt;Node1</title>
<g id="a_edge7_Node000001_Node000006"><a xlink:title=" ">
<path fill="none" stroke="#63b8ff" d="M254.41,-571.49C258.34,-565.19 261.95,-558.12 264,-551 266.95,-540.75 264.13,-537.67 264,-527 263.14,-454.01 261.34,-373.14 259.57,-304.84"/>
<polygon fill="none" stroke="#63b8ff" points="259.57,-304.69 255.42,-298.8 259.26,-292.69 263.41,-298.59 259.57,-304.69"/>
</a>
</g>
<text text-anchor="middle" x="291.89" y="-421.5" font-family="Helvetica,sans-Serif" font-size="10.00" fill="grey"> &#45;csv_header</text>
<text text-anchor="middle" x="291.89" y="-409.5" font-family="Helvetica,sans-Serif" font-size="10.00" fill="grey">&#45;empty_csv</text>
</g>
<!-- Node6&#45;&gt;Node2 -->
<g id="edge5_Node000002_Node000006" class="edge">
<title>Node6&#45;&gt;Node2</title>
<g id="a_edge5_Node000002_Node000006"><a xlink:title=" ">
<path fill="none" stroke="#63b8ff" d="M219.69,-579.91C211.6,-572.27 202.74,-562.13 198,-551 194.07,-541.78 191.23,-531.87 189.22,-521.77"/>
<polygon fill="none" stroke="#63b8ff" points="189.19,-521.65 184.27,-516.38 187.23,-509.81 192.16,-515.07 189.19,-521.65"/>
</a>
</g>
<text text-anchor="middle" x="231" y="-535.5" font-family="Helvetica,sans-Serif" font-size="10.00" fill="grey"> #device_name</text>
</g>
</g>
</svg>
