<?xml version="1.0" encoding="UTF-8" standalone="no"?>
<!DOCTYPE svg PUBLIC "-//W3C//DTD SVG 1.1//EN"
 "http://www.w3.org/Graphics/SVG/1.1/DTD/svg11.dtd">
<!-- Generated by graphviz version 2.43.0 (0)
 -->
<!-- Title: ENS160Sensor::readDataPacket Pages: 1 -->
<svg width="543pt" height="27pt"
 viewBox="0.00 0.00 543.00 27.00" xmlns="http://www.w3.org/2000/svg" xmlns:xlink="http://www.w3.org/1999/xlink">
<g id="graph0" class="graph" transform="scale(1 1) rotate(0) translate(4 23)">
<title>ENS160Sensor::readDataPacket</title>
<!-- Node1 -->
<g id="Node000001" class="node">
<title>Node1</title>
<g id="a_Node000001"><a xlink:title="Used for creating packets, reads data from the sensor and appends it to the passed uint8_t array poin...">
<polygon fill="#999999" stroke="#666666" points="170,-19 0,-19 0,0 170,0 170,-19"/>
<text text-anchor="middle" x="85" y="-7" font-family="Helvetica,sans-Serif" font-size="10.00">ENS160Sensor::readDataPacket</text>
</a>
</g>
</g>
<!-- Node2 -->
<g id="Node000002" class="node">
<title>Node2</title>
<g id="a_Node000002"><a xlink:href="classENS160Sensor.html#a5e03973e403c57a3db24622a71d14455" target="_top" xlink:title=" ">
<polygon fill="white" stroke="#666666" points="390,-19 206,-19 206,0 390,0 390,-19"/>
<text text-anchor="middle" x="298" y="-7" font-family="Helvetica,sans-Serif" font-size="10.00">ENS160Sensor::setCompensations</text>
</a>
</g>
</g>
<!-- Node1&#45;&gt;Node2 -->
<g id="edge1_Node000001_Node000002" class="edge">
<title>Node1&#45;&gt;Node2</title>
<g id="a_edge1_Node000001_Node000002"><a xlink:title=" ">
<path fill="none" stroke="#63b8ff" d="M170.3,-9.5C178.72,-9.5 187.32,-9.5 195.89,-9.5"/>
<polygon fill="#63b8ff" stroke="#63b8ff" points="195.91,-13 205.91,-9.5 195.91,-6 195.91,-13"/>
</a>
</g>
</g>
<!-- Node3 -->
<g id="Node000003" class="node">
<title>Node3</title>
<g id="a_Node000003"><a xlink:href="classDevice.html#a030b016bedb9a917634091199a946c94" target="_top" xlink:title="Get if the Device is Verified.">
<polygon fill="white" stroke="#666666" points="535,-19 426,-19 426,0 535,0 535,-19"/>
<text text-anchor="middle" x="480.5" y="-7" font-family="Helvetica,sans-Serif" font-size="10.00">Device::getVerified</text>
</a>
</g>
</g>
<!-- Node2&#45;&gt;Node3 -->
<g id="edge2_Node000002_Node000003" class="edge">
<title>Node2&#45;&gt;Node3</title>
<g id="a_edge2_Node000002_Node000003"><a xlink:title=" ">
<path fill="none" stroke="#63b8ff" d="M390.04,-9.5C398.76,-9.5 407.47,-9.5 415.85,-9.5"/>
<polygon fill="#63b8ff" stroke="#63b8ff" points="415.88,-13 425.88,-9.5 415.88,-6 415.88,-13"/>
</a>
</g>
</g>
</g>
</svg>
