<?xml version="1.0" encoding="UTF-8" standalone="no"?>
<!DOCTYPE svg PUBLIC "-//W3C//DTD SVG 1.1//EN"
 "http://www.w3.org/Graphics/SVG/1.1/DTD/svg11.dtd">
<!-- Generated by graphviz version 2.43.0 (0)
 -->
<!-- Title: ENS160Sensor::readData Pages: 1 -->
<svg width="511pt" height="64pt"
 viewBox="0.00 0.00 511.00 64.00" xmlns="http://www.w3.org/2000/svg" xmlns:xlink="http://www.w3.org/1999/xlink">
<g id="graph0" class="graph" transform="scale(1 1) rotate(0) translate(4 60)">
<title>ENS160Sensor::readData</title>
<!-- Node1 -->
<g id="Node000001" class="node">
<title>Node1</title>
<g id="a_Node000001"><a xlink:title="Reads Air Quality Index, TVOC (ppb), and ECOS (ppm)">
<polygon fill="#999999" stroke="#666666" points="138,-37 0,-37 0,-18 138,-18 138,-37"/>
<text text-anchor="middle" x="69" y="-25" font-family="Helvetica,sans-Serif" font-size="10.00">ENS160Sensor::readData</text>
</a>
</g>
</g>
<!-- Node2 -->
<g id="Node000002" class="node">
<title>Node2</title>
<g id="a_Node000002"><a xlink:href="classSensor.html#a62d72a2f81422ac2d2fa8ae86ba08571" target="_top" xlink:title="Returns CSV line in the same format as readData() but with &quot;&#45;&quot; instead of data.">
<polygon fill="white" stroke="#666666" points="320.5,-56 211.5,-56 211.5,-37 320.5,-37 320.5,-56"/>
<text text-anchor="middle" x="266" y="-44" font-family="Helvetica,sans-Serif" font-size="10.00">Sensor::readEmpty</text>
</a>
</g>
</g>
<!-- Node1&#45;&gt;Node2 -->
<g id="edge1_Node000001_Node000002" class="edge">
<title>Node1&#45;&gt;Node2</title>
<g id="a_edge1_Node000001_Node000002"><a xlink:title=" ">
<path fill="none" stroke="#63b8ff" d="M138.2,-34.15C158.68,-36.14 181.07,-38.32 201.25,-40.29"/>
<polygon fill="#63b8ff" stroke="#63b8ff" points="200.98,-43.78 211.27,-41.26 201.66,-36.81 200.98,-43.78"/>
</a>
</g>
</g>
<!-- Node3 -->
<g id="Node000003" class="node">
<title>Node3</title>
<g id="a_Node000003"><a xlink:href="classENS160Sensor.html#a5e03973e403c57a3db24622a71d14455" target="_top" xlink:title=" ">
<polygon fill="white" stroke="#666666" points="358,-19 174,-19 174,0 358,0 358,-19"/>
<text text-anchor="middle" x="266" y="-7" font-family="Helvetica,sans-Serif" font-size="10.00">ENS160Sensor::setCompensations</text>
</a>
</g>
</g>
<!-- Node1&#45;&gt;Node3 -->
<g id="edge2_Node000001_Node000003" class="edge">
<title>Node1&#45;&gt;Node3</title>
<g id="a_edge2_Node000001_Node000003"><a xlink:title=" ">
<path fill="none" stroke="#63b8ff" d="M138.2,-21.2C146.49,-20.44 155.09,-19.65 163.73,-18.85"/>
<polygon fill="#63b8ff" stroke="#63b8ff" points="164.24,-22.32 173.87,-17.91 163.59,-15.35 164.24,-22.32"/>
</a>
</g>
</g>
<!-- Node4 -->
<g id="Node000004" class="node">
<title>Node4</title>
<g id="a_Node000004"><a xlink:href="classDevice.html#a030b016bedb9a917634091199a946c94" target="_top" xlink:title="Get if the Device is Verified.">
<polygon fill="white" stroke="#666666" points="503,-19 394,-19 394,0 503,0 503,-19"/>
<text text-anchor="middle" x="448.5" y="-7" font-family="Helvetica,sans-Serif" font-size="10.00">Device::getVerified</text>
</a>
</g>
</g>
<!-- Node3&#45;&gt;Node4 -->
<g id="edge3_Node000003_Node000004" class="edge">
<title>Node3&#45;&gt;Node4</title>
<g id="a_edge3_Node000003_Node000004"><a xlink:title=" ">
<path fill="none" stroke="#63b8ff" d="M358.04,-9.5C366.76,-9.5 375.47,-9.5 383.85,-9.5"/>
<polygon fill="#63b8ff" stroke="#63b8ff" points="383.88,-13 393.88,-9.5 383.88,-6 383.88,-13"/>
</a>
</g>
</g>
</g>
</svg>
