<?xml version="1.0" encoding="UTF-8" standalone="no"?>
<!DOCTYPE svg PUBLIC "-//W3C//DTD SVG 1.1//EN"
 "http://www.w3.org/Graphics/SVG/1.1/DTD/svg11.dtd">
<!-- Generated by graphviz version 12.1.2 (20240928.0832)
 -->
<!-- Title: getCmdData Pages: 1 -->
<svg width="280pt" height="104pt"
 viewBox="0.00 0.00 280.25 104.00" xmlns="http://www.w3.org/2000/svg" xmlns:xlink="http://www.w3.org/1999/xlink">
<g id="graph0" class="graph" transform="scale(1 1) rotate(0) translate(4 100)">
<title>getCmdData</title>
<!-- Node1 -->
<g id="Node000001" class="node">
<title>Node1</title>
<g id="a_Node000001"><a xlink:title=" ">
<polygon fill="#999999" stroke="#666666" points="272.25,-58 200.75,-58 200.75,-38 272.25,-38 272.25,-58"/>
<text text-anchor="middle" x="236.5" y="-44.5" font-family="Helvetica,sans-Serif" font-size="10.00">getCmdData</text>
</a>
</g>
</g>
<!-- Node2 -->
<g id="Node000002" class="node">
<title>Node2</title>
<g id="a_Node000002"><a xlink:href="main_8cpp.html#a76a2f3ef1d3b3d36284ea02246512daa" target="_top" xlink:title="Handle commands read from serial input.">
<polygon fill="white" stroke="#666666" points="164.75,-96 75.25,-96 75.25,-76 164.75,-76 164.75,-96"/>
<text text-anchor="middle" x="120" y="-82.5" font-family="Helvetica,sans-Serif" font-size="10.00">handleCommand</text>
</a>
</g>
</g>
<!-- Node1&#45;&gt;Node2 -->
<g id="edge1_Node000001_Node000002" class="edge">
<title>Node1&#45;&gt;Node2</title>
<g id="a_edge1_Node000001_Node000002"><a xlink:title=" ">
<path fill="none" stroke="#63b8ff" d="M192.98,-62.11C179.57,-66.56 164.99,-71.4 152.49,-75.55"/>
<polygon fill="#63b8ff" stroke="#63b8ff" points="194.08,-65.43 202.47,-58.96 191.88,-58.79 194.08,-65.43"/>
</a>
</g>
</g>
<!-- Node3 -->
<g id="Node000003" class="node">
<title>Node3</title>
<g id="a_Node000003"><a xlink:href="main_8cpp.html#afe461d27b9c48d5921c00d521181f12f" target="_top" xlink:title="Loop for core 0, handling sensor reads.">
<polygon fill="white" stroke="#666666" points="36.62,-77 2.62,-77 2.62,-57 36.62,-57 36.62,-77"/>
<text text-anchor="middle" x="19.62" y="-63.5" font-family="Helvetica,sans-Serif" font-size="10.00">loop</text>
</a>
</g>
</g>
<!-- Node1&#45;&gt;Node3 -->
<g id="edge3_Node000001_Node000003" class="edge">
<title>Node1&#45;&gt;Node3</title>
<g id="a_edge3_Node000001_Node000003"><a xlink:title=" ">
<path fill="none" stroke="#63b8ff" d="M189.17,-52.1C141.21,-56.34 68.92,-62.73 36.89,-65.56"/>
<polygon fill="#63b8ff" stroke="#63b8ff" points="189.34,-55.6 198.99,-51.23 188.72,-48.62 189.34,-55.6"/>
</a>
</g>
</g>
<!-- Node4 -->
<g id="Node000004" class="node">
<title>Node4</title>
<g id="a_Node000004"><a xlink:href="main1_8cpp.html#a5d5c43a90af6e8b0e11c818a7e1681e7" target="_top" xlink:title="Loop for core 1.">
<polygon fill="white" stroke="#666666" points="150.12,-20 89.88,-20 89.88,0 150.12,0 150.12,-20"/>
<text text-anchor="middle" x="120" y="-6.5" font-family="Helvetica,sans-Serif" font-size="10.00">real_loop1</text>
</a>
</g>
</g>
<!-- Node1&#45;&gt;Node4 -->
<g id="edge4_Node000001_Node000004" class="edge">
<title>Node1&#45;&gt;Node4</title>
<g id="a_edge4_Node000001_Node000004"><a xlink:title=" ">
<path fill="none" stroke="#63b8ff" d="M193.35,-34.01C179.13,-29.29 163.56,-24.12 150.52,-19.8"/>
<polygon fill="#63b8ff" stroke="#63b8ff" points="191.88,-37.21 202.47,-37.04 194.08,-30.57 191.88,-37.21"/>
</a>
</g>
</g>
<!-- Node2&#45;&gt;Node3 -->
<g id="edge2_Node000002_Node000003" class="edge">
<title>Node2&#45;&gt;Node3</title>
<g id="a_edge2_Node000002_Node000003"><a xlink:title=" ">
<path fill="none" stroke="#63b8ff" d="M63.88,-75.35C54.08,-73.46 44.6,-71.63 37.03,-70.17"/>
<polygon fill="#63b8ff" stroke="#63b8ff" points="63.02,-78.75 73.51,-77.21 64.35,-71.88 63.02,-78.75"/>
</a>
</g>
</g>
<!-- Node5 -->
<g id="Node000005" class="node">
<title>Node5</title>
<g id="a_Node000005"><a xlink:href="main_8cpp.html#a39ceba300a80e348e278539f57e0ca79" target="_top" xlink:title=" ">
<polygon fill="white" stroke="#666666" points="39.25,-20 0,-20 0,0 39.25,0 39.25,-20"/>
<text text-anchor="middle" x="19.62" y="-6.5" font-family="Helvetica,sans-Serif" font-size="10.00">loop1</text>
</a>
</g>
</g>
<!-- Node4&#45;&gt;Node5 -->
<g id="edge5_Node000004_Node000005" class="edge">
<title>Node4&#45;&gt;Node5</title>
<g id="a_edge5_Node000004_Node000005"><a xlink:title=" ">
<path fill="none" stroke="#63b8ff" d="M78.06,-10C64.7,-10 50.51,-10 39.57,-10"/>
<polygon fill="#63b8ff" stroke="#63b8ff" points="77.97,-13.5 87.97,-10 77.97,-6.5 77.97,-13.5"/>
</a>
</g>
</g>
</g>
</svg>
