<?xml version="1.0" encoding="UTF-8" standalone="no"?>
<!DOCTYPE svg PUBLIC "-//W3C//DTD SVG 1.1//EN"
 "http://www.w3.org/Graphics/SVG/1.1/DTD/svg11.dtd">
<!-- Generated by graphviz version 12.1.2 (20240928.0832)
 -->
<!-- Title: CommandMessage.cpp Pages: 1 -->
<svg width="180pt" height="140pt"
 viewBox="0.00 0.00 179.75 140.00" xmlns="http://www.w3.org/2000/svg" xmlns:xlink="http://www.w3.org/1999/xlink">
<g id="graph0" class="graph" transform="scale(1 1) rotate(0) translate(4 136)">
<title>CommandMessage.cpp</title>
<!-- Node1 -->
<g id="Node000001" class="node">
<title>Node1</title>
<g id="a_Node000001"><a xlink:title=" ">
<polygon fill="#999999" stroke="#666666" points="149.25,-132 29.75,-132 29.75,-112 149.25,-112 149.25,-132"/>
<text text-anchor="middle" x="89.5" y="-118.5" font-family="Helvetica,sans-Serif" font-size="10.00">CommandMessage.cpp</text>
</a>
</g>
</g>
<!-- Node2 -->
<g id="Node000002" class="node">
<title>Node2</title>
<g id="a_Node000002"><a xlink:href="CommandMessage_8h.html" target="_top" xlink:title=" ">
<polygon fill="white" stroke="#666666" points="144,-76 35,-76 35,-56 144,-56 144,-76"/>
<text text-anchor="middle" x="89.5" y="-62.5" font-family="Helvetica,sans-Serif" font-size="10.00">CommandMessage.h</text>
</a>
</g>
</g>
<!-- Node1&#45;&gt;Node2 -->
<g id="edge1_Node000001_Node000002" class="edge">
<title>Node1&#45;&gt;Node2</title>
<g id="a_edge1_Node000001_Node000002"><a xlink:title=" ">
<path fill="none" stroke="#63b8ff" d="M89.5,-111.59C89.5,-105.01 89.5,-95.96 89.5,-87.73"/>
<polygon fill="#63b8ff" stroke="#63b8ff" points="93,-87.81 89.5,-77.81 86,-87.81 93,-87.81"/>
</a>
</g>
</g>
<!-- Node3 -->
<g id="Node000003" class="node">
<title>Node3</title>
<g id="a_Node000003"><a xlink:title=" ">
<polygon fill="#e0e0e0" stroke="#999999" points="85,-20 0,-20 0,0 85,0 85,-20"/>
<text text-anchor="middle" x="42.5" y="-6.5" font-family="Helvetica,sans-Serif" font-size="10.00">pico/multicore.h</text>
</a>
</g>
</g>
<!-- Node2&#45;&gt;Node3 -->
<g id="edge2_Node000002_Node000003" class="edge">
<title>Node2&#45;&gt;Node3</title>
<g id="a_edge2_Node000002_Node000003"><a xlink:title=" ">
<path fill="none" stroke="#63b8ff" d="M81.31,-55.59C74.91,-48.24 65.82,-37.8 58.05,-28.87"/>
<polygon fill="#63b8ff" stroke="#63b8ff" points="60.79,-26.69 51.59,-21.44 55.51,-31.28 60.79,-26.69"/>
</a>
</g>
</g>
<!-- Node4 -->
<g id="Node000004" class="node">
<title>Node4</title>
<g id="a_Node000004"><a xlink:title=" ">
<polygon fill="#e0e0e0" stroke="#999999" points="171.75,-20 103.25,-20 103.25,0 171.75,0 171.75,-20"/>
<text text-anchor="middle" x="137.5" y="-6.5" font-family="Helvetica,sans-Serif" font-size="10.00">pico/stdlib.h</text>
</a>
</g>
</g>
<!-- Node2&#45;&gt;Node4 -->
<g id="edge3_Node000002_Node000004" class="edge">
<title>Node2&#45;&gt;Node4</title>
<g id="a_edge3_Node000002_Node000004"><a xlink:title=" ">
<path fill="none" stroke="#63b8ff" d="M97.86,-55.59C104.4,-48.24 113.68,-37.8 121.62,-28.87"/>
<polygon fill="#63b8ff" stroke="#63b8ff" points="124.2,-31.23 128.23,-21.43 118.97,-26.58 124.2,-31.23"/>
</a>
</g>
</g>
</g>
</svg>
