<?xml version="1.0" encoding="UTF-8" standalone="no"?>
<!DOCTYPE svg PUBLIC "-//W3C//DTD SVG 1.1//EN"
 "http://www.w3.org/Graphics/SVG/1.1/DTD/svg11.dtd">
<!-- Generated by graphviz version 2.43.0 (0)
 -->
<!-- Title: Device.h Pages: 1 -->
<svg width="1993pt" height="192pt"
 viewBox="0.00 0.00 1993.00 192.00" xmlns="http://www.w3.org/2000/svg" xmlns:xlink="http://www.w3.org/1999/xlink">
<g id="graph0" class="graph" transform="scale(1 1) rotate(0) translate(4 188)">
<title>Device.h</title>
<!-- Node1 -->
<g id="Node000001" class="node">
<title>Node1</title>
<g id="a_Node000001"><a xlink:title=" ">
<polygon fill="#999999" stroke="#666666" points="1262,-184 1203,-184 1203,-165 1262,-165 1262,-184"/>
<text text-anchor="middle" x="1232.5" y="-172" font-family="Helvetica,sans-Serif" font-size="10.00">Device.h</text>
</a>
</g>
</g>
<!-- Node2 -->
<g id="Node000002" class="node">
<title>Node2</title>
<g id="a_Node000002"><a xlink:href="Sensor_8h.html" target="_top" xlink:title=" ">
<polygon fill="white" stroke="#666666" points="853.5,-129 795.5,-129 795.5,-110 853.5,-110 853.5,-129"/>
<text text-anchor="middle" x="824.5" y="-117" font-family="Helvetica,sans-Serif" font-size="10.00">Sensor.h</text>
</a>
</g>
</g>
<!-- Node1&#45;&gt;Node2 -->
<g id="edge1_Node000001_Node000002" class="edge">
<title>Node1&#45;&gt;Node2</title>
<g id="a_edge1_Node000001_Node000002"><a xlink:title=" ">
<path fill="none" stroke="#63b8ff" d="M1192.68,-168.33C1110.79,-157.69 925.2,-133.58 853.51,-124.27"/>
<polygon fill="#63b8ff" stroke="#63b8ff" points="1192.46,-171.83 1202.83,-169.65 1193.36,-164.89 1192.46,-171.83"/>
</a>
</g>
</g>
<!-- Node28 -->
<g id="Node000028" class="node">
<title>Node28</title>
<g id="a_Node000028"><a xlink:href="Storage_8h.html" target="_top" xlink:title=" ">
<polygon fill="white" stroke="#666666" points="1742,-129 1679,-129 1679,-110 1742,-110 1742,-129"/>
<text text-anchor="middle" x="1710.5" y="-117" font-family="Helvetica,sans-Serif" font-size="10.00">Storage.h</text>
</a>
</g>
</g>
<!-- Node1&#45;&gt;Node28 -->
<g id="edge40_Node000001_Node000028" class="edge">
<title>Node1&#45;&gt;Node28</title>
<g id="a_edge40_Node000001_Node000028"><a xlink:title=" ">
<path fill="none" stroke="#63b8ff" d="M1272.14,-169.1C1364.96,-158.81 1594.85,-133.32 1678.99,-123.99"/>
<polygon fill="#63b8ff" stroke="#63b8ff" points="1271.59,-165.64 1262.04,-170.22 1272.37,-172.6 1271.59,-165.64"/>
</a>
</g>
</g>
<!-- Node3 -->
<g id="Node000003" class="node">
<title>Node3</title>
<g id="a_Node000003"><a xlink:href="AS7331Sensor_8h.html" target="_top" xlink:title=" ">
<polygon fill="white" stroke="#666666" points="1035,-74 940,-74 940,-55 1035,-55 1035,-74"/>
<text text-anchor="middle" x="987.5" y="-62" font-family="Helvetica,sans-Serif" font-size="10.00">AS7331Sensor.h</text>
</a>
</g>
</g>
<!-- Node2&#45;&gt;Node3 -->
<g id="edge2_Node000002_Node000003" class="edge">
<title>Node2&#45;&gt;Node3</title>
<g id="a_edge2_Node000002_Node000003"><a xlink:title=" ">
<path fill="none" stroke="#63b8ff" d="M860.49,-106.8C890.91,-96.91 933.78,-82.97 961.11,-74.08"/>
<polygon fill="#63b8ff" stroke="#63b8ff" points="859.12,-103.56 850.69,-109.98 861.28,-110.22 859.12,-103.56"/>
</a>
</g>
</g>
<!-- Node5 -->
<g id="Node000005" class="node">
<title>Node5</title>
<g id="a_Node000005"><a xlink:href="main_8cpp.html" target="_top" xlink:title="Main functions for Core 0, responsible for reading data from sensor peripherals.">
<polygon fill="white" stroke="#666666" points="683.5,-19 621.5,-19 621.5,0 683.5,0 683.5,-19"/>
<text text-anchor="middle" x="652.5" y="-7" font-family="Helvetica,sans-Serif" font-size="10.00">main.cpp</text>
</a>
</g>
</g>
<!-- Node2&#45;&gt;Node5 -->
<g id="edge39_Node000002_Node000005" class="edge">
<title>Node2&#45;&gt;Node5</title>
<g id="a_edge39_Node000002_Node000005"><a xlink:title=" ">
<path fill="none" stroke="#63b8ff" d="M785.74,-108.75C762.05,-101.59 731.91,-90.26 708.5,-74 686.29,-58.57 667.08,-32.52 658.03,-19.08"/>
<polygon fill="#63b8ff" stroke="#63b8ff" points="784.89,-112.14 795.46,-111.56 786.83,-105.42 784.89,-112.14"/>
</a>
</g>
</g>
<!-- Node6 -->
<g id="Node000006" class="node">
<title>Node6</title>
<g id="a_Node000006"><a xlink:href="AnalogTemp_8h.html" target="_top" xlink:title=" ">
<polygon fill="white" stroke="#666666" points="1520.5,-74 1434.5,-74 1434.5,-55 1520.5,-55 1520.5,-74"/>
<text text-anchor="middle" x="1477.5" y="-62" font-family="Helvetica,sans-Serif" font-size="10.00">AnalogTemp.h</text>
</a>
</g>
</g>
<!-- Node2&#45;&gt;Node6 -->
<g id="edge5_Node000002_Node000006" class="edge">
<title>Node2&#45;&gt;Node6</title>
<g id="a_edge5_Node000002_Node000006"><a xlink:title=" ">
<path fill="none" stroke="#63b8ff" d="M863.75,-115.81C956.48,-109.38 1196.4,-92.28 1396.5,-74 1408.75,-72.88 1422.03,-71.54 1434.22,-70.26"/>
<polygon fill="#63b8ff" stroke="#63b8ff" points="863.43,-112.33 853.69,-116.51 863.91,-119.31 863.43,-112.33"/>
</a>
</g>
</g>
<!-- Node8 -->
<g id="Node000008" class="node">
<title>Node8</title>
<g id="a_Node000008"><a xlink:href="BMP390Sensor_8h.html" target="_top" xlink:title=" ">
<polygon fill="white" stroke="#666666" points="1151.5,-74 1053.5,-74 1053.5,-55 1151.5,-55 1151.5,-74"/>
<text text-anchor="middle" x="1102.5" y="-62" font-family="Helvetica,sans-Serif" font-size="10.00">BMP390Sensor.h</text>
</a>
</g>
</g>
<!-- Node2&#45;&gt;Node8 -->
<g id="edge7_Node000002_Node000008" class="edge">
<title>Node2&#45;&gt;Node8</title>
<g id="a_edge7_Node000002_Node000008"><a xlink:title=" ">
<path fill="none" stroke="#63b8ff" d="M863.72,-111.02C914.83,-101.28 1003.99,-84.28 1057.71,-74.04"/>
<polygon fill="#63b8ff" stroke="#63b8ff" points="862.89,-107.62 853.73,-112.93 864.2,-114.49 862.89,-107.62"/>
</a>
</g>
</g>
<!-- Node10 -->
<g id="Node000010" class="node">
<title>Node10</title>
<g id="a_Node000010"><a xlink:href="ENS160Sensor_8h.html" target="_top" xlink:title=" ">
<polygon fill="white" stroke="#666666" points="554,-74 459,-74 459,-55 554,-55 554,-74"/>
<text text-anchor="middle" x="506.5" y="-62" font-family="Helvetica,sans-Serif" font-size="10.00">ENS160Sensor.h</text>
</a>
</g>
</g>
<!-- Node2&#45;&gt;Node10 -->
<g id="edge10_Node000002_Node000010" class="edge">
<title>Node2&#45;&gt;Node10</title>
<g id="a_edge10_Node000002_Node000010"><a xlink:title=" ">
<path fill="none" stroke="#63b8ff" d="M785.5,-112C727.09,-102.26 617.04,-83.92 554.02,-73.42"/>
<polygon fill="#63b8ff" stroke="#63b8ff" points="785,-115.46 795.44,-113.66 786.15,-108.56 785,-115.46"/>
</a>
</g>
</g>
<!-- Node12 -->
<g id="Node000012" class="node">
<title>Node12</title>
<g id="a_Node000012"><a xlink:href="ICM20948Sensor_8h.html" target="_top" xlink:title=" ">
<polygon fill="white" stroke="#666666" points="1277,-74 1170,-74 1170,-55 1277,-55 1277,-74"/>
<text text-anchor="middle" x="1223.5" y="-62" font-family="Helvetica,sans-Serif" font-size="10.00">ICM20948Sensor.h</text>
</a>
</g>
</g>
<!-- Node2&#45;&gt;Node12 -->
<g id="edge13_Node000002_Node000012" class="edge">
<title>Node2&#45;&gt;Node12</title>
<g id="a_edge13_Node000002_Node000012"><a xlink:title=" ">
<path fill="none" stroke="#63b8ff" d="M863.96,-113.31C926.74,-105.03 1053.26,-88.34 1160.5,-74 1163.56,-73.59 1166.71,-73.17 1169.88,-72.74"/>
<polygon fill="#63b8ff" stroke="#63b8ff" points="863.17,-109.88 853.72,-114.65 864.09,-116.82 863.17,-109.88"/>
</a>
</g>
</g>
<!-- Node14 -->
<g id="Node000014" class="node">
<title>Node14</title>
<g id="a_Node000014"><a xlink:href="INA260Sensor_8h.html" target="_top" xlink:title=" ">
<polygon fill="white" stroke="#666666" points="1388,-74 1295,-74 1295,-55 1388,-55 1388,-74"/>
<text text-anchor="middle" x="1341.5" y="-62" font-family="Helvetica,sans-Serif" font-size="10.00">INA260Sensor.h</text>
</a>
</g>
</g>
<!-- Node2&#45;&gt;Node14 -->
<g id="edge16_Node000002_Node000014" class="edge">
<title>Node2&#45;&gt;Node14</title>
<g id="a_edge16_Node000002_Node000014"><a xlink:title=" ">
<path fill="none" stroke="#63b8ff" d="M863.76,-115.44C943.42,-109.06 1129.71,-93.33 1285.5,-74 1288.53,-73.62 1291.64,-73.22 1294.78,-72.79"/>
<polygon fill="#63b8ff" stroke="#63b8ff" points="863.38,-111.95 853.69,-116.24 863.93,-118.93 863.38,-111.95"/>
</a>
</g>
</g>
<!-- Node16 -->
<g id="Node000016" class="node">
<title>Node16</title>
<g id="a_Node000016"><a xlink:href="MTK3339Sensor_8h.html" target="_top" xlink:title=" ">
<polygon fill="white" stroke="#666666" points="218.5,-74 114.5,-74 114.5,-55 218.5,-55 218.5,-74"/>
<text text-anchor="middle" x="166.5" y="-62" font-family="Helvetica,sans-Serif" font-size="10.00">MTK3339Sensor.h</text>
</a>
</g>
</g>
<!-- Node2&#45;&gt;Node16 -->
<g id="edge19_Node000002_Node000016" class="edge">
<title>Node2&#45;&gt;Node16</title>
<g id="a_edge19_Node000002_Node000016"><a xlink:title=" ">
<path fill="none" stroke="#63b8ff" d="M785.16,-116.44C689.5,-111.25 437.18,-96.4 227.5,-74 224.63,-73.69 221.69,-73.36 218.72,-73"/>
<polygon fill="#63b8ff" stroke="#63b8ff" points="785.07,-119.94 795.24,-116.98 785.45,-112.95 785.07,-119.94"/>
</a>
</g>
</g>
<!-- Node18 -->
<g id="Node000018" class="node">
<title>Node18</title>
<g id="a_Node000018"><a xlink:href="OzoneSensor_8h.html" target="_top" xlink:title=" ">
<polygon fill="white" stroke="#666666" points="661,-74 572,-74 572,-55 661,-55 661,-74"/>
<text text-anchor="middle" x="616.5" y="-62" font-family="Helvetica,sans-Serif" font-size="10.00">OzoneSensor.h</text>
</a>
</g>
</g>
<!-- Node2&#45;&gt;Node18 -->
<g id="edge22_Node000002_Node000018" class="edge">
<title>Node2&#45;&gt;Node18</title>
<g id="a_edge22_Node000002_Node000018"><a xlink:title=" ">
<path fill="none" stroke="#63b8ff" d="M785.2,-108.49C746.21,-98.55 687.09,-83.49 650.19,-74.08"/>
<polygon fill="#63b8ff" stroke="#63b8ff" points="784.59,-111.94 795.14,-111.02 786.31,-105.16 784.59,-111.94"/>
</a>
</g>
</g>
<!-- Node20 -->
<g id="Node000020" class="node">
<title>Node20</title>
<g id="a_Node000020"><a xlink:href="PCF8523Sensor_8h.html" target="_top" xlink:title=" ">
<polygon fill="white" stroke="#666666" points="819,-74 718,-74 718,-55 819,-55 819,-74"/>
<text text-anchor="middle" x="768.5" y="-62" font-family="Helvetica,sans-Serif" font-size="10.00">PCF8523Sensor.h</text>
</a>
</g>
</g>
<!-- Node2&#45;&gt;Node20 -->
<g id="edge25_Node000002_Node000020" class="edge">
<title>Node2&#45;&gt;Node20</title>
<g id="a_edge25_Node000002_Node000020"><a xlink:title=" ">
<path fill="none" stroke="#63b8ff" d="M808.17,-103.04C798.24,-93.64 785.91,-81.98 777.66,-74.17"/>
<polygon fill="#63b8ff" stroke="#63b8ff" points="805.83,-105.65 815.5,-109.98 810.65,-100.57 805.83,-105.65"/>
</a>
</g>
</g>
<!-- Node22 -->
<g id="Node000022" class="node">
<title>Node22</title>
<g id="a_Node000022"><a xlink:href="SHTC3Sensor_8h.html" target="_top" xlink:title=" ">
<polygon fill="white" stroke="#666666" points="326,-74 237,-74 237,-55 326,-55 326,-74"/>
<text text-anchor="middle" x="281.5" y="-62" font-family="Helvetica,sans-Serif" font-size="10.00">SHTC3Sensor.h</text>
</a>
</g>
</g>
<!-- Node2&#45;&gt;Node22 -->
<g id="edge28_Node000002_Node000022" class="edge">
<title>Node2&#45;&gt;Node22</title>
<g id="a_edge28_Node000002_Node000022"><a xlink:title=" ">
<path fill="none" stroke="#63b8ff" d="M785.42,-115.86C702.26,-110.05 501.73,-94.98 334.5,-74 331.73,-73.65 328.87,-73.27 326,-72.86"/>
<polygon fill="#63b8ff" stroke="#63b8ff" points="785.21,-119.36 795.43,-116.56 785.7,-112.37 785.21,-119.36"/>
</a>
</g>
</g>
<!-- Node24 -->
<g id="Node000024" class="node">
<title>Node24</title>
<g id="a_Node000024"><a xlink:href="TMP11xSensor_8h.html" target="_top" xlink:title=" ">
<polygon fill="white" stroke="#666666" points="441,-74 344,-74 344,-55 441,-55 441,-74"/>
<text text-anchor="middle" x="392.5" y="-62" font-family="Helvetica,sans-Serif" font-size="10.00">TMP11xSensor.h</text>
</a>
</g>
</g>
<!-- Node2&#45;&gt;Node24 -->
<g id="edge32_Node000002_Node000024" class="edge">
<title>Node2&#45;&gt;Node24</title>
<g id="a_edge32_Node000002_Node000024"><a xlink:title=" ">
<path fill="none" stroke="#63b8ff" d="M784.98,-114.2C716.56,-106.68 571.63,-90.35 449.5,-74 446.82,-73.64 444.08,-73.26 441.3,-72.88"/>
<polygon fill="#63b8ff" stroke="#63b8ff" points="784.97,-117.72 795.29,-115.33 785.73,-110.76 784.97,-117.72"/>
</a>
</g>
</g>
<!-- Node26 -->
<g id="Node000026" class="node">
<title>Node26</title>
<g id="a_Node000026"><a xlink:href="TempSensor_8h.html" target="_top" xlink:title=" ">
<polygon fill="white" stroke="#666666" points="921.5,-74 837.5,-74 837.5,-55 921.5,-55 921.5,-74"/>
<text text-anchor="middle" x="879.5" y="-62" font-family="Helvetica,sans-Serif" font-size="10.00">TempSensor.h</text>
</a>
</g>
</g>
<!-- Node2&#45;&gt;Node26 -->
<g id="edge36_Node000002_Node000026" class="edge">
<title>Node2&#45;&gt;Node26</title>
<g id="a_edge36_Node000002_Node000026"><a xlink:title=" ">
<path fill="none" stroke="#63b8ff" d="M840.79,-102.8C850.54,-93.41 862.55,-81.83 870.59,-74.09"/>
<polygon fill="#63b8ff" stroke="#63b8ff" points="838.35,-100.29 833.58,-109.75 843.21,-105.33 838.35,-100.29"/>
</a>
</g>
</g>
<!-- Node4 -->
<g id="Node000004" class="node">
<title>Node4</title>
<g id="a_Node000004"><a xlink:href="AS7331Sensor_8cpp.html" target="_top" xlink:title=" ">
<polygon fill="white" stroke="#666666" points="1051.5,-19 945.5,-19 945.5,0 1051.5,0 1051.5,-19"/>
<text text-anchor="middle" x="998.5" y="-7" font-family="Helvetica,sans-Serif" font-size="10.00">AS7331Sensor.cpp</text>
</a>
</g>
</g>
<!-- Node3&#45;&gt;Node4 -->
<g id="edge3_Node000003_Node000004" class="edge">
<title>Node3&#45;&gt;Node4</title>
<g id="a_edge3_Node000003_Node000004"><a xlink:title=" ">
<path fill="none" stroke="#63b8ff" d="M991.35,-44.95C993.18,-36.15 995.27,-26.06 996.72,-19.09"/>
<polygon fill="#63b8ff" stroke="#63b8ff" points="987.92,-44.25 989.32,-54.75 994.78,-45.67 987.92,-44.25"/>
</a>
</g>
</g>
<!-- Node3&#45;&gt;Node5 -->
<g id="edge4_Node000003_Node000005" class="edge">
<title>Node3&#45;&gt;Node5</title>
<g id="a_edge4_Node000003_Node000005"><a xlink:title=" ">
<path fill="none" stroke="#63b8ff" d="M929.94,-54.91C847.41,-42.57 704.06,-21.1 692.5,-19 689.71,-18.49 686.81,-17.94 683.91,-17.36"/>
<polygon fill="#63b8ff" stroke="#63b8ff" points="929.52,-58.38 939.93,-56.4 930.56,-51.46 929.52,-58.38"/>
</a>
</g>
</g>
<!-- Node7 -->
<g id="Node000007" class="node">
<title>Node7</title>
<g id="a_Node000007"><a xlink:href="AnalogTemp_8cpp.html" target="_top" xlink:title=" ">
<polygon fill="white" stroke="#666666" points="1553,-19 1456,-19 1456,0 1553,0 1553,-19"/>
<text text-anchor="middle" x="1504.5" y="-7" font-family="Helvetica,sans-Serif" font-size="10.00">AnalogTemp.cpp</text>
</a>
</g>
</g>
<!-- Node6&#45;&gt;Node7 -->
<g id="edge6_Node000006_Node000007" class="edge">
<title>Node6&#45;&gt;Node7</title>
<g id="a_edge6_Node000006_Node000007"><a xlink:title=" ">
<path fill="none" stroke="#63b8ff" d="M1486.51,-45.82C1491.09,-36.82 1496.45,-26.29 1500.12,-19.09"/>
<polygon fill="#63b8ff" stroke="#63b8ff" points="1483.38,-44.25 1481.96,-54.75 1489.62,-47.43 1483.38,-44.25"/>
</a>
</g>
</g>
<!-- Node8&#45;&gt;Node5 -->
<g id="edge9_Node000008_Node000005" class="edge">
<title>Node8&#45;&gt;Node5</title>
<g id="a_edge9_Node000008_Node000005"><a xlink:title=" ">
<path fill="none" stroke="#63b8ff" d="M1043.24,-55.03C886.15,-36.11 844.24,-42.83 692.5,-19 689.69,-18.56 686.79,-18.05 683.88,-17.5"/>
<polygon fill="#63b8ff" stroke="#63b8ff" points="1042.91,-58.52 1053.26,-56.25 1043.76,-51.57 1042.91,-58.52"/>
</a>
</g>
</g>
<!-- Node9 -->
<g id="Node000009" class="node">
<title>Node9</title>
<g id="a_Node000009"><a xlink:href="BMP390Sensor_8cpp.html" target="_top" xlink:title=" ">
<polygon fill="white" stroke="#666666" points="1179,-19 1070,-19 1070,0 1179,0 1179,-19"/>
<text text-anchor="middle" x="1124.5" y="-7" font-family="Helvetica,sans-Serif" font-size="10.00">BMP390Sensor.cpp</text>
</a>
</g>
</g>
<!-- Node8&#45;&gt;Node9 -->
<g id="edge8_Node000008_Node000009" class="edge">
<title>Node8&#45;&gt;Node9</title>
<g id="a_edge8_Node000008_Node000009"><a xlink:title=" ">
<path fill="none" stroke="#63b8ff" d="M1110.08,-45.24C1113.76,-36.37 1118.01,-26.14 1120.93,-19.09"/>
<polygon fill="#63b8ff" stroke="#63b8ff" points="1106.73,-44.17 1106.13,-54.75 1113.2,-46.85 1106.73,-44.17"/>
</a>
</g>
</g>
<!-- Node10&#45;&gt;Node5 -->
<g id="edge12_Node000010_Node000005" class="edge">
<title>Node10&#45;&gt;Node5</title>
<g id="a_edge12_Node000010_Node000005"><a xlink:title=" ">
<path fill="none" stroke="#63b8ff" d="M539.42,-51.55C566.53,-41.71 604.33,-27.98 628.62,-19.17"/>
<polygon fill="#63b8ff" stroke="#63b8ff" points="538.16,-48.28 529.96,-54.98 540.55,-54.86 538.16,-48.28"/>
</a>
</g>
</g>
<!-- Node11 -->
<g id="Node000011" class="node">
<title>Node11</title>
<g id="a_Node000011"><a xlink:href="ENS160Sensor_8cpp.html" target="_top" xlink:title=" ">
<polygon fill="white" stroke="#666666" points="359,-19 252,-19 252,0 359,0 359,-19"/>
<text text-anchor="middle" x="305.5" y="-7" font-family="Helvetica,sans-Serif" font-size="10.00">ENS160Sensor.cpp</text>
</a>
</g>
</g>
<!-- Node10&#45;&gt;Node11 -->
<g id="edge11_Node000010_Node000011" class="edge">
<title>Node10&#45;&gt;Node11</title>
<g id="a_edge11_Node000010_Node000011"><a xlink:title=" ">
<path fill="none" stroke="#63b8ff" d="M464.07,-52.31C426.46,-42.39 372.33,-28.12 338.05,-19.08"/>
<polygon fill="#63b8ff" stroke="#63b8ff" points="463.64,-55.82 474.21,-54.98 465.43,-49.05 463.64,-55.82"/>
</a>
</g>
</g>
<!-- Node12&#45;&gt;Node5 -->
<g id="edge15_Node000012_Node000005" class="edge">
<title>Node12&#45;&gt;Node5</title>
<g id="a_edge15_Node000012_Node000005"><a xlink:title=" ">
<path fill="none" stroke="#63b8ff" d="M1159.86,-55.01C951.32,-33.52 895.76,-48.28 692.5,-19 689.69,-18.6 686.78,-18.11 683.87,-17.58"/>
<polygon fill="#63b8ff" stroke="#63b8ff" points="1159.6,-58.5 1169.91,-56.06 1160.33,-51.54 1159.6,-58.5"/>
</a>
</g>
</g>
<!-- Node13 -->
<g id="Node000013" class="node">
<title>Node13</title>
<g id="a_Node000013"><a xlink:href="ICM20948Sensor_8cpp.html" target="_top" xlink:title=" ">
<polygon fill="white" stroke="#666666" points="1315.5,-19 1197.5,-19 1197.5,0 1315.5,0 1315.5,-19"/>
<text text-anchor="middle" x="1256.5" y="-7" font-family="Helvetica,sans-Serif" font-size="10.00">ICM20948Sensor.cpp</text>
</a>
</g>
</g>
<!-- Node12&#45;&gt;Node13 -->
<g id="edge14_Node000012_Node000013" class="edge">
<title>Node12&#45;&gt;Node13</title>
<g id="a_edge14_Node000012_Node000013"><a xlink:title=" ">
<path fill="none" stroke="#63b8ff" d="M1234.33,-46.1C1239.97,-37.04 1246.62,-26.37 1251.15,-19.09"/>
<polygon fill="#63b8ff" stroke="#63b8ff" points="1231.26,-44.41 1228.95,-54.75 1237.21,-48.11 1231.26,-44.41"/>
</a>
</g>
</g>
<!-- Node14&#45;&gt;Node5 -->
<g id="edge18_Node000014_Node000005" class="edge">
<title>Node14&#45;&gt;Node5</title>
<g id="a_edge18_Node000014_Node000005"><a xlink:title=" ">
<path fill="none" stroke="#63b8ff" d="M1284.53,-55.01C1021.15,-27.84 950.82,-54.09 692.5,-19 689.69,-18.62 686.77,-18.15 683.87,-17.63"/>
<polygon fill="#63b8ff" stroke="#63b8ff" points="1284.48,-58.53 1294.79,-56.09 1285.21,-51.57 1284.48,-58.53"/>
</a>
</g>
</g>
<!-- Node15 -->
<g id="Node000015" class="node">
<title>Node15</title>
<g id="a_Node000015"><a xlink:href="INA260Sensor_8cpp.html" target="_top" xlink:title=" ">
<polygon fill="white" stroke="#666666" points="1437.5,-19 1333.5,-19 1333.5,0 1437.5,0 1437.5,-19"/>
<text text-anchor="middle" x="1385.5" y="-7" font-family="Helvetica,sans-Serif" font-size="10.00">INA260Sensor.cpp</text>
</a>
</g>
</g>
<!-- Node14&#45;&gt;Node15 -->
<g id="edge17_Node000014_Node000015" class="edge">
<title>Node14&#45;&gt;Node15</title>
<g id="a_edge17_Node000014_Node000015"><a xlink:title=" ">
<path fill="none" stroke="#63b8ff" d="M1355.23,-46.96C1362.9,-37.72 1372.13,-26.6 1378.37,-19.09"/>
<polygon fill="#63b8ff" stroke="#63b8ff" points="1352.46,-44.82 1348.77,-54.75 1357.85,-49.29 1352.46,-44.82"/>
</a>
</g>
</g>
<!-- Node16&#45;&gt;Node5 -->
<g id="edge21_Node000016_Node000005" class="edge">
<title>Node16&#45;&gt;Node5</title>
<g id="a_edge21_Node000016_Node000005"><a xlink:title=" ">
<path fill="none" stroke="#63b8ff" d="M228.83,-54.9C399.94,-35.49 445.84,-44.41 612.5,-19 615.31,-18.57 618.21,-18.07 621.12,-17.53"/>
<polygon fill="#63b8ff" stroke="#63b8ff" points="228.26,-51.44 218.72,-56.06 229.06,-58.4 228.26,-51.44"/>
</a>
</g>
</g>
<!-- Node17 -->
<g id="Node000017" class="node">
<title>Node17</title>
<g id="a_Node000017"><a xlink:href="MTK3339Sensor_8cpp.html" target="_top" xlink:title=" ">
<polygon fill="white" stroke="#666666" points="115,-19 0,-19 0,0 115,0 115,-19"/>
<text text-anchor="middle" x="57.5" y="-7" font-family="Helvetica,sans-Serif" font-size="10.00">MTK3339Sensor.cpp</text>
</a>
</g>
</g>
<!-- Node16&#45;&gt;Node17 -->
<g id="edge20_Node000016_Node000017" class="edge">
<title>Node16&#45;&gt;Node17</title>
<g id="a_edge20_Node000016_Node000017"><a xlink:title=" ">
<path fill="none" stroke="#63b8ff" d="M139.77,-50.5C119.71,-40.75 92.82,-27.68 75.33,-19.17"/>
<polygon fill="#63b8ff" stroke="#63b8ff" points="138.46,-53.76 148.99,-54.98 141.52,-47.46 138.46,-53.76"/>
</a>
</g>
</g>
<!-- Node18&#45;&gt;Node5 -->
<g id="edge24_Node000018_Node000005" class="edge">
<title>Node18&#45;&gt;Node5</title>
<g id="a_edge24_Node000018_Node000005"><a xlink:title=" ">
<path fill="none" stroke="#63b8ff" d="M628.12,-46.39C634.32,-37.27 641.67,-26.45 646.67,-19.09"/>
<polygon fill="#63b8ff" stroke="#63b8ff" points="625.17,-44.51 622.44,-54.75 630.96,-48.44 625.17,-44.51"/>
</a>
</g>
</g>
<!-- Node19 -->
<g id="Node000019" class="node">
<title>Node19</title>
<g id="a_Node000019"><a xlink:href="OzoneSensor_8cpp.html" target="_top" xlink:title=" ">
<polygon fill="white" stroke="#666666" points="603.5,-19 503.5,-19 503.5,0 603.5,0 603.5,-19"/>
<text text-anchor="middle" x="553.5" y="-7" font-family="Helvetica,sans-Serif" font-size="10.00">OzoneSensor.cpp</text>
</a>
</g>
</g>
<!-- Node18&#45;&gt;Node19 -->
<g id="edge23_Node000018_Node000019" class="edge">
<title>Node18&#45;&gt;Node19</title>
<g id="a_edge23_Node000018_Node000019"><a xlink:title=" ">
<path fill="none" stroke="#63b8ff" d="M598.46,-48.32C587.23,-38.87 573.18,-27.06 563.81,-19.17"/>
<polygon fill="#63b8ff" stroke="#63b8ff" points="596.47,-51.23 606.38,-54.98 600.98,-45.87 596.47,-51.23"/>
</a>
</g>
</g>
<!-- Node20&#45;&gt;Node5 -->
<g id="edge27_Node000020_Node000005" class="edge">
<title>Node20&#45;&gt;Node5</title>
<g id="a_edge27_Node000020_Node000005"><a xlink:title=" ">
<path fill="none" stroke="#63b8ff" d="M740.63,-50.77C719.23,-40.99 690.26,-27.75 671.48,-19.17"/>
<polygon fill="#63b8ff" stroke="#63b8ff" points="739.31,-54.01 749.86,-54.98 742.22,-47.65 739.31,-54.01"/>
</a>
</g>
</g>
<!-- Node21 -->
<g id="Node000021" class="node">
<title>Node21</title>
<g id="a_Node000021"><a xlink:href="PCF8523Sensor_8cpp.html" target="_top" xlink:title=" ">
<polygon fill="white" stroke="#666666" points="813.5,-19 701.5,-19 701.5,0 813.5,0 813.5,-19"/>
<text text-anchor="middle" x="757.5" y="-7" font-family="Helvetica,sans-Serif" font-size="10.00">PCF8523Sensor.cpp</text>
</a>
</g>
</g>
<!-- Node20&#45;&gt;Node21 -->
<g id="edge26_Node000020_Node000021" class="edge">
<title>Node20&#45;&gt;Node21</title>
<g id="a_edge26_Node000020_Node000021"><a xlink:title=" ">
<path fill="none" stroke="#63b8ff" d="M764.65,-44.95C762.82,-36.15 760.73,-26.06 759.28,-19.09"/>
<polygon fill="#63b8ff" stroke="#63b8ff" points="761.22,-45.67 766.68,-54.75 768.08,-44.25 761.22,-45.67"/>
</a>
</g>
</g>
<!-- Node22&#45;&gt;Node5 -->
<g id="edge31_Node000022_Node000005" class="edge">
<title>Node22&#45;&gt;Node5</title>
<g id="a_edge31_Node000022_Node000005"><a xlink:title=" ">
<path fill="none" stroke="#63b8ff" d="M336.24,-54.79C459.54,-37.27 492.93,-39.41 612.5,-19 615.3,-18.52 618.2,-17.99 621.1,-17.42"/>
<polygon fill="#63b8ff" stroke="#63b8ff" points="335.42,-51.37 326.02,-56.26 336.41,-58.3 335.42,-51.37"/>
</a>
</g>
</g>
<!-- Node22&#45;&gt;Node11 -->
<g id="edge29_Node000022_Node000011" class="edge">
<title>Node22&#45;&gt;Node11</title>
<g id="a_edge29_Node000022_Node000011"><a xlink:title=" ">
<path fill="none" stroke="#63b8ff" d="M289.64,-45.53C293.68,-36.6 298.38,-26.22 301.61,-19.09"/>
<polygon fill="#63b8ff" stroke="#63b8ff" points="286.4,-44.19 285.46,-54.75 292.78,-47.08 286.4,-44.19"/>
</a>
</g>
</g>
<!-- Node23 -->
<g id="Node000023" class="node">
<title>Node23</title>
<g id="a_Node000023"><a xlink:href="SHTC3Sensor_8cpp.html" target="_top" xlink:title=" ">
<polygon fill="white" stroke="#666666" points="234,-19 133,-19 133,0 234,0 234,-19"/>
<text text-anchor="middle" x="183.5" y="-7" font-family="Helvetica,sans-Serif" font-size="10.00">SHTC3Sensor.cpp</text>
</a>
</g>
</g>
<!-- Node22&#45;&gt;Node23 -->
<g id="edge30_Node000022_Node000023" class="edge">
<title>Node22&#45;&gt;Node23</title>
<g id="a_edge30_Node000022_Node000023"><a xlink:title=" ">
<path fill="none" stroke="#63b8ff" d="M256.47,-49.97C238.56,-40.28 214.97,-27.52 199.53,-19.17"/>
<polygon fill="#63b8ff" stroke="#63b8ff" points="255.29,-53.31 265.75,-54.98 258.62,-47.15 255.29,-53.31"/>
</a>
</g>
</g>
<!-- Node24&#45;&gt;Node5 -->
<g id="edge35_Node000024_Node000005" class="edge">
<title>Node24&#45;&gt;Node5</title>
<g id="a_edge35_Node000024_Node000005"><a xlink:title=" ">
<path fill="none" stroke="#63b8ff" d="M445.55,-52.92C490.13,-44 555.51,-30.82 612.5,-19 615.42,-18.39 618.46,-17.76 621.5,-17.12"/>
<polygon fill="#63b8ff" stroke="#63b8ff" points="444.64,-49.53 435.52,-54.93 446.02,-56.4 444.64,-49.53"/>
</a>
</g>
</g>
<!-- Node24&#45;&gt;Node11 -->
<g id="edge33_Node000024_Node000011" class="edge">
<title>Node24&#45;&gt;Node11</title>
<g id="a_edge33_Node000024_Node000011"><a xlink:title=" ">
<path fill="none" stroke="#63b8ff" d="M369.84,-49.7C353.99,-40.04 333.31,-27.44 319.73,-19.17"/>
<polygon fill="#63b8ff" stroke="#63b8ff" points="368.16,-52.77 378.52,-54.98 371.8,-46.79 368.16,-52.77"/>
</a>
</g>
</g>
<!-- Node25 -->
<g id="Node000025" class="node">
<title>Node25</title>
<g id="a_Node000025"><a xlink:href="TMP11xSensor_8cpp.html" target="_top" xlink:title=" ">
<polygon fill="white" stroke="#666666" points="485.5,-19 377.5,-19 377.5,0 485.5,0 485.5,-19"/>
<text text-anchor="middle" x="431.5" y="-7" font-family="Helvetica,sans-Serif" font-size="10.00">TMP11xSensor.cpp</text>
</a>
</g>
</g>
<!-- Node24&#45;&gt;Node25 -->
<g id="edge34_Node000024_Node000025" class="edge">
<title>Node24&#45;&gt;Node25</title>
<g id="a_edge34_Node000024_Node000025"><a xlink:title=" ">
<path fill="none" stroke="#63b8ff" d="M404.88,-46.67C411.64,-37.5 419.71,-26.52 425.18,-19.09"/>
<polygon fill="#63b8ff" stroke="#63b8ff" points="402.05,-44.62 398.94,-54.75 407.69,-48.77 402.05,-44.62"/>
</a>
</g>
</g>
<!-- Node26&#45;&gt;Node5 -->
<g id="edge38_Node000026_Node000005" class="edge">
<title>Node26&#45;&gt;Node5</title>
<g id="a_edge38_Node000026_Node000005"><a xlink:title=" ">
<path fill="none" stroke="#63b8ff" d="M833.03,-52.65C788.46,-42.24 722.39,-26.82 683.77,-17.8"/>
<polygon fill="#63b8ff" stroke="#63b8ff" points="832.49,-56.12 843.03,-54.98 834.09,-49.3 832.49,-56.12"/>
</a>
</g>
</g>
<!-- Node27 -->
<g id="Node000027" class="node">
<title>Node27</title>
<g id="a_Node000027"><a xlink:href="TempSensor_8cpp.html" target="_top" xlink:title=" ">
<polygon fill="white" stroke="#666666" points="927,-19 832,-19 832,0 927,0 927,-19"/>
<text text-anchor="middle" x="879.5" y="-7" font-family="Helvetica,sans-Serif" font-size="10.00">TempSensor.cpp</text>
</a>
</g>
</g>
<!-- Node26&#45;&gt;Node27 -->
<g id="edge37_Node000026_Node000027" class="edge">
<title>Node26&#45;&gt;Node27</title>
<g id="a_edge37_Node000026_Node000027"><a xlink:title=" ">
<path fill="none" stroke="#63b8ff" d="M879.5,-44.66C879.5,-35.93 879.5,-25.99 879.5,-19.09"/>
<polygon fill="#63b8ff" stroke="#63b8ff" points="876,-44.75 879.5,-54.75 883,-44.75 876,-44.75"/>
</a>
</g>
</g>
<!-- Node29 -->
<g id="Node000029" class="node">
<title>Node29</title>
<g id="a_Node000029"><a xlink:href="FlashStorage_8h.html" target="_top" xlink:title=" ">
<polygon fill="white" stroke="#666666" points="1923,-74 1834,-74 1834,-55 1923,-55 1923,-74"/>
<text text-anchor="middle" x="1878.5" y="-62" font-family="Helvetica,sans-Serif" font-size="10.00">FlashStorage.h</text>
</a>
</g>
</g>
<!-- Node28&#45;&gt;Node29 -->
<g id="edge41_Node000028_Node000029" class="edge">
<title>Node28&#45;&gt;Node29</title>
<g id="a_edge41_Node000028_Node000029"><a xlink:title=" ">
<path fill="none" stroke="#63b8ff" d="M1747.18,-106.93C1778.56,-97.03 1823.01,-83.01 1851.3,-74.08"/>
<polygon fill="#63b8ff" stroke="#63b8ff" points="1745.98,-103.64 1737.49,-109.98 1748.08,-110.31 1745.98,-103.64"/>
</a>
</g>
</g>
<!-- Node31 -->
<g id="Node000031" class="node">
<title>Node31</title>
<g id="a_Node000031"><a xlink:href="main1_8cpp.html" target="_top" xlink:title="Main functions for Core 1, responsible for sending data to storage peripherals.">
<polygon fill="white" stroke="#666666" points="1759.5,-19 1691.5,-19 1691.5,0 1759.5,0 1759.5,-19"/>
<text text-anchor="middle" x="1725.5" y="-7" font-family="Helvetica,sans-Serif" font-size="10.00">main1.cpp</text>
</a>
</g>
</g>
<!-- Node28&#45;&gt;Node31 -->
<g id="edge50_Node000028_Node000031" class="edge">
<title>Node28&#45;&gt;Node31</title>
<g id="a_edge50_Node000028_Node000031"><a xlink:title=" ">
<path fill="none" stroke="#63b8ff" d="M1713.14,-99.48C1716.42,-75.84 1721.89,-36.5 1724.3,-19.16"/>
<polygon fill="#63b8ff" stroke="#63b8ff" points="1709.64,-99.28 1711.73,-109.66 1716.57,-100.24 1709.64,-99.28"/>
</a>
</g>
</g>
<!-- Node32 -->
<g id="Node000032" class="node">
<title>Node32</title>
<g id="a_Node000032"><a xlink:href="RadioStorage_8h.html" target="_top" xlink:title=" ">
<polygon fill="white" stroke="#666666" points="1682,-74 1591,-74 1591,-55 1682,-55 1682,-74"/>
<text text-anchor="middle" x="1636.5" y="-62" font-family="Helvetica,sans-Serif" font-size="10.00">RadioStorage.h</text>
</a>
</g>
</g>
<!-- Node28&#45;&gt;Node32 -->
<g id="edge44_Node000028_Node000032" class="edge">
<title>Node28&#45;&gt;Node32</title>
<g id="a_edge44_Node000028_Node000032"><a xlink:title=" ">
<path fill="none" stroke="#63b8ff" d="M1690.47,-104.15C1677.09,-94.57 1659.94,-82.29 1648.61,-74.17"/>
<polygon fill="#63b8ff" stroke="#63b8ff" points="1688.44,-107.01 1698.61,-109.98 1692.52,-101.32 1688.44,-107.01"/>
</a>
</g>
</g>
<!-- Node34 -->
<g id="Node000034" class="node">
<title>Node34</title>
<g id="a_Node000034"><a xlink:href="SDStorage_8h.html" target="_top" xlink:title=" ">
<polygon fill="white" stroke="#666666" points="1816,-74 1739,-74 1739,-55 1816,-55 1816,-74"/>
<text text-anchor="middle" x="1777.5" y="-62" font-family="Helvetica,sans-Serif" font-size="10.00">SDStorage.h</text>
</a>
</g>
</g>
<!-- Node28&#45;&gt;Node34 -->
<g id="edge47_Node000028_Node000034" class="edge">
<title>Node28&#45;&gt;Node34</title>
<g id="a_edge47_Node000028_Node000034"><a xlink:title=" ">
<path fill="none" stroke="#63b8ff" d="M1729.33,-103.6C1741.34,-94.11 1756.47,-82.13 1766.54,-74.17"/>
<polygon fill="#63b8ff" stroke="#63b8ff" points="1726.94,-101.04 1721.26,-109.98 1731.28,-106.53 1726.94,-101.04"/>
</a>
</g>
</g>
<!-- Node30 -->
<g id="Node000030" class="node">
<title>Node30</title>
<g id="a_Node000030"><a xlink:href="FlashStorage_8cpp.html" target="_top" xlink:title=" ">
<polygon fill="white" stroke="#666666" points="1985,-19 1884,-19 1884,0 1985,0 1985,-19"/>
<text text-anchor="middle" x="1934.5" y="-7" font-family="Helvetica,sans-Serif" font-size="10.00">FlashStorage.cpp</text>
</a>
</g>
</g>
<!-- Node29&#45;&gt;Node30 -->
<g id="edge42_Node000029_Node000030" class="edge">
<title>Node29&#45;&gt;Node30</title>
<g id="a_edge42_Node000029_Node000030"><a xlink:title=" ">
<path fill="none" stroke="#63b8ff" d="M1894.83,-48.04C1904.76,-38.64 1917.09,-26.98 1925.34,-19.17"/>
<polygon fill="#63b8ff" stroke="#63b8ff" points="1892.35,-45.57 1887.5,-54.98 1897.17,-50.65 1892.35,-45.57"/>
</a>
</g>
</g>
<!-- Node29&#45;&gt;Node31 -->
<g id="edge43_Node000029_Node000031" class="edge">
<title>Node29&#45;&gt;Node31</title>
<g id="a_edge43_Node000029_Node000031"><a xlink:title=" ">
<path fill="none" stroke="#63b8ff" d="M1844.35,-51.67C1815.82,-41.79 1775.81,-27.93 1750.27,-19.08"/>
<polygon fill="#63b8ff" stroke="#63b8ff" points="1843.32,-55.02 1853.92,-54.98 1845.61,-48.4 1843.32,-55.02"/>
</a>
</g>
</g>
<!-- Node32&#45;&gt;Node31 -->
<g id="edge46_Node000032_Node000031" class="edge">
<title>Node32&#45;&gt;Node31</title>
<g id="a_edge46_Node000032_Node000031"><a xlink:title=" ">
<path fill="none" stroke="#63b8ff" d="M1659.68,-49.7C1675.89,-40.04 1697.05,-27.44 1710.94,-19.17"/>
<polygon fill="#63b8ff" stroke="#63b8ff" points="1657.6,-46.86 1650.8,-54.98 1661.18,-52.88 1657.6,-46.86"/>
</a>
</g>
</g>
<!-- Node33 -->
<g id="Node000033" class="node">
<title>Node33</title>
<g id="a_Node000033"><a xlink:href="RadioStorage_8cpp.html" target="_top" xlink:title=" ">
<polygon fill="white" stroke="#666666" points="1673.5,-19 1571.5,-19 1571.5,0 1673.5,0 1673.5,-19"/>
<text text-anchor="middle" x="1622.5" y="-7" font-family="Helvetica,sans-Serif" font-size="10.00">RadioStorage.cpp</text>
</a>
</g>
</g>
<!-- Node32&#45;&gt;Node33 -->
<g id="edge45_Node000032_Node000033" class="edge">
<title>Node32&#45;&gt;Node33</title>
<g id="a_edge45_Node000032_Node000033"><a xlink:title=" ">
<path fill="none" stroke="#63b8ff" d="M1631.6,-44.95C1629.28,-36.15 1626.61,-26.06 1624.77,-19.09"/>
<polygon fill="#63b8ff" stroke="#63b8ff" points="1628.25,-45.97 1634.19,-54.75 1635.02,-44.19 1628.25,-45.97"/>
</a>
</g>
</g>
<!-- Node34&#45;&gt;Node31 -->
<g id="edge49_Node000034_Node000031" class="edge">
<title>Node34&#45;&gt;Node31</title>
<g id="a_edge49_Node000034_Node000031"><a xlink:title=" ">
<path fill="none" stroke="#63b8ff" d="M1761.82,-47.52C1752.66,-38.18 1741.45,-26.75 1733.93,-19.09"/>
<polygon fill="#63b8ff" stroke="#63b8ff" points="1759.41,-50.06 1768.91,-54.75 1764.41,-45.16 1759.41,-50.06"/>
</a>
</g>
</g>
<!-- Node35 -->
<g id="Node000035" class="node">
<title>Node35</title>
<g id="a_Node000035"><a xlink:href="SDStorage_8cpp.html" target="_top" xlink:title=" ">
<polygon fill="white" stroke="#666666" points="1865.5,-19 1777.5,-19 1777.5,0 1865.5,0 1865.5,-19"/>
<text text-anchor="middle" x="1821.5" y="-7" font-family="Helvetica,sans-Serif" font-size="10.00">SDStorage.cpp</text>
</a>
</g>
</g>
<!-- Node34&#45;&gt;Node35 -->
<g id="edge48_Node000034_Node000035" class="edge">
<title>Node34&#45;&gt;Node35</title>
<g id="a_edge48_Node000034_Node000035"><a xlink:title=" ">
<path fill="none" stroke="#63b8ff" d="M1791.23,-46.96C1798.9,-37.72 1808.13,-26.6 1814.37,-19.09"/>
<polygon fill="#63b8ff" stroke="#63b8ff" points="1788.46,-44.82 1784.77,-54.75 1793.85,-49.29 1788.46,-44.82"/>
</a>
</g>
</g>
</g>
</svg>
