<?xml version="1.0" encoding="UTF-8" standalone="no"?>
<!DOCTYPE svg PUBLIC "-//W3C//DTD SVG 1.1//EN"
 "http://www.w3.org/Graphics/SVG/1.1/DTD/svg11.dtd">
<!-- Generated by graphviz version 2.43.0 (0)
 -->
<!-- Title: Device.h Pages: 1 -->
<!--zoomable 192 -->

<svg id="main" version="1.1" xmlns="http://www.w3.org/2000/svg" xmlns:xlink="http://www.w3.org/1999/xlink" xml:space="preserve" onload="init(evt)">
<style type="text/css"><![CDATA[
.node, .edge {opacity: 0.7;}
.node.selected, .edge.selected {opacity: 1;}
.edge:hover path { stroke: red; }
.edge:hover polygon { stroke: red; fill: red; }
]]></style>

<defs>
  <circle id="rim" cx="0" cy="0" r="7"/>
  <circle id="rim2" cx="0" cy="0" r="3.5"/>
  <g id="zoomPlus">
    <use xlink:href="#rim" fill="#404040"><set attributeName="fill" to="#808080" begin="zoomplus.mouseover" end="zoomplus.mouseout"/></use>
    <path d="M-4,0h8M0,-4v8" fill="none" stroke="white" stroke-width="1.5" pointer-events="none"/>
  </g>
  <g id="zoomMin">
    <use xlink:href="#rim" fill="#404040"><set attributeName="fill" to="#808080" begin="zoomminus.mouseover" end="zoomminus.mouseout"/></use>
    <path d="M-4,0h8" fill="none" stroke="white" stroke-width="1.5" pointer-events="none"/>
  </g>
  <g id="arrowUp" transform="translate(30 24)">
    <use xlink:href="#rim"/>
    <path pointer-events="none" fill="none" stroke="white" stroke-width="1.5" d="M0,-3.0v7 M-2.5,-0.5L0,-3.0L2.5,-0.5"/>
  </g>
  <g id="arrowRight" transform="rotate(90) translate(36 -43)">
    <use xlink:href="#rim"/>
    <path pointer-events="none" fill="none" stroke="white" stroke-width="1.5" d="M0,-3.0v7 M-2.5,-0.5L0,-3.0L2.5,-0.5"/>
  </g>
  <g id="arrowDown" transform="rotate(180) translate(-30 -48)">
    <use xlink:href="#rim"/>
    <path pointer-events="none" fill="none" stroke="white" stroke-width="1.5" d="M0,-3.0v7 M-2.5,-0.5L0,-3.0L2.5,-0.5"/>
  </g>
  <g id="arrowLeft" transform="rotate(270) translate(-36 17)">
    <use xlink:href="#rim"/>
    <path pointer-events="none" fill="none" stroke="white" stroke-width="1.5" d="M0,-3.0v7 M-2.5,-0.5L0,-3.0L2.5,-0.5"/>
  </g>
  <g id="resetDef">
    <use xlink:href="#rim2" fill="#404040"><set attributeName="fill" to="#808080" begin="reset.mouseover" end="reset.mouseout"/></use>
  </g>
</defs>
<script type="application/ecmascript">
var viewWidth = 1878;
var viewHeight = 192;
var sectionId = 'dynsection-1';
</script>
<script type="application/ecmascript" xlink:href="svg.min.js"/>
<svg id="graph" class="graph">
<g id="viewport">
<title>Device.h</title>
<!-- Node1 -->
<g id="Node000001" class="node">
<title>Node1</title>
<g id="a_Node000001"><a xlink:title=" ">
<polygon fill="#999999" stroke="#666666" points="1193,-184 1134,-184 1134,-165 1193,-165 1193,-184"/>
<text text-anchor="middle" x="1163.5" y="-172" font-family="Helvetica,sans-Serif" font-size="10.00">Device.h</text>
</a>
</g>
</g>
<!-- Node2 -->
<g id="Node000002" class="node">
<title>Node2</title>
<g id="a_Node000002"><a xlink:href="Sensor_8h.html" target="_top" xlink:title=" ">
<polygon fill="white" stroke="#666666" points="781.5,-129 723.5,-129 723.5,-110 781.5,-110 781.5,-129"/>
<text text-anchor="middle" x="752.5" y="-117" font-family="Helvetica,sans-Serif" font-size="10.00">Sensor.h</text>
</a>
</g>
</g>
<!-- Node1&#45;&gt;Node2 -->
<g id="edge1_Node000001_Node000002" class="edge">
<title>Node1&#45;&gt;Node2</title>
<g id="a_edge1_Node000001_Node000002"><a xlink:title=" ">
<path fill="none" stroke="#63b8ff" d="M1123.98,-168.4C1041.73,-157.8 853.75,-133.56 781.52,-124.24"/>
<polygon fill="#63b8ff" stroke="#63b8ff" points="1123.58,-171.88 1133.94,-169.69 1124.47,-164.94 1123.58,-171.88"/>
</a>
</g>
</g>
<!-- Node26 -->
<g id="Node000026" class="node">
<title>Node26</title>
<g id="a_Node000026"><a xlink:href="Storage_8h.html" target="_top" xlink:title=" ">
<polygon fill="white" stroke="#666666" points="1626,-129 1563,-129 1563,-110 1626,-110 1626,-129"/>
<text text-anchor="middle" x="1594.5" y="-117" font-family="Helvetica,sans-Serif" font-size="10.00">Storage.h</text>
</a>
</g>
</g>
<!-- Node1&#45;&gt;Node26 -->
<g id="edge38_Node000001_Node000026" class="edge">
<title>Node1&#45;&gt;Node26</title>
<g id="a_edge38_Node000001_Node000026"><a xlink:title=" ">
<path fill="none" stroke="#63b8ff" d="M1203.14,-168.63C1288,-158.19 1485.82,-133.86 1562.93,-124.38"/>
<polygon fill="#63b8ff" stroke="#63b8ff" points="1202.62,-165.16 1193.12,-169.86 1203.48,-172.11 1202.62,-165.16"/>
</a>
</g>
</g>
<!-- Node3 -->
<g id="Node000003" class="node">
<title>Node3</title>
<g id="a_Node000003"><a xlink:href="AS7331Sensor_8h.html" target="_top" xlink:title=" ">
<polygon fill="white" stroke="#666666" points="908,-74 813,-74 813,-55 908,-55 908,-74"/>
<text text-anchor="middle" x="860.5" y="-62" font-family="Helvetica,sans-Serif" font-size="10.00">AS7331Sensor.h</text>
</a>
</g>
</g>
<!-- Node2&#45;&gt;Node3 -->
<g id="edge2_Node000002_Node000003" class="edge">
<title>Node2&#45;&gt;Node3</title>
<g id="a_edge2_Node000002_Node000003"><a xlink:title=" ">
<path fill="none" stroke="#63b8ff" d="M778.99,-105.5C798.86,-95.75 825.5,-82.68 842.83,-74.17"/>
<polygon fill="#63b8ff" stroke="#63b8ff" points="777.29,-102.44 769.85,-109.98 780.37,-108.72 777.29,-102.44"/>
</a>
</g>
</g>
<!-- Node5 -->
<g id="Node000005" class="node">
<title>Node5</title>
<g id="a_Node000005"><a xlink:href="main_8cpp.html" target="_top" xlink:title="Main functions for Core 0, responsible for reading data from sensor peripherals.">
<polygon fill="white" stroke="#666666" points="680.5,-19 618.5,-19 618.5,0 680.5,0 680.5,-19"/>
<text text-anchor="middle" x="649.5" y="-7" font-family="Helvetica,sans-Serif" font-size="10.00">main.cpp</text>
</a>
</g>
</g>
<!-- Node2&#45;&gt;Node5 -->
<g id="edge37_Node000002_Node000005" class="edge">
<title>Node2&#45;&gt;Node5</title>
<g id="a_edge37_Node000002_Node000005"><a xlink:title=" ">
<path fill="none" stroke="#63b8ff" d="M733.46,-103.19C723.57,-94.92 711.49,-84.31 701.5,-74 683.65,-55.58 665.19,-31.67 655.81,-19.1"/>
<polygon fill="#63b8ff" stroke="#63b8ff" points="731.54,-106.14 741.48,-109.79 735.98,-100.73 731.54,-106.14"/>
</a>
</g>
</g>
<!-- Node6 -->
<g id="Node000006" class="node">
<title>Node6</title>
<g id="a_Node000006"><a xlink:href="BMP390Sensor_8h.html" target="_top" xlink:title=" ">
<polygon fill="white" stroke="#666666" points="1024.5,-74 926.5,-74 926.5,-55 1024.5,-55 1024.5,-74"/>
<text text-anchor="middle" x="975.5" y="-62" font-family="Helvetica,sans-Serif" font-size="10.00">BMP390Sensor.h</text>
</a>
</g>
</g>
<!-- Node2&#45;&gt;Node6 -->
<g id="edge5_Node000002_Node000006" class="edge">
<title>Node2&#45;&gt;Node6</title>
<g id="a_edge5_Node000002_Node000006"><a xlink:title=" ">
<path fill="none" stroke="#63b8ff" d="M791.48,-109.24C833.3,-99.3 899.15,-83.64 939.7,-74.01"/>
<polygon fill="#63b8ff" stroke="#63b8ff" points="790.57,-105.85 781.65,-111.57 792.19,-112.66 790.57,-105.85"/>
</a>
</g>
</g>
<!-- Node8 -->
<g id="Node000008" class="node">
<title>Node8</title>
<g id="a_Node000008"><a xlink:href="ENS160Sensor_8h.html" target="_top" xlink:title=" ">
<polygon fill="white" stroke="#666666" points="428,-74 333,-74 333,-55 428,-55 428,-74"/>
<text text-anchor="middle" x="380.5" y="-62" font-family="Helvetica,sans-Serif" font-size="10.00">ENS160Sensor.h</text>
</a>
</g>
</g>
<!-- Node2&#45;&gt;Node8 -->
<g id="edge8_Node000002_Node000008" class="edge">
<title>Node2&#45;&gt;Node8</title>
<g id="a_edge8_Node000002_Node000008"><a xlink:title=" ">
<path fill="none" stroke="#63b8ff" d="M713.16,-113.1C653.38,-104.86 536.05,-88.56 436.5,-74 433.78,-73.6 430.98,-73.19 428.15,-72.77"/>
<polygon fill="#63b8ff" stroke="#63b8ff" points="712.91,-116.6 723.3,-114.49 713.87,-109.66 712.91,-116.6"/>
</a>
</g>
</g>
<!-- Node10 -->
<g id="Node000010" class="node">
<title>Node10</title>
<g id="a_Node000010"><a xlink:href="ICM20948Sensor_8h.html" target="_top" xlink:title=" ">
<polygon fill="white" stroke="#666666" points="1150,-74 1043,-74 1043,-55 1150,-55 1150,-74"/>
<text text-anchor="middle" x="1096.5" y="-62" font-family="Helvetica,sans-Serif" font-size="10.00">ICM20948Sensor.h</text>
</a>
</g>
</g>
<!-- Node2&#45;&gt;Node10 -->
<g id="edge11_Node000002_Node000010" class="edge">
<title>Node2&#45;&gt;Node10</title>
<g id="a_edge11_Node000002_Node000010"><a xlink:title=" ">
<path fill="none" stroke="#63b8ff" d="M791.63,-112.47C853.33,-102.96 973.34,-84.48 1042.97,-73.75"/>
<polygon fill="#63b8ff" stroke="#63b8ff" points="790.88,-109.04 781.53,-114.03 791.95,-115.96 790.88,-109.04"/>
</a>
</g>
</g>
<!-- Node12 -->
<g id="Node000012" class="node">
<title>Node12</title>
<g id="a_Node000012"><a xlink:href="INA260Sensor_8h.html" target="_top" xlink:title=" ">
<polygon fill="white" stroke="#666666" points="1261,-74 1168,-74 1168,-55 1261,-55 1261,-74"/>
<text text-anchor="middle" x="1214.5" y="-62" font-family="Helvetica,sans-Serif" font-size="10.00">INA260Sensor.h</text>
</a>
</g>
</g>
<!-- Node2&#45;&gt;Node12 -->
<g id="edge14_Node000002_Node000012" class="edge">
<title>Node2&#45;&gt;Node12</title>
<g id="a_edge14_Node000002_Node000012"><a xlink:title=" ">
<path fill="none" stroke="#63b8ff" d="M791.64,-114.75C864.13,-107.7 1024.13,-91.55 1158.5,-74 1161.52,-73.61 1164.63,-73.18 1167.77,-72.74"/>
<polygon fill="#63b8ff" stroke="#63b8ff" points="791.21,-111.28 781.6,-115.73 791.89,-118.25 791.21,-111.28"/>
</a>
</g>
</g>
<!-- Node14 -->
<g id="Node000014" class="node">
<title>Node14</title>
<g id="a_Node000014"><a xlink:href="MTK3339Sensor_8h.html" target="_top" xlink:title=" ">
<polygon fill="white" stroke="#666666" points="1383.5,-74 1279.5,-74 1279.5,-55 1383.5,-55 1383.5,-74"/>
<text text-anchor="middle" x="1331.5" y="-62" font-family="Helvetica,sans-Serif" font-size="10.00">MTK3339Sensor.h</text>
</a>
</g>
</g>
<!-- Node2&#45;&gt;Node14 -->
<g id="edge17_Node000002_Node000014" class="edge">
<title>Node2&#45;&gt;Node14</title>
<g id="a_edge17_Node000002_Node000014"><a xlink:title=" ">
<path fill="none" stroke="#63b8ff" d="M791.85,-115.79C878.37,-109.69 1091.59,-93.84 1269.5,-74 1272.74,-73.64 1276.07,-73.25 1279.43,-72.83"/>
<polygon fill="#63b8ff" stroke="#63b8ff" points="791.43,-112.31 781.7,-116.5 791.92,-119.3 791.43,-112.31"/>
</a>
</g>
</g>
<!-- Node16 -->
<g id="Node000016" class="node">
<title>Node16</title>
<g id="a_Node000016"><a xlink:href="OzoneSensor_8h.html" target="_top" xlink:title=" ">
<polygon fill="white" stroke="#666666" points="535,-74 446,-74 446,-55 535,-55 535,-74"/>
<text text-anchor="middle" x="490.5" y="-62" font-family="Helvetica,sans-Serif" font-size="10.00">OzoneSensor.h</text>
</a>
</g>
</g>
<!-- Node2&#45;&gt;Node16 -->
<g id="edge20_Node000002_Node000016" class="edge">
<title>Node2&#45;&gt;Node16</title>
<g id="a_edge20_Node000002_Node000016"><a xlink:title=" ">
<path fill="none" stroke="#63b8ff" d="M713.66,-110.64C665.18,-100.84 582.58,-84.13 532.62,-74.02"/>
<polygon fill="#63b8ff" stroke="#63b8ff" points="712.96,-114.07 723.46,-112.63 714.35,-107.21 712.96,-114.07"/>
</a>
</g>
</g>
<!-- Node18 -->
<g id="Node000018" class="node">
<title>Node18</title>
<g id="a_Node000018"><a xlink:href="PCF8523Sensor_8h.html" target="_top" xlink:title=" ">
<polygon fill="white" stroke="#666666" points="654,-74 553,-74 553,-55 654,-55 654,-74"/>
<text text-anchor="middle" x="603.5" y="-62" font-family="Helvetica,sans-Serif" font-size="10.00">PCF8523Sensor.h</text>
</a>
</g>
</g>
<!-- Node2&#45;&gt;Node18 -->
<g id="edge23_Node000002_Node000018" class="edge">
<title>Node2&#45;&gt;Node18</title>
<g id="a_edge23_Node000002_Node000018"><a xlink:title=" ">
<path fill="none" stroke="#63b8ff" d="M718.91,-106.55C691.24,-96.71 652.66,-82.98 627.88,-74.17"/>
<polygon fill="#63b8ff" stroke="#63b8ff" points="717.97,-109.93 728.56,-109.98 720.31,-103.34 717.97,-109.93"/>
</a>
</g>
</g>
<!-- Node20 -->
<g id="Node000020" class="node">
<title>Node20</title>
<g id="a_Node000020"><a xlink:href="SHTC3Sensor_8h.html" target="_top" xlink:title=" ">
<polygon fill="white" stroke="#666666" points="200,-74 111,-74 111,-55 200,-55 200,-74"/>
<text text-anchor="middle" x="155.5" y="-62" font-family="Helvetica,sans-Serif" font-size="10.00">SHTC3Sensor.h</text>
</a>
</g>
</g>
<!-- Node2&#45;&gt;Node20 -->
<g id="edge26_Node000002_Node000020" class="edge">
<title>Node2&#45;&gt;Node20</title>
<g id="a_edge26_Node000002_Node000020"><a xlink:title=" ">
<path fill="none" stroke="#63b8ff" d="M713.23,-116.33C623.57,-111.16 396.95,-96.78 208.5,-74 205.82,-73.68 203.06,-73.32 200.29,-72.93"/>
<polygon fill="#63b8ff" stroke="#63b8ff" points="713.05,-119.83 723.23,-116.91 713.45,-112.84 713.05,-119.83"/>
</a>
</g>
</g>
<!-- Node22 -->
<g id="Node000022" class="node">
<title>Node22</title>
<g id="a_Node000022"><a xlink:href="TMP11xSensor_8h.html" target="_top" xlink:title=" ">
<polygon fill="white" stroke="#666666" points="315,-74 218,-74 218,-55 315,-55 315,-74"/>
<text text-anchor="middle" x="266.5" y="-62" font-family="Helvetica,sans-Serif" font-size="10.00">TMP11xSensor.h</text>
</a>
</g>
</g>
<!-- Node2&#45;&gt;Node22 -->
<g id="edge30_Node000002_Node000022" class="edge">
<title>Node2&#45;&gt;Node22</title>
<g id="a_edge30_Node000002_Node000022"><a xlink:title=" ">
<path fill="none" stroke="#63b8ff" d="M713.31,-115.03C637.77,-108.2 466.82,-92.11 323.5,-74 320.82,-73.66 318.07,-73.3 315.3,-72.92"/>
<polygon fill="#63b8ff" stroke="#63b8ff" points="713.05,-118.52 723.32,-115.93 713.67,-111.54 713.05,-118.52"/>
</a>
</g>
</g>
<!-- Node24 -->
<g id="Node000024" class="node">
<title>Node24</title>
<g id="a_Node000024"><a xlink:href="TempSensor_8h.html" target="_top" xlink:title=" ">
<polygon fill="white" stroke="#666666" points="794.5,-74 710.5,-74 710.5,-55 794.5,-55 794.5,-74"/>
<text text-anchor="middle" x="752.5" y="-62" font-family="Helvetica,sans-Serif" font-size="10.00">TempSensor.h</text>
</a>
</g>
</g>
<!-- Node2&#45;&gt;Node24 -->
<g id="edge34_Node000002_Node000024" class="edge">
<title>Node2&#45;&gt;Node24</title>
<g id="a_edge34_Node000002_Node000024"><a xlink:title=" ">
<path fill="none" stroke="#63b8ff" d="M752.5,-99.66C752.5,-90.93 752.5,-80.99 752.5,-74.09"/>
<polygon fill="#63b8ff" stroke="#63b8ff" points="749,-99.75 752.5,-109.75 756,-99.75 749,-99.75"/>
</a>
</g>
</g>
<!-- Node4 -->
<g id="Node000004" class="node">
<title>Node4</title>
<g id="a_Node000004"><a xlink:href="AS7331Sensor_8cpp.html" target="_top" xlink:title=" ">
<polygon fill="white" stroke="#666666" points="918.5,-19 812.5,-19 812.5,0 918.5,0 918.5,-19"/>
<text text-anchor="middle" x="865.5" y="-7" font-family="Helvetica,sans-Serif" font-size="10.00">AS7331Sensor.cpp</text>
</a>
</g>
</g>
<!-- Node3&#45;&gt;Node4 -->
<g id="edge3_Node000003_Node000004" class="edge">
<title>Node3&#45;&gt;Node4</title>
<g id="a_edge3_Node000003_Node000004"><a xlink:title=" ">
<path fill="none" stroke="#63b8ff" d="M862.28,-44.66C863.1,-35.93 864.04,-25.99 864.69,-19.09"/>
<polygon fill="#63b8ff" stroke="#63b8ff" points="858.78,-44.46 861.33,-54.75 865.75,-45.12 858.78,-44.46"/>
</a>
</g>
</g>
<!-- Node3&#45;&gt;Node5 -->
<g id="edge4_Node000003_Node000005" class="edge">
<title>Node3&#45;&gt;Node5</title>
<g id="a_edge4_Node000003_Node000005"><a xlink:title=" ">
<path fill="none" stroke="#63b8ff" d="M816.69,-52.5C776.04,-42.28 716.54,-27.34 680.57,-18.3"/>
<polygon fill="#63b8ff" stroke="#63b8ff" points="816.05,-55.94 826.6,-54.98 817.75,-49.15 816.05,-55.94"/>
</a>
</g>
</g>
<!-- Node6&#45;&gt;Node5 -->
<g id="edge7_Node000006_Node000005" class="edge">
<title>Node6&#45;&gt;Node5</title>
<g id="a_edge7_Node000006_Node000005"><a xlink:title=" ">
<path fill="none" stroke="#63b8ff" d="M916.22,-54.67C845.6,-44.08 731.84,-26.79 689.5,-19 686.71,-18.49 683.81,-17.93 680.91,-17.35"/>
<polygon fill="#63b8ff" stroke="#63b8ff" points="915.91,-58.16 926.32,-56.18 916.95,-51.24 915.91,-58.16"/>
</a>
</g>
</g>
<!-- Node7 -->
<g id="Node000007" class="node">
<title>Node7</title>
<g id="a_Node000007"><a xlink:href="BMP390Sensor_8cpp.html" target="_top" xlink:title=" ">
<polygon fill="white" stroke="#666666" points="1046,-19 937,-19 937,0 1046,0 1046,-19"/>
<text text-anchor="middle" x="991.5" y="-7" font-family="Helvetica,sans-Serif" font-size="10.00">BMP390Sensor.cpp</text>
</a>
</g>
</g>
<!-- Node6&#45;&gt;Node7 -->
<g id="edge6_Node000006_Node000007" class="edge">
<title>Node6&#45;&gt;Node7</title>
<g id="a_edge6_Node000006_Node000007"><a xlink:title=" ">
<path fill="none" stroke="#63b8ff" d="M981.1,-44.95C983.76,-36.15 986.8,-26.06 988.91,-19.09"/>
<polygon fill="#63b8ff" stroke="#63b8ff" points="977.68,-44.16 978.14,-54.75 984.38,-46.19 977.68,-44.16"/>
</a>
</g>
</g>
<!-- Node8&#45;&gt;Node5 -->
<g id="edge10_Node000008_Node000005" class="edge">
<title>Node8&#45;&gt;Node5</title>
<g id="a_edge10_Node000008_Node000005"><a xlink:title=" ">
<path fill="none" stroke="#63b8ff" d="M435.59,-53.07C482.01,-44.22 550.16,-31.07 609.5,-19 612.28,-18.43 615.17,-17.84 618.07,-17.23"/>
<polygon fill="#63b8ff" stroke="#63b8ff" points="434.9,-49.64 425.73,-54.95 436.21,-56.52 434.9,-49.64"/>
</a>
</g>
</g>
<!-- Node9 -->
<g id="Node000009" class="node">
<title>Node9</title>
<g id="a_Node000009"><a xlink:href="ENS160Sensor_8cpp.html" target="_top" xlink:title=" ">
<polygon fill="white" stroke="#666666" points="226,-19 119,-19 119,0 226,0 226,-19"/>
<text text-anchor="middle" x="172.5" y="-7" font-family="Helvetica,sans-Serif" font-size="10.00">ENS160Sensor.cpp</text>
</a>
</g>
</g>
<!-- Node8&#45;&gt;Node9 -->
<g id="edge9_Node000008_Node000009" class="edge">
<title>Node8&#45;&gt;Node9</title>
<g id="a_edge9_Node000008_Node000009"><a xlink:title=" ">
<path fill="none" stroke="#63b8ff" d="M337.09,-52.44C298.15,-42.52 241.81,-28.16 206.18,-19.08"/>
<polygon fill="#63b8ff" stroke="#63b8ff" points="336.53,-55.91 347.08,-54.98 338.26,-49.12 336.53,-55.91"/>
</a>
</g>
</g>
<!-- Node10&#45;&gt;Node5 -->
<g id="edge13_Node000010_Node000005" class="edge">
<title>Node10&#45;&gt;Node5</title>
<g id="a_edge13_Node000010_Node000005"><a xlink:title=" ">
<path fill="none" stroke="#63b8ff" d="M1032.62,-54.94C879.12,-36.98 838.08,-42.49 689.5,-19 686.7,-18.56 683.79,-18.04 680.88,-17.5"/>
<polygon fill="#63b8ff" stroke="#63b8ff" points="1032.56,-58.46 1042.9,-56.16 1033.38,-51.5 1032.56,-58.46"/>
</a>
</g>
</g>
<!-- Node11 -->
<g id="Node000011" class="node">
<title>Node11</title>
<g id="a_Node000011"><a xlink:href="ICM20948Sensor_8cpp.html" target="_top" xlink:title=" ">
<polygon fill="white" stroke="#666666" points="1182.5,-19 1064.5,-19 1064.5,0 1182.5,0 1182.5,-19"/>
<text text-anchor="middle" x="1123.5" y="-7" font-family="Helvetica,sans-Serif" font-size="10.00">ICM20948Sensor.cpp</text>
</a>
</g>
</g>
<!-- Node10&#45;&gt;Node11 -->
<g id="edge12_Node000010_Node000011" class="edge">
<title>Node10&#45;&gt;Node11</title>
<g id="a_edge12_Node000010_Node000011"><a xlink:title=" ">
<path fill="none" stroke="#63b8ff" d="M1105.51,-45.82C1110.09,-36.82 1115.45,-26.29 1119.12,-19.09"/>
<polygon fill="#63b8ff" stroke="#63b8ff" points="1102.38,-44.25 1100.96,-54.75 1108.62,-47.43 1102.38,-44.25"/>
</a>
</g>
</g>
<!-- Node12&#45;&gt;Node5 -->
<g id="edge16_Node000012_Node000005" class="edge">
<title>Node12&#45;&gt;Node5</title>
<g id="a_edge16_Node000012_Node000005"><a xlink:title=" ">
<path fill="none" stroke="#63b8ff" d="M1157.73,-55.01C949.05,-31.83 893.19,-48.33 689.5,-19 686.69,-18.6 683.78,-18.11 680.87,-17.58"/>
<polygon fill="#63b8ff" stroke="#63b8ff" points="1157.45,-58.5 1167.78,-56.14 1158.24,-51.55 1157.45,-58.5"/>
</a>
</g>
</g>
<!-- Node13 -->
<g id="Node000013" class="node">
<title>Node13</title>
<g id="a_Node000013"><a xlink:href="INA260Sensor_8cpp.html" target="_top" xlink:title=" ">
<polygon fill="white" stroke="#666666" points="1304.5,-19 1200.5,-19 1200.5,0 1304.5,0 1304.5,-19"/>
<text text-anchor="middle" x="1252.5" y="-7" font-family="Helvetica,sans-Serif" font-size="10.00">INA260Sensor.cpp</text>
</a>
</g>
</g>
<!-- Node12&#45;&gt;Node13 -->
<g id="edge15_Node000012_Node000013" class="edge">
<title>Node12&#45;&gt;Node13</title>
<g id="a_edge15_Node000012_Node000013"><a xlink:title=" ">
<path fill="none" stroke="#63b8ff" d="M1226.77,-46.39C1233.31,-37.27 1241.07,-26.45 1246.34,-19.09"/>
<polygon fill="#63b8ff" stroke="#63b8ff" points="1223.76,-44.58 1220.77,-54.75 1229.45,-48.66 1223.76,-44.58"/>
</a>
</g>
</g>
<!-- Node14&#45;&gt;Node5 -->
<g id="edge19_Node000014_Node000005" class="edge">
<title>Node14&#45;&gt;Node5</title>
<g id="a_edge19_Node000014_Node000005"><a xlink:title=" ">
<path fill="none" stroke="#63b8ff" d="M1269.37,-55.09C1010.76,-30.05 942.15,-53.49 689.5,-19 686.69,-18.62 683.78,-18.14 680.87,-17.62"/>
<polygon fill="#63b8ff" stroke="#63b8ff" points="1269.14,-58.58 1279.44,-56.08 1269.83,-51.62 1269.14,-58.58"/>
</a>
</g>
</g>
<!-- Node15 -->
<g id="Node000015" class="node">
<title>Node15</title>
<g id="a_Node000015"><a xlink:href="MTK3339Sensor_8cpp.html" target="_top" xlink:title=" ">
<polygon fill="white" stroke="#666666" points="1438,-19 1323,-19 1323,0 1438,0 1438,-19"/>
<text text-anchor="middle" x="1380.5" y="-7" font-family="Helvetica,sans-Serif" font-size="10.00">MTK3339Sensor.cpp</text>
</a>
</g>
</g>
<!-- Node14&#45;&gt;Node15 -->
<g id="edge18_Node000014_Node000015" class="edge">
<title>Node14&#45;&gt;Node15</title>
<g id="a_edge18_Node000014_Node000015"><a xlink:title=" ">
<path fill="none" stroke="#63b8ff" d="M1346.53,-47.24C1355.12,-37.95 1365.54,-26.68 1372.56,-19.09"/>
<polygon fill="#63b8ff" stroke="#63b8ff" points="1343.81,-45.03 1339.59,-54.75 1348.95,-49.78 1343.81,-45.03"/>
</a>
</g>
</g>
<!-- Node16&#45;&gt;Node5 -->
<g id="edge22_Node000016_Node000005" class="edge">
<title>Node16&#45;&gt;Node5</title>
<g id="a_edge22_Node000016_Node000005"><a xlink:title=" ">
<path fill="none" stroke="#63b8ff" d="M525.6,-51.8C555.28,-41.91 597.1,-27.97 623.75,-19.08"/>
<polygon fill="#63b8ff" stroke="#63b8ff" points="524.43,-48.5 516.05,-54.98 526.64,-55.14 524.43,-48.5"/>
</a>
</g>
</g>
<!-- Node17 -->
<g id="Node000017" class="node">
<title>Node17</title>
<g id="a_Node000017"><a xlink:href="OzoneSensor_8cpp.html" target="_top" xlink:title=" ">
<polygon fill="white" stroke="#666666" points="470.5,-19 370.5,-19 370.5,0 470.5,0 470.5,-19"/>
<text text-anchor="middle" x="420.5" y="-7" font-family="Helvetica,sans-Serif" font-size="10.00">OzoneSensor.cpp</text>
</a>
</g>
</g>
<!-- Node16&#45;&gt;Node17 -->
<g id="edge21_Node000016_Node000017" class="edge">
<title>Node16&#45;&gt;Node17</title>
<g id="a_edge21_Node000016_Node000017"><a xlink:title=" ">
<path fill="none" stroke="#63b8ff" d="M471.19,-48.88C458.59,-39.34 442.57,-27.21 431.95,-19.17"/>
<polygon fill="#63b8ff" stroke="#63b8ff" points="469.17,-51.74 479.25,-54.98 473.39,-46.16 469.17,-51.74"/>
</a>
</g>
</g>
<!-- Node18&#45;&gt;Node5 -->
<g id="edge25_Node000018_Node000005" class="edge">
<title>Node18&#45;&gt;Node5</title>
<g id="a_edge25_Node000018_Node000005"><a xlink:title=" ">
<path fill="none" stroke="#63b8ff" d="M617.86,-46.96C625.87,-37.72 635.53,-26.6 642.05,-19.09"/>
<polygon fill="#63b8ff" stroke="#63b8ff" points="615.01,-44.9 611.1,-54.75 620.29,-49.49 615.01,-44.9"/>
</a>
</g>
</g>
<!-- Node19 -->
<g id="Node000019" class="node">
<title>Node19</title>
<g id="a_Node000019"><a xlink:href="PCF8523Sensor_8cpp.html" target="_top" xlink:title=" ">
<polygon fill="white" stroke="#666666" points="600.5,-19 488.5,-19 488.5,0 600.5,0 600.5,-19"/>
<text text-anchor="middle" x="544.5" y="-7" font-family="Helvetica,sans-Serif" font-size="10.00">PCF8523Sensor.cpp</text>
</a>
</g>
</g>
<!-- Node18&#45;&gt;Node19 -->
<g id="edge24_Node000018_Node000019" class="edge">
<title>Node18&#45;&gt;Node19</title>
<g id="a_edge24_Node000018_Node000019"><a xlink:title=" ">
<path fill="none" stroke="#63b8ff" d="M586.3,-48.04C575.83,-38.64 562.85,-26.98 554.15,-19.17"/>
<polygon fill="#63b8ff" stroke="#63b8ff" points="584.24,-50.91 594.02,-54.98 588.92,-45.7 584.24,-50.91"/>
</a>
</g>
</g>
<!-- Node20&#45;&gt;Node5 -->
<g id="edge29_Node000020_Node000005" class="edge">
<title>Node20&#45;&gt;Node5</title>
<g id="a_edge29_Node000020_Node000005"><a xlink:title=" ">
<path fill="none" stroke="#63b8ff" d="M209.95,-54.9C387.78,-33.27 435.75,-45.16 609.5,-19 612.31,-18.58 615.22,-18.08 618.12,-17.54"/>
<polygon fill="#63b8ff" stroke="#63b8ff" points="209.5,-51.43 200,-56.13 210.35,-58.38 209.5,-51.43"/>
</a>
</g>
</g>
<!-- Node20&#45;&gt;Node9 -->
<g id="edge27_Node000020_Node000009" class="edge">
<title>Node20&#45;&gt;Node9</title>
<g id="a_edge27_Node000020_Node000009"><a xlink:title=" ">
<path fill="none" stroke="#63b8ff" d="M161.45,-44.95C164.27,-36.15 167.51,-26.06 169.75,-19.09"/>
<polygon fill="#63b8ff" stroke="#63b8ff" points="158.03,-44.16 158.31,-54.75 164.69,-46.29 158.03,-44.16"/>
</a>
</g>
</g>
<!-- Node21 -->
<g id="Node000021" class="node">
<title>Node21</title>
<g id="a_Node000021"><a xlink:href="SHTC3Sensor_8cpp.html" target="_top" xlink:title=" ">
<polygon fill="white" stroke="#666666" points="101,-19 0,-19 0,0 101,0 101,-19"/>
<text text-anchor="middle" x="50.5" y="-7" font-family="Helvetica,sans-Serif" font-size="10.00">SHTC3Sensor.cpp</text>
</a>
</g>
</g>
<!-- Node20&#45;&gt;Node21 -->
<g id="edge28_Node000020_Node000021" class="edge">
<title>Node20&#45;&gt;Node21</title>
<g id="a_edge28_Node000020_Node000021"><a xlink:title=" ">
<path fill="none" stroke="#63b8ff" d="M129.48,-50.37C110.2,-40.63 84.45,-27.64 67.68,-19.17"/>
<polygon fill="#63b8ff" stroke="#63b8ff" points="128.13,-53.6 138.63,-54.98 131.28,-47.35 128.13,-53.6"/>
</a>
</g>
</g>
<!-- Node22&#45;&gt;Node5 -->
<g id="edge33_Node000022_Node000005" class="edge">
<title>Node22&#45;&gt;Node5</title>
<g id="a_edge33_Node000022_Node000005"><a xlink:title=" ">
<path fill="none" stroke="#63b8ff" d="M325.4,-54.77C452.14,-37.68 486.38,-39.79 609.5,-19 612.3,-18.53 615.2,-17.99 618.1,-17.43"/>
<polygon fill="#63b8ff" stroke="#63b8ff" points="324.74,-51.33 315.31,-56.15 325.69,-58.26 324.74,-51.33"/>
</a>
</g>
</g>
<!-- Node22&#45;&gt;Node9 -->
<g id="edge31_Node000022_Node000009" class="edge">
<title>Node22&#45;&gt;Node9</title>
<g id="a_edge31_Node000022_Node000009"><a xlink:title=" ">
<path fill="none" stroke="#63b8ff" d="M242.5,-49.97C225.31,-40.28 202.69,-27.52 187.88,-19.17"/>
<polygon fill="#63b8ff" stroke="#63b8ff" points="240.97,-53.12 251.4,-54.98 244.41,-47.02 240.97,-53.12"/>
</a>
</g>
</g>
<!-- Node23 -->
<g id="Node000023" class="node">
<title>Node23</title>
<g id="a_Node000023"><a xlink:href="TMP11xSensor_8cpp.html" target="_top" xlink:title=" ">
<polygon fill="white" stroke="#666666" points="352.5,-19 244.5,-19 244.5,0 352.5,0 352.5,-19"/>
<text text-anchor="middle" x="298.5" y="-7" font-family="Helvetica,sans-Serif" font-size="10.00">TMP11xSensor.cpp</text>
</a>
</g>
</g>
<!-- Node22&#45;&gt;Node23 -->
<g id="edge32_Node000022_Node000023" class="edge">
<title>Node22&#45;&gt;Node23</title>
<g id="a_edge32_Node000022_Node000023"><a xlink:title=" ">
<path fill="none" stroke="#63b8ff" d="M277,-46.1C282.47,-37.04 288.92,-26.37 293.31,-19.09"/>
<polygon fill="#63b8ff" stroke="#63b8ff" points="273.96,-44.38 271.78,-54.75 279.95,-48 273.96,-44.38"/>
</a>
</g>
</g>
<!-- Node24&#45;&gt;Node5 -->
<g id="edge36_Node000024_Node000005" class="edge">
<title>Node24&#45;&gt;Node5</title>
<g id="a_edge36_Node000024_Node000005"><a xlink:title=" ">
<path fill="none" stroke="#63b8ff" d="M726.98,-50.37C708.06,-40.63 682.8,-27.64 666.35,-19.17"/>
<polygon fill="#63b8ff" stroke="#63b8ff" points="725.46,-53.52 735.95,-54.98 728.66,-47.3 725.46,-53.52"/>
</a>
</g>
</g>
<!-- Node25 -->
<g id="Node000025" class="node">
<title>Node25</title>
<g id="a_Node000025"><a xlink:href="TempSensor_8cpp.html" target="_top" xlink:title=" ">
<polygon fill="white" stroke="#666666" points="794,-19 699,-19 699,0 794,0 794,-19"/>
<text text-anchor="middle" x="746.5" y="-7" font-family="Helvetica,sans-Serif" font-size="10.00">TempSensor.cpp</text>
</a>
</g>
</g>
<!-- Node24&#45;&gt;Node25 -->
<g id="edge35_Node000024_Node000025" class="edge">
<title>Node24&#45;&gt;Node25</title>
<g id="a_edge35_Node000024_Node000025"><a xlink:title=" ">
<path fill="none" stroke="#63b8ff" d="M750.37,-44.66C749.38,-35.93 748.25,-25.99 747.47,-19.09"/>
<polygon fill="#63b8ff" stroke="#63b8ff" points="746.91,-45.21 751.51,-54.75 753.86,-44.42 746.91,-45.21"/>
</a>
</g>
</g>
<!-- Node27 -->
<g id="Node000027" class="node">
<title>Node27</title>
<g id="a_Node000027"><a xlink:href="FlashStorage_8h.html" target="_top" xlink:title=" ">
<polygon fill="white" stroke="#666666" points="1566,-74 1477,-74 1477,-55 1566,-55 1566,-74"/>
<text text-anchor="middle" x="1521.5" y="-62" font-family="Helvetica,sans-Serif" font-size="10.00">FlashStorage.h</text>
</a>
</g>
</g>
<!-- Node26&#45;&gt;Node27 -->
<g id="edge39_Node000026_Node000027" class="edge">
<title>Node26&#45;&gt;Node27</title>
<g id="a_edge39_Node000026_Node000027"><a xlink:title=" ">
<path fill="none" stroke="#63b8ff" d="M1574.36,-103.88C1561.22,-94.34 1544.52,-82.21 1533.44,-74.17"/>
<polygon fill="#63b8ff" stroke="#63b8ff" points="1572.62,-106.94 1582.77,-109.98 1576.74,-101.28 1572.62,-106.94"/>
</a>
</g>
</g>
<!-- Node29 -->
<g id="Node000029" class="node">
<title>Node29</title>
<g id="a_Node000029"><a xlink:href="main1_8cpp.html" target="_top" xlink:title="Main functions for Core 1, responsible for sending data to storage peripherals.">
<polygon fill="white" stroke="#666666" points="1643.5,-19 1575.5,-19 1575.5,0 1643.5,0 1643.5,-19"/>
<text text-anchor="middle" x="1609.5" y="-7" font-family="Helvetica,sans-Serif" font-size="10.00">main1.cpp</text>
</a>
</g>
</g>
<!-- Node26&#45;&gt;Node29 -->
<g id="edge48_Node000026_Node000029" class="edge">
<title>Node26&#45;&gt;Node29</title>
<g id="a_edge48_Node000026_Node000029"><a xlink:title=" ">
<path fill="none" stroke="#63b8ff" d="M1597.14,-99.48C1600.42,-75.84 1605.89,-36.5 1608.3,-19.16"/>
<polygon fill="#63b8ff" stroke="#63b8ff" points="1593.64,-99.28 1595.73,-109.66 1600.57,-100.24 1593.64,-99.28"/>
</a>
</g>
</g>
<!-- Node30 -->
<g id="Node000030" class="node">
<title>Node30</title>
<g id="a_Node000030"><a xlink:href="RadioStorage_8h.html" target="_top" xlink:title=" ">
<polygon fill="white" stroke="#666666" points="1714,-74 1623,-74 1623,-55 1714,-55 1714,-74"/>
<text text-anchor="middle" x="1668.5" y="-62" font-family="Helvetica,sans-Serif" font-size="10.00">RadioStorage.h</text>
</a>
</g>
</g>
<!-- Node26&#45;&gt;Node30 -->
<g id="edge42_Node000026_Node000030" class="edge">
<title>Node26&#45;&gt;Node30</title>
<g id="a_edge42_Node000026_Node000030"><a xlink:title=" ">
<path fill="none" stroke="#63b8ff" d="M1614.53,-104.15C1627.91,-94.57 1645.06,-82.29 1656.39,-74.17"/>
<polygon fill="#63b8ff" stroke="#63b8ff" points="1612.48,-101.32 1606.39,-109.98 1616.56,-107.01 1612.48,-101.32"/>
</a>
</g>
</g>
<!-- Node32 -->
<g id="Node000032" class="node">
<title>Node32</title>
<g id="a_Node000032"><a xlink:href="SDStorage_8h.html" target="_top" xlink:title=" ">
<polygon fill="white" stroke="#666666" points="1809,-74 1732,-74 1732,-55 1809,-55 1809,-74"/>
<text text-anchor="middle" x="1770.5" y="-62" font-family="Helvetica,sans-Serif" font-size="10.00">SDStorage.h</text>
</a>
</g>
</g>
<!-- Node26&#45;&gt;Node32 -->
<g id="edge45_Node000026_Node000032" class="edge">
<title>Node26&#45;&gt;Node32</title>
<g id="a_edge45_Node000026_Node000032"><a xlink:title=" ">
<path fill="none" stroke="#63b8ff" d="M1632.5,-107.06C1665.4,-97.15 1712.24,-83.04 1742,-74.08"/>
<polygon fill="#63b8ff" stroke="#63b8ff" points="1631.34,-103.75 1622.78,-109.98 1633.36,-110.45 1631.34,-103.75"/>
</a>
</g>
</g>
<!-- Node28 -->
<g id="Node000028" class="node">
<title>Node28</title>
<g id="a_Node000028"><a xlink:href="FlashStorage_8cpp.html" target="_top" xlink:title=" ">
<polygon fill="white" stroke="#666666" points="1557,-19 1456,-19 1456,0 1557,0 1557,-19"/>
<text text-anchor="middle" x="1506.5" y="-7" font-family="Helvetica,sans-Serif" font-size="10.00">FlashStorage.cpp</text>
</a>
</g>
</g>
<!-- Node27&#45;&gt;Node28 -->
<g id="edge40_Node000027_Node000028" class="edge">
<title>Node27&#45;&gt;Node28</title>
<g id="a_edge40_Node000027_Node000028"><a xlink:title=" ">
<path fill="none" stroke="#63b8ff" d="M1516.25,-44.95C1513.76,-36.15 1510.9,-26.06 1508.93,-19.09"/>
<polygon fill="#63b8ff" stroke="#63b8ff" points="1512.93,-46.08 1519.02,-54.75 1519.67,-44.17 1512.93,-46.08"/>
</a>
</g>
</g>
<!-- Node27&#45;&gt;Node29 -->
<g id="edge41_Node000027_Node000029" class="edge">
<title>Node27&#45;&gt;Node29</title>
<g id="a_edge41_Node000027_Node000029"><a xlink:title=" ">
<path fill="none" stroke="#63b8ff" d="M1544.42,-49.7C1560.45,-40.04 1581.37,-27.44 1595.1,-19.17"/>
<polygon fill="#63b8ff" stroke="#63b8ff" points="1542.4,-46.83 1535.64,-54.98 1546.01,-52.82 1542.4,-46.83"/>
</a>
</g>
</g>
<!-- Node30&#45;&gt;Node29 -->
<g id="edge44_Node000030_Node000029" class="edge">
<title>Node30&#45;&gt;Node29</title>
<g id="a_edge44_Node000030_Node000029"><a xlink:title=" ">
<path fill="none" stroke="#63b8ff" d="M1651.3,-48.04C1640.83,-38.64 1627.85,-26.98 1619.15,-19.17"/>
<polygon fill="#63b8ff" stroke="#63b8ff" points="1649.24,-50.91 1659.02,-54.98 1653.92,-45.7 1649.24,-50.91"/>
</a>
</g>
</g>
<!-- Node31 -->
<g id="Node000031" class="node">
<title>Node31</title>
<g id="a_Node000031"><a xlink:href="RadioStorage_8cpp.html" target="_top" xlink:title=" ">
<polygon fill="white" stroke="#666666" points="1763.5,-19 1661.5,-19 1661.5,0 1763.5,0 1763.5,-19"/>
<text text-anchor="middle" x="1712.5" y="-7" font-family="Helvetica,sans-Serif" font-size="10.00">RadioStorage.cpp</text>
</a>
</g>
</g>
<!-- Node30&#45;&gt;Node31 -->
<g id="edge43_Node000030_Node000031" class="edge">
<title>Node30&#45;&gt;Node31</title>
<g id="a_edge43_Node000030_Node000031"><a xlink:title=" ">
<path fill="none" stroke="#63b8ff" d="M1682.23,-46.96C1689.9,-37.72 1699.13,-26.6 1705.37,-19.09"/>
<polygon fill="#63b8ff" stroke="#63b8ff" points="1679.46,-44.82 1675.77,-54.75 1684.85,-49.29 1679.46,-44.82"/>
</a>
</g>
</g>
<!-- Node32&#45;&gt;Node29 -->
<g id="edge47_Node000032_Node000029" class="edge">
<title>Node32&#45;&gt;Node29</title>
<g id="a_edge47_Node000032_Node000029"><a xlink:title=" ">
<path fill="none" stroke="#63b8ff" d="M1734.95,-51.8C1704.91,-41.91 1662.56,-27.97 1635.57,-19.08"/>
<polygon fill="#63b8ff" stroke="#63b8ff" points="1734.04,-55.18 1744.63,-54.98 1736.23,-48.53 1734.04,-55.18"/>
</a>
</g>
</g>
<!-- Node33 -->
<g id="Node000033" class="node">
<title>Node33</title>
<g id="a_Node000033"><a xlink:href="SDStorage_8cpp.html" target="_top" xlink:title=" ">
<polygon fill="white" stroke="#666666" points="1869.5,-19 1781.5,-19 1781.5,0 1869.5,0 1869.5,-19"/>
<text text-anchor="middle" x="1825.5" y="-7" font-family="Helvetica,sans-Serif" font-size="10.00">SDStorage.cpp</text>
</a>
</g>
</g>
<!-- Node32&#45;&gt;Node33 -->
<g id="edge46_Node000032_Node000033" class="edge">
<title>Node32&#45;&gt;Node33</title>
<g id="a_edge46_Node000032_Node000033"><a xlink:title=" ">
<path fill="none" stroke="#63b8ff" d="M1786.79,-47.8C1796.54,-38.41 1808.55,-26.83 1816.59,-19.09"/>
<polygon fill="#63b8ff" stroke="#63b8ff" points="1784.35,-45.29 1779.58,-54.75 1789.21,-50.33 1784.35,-45.29"/>
</a>
</g>
</g>
</g>
</svg>

<g id="navigator" transform="translate(0 0)" fill="#404254">
  <rect fill="#f2f5e9" fill-opacity="0.5" stroke="#606060" stroke-width=".5" x="0" y="0" width="60" height="60"/>
  <use id="zoomplus" xlink:href="#zoomPlus" x="17" y="9" onmousedown="handleZoom(evt,'in')"/>
  <use id="zoomminus" xlink:href="#zoomMin" x="42" y="9" onmousedown="handleZoom(evt,'out')"/>
  <use id="reset" xlink:href="#resetDef" x="30" y="36" onmousedown="handleReset()"/>
   <use id="arrowup" xlink:href="#arrowUp" x="0" y="0" onmousedown="handlePan(0,-1)"/>
  <use id="arrowright" xlink:href="#arrowRight" x="0" y="0" onmousedown="handlePan(1,0)"/>
  <use id="arrowdown" xlink:href="#arrowDown" x="0" y="0" onmousedown="handlePan(0,1)"/>
  <use id="arrowleft" xlink:href="#arrowLeft" x="0" y="0" onmousedown="handlePan(-1,0)"/>
</g>
<svg viewBox="0 0 15 15" width="100%" height="30px" preserveAspectRatio="xMaxYMin meet">
 <g id="arrow_out" transform="scale(0.3 0.3)">
  <a xlink:href="Device_8h__dep__incl_org.svg" target="_base">
   <rect id="button" ry="5" rx="5" y="6" x="6" height="38" width="38"
        fill="#f2f5e9" fill-opacity="0.5" stroke="#606060" stroke-width="1.0"/>
   <path id="arrow"
     d="M 11.500037,31.436501 C 11.940474,20.09759 22.043105,11.32322 32.158766,21.979434 L 37.068811,17.246167 C 37.068811,17.246167 37.088388,32 37.088388,32 L 22.160133,31.978069 C 22.160133,31.978069 26.997745,27.140456 26.997745,27.140456 C 18.528582,18.264221 13.291696,25.230495 11.500037,31.436501 z"
     style="fill:#404040;"/>
  </a>
 </g>
</svg>

<style type='text/css'>
<![CDATA[
[data-mouse-over-selected='false'] { opacity: 0.7; }
[data-mouse-over-selected='true']  { opacity: 1.0; }
]]>
</style>
<script type="application/ecmascript"><![CDATA[
document.addEventListener('DOMContentLoaded', (event) => {
  highlightEdges();
  highlightAdjacentNodes();
});
]]></script>
</svg>
