<?xml version="1.0" encoding="UTF-8" standalone="no"?>
<!DOCTYPE svg PUBLIC "-//W3C//DTD SVG 1.1//EN"
 "http://www.w3.org/Graphics/SVG/1.1/DTD/svg11.dtd">
<!-- Generated by graphviz version 2.43.0 (0)
 -->
<!-- Title: Device.h Pages: 1 -->
<!--zoomable 192 -->

<svg id="main" version="1.1" xmlns="http://www.w3.org/2000/svg" xmlns:xlink="http://www.w3.org/1999/xlink" xml:space="preserve" onload="init(evt)">
<style type="text/css"><![CDATA[
.node, .edge {opacity: 0.7;}
.node.selected, .edge.selected {opacity: 1;}
.edge:hover path { stroke: red; }
.edge:hover polygon { stroke: red; fill: red; }
]]></style>

<defs>
  <circle id="rim" cx="0" cy="0" r="7"/>
  <circle id="rim2" cx="0" cy="0" r="3.5"/>
  <g id="zoomPlus">
    <use xlink:href="#rim" fill="#404040"><set attributeName="fill" to="#808080" begin="zoomplus.mouseover" end="zoomplus.mouseout"/></use>
    <path d="M-4,0h8M0,-4v8" fill="none" stroke="white" stroke-width="1.5" pointer-events="none"/>
  </g>
  <g id="zoomMin">
    <use xlink:href="#rim" fill="#404040"><set attributeName="fill" to="#808080" begin="zoomminus.mouseover" end="zoomminus.mouseout"/></use>
    <path d="M-4,0h8" fill="none" stroke="white" stroke-width="1.5" pointer-events="none"/>
  </g>
  <g id="arrowUp" transform="translate(30 24)">
    <use xlink:href="#rim"/>
    <path pointer-events="none" fill="none" stroke="white" stroke-width="1.5" d="M0,-3.0v7 M-2.5,-0.5L0,-3.0L2.5,-0.5"/>
  </g>
  <g id="arrowRight" transform="rotate(90) translate(36 -43)">
    <use xlink:href="#rim"/>
    <path pointer-events="none" fill="none" stroke="white" stroke-width="1.5" d="M0,-3.0v7 M-2.5,-0.5L0,-3.0L2.5,-0.5"/>
  </g>
  <g id="arrowDown" transform="rotate(180) translate(-30 -48)">
    <use xlink:href="#rim"/>
    <path pointer-events="none" fill="none" stroke="white" stroke-width="1.5" d="M0,-3.0v7 M-2.5,-0.5L0,-3.0L2.5,-0.5"/>
  </g>
  <g id="arrowLeft" transform="rotate(270) translate(-36 17)">
    <use xlink:href="#rim"/>
    <path pointer-events="none" fill="none" stroke="white" stroke-width="1.5" d="M0,-3.0v7 M-2.5,-0.5L0,-3.0L2.5,-0.5"/>
  </g>
  <g id="resetDef">
    <use xlink:href="#rim2" fill="#404040"><set attributeName="fill" to="#808080" begin="reset.mouseover" end="reset.mouseout"/></use>
  </g>
</defs>
<script type="application/ecmascript">
var viewWidth = 1995;
var viewHeight = 192;
var sectionId = 'dynsection-1';
</script>
<script type="application/ecmascript" xlink:href="svg.min.js"/>
<svg id="graph" class="graph">
<g id="viewport">
<title>Device.h</title>
<!-- Node1 -->
<g id="Node000001" class="node">
<title>Node1</title>
<g id="a_Node000001"><a xlink:title=" ">
<polygon fill="#999999" stroke="#666666" points="1250,-184 1191,-184 1191,-165 1250,-165 1250,-184"/>
<text text-anchor="middle" x="1220.5" y="-172" font-family="Helvetica,sans-Serif" font-size="10.00">Device.h</text>
</a>
</g>
</g>
<!-- Node2 -->
<g id="Node000002" class="node">
<title>Node2</title>
<g id="a_Node000002"><a xlink:href="Sensor_8h.html" target="_top" xlink:title=" ">
<polygon fill="white" stroke="#666666" points="837.5,-129 779.5,-129 779.5,-110 837.5,-110 837.5,-129"/>
<text text-anchor="middle" x="808.5" y="-117" font-family="Helvetica,sans-Serif" font-size="10.00">Sensor.h</text>
</a>
</g>
</g>
<!-- Node1&#45;&gt;Node2 -->
<g id="edge1_Node000001_Node000002" class="edge">
<title>Node1&#45;&gt;Node2</title>
<g id="a_edge1_Node000001_Node000002"><a xlink:title=" ">
<path fill="none" stroke="#63b8ff" d="M1180.89,-168.4C1098.43,-157.8 910,-133.56 837.59,-124.24"/>
<polygon fill="#63b8ff" stroke="#63b8ff" points="1180.51,-171.88 1190.87,-169.69 1181.4,-164.94 1180.51,-171.88"/>
</a>
</g>
</g>
<!-- Node28 -->
<g id="Node000028" class="node">
<title>Node28</title>
<g id="a_Node000028"><a xlink:href="Storage_8h.html" target="_top" xlink:title=" ">
<polygon fill="white" stroke="#666666" points="1729,-129 1666,-129 1666,-110 1729,-110 1729,-129"/>
<text text-anchor="middle" x="1697.5" y="-117" font-family="Helvetica,sans-Serif" font-size="10.00">Storage.h</text>
</a>
</g>
</g>
<!-- Node1&#45;&gt;Node28 -->
<g id="edge41_Node000001_Node000028" class="edge">
<title>Node1&#45;&gt;Node28</title>
<g id="a_edge41_Node000001_Node000028"><a xlink:title=" ">
<path fill="none" stroke="#63b8ff" d="M1260.44,-169.06C1353.22,-158.75 1581.76,-133.36 1665.81,-124.02"/>
<polygon fill="#63b8ff" stroke="#63b8ff" points="1259.89,-165.6 1250.34,-170.18 1260.66,-172.56 1259.89,-165.6"/>
</a>
</g>
</g>
<!-- Node3 -->
<g id="Node000003" class="node">
<title>Node3</title>
<g id="a_Node000003"><a xlink:href="AS7331Sensor_8h.html" target="_top" xlink:title=" ">
<polygon fill="white" stroke="#666666" points="637,-74 542,-74 542,-55 637,-55 637,-74"/>
<text text-anchor="middle" x="589.5" y="-62" font-family="Helvetica,sans-Serif" font-size="10.00">AS7331Sensor.h</text>
</a>
</g>
</g>
<!-- Node2&#45;&gt;Node3 -->
<g id="edge2_Node000002_Node000003" class="edge">
<title>Node2&#45;&gt;Node3</title>
<g id="a_edge2_Node000002_Node000003"><a xlink:title=" ">
<path fill="none" stroke="#63b8ff" d="M769.51,-109.06C728.49,-99.14 664.48,-83.65 624.87,-74.06"/>
<polygon fill="#63b8ff" stroke="#63b8ff" points="768.88,-112.51 779.42,-111.46 770.52,-105.71 768.88,-112.51"/>
</a>
</g>
</g>
<!-- Node5 -->
<g id="Node000005" class="node">
<title>Node5</title>
<g id="a_Node000005"><a xlink:href="main_8cpp.html" target="_top" xlink:title="Main functions for Core 0, responsible for reading data from sensor peripherals.">
<polygon fill="white" stroke="#666666" points="786.5,-19 724.5,-19 724.5,0 786.5,0 786.5,-19"/>
<text text-anchor="middle" x="755.5" y="-7" font-family="Helvetica,sans-Serif" font-size="10.00">main.cpp</text>
</a>
</g>
</g>
<!-- Node2&#45;&gt;Node5 -->
<g id="edge40_Node000002_Node000005" class="edge">
<title>Node2&#45;&gt;Node5</title>
<g id="a_edge40_Node000002_Node000005"><a xlink:title=" ">
<path fill="none" stroke="#63b8ff" d="M799.64,-100.44C788.1,-76.92 768.37,-36.73 759.75,-19.16"/>
<polygon fill="#63b8ff" stroke="#63b8ff" points="796.62,-102.23 804.16,-109.66 802.9,-99.14 796.62,-102.23"/>
</a>
</g>
</g>
<!-- Node6 -->
<g id="Node000006" class="node">
<title>Node6</title>
<g id="a_Node000006"><a xlink:href="AnalogTemp_8h.html" target="_top" xlink:title=" ">
<polygon fill="white" stroke="#666666" points="741.5,-74 655.5,-74 655.5,-55 741.5,-55 741.5,-74"/>
<text text-anchor="middle" x="698.5" y="-62" font-family="Helvetica,sans-Serif" font-size="10.00">AnalogTemp.h</text>
</a>
</g>
</g>
<!-- Node2&#45;&gt;Node6 -->
<g id="edge5_Node000002_Node000006" class="edge">
<title>Node2&#45;&gt;Node6</title>
<g id="a_edge5_Node000002_Node000006"><a xlink:title=" ">
<path fill="none" stroke="#63b8ff" d="M781.8,-105.63C761.53,-95.87 734.23,-82.71 716.49,-74.17"/>
<polygon fill="#63b8ff" stroke="#63b8ff" points="780.3,-108.8 790.83,-109.98 783.34,-102.49 780.3,-108.8"/>
</a>
</g>
</g>
<!-- Node8 -->
<g id="Node000008" class="node">
<title>Node8</title>
<g id="a_Node000008"><a xlink:href="BMP390Sensor_8h.html" target="_top" xlink:title=" ">
<polygon fill="white" stroke="#666666" points="895.5,-74 797.5,-74 797.5,-55 895.5,-55 895.5,-74"/>
<text text-anchor="middle" x="846.5" y="-62" font-family="Helvetica,sans-Serif" font-size="10.00">BMP390Sensor.h</text>
</a>
</g>
</g>
<!-- Node2&#45;&gt;Node8 -->
<g id="edge8_Node000002_Node000008" class="edge">
<title>Node2&#45;&gt;Node8</title>
<g id="a_edge8_Node000002_Node000008"><a xlink:title=" ">
<path fill="none" stroke="#63b8ff" d="M820.77,-101.39C827.31,-92.27 835.07,-81.45 840.34,-74.09"/>
<polygon fill="#63b8ff" stroke="#63b8ff" points="817.76,-99.58 814.77,-109.75 823.45,-103.66 817.76,-99.58"/>
</a>
</g>
</g>
<!-- Node10 -->
<g id="Node000010" class="node">
<title>Node10</title>
<g id="a_Node000010"><a xlink:href="ENS160Sensor_8h.html" target="_top" xlink:title=" ">
<polygon fill="white" stroke="#666666" points="306,-74 211,-74 211,-55 306,-55 306,-74"/>
<text text-anchor="middle" x="258.5" y="-62" font-family="Helvetica,sans-Serif" font-size="10.00">ENS160Sensor.h</text>
</a>
</g>
</g>
<!-- Node2&#45;&gt;Node10 -->
<g id="edge11_Node000002_Node000010" class="edge">
<title>Node2&#45;&gt;Node10</title>
<g id="a_edge11_Node000002_Node000010"><a xlink:title=" ">
<path fill="none" stroke="#63b8ff" d="M769.42,-115.79C685.79,-109.82 483.39,-94.4 314.5,-74 311.77,-73.67 308.96,-73.31 306.13,-72.93"/>
<polygon fill="#63b8ff" stroke="#63b8ff" points="769.26,-119.29 779.48,-116.51 769.75,-112.31 769.26,-119.29"/>
</a>
</g>
</g>
<!-- Node12 -->
<g id="Node000012" class="node">
<title>Node12</title>
<g id="a_Node000012"><a xlink:href="ICM20948Sensor_8h.html" target="_top" xlink:title=" ">
<polygon fill="white" stroke="#666666" points="1021,-74 914,-74 914,-55 1021,-55 1021,-74"/>
<text text-anchor="middle" x="967.5" y="-62" font-family="Helvetica,sans-Serif" font-size="10.00">ICM20948Sensor.h</text>
</a>
</g>
</g>
<!-- Node2&#45;&gt;Node12 -->
<g id="edge14_Node000002_Node000012" class="edge">
<title>Node2&#45;&gt;Node12</title>
<g id="a_edge14_Node000002_Node000012"><a xlink:title=" ">
<path fill="none" stroke="#63b8ff" d="M843.6,-106.8C873.28,-96.91 915.1,-82.97 941.75,-74.08"/>
<polygon fill="#63b8ff" stroke="#63b8ff" points="842.43,-103.5 834.05,-109.98 844.64,-110.14 842.43,-103.5"/>
</a>
</g>
</g>
<!-- Node14 -->
<g id="Node000014" class="node">
<title>Node14</title>
<g id="a_Node000014"><a xlink:href="INA260Sensor_8h.html" target="_top" xlink:title=" ">
<polygon fill="white" stroke="#666666" points="1132,-74 1039,-74 1039,-55 1132,-55 1132,-74"/>
<text text-anchor="middle" x="1085.5" y="-62" font-family="Helvetica,sans-Serif" font-size="10.00">INA260Sensor.h</text>
</a>
</g>
</g>
<!-- Node2&#45;&gt;Node14 -->
<g id="edge17_Node000002_Node000014" class="edge">
<title>Node2&#45;&gt;Node14</title>
<g id="a_edge17_Node000002_Node000014"><a xlink:title=" ">
<path fill="none" stroke="#63b8ff" d="M847.58,-111.02C898.51,-101.28 987.35,-84.28 1040.87,-74.04"/>
<polygon fill="#63b8ff" stroke="#63b8ff" points="846.78,-107.61 837.62,-112.93 848.1,-114.49 846.78,-107.61"/>
</a>
</g>
</g>
<!-- Node16 -->
<g id="Node000016" class="node">
<title>Node16</title>
<g id="a_Node000016"><a xlink:href="MTK3339Sensor_8h.html" target="_top" xlink:title=" ">
<polygon fill="white" stroke="#666666" points="1254.5,-74 1150.5,-74 1150.5,-55 1254.5,-55 1254.5,-74"/>
<text text-anchor="middle" x="1202.5" y="-62" font-family="Helvetica,sans-Serif" font-size="10.00">MTK3339Sensor.h</text>
</a>
</g>
</g>
<!-- Node2&#45;&gt;Node16 -->
<g id="edge20_Node000002_Node000016" class="edge">
<title>Node2&#45;&gt;Node16</title>
<g id="a_edge20_Node000002_Node000016"><a xlink:title=" ">
<path fill="none" stroke="#63b8ff" d="M847.97,-113.25C910.17,-104.96 1034.82,-88.33 1140.5,-74 1143.73,-73.56 1147.05,-73.11 1150.41,-72.65"/>
<polygon fill="#63b8ff" stroke="#63b8ff" points="847.27,-109.81 837.82,-114.6 848.19,-116.75 847.27,-109.81"/>
</a>
</g>
</g>
<!-- Node18 -->
<g id="Node000018" class="node">
<title>Node18</title>
<g id="a_Node000018"><a xlink:href="OzoneSensor_8h.html" target="_top" xlink:title=" ">
<polygon fill="white" stroke="#666666" points="1362,-74 1273,-74 1273,-55 1362,-55 1362,-74"/>
<text text-anchor="middle" x="1317.5" y="-62" font-family="Helvetica,sans-Serif" font-size="10.00">OzoneSensor.h</text>
</a>
</g>
</g>
<!-- Node2&#45;&gt;Node18 -->
<g id="edge23_Node000002_Node000018" class="edge">
<title>Node2&#45;&gt;Node18</title>
<g id="a_edge23_Node000002_Node000018"><a xlink:title=" ">
<path fill="none" stroke="#63b8ff" d="M848.03,-115.42C927.09,-109.08 1110.29,-93.53 1263.5,-74 1266.51,-73.62 1269.62,-73.2 1272.74,-72.75"/>
<polygon fill="#63b8ff" stroke="#63b8ff" points="847.27,-111.97 837.58,-116.25 847.82,-118.95 847.27,-111.97"/>
</a>
</g>
</g>
<!-- Node20 -->
<g id="Node000020" class="node">
<title>Node20</title>
<g id="a_Node000020"><a xlink:href="PCF8523Sensor_8h.html" target="_top" xlink:title=" ">
<polygon fill="white" stroke="#666666" points="1481,-74 1380,-74 1380,-55 1481,-55 1481,-74"/>
<text text-anchor="middle" x="1430.5" y="-62" font-family="Helvetica,sans-Serif" font-size="10.00">PCF8523Sensor.h</text>
</a>
</g>
</g>
<!-- Node2&#45;&gt;Node20 -->
<g id="edge26_Node000002_Node000020" class="edge">
<title>Node2&#45;&gt;Node20</title>
<g id="a_edge26_Node000002_Node000020"><a xlink:title=" ">
<path fill="none" stroke="#63b8ff" d="M847.71,-116.23C939.37,-110.74 1174.68,-95.6 1370.5,-74 1373.53,-73.67 1376.65,-73.3 1379.79,-72.91"/>
<polygon fill="#63b8ff" stroke="#63b8ff" points="847.29,-112.75 837.51,-116.84 847.7,-119.74 847.29,-112.75"/>
</a>
</g>
</g>
<!-- Node22 -->
<g id="Node000022" class="node">
<title>Node22</title>
<g id="a_Node000022"><a xlink:href="SHTC3Sensor_8h.html" target="_top" xlink:title=" ">
<polygon fill="white" stroke="#666666" points="193,-74 104,-74 104,-55 193,-55 193,-74"/>
<text text-anchor="middle" x="148.5" y="-62" font-family="Helvetica,sans-Serif" font-size="10.00">SHTC3Sensor.h</text>
</a>
</g>
</g>
<!-- Node2&#45;&gt;Node22 -->
<g id="edge29_Node000002_Node000022" class="edge">
<title>Node2&#45;&gt;Node22</title>
<g id="a_edge29_Node000002_Node000022"><a xlink:title=" ">
<path fill="none" stroke="#63b8ff" d="M769.16,-116.79C672.35,-112.32 414.95,-98.89 201.5,-74 198.82,-73.69 196.06,-73.34 193.28,-72.96"/>
<polygon fill="#63b8ff" stroke="#63b8ff" points="769.21,-120.29 779.35,-117.25 769.52,-113.3 769.21,-120.29"/>
</a>
</g>
</g>
<!-- Node24 -->
<g id="Node000024" class="node">
<title>Node24</title>
<g id="a_Node000024"><a xlink:href="TMP11xSensor_8h.html" target="_top" xlink:title=" ">
<polygon fill="white" stroke="#666666" points="421,-74 324,-74 324,-55 421,-55 421,-74"/>
<text text-anchor="middle" x="372.5" y="-62" font-family="Helvetica,sans-Serif" font-size="10.00">TMP11xSensor.h</text>
</a>
</g>
</g>
<!-- Node2&#45;&gt;Node24 -->
<g id="edge33_Node000002_Node000024" class="edge">
<title>Node2&#45;&gt;Node24</title>
<g id="a_edge33_Node000002_Node000024"><a xlink:title=" ">
<path fill="none" stroke="#63b8ff" d="M769.09,-114.23C700.3,-106.7 553.87,-90.3 430.5,-74 427.47,-73.6 424.36,-73.18 421.22,-72.74"/>
<polygon fill="#63b8ff" stroke="#63b8ff" points="768.74,-117.71 779.06,-115.32 769.5,-110.76 768.74,-117.71"/>
</a>
</g>
</g>
<!-- Node26 -->
<g id="Node000026" class="node">
<title>Node26</title>
<g id="a_Node000026"><a xlink:href="TempSensor_8h.html" target="_top" xlink:title=" ">
<polygon fill="white" stroke="#666666" points="523.5,-74 439.5,-74 439.5,-55 523.5,-55 523.5,-74"/>
<text text-anchor="middle" x="481.5" y="-62" font-family="Helvetica,sans-Serif" font-size="10.00">TempSensor.h</text>
</a>
</g>
</g>
<!-- Node2&#45;&gt;Node26 -->
<g id="edge37_Node000002_Node000026" class="edge">
<title>Node2&#45;&gt;Node26</title>
<g id="a_edge37_Node000002_Node000026"><a xlink:title=" ">
<path fill="none" stroke="#63b8ff" d="M769.41,-112.26C715.92,-103.72 616.92,-87.84 532.5,-74 529.58,-73.52 526.56,-73.02 523.52,-72.52"/>
<polygon fill="#63b8ff" stroke="#63b8ff" points="769.06,-115.75 779.48,-113.87 770.16,-108.84 769.06,-115.75"/>
</a>
</g>
</g>
<!-- Node4 -->
<g id="Node000004" class="node">
<title>Node4</title>
<g id="a_Node000004"><a xlink:href="AS7331Sensor_8cpp.html" target="_top" xlink:title=" ">
<polygon fill="white" stroke="#666666" points="590.5,-19 484.5,-19 484.5,0 590.5,0 590.5,-19"/>
<text text-anchor="middle" x="537.5" y="-7" font-family="Helvetica,sans-Serif" font-size="10.00">AS7331Sensor.cpp</text>
</a>
</g>
</g>
<!-- Node3&#45;&gt;Node4 -->
<g id="edge3_Node000003_Node000004" class="edge">
<title>Node3&#45;&gt;Node4</title>
<g id="a_edge3_Node000003_Node000004"><a xlink:title=" ">
<path fill="none" stroke="#63b8ff" d="M573.82,-47.52C564.66,-38.18 553.45,-26.75 545.93,-19.09"/>
<polygon fill="#63b8ff" stroke="#63b8ff" points="571.41,-50.06 580.91,-54.75 576.41,-45.16 571.41,-50.06"/>
</a>
</g>
</g>
<!-- Node3&#45;&gt;Node5 -->
<g id="edge4_Node000003_Node000005" class="edge">
<title>Node3&#45;&gt;Node5</title>
<g id="a_edge4_Node000003_Node000005"><a xlink:title=" ">
<path fill="none" stroke="#63b8ff" d="M625.75,-51.93C656.75,-42.03 700.67,-28.01 728.62,-19.08"/>
<polygon fill="#63b8ff" stroke="#63b8ff" points="624.63,-48.61 616.17,-54.98 626.76,-55.28 624.63,-48.61"/>
</a>
</g>
</g>
<!-- Node6&#45;&gt;Node5 -->
<g id="edge7_Node000006_Node000005" class="edge">
<title>Node6&#45;&gt;Node5</title>
<g id="a_edge7_Node000006_Node000005"><a xlink:title=" ">
<path fill="none" stroke="#63b8ff" d="M715.12,-48.04C725.23,-38.64 737.78,-26.98 746.18,-19.17"/>
<polygon fill="#63b8ff" stroke="#63b8ff" points="712.6,-45.61 707.66,-54.98 717.36,-50.74 712.6,-45.61"/>
</a>
</g>
</g>
<!-- Node7 -->
<g id="Node000007" class="node">
<title>Node7</title>
<g id="a_Node000007"><a xlink:href="AnalogTemp_8cpp.html" target="_top" xlink:title=" ">
<polygon fill="white" stroke="#666666" points="706,-19 609,-19 609,0 706,0 706,-19"/>
<text text-anchor="middle" x="657.5" y="-7" font-family="Helvetica,sans-Serif" font-size="10.00">AnalogTemp.cpp</text>
</a>
</g>
</g>
<!-- Node6&#45;&gt;Node7 -->
<g id="edge6_Node000006_Node000007" class="edge">
<title>Node6&#45;&gt;Node7</title>
<g id="a_edge6_Node000006_Node000007"><a xlink:title=" ">
<path fill="none" stroke="#63b8ff" d="M685.48,-46.67C678.38,-37.5 669.9,-26.52 664.14,-19.09"/>
<polygon fill="#63b8ff" stroke="#63b8ff" points="682.84,-48.98 691.73,-54.75 688.38,-44.7 682.84,-48.98"/>
</a>
</g>
</g>
<!-- Node8&#45;&gt;Node5 -->
<g id="edge10_Node000008_Node000005" class="edge">
<title>Node8&#45;&gt;Node5</title>
<g id="a_edge10_Node000008_Node000005"><a xlink:title=" ">
<path fill="none" stroke="#63b8ff" d="M822.8,-49.7C806.22,-40.04 784.59,-27.44 770.39,-19.17"/>
<polygon fill="#63b8ff" stroke="#63b8ff" points="821.48,-52.98 831.88,-54.98 825,-46.93 821.48,-52.98"/>
</a>
</g>
</g>
<!-- Node9 -->
<g id="Node000009" class="node">
<title>Node9</title>
<g id="a_Node000009"><a xlink:href="BMP390Sensor_8cpp.html" target="_top" xlink:title=" ">
<polygon fill="white" stroke="#666666" points="914,-19 805,-19 805,0 914,0 914,-19"/>
<text text-anchor="middle" x="859.5" y="-7" font-family="Helvetica,sans-Serif" font-size="10.00">BMP390Sensor.cpp</text>
</a>
</g>
</g>
<!-- Node8&#45;&gt;Node9 -->
<g id="edge9_Node000008_Node000009" class="edge">
<title>Node8&#45;&gt;Node9</title>
<g id="a_edge9_Node000008_Node000009"><a xlink:title=" ">
<path fill="none" stroke="#63b8ff" d="M851.05,-44.95C853.21,-36.15 855.68,-26.06 857.39,-19.09"/>
<polygon fill="#63b8ff" stroke="#63b8ff" points="847.63,-44.2 848.65,-54.75 854.43,-45.87 847.63,-44.2"/>
</a>
</g>
</g>
<!-- Node10&#45;&gt;Node5 -->
<g id="edge13_Node000010_Node000005" class="edge">
<title>Node10&#45;&gt;Node5</title>
<g id="a_edge13_Node000010_Node000005"><a xlink:title=" ">
<path fill="none" stroke="#63b8ff" d="M316.32,-54.85C493.47,-34.01 541.21,-44.68 714.5,-19 717.66,-18.53 720.95,-17.97 724.23,-17.37"/>
<polygon fill="#63b8ff" stroke="#63b8ff" points="315.65,-51.41 306.13,-56.07 316.48,-58.36 315.65,-51.41"/>
</a>
</g>
</g>
<!-- Node11 -->
<g id="Node000011" class="node">
<title>Node11</title>
<g id="a_Node000011"><a xlink:href="ENS160Sensor_8cpp.html" target="_top" xlink:title=" ">
<polygon fill="white" stroke="#666666" points="226,-19 119,-19 119,0 226,0 226,-19"/>
<text text-anchor="middle" x="172.5" y="-7" font-family="Helvetica,sans-Serif" font-size="10.00">ENS160Sensor.cpp</text>
</a>
</g>
</g>
<!-- Node10&#45;&gt;Node11 -->
<g id="edge12_Node000010_Node000011" class="edge">
<title>Node10&#45;&gt;Node11</title>
<g id="a_edge12_Node000010_Node000011"><a xlink:title=" ">
<path fill="none" stroke="#63b8ff" d="M236.1,-49.7C220.43,-40.04 199.99,-27.44 186.57,-19.17"/>
<polygon fill="#63b8ff" stroke="#63b8ff" points="234.33,-52.72 244.68,-54.98 238.01,-46.76 234.33,-52.72"/>
</a>
</g>
</g>
<!-- Node12&#45;&gt;Node5 -->
<g id="edge16_Node000012_Node000005" class="edge">
<title>Node12&#45;&gt;Node5</title>
<g id="a_edge16_Node000012_Node000005"><a xlink:title=" ">
<path fill="none" stroke="#63b8ff" d="M923.49,-52.5C882.64,-42.28 822.85,-27.34 786.71,-18.3"/>
<polygon fill="#63b8ff" stroke="#63b8ff" points="922.89,-55.95 933.44,-54.98 924.59,-49.16 922.89,-55.95"/>
</a>
</g>
</g>
<!-- Node13 -->
<g id="Node000013" class="node">
<title>Node13</title>
<g id="a_Node000013"><a xlink:href="ICM20948Sensor_8cpp.html" target="_top" xlink:title=" ">
<polygon fill="white" stroke="#666666" points="1050.5,-19 932.5,-19 932.5,0 1050.5,0 1050.5,-19"/>
<text text-anchor="middle" x="991.5" y="-7" font-family="Helvetica,sans-Serif" font-size="10.00">ICM20948Sensor.cpp</text>
</a>
</g>
</g>
<!-- Node12&#45;&gt;Node13 -->
<g id="edge15_Node000012_Node000013" class="edge">
<title>Node12&#45;&gt;Node13</title>
<g id="a_edge15_Node000012_Node000013"><a xlink:title=" ">
<path fill="none" stroke="#63b8ff" d="M975.64,-45.53C979.68,-36.6 984.38,-26.22 987.61,-19.09"/>
<polygon fill="#63b8ff" stroke="#63b8ff" points="972.4,-44.19 971.46,-54.75 978.78,-47.08 972.4,-44.19"/>
</a>
</g>
</g>
<!-- Node14&#45;&gt;Node5 -->
<g id="edge19_Node000014_Node000005" class="edge">
<title>Node14&#45;&gt;Node5</title>
<g id="a_edge19_Node000014_Node000005"><a xlink:title=" ">
<path fill="none" stroke="#63b8ff" d="M1028.66,-54.86C947.5,-42.52 806.85,-21.08 795.5,-19 792.71,-18.49 789.81,-17.93 786.91,-17.35"/>
<polygon fill="#63b8ff" stroke="#63b8ff" points="1028.33,-58.35 1038.74,-56.4 1029.38,-51.43 1028.33,-58.35"/>
</a>
</g>
</g>
<!-- Node15 -->
<g id="Node000015" class="node">
<title>Node15</title>
<g id="a_Node000015"><a xlink:href="INA260Sensor_8cpp.html" target="_top" xlink:title=" ">
<polygon fill="white" stroke="#666666" points="1172.5,-19 1068.5,-19 1068.5,0 1172.5,0 1172.5,-19"/>
<text text-anchor="middle" x="1120.5" y="-7" font-family="Helvetica,sans-Serif" font-size="10.00">INA260Sensor.cpp</text>
</a>
</g>
</g>
<!-- Node14&#45;&gt;Node15 -->
<g id="edge18_Node000014_Node000015" class="edge">
<title>Node14&#45;&gt;Node15</title>
<g id="a_edge18_Node000014_Node000015"><a xlink:title=" ">
<path fill="none" stroke="#63b8ff" d="M1096.8,-46.39C1102.82,-37.27 1109.97,-26.45 1114.83,-19.09"/>
<polygon fill="#63b8ff" stroke="#63b8ff" points="1093.87,-44.47 1091.28,-54.75 1099.71,-48.33 1093.87,-44.47"/>
</a>
</g>
</g>
<!-- Node16&#45;&gt;Node5 -->
<g id="edge22_Node000016_Node000005" class="edge">
<title>Node16&#45;&gt;Node5</title>
<g id="a_edge22_Node000016_Node000005"><a xlink:title=" ">
<path fill="none" stroke="#63b8ff" d="M1140.08,-55C985.69,-36.79 944.51,-42.54 795.5,-19 792.69,-18.56 789.79,-18.04 786.88,-17.5"/>
<polygon fill="#63b8ff" stroke="#63b8ff" points="1140.08,-58.53 1150.42,-56.24 1140.91,-51.57 1140.08,-58.53"/>
</a>
</g>
</g>
<!-- Node17 -->
<g id="Node000017" class="node">
<title>Node17</title>
<g id="a_Node000017"><a xlink:href="MTK3339Sensor_8cpp.html" target="_top" xlink:title=" ">
<polygon fill="white" stroke="#666666" points="1306,-19 1191,-19 1191,0 1306,0 1306,-19"/>
<text text-anchor="middle" x="1248.5" y="-7" font-family="Helvetica,sans-Serif" font-size="10.00">MTK3339Sensor.cpp</text>
</a>
</g>
</g>
<!-- Node16&#45;&gt;Node17 -->
<g id="edge21_Node000016_Node000017" class="edge">
<title>Node16&#45;&gt;Node17</title>
<g id="a_edge21_Node000016_Node000017"><a xlink:title=" ">
<path fill="none" stroke="#63b8ff" d="M1216.86,-46.96C1224.87,-37.72 1234.53,-26.6 1241.05,-19.09"/>
<polygon fill="#63b8ff" stroke="#63b8ff" points="1214.01,-44.9 1210.1,-54.75 1219.29,-49.49 1214.01,-44.9"/>
</a>
</g>
</g>
<!-- Node18&#45;&gt;Node5 -->
<g id="edge25_Node000018_Node000005" class="edge">
<title>Node18&#45;&gt;Node5</title>
<g id="a_edge25_Node000018_Node000005"><a xlink:title=" ">
<path fill="none" stroke="#63b8ff" d="M1262.72,-55.02C1054.56,-31.31 998.76,-48.28 795.5,-19 792.69,-18.6 789.78,-18.11 786.87,-17.58"/>
<polygon fill="#63b8ff" stroke="#63b8ff" points="1262.41,-58.5 1272.75,-56.18 1263.22,-51.55 1262.41,-58.5"/>
</a>
</g>
</g>
<!-- Node19 -->
<g id="Node000019" class="node">
<title>Node19</title>
<g id="a_Node000019"><a xlink:href="OzoneSensor_8cpp.html" target="_top" xlink:title=" ">
<polygon fill="white" stroke="#666666" points="1424.5,-19 1324.5,-19 1324.5,0 1424.5,0 1424.5,-19"/>
<text text-anchor="middle" x="1374.5" y="-7" font-family="Helvetica,sans-Serif" font-size="10.00">OzoneSensor.cpp</text>
</a>
</g>
</g>
<!-- Node18&#45;&gt;Node19 -->
<g id="edge24_Node000018_Node000019" class="edge">
<title>Node18&#45;&gt;Node19</title>
<g id="a_edge24_Node000018_Node000019"><a xlink:title=" ">
<path fill="none" stroke="#63b8ff" d="M1334.12,-48.04C1344.23,-38.64 1356.78,-26.98 1365.18,-19.17"/>
<polygon fill="#63b8ff" stroke="#63b8ff" points="1331.6,-45.61 1326.66,-54.98 1336.36,-50.74 1331.6,-45.61"/>
</a>
</g>
</g>
<!-- Node20&#45;&gt;Node5 -->
<g id="edge28_Node000020_Node000005" class="edge">
<title>Node20&#45;&gt;Node5</title>
<g id="a_edge28_Node000020_Node000005"><a xlink:title=" ">
<path fill="none" stroke="#63b8ff" d="M1369.83,-55.03C1114.04,-29.64 1045.97,-53.26 795.5,-19 792.69,-18.62 789.78,-18.14 786.87,-17.62"/>
<polygon fill="#63b8ff" stroke="#63b8ff" points="1369.49,-58.51 1379.8,-56.03 1370.2,-51.55 1369.49,-58.51"/>
</a>
</g>
</g>
<!-- Node21 -->
<g id="Node000021" class="node">
<title>Node21</title>
<g id="a_Node000021"><a xlink:href="PCF8523Sensor_8cpp.html" target="_top" xlink:title=" ">
<polygon fill="white" stroke="#666666" points="1554.5,-19 1442.5,-19 1442.5,0 1554.5,0 1554.5,-19"/>
<text text-anchor="middle" x="1498.5" y="-7" font-family="Helvetica,sans-Serif" font-size="10.00">PCF8523Sensor.cpp</text>
</a>
</g>
</g>
<!-- Node20&#45;&gt;Node21 -->
<g id="edge27_Node000020_Node000021" class="edge">
<title>Node20&#45;&gt;Node21</title>
<g id="a_edge27_Node000020_Node000021"><a xlink:title=" ">
<path fill="none" stroke="#63b8ff" d="M1449.62,-48.6C1461.8,-39.11 1477.16,-27.13 1487.38,-19.17"/>
<polygon fill="#63b8ff" stroke="#63b8ff" points="1447.16,-46.08 1441.43,-54.98 1451.46,-51.6 1447.16,-46.08"/>
</a>
</g>
</g>
<!-- Node22&#45;&gt;Node5 -->
<g id="edge32_Node000022_Node000005" class="edge">
<title>Node22&#45;&gt;Node5</title>
<g id="a_edge32_Node000022_Node000005"><a xlink:title=" ">
<path fill="none" stroke="#63b8ff" d="M203.51,-54.87C430.34,-29.49 491.4,-49.81 714.5,-19 717.67,-18.56 720.96,-18.02 724.24,-17.43"/>
<polygon fill="#63b8ff" stroke="#63b8ff" points="202.82,-51.42 193.28,-56.03 203.61,-58.38 202.82,-51.42"/>
</a>
</g>
</g>
<!-- Node22&#45;&gt;Node11 -->
<g id="edge30_Node000022_Node000011" class="edge">
<title>Node22&#45;&gt;Node11</title>
<g id="a_edge30_Node000022_Node000011"><a xlink:title=" ">
<path fill="none" stroke="#63b8ff" d="M156.64,-45.53C160.68,-36.6 165.38,-26.22 168.61,-19.09"/>
<polygon fill="#63b8ff" stroke="#63b8ff" points="153.4,-44.19 152.46,-54.75 159.78,-47.08 153.4,-44.19"/>
</a>
</g>
</g>
<!-- Node23 -->
<g id="Node000023" class="node">
<title>Node23</title>
<g id="a_Node000023"><a xlink:href="SHTC3Sensor_8cpp.html" target="_top" xlink:title=" ">
<polygon fill="white" stroke="#666666" points="101,-19 0,-19 0,0 101,0 101,-19"/>
<text text-anchor="middle" x="50.5" y="-7" font-family="Helvetica,sans-Serif" font-size="10.00">SHTC3Sensor.cpp</text>
</a>
</g>
</g>
<!-- Node22&#45;&gt;Node23 -->
<g id="edge31_Node000022_Node000023" class="edge">
<title>Node22&#45;&gt;Node23</title>
<g id="a_edge31_Node000022_Node000023"><a xlink:title=" ">
<path fill="none" stroke="#63b8ff" d="M123.47,-49.97C105.56,-40.28 81.97,-27.52 66.53,-19.17"/>
<polygon fill="#63b8ff" stroke="#63b8ff" points="122.29,-53.31 132.75,-54.98 125.62,-47.15 122.29,-53.31"/>
</a>
</g>
</g>
<!-- Node24&#45;&gt;Node5 -->
<g id="edge36_Node000024_Node000005" class="edge">
<title>Node24&#45;&gt;Node5</title>
<g id="a_edge36_Node000024_Node000005"><a xlink:title=" ">
<path fill="none" stroke="#63b8ff" d="M431.34,-54.92C558.27,-37.87 592.19,-39.4 714.5,-19 717.65,-18.47 720.94,-17.88 724.21,-17.25"/>
<polygon fill="#63b8ff" stroke="#63b8ff" points="430.66,-51.48 421.22,-56.29 431.6,-58.41 430.66,-51.48"/>
</a>
</g>
</g>
<!-- Node24&#45;&gt;Node11 -->
<g id="edge34_Node000024_Node000011" class="edge">
<title>Node24&#45;&gt;Node11</title>
<g id="a_edge34_Node000024_Node000011"><a xlink:title=" ">
<path fill="none" stroke="#63b8ff" d="M330.28,-52.31C292.85,-42.39 239,-28.12 204.89,-19.08"/>
<polygon fill="#63b8ff" stroke="#63b8ff" points="329.8,-55.81 340.37,-54.98 331.6,-49.04 329.8,-55.81"/>
</a>
</g>
</g>
<!-- Node25 -->
<g id="Node000025" class="node">
<title>Node25</title>
<g id="a_Node000025"><a xlink:href="TMP11xSensor_8cpp.html" target="_top" xlink:title=" ">
<polygon fill="white" stroke="#666666" points="352.5,-19 244.5,-19 244.5,0 352.5,0 352.5,-19"/>
<text text-anchor="middle" x="298.5" y="-7" font-family="Helvetica,sans-Serif" font-size="10.00">TMP11xSensor.cpp</text>
</a>
</g>
</g>
<!-- Node24&#45;&gt;Node25 -->
<g id="edge35_Node000024_Node000025" class="edge">
<title>Node24&#45;&gt;Node25</title>
<g id="a_edge35_Node000024_Node000025"><a xlink:title=" ">
<path fill="none" stroke="#63b8ff" d="M352.47,-49.15C339.09,-39.57 321.94,-27.29 310.61,-19.17"/>
<polygon fill="#63b8ff" stroke="#63b8ff" points="350.44,-52.01 360.61,-54.98 354.52,-46.32 350.44,-52.01"/>
</a>
</g>
</g>
<!-- Node26&#45;&gt;Node5 -->
<g id="edge39_Node000026_Node000005" class="edge">
<title>Node26&#45;&gt;Node5</title>
<g id="a_edge39_Node000026_Node000005"><a xlink:title=" ">
<path fill="none" stroke="#63b8ff" d="M533.63,-53.79C580.88,-44.92 652.41,-31.36 714.5,-19 717.64,-18.38 720.91,-17.71 724.17,-17.05"/>
<polygon fill="#63b8ff" stroke="#63b8ff" points="532.82,-50.38 523.63,-55.66 534.1,-57.26 532.82,-50.38"/>
</a>
</g>
</g>
<!-- Node27 -->
<g id="Node000027" class="node">
<title>Node27</title>
<g id="a_Node000027"><a xlink:href="TempSensor_8cpp.html" target="_top" xlink:title=" ">
<polygon fill="white" stroke="#666666" points="466,-19 371,-19 371,0 466,0 466,-19"/>
<text text-anchor="middle" x="418.5" y="-7" font-family="Helvetica,sans-Serif" font-size="10.00">TempSensor.cpp</text>
</a>
</g>
</g>
<!-- Node26&#45;&gt;Node27 -->
<g id="edge38_Node000026_Node000027" class="edge">
<title>Node26&#45;&gt;Node27</title>
<g id="a_edge38_Node000026_Node000027"><a xlink:title=" ">
<path fill="none" stroke="#63b8ff" d="M463.46,-48.32C452.23,-38.87 438.18,-27.06 428.81,-19.17"/>
<polygon fill="#63b8ff" stroke="#63b8ff" points="461.47,-51.23 471.38,-54.98 465.98,-45.87 461.47,-51.23"/>
</a>
</g>
</g>
<!-- Node29 -->
<g id="Node000029" class="node">
<title>Node29</title>
<g id="a_Node000029"><a xlink:href="FlashStorage_8h.html" target="_top" xlink:title=" ">
<polygon fill="white" stroke="#666666" points="1815,-74 1726,-74 1726,-55 1815,-55 1815,-74"/>
<text text-anchor="middle" x="1770.5" y="-62" font-family="Helvetica,sans-Serif" font-size="10.00">FlashStorage.h</text>
</a>
</g>
</g>
<!-- Node28&#45;&gt;Node29 -->
<g id="edge42_Node000028_Node000029" class="edge">
<title>Node28&#45;&gt;Node29</title>
<g id="a_edge42_Node000028_Node000029"><a xlink:title=" ">
<path fill="none" stroke="#63b8ff" d="M1717.64,-103.88C1730.78,-94.34 1747.48,-82.21 1758.56,-74.17"/>
<polygon fill="#63b8ff" stroke="#63b8ff" points="1715.26,-101.28 1709.23,-109.98 1719.38,-106.94 1715.26,-101.28"/>
</a>
</g>
</g>
<!-- Node31 -->
<g id="Node000031" class="node">
<title>Node31</title>
<g id="a_Node000031"><a xlink:href="main1_8cpp.html" target="_top" xlink:title="Main functions for Core 1, responsible for sending data to storage peripherals.">
<polygon fill="white" stroke="#666666" points="1746.5,-19 1678.5,-19 1678.5,0 1746.5,0 1746.5,-19"/>
<text text-anchor="middle" x="1712.5" y="-7" font-family="Helvetica,sans-Serif" font-size="10.00">main1.cpp</text>
</a>
</g>
</g>
<!-- Node28&#45;&gt;Node31 -->
<g id="edge51_Node000028_Node000031" class="edge">
<title>Node28&#45;&gt;Node31</title>
<g id="a_edge51_Node000028_Node000031"><a xlink:title=" ">
<path fill="none" stroke="#63b8ff" d="M1700.14,-99.48C1703.42,-75.84 1708.89,-36.5 1711.3,-19.16"/>
<polygon fill="#63b8ff" stroke="#63b8ff" points="1696.64,-99.28 1698.73,-109.66 1703.57,-100.24 1696.64,-99.28"/>
</a>
</g>
</g>
<!-- Node32 -->
<g id="Node000032" class="node">
<title>Node32</title>
<g id="a_Node000032"><a xlink:href="RadioStorage_8h.html" target="_top" xlink:title=" ">
<polygon fill="white" stroke="#666666" points="1924,-74 1833,-74 1833,-55 1924,-55 1924,-74"/>
<text text-anchor="middle" x="1878.5" y="-62" font-family="Helvetica,sans-Serif" font-size="10.00">RadioStorage.h</text>
</a>
</g>
</g>
<!-- Node28&#45;&gt;Node32 -->
<g id="edge45_Node000028_Node000032" class="edge">
<title>Node28&#45;&gt;Node32</title>
<g id="a_edge45_Node000028_Node000032"><a xlink:title=" ">
<path fill="none" stroke="#63b8ff" d="M1736.58,-107.06C1770.41,-97.15 1818.58,-83.04 1849.19,-74.08"/>
<polygon fill="#63b8ff" stroke="#63b8ff" points="1735.19,-103.82 1726.58,-109.98 1737.16,-110.53 1735.19,-103.82"/>
</a>
</g>
</g>
<!-- Node34 -->
<g id="Node000034" class="node">
<title>Node34</title>
<g id="a_Node000034"><a xlink:href="SDStorage_8h.html" target="_top" xlink:title=" ">
<polygon fill="white" stroke="#666666" points="1669,-74 1592,-74 1592,-55 1669,-55 1669,-74"/>
<text text-anchor="middle" x="1630.5" y="-62" font-family="Helvetica,sans-Serif" font-size="10.00">SDStorage.h</text>
</a>
</g>
</g>
<!-- Node28&#45;&gt;Node34 -->
<g id="edge48_Node000028_Node000034" class="edge">
<title>Node28&#45;&gt;Node34</title>
<g id="a_edge48_Node000028_Node000034"><a xlink:title=" ">
<path fill="none" stroke="#63b8ff" d="M1678.67,-103.6C1666.66,-94.11 1651.53,-82.13 1641.46,-74.17"/>
<polygon fill="#63b8ff" stroke="#63b8ff" points="1676.72,-106.53 1686.74,-109.98 1681.06,-101.04 1676.72,-106.53"/>
</a>
</g>
</g>
<!-- Node30 -->
<g id="Node000030" class="node">
<title>Node30</title>
<g id="a_Node000030"><a xlink:href="FlashStorage_8cpp.html" target="_top" xlink:title=" ">
<polygon fill="white" stroke="#666666" points="1866,-19 1765,-19 1765,0 1866,0 1866,-19"/>
<text text-anchor="middle" x="1815.5" y="-7" font-family="Helvetica,sans-Serif" font-size="10.00">FlashStorage.cpp</text>
</a>
</g>
</g>
<!-- Node29&#45;&gt;Node30 -->
<g id="edge43_Node000029_Node000030" class="edge">
<title>Node29&#45;&gt;Node30</title>
<g id="a_edge43_Node000029_Node000030"><a xlink:title=" ">
<path fill="none" stroke="#63b8ff" d="M1784.55,-46.96C1792.39,-37.72 1801.83,-26.6 1808.21,-19.09"/>
<polygon fill="#63b8ff" stroke="#63b8ff" points="1781.74,-44.86 1777.93,-54.75 1787.07,-49.39 1781.74,-44.86"/>
</a>
</g>
</g>
<!-- Node29&#45;&gt;Node31 -->
<g id="edge44_Node000029_Node000031" class="edge">
<title>Node29&#45;&gt;Node31</title>
<g id="a_edge44_Node000029_Node000031"><a xlink:title=" ">
<path fill="none" stroke="#63b8ff" d="M1753.59,-48.04C1743.3,-38.64 1730.53,-26.98 1721.99,-19.17"/>
<polygon fill="#63b8ff" stroke="#63b8ff" points="1751.44,-50.82 1761.18,-54.98 1756.16,-45.66 1751.44,-50.82"/>
</a>
</g>
</g>
<!-- Node32&#45;&gt;Node31 -->
<g id="edge47_Node000032_Node000031" class="edge">
<title>Node32&#45;&gt;Node31</title>
<g id="a_edge47_Node000032_Node000031"><a xlink:title=" ">
<path fill="none" stroke="#63b8ff" d="M1842.25,-51.93C1811.25,-42.03 1767.33,-28.01 1739.38,-19.08"/>
<polygon fill="#63b8ff" stroke="#63b8ff" points="1841.24,-55.28 1851.83,-54.98 1843.37,-48.61 1841.24,-55.28"/>
</a>
</g>
</g>
<!-- Node33 -->
<g id="Node000033" class="node">
<title>Node33</title>
<g id="a_Node000033"><a xlink:href="RadioStorage_8cpp.html" target="_top" xlink:title=" ">
<polygon fill="white" stroke="#666666" points="1986.5,-19 1884.5,-19 1884.5,0 1986.5,0 1986.5,-19"/>
<text text-anchor="middle" x="1935.5" y="-7" font-family="Helvetica,sans-Serif" font-size="10.00">RadioStorage.cpp</text>
</a>
</g>
</g>
<!-- Node32&#45;&gt;Node33 -->
<g id="edge46_Node000032_Node000033" class="edge">
<title>Node32&#45;&gt;Node33</title>
<g id="a_edge46_Node000032_Node000033"><a xlink:title=" ">
<path fill="none" stroke="#63b8ff" d="M1895.12,-48.04C1905.23,-38.64 1917.78,-26.98 1926.18,-19.17"/>
<polygon fill="#63b8ff" stroke="#63b8ff" points="1892.6,-45.61 1887.66,-54.98 1897.36,-50.74 1892.6,-45.61"/>
</a>
</g>
</g>
<!-- Node34&#45;&gt;Node31 -->
<g id="edge50_Node000034_Node000031" class="edge">
<title>Node34&#45;&gt;Node31</title>
<g id="a_edge50_Node000034_Node000031"><a xlink:title=" ">
<path fill="none" stroke="#63b8ff" d="M1652.28,-49.42C1667.16,-39.81 1686.41,-27.37 1699.09,-19.17"/>
<polygon fill="#63b8ff" stroke="#63b8ff" points="1650.17,-46.62 1643.67,-54.98 1653.97,-52.5 1650.17,-46.62"/>
</a>
</g>
</g>
<!-- Node35 -->
<g id="Node000035" class="node">
<title>Node35</title>
<g id="a_Node000035"><a xlink:href="SDStorage_8cpp.html" target="_top" xlink:title=" ">
<polygon fill="white" stroke="#666666" points="1660.5,-19 1572.5,-19 1572.5,0 1660.5,0 1660.5,-19"/>
<text text-anchor="middle" x="1616.5" y="-7" font-family="Helvetica,sans-Serif" font-size="10.00">SDStorage.cpp</text>
</a>
</g>
</g>
<!-- Node34&#45;&gt;Node35 -->
<g id="edge49_Node000034_Node000035" class="edge">
<title>Node34&#45;&gt;Node35</title>
<g id="a_edge49_Node000034_Node000035"><a xlink:title=" ">
<path fill="none" stroke="#63b8ff" d="M1625.6,-44.95C1623.28,-36.15 1620.61,-26.06 1618.77,-19.09"/>
<polygon fill="#63b8ff" stroke="#63b8ff" points="1622.25,-45.97 1628.19,-54.75 1629.02,-44.19 1622.25,-45.97"/>
</a>
</g>
</g>
</g>
</svg>

<g id="navigator" transform="translate(0 0)" fill="#404254">
  <rect fill="#f2f5e9" fill-opacity="0.5" stroke="#606060" stroke-width=".5" x="0" y="0" width="60" height="60"/>
  <use id="zoomplus" xlink:href="#zoomPlus" x="17" y="9" onmousedown="handleZoom(evt,'in')"/>
  <use id="zoomminus" xlink:href="#zoomMin" x="42" y="9" onmousedown="handleZoom(evt,'out')"/>
  <use id="reset" xlink:href="#resetDef" x="30" y="36" onmousedown="handleReset()"/>
   <use id="arrowup" xlink:href="#arrowUp" x="0" y="0" onmousedown="handlePan(0,-1)"/>
  <use id="arrowright" xlink:href="#arrowRight" x="0" y="0" onmousedown="handlePan(1,0)"/>
  <use id="arrowdown" xlink:href="#arrowDown" x="0" y="0" onmousedown="handlePan(0,1)"/>
  <use id="arrowleft" xlink:href="#arrowLeft" x="0" y="0" onmousedown="handlePan(-1,0)"/>
</g>
<svg viewBox="0 0 15 15" width="100%" height="30px" preserveAspectRatio="xMaxYMin meet">
 <g id="arrow_out" transform="scale(0.3 0.3)">
  <a xlink:href="Device_8h__dep__incl_org.svg" target="_base">
   <rect id="button" ry="5" rx="5" y="6" x="6" height="38" width="38"
        fill="#f2f5e9" fill-opacity="0.5" stroke="#606060" stroke-width="1.0"/>
   <path id="arrow"
     d="M 11.500037,31.436501 C 11.940474,20.09759 22.043105,11.32322 32.158766,21.979434 L 37.068811,17.246167 C 37.068811,17.246167 37.088388,32 37.088388,32 L 22.160133,31.978069 C 22.160133,31.978069 26.997745,27.140456 26.997745,27.140456 C 18.528582,18.264221 13.291696,25.230495 11.500037,31.436501 z"
     style="fill:#404040;"/>
  </a>
 </g>
</svg>

<style type='text/css'>
<![CDATA[
[data-mouse-over-selected='false'] { opacity: 0.7; }
[data-mouse-over-selected='true']  { opacity: 1.0; }
]]>
</style>
<script type="application/ecmascript"><![CDATA[
document.addEventListener('DOMContentLoaded', (event) => {
  highlightEdges();
  highlightAdjacentNodes();
});
]]></script>
</svg>
