<?xml version="1.0" encoding="UTF-8" standalone="no"?>
<!DOCTYPE svg PUBLIC "-//W3C//DTD SVG 1.1//EN"
 "http://www.w3.org/Graphics/SVG/1.1/DTD/svg11.dtd">
<!-- Generated by graphviz version 12.1.2 (20240928.0832)
 -->
<!-- Title: Device.h Pages: 1 -->
<!--zoomable 196 -->

<svg id="main" version="1.1" xmlns="http://www.w3.org/2000/svg" xmlns:xlink="http://www.w3.org/1999/xlink" xml:space="preserve" onload="init(evt)">

<style type="text/css"><![CDATA[
.node, .edge {opacity: 0.7;}
.node.selected, .edge.selected {opacity: 1;}
.edge:hover path { stroke: red; }
.edge:hover polygon { stroke: red; fill: red; }
]]></style>

<defs>
  <circle id="rim" cx="0" cy="0" r="7"/>
  <circle id="rim2" cx="0" cy="0" r="3.5"/>
  <g id="zoomPlus">
    <use xlink:href="#rim" fill="#404040"><set attributeName="fill" to="#808080" begin="zoomplus.mouseover" end="zoomplus.mouseout"/></use>
    <path d="M-4,0h8M0,-4v8" fill="none" stroke="white" stroke-width="1.5" pointer-events="none"/>
  </g>
  <g id="zoomMin">
    <use xlink:href="#rim" fill="#404040"><set attributeName="fill" to="#808080" begin="zoomminus.mouseover" end="zoomminus.mouseout"/></use>
    <path d="M-4,0h8" fill="none" stroke="white" stroke-width="1.5" pointer-events="none"/>
  </g>
  <g id="arrowUp" transform="translate(30 24)">
    <use xlink:href="#rim"/>
    <path pointer-events="none" fill="none" stroke="white" stroke-width="1.5" d="M0,-3.0v7 M-2.5,-0.5L0,-3.0L2.5,-0.5"/>
  </g>
  <g id="arrowRight" transform="rotate(90) translate(36 -43)">
    <use xlink:href="#rim"/>
    <path pointer-events="none" fill="none" stroke="white" stroke-width="1.5" d="M0,-3.0v7 M-2.5,-0.5L0,-3.0L2.5,-0.5"/>
  </g>
  <g id="arrowDown" transform="rotate(180) translate(-30 -48)">
    <use xlink:href="#rim"/>
    <path pointer-events="none" fill="none" stroke="white" stroke-width="1.5" d="M0,-3.0v7 M-2.5,-0.5L0,-3.0L2.5,-0.5"/>
  </g>
  <g id="arrowLeft" transform="rotate(270) translate(-36 17)">
    <use xlink:href="#rim"/>
    <path pointer-events="none" fill="none" stroke="white" stroke-width="1.5" d="M0,-3.0v7 M-2.5,-0.5L0,-3.0L2.5,-0.5"/>
  </g>
  <g id="resetDef">
    <use xlink:href="#rim2" fill="#404040"><set attributeName="fill" to="#808080" begin="reset.mouseover" end="reset.mouseout"/></use>
  </g>
</defs>
<script type="application/ecmascript">
var viewWidth = 2500;
var viewHeight = 196;
var sectionId = 'dynsection-1';
</script>
<script type="application/ecmascript" xlink:href="svg.min.js"/>
<svg id="graph" class="graph">
<g id="viewport">
<title>Device.h</title>
<!-- Node1 -->
<g id="Node000001" class="node">
<title>Node1</title>
<g id="a_Node000001"><a xlink:title=" ">
<polygon fill="#999999" stroke="#666666" points="1696.25,-188 1641.25,-188 1641.25,-168 1696.25,-168 1696.25,-188"/>
<text text-anchor="middle" x="1668.75" y="-174.5" font-family="Helvetica,sans-Serif" font-size="10.00">Device.h</text>
</a>
</g>
</g>
<!-- Node2 -->
<g id="Node000002" class="node">
<title>Node2</title>
<g id="a_Node000002"><a xlink:href="Sensor_8h.html" target="_top" xlink:title=" ">
<polygon fill="white" stroke="#666666" points="1105.25,-132 1050.25,-132 1050.25,-112 1105.25,-112 1105.25,-132"/>
<text text-anchor="middle" x="1077.75" y="-118.5" font-family="Helvetica,sans-Serif" font-size="10.00">Sensor.h</text>
</a>
</g>
</g>
<!-- Node1&#45;&gt;Node2 -->
<g id="edge1_Node000001_Node000002" class="edge">
<title>Node1&#45;&gt;Node2</title>
<g id="a_edge1_Node000001_Node000002"><a xlink:title=" ">
<path fill="none" stroke="#63b8ff" d="M1629.72,-173.43C1518.51,-163.27 1201.85,-134.34 1105.75,-125.56"/>
<polygon fill="#63b8ff" stroke="#63b8ff" points="1629.25,-176.91 1639.53,-174.33 1629.89,-169.93 1629.25,-176.91"/>
</a>
</g>
</g>
<!-- Node38 -->
<g id="Node000038" class="node">
<title>Node38</title>
<g id="a_Node000038"><a xlink:href="Storage_8h.html" target="_top" xlink:title=" ">
<polygon fill="white" stroke="#666666" points="2302.75,-132 2244.75,-132 2244.75,-112 2302.75,-112 2302.75,-132"/>
<text text-anchor="middle" x="2273.75" y="-118.5" font-family="Helvetica,sans-Serif" font-size="10.00">Storage.h</text>
</a>
</g>
</g>
<!-- Node1&#45;&gt;Node38 -->
<g id="edge51_Node000001_Node000038" class="edge">
<title>Node1&#45;&gt;Node38</title>
<g id="a_edge51_Node000001_Node000038"><a xlink:title=" ">
<path fill="none" stroke="#63b8ff" d="M1707.88,-173.51C1820.68,-163.44 2144.79,-134.51 2244.32,-125.63"/>
<polygon fill="#63b8ff" stroke="#63b8ff" points="1707.87,-169.99 1698.22,-174.37 1708.5,-176.97 1707.87,-169.99"/>
</a>
</g>
</g>
<!-- Node3 -->
<g id="Node000003" class="node">
<title>Node3</title>
<g id="a_Node000003"><a xlink:href="AS7331Sensor_8h.html" target="_top" xlink:title=" ">
<polygon fill="white" stroke="#666666" points="1122.5,-76 1033,-76 1033,-56 1122.5,-56 1122.5,-76"/>
<text text-anchor="middle" x="1077.75" y="-62.5" font-family="Helvetica,sans-Serif" font-size="10.00">AS7331Sensor.h</text>
</a>
</g>
</g>
<!-- Node2&#45;&gt;Node3 -->
<g id="edge2_Node000002_Node000003" class="edge">
<title>Node2&#45;&gt;Node3</title>
<g id="a_edge2_Node000002_Node000003"><a xlink:title=" ">
<path fill="none" stroke="#63b8ff" d="M1077.75,-100.13C1077.75,-91.9 1077.75,-82.85 1077.75,-76.3"/>
<polygon fill="#63b8ff" stroke="#63b8ff" points="1074.25,-100.08 1077.75,-110.08 1081.25,-100.08 1074.25,-100.08"/>
</a>
</g>
</g>
<!-- Node5 -->
<g id="Node000005" class="node">
<title>Node5</title>
<g id="a_Node000005"><a xlink:href="main_8cpp.html" target="_top" xlink:title="Main functions for Core 0, responsible for reading data from sensor peripherals.">
<polygon fill="white" stroke="#666666" points="774.62,-20 718.88,-20 718.88,0 774.62,0 774.62,-20"/>
<text text-anchor="middle" x="746.75" y="-6.5" font-family="Helvetica,sans-Serif" font-size="10.00">main.cpp</text>
</a>
</g>
</g>
<!-- Node2&#45;&gt;Node5 -->
<g id="edge50_Node000002_Node000005" class="edge">
<title>Node2&#45;&gt;Node5</title>
<g id="a_edge50_Node000002_Node000005"><a xlink:title=" ">
<path fill="none" stroke="#63b8ff" d="M1038.39,-120.52C986.38,-118.48 893.01,-109.9 821.75,-76 793.12,-62.38 766.9,-34.76 754.42,-20.3"/>
<polygon fill="#63b8ff" stroke="#63b8ff" points="1038.14,-124.01 1048.25,-120.84 1038.37,-117.02 1038.14,-124.01"/>
</a>
</g>
</g>
<!-- Node6 -->
<g id="Node000006" class="node">
<title>Node6</title>
<g id="a_Node000006"><a xlink:href="BME280Sensor_8h.html" target="_top" xlink:title=" ">
<polygon fill="white" stroke="#666666" points="1584,-76 1491.5,-76 1491.5,-56 1584,-56 1584,-76"/>
<text text-anchor="middle" x="1537.75" y="-62.5" font-family="Helvetica,sans-Serif" font-size="10.00">BME280Sensor.h</text>
</a>
</g>
</g>
<!-- Node2&#45;&gt;Node6 -->
<g id="edge5_Node000002_Node000006" class="edge">
<title>Node2&#45;&gt;Node6</title>
<g id="a_edge5_Node000002_Node000006"><a xlink:title=" ">
<path fill="none" stroke="#63b8ff" d="M1116.83,-116.58C1186.81,-108.65 1338.14,-91.37 1465.75,-76 1474,-75.01 1482.79,-73.93 1491.28,-72.87"/>
<polygon fill="#63b8ff" stroke="#63b8ff" points="1116.56,-113.09 1107.02,-117.69 1117.35,-120.05 1116.56,-113.09"/>
</a>
</g>
</g>
<!-- Node8 -->
<g id="Node000008" class="node">
<title>Node8</title>
<g id="a_Node000008"><a xlink:href="BME680Sensor_8h.html" target="_top" xlink:title=" ">
<polygon fill="white" stroke="#666666" points="1708,-76 1615.5,-76 1615.5,-56 1708,-56 1708,-76"/>
<text text-anchor="middle" x="1661.75" y="-62.5" font-family="Helvetica,sans-Serif" font-size="10.00">BME680Sensor.h</text>
</a>
</g>
</g>
<!-- Node2&#45;&gt;Node8 -->
<g id="edge7_Node000002_Node000008" class="edge">
<title>Node2&#45;&gt;Node8</title>
<g id="a_edge7_Node000002_Node000008"><a xlink:title=" ">
<path fill="none" stroke="#63b8ff" d="M1117.01,-118.14C1203.22,-111.74 1415.5,-95.29 1592.75,-76 1599.96,-75.22 1607.57,-74.3 1615.02,-73.37"/>
<polygon fill="#63b8ff" stroke="#63b8ff" points="1116.93,-114.64 1107.21,-118.87 1117.44,-121.62 1116.93,-114.64"/>
</a>
</g>
</g>
<!-- Node10 -->
<g id="Node000010" class="node">
<title>Node10</title>
<g id="a_Node000010"><a xlink:href="BMP390Sensor_8h.html" target="_top" xlink:title=" ">
<polygon fill="white" stroke="#666666" points="1233,-76 1140.5,-76 1140.5,-56 1233,-56 1233,-76"/>
<text text-anchor="middle" x="1186.75" y="-62.5" font-family="Helvetica,sans-Serif" font-size="10.00">BMP390Sensor.h</text>
</a>
</g>
</g>
<!-- Node2&#45;&gt;Node10 -->
<g id="edge9_Node000002_Node000010" class="edge">
<title>Node2&#45;&gt;Node10</title>
<g id="a_edge9_Node000002_Node000010"><a xlink:title=" ">
<path fill="none" stroke="#63b8ff" d="M1106.79,-106.61C1126.05,-97.07 1150.79,-84.81 1167.62,-76.48"/>
<polygon fill="#63b8ff" stroke="#63b8ff" points="1105.5,-103.35 1098.09,-110.92 1108.61,-109.62 1105.5,-103.35"/>
</a>
</g>
</g>
<!-- Node12 -->
<g id="Node000012" class="node">
<title>Node12</title>
<g id="a_Node000012"><a xlink:href="DS3231Sensor_8h.html" target="_top" xlink:title=" ">
<polygon fill="white" stroke="#666666" points="1827.88,-76 1737.62,-76 1737.62,-56 1827.88,-56 1827.88,-76"/>
<text text-anchor="middle" x="1782.75" y="-62.5" font-family="Helvetica,sans-Serif" font-size="10.00">DS3231Sensor.h</text>
</a>
</g>
</g>
<!-- Node2&#45;&gt;Node12 -->
<g id="edge12_Node000002_Node000012" class="edge">
<title>Node2&#45;&gt;Node12</title>
<g id="a_edge12_Node000002_Node000012"><a xlink:title=" ">
<path fill="none" stroke="#63b8ff" d="M1116.84,-119.14C1216.85,-114.18 1490.06,-99.41 1716.75,-76 1723.42,-75.31 1730.46,-74.47 1737.35,-73.59"/>
<polygon fill="#63b8ff" stroke="#63b8ff" points="1116.85,-115.63 1107.03,-119.62 1117.19,-122.62 1116.85,-115.63"/>
</a>
</g>
</g>
<!-- Node14 -->
<g id="Node000014" class="node">
<title>Node14</title>
<g id="a_Node000014"><a xlink:href="ENS160Sensor_8h.html" target="_top" xlink:title=" ">
<polygon fill="white" stroke="#666666" points="660.62,-76 568.88,-76 568.88,-56 660.62,-56 660.62,-76"/>
<text text-anchor="middle" x="614.75" y="-62.5" font-family="Helvetica,sans-Serif" font-size="10.00">ENS160Sensor.h</text>
</a>
</g>
</g>
<!-- Node2&#45;&gt;Node14 -->
<g id="edge14_Node000002_Node000014" class="edge">
<title>Node2&#45;&gt;Node14</title>
<g id="a_edge14_Node000002_Node000014"><a xlink:title=" ">
<path fill="none" stroke="#63b8ff" d="M1038.68,-117.38C965.93,-110.48 804.85,-94.49 669.75,-76 666.87,-75.61 663.92,-75.18 660.94,-74.74"/>
<polygon fill="#63b8ff" stroke="#63b8ff" points="1038.19,-120.85 1048.48,-118.3 1038.85,-113.88 1038.19,-120.85"/>
</a>
</g>
</g>
<!-- Node16 -->
<g id="Node000016" class="node">
<title>Node16</title>
<g id="a_Node000016"><a xlink:href="ICM20948Sensor_8h.html" target="_top" xlink:title=" ">
<polygon fill="white" stroke="#666666" points="1350.75,-76 1250.75,-76 1250.75,-56 1350.75,-56 1350.75,-76"/>
<text text-anchor="middle" x="1300.75" y="-62.5" font-family="Helvetica,sans-Serif" font-size="10.00">ICM20948Sensor.h</text>
</a>
</g>
</g>
<!-- Node2&#45;&gt;Node16 -->
<g id="edge17_Node000002_Node000016" class="edge">
<title>Node2&#45;&gt;Node16</title>
<g id="a_edge17_Node000002_Node000016"><a xlink:title=" ">
<path fill="none" stroke="#63b8ff" d="M1116.64,-111.58C1157.35,-101.72 1220.94,-86.33 1261.71,-76.45"/>
<polygon fill="#63b8ff" stroke="#63b8ff" points="1115.91,-108.16 1107.01,-113.91 1117.56,-114.96 1115.91,-108.16"/>
</a>
</g>
</g>
<!-- Node18 -->
<g id="Node000018" class="node">
<title>Node18</title>
<g id="a_Node000018"><a xlink:href="INA260Sensor_8h.html" target="_top" xlink:title=" ">
<polygon fill="white" stroke="#666666" points="1456.75,-76 1368.75,-76 1368.75,-56 1456.75,-56 1456.75,-76"/>
<text text-anchor="middle" x="1412.75" y="-62.5" font-family="Helvetica,sans-Serif" font-size="10.00">INA260Sensor.h</text>
</a>
</g>
</g>
<!-- Node2&#45;&gt;Node18 -->
<g id="edge20_Node000002_Node000018" class="edge">
<title>Node2&#45;&gt;Node18</title>
<g id="a_edge20_Node000002_Node000018"><a xlink:title=" ">
<path fill="none" stroke="#63b8ff" d="M1116.56,-114.93C1170.95,-106.4 1272.93,-90.3 1359.75,-76 1362.6,-75.53 1365.55,-75.04 1368.51,-74.55"/>
<polygon fill="#63b8ff" stroke="#63b8ff" points="1116.22,-111.44 1106.88,-116.45 1117.3,-118.36 1116.22,-111.44"/>
</a>
</g>
</g>
<!-- Node20 -->
<g id="Node000020" class="node">
<title>Node20</title>
<g id="a_Node000020"><a xlink:href="LSM9DS1Sensor_8h.html" target="_top" xlink:title=" ">
<polygon fill="white" stroke="#666666" points="1957.75,-76 1857.75,-76 1857.75,-56 1957.75,-56 1957.75,-76"/>
<text text-anchor="middle" x="1907.75" y="-62.5" font-family="Helvetica,sans-Serif" font-size="10.00">LSM9DS1Sensor.h</text>
</a>
</g>
</g>
<!-- Node2&#45;&gt;Node20 -->
<g id="edge23_Node000002_Node000020" class="edge">
<title>Node2&#45;&gt;Node20</title>
<g id="a_edge23_Node000002_Node000020"><a xlink:title=" ">
<path fill="none" stroke="#63b8ff" d="M1117.12,-119.6C1229.58,-115.38 1561.88,-101.54 1836.75,-76 1843.43,-75.38 1850.45,-74.62 1857.37,-73.81"/>
<polygon fill="#63b8ff" stroke="#63b8ff" points="1117.09,-116.09 1107.23,-119.96 1117.35,-123.09 1117.09,-116.09"/>
</a>
</g>
</g>
<!-- Node22 -->
<g id="Node000022" class="node">
<title>Node22</title>
<g id="a_Node000022"><a xlink:href="MTK3339Sensor_8h.html" target="_top" xlink:title=" ">
<polygon fill="white" stroke="#666666" points="234.25,-76 137.25,-76 137.25,-56 234.25,-56 234.25,-76"/>
<text text-anchor="middle" x="185.75" y="-62.5" font-family="Helvetica,sans-Serif" font-size="10.00">MTK3339Sensor.h</text>
</a>
</g>
</g>
<!-- Node2&#45;&gt;Node22 -->
<g id="edge25_Node000002_Node000022" class="edge">
<title>Node2&#45;&gt;Node22</title>
<g id="a_edge25_Node000002_Node000022"><a xlink:title=" ">
<path fill="none" stroke="#63b8ff" d="M1038.49,-120.32C918.8,-117.93 548.08,-108.25 242.75,-76 240.06,-75.72 237.3,-75.39 234.52,-75.04"/>
<polygon fill="#63b8ff" stroke="#63b8ff" points="1038.34,-123.81 1048.4,-120.51 1038.47,-116.82 1038.34,-123.81"/>
</a>
</g>
</g>
<!-- Node24 -->
<g id="Node000024" class="node">
<title>Node24</title>
<g id="a_Node000024"><a xlink:href="OzoneSensor_8h.html" target="_top" xlink:title=" ">
<polygon fill="white" stroke="#666666" points="335.5,-76 252,-76 252,-56 335.5,-56 335.5,-76"/>
<text text-anchor="middle" x="293.75" y="-62.5" font-family="Helvetica,sans-Serif" font-size="10.00">OzoneSensor.h</text>
</a>
</g>
</g>
<!-- Node2&#45;&gt;Node24 -->
<g id="edge28_Node000002_Node000024" class="edge">
<title>Node2&#45;&gt;Node24</title>
<g id="a_edge28_Node000002_Node000024"><a xlink:title=" ">
<path fill="none" stroke="#63b8ff" d="M1038.57,-120.16C928.74,-117.46 608.65,-107.28 344.75,-76 341.89,-75.66 338.95,-75.27 336,-74.84"/>
<polygon fill="#63b8ff" stroke="#63b8ff" points="1038.43,-123.65 1048.51,-120.39 1038.6,-116.66 1038.43,-123.65"/>
</a>
</g>
</g>
<!-- Node26 -->
<g id="Node000026" class="node">
<title>Node26</title>
<g id="a_Node000026"><a xlink:href="PCF8523Sensor_8h.html" target="_top" xlink:title=" ">
<polygon fill="white" stroke="#666666" points="774.88,-76 678.62,-76 678.62,-56 774.88,-56 774.88,-76"/>
<text text-anchor="middle" x="726.75" y="-62.5" font-family="Helvetica,sans-Serif" font-size="10.00">PCF8523Sensor.h</text>
</a>
</g>
</g>
<!-- Node2&#45;&gt;Node26 -->
<g id="edge31_Node000002_Node000026" class="edge">
<title>Node2&#45;&gt;Node26</title>
<g id="a_edge31_Node000002_Node000026"><a xlink:title=" ">
<path fill="none" stroke="#63b8ff" d="M1038.64,-114.98C974.08,-105.05 845.42,-85.26 775.2,-74.45"/>
<polygon fill="#63b8ff" stroke="#63b8ff" points="1038,-118.43 1048.42,-116.49 1039.07,-111.51 1038,-118.43"/>
</a>
</g>
</g>
<!-- Node28 -->
<g id="Node000028" class="node">
<title>Node28</title>
<g id="a_Node000028"><a xlink:href="SCD40Sensor_8h.html" target="_top" xlink:title=" ">
<polygon fill="white" stroke="#666666" points="918.38,-76 831.12,-76 831.12,-56 918.38,-56 918.38,-76"/>
<text text-anchor="middle" x="874.75" y="-62.5" font-family="Helvetica,sans-Serif" font-size="10.00">SCD40Sensor.h</text>
</a>
</g>
</g>
<!-- Node2&#45;&gt;Node28 -->
<g id="edge34_Node000002_Node000028" class="edge">
<title>Node2&#45;&gt;Node28</title>
<g id="a_edge34_Node000002_Node000028"><a xlink:title=" ">
<path fill="none" stroke="#63b8ff" d="M1039.07,-110.71C1001.98,-100.85 946.45,-86.07 910.4,-76.48"/>
<polygon fill="#63b8ff" stroke="#63b8ff" points="1037.92,-114.03 1048.49,-113.22 1039.72,-107.26 1037.92,-114.03"/>
</a>
</g>
</g>
<!-- Node30 -->
<g id="Node000030" class="node">
<title>Node30</title>
<g id="a_Node000030"><a xlink:href="SGP30Sensor_8h.html" target="_top" xlink:title=" ">
<polygon fill="white" stroke="#666666" points="2079,-76 1992.5,-76 1992.5,-56 2079,-56 2079,-76"/>
<text text-anchor="middle" x="2035.75" y="-62.5" font-family="Helvetica,sans-Serif" font-size="10.00">SGP30Sensor.h</text>
</a>
</g>
</g>
<!-- Node2&#45;&gt;Node30 -->
<g id="edge37_Node000002_Node000030" class="edge">
<title>Node2&#45;&gt;Node30</title>
<g id="a_edge37_Node000002_Node000030"><a xlink:title=" ">
<path fill="none" stroke="#63b8ff" d="M1116.6,-120.13C1240.72,-117.12 1638.73,-105.65 1966.75,-76 1974.93,-75.26 1983.63,-74.28 1992.01,-73.24"/>
<polygon fill="#63b8ff" stroke="#63b8ff" points="1116.89,-116.62 1106.97,-120.36 1117.05,-123.62 1116.89,-116.62"/>
</a>
</g>
</g>
<!-- Node32 -->
<g id="Node000032" class="node">
<title>Node32</title>
<g id="a_Node000032"><a xlink:href="SHTC3Sensor_8h.html" target="_top" xlink:title=" ">
<polygon fill="white" stroke="#666666" points="441.75,-76 353.75,-76 353.75,-56 441.75,-56 441.75,-76"/>
<text text-anchor="middle" x="397.75" y="-62.5" font-family="Helvetica,sans-Serif" font-size="10.00">SHTC3Sensor.h</text>
</a>
</g>
</g>
<!-- Node2&#45;&gt;Node32 -->
<g id="edge39_Node000002_Node000032" class="edge">
<title>Node2&#45;&gt;Node32</title>
<g id="a_edge39_Node000002_Node000032"><a xlink:title=" ">
<path fill="none" stroke="#63b8ff" d="M1038.42,-119.45C939.54,-115.28 672.72,-102.3 451.75,-76 448.64,-75.63 445.43,-75.2 442.2,-74.75"/>
<polygon fill="#63b8ff" stroke="#63b8ff" points="1038.25,-122.95 1048.38,-119.86 1038.54,-115.95 1038.25,-122.95"/>
</a>
</g>
</g>
<!-- Node34 -->
<g id="Node000034" class="node">
<title>Node34</title>
<g id="a_Node000034"><a xlink:href="TMP117Sensor_8h.html" target="_top" xlink:title=" ">
<polygon fill="white" stroke="#666666" points="551.25,-76 460.25,-76 460.25,-56 551.25,-56 551.25,-76"/>
<text text-anchor="middle" x="505.75" y="-62.5" font-family="Helvetica,sans-Serif" font-size="10.00">TMP117Sensor.h</text>
</a>
</g>
</g>
<!-- Node2&#45;&gt;Node34 -->
<g id="edge43_Node000002_Node000034" class="edge">
<title>Node2&#45;&gt;Node34</title>
<g id="a_edge43_Node000002_Node000034"><a xlink:title=" ">
<path fill="none" stroke="#63b8ff" d="M1038.51,-118.65C951.89,-113.22 737.87,-98.54 559.75,-76 557.11,-75.67 554.4,-75.3 551.67,-74.91"/>
<polygon fill="#63b8ff" stroke="#63b8ff" points="1038.17,-122.13 1048.36,-119.26 1038.6,-115.15 1038.17,-122.13"/>
</a>
</g>
</g>
<!-- Node36 -->
<g id="Node000036" class="node">
<title>Node36</title>
<g id="a_Node000036"><a xlink:href="TempSensor_8h.html" target="_top" xlink:title=" ">
<polygon fill="white" stroke="#666666" points="1015.25,-76 936.25,-76 936.25,-56 1015.25,-56 1015.25,-76"/>
<text text-anchor="middle" x="975.75" y="-62.5" font-family="Helvetica,sans-Serif" font-size="10.00">TempSensor.h</text>
</a>
</g>
</g>
<!-- Node2&#45;&gt;Node36 -->
<g id="edge47_Node000002_Node000036" class="edge">
<title>Node2&#45;&gt;Node36</title>
<g id="a_edge47_Node000002_Node000036"><a xlink:title=" ">
<path fill="none" stroke="#63b8ff" d="M1049.82,-106.21C1031.91,-96.73 1009.18,-84.7 993.66,-76.48"/>
<polygon fill="#63b8ff" stroke="#63b8ff" points="1048.17,-109.3 1058.65,-110.89 1051.45,-103.11 1048.17,-109.3"/>
</a>
</g>
</g>
<!-- Node4 -->
<g id="Node000004" class="node">
<title>Node4</title>
<g id="a_Node000004"><a xlink:href="AS7331Sensor_8cpp.html" target="_top" xlink:title=" ">
<polygon fill="white" stroke="#666666" points="1116.75,-20 1016.75,-20 1016.75,0 1116.75,0 1116.75,-20"/>
<text text-anchor="middle" x="1066.75" y="-6.5" font-family="Helvetica,sans-Serif" font-size="10.00">AS7331Sensor.cpp</text>
</a>
</g>
</g>
<!-- Node3&#45;&gt;Node4 -->
<g id="edge3_Node000003_Node000004" class="edge">
<title>Node3&#45;&gt;Node4</title>
<g id="a_edge3_Node000003_Node000004"><a xlink:title=" ">
<path fill="none" stroke="#63b8ff" d="M1073.56,-44.43C1071.86,-36.11 1070,-26.93 1068.64,-20.3"/>
<polygon fill="#63b8ff" stroke="#63b8ff" points="1070.11,-45.01 1075.53,-54.11 1076.97,-43.61 1070.11,-45.01"/>
</a>
</g>
</g>
<!-- Node3&#45;&gt;Node5 -->
<g id="edge4_Node000003_Node000005" class="edge">
<title>Node3&#45;&gt;Node5</title>
<g id="a_edge4_Node000003_Node000005"><a xlink:title=" ">
<path fill="none" stroke="#63b8ff" d="M1021.5,-55.52C915.87,-39.03 886.5,-40.13 783.75,-20 780.9,-19.44 777.93,-18.81 774.97,-18.14"/>
<polygon fill="#63b8ff" stroke="#63b8ff" points="1020.74,-58.94 1031.16,-57.04 1021.83,-52.03 1020.74,-58.94"/>
</a>
</g>
</g>
<!-- Node7 -->
<g id="Node000007" class="node">
<title>Node7</title>
<g id="a_Node000007"><a xlink:href="BME280Sensor_8cpp.html" target="_top" xlink:title=" ">
<polygon fill="white" stroke="#666666" points="1605.25,-20 1502.25,-20 1502.25,0 1605.25,0 1605.25,-20"/>
<text text-anchor="middle" x="1553.75" y="-6.5" font-family="Helvetica,sans-Serif" font-size="10.00">BME280Sensor.cpp</text>
</a>
</g>
</g>
<!-- Node6&#45;&gt;Node7 -->
<g id="edge6_Node000006_Node000007" class="edge">
<title>Node6&#45;&gt;Node7</title>
<g id="a_edge6_Node000006_Node000007"><a xlink:title=" ">
<path fill="none" stroke="#63b8ff" d="M1543.76,-44.71C1546.25,-36.32 1549.01,-27.01 1550.99,-20.3"/>
<polygon fill="#63b8ff" stroke="#63b8ff" points="1540.45,-43.56 1540.97,-54.14 1547.16,-45.55 1540.45,-43.56"/>
</a>
</g>
</g>
<!-- Node9 -->
<g id="Node000009" class="node">
<title>Node9</title>
<g id="a_Node000009"><a xlink:href="BME680Sensor_8cpp.html" target="_top" xlink:title=" ">
<polygon fill="white" stroke="#666666" points="1726.25,-20 1623.25,-20 1623.25,0 1726.25,0 1726.25,-20"/>
<text text-anchor="middle" x="1674.75" y="-6.5" font-family="Helvetica,sans-Serif" font-size="10.00">BME680Sensor.cpp</text>
</a>
</g>
</g>
<!-- Node8&#45;&gt;Node9 -->
<g id="edge8_Node000008_Node000009" class="edge">
<title>Node8&#45;&gt;Node9</title>
<g id="a_edge8_Node000008_Node000009"><a xlink:title=" ">
<path fill="none" stroke="#63b8ff" d="M1666.7,-44.43C1668.71,-36.11 1670.91,-26.93 1672.51,-20.3"/>
<polygon fill="#63b8ff" stroke="#63b8ff" points="1663.31,-43.58 1664.37,-54.12 1670.11,-45.22 1663.31,-43.58"/>
</a>
</g>
</g>
<!-- Node10&#45;&gt;Node5 -->
<g id="edge11_Node000010_Node000005" class="edge">
<title>Node10&#45;&gt;Node5</title>
<g id="a_edge11_Node000010_Node000005"><a xlink:title=" ">
<path fill="none" stroke="#63b8ff" d="M1129.03,-55.72C975.66,-35.93 933.39,-45.82 783.75,-20 780.88,-19.51 777.91,-18.92 774.95,-18.28"/>
<polygon fill="#63b8ff" stroke="#63b8ff" points="1128.4,-59.17 1138.77,-57 1129.31,-52.23 1128.4,-59.17"/>
</a>
</g>
</g>
<!-- Node11 -->
<g id="Node000011" class="node">
<title>Node11</title>
<g id="a_Node000011"><a xlink:href="BMP390Sensor_8cpp.html" target="_top" xlink:title=" ">
<polygon fill="white" stroke="#666666" points="1238.25,-20 1135.25,-20 1135.25,0 1238.25,0 1238.25,-20"/>
<text text-anchor="middle" x="1186.75" y="-6.5" font-family="Helvetica,sans-Serif" font-size="10.00">BMP390Sensor.cpp</text>
</a>
</g>
</g>
<!-- Node10&#45;&gt;Node11 -->
<g id="edge10_Node000010_Node000011" class="edge">
<title>Node10&#45;&gt;Node11</title>
<g id="a_edge10_Node000010_Node000011"><a xlink:title=" ">
<path fill="none" stroke="#63b8ff" d="M1186.75,-44.13C1186.75,-35.9 1186.75,-26.85 1186.75,-20.3"/>
<polygon fill="#63b8ff" stroke="#63b8ff" points="1183.25,-44.08 1186.75,-54.08 1190.25,-44.08 1183.25,-44.08"/>
</a>
</g>
</g>
<!-- Node13 -->
<g id="Node000013" class="node">
<title>Node13</title>
<g id="a_Node000013"><a xlink:href="DS3231Sensor_8cpp.html" target="_top" xlink:title=" ">
<polygon fill="white" stroke="#666666" points="1845.12,-20 1744.38,-20 1744.38,0 1845.12,0 1845.12,-20"/>
<text text-anchor="middle" x="1794.75" y="-6.5" font-family="Helvetica,sans-Serif" font-size="10.00">DS3231Sensor.cpp</text>
</a>
</g>
</g>
<!-- Node12&#45;&gt;Node13 -->
<g id="edge13_Node000012_Node000013" class="edge">
<title>Node12&#45;&gt;Node13</title>
<g id="a_edge13_Node000012_Node000013"><a xlink:title=" ">
<path fill="none" stroke="#63b8ff" d="M1787.32,-44.43C1789.17,-36.11 1791.21,-26.93 1792.68,-20.3"/>
<polygon fill="#63b8ff" stroke="#63b8ff" points="1783.92,-43.6 1785.17,-54.12 1790.75,-45.11 1783.92,-43.6"/>
</a>
</g>
</g>
<!-- Node14&#45;&gt;Node5 -->
<g id="edge16_Node000014_Node000005" class="edge">
<title>Node14&#45;&gt;Node5</title>
<g id="a_edge16_Node000014_Node000005"><a xlink:title=" ">
<path fill="none" stroke="#63b8ff" d="M648.31,-51.27C671.85,-41.64 702.73,-29.01 723.58,-20.48"/>
<polygon fill="#63b8ff" stroke="#63b8ff" points="647.07,-48 639.14,-55.02 649.72,-54.47 647.07,-48"/>
</a>
</g>
</g>
<!-- Node15 -->
<g id="Node000015" class="node">
<title>Node15</title>
<g id="a_Node000015"><a xlink:href="ENS160Sensor_8cpp.html" target="_top" xlink:title=" ">
<polygon fill="white" stroke="#666666" points="575.88,-20 473.62,-20 473.62,0 575.88,0 575.88,-20"/>
<text text-anchor="middle" x="524.75" y="-6.5" font-family="Helvetica,sans-Serif" font-size="10.00">ENS160Sensor.cpp</text>
</a>
</g>
</g>
<!-- Node14&#45;&gt;Node15 -->
<g id="edge15_Node000014_Node000015" class="edge">
<title>Node14&#45;&gt;Node15</title>
<g id="a_edge15_Node000014_Node000015"><a xlink:title=" ">
<path fill="none" stroke="#63b8ff" d="M589.44,-49.81C573.74,-40.39 554.05,-28.58 540.55,-20.48"/>
<polygon fill="#63b8ff" stroke="#63b8ff" points="587.4,-52.67 597.78,-54.82 591,-46.67 587.4,-52.67"/>
</a>
</g>
</g>
<!-- Node16&#45;&gt;Node5 -->
<g id="edge19_Node000016_Node000005" class="edge">
<title>Node16&#45;&gt;Node5</title>
<g id="a_edge19_Node000016_Node000005"><a xlink:title=" ">
<path fill="none" stroke="#63b8ff" d="M1238.95,-55.77C1036.93,-33.28 981.73,-51.65 783.75,-20 780.88,-19.54 777.9,-18.97 774.94,-18.35"/>
<polygon fill="#63b8ff" stroke="#63b8ff" points="1238.42,-59.23 1248.75,-56.88 1239.21,-52.27 1238.42,-59.23"/>
</a>
</g>
</g>
<!-- Node17 -->
<g id="Node000017" class="node">
<title>Node17</title>
<g id="a_Node000017"><a xlink:href="ICM20948Sensor_8cpp.html" target="_top" xlink:title=" ">
<polygon fill="white" stroke="#666666" points="1367,-20 1256.5,-20 1256.5,0 1367,0 1367,-20"/>
<text text-anchor="middle" x="1311.75" y="-6.5" font-family="Helvetica,sans-Serif" font-size="10.00">ICM20948Sensor.cpp</text>
</a>
</g>
</g>
<!-- Node16&#45;&gt;Node17 -->
<g id="edge18_Node000016_Node000017" class="edge">
<title>Node16&#45;&gt;Node17</title>
<g id="a_edge18_Node000016_Node000017"><a xlink:title=" ">
<path fill="none" stroke="#63b8ff" d="M1304.94,-44.43C1306.64,-36.11 1308.5,-26.93 1309.86,-20.3"/>
<polygon fill="#63b8ff" stroke="#63b8ff" points="1301.53,-43.61 1302.97,-54.11 1308.39,-45.01 1301.53,-43.61"/>
</a>
</g>
</g>
<!-- Node18&#45;&gt;Node5 -->
<g id="edge22_Node000018_Node000005" class="edge">
<title>Node18&#45;&gt;Node5</title>
<g id="a_edge22_Node000018_Node000005"><a xlink:title=" ">
<path fill="none" stroke="#63b8ff" d="M1357.2,-55.83C1103,-27.38 1033.76,-57.92 783.75,-20 780.87,-19.56 777.89,-19.01 774.93,-18.4"/>
<polygon fill="#63b8ff" stroke="#63b8ff" points="1356.43,-59.27 1366.76,-56.92 1357.22,-52.31 1356.43,-59.27"/>
</a>
</g>
</g>
<!-- Node19 -->
<g id="Node000019" class="node">
<title>Node19</title>
<g id="a_Node000019"><a xlink:href="INA260Sensor_8cpp.html" target="_top" xlink:title=" ">
<polygon fill="white" stroke="#666666" points="1484,-20 1385.5,-20 1385.5,0 1484,0 1484,-20"/>
<text text-anchor="middle" x="1434.75" y="-6.5" font-family="Helvetica,sans-Serif" font-size="10.00">INA260Sensor.cpp</text>
</a>
</g>
</g>
<!-- Node18&#45;&gt;Node19 -->
<g id="edge21_Node000018_Node000019" class="edge">
<title>Node18&#45;&gt;Node19</title>
<g id="a_edge21_Node000018_Node000019"><a xlink:title=" ">
<path fill="none" stroke="#63b8ff" d="M1420.9,-45C1424.35,-36.54 1428.2,-27.08 1430.96,-20.3"/>
<polygon fill="#63b8ff" stroke="#63b8ff" points="1417.68,-43.61 1417.15,-54.19 1424.17,-46.25 1417.68,-43.61"/>
</a>
</g>
</g>
<!-- Node21 -->
<g id="Node000021" class="node">
<title>Node21</title>
<g id="a_Node000021"><a xlink:href="LSM9DS1Sensor_8cpp.html" target="_top" xlink:title=" ">
<polygon fill="white" stroke="#666666" points="1974,-20 1863.5,-20 1863.5,0 1974,0 1974,-20"/>
<text text-anchor="middle" x="1918.75" y="-6.5" font-family="Helvetica,sans-Serif" font-size="10.00">LSM9DS1Sensor.cpp</text>
</a>
</g>
</g>
<!-- Node20&#45;&gt;Node21 -->
<g id="edge24_Node000020_Node000021" class="edge">
<title>Node20&#45;&gt;Node21</title>
<g id="a_edge24_Node000020_Node000021"><a xlink:title=" ">
<path fill="none" stroke="#63b8ff" d="M1911.94,-44.43C1913.64,-36.11 1915.5,-26.93 1916.86,-20.3"/>
<polygon fill="#63b8ff" stroke="#63b8ff" points="1908.53,-43.61 1909.97,-54.11 1915.39,-45.01 1908.53,-43.61"/>
</a>
</g>
</g>
<!-- Node22&#45;&gt;Node5 -->
<g id="edge27_Node000022_Node000005" class="edge">
<title>Node22&#45;&gt;Node5</title>
<g id="a_edge27_Node000022_Node000005"><a xlink:title=" ">
<path fill="none" stroke="#63b8ff" d="M245.72,-55.74C451.47,-32.47 507.78,-52.13 709.75,-20 712.62,-19.54 715.6,-18.98 718.56,-18.35"/>
<polygon fill="#63b8ff" stroke="#63b8ff" points="245.57,-52.24 236.04,-56.86 246.37,-59.19 245.57,-52.24"/>
</a>
</g>
</g>
<!-- Node23 -->
<g id="Node000023" class="node">
<title>Node23</title>
<g id="a_Node000023"><a xlink:href="MTK3339Sensor_8cpp.html" target="_top" xlink:title=" ">
<polygon fill="white" stroke="#666666" points="107.5,-20 0,-20 0,0 107.5,0 107.5,-20"/>
<text text-anchor="middle" x="53.75" y="-6.5" font-family="Helvetica,sans-Serif" font-size="10.00">MTK3339Sensor.cpp</text>
</a>
</g>
</g>
<!-- Node22&#45;&gt;Node23 -->
<g id="edge26_Node000022_Node000023" class="edge">
<title>Node22&#45;&gt;Node23</title>
<g id="a_edge26_Node000022_Node000023"><a xlink:title=" ">
<path fill="none" stroke="#63b8ff" d="M152.19,-51.27C128.65,-41.64 97.77,-29.01 76.92,-20.48"/>
<polygon fill="#63b8ff" stroke="#63b8ff" points="150.78,-54.47 161.36,-55.02 153.43,-48 150.78,-54.47"/>
</a>
</g>
</g>
<!-- Node24&#45;&gt;Node5 -->
<g id="edge30_Node000024_Node000005" class="edge">
<title>Node24&#45;&gt;Node5</title>
<g id="a_edge30_Node000024_Node000005"><a xlink:title=" ">
<path fill="none" stroke="#63b8ff" d="M347.03,-55.8C508.23,-34.41 552.66,-46.72 709.75,-20 712.62,-19.51 715.59,-18.93 718.55,-18.29"/>
<polygon fill="#63b8ff" stroke="#63b8ff" points="346.67,-52.32 337.23,-57.13 347.61,-59.25 346.67,-52.32"/>
</a>
</g>
</g>
<!-- Node25 -->
<g id="Node000025" class="node">
<title>Node25</title>
<g id="a_Node000025"><a xlink:href="OzoneSensor_8cpp.html" target="_top" xlink:title=" ">
<polygon fill="white" stroke="#666666" points="219.75,-20 125.75,-20 125.75,0 219.75,0 219.75,-20"/>
<text text-anchor="middle" x="172.75" y="-6.5" font-family="Helvetica,sans-Serif" font-size="10.00">OzoneSensor.cpp</text>
</a>
</g>
</g>
<!-- Node24&#45;&gt;Node25 -->
<g id="edge29_Node000024_Node000025" class="edge">
<title>Node24&#45;&gt;Node25</title>
<g id="a_edge29_Node000024_Node000025"><a xlink:title=" ">
<path fill="none" stroke="#63b8ff" d="M262.4,-51.01C240.89,-41.41 212.93,-28.93 193.99,-20.48"/>
<polygon fill="#63b8ff" stroke="#63b8ff" points="260.73,-54.1 271.29,-54.98 263.59,-47.71 260.73,-54.1"/>
</a>
</g>
</g>
<!-- Node26&#45;&gt;Node5 -->
<g id="edge33_Node000026_Node000005" class="edge">
<title>Node26&#45;&gt;Node5</title>
<g id="a_edge33_Node000026_Node000005"><a xlink:title=" ">
<path fill="none" stroke="#63b8ff" d="M734.16,-45C737.29,-36.54 740.79,-27.08 743.31,-20.3"/>
<polygon fill="#63b8ff" stroke="#63b8ff" points="730.95,-43.58 730.76,-54.17 737.51,-46.01 730.95,-43.58"/>
</a>
</g>
</g>
<!-- Node27 -->
<g id="Node000027" class="node">
<title>Node27</title>
<g id="a_Node000027"><a xlink:href="PCF8523Sensor_8cpp.html" target="_top" xlink:title=" ">
<polygon fill="white" stroke="#666666" points="701.12,-20 594.38,-20 594.38,0 701.12,0 701.12,-20"/>
<text text-anchor="middle" x="647.75" y="-6.5" font-family="Helvetica,sans-Serif" font-size="10.00">PCF8523Sensor.cpp</text>
</a>
</g>
</g>
<!-- Node26&#45;&gt;Node27 -->
<g id="edge32_Node000026_Node000027" class="edge">
<title>Node26&#45;&gt;Node27</title>
<g id="a_edge32_Node000026_Node000027"><a xlink:title=" ">
<path fill="none" stroke="#63b8ff" d="M703.74,-49.27C690.09,-39.94 673.25,-28.43 661.62,-20.48"/>
<polygon fill="#63b8ff" stroke="#63b8ff" points="701.51,-51.99 711.74,-54.74 705.46,-46.21 701.51,-51.99"/>
</a>
</g>
</g>
<!-- Node28&#45;&gt;Node5 -->
<g id="edge36_Node000028_Node000005" class="edge">
<title>Node28&#45;&gt;Node5</title>
<g id="a_edge36_Node000028_Node000005"><a xlink:title=" ">
<path fill="none" stroke="#63b8ff" d="M841.9,-51.14C819.11,-41.52 789.34,-28.97 769.22,-20.48"/>
<polygon fill="#63b8ff" stroke="#63b8ff" points="840.49,-54.34 851.06,-55.01 843.21,-47.89 840.49,-54.34"/>
</a>
</g>
</g>
<!-- Node29 -->
<g id="Node000029" class="node">
<title>Node29</title>
<g id="a_Node000029"><a xlink:href="SCD40Sensor_8cpp.html" target="_top" xlink:title=" ">
<polygon fill="white" stroke="#666666" points="890.62,-20 792.88,-20 792.88,0 890.62,0 890.62,-20"/>
<text text-anchor="middle" x="841.75" y="-6.5" font-family="Helvetica,sans-Serif" font-size="10.00">SCD40Sensor.cpp</text>
</a>
</g>
</g>
<!-- Node28&#45;&gt;Node29 -->
<g id="edge35_Node000028_Node000029" class="edge">
<title>Node28&#45;&gt;Node29</title>
<g id="a_edge35_Node000028_Node000029"><a xlink:title=" ">
<path fill="none" stroke="#63b8ff" d="M863.06,-45.87C857.75,-37.19 851.72,-27.32 847.43,-20.3"/>
<polygon fill="#63b8ff" stroke="#63b8ff" points="860.01,-47.59 868.21,-54.3 865.98,-43.94 860.01,-47.59"/>
</a>
</g>
</g>
<!-- Node31 -->
<g id="Node000031" class="node">
<title>Node31</title>
<g id="a_Node000031"><a xlink:href="SGP30Sensor_8cpp.html" target="_top" xlink:title=" ">
<polygon fill="white" stroke="#666666" points="2089.25,-20 1992.25,-20 1992.25,0 2089.25,0 2089.25,-20"/>
<text text-anchor="middle" x="2040.75" y="-6.5" font-family="Helvetica,sans-Serif" font-size="10.00">SGP30Sensor.cpp</text>
</a>
</g>
</g>
<!-- Node30&#45;&gt;Node31 -->
<g id="edge38_Node000030_Node000031" class="edge">
<title>Node30&#45;&gt;Node31</title>
<g id="a_edge38_Node000030_Node000031"><a xlink:title=" ">
<path fill="none" stroke="#63b8ff" d="M2037.68,-44.13C2038.44,-35.9 2039.28,-26.85 2039.89,-20.3"/>
<polygon fill="#63b8ff" stroke="#63b8ff" points="2034.2,-43.81 2036.76,-54.09 2041.17,-44.45 2034.2,-43.81"/>
</a>
</g>
</g>
<!-- Node32&#45;&gt;Node5 -->
<g id="edge42_Node000032_Node000005" class="edge">
<title>Node32&#45;&gt;Node5</title>
<g id="a_edge42_Node000032_Node000005"><a xlink:title=" ">
<path fill="none" stroke="#63b8ff" d="M453.58,-55.77C568.14,-38.66 599.58,-41.03 709.75,-20 712.61,-19.45 715.58,-18.83 718.53,-18.17"/>
<polygon fill="#63b8ff" stroke="#63b8ff" points="453.09,-52.31 443.73,-57.26 454.14,-59.23 453.09,-52.31"/>
</a>
</g>
</g>
<!-- Node32&#45;&gt;Node15 -->
<g id="edge40_Node000032_Node000015" class="edge">
<title>Node32&#45;&gt;Node15</title>
<g id="a_edge40_Node000032_Node000015"><a xlink:title=" ">
<path fill="none" stroke="#63b8ff" d="M430.35,-51.14C452.96,-41.52 482.49,-28.97 502.46,-20.48"/>
<polygon fill="#63b8ff" stroke="#63b8ff" points="429.1,-47.87 421.26,-55 431.84,-54.31 429.1,-47.87"/>
</a>
</g>
</g>
<!-- Node33 -->
<g id="Node000033" class="node">
<title>Node33</title>
<g id="a_Node000033"><a xlink:href="SHTC3Sensor_8cpp.html" target="_top" xlink:title=" ">
<polygon fill="white" stroke="#666666" points="336,-20 237.5,-20 237.5,0 336,0 336,-20"/>
<text text-anchor="middle" x="286.75" y="-6.5" font-family="Helvetica,sans-Serif" font-size="10.00">SHTC3Sensor.cpp</text>
</a>
</g>
</g>
<!-- Node32&#45;&gt;Node33 -->
<g id="edge41_Node000032_Node000033" class="edge">
<title>Node32&#45;&gt;Node33</title>
<g id="a_edge41_Node000032_Node000033"><a xlink:title=" ">
<path fill="none" stroke="#63b8ff" d="M368.18,-50.61C348.56,-41.07 323.37,-28.81 306.24,-20.48"/>
<polygon fill="#63b8ff" stroke="#63b8ff" points="366.53,-53.7 377.05,-54.93 369.59,-47.41 366.53,-53.7"/>
</a>
</g>
</g>
<!-- Node34&#45;&gt;Node5 -->
<g id="edge46_Node000034_Node000005" class="edge">
<title>Node34&#45;&gt;Node5</title>
<g id="a_edge46_Node000034_Node000005"><a xlink:title=" ">
<path fill="none" stroke="#63b8ff" d="M561.12,-53.12C602.19,-44.23 659.53,-31.64 709.75,-20 712.58,-19.34 715.54,-18.65 718.48,-17.94"/>
<polygon fill="#63b8ff" stroke="#63b8ff" points="560.5,-49.68 551.46,-55.21 561.98,-56.52 560.5,-49.68"/>
</a>
</g>
</g>
<!-- Node34&#45;&gt;Node15 -->
<g id="edge44_Node000034_Node000015" class="edge">
<title>Node34&#45;&gt;Node15</title>
<g id="a_edge44_Node000034_Node000015"><a xlink:title=" ">
<path fill="none" stroke="#63b8ff" d="M512.79,-45C515.76,-36.54 519.09,-27.08 521.48,-20.3"/>
<polygon fill="#63b8ff" stroke="#63b8ff" points="509.58,-43.57 509.56,-54.17 516.18,-45.89 509.58,-43.57"/>
</a>
</g>
</g>
<!-- Node35 -->
<g id="Node000035" class="node">
<title>Node35</title>
<g id="a_Node000035"><a xlink:href="TMP117Sensor_8cpp.html" target="_top" xlink:title=" ">
<polygon fill="white" stroke="#666666" points="455.5,-20 354,-20 354,0 455.5,0 455.5,-20"/>
<text text-anchor="middle" x="404.75" y="-6.5" font-family="Helvetica,sans-Serif" font-size="10.00">TMP117Sensor.cpp</text>
</a>
</g>
</g>
<!-- Node34&#45;&gt;Node35 -->
<g id="edge45_Node000034_Node000035" class="edge">
<title>Node34&#45;&gt;Node35</title>
<g id="a_edge45_Node000034_Node000035"><a xlink:title=" ">
<path fill="none" stroke="#63b8ff" d="M478.34,-50.35C460.57,-40.84 437.92,-28.74 422.48,-20.48"/>
<polygon fill="#63b8ff" stroke="#63b8ff" points="476.35,-53.25 486.82,-54.88 479.65,-47.08 476.35,-53.25"/>
</a>
</g>
</g>
<!-- Node36&#45;&gt;Node5 -->
<g id="edge49_Node000036_Node000005" class="edge">
<title>Node36&#45;&gt;Node5</title>
<g id="a_edge49_Node000036_Node000005"><a xlink:title=" ">
<path fill="none" stroke="#63b8ff" d="M925.03,-53.24C886.31,-44.22 831.64,-31.44 783.75,-20 780.92,-19.32 777.97,-18.62 775.03,-17.9"/>
<polygon fill="#63b8ff" stroke="#63b8ff" points="924.01,-56.59 934.54,-55.45 925.59,-49.77 924.01,-56.59"/>
</a>
</g>
</g>
<!-- Node37 -->
<g id="Node000037" class="node">
<title>Node37</title>
<g id="a_Node000037"><a xlink:href="TempSensor_8cpp.html" target="_top" xlink:title=" ">
<polygon fill="white" stroke="#666666" points="998.5,-20 909,-20 909,0 998.5,0 998.5,-20"/>
<text text-anchor="middle" x="953.75" y="-6.5" font-family="Helvetica,sans-Serif" font-size="10.00">TempSensor.cpp</text>
</a>
</g>
</g>
<!-- Node36&#45;&gt;Node37 -->
<g id="edge48_Node000036_Node000037" class="edge">
<title>Node36&#45;&gt;Node37</title>
<g id="a_edge48_Node000036_Node000037"><a xlink:title=" ">
<path fill="none" stroke="#63b8ff" d="M967.6,-45C964.15,-36.54 960.3,-27.08 957.54,-20.3"/>
<polygon fill="#63b8ff" stroke="#63b8ff" points="964.33,-46.25 971.35,-54.19 970.82,-43.61 964.33,-46.25"/>
</a>
</g>
</g>
<!-- Node39 -->
<g id="Node000039" class="node">
<title>Node39</title>
<g id="a_Node000039"><a xlink:href="FlashStorage_8h.html" target="_top" xlink:title=" ">
<polygon fill="white" stroke="#666666" points="2447.75,-76 2365.75,-76 2365.75,-56 2447.75,-56 2447.75,-76"/>
<text text-anchor="middle" x="2406.75" y="-62.5" font-family="Helvetica,sans-Serif" font-size="10.00">FlashStorage.h</text>
</a>
</g>
</g>
<!-- Node38&#45;&gt;Node39 -->
<g id="edge52_Node000038_Node000039" class="edge">
<title>Node38&#45;&gt;Node39</title>
<g id="a_edge52_Node000038_Node000039"><a xlink:title=" ">
<path fill="none" stroke="#63b8ff" d="M2307.56,-107.27C2331.29,-97.64 2362.4,-85.01 2383.4,-76.48"/>
<polygon fill="#63b8ff" stroke="#63b8ff" points="2306.27,-104.02 2298.32,-111.02 2308.9,-110.51 2306.27,-104.02"/>
</a>
</g>
</g>
<!-- Node41 -->
<g id="Node000041" class="node">
<title>Node41</title>
<g id="a_Node000041"><a xlink:href="main1_8cpp.html" target="_top" xlink:title="Main functions for Core 1, responsible for sending data to storage peripherals.">
<polygon fill="white" stroke="#666666" points="2381.25,-20 2320.25,-20 2320.25,0 2381.25,0 2381.25,-20"/>
<text text-anchor="middle" x="2350.75" y="-6.5" font-family="Helvetica,sans-Serif" font-size="10.00">main1.cpp</text>
</a>
</g>
</g>
<!-- Node38&#45;&gt;Node41 -->
<g id="edge61_Node000038_Node000041" class="edge">
<title>Node38&#45;&gt;Node41</title>
<g id="a_edge61_Node000038_Node000041"><a xlink:title=" ">
<path fill="none" stroke="#63b8ff" d="M2293.43,-104.03C2301.89,-96.07 2311.49,-86.13 2318.75,-76 2331.78,-57.8 2342.16,-33.48 2347.28,-20.36"/>
<polygon fill="#63b8ff" stroke="#63b8ff" points="2291.34,-101.19 2286.28,-110.5 2296.04,-106.38 2291.34,-101.19"/>
</a>
</g>
</g>
<!-- Node42 -->
<g id="Node000042" class="node">
<title>Node42</title>
<g id="a_Node000042"><a xlink:href="RadioStorage_8h.html" target="_top" xlink:title=" ">
<polygon fill="white" stroke="#666666" points="2219.5,-76 2136,-76 2136,-56 2219.5,-56 2219.5,-76"/>
<text text-anchor="middle" x="2177.75" y="-62.5" font-family="Helvetica,sans-Serif" font-size="10.00">RadioStorage.h</text>
</a>
</g>
</g>
<!-- Node38&#45;&gt;Node42 -->
<g id="edge55_Node000038_Node000042" class="edge">
<title>Node38&#45;&gt;Node42</title>
<g id="a_edge55_Node000038_Node000042"><a xlink:title=" ">
<path fill="none" stroke="#63b8ff" d="M2247.23,-106.08C2230.4,-96.62 2209.15,-84.66 2194.6,-76.48"/>
<polygon fill="#63b8ff" stroke="#63b8ff" points="2245.28,-109 2255.71,-110.85 2248.71,-102.9 2245.28,-109"/>
</a>
</g>
</g>
<!-- Node44 -->
<g id="Node000044" class="node">
<title>Node44</title>
<g id="a_Node000044"><a xlink:href="SDStorage_8h.html" target="_top" xlink:title=" ">
<polygon fill="white" stroke="#666666" points="2309.88,-76 2237.62,-76 2237.62,-56 2309.88,-56 2309.88,-76"/>
<text text-anchor="middle" x="2273.75" y="-62.5" font-family="Helvetica,sans-Serif" font-size="10.00">SDStorage.h</text>
</a>
</g>
</g>
<!-- Node38&#45;&gt;Node44 -->
<g id="edge58_Node000038_Node000044" class="edge">
<title>Node38&#45;&gt;Node44</title>
<g id="a_edge58_Node000038_Node000044"><a xlink:title=" ">
<path fill="none" stroke="#63b8ff" d="M2273.75,-100.13C2273.75,-91.9 2273.75,-82.85 2273.75,-76.3"/>
<polygon fill="#63b8ff" stroke="#63b8ff" points="2270.25,-100.08 2273.75,-110.08 2277.25,-100.08 2270.25,-100.08"/>
</a>
</g>
</g>
<!-- Node40 -->
<g id="Node000040" class="node">
<title>Node40</title>
<g id="a_Node000040"><a xlink:href="FlashStorage_8cpp.html" target="_top" xlink:title=" ">
<polygon fill="white" stroke="#666666" points="2492,-20 2399.5,-20 2399.5,0 2492,0 2492,-20"/>
<text text-anchor="middle" x="2445.75" y="-6.5" font-family="Helvetica,sans-Serif" font-size="10.00">FlashStorage.cpp</text>
</a>
</g>
</g>
<!-- Node39&#45;&gt;Node40 -->
<g id="edge53_Node000039_Node000040" class="edge">
<title>Node39&#45;&gt;Node40</title>
<g id="a_edge53_Node000039_Node000040"><a xlink:title=" ">
<path fill="none" stroke="#63b8ff" d="M2420.16,-46.44C2426.52,-37.62 2433.86,-27.47 2439.03,-20.3"/>
<polygon fill="#63b8ff" stroke="#63b8ff" points="2417.45,-44.21 2414.43,-54.37 2423.12,-48.31 2417.45,-44.21"/>
</a>
</g>
</g>
<!-- Node39&#45;&gt;Node41 -->
<g id="edge54_Node000039_Node000041" class="edge">
<title>Node39&#45;&gt;Node41</title>
<g id="a_edge54_Node000039_Node000041"><a xlink:title=" ">
<path fill="none" stroke="#63b8ff" d="M2388.96,-47.85C2379.5,-38.72 2368.23,-27.86 2360.39,-20.3"/>
<polygon fill="#63b8ff" stroke="#63b8ff" points="2386.28,-50.12 2395.91,-54.54 2391.14,-45.08 2386.28,-50.12"/>
</a>
</g>
</g>
<!-- Node42&#45;&gt;Node41 -->
<g id="edge57_Node000042_Node000041" class="edge">
<title>Node42&#45;&gt;Node41</title>
<g id="a_edge57_Node000042_Node000041"><a xlink:title=" ">
<path fill="none" stroke="#63b8ff" d="M2218.83,-52.18C2250.01,-42.44 2292.19,-29.28 2320.38,-20.48"/>
<polygon fill="#63b8ff" stroke="#63b8ff" points="2217.83,-48.82 2209.33,-55.14 2219.92,-55.5 2217.83,-48.82"/>
</a>
</g>
</g>
<!-- Node43 -->
<g id="Node000043" class="node">
<title>Node43</title>
<g id="a_Node000043"><a xlink:href="RadioStorage_8cpp.html" target="_top" xlink:title=" ">
<polygon fill="white" stroke="#666666" points="2201.75,-20 2107.75,-20 2107.75,0 2201.75,0 2201.75,-20"/>
<text text-anchor="middle" x="2154.75" y="-6.5" font-family="Helvetica,sans-Serif" font-size="10.00">RadioStorage.cpp</text>
</a>
</g>
</g>
<!-- Node42&#45;&gt;Node43 -->
<g id="edge56_Node000042_Node000043" class="edge">
<title>Node42&#45;&gt;Node43</title>
<g id="a_edge56_Node000042_Node000043"><a xlink:title=" ">
<path fill="none" stroke="#63b8ff" d="M2169.23,-45C2165.63,-36.54 2161.6,-27.08 2158.71,-20.3"/>
<polygon fill="#63b8ff" stroke="#63b8ff" points="2166.01,-46.37 2173.15,-54.2 2172.45,-43.63 2166.01,-46.37"/>
</a>
</g>
</g>
<!-- Node44&#45;&gt;Node41 -->
<g id="edge60_Node000044_Node000041" class="edge">
<title>Node44&#45;&gt;Node41</title>
<g id="a_edge60_Node000044_Node000041"><a xlink:title=" ">
<path fill="none" stroke="#63b8ff" d="M2296.57,-49C2309.8,-39.72 2326.01,-28.35 2337.23,-20.48"/>
<polygon fill="#63b8ff" stroke="#63b8ff" points="2294.58,-46.12 2288.4,-54.72 2298.6,-51.85 2294.58,-46.12"/>
</a>
</g>
</g>
<!-- Node45 -->
<g id="Node000045" class="node">
<title>Node45</title>
<g id="a_Node000045"><a xlink:href="SDStorage_8cpp.html" target="_top" xlink:title=" ">
<polygon fill="white" stroke="#666666" points="2302.12,-20 2219.38,-20 2219.38,0 2302.12,0 2302.12,-20"/>
<text text-anchor="middle" x="2260.75" y="-6.5" font-family="Helvetica,sans-Serif" font-size="10.00">SDStorage.cpp</text>
</a>
</g>
</g>
<!-- Node44&#45;&gt;Node45 -->
<g id="edge59_Node000044_Node000045" class="edge">
<title>Node44&#45;&gt;Node45</title>
<g id="a_edge59_Node000044_Node000045"><a xlink:title=" ">
<path fill="none" stroke="#63b8ff" d="M2268.8,-44.43C2266.79,-36.11 2264.59,-26.93 2262.99,-20.3"/>
<polygon fill="#63b8ff" stroke="#63b8ff" points="2265.39,-45.22 2271.13,-54.12 2272.19,-43.58 2265.39,-45.22"/>
</a>
</g>
</g>
</g>
</svg>

<g id="navigator" transform="translate(0 0)" fill="#404254">
  <rect fill="#f2f5e9" fill-opacity="0.5" stroke="#606060" stroke-width=".5" x="0" y="0" width="60" height="60"/>
  <use id="zoomplus" xlink:href="#zoomPlus" x="17" y="9" onmousedown="handleZoom(evt,'in')"/>
  <use id="zoomminus" xlink:href="#zoomMin" x="42" y="9" onmousedown="handleZoom(evt,'out')"/>
  <use id="reset" xlink:href="#resetDef" x="30" y="36" onmousedown="handleReset()"/>
   <use id="arrowup" xlink:href="#arrowUp" x="0" y="0" onmousedown="handlePan(0,-1)"/>
  <use id="arrowright" xlink:href="#arrowRight" x="0" y="0" onmousedown="handlePan(1,0)"/>
  <use id="arrowdown" xlink:href="#arrowDown" x="0" y="0" onmousedown="handlePan(0,1)"/>
  <use id="arrowleft" xlink:href="#arrowLeft" x="0" y="0" onmousedown="handlePan(-1,0)"/>
</g>
<svg viewBox="0 0 15 15" width="100%" height="30px" preserveAspectRatio="xMaxYMin meet">
 <g id="arrow_out" transform="scale(0.3 0.3)">
  <a xlink:href="Device_8h__dep__incl_org.svg" target="_base">
   <rect id="button" ry="5" rx="5" y="6" x="6" height="38" width="38"
        fill="#f2f5e9" fill-opacity="0.5" stroke="#606060" stroke-width="1.0"/>
   <path id="arrow"
     d="M 11.500037,31.436501 C 11.940474,20.09759 22.043105,11.32322 32.158766,21.979434 L 37.068811,17.246167 C 37.068811,17.246167 37.088388,32 37.088388,32 L 22.160133,31.978069 C 22.160133,31.978069 26.997745,27.140456 26.997745,27.140456 C 18.528582,18.264221 13.291696,25.230495 11.500037,31.436501 z"
     style="fill:#404040;"/>
  </a>
 </g>
</svg>

<style type='text/css'>
<![CDATA[
[data-mouse-over-selected='false'] { opacity: 0.7; }
[data-mouse-over-selected='true']  { opacity: 1.0; }
]]>
</style>
<script type="application/ecmascript"><![CDATA[
document.addEventListener('DOMContentLoaded', (event) => {
  highlightEdges();
  highlightAdjacentNodes();
});
]]></script>
</svg>
