<?xml version="1.0" encoding="UTF-8" standalone="no"?>
<!DOCTYPE svg PUBLIC "-//W3C//DTD SVG 1.1//EN"
 "http://www.w3.org/Graphics/SVG/1.1/DTD/svg11.dtd">
<!-- Generated by graphviz version 12.1.2 (20240928.0832)
 -->
<!-- Title: ENS160Sensor.h Pages: 1 -->
<svg width="358pt" height="252pt"
 viewBox="0.00 0.00 358.38 252.00" xmlns="http://www.w3.org/2000/svg" xmlns:xlink="http://www.w3.org/1999/xlink">

<svg id="main" version="1.1" xmlns="http://www.w3.org/2000/svg" xmlns:xlink="http://www.w3.org/1999/xlink" xml:space="preserve">

<style type="text/css"><![CDATA[
.node, .edge {opacity: 0.7;}
.node.selected, .edge.selected {opacity: 1;}
.edge:hover path { stroke: red; }
.edge:hover polygon { stroke: red; fill: red; }
]]></style>
<script type="application/ecmascript" xlink:href="svg.min.js"/>
<svg id="graph" class="graph">
<g id="graph0" class="graph" transform="scale(1 1) rotate(0) translate(4 248)">
<title>ENS160Sensor.h</title>
<!-- Node1 -->
<g id="Node000001" class="node">
<title>Node1</title>
<g id="a_Node000001"><a xlink:title=" ">
<polygon fill="#999999" stroke="#666666" points="197.12,-244 105.38,-244 105.38,-224 197.12,-224 197.12,-244"/>
<text text-anchor="middle" x="151.25" y="-230.5" font-family="Helvetica,sans-Serif" font-size="10.00">ENS160Sensor.h</text>
</a>
</g>
</g>
<!-- Node2 -->
<g id="Node000002" class="node">
<title>Node2</title>
<g id="a_Node000002"><a xlink:title=" ">
<polygon fill="#e0e0e0" stroke="#999999" points="44.5,-188 0,-188 0,-168 44.5,-168 44.5,-188"/>
<text text-anchor="middle" x="22.25" y="-174.5" font-family="Helvetica,sans-Serif" font-size="10.00">Wire.h</text>
</a>
</g>
</g>
<!-- Node1&#45;&gt;Node2 -->
<g id="edge1_Node000001_Node000002" class="edge">
<title>Node1&#45;&gt;Node2</title>
<g id="a_edge1_Node000001_Node000002"><a xlink:title=" ">
<path fill="none" stroke="#63b8ff" d="M128.78,-223.59C108.46,-215.09 78.3,-202.46 55.24,-192.81"/>
<polygon fill="#63b8ff" stroke="#63b8ff" points="56.87,-189.7 46.29,-189.06 54.16,-196.15 56.87,-189.7"/>
</a>
</g>
</g>
<!-- Node3 -->
<g id="Node000003" class="node">
<title>Node3</title>
<g id="a_Node000003"><a xlink:href="PayloadConfig_8h.html" target="_top" xlink:title="Central location for pinout and config defines.">
<polygon fill="white" stroke="#666666" points="150.25,-188 62.25,-188 62.25,-168 150.25,-168 150.25,-188"/>
<text text-anchor="middle" x="106.25" y="-174.5" font-family="Helvetica,sans-Serif" font-size="10.00">PayloadConfig.h</text>
</a>
</g>
</g>
<!-- Node1&#45;&gt;Node3 -->
<g id="edge2_Node000001_Node000003" class="edge">
<title>Node1&#45;&gt;Node3</title>
<g id="a_edge2_Node000001_Node000003"><a xlink:title=" ">
<path fill="none" stroke="#63b8ff" d="M143.41,-223.59C137.28,-216.24 128.58,-205.8 121.14,-196.87"/>
<polygon fill="#63b8ff" stroke="#63b8ff" points="124.06,-194.9 114.97,-189.46 118.68,-199.38 124.06,-194.9"/>
</a>
</g>
</g>
<!-- Node4 -->
<g id="Node000004" class="node">
<title>Node4</title>
<g id="a_Node000004"><a xlink:href="Sensor_8h.html" target="_top" xlink:title=" ">
<polygon fill="white" stroke="#666666" points="223.75,-188 168.75,-188 168.75,-168 223.75,-168 223.75,-188"/>
<text text-anchor="middle" x="196.25" y="-174.5" font-family="Helvetica,sans-Serif" font-size="10.00">Sensor.h</text>
</a>
</g>
</g>
<!-- Node1&#45;&gt;Node4 -->
<g id="edge3_Node000001_Node000004" class="edge">
<title>Node1&#45;&gt;Node4</title>
<g id="a_edge3_Node000001_Node000004"><a xlink:title=" ">
<path fill="none" stroke="#63b8ff" d="M159.09,-223.59C165.22,-216.24 173.92,-205.8 181.36,-196.87"/>
<polygon fill="#63b8ff" stroke="#63b8ff" points="183.82,-199.38 187.53,-189.46 178.44,-194.9 183.82,-199.38"/>
</a>
</g>
</g>
<!-- Node8 -->
<g id="Node000008" class="node">
<title>Node8</title>
<g id="a_Node000008"><a xlink:title=" ">
<polygon fill="#e0e0e0" stroke="#999999" points="350.38,-188 242.12,-188 242.12,-168 350.38,-168 350.38,-188"/>
<text text-anchor="middle" x="296.25" y="-174.5" font-family="Helvetica,sans-Serif" font-size="10.00">SparkFun_ENS160.h</text>
</a>
</g>
</g>
<!-- Node1&#45;&gt;Node8 -->
<g id="edge10_Node000001_Node000008" class="edge">
<title>Node1&#45;&gt;Node8</title>
<g id="a_edge10_Node000001_Node000008"><a xlink:title=" ">
<path fill="none" stroke="#63b8ff" d="M176.51,-223.59C199.65,-214.97 234.17,-202.12 260.21,-192.42"/>
<polygon fill="#63b8ff" stroke="#63b8ff" points="261.23,-195.78 269.38,-189.01 258.78,-189.22 261.23,-195.78"/>
</a>
</g>
</g>
<!-- Node5 -->
<g id="Node000005" class="node">
<title>Node5</title>
<g id="a_Node000005"><a xlink:title=" ">
<polygon fill="#e0e0e0" stroke="#999999" points="215.88,-20 158.62,-20 158.62,0 215.88,0 215.88,-20"/>
<text text-anchor="middle" x="187.25" y="-6.5" font-family="Helvetica,sans-Serif" font-size="10.00">Arduino.h</text>
</a>
</g>
</g>
<!-- Node4&#45;&gt;Node5 -->
<g id="edge4_Node000004_Node000005" class="edge">
<title>Node4&#45;&gt;Node5</title>
<g id="a_edge4_Node000004_Node000005"><a xlink:title=" ">
<path fill="none" stroke="#63b8ff" d="M185.4,-167.53C176.72,-159.18 165.22,-146.16 160.25,-132 148.01,-97.11 164.36,-54.56 176.44,-30.34"/>
<polygon fill="#63b8ff" stroke="#63b8ff" points="179.45,-32.13 181.02,-21.65 173.25,-28.86 179.45,-32.13"/>
</a>
</g>
</g>
<!-- Node6 -->
<g id="Node000006" class="node">
<title>Node6</title>
<g id="a_Node000006"><a xlink:href="Device_8h.html" target="_top" xlink:title=" ">
<polygon fill="white" stroke="#666666" points="223.75,-132 168.75,-132 168.75,-112 223.75,-112 223.75,-132"/>
<text text-anchor="middle" x="196.25" y="-118.5" font-family="Helvetica,sans-Serif" font-size="10.00">Device.h</text>
</a>
</g>
</g>
<!-- Node4&#45;&gt;Node6 -->
<g id="edge5_Node000004_Node000006" class="edge">
<title>Node4&#45;&gt;Node6</title>
<g id="a_edge5_Node000004_Node000006"><a xlink:title=" ">
<path fill="none" stroke="#63b8ff" d="M196.25,-167.59C196.25,-161.01 196.25,-151.96 196.25,-143.73"/>
<polygon fill="#63b8ff" stroke="#63b8ff" points="199.75,-143.81 196.25,-133.81 192.75,-143.81 199.75,-143.81"/>
</a>
</g>
</g>
<!-- Node7 -->
<g id="Node000007" class="node">
<title>Node7</title>
<g id="a_Node000007"><a xlink:href="Logger_8h.html" target="_top" xlink:title=" ">
<polygon fill="white" stroke="#666666" points="269,-76 215.5,-76 215.5,-56 269,-56 269,-76"/>
<text text-anchor="middle" x="242.25" y="-62.5" font-family="Helvetica,sans-Serif" font-size="10.00">Logger.h</text>
</a>
</g>
</g>
<!-- Node4&#45;&gt;Node7 -->
<g id="edge9_Node000004_Node000007" class="edge">
<title>Node4&#45;&gt;Node7</title>
<g id="a_edge9_Node000004_Node000007"><a xlink:title=" ">
<path fill="none" stroke="#63b8ff" d="M206.55,-167.73C215.19,-159.31 227.08,-146.08 233.25,-132 239.42,-117.92 241.58,-100.64 242.25,-87.43"/>
<polygon fill="#63b8ff" stroke="#63b8ff" points="245.74,-87.85 242.48,-77.77 238.75,-87.68 245.74,-87.85"/>
</a>
</g>
</g>
<!-- Node6&#45;&gt;Node5 -->
<g id="edge6_Node000006_Node000005" class="edge">
<title>Node6&#45;&gt;Node5</title>
<g id="a_edge6_Node000006_Node000005"><a xlink:title=" ">
<path fill="none" stroke="#63b8ff" d="M195.48,-111.62C194.04,-94.01 190.9,-55.59 188.94,-31.65"/>
<polygon fill="#63b8ff" stroke="#63b8ff" points="192.44,-31.54 188.14,-21.86 185.47,-32.12 192.44,-31.54"/>
</a>
</g>
</g>
<!-- Node6&#45;&gt;Node7 -->
<g id="edge7_Node000006_Node000007" class="edge">
<title>Node6&#45;&gt;Node7</title>
<g id="a_edge7_Node000006_Node000007"><a xlink:title=" ">
<path fill="none" stroke="#63b8ff" d="M204.26,-111.59C210.53,-104.24 219.42,-93.8 227.03,-84.87"/>
<polygon fill="#63b8ff" stroke="#63b8ff" points="229.53,-87.33 233.35,-77.45 224.2,-82.79 229.53,-87.33"/>
</a>
</g>
</g>
<!-- Node7&#45;&gt;Node5 -->
<g id="edge8_Node000007_Node000005" class="edge">
<title>Node7&#45;&gt;Node5</title>
<g id="a_edge8_Node000007_Node000005"><a xlink:title=" ">
<path fill="none" stroke="#63b8ff" d="M232.67,-55.59C225.02,-48.08 214.09,-37.35 204.87,-28.3"/>
<polygon fill="#63b8ff" stroke="#63b8ff" points="207.39,-25.87 197.8,-21.36 202.48,-30.86 207.39,-25.87"/>
</a>
</g>
</g>
</g>
</svg>
</svg>

<style type='text/css'>
<![CDATA[
[data-mouse-over-selected='false'] { opacity: 0.7; }
[data-mouse-over-selected='true']  { opacity: 1.0; }
]]>
</style>
<script type="application/ecmascript"><![CDATA[
document.addEventListener('DOMContentLoaded', (event) => {
  highlightEdges();
  highlightAdjacentNodes();
});
]]></script>
</svg>
