<?xml version="1.0" encoding="UTF-8" standalone="no"?>
<!DOCTYPE svg PUBLIC "-//W3C//DTD SVG 1.1//EN"
 "http://www.w3.org/Graphics/SVG/1.1/DTD/svg11.dtd">
<!-- Generated by graphviz version 2.43.0 (0)
 -->
<!-- Title: ENS160Sensor.cpp Pages: 1 -->
<!--zoomable 302 -->

<svg id="main" version="1.1" xmlns="http://www.w3.org/2000/svg" xmlns:xlink="http://www.w3.org/1999/xlink" xml:space="preserve" onload="init(evt)">
<style type="text/css"><![CDATA[
.node, .edge {opacity: 0.7;}
.node.selected, .edge.selected {opacity: 1;}
.edge:hover path { stroke: red; }
.edge:hover polygon { stroke: red; fill: red; }
]]></style>

<defs>
  <circle id="rim" cx="0" cy="0" r="7"/>
  <circle id="rim2" cx="0" cy="0" r="3.5"/>
  <g id="zoomPlus">
    <use xlink:href="#rim" fill="#404040"><set attributeName="fill" to="#808080" begin="zoomplus.mouseover" end="zoomplus.mouseout"/></use>
    <path d="M-4,0h8M0,-4v8" fill="none" stroke="white" stroke-width="1.5" pointer-events="none"/>
  </g>
  <g id="zoomMin">
    <use xlink:href="#rim" fill="#404040"><set attributeName="fill" to="#808080" begin="zoomminus.mouseover" end="zoomminus.mouseout"/></use>
    <path d="M-4,0h8" fill="none" stroke="white" stroke-width="1.5" pointer-events="none"/>
  </g>
  <g id="arrowUp" transform="translate(30 24)">
    <use xlink:href="#rim"/>
    <path pointer-events="none" fill="none" stroke="white" stroke-width="1.5" d="M0,-3.0v7 M-2.5,-0.5L0,-3.0L2.5,-0.5"/>
  </g>
  <g id="arrowRight" transform="rotate(90) translate(36 -43)">
    <use xlink:href="#rim"/>
    <path pointer-events="none" fill="none" stroke="white" stroke-width="1.5" d="M0,-3.0v7 M-2.5,-0.5L0,-3.0L2.5,-0.5"/>
  </g>
  <g id="arrowDown" transform="rotate(180) translate(-30 -48)">
    <use xlink:href="#rim"/>
    <path pointer-events="none" fill="none" stroke="white" stroke-width="1.5" d="M0,-3.0v7 M-2.5,-0.5L0,-3.0L2.5,-0.5"/>
  </g>
  <g id="arrowLeft" transform="rotate(270) translate(-36 17)">
    <use xlink:href="#rim"/>
    <path pointer-events="none" fill="none" stroke="white" stroke-width="1.5" d="M0,-3.0v7 M-2.5,-0.5L0,-3.0L2.5,-0.5"/>
  </g>
  <g id="resetDef">
    <use xlink:href="#rim2" fill="#404040"><set attributeName="fill" to="#808080" begin="reset.mouseover" end="reset.mouseout"/></use>
  </g>
</defs>
<script type="application/ecmascript">
var viewWidth = 640;
var viewHeight = 302;
var sectionId = 'dynsection-0';
</script>
<script type="application/ecmascript" xlink:href="svg.min.js"/>
<svg id="graph" class="graph">
<g id="viewport">
<title>ENS160Sensor.cpp</title>
<!-- Node1 -->
<g id="Node000001" class="node">
<title>Node1</title>
<g id="a_Node000001"><a xlink:title=" ">
<polygon fill="#999999" stroke="#666666" points="390,-294 283,-294 283,-275 390,-275 390,-294"/>
<text text-anchor="middle" x="336.5" y="-282" font-family="Helvetica,sans-Serif" font-size="10.00">ENS160Sensor.cpp</text>
</a>
</g>
</g>
<!-- Node2 -->
<g id="Node000002" class="node">
<title>Node2</title>
<g id="a_Node000002"><a xlink:href="ENS160Sensor_8h.html" target="_top" xlink:title=" ">
<polygon fill="white" stroke="#666666" points="274,-239 179,-239 179,-220 274,-220 274,-239"/>
<text text-anchor="middle" x="226.5" y="-227" font-family="Helvetica,sans-Serif" font-size="10.00">ENS160Sensor.h</text>
</a>
</g>
</g>
<!-- Node1&#45;&gt;Node2 -->
<g id="edge1_Node000001_Node000002" class="edge">
<title>Node1&#45;&gt;Node2</title>
<g id="a_edge1_Node000001_Node000002"><a xlink:title=" ">
<path fill="none" stroke="#63b8ff" d="M318.83,-274.98C301.21,-266.5 273.92,-253.35 253.57,-243.54"/>
<polygon fill="#63b8ff" stroke="#63b8ff" points="255.02,-240.36 244.49,-239.17 251.98,-246.66 255.02,-240.36"/>
</a>
</g>
</g>
<!-- Node10 -->
<g id="Node000010" class="node">
<title>Node10</title>
<g id="a_Node000010"><a xlink:href="SHTC3Sensor_8h.html" target="_top" xlink:title=" ">
<polygon fill="white" stroke="#666666" points="381,-239 292,-239 292,-220 381,-220 381,-239"/>
<text text-anchor="middle" x="336.5" y="-227" font-family="Helvetica,sans-Serif" font-size="10.00">SHTC3Sensor.h</text>
</a>
</g>
</g>
<!-- Node1&#45;&gt;Node10 -->
<g id="edge13_Node000001_Node000010" class="edge">
<title>Node1&#45;&gt;Node10</title>
<g id="a_edge13_Node000001_Node000010"><a xlink:title=" ">
<path fill="none" stroke="#63b8ff" d="M336.5,-274.75C336.5,-267.8 336.5,-257.85 336.5,-249.13"/>
<polygon fill="#63b8ff" stroke="#63b8ff" points="340,-249.09 336.5,-239.09 333,-249.09 340,-249.09"/>
</a>
</g>
</g>
<!-- Node12 -->
<g id="Node000012" class="node">
<title>Node12</title>
<g id="a_Node000012"><a xlink:href="TMP11xSensor_8h.html" target="_top" xlink:title=" ">
<polygon fill="white" stroke="#666666" points="496,-239 399,-239 399,-220 496,-220 496,-239"/>
<text text-anchor="middle" x="447.5" y="-227" font-family="Helvetica,sans-Serif" font-size="10.00">TMP11xSensor.h</text>
</a>
</g>
</g>
<!-- Node1&#45;&gt;Node12 -->
<g id="edge17_Node000001_Node000012" class="edge">
<title>Node1&#45;&gt;Node12</title>
<g id="a_edge17_Node000001_Node000012"><a xlink:title=" ">
<path fill="none" stroke="#63b8ff" d="M354.33,-274.98C372.11,-266.5 399.65,-253.35 420.18,-243.54"/>
<polygon fill="#63b8ff" stroke="#63b8ff" points="421.83,-246.64 429.34,-239.17 418.81,-240.32 421.83,-246.64"/>
</a>
</g>
</g>
<!-- Node3 -->
<g id="Node000003" class="node">
<title>Node3</title>
<g id="a_Node000003"><a xlink:title=" ">
<polygon fill="#e0e0e0" stroke="#999999" points="360.5,-129 312.5,-129 312.5,-110 360.5,-110 360.5,-129"/>
<text text-anchor="middle" x="336.5" y="-117" font-family="Helvetica,sans-Serif" font-size="10.00">Wire.h</text>
</a>
</g>
</g>
<!-- Node2&#45;&gt;Node3 -->
<g id="edge2_Node000002_Node000003" class="edge">
<title>Node2&#45;&gt;Node3</title>
<g id="a_edge2_Node000002_Node000003"><a xlink:title=" ">
<path fill="none" stroke="#63b8ff" d="M205.29,-219.85C180.1,-208.32 143.5,-186.83 160.5,-165 177.75,-142.85 256.2,-129.98 302.34,-124.2"/>
<polygon fill="#63b8ff" stroke="#63b8ff" points="302.98,-127.65 312.49,-122.98 302.14,-120.7 302.98,-127.65"/>
</a>
</g>
</g>
<!-- Node4 -->
<g id="Node000004" class="node">
<title>Node4</title>
<g id="a_Node000004"><a xlink:href="PayloadConfig_8h.html" target="_top" xlink:title="Central location for pinout and config defines.">
<polygon fill="white" stroke="#666666" points="384,-184 289,-184 289,-165 384,-165 384,-184"/>
<text text-anchor="middle" x="336.5" y="-172" font-family="Helvetica,sans-Serif" font-size="10.00">PayloadConfig.h</text>
</a>
</g>
</g>
<!-- Node2&#45;&gt;Node4 -->
<g id="edge3_Node000002_Node000004" class="edge">
<title>Node2&#45;&gt;Node4</title>
<g id="a_edge3_Node000002_Node000004"><a xlink:title=" ">
<path fill="none" stroke="#63b8ff" d="M244.17,-219.98C261.79,-211.5 289.08,-198.35 309.43,-188.54"/>
<polygon fill="#63b8ff" stroke="#63b8ff" points="311.02,-191.66 318.51,-184.17 307.98,-185.36 311.02,-191.66"/>
</a>
</g>
</g>
<!-- Node5 -->
<g id="Node000005" class="node">
<title>Node5</title>
<g id="a_Node000005"><a xlink:href="Sensor_8h.html" target="_top" xlink:title=" ">
<polygon fill="white" stroke="#666666" points="498.5,-184 440.5,-184 440.5,-165 498.5,-165 498.5,-184"/>
<text text-anchor="middle" x="469.5" y="-172" font-family="Helvetica,sans-Serif" font-size="10.00">Sensor.h</text>
</a>
</g>
</g>
<!-- Node2&#45;&gt;Node5 -->
<g id="edge5_Node000002_Node000005" class="edge">
<title>Node2&#45;&gt;Node5</title>
<g id="a_edge5_Node000002_Node000005"><a xlink:title=" ">
<path fill="none" stroke="#63b8ff" d="M265.54,-219.98C310.85,-210.1 385.12,-193.9 430.43,-184.02"/>
<polygon fill="#63b8ff" stroke="#63b8ff" points="431.44,-187.38 440.47,-181.83 429.95,-180.54 431.44,-187.38"/>
</a>
</g>
</g>
<!-- Node9 -->
<g id="Node000009" class="node">
<title>Node9</title>
<g id="a_Node000009"><a xlink:title=" ">
<polygon fill="#e0e0e0" stroke="#999999" points="113,-184 0,-184 0,-165 113,-165 113,-184"/>
<text text-anchor="middle" x="56.5" y="-172" font-family="Helvetica,sans-Serif" font-size="10.00">SparkFun_ENS160.h</text>
</a>
</g>
</g>
<!-- Node2&#45;&gt;Node9 -->
<g id="edge12_Node000002_Node000009" class="edge">
<title>Node2&#45;&gt;Node9</title>
<g id="a_edge12_Node000002_Node000009"><a xlink:title=" ">
<path fill="none" stroke="#63b8ff" d="M199.19,-219.98C170.65,-211.09 125.67,-197.07 93.86,-187.15"/>
<polygon fill="#63b8ff" stroke="#63b8ff" points="94.62,-183.72 84.03,-184.08 92.53,-190.4 94.62,-183.72"/>
</a>
</g>
</g>
<!-- Node4&#45;&gt;Node3 -->
<g id="edge4_Node000004_Node000003" class="edge">
<title>Node4&#45;&gt;Node3</title>
<g id="a_edge4_Node000004_Node000003"><a xlink:title=" ">
<path fill="none" stroke="#63b8ff" d="M336.5,-164.75C336.5,-157.8 336.5,-147.85 336.5,-139.13"/>
<polygon fill="#63b8ff" stroke="#63b8ff" points="340,-139.09 336.5,-129.09 333,-139.09 340,-139.09"/>
</a>
</g>
</g>
<!-- Node6 -->
<g id="Node000006" class="node">
<title>Node6</title>
<g id="a_Node000006"><a xlink:title=" ">
<polygon fill="#e0e0e0" stroke="#999999" points="511,-19 448,-19 448,0 511,0 511,-19"/>
<text text-anchor="middle" x="479.5" y="-7" font-family="Helvetica,sans-Serif" font-size="10.00">Arduino.h</text>
</a>
</g>
</g>
<!-- Node5&#45;&gt;Node6 -->
<g id="edge6_Node000005_Node000006" class="edge">
<title>Node5&#45;&gt;Node6</title>
<g id="a_edge6_Node000005_Node000006"><a xlink:title=" ">
<path fill="none" stroke="#63b8ff" d="M480.49,-164.99C489.95,-156.9 502.93,-143.81 508.5,-129 521.62,-94.14 503.02,-51.25 490.1,-27.81"/>
<polygon fill="#63b8ff" stroke="#63b8ff" points="493.06,-25.94 485.02,-19.04 487,-29.45 493.06,-25.94"/>
</a>
</g>
</g>
<!-- Node7 -->
<g id="Node000007" class="node">
<title>Node7</title>
<g id="a_Node000007"><a xlink:href="Device_8h.html" target="_top" xlink:title=" ">
<polygon fill="white" stroke="#666666" points="499,-129 440,-129 440,-110 499,-110 499,-129"/>
<text text-anchor="middle" x="469.5" y="-117" font-family="Helvetica,sans-Serif" font-size="10.00">Device.h</text>
</a>
</g>
</g>
<!-- Node5&#45;&gt;Node7 -->
<g id="edge7_Node000005_Node000007" class="edge">
<title>Node5&#45;&gt;Node7</title>
<g id="a_edge7_Node000005_Node000007"><a xlink:title=" ">
<path fill="none" stroke="#63b8ff" d="M469.5,-164.75C469.5,-157.8 469.5,-147.85 469.5,-139.13"/>
<polygon fill="#63b8ff" stroke="#63b8ff" points="473,-139.09 469.5,-129.09 466,-139.09 473,-139.09"/>
</a>
</g>
</g>
<!-- Node8 -->
<g id="Node000008" class="node">
<title>Node8</title>
<g id="a_Node000008"><a xlink:href="Logger_8h.html" target="_top" xlink:title=" ">
<polygon fill="white" stroke="#666666" points="451.5,-74 393.5,-74 393.5,-55 451.5,-55 451.5,-74"/>
<text text-anchor="middle" x="422.5" y="-62" font-family="Helvetica,sans-Serif" font-size="10.00">Logger.h</text>
</a>
</g>
</g>
<!-- Node5&#45;&gt;Node8 -->
<g id="edge11_Node000005_Node000008" class="edge">
<title>Node5&#45;&gt;Node8</title>
<g id="a_edge11_Node000005_Node000008"><a xlink:title=" ">
<path fill="none" stroke="#63b8ff" d="M458.95,-164.81C449.78,-156.6 436.99,-143.43 430.5,-129 424.16,-114.89 422.35,-97.35 422.02,-84.28"/>
<polygon fill="#63b8ff" stroke="#63b8ff" points="425.52,-84.15 422.03,-74.14 418.52,-84.14 425.52,-84.15"/>
</a>
</g>
</g>
<!-- Node7&#45;&gt;Node6 -->
<g id="edge8_Node000007_Node000006" class="edge">
<title>Node7&#45;&gt;Node6</title>
<g id="a_edge8_Node000007_Node000006"><a xlink:title=" ">
<path fill="none" stroke="#63b8ff" d="M470.32,-109.66C471.94,-92.17 475.58,-52.8 477.76,-29.27"/>
<polygon fill="#63b8ff" stroke="#63b8ff" points="481.26,-29.44 478.7,-19.16 474.29,-28.79 481.26,-29.44"/>
</a>
</g>
</g>
<!-- Node7&#45;&gt;Node8 -->
<g id="edge9_Node000007_Node000008" class="edge">
<title>Node7&#45;&gt;Node8</title>
<g id="a_edge9_Node000007_Node000008"><a xlink:title=" ">
<path fill="none" stroke="#63b8ff" d="M461.74,-109.75C455.03,-102.18 445.16,-91.05 436.99,-81.84"/>
<polygon fill="#63b8ff" stroke="#63b8ff" points="439.37,-79.25 430.12,-74.09 434.13,-83.89 439.37,-79.25"/>
</a>
</g>
</g>
<!-- Node8&#45;&gt;Node6 -->
<g id="edge10_Node000008_Node000006" class="edge">
<title>Node8&#45;&gt;Node6</title>
<g id="a_edge10_Node000008_Node000006"><a xlink:title=" ">
<path fill="none" stroke="#63b8ff" d="M431.66,-54.98C440,-47.23 452.53,-35.58 462.68,-26.14"/>
<polygon fill="#63b8ff" stroke="#63b8ff" points="465.24,-28.54 470.18,-19.17 460.47,-23.42 465.24,-28.54"/>
</a>
</g>
</g>
<!-- Node10&#45;&gt;Node4 -->
<g id="edge15_Node000010_Node000004" class="edge">
<title>Node10&#45;&gt;Node4</title>
<g id="a_edge15_Node000010_Node000004"><a xlink:title=" ">
<path fill="none" stroke="#63b8ff" d="M336.5,-219.75C336.5,-212.8 336.5,-202.85 336.5,-194.13"/>
<polygon fill="#63b8ff" stroke="#63b8ff" points="340,-194.09 336.5,-184.09 333,-194.09 340,-194.09"/>
</a>
</g>
</g>
<!-- Node10&#45;&gt;Node5 -->
<g id="edge16_Node000010_Node000005" class="edge">
<title>Node10&#45;&gt;Node5</title>
<g id="a_edge16_Node000010_Node000005"><a xlink:title=" ">
<path fill="none" stroke="#63b8ff" d="M357.87,-219.98C379.65,-211.3 413.66,-197.75 438.42,-187.88"/>
<polygon fill="#63b8ff" stroke="#63b8ff" points="439.75,-191.12 447.74,-184.17 437.16,-184.62 439.75,-191.12"/>
</a>
</g>
</g>
<!-- Node11 -->
<g id="Node000011" class="node">
<title>Node11</title>
<g id="a_Node000011"><a xlink:title=" ">
<polygon fill="#e0e0e0" stroke="#999999" points="271,-184 170,-184 170,-165 271,-165 271,-184"/>
<text text-anchor="middle" x="220.5" y="-172" font-family="Helvetica,sans-Serif" font-size="10.00">Adafruit_SHTC3.h</text>
</a>
</g>
</g>
<!-- Node10&#45;&gt;Node11 -->
<g id="edge14_Node000010_Node000011" class="edge">
<title>Node10&#45;&gt;Node11</title>
<g id="a_edge14_Node000010_Node000011"><a xlink:title=" ">
<path fill="none" stroke="#63b8ff" d="M317.86,-219.98C299.2,-211.46 270.25,-198.23 248.76,-188.41"/>
<polygon fill="#63b8ff" stroke="#63b8ff" points="250.03,-185.14 239.48,-184.17 247.12,-191.51 250.03,-185.14"/>
</a>
</g>
</g>
<!-- Node12&#45;&gt;Node3 -->
<g id="edge19_Node000012_Node000003" class="edge">
<title>Node12&#45;&gt;Node3</title>
<g id="a_edge19_Node000012_Node000003"><a xlink:title=" ">
<path fill="none" stroke="#63b8ff" d="M440.85,-219.84C430.94,-207.18 411.45,-183.17 392.5,-165 381.32,-154.29 367.75,-143.45 356.77,-135.16"/>
<polygon fill="#63b8ff" stroke="#63b8ff" points="358.72,-132.25 348.61,-129.1 354.55,-137.87 358.72,-132.25"/>
</a>
</g>
</g>
<!-- Node12&#45;&gt;Node4 -->
<g id="edge20_Node000012_Node000004" class="edge">
<title>Node12&#45;&gt;Node4</title>
<g id="a_edge20_Node000012_Node000004"><a xlink:title=" ">
<path fill="none" stroke="#63b8ff" d="M429.67,-219.98C411.89,-211.5 384.35,-198.35 363.82,-188.54"/>
<polygon fill="#63b8ff" stroke="#63b8ff" points="365.19,-185.32 354.66,-184.17 362.17,-191.64 365.19,-185.32"/>
</a>
</g>
</g>
<!-- Node12&#45;&gt;Node5 -->
<g id="edge21_Node000012_Node000005" class="edge">
<title>Node12&#45;&gt;Node5</title>
<g id="a_edge21_Node000012_Node000005"><a xlink:title=" ">
<path fill="none" stroke="#63b8ff" d="M451.13,-219.75C454.08,-212.65 458.33,-202.4 462.01,-193.56"/>
<polygon fill="#63b8ff" stroke="#63b8ff" points="465.33,-194.67 465.93,-184.09 458.87,-191.98 465.33,-194.67"/>
</a>
</g>
</g>
<!-- Node13 -->
<g id="Node000013" class="node">
<title>Node13</title>
<g id="a_Node000013"><a xlink:title=" ">
<polygon fill="#e0e0e0" stroke="#999999" points="632,-184 517,-184 517,-165 632,-165 632,-184"/>
<text text-anchor="middle" x="574.5" y="-172" font-family="Helvetica,sans-Serif" font-size="10.00">SparkFun_TMP117.h</text>
</a>
</g>
</g>
<!-- Node12&#45;&gt;Node13 -->
<g id="edge18_Node000012_Node000013" class="edge">
<title>Node12&#45;&gt;Node13</title>
<g id="a_edge18_Node000012_Node000013"><a xlink:title=" ">
<path fill="none" stroke="#63b8ff" d="M467.9,-219.98C488.52,-211.38 520.61,-197.99 544.19,-188.15"/>
<polygon fill="#63b8ff" stroke="#63b8ff" points="545.84,-191.25 553.72,-184.17 543.15,-184.79 545.84,-191.25"/>
</a>
</g>
</g>
</g>
</svg>

<g id="navigator" transform="translate(0 0)" fill="#404254">
  <rect fill="#f2f5e9" fill-opacity="0.5" stroke="#606060" stroke-width=".5" x="0" y="0" width="60" height="60"/>
  <use id="zoomplus" xlink:href="#zoomPlus" x="17" y="9" onmousedown="handleZoom(evt,'in')"/>
  <use id="zoomminus" xlink:href="#zoomMin" x="42" y="9" onmousedown="handleZoom(evt,'out')"/>
  <use id="reset" xlink:href="#resetDef" x="30" y="36" onmousedown="handleReset()"/>
   <use id="arrowup" xlink:href="#arrowUp" x="0" y="0" onmousedown="handlePan(0,-1)"/>
  <use id="arrowright" xlink:href="#arrowRight" x="0" y="0" onmousedown="handlePan(1,0)"/>
  <use id="arrowdown" xlink:href="#arrowDown" x="0" y="0" onmousedown="handlePan(0,1)"/>
  <use id="arrowleft" xlink:href="#arrowLeft" x="0" y="0" onmousedown="handlePan(-1,0)"/>
</g>
<svg viewBox="0 0 15 15" width="100%" height="30px" preserveAspectRatio="xMaxYMin meet">
 <g id="arrow_out" transform="scale(0.3 0.3)">
  <a xlink:href="ENS160Sensor_8cpp__incl_org.svg" target="_base">
   <rect id="button" ry="5" rx="5" y="6" x="6" height="38" width="38"
        fill="#f2f5e9" fill-opacity="0.5" stroke="#606060" stroke-width="1.0"/>
   <path id="arrow"
     d="M 11.500037,31.436501 C 11.940474,20.09759 22.043105,11.32322 32.158766,21.979434 L 37.068811,17.246167 C 37.068811,17.246167 37.088388,32 37.088388,32 L 22.160133,31.978069 C 22.160133,31.978069 26.997745,27.140456 26.997745,27.140456 C 18.528582,18.264221 13.291696,25.230495 11.500037,31.436501 z"
     style="fill:#404040;"/>
  </a>
 </g>
</svg>

<style type='text/css'>
<![CDATA[
[data-mouse-over-selected='false'] { opacity: 0.7; }
[data-mouse-over-selected='true']  { opacity: 1.0; }
]]>
</style>
<script type="application/ecmascript"><![CDATA[
document.addEventListener('DOMContentLoaded', (event) => {
  highlightEdges();
  highlightAdjacentNodes();
});
]]></script>
</svg>
