<?xml version="1.0" encoding="UTF-8" standalone="no"?>
<!DOCTYPE svg PUBLIC "-//W3C//DTD SVG 1.1//EN"
 "http://www.w3.org/Graphics/SVG/1.1/DTD/svg11.dtd">
<!-- Generated by graphviz version 2.43.0 (0)
 -->
<!-- Title: ENS160Sensor.h Pages: 1 -->
<svg width="333pt" height="247pt"
 viewBox="0.00 0.00 332.50 247.00" xmlns="http://www.w3.org/2000/svg" xmlns:xlink="http://www.w3.org/1999/xlink">
<g id="graph0" class="graph" transform="scale(1 1) rotate(0) translate(4 243)">
<title>ENS160Sensor.h</title>
<!-- Node1 -->
<g id="Node000001" class="node">
<title>Node1</title>
<g id="a_Node000001"><a xlink:title=" ">
<polygon fill="#999999" stroke="#666666" points="163.5,-239 68.5,-239 68.5,-220 163.5,-220 163.5,-239"/>
<text text-anchor="middle" x="116" y="-227" font-family="Helvetica,sans-Serif" font-size="10.00">ENS160Sensor.h</text>
</a>
</g>
</g>
<!-- Node2 -->
<g id="Node000002" class="node">
<title>Node2</title>
<g id="a_Node000002"><a xlink:title=" ">
<polygon fill="#e0e0e0" stroke="#999999" points="48,-129 0,-129 0,-110 48,-110 48,-129"/>
<text text-anchor="middle" x="24" y="-117" font-family="Helvetica,sans-Serif" font-size="10.00">Wire.h</text>
</a>
</g>
</g>
<!-- Node1&#45;&gt;Node2 -->
<g id="edge1_Node000001_Node000002" class="edge">
<title>Node1&#45;&gt;Node2</title>
<g id="a_edge1_Node000001_Node000002"><a xlink:title=" ">
<path fill="none" stroke="#63b8ff" d="M68.24,-220.27C47.27,-214.03 24.6,-203.1 12,-184 3.04,-170.42 8.08,-151.84 14.14,-138.29"/>
<polygon fill="#63b8ff" stroke="#63b8ff" points="17.41,-139.59 18.75,-129.08 11.15,-136.45 17.41,-139.59"/>
</a>
</g>
</g>
<!-- Node3 -->
<g id="Node000003" class="node">
<title>Node3</title>
<g id="a_Node000003"><a xlink:href="PayloadConfig_8h.html" target="_top" xlink:title="Central location for pinout and config defines.">
<polygon fill="white" stroke="#666666" points="116.5,-184 21.5,-184 21.5,-165 116.5,-165 116.5,-184"/>
<text text-anchor="middle" x="69" y="-172" font-family="Helvetica,sans-Serif" font-size="10.00">PayloadConfig.h</text>
</a>
</g>
</g>
<!-- Node1&#45;&gt;Node3 -->
<g id="edge2_Node000001_Node000003" class="edge">
<title>Node1&#45;&gt;Node3</title>
<g id="a_edge2_Node000001_Node000003"><a xlink:title=" ">
<path fill="none" stroke="#63b8ff" d="M108.24,-219.75C101.53,-212.18 91.66,-201.05 83.49,-191.84"/>
<polygon fill="#63b8ff" stroke="#63b8ff" points="85.87,-189.25 76.62,-184.09 80.63,-193.89 85.87,-189.25"/>
</a>
</g>
</g>
<!-- Node4 -->
<g id="Node000004" class="node">
<title>Node4</title>
<g id="a_Node000004"><a xlink:href="Sensor_8h.html" target="_top" xlink:title=" ">
<polygon fill="white" stroke="#666666" points="193,-184 135,-184 135,-165 193,-165 193,-184"/>
<text text-anchor="middle" x="164" y="-172" font-family="Helvetica,sans-Serif" font-size="10.00">Sensor.h</text>
</a>
</g>
</g>
<!-- Node1&#45;&gt;Node4 -->
<g id="edge4_Node000001_Node000004" class="edge">
<title>Node1&#45;&gt;Node4</title>
<g id="a_edge4_Node000001_Node000004"><a xlink:title=" ">
<path fill="none" stroke="#63b8ff" d="M123.93,-219.75C130.85,-212.11 141.07,-200.82 149.45,-191.56"/>
<polygon fill="#63b8ff" stroke="#63b8ff" points="152.1,-193.85 156.22,-184.09 146.91,-189.15 152.1,-193.85"/>
</a>
</g>
</g>
<!-- Node8 -->
<g id="Node000008" class="node">
<title>Node8</title>
<g id="a_Node000008"><a xlink:title=" ">
<polygon fill="#e0e0e0" stroke="#999999" points="324.5,-184 211.5,-184 211.5,-165 324.5,-165 324.5,-184"/>
<text text-anchor="middle" x="268" y="-172" font-family="Helvetica,sans-Serif" font-size="10.00">SparkFun_ENS160.h</text>
</a>
</g>
</g>
<!-- Node1&#45;&gt;Node8 -->
<g id="edge11_Node000001_Node000008" class="edge">
<title>Node1&#45;&gt;Node8</title>
<g id="a_edge11_Node000001_Node000008"><a xlink:title=" ">
<path fill="none" stroke="#63b8ff" d="M140.42,-219.98C165.72,-211.16 205.45,-197.31 233.86,-187.41"/>
<polygon fill="#63b8ff" stroke="#63b8ff" points="235.1,-190.68 243.39,-184.08 232.79,-184.07 235.1,-190.68"/>
</a>
</g>
</g>
<!-- Node3&#45;&gt;Node2 -->
<g id="edge3_Node000003_Node000002" class="edge">
<title>Node3&#45;&gt;Node2</title>
<g id="a_edge3_Node000003_Node000002"><a xlink:title=" ">
<path fill="none" stroke="#63b8ff" d="M61.57,-164.75C55.15,-157.18 45.69,-146.05 37.88,-136.84"/>
<polygon fill="#63b8ff" stroke="#63b8ff" points="40.43,-134.45 31.29,-129.09 35.1,-138.98 40.43,-134.45"/>
</a>
</g>
</g>
<!-- Node5 -->
<g id="Node000005" class="node">
<title>Node5</title>
<g id="a_Node000005"><a xlink:title=" ">
<polygon fill="#e0e0e0" stroke="#999999" points="185.5,-19 122.5,-19 122.5,0 185.5,0 185.5,-19"/>
<text text-anchor="middle" x="154" y="-7" font-family="Helvetica,sans-Serif" font-size="10.00">Arduino.h</text>
</a>
</g>
</g>
<!-- Node4&#45;&gt;Node5 -->
<g id="edge5_Node000004_Node000005" class="edge">
<title>Node4&#45;&gt;Node5</title>
<g id="a_edge5_Node000004_Node000005"><a xlink:title=" ">
<path fill="none" stroke="#63b8ff" d="M153.29,-164.93C144.07,-156.8 131.41,-143.68 126,-129 113.13,-94.12 131.16,-51.23 143.71,-27.81"/>
<polygon fill="#63b8ff" stroke="#63b8ff" points="146.79,-29.47 148.64,-19.04 140.69,-26.04 146.79,-29.47"/>
</a>
</g>
</g>
<!-- Node6 -->
<g id="Node000006" class="node">
<title>Node6</title>
<g id="a_Node000006"><a xlink:href="Device_8h.html" target="_top" xlink:title=" ">
<polygon fill="white" stroke="#666666" points="193.5,-129 134.5,-129 134.5,-110 193.5,-110 193.5,-129"/>
<text text-anchor="middle" x="164" y="-117" font-family="Helvetica,sans-Serif" font-size="10.00">Device.h</text>
</a>
</g>
</g>
<!-- Node4&#45;&gt;Node6 -->
<g id="edge6_Node000004_Node000006" class="edge">
<title>Node4&#45;&gt;Node6</title>
<g id="a_edge6_Node000004_Node000006"><a xlink:title=" ">
<path fill="none" stroke="#63b8ff" d="M164,-164.75C164,-157.8 164,-147.85 164,-139.13"/>
<polygon fill="#63b8ff" stroke="#63b8ff" points="167.5,-139.09 164,-129.09 160.5,-139.09 167.5,-139.09"/>
</a>
</g>
</g>
<!-- Node7 -->
<g id="Node000007" class="node">
<title>Node7</title>
<g id="a_Node000007"><a xlink:href="Logger_8h.html" target="_top" xlink:title=" ">
<polygon fill="white" stroke="#666666" points="240,-74 182,-74 182,-55 240,-55 240,-74"/>
<text text-anchor="middle" x="211" y="-62" font-family="Helvetica,sans-Serif" font-size="10.00">Logger.h</text>
</a>
</g>
</g>
<!-- Node4&#45;&gt;Node7 -->
<g id="edge10_Node000004_Node000007" class="edge">
<title>Node4&#45;&gt;Node7</title>
<g id="a_edge10_Node000004_Node000007"><a xlink:title=" ">
<path fill="none" stroke="#63b8ff" d="M174.55,-164.81C183.72,-156.6 196.51,-143.43 203,-129 209.34,-114.89 211.15,-97.35 211.48,-84.28"/>
<polygon fill="#63b8ff" stroke="#63b8ff" points="214.98,-84.14 211.47,-74.14 207.98,-84.15 214.98,-84.14"/>
</a>
</g>
</g>
<!-- Node6&#45;&gt;Node5 -->
<g id="edge7_Node000006_Node000005" class="edge">
<title>Node6&#45;&gt;Node5</title>
<g id="a_edge7_Node000006_Node000005"><a xlink:title=" ">
<path fill="none" stroke="#63b8ff" d="M163.18,-109.66C161.56,-92.17 157.92,-52.8 155.74,-29.27"/>
<polygon fill="#63b8ff" stroke="#63b8ff" points="159.21,-28.79 154.8,-19.16 152.24,-29.44 159.21,-28.79"/>
</a>
</g>
</g>
<!-- Node6&#45;&gt;Node7 -->
<g id="edge8_Node000006_Node000007" class="edge">
<title>Node6&#45;&gt;Node7</title>
<g id="a_edge8_Node000006_Node000007"><a xlink:title=" ">
<path fill="none" stroke="#63b8ff" d="M171.76,-109.75C178.47,-102.18 188.34,-91.05 196.51,-81.84"/>
<polygon fill="#63b8ff" stroke="#63b8ff" points="199.37,-83.89 203.38,-74.09 194.13,-79.25 199.37,-83.89"/>
</a>
</g>
</g>
<!-- Node7&#45;&gt;Node5 -->
<g id="edge9_Node000007_Node000005" class="edge">
<title>Node7&#45;&gt;Node5</title>
<g id="a_edge9_Node000007_Node000005"><a xlink:title=" ">
<path fill="none" stroke="#63b8ff" d="M201.84,-54.98C193.5,-47.23 180.97,-35.58 170.82,-26.14"/>
<polygon fill="#63b8ff" stroke="#63b8ff" points="173.03,-23.42 163.32,-19.17 168.26,-28.54 173.03,-23.42"/>
</a>
</g>
</g>
</g>
</svg>
