<?xml version="1.0" encoding="UTF-8" standalone="no"?>
<!DOCTYPE svg PUBLIC "-//W3C//DTD SVG 1.1//EN"
 "http://www.w3.org/Graphics/SVG/1.1/DTD/svg11.dtd">
<!-- Generated by graphviz version 12.1.2 (20240928.0832)
 -->
<!-- Title: ErrorDisplay.h Pages: 1 -->
<svg width="223pt" height="140pt"
 viewBox="0.00 0.00 223.25 140.00" xmlns="http://www.w3.org/2000/svg" xmlns:xlink="http://www.w3.org/1999/xlink">
<g id="graph0" class="graph" transform="scale(1 1) rotate(0) translate(4 136)">
<title>ErrorDisplay.h</title>
<!-- Node1 -->
<g id="Node000001" class="node">
<title>Node1</title>
<g id="a_Node000001"><a xlink:title=" ">
<polygon fill="#999999" stroke="#666666" points="170.12,-132 92.62,-132 92.62,-112 170.12,-112 170.12,-132"/>
<text text-anchor="middle" x="131.38" y="-118.5" font-family="Helvetica,sans-Serif" font-size="10.00">ErrorDisplay.h</text>
</a>
</g>
</g>
<!-- Node2 -->
<g id="Node000002" class="node">
<title>Node2</title>
<g id="a_Node000002"><a xlink:href="SDStorage_8h.html" target="_top" xlink:title=" ">
<polygon fill="white" stroke="#666666" points="103.5,-76 31.25,-76 31.25,-56 103.5,-56 103.5,-76"/>
<text text-anchor="middle" x="67.38" y="-62.5" font-family="Helvetica,sans-Serif" font-size="10.00">SDStorage.h</text>
</a>
</g>
</g>
<!-- Node1&#45;&gt;Node2 -->
<g id="edge1_Node000001_Node000002" class="edge">
<title>Node1&#45;&gt;Node2</title>
<g id="a_edge1_Node000001_Node000002"><a xlink:title=" ">
<path fill="none" stroke="#63b8ff" d="M111.7,-104.4C100.76,-95.17 87.53,-84.01 78.4,-76.3"/>
<polygon fill="#63b8ff" stroke="#63b8ff" points="109.17,-106.84 119.07,-110.62 113.68,-101.49 109.17,-106.84"/>
</a>
</g>
</g>
<!-- Node4 -->
<g id="Node000004" class="node">
<title>Node4</title>
<g id="a_Node000004"><a xlink:href="main1_8cpp.html" target="_top" xlink:title="Main functions for Core 1, responsible for sending data to storage peripherals.">
<polygon fill="white" stroke="#666666" points="161.88,-20 100.88,-20 100.88,0 161.88,0 161.88,-20"/>
<text text-anchor="middle" x="131.38" y="-6.5" font-family="Helvetica,sans-Serif" font-size="10.00">main1.cpp</text>
</a>
</g>
</g>
<!-- Node1&#45;&gt;Node4 -->
<g id="edge5_Node000001_Node000004" class="edge">
<title>Node1&#45;&gt;Node4</title>
<g id="a_edge5_Node000001_Node000004"><a xlink:title=" ">
<path fill="none" stroke="#63b8ff" d="M131.38,-100.31C131.38,-76.36 131.38,-37.95 131.38,-20.35"/>
<polygon fill="#63b8ff" stroke="#63b8ff" points="127.88,-100.11 131.38,-110.11 134.88,-100.11 127.88,-100.11"/>
</a>
</g>
</g>
<!-- Node5 -->
<g id="Node000005" class="node">
<title>Node5</title>
<g id="a_Node000005"><a xlink:href="main_8cpp.html" target="_top" xlink:title="Main functions for Core 0, responsible for reading data from sensor peripherals.">
<polygon fill="white" stroke="#666666" points="215.25,-76 159.5,-76 159.5,-56 215.25,-56 215.25,-76"/>
<text text-anchor="middle" x="187.38" y="-62.5" font-family="Helvetica,sans-Serif" font-size="10.00">main.cpp</text>
</a>
</g>
</g>
<!-- Node1&#45;&gt;Node5 -->
<g id="edge4_Node000001_Node000005" class="edge">
<title>Node1&#45;&gt;Node5</title>
<g id="a_edge4_Node000001_Node000005"><a xlink:title=" ">
<path fill="none" stroke="#63b8ff" d="M149.16,-103.85C158.63,-94.72 169.9,-83.86 177.73,-76.3"/>
<polygon fill="#63b8ff" stroke="#63b8ff" points="146.99,-101.08 142.22,-110.54 151.85,-106.12 146.99,-101.08"/>
</a>
</g>
</g>
<!-- Node3 -->
<g id="Node000003" class="node">
<title>Node3</title>
<g id="a_Node000003"><a xlink:href="SDStorage_8cpp.html" target="_top" xlink:title=" ">
<polygon fill="white" stroke="#666666" points="82.75,-20 0,-20 0,0 82.75,0 82.75,-20"/>
<text text-anchor="middle" x="41.38" y="-6.5" font-family="Helvetica,sans-Serif" font-size="10.00">SDStorage.cpp</text>
</a>
</g>
</g>
<!-- Node2&#45;&gt;Node3 -->
<g id="edge2_Node000002_Node000003" class="edge">
<title>Node2&#45;&gt;Node3</title>
<g id="a_edge2_Node000002_Node000003"><a xlink:title=" ">
<path fill="none" stroke="#63b8ff" d="M57.89,-45.29C53.77,-36.75 49.16,-27.16 45.85,-20.3"/>
<polygon fill="#63b8ff" stroke="#63b8ff" points="54.7,-46.74 62.19,-54.23 61,-43.7 54.7,-46.74"/>
</a>
</g>
</g>
<!-- Node2&#45;&gt;Node4 -->
<g id="edge3_Node000002_Node000004" class="edge">
<title>Node2&#45;&gt;Node4</title>
<g id="a_edge3_Node000002_Node000004"><a xlink:title=" ">
<path fill="none" stroke="#63b8ff" d="M87.05,-48.4C97.99,-39.17 111.22,-28.01 120.35,-20.3"/>
<polygon fill="#63b8ff" stroke="#63b8ff" points="85.07,-45.49 79.68,-54.62 89.58,-50.84 85.07,-45.49"/>
</a>
</g>
</g>
</g>
</svg>
