<?xml version="1.0" encoding="UTF-8" standalone="no"?>
<!DOCTYPE svg PUBLIC "-//W3C//DTD SVG 1.1//EN"
 "http://www.w3.org/Graphics/SVG/1.1/DTD/svg11.dtd">
<!-- Generated by graphviz version 12.1.2 (20240928.0832)
 -->
<!-- Title: FlashStorage.h Pages: 1 -->
<svg width="496pt" height="252pt"
 viewBox="0.00 0.00 496.12 252.00" xmlns="http://www.w3.org/2000/svg" xmlns:xlink="http://www.w3.org/1999/xlink">

<svg id="main" version="1.1" xmlns="http://www.w3.org/2000/svg" xmlns:xlink="http://www.w3.org/1999/xlink" xml:space="preserve">

<style type="text/css"><![CDATA[
.node, .edge {opacity: 0.7;}
.node.selected, .edge.selected {opacity: 1;}
.edge:hover path { stroke: red; }
.edge:hover polygon { stroke: red; fill: red; }
]]></style>
<script type="application/ecmascript" xlink:href="svg.min.js"/>
<svg id="graph" class="graph">
<g id="graph0" class="graph" transform="scale(1 1) rotate(0) translate(4 248)">
<title>FlashStorage.h</title>
<!-- Node1 -->
<g id="Node000001" class="node">
<title>Node1</title>
<g id="a_Node000001"><a xlink:title=" ">
<polygon fill="#999999" stroke="#666666" points="205.38,-244 123.38,-244 123.38,-224 205.38,-224 205.38,-244"/>
<text text-anchor="middle" x="164.38" y="-230.5" font-family="Helvetica,sans-Serif" font-size="10.00">FlashStorage.h</text>
</a>
</g>
</g>
<!-- Node2 -->
<g id="Node000002" class="node">
<title>Node2</title>
<g id="a_Node000002"><a xlink:title=" ">
<polygon fill="#e0e0e0" stroke="#999999" points="40.75,-188 0,-188 0,-168 40.75,-168 40.75,-188"/>
<text text-anchor="middle" x="20.38" y="-174.5" font-family="Helvetica,sans-Serif" font-size="10.00">SPI.h</text>
</a>
</g>
</g>
<!-- Node1&#45;&gt;Node2 -->
<g id="edge1_Node000001_Node000002" class="edge">
<title>Node1&#45;&gt;Node2</title>
<g id="a_edge1_Node000001_Node000002"><a xlink:title=" ">
<path fill="none" stroke="#63b8ff" d="M139.29,-223.59C114.9,-214.45 77.77,-200.52 51.5,-190.67"/>
<polygon fill="#63b8ff" stroke="#63b8ff" points="52.99,-187.49 42.4,-187.26 50.53,-194.05 52.99,-187.49"/>
</a>
</g>
</g>
<!-- Node3 -->
<g id="Node000003" class="node">
<title>Node3</title>
<g id="a_Node000003"><a xlink:title=" ">
<polygon fill="#e0e0e0" stroke="#999999" points="101.88,-188 58.88,-188 58.88,-168 101.88,-168 101.88,-188"/>
<text text-anchor="middle" x="80.38" y="-174.5" font-family="Helvetica,sans-Serif" font-size="10.00">vector</text>
</a>
</g>
</g>
<!-- Node1&#45;&gt;Node3 -->
<g id="edge2_Node000001_Node000003" class="edge">
<title>Node1&#45;&gt;Node3</title>
<g id="a_edge2_Node000001_Node000003"><a xlink:title=" ">
<path fill="none" stroke="#63b8ff" d="M149.74,-223.59C137.29,-215.59 119.16,-203.93 104.55,-194.54"/>
<polygon fill="#63b8ff" stroke="#63b8ff" points="106.7,-191.76 96.39,-189.3 102.91,-197.65 106.7,-191.76"/>
</a>
</g>
</g>
<!-- Node4 -->
<g id="Node000004" class="node">
<title>Node4</title>
<g id="a_Node000004"><a xlink:href="PayloadConfig_8h.html" target="_top" xlink:title="Central location for pinout and config defines.">
<polygon fill="white" stroke="#666666" points="208.38,-188 120.38,-188 120.38,-168 208.38,-168 208.38,-188"/>
<text text-anchor="middle" x="164.38" y="-174.5" font-family="Helvetica,sans-Serif" font-size="10.00">PayloadConfig.h</text>
</a>
</g>
</g>
<!-- Node1&#45;&gt;Node4 -->
<g id="edge3_Node000001_Node000004" class="edge">
<title>Node1&#45;&gt;Node4</title>
<g id="a_edge3_Node000001_Node000004"><a xlink:title=" ">
<path fill="none" stroke="#63b8ff" d="M164.38,-223.59C164.38,-217.01 164.38,-207.96 164.38,-199.73"/>
<polygon fill="#63b8ff" stroke="#63b8ff" points="167.88,-199.81 164.38,-189.81 160.88,-199.81 167.88,-199.81"/>
</a>
</g>
</g>
<!-- Node5 -->
<g id="Node000005" class="node">
<title>Node5</title>
<g id="a_Node000005"><a xlink:title=" ">
<polygon fill="#e0e0e0" stroke="#999999" points="368.38,-188 226.38,-188 226.38,-168 368.38,-168 368.38,-188"/>
<text text-anchor="middle" x="297.38" y="-174.5" font-family="Helvetica,sans-Serif" font-size="10.00">SparkFun_SPI_SerialFlash.h</text>
</a>
</g>
</g>
<!-- Node1&#45;&gt;Node5 -->
<g id="edge4_Node000001_Node000005" class="edge">
<title>Node1&#45;&gt;Node5</title>
<g id="a_edge4_Node000001_Node000005"><a xlink:title=" ">
<path fill="none" stroke="#63b8ff" d="M187.54,-223.59C208.58,-215.05 239.87,-202.35 263.68,-192.68"/>
<polygon fill="#63b8ff" stroke="#63b8ff" points="264.68,-196.05 272.63,-189.05 262.04,-189.57 264.68,-196.05"/>
</a>
</g>
</g>
<!-- Node6 -->
<g id="Node000006" class="node">
<title>Node6</title>
<g id="a_Node000006"><a xlink:href="Storage_8h.html" target="_top" xlink:title=" ">
<polygon fill="white" stroke="#666666" points="444.38,-188 386.38,-188 386.38,-168 444.38,-168 444.38,-188"/>
<text text-anchor="middle" x="415.38" y="-174.5" font-family="Helvetica,sans-Serif" font-size="10.00">Storage.h</text>
</a>
</g>
</g>
<!-- Node1&#45;&gt;Node6 -->
<g id="edge5_Node000001_Node000006" class="edge">
<title>Node1&#45;&gt;Node6</title>
<g id="a_edge5_Node000001_Node000006"><a xlink:title=" ">
<path fill="none" stroke="#63b8ff" d="M205.67,-224.59C246.28,-216.24 310.32,-202.9 374.75,-188.55"/>
<polygon fill="#63b8ff" stroke="#63b8ff" points="375.46,-191.98 384.46,-186.38 373.93,-185.15 375.46,-191.98"/>
</a>
</g>
</g>
<!-- Node7 -->
<g id="Node000007" class="node">
<title>Node7</title>
<g id="a_Node000007"><a xlink:title=" ">
<polygon fill="#e0e0e0" stroke="#999999" points="435,-20 377.75,-20 377.75,0 435,0 435,-20"/>
<text text-anchor="middle" x="406.38" y="-6.5" font-family="Helvetica,sans-Serif" font-size="10.00">Arduino.h</text>
</a>
</g>
</g>
<!-- Node6&#45;&gt;Node7 -->
<g id="edge6_Node000006_Node000007" class="edge">
<title>Node6&#45;&gt;Node7</title>
<g id="a_edge6_Node000006_Node000007"><a xlink:title=" ">
<path fill="none" stroke="#63b8ff" d="M404.52,-167.53C395.85,-159.18 384.34,-146.16 379.38,-132 367.14,-97.11 383.48,-54.56 395.56,-30.34"/>
<polygon fill="#63b8ff" stroke="#63b8ff" points="398.57,-32.13 400.14,-21.65 392.38,-28.86 398.57,-32.13"/>
</a>
</g>
</g>
<!-- Node8 -->
<g id="Node000008" class="node">
<title>Node8</title>
<g id="a_Node000008"><a xlink:href="Device_8h.html" target="_top" xlink:title=" ">
<polygon fill="white" stroke="#666666" points="442.88,-132 387.88,-132 387.88,-112 442.88,-112 442.88,-132"/>
<text text-anchor="middle" x="415.38" y="-118.5" font-family="Helvetica,sans-Serif" font-size="10.00">Device.h</text>
</a>
</g>
</g>
<!-- Node6&#45;&gt;Node8 -->
<g id="edge7_Node000006_Node000008" class="edge">
<title>Node6&#45;&gt;Node8</title>
<g id="a_edge7_Node000006_Node000008"><a xlink:title=" ">
<path fill="none" stroke="#63b8ff" d="M415.38,-167.59C415.38,-161.01 415.38,-151.96 415.38,-143.73"/>
<polygon fill="#63b8ff" stroke="#63b8ff" points="418.88,-143.81 415.38,-133.81 411.88,-143.81 418.88,-143.81"/>
</a>
</g>
</g>
<!-- Node9 -->
<g id="Node000009" class="node">
<title>Node9</title>
<g id="a_Node000009"><a xlink:href="Logger_8h.html" target="_top" xlink:title=" ">
<polygon fill="white" stroke="#666666" points="488.12,-76 434.62,-76 434.62,-56 488.12,-56 488.12,-76"/>
<text text-anchor="middle" x="461.38" y="-62.5" font-family="Helvetica,sans-Serif" font-size="10.00">Logger.h</text>
</a>
</g>
</g>
<!-- Node6&#45;&gt;Node9 -->
<g id="edge11_Node000006_Node000009" class="edge">
<title>Node6&#45;&gt;Node9</title>
<g id="a_edge11_Node000006_Node000009"><a xlink:title=" ">
<path fill="none" stroke="#63b8ff" d="M425.68,-167.73C434.32,-159.31 446.21,-146.08 452.38,-132 458.54,-117.92 460.71,-100.64 461.38,-87.43"/>
<polygon fill="#63b8ff" stroke="#63b8ff" points="464.87,-87.85 461.61,-77.77 457.87,-87.68 464.87,-87.85"/>
</a>
</g>
</g>
<!-- Node8&#45;&gt;Node7 -->
<g id="edge8_Node000008_Node000007" class="edge">
<title>Node8&#45;&gt;Node7</title>
<g id="a_edge8_Node000008_Node000007"><a xlink:title=" ">
<path fill="none" stroke="#63b8ff" d="M414.61,-111.62C413.17,-94.01 410.02,-55.59 408.06,-31.65"/>
<polygon fill="#63b8ff" stroke="#63b8ff" points="411.57,-31.54 407.26,-21.86 404.59,-32.12 411.57,-31.54"/>
</a>
</g>
</g>
<!-- Node8&#45;&gt;Node9 -->
<g id="edge9_Node000008_Node000009" class="edge">
<title>Node8&#45;&gt;Node9</title>
<g id="a_edge9_Node000008_Node000009"><a xlink:title=" ">
<path fill="none" stroke="#63b8ff" d="M423.39,-111.59C429.65,-104.24 438.55,-93.8 446.16,-84.87"/>
<polygon fill="#63b8ff" stroke="#63b8ff" points="448.65,-87.33 452.47,-77.45 443.32,-82.79 448.65,-87.33"/>
</a>
</g>
</g>
<!-- Node9&#45;&gt;Node7 -->
<g id="edge10_Node000009_Node000007" class="edge">
<title>Node9&#45;&gt;Node7</title>
<g id="a_edge10_Node000009_Node000007"><a xlink:title=" ">
<path fill="none" stroke="#63b8ff" d="M451.79,-55.59C444.14,-48.08 433.22,-37.35 424,-28.3"/>
<polygon fill="#63b8ff" stroke="#63b8ff" points="426.51,-25.87 416.93,-21.36 421.61,-30.86 426.51,-25.87"/>
</a>
</g>
</g>
</g>
</svg>
</svg>

<style type='text/css'>
<![CDATA[
[data-mouse-over-selected='false'] { opacity: 0.7; }
[data-mouse-over-selected='true']  { opacity: 1.0; }
]]>
</style>
<script type="application/ecmascript"><![CDATA[
document.addEventListener('DOMContentLoaded', (event) => {
  highlightEdges();
  highlightAdjacentNodes();
});
]]></script>
</svg>
