<?xml version="1.0" encoding="UTF-8" standalone="no"?>
<!DOCTYPE svg PUBLIC "-//W3C//DTD SVG 1.1//EN"
 "http://www.w3.org/Graphics/SVG/1.1/DTD/svg11.dtd">
<!-- Generated by graphviz version 12.1.2 (20240928.0832)
 -->
<!-- Title: ICM20948Sensor.cpp Pages: 1 -->
<svg width="637pt" height="308pt"
 viewBox="0.00 0.00 636.88 308.00" xmlns="http://www.w3.org/2000/svg" xmlns:xlink="http://www.w3.org/1999/xlink">
<g id="graph0" class="graph" transform="scale(1 1) rotate(0) translate(4 304)">
<title>ICM20948Sensor.cpp</title>
<!-- Node1 -->
<g id="Node000001" class="node">
<title>Node1</title>
<g id="a_Node000001"><a xlink:title=" ">
<polygon fill="#999999" stroke="#666666" points="390.38,-300 279.88,-300 279.88,-280 390.38,-280 390.38,-300"/>
<text text-anchor="middle" x="335.12" y="-286.5" font-family="Helvetica,sans-Serif" font-size="10.00">ICM20948Sensor.cpp</text>
</a>
</g>
</g>
<!-- Node2 -->
<g id="Node000002" class="node">
<title>Node2</title>
<g id="a_Node000002"><a xlink:href="ICM20948Sensor_8h.html" target="_top" xlink:title=" ">
<polygon fill="white" stroke="#666666" points="385.12,-244 285.12,-244 285.12,-224 385.12,-224 385.12,-244"/>
<text text-anchor="middle" x="335.12" y="-230.5" font-family="Helvetica,sans-Serif" font-size="10.00">ICM20948Sensor.h</text>
</a>
</g>
</g>
<!-- Node1&#45;&gt;Node2 -->
<g id="edge1_Node000001_Node000002" class="edge">
<title>Node1&#45;&gt;Node2</title>
<g id="a_edge1_Node000001_Node000002"><a xlink:title=" ">
<path fill="none" stroke="#63b8ff" d="M335.12,-279.59C335.12,-273.01 335.12,-263.96 335.12,-255.73"/>
<polygon fill="#63b8ff" stroke="#63b8ff" points="338.63,-255.81 335.13,-245.81 331.63,-255.81 338.63,-255.81"/>
</a>
</g>
</g>
<!-- Node3 -->
<g id="Node000003" class="node">
<title>Node3</title>
<g id="a_Node000003"><a xlink:title=" ">
<polygon fill="#e0e0e0" stroke="#999999" points="108.25,-188 0,-188 0,-168 108.25,-168 108.25,-188"/>
<text text-anchor="middle" x="54.12" y="-174.5" font-family="Helvetica,sans-Serif" font-size="10.00">Adafruit_ICM20948.h</text>
</a>
</g>
</g>
<!-- Node2&#45;&gt;Node3 -->
<g id="edge2_Node000002_Node000003" class="edge">
<title>Node2&#45;&gt;Node3</title>
<g id="a_edge2_Node000002_Node000003"><a xlink:title=" ">
<path fill="none" stroke="#63b8ff" d="M285.86,-223.53C238.15,-214.36 165.73,-200.45 114.56,-190.61"/>
<polygon fill="#63b8ff" stroke="#63b8ff" points="115.3,-187.19 104.82,-188.74 113.98,-194.07 115.3,-187.19"/>
</a>
</g>
</g>
<!-- Node4 -->
<g id="Node000004" class="node">
<title>Node4</title>
<g id="a_Node000004"><a xlink:title=" ">
<polygon fill="#e0e0e0" stroke="#999999" points="225.75,-188 126.5,-188 126.5,-168 225.75,-168 225.75,-188"/>
<text text-anchor="middle" x="176.12" y="-174.5" font-family="Helvetica,sans-Serif" font-size="10.00">Adafruit_ICM20X.h</text>
</a>
</g>
</g>
<!-- Node2&#45;&gt;Node4 -->
<g id="edge3_Node000002_Node000004" class="edge">
<title>Node2&#45;&gt;Node4</title>
<g id="a_edge3_Node000002_Node000004"><a xlink:title=" ">
<path fill="none" stroke="#63b8ff" d="M307.43,-223.59C281.82,-214.9 243.52,-201.89 214.88,-192.16"/>
<polygon fill="#63b8ff" stroke="#63b8ff" points="216.06,-188.87 205.47,-188.97 213.81,-195.5 216.06,-188.87"/>
</a>
</g>
</g>
<!-- Node5 -->
<g id="Node000005" class="node">
<title>Node5</title>
<g id="a_Node000005"><a xlink:title=" ">
<polygon fill="#e0e0e0" stroke="#999999" points="338.12,-188 244.12,-188 244.12,-168 338.12,-168 338.12,-188"/>
<text text-anchor="middle" x="291.12" y="-174.5" font-family="Helvetica,sans-Serif" font-size="10.00">Adafruit_Sensor.h</text>
</a>
</g>
</g>
<!-- Node2&#45;&gt;Node5 -->
<g id="edge4_Node000002_Node000005" class="edge">
<title>Node2&#45;&gt;Node5</title>
<g id="a_edge4_Node000002_Node000005"><a xlink:title=" ">
<path fill="none" stroke="#63b8ff" d="M327.46,-223.59C321.53,-216.32 313.14,-206.02 305.91,-197.15"/>
<polygon fill="#63b8ff" stroke="#63b8ff" points="308.69,-195.01 299.66,-189.47 303.26,-199.43 308.69,-195.01"/>
</a>
</g>
</g>
<!-- Node6 -->
<g id="Node000006" class="node">
<title>Node6</title>
<g id="a_Node000006"><a xlink:title=" ">
<polygon fill="#e0e0e0" stroke="#999999" points="404.25,-188 356,-188 356,-168 404.25,-168 404.25,-188"/>
<text text-anchor="middle" x="380.12" y="-174.5" font-family="Helvetica,sans-Serif" font-size="10.00">string.h</text>
</a>
</g>
</g>
<!-- Node2&#45;&gt;Node6 -->
<g id="edge5_Node000002_Node000006" class="edge">
<title>Node2&#45;&gt;Node6</title>
<g id="a_edge5_Node000002_Node000006"><a xlink:title=" ">
<path fill="none" stroke="#63b8ff" d="M342.96,-223.59C349.09,-216.24 357.8,-205.8 365.24,-196.87"/>
<polygon fill="#63b8ff" stroke="#63b8ff" points="367.69,-199.38 371.41,-189.46 362.32,-194.9 367.69,-199.38"/>
</a>
</g>
</g>
<!-- Node7 -->
<g id="Node000007" class="node">
<title>Node7</title>
<g id="a_Node000007"><a xlink:href="PayloadConfig_8h.html" target="_top" xlink:title="Central location for pinout and config defines.">
<polygon fill="white" stroke="#666666" points="510.12,-188 422.12,-188 422.12,-168 510.12,-168 510.12,-188"/>
<text text-anchor="middle" x="466.12" y="-174.5" font-family="Helvetica,sans-Serif" font-size="10.00">PayloadConfig.h</text>
</a>
</g>
</g>
<!-- Node2&#45;&gt;Node7 -->
<g id="edge6_Node000002_Node000007" class="edge">
<title>Node2&#45;&gt;Node7</title>
<g id="a_edge6_Node000002_Node000007"><a xlink:title=" ">
<path fill="none" stroke="#63b8ff" d="M357.94,-223.59C378.57,-215.09 409.21,-202.46 432.62,-192.81"/>
<polygon fill="#63b8ff" stroke="#63b8ff" points="433.82,-196.1 441.73,-189.06 431.15,-189.63 433.82,-196.1"/>
</a>
</g>
</g>
<!-- Node8 -->
<g id="Node000008" class="node">
<title>Node8</title>
<g id="a_Node000008"><a xlink:href="Sensor_8h.html" target="_top" xlink:title=" ">
<polygon fill="white" stroke="#666666" points="583.62,-188 528.62,-188 528.62,-168 583.62,-168 583.62,-188"/>
<text text-anchor="middle" x="556.12" y="-174.5" font-family="Helvetica,sans-Serif" font-size="10.00">Sensor.h</text>
</a>
</g>
</g>
<!-- Node2&#45;&gt;Node8 -->
<g id="edge7_Node000002_Node000008" class="edge">
<title>Node2&#45;&gt;Node8</title>
<g id="a_edge7_Node000002_Node000008"><a xlink:title=" ">
<path fill="none" stroke="#63b8ff" d="M373.87,-223.53C414.18,-213.68 476.94,-198.35 517.28,-188.49"/>
<polygon fill="#63b8ff" stroke="#63b8ff" points="517.93,-191.94 526.81,-186.16 516.26,-185.14 517.93,-191.94"/>
</a>
</g>
</g>
<!-- Node9 -->
<g id="Node000009" class="node">
<title>Node9</title>
<g id="a_Node000009"><a xlink:title=" ">
<polygon fill="#e0e0e0" stroke="#999999" points="575.75,-20 518.5,-20 518.5,0 575.75,0 575.75,-20"/>
<text text-anchor="middle" x="547.12" y="-6.5" font-family="Helvetica,sans-Serif" font-size="10.00">Arduino.h</text>
</a>
</g>
</g>
<!-- Node8&#45;&gt;Node9 -->
<g id="edge8_Node000008_Node000009" class="edge">
<title>Node8&#45;&gt;Node9</title>
<g id="a_edge8_Node000008_Node000009"><a xlink:title=" ">
<path fill="none" stroke="#63b8ff" d="M545.27,-167.53C536.6,-159.18 525.09,-146.16 520.12,-132 507.89,-97.11 524.23,-54.56 536.31,-30.34"/>
<polygon fill="#63b8ff" stroke="#63b8ff" points="539.32,-32.13 540.89,-21.65 533.13,-28.86 539.32,-32.13"/>
</a>
</g>
</g>
<!-- Node10 -->
<g id="Node000010" class="node">
<title>Node10</title>
<g id="a_Node000010"><a xlink:href="Device_8h.html" target="_top" xlink:title=" ">
<polygon fill="white" stroke="#666666" points="583.62,-132 528.62,-132 528.62,-112 583.62,-112 583.62,-132"/>
<text text-anchor="middle" x="556.12" y="-118.5" font-family="Helvetica,sans-Serif" font-size="10.00">Device.h</text>
</a>
</g>
</g>
<!-- Node8&#45;&gt;Node10 -->
<g id="edge9_Node000008_Node000010" class="edge">
<title>Node8&#45;&gt;Node10</title>
<g id="a_edge9_Node000008_Node000010"><a xlink:title=" ">
<path fill="none" stroke="#63b8ff" d="M556.12,-167.59C556.12,-161.01 556.12,-151.96 556.12,-143.73"/>
<polygon fill="#63b8ff" stroke="#63b8ff" points="559.63,-143.81 556.13,-133.81 552.63,-143.81 559.63,-143.81"/>
</a>
</g>
</g>
<!-- Node11 -->
<g id="Node000011" class="node">
<title>Node11</title>
<g id="a_Node000011"><a xlink:href="Logger_8h.html" target="_top" xlink:title=" ">
<polygon fill="white" stroke="#666666" points="628.88,-76 575.38,-76 575.38,-56 628.88,-56 628.88,-76"/>
<text text-anchor="middle" x="602.12" y="-62.5" font-family="Helvetica,sans-Serif" font-size="10.00">Logger.h</text>
</a>
</g>
</g>
<!-- Node8&#45;&gt;Node11 -->
<g id="edge13_Node000008_Node000011" class="edge">
<title>Node8&#45;&gt;Node11</title>
<g id="a_edge13_Node000008_Node000011"><a xlink:title=" ">
<path fill="none" stroke="#63b8ff" d="M566.43,-167.73C575.07,-159.31 586.96,-146.08 593.12,-132 599.29,-117.92 601.46,-100.64 602.13,-87.43"/>
<polygon fill="#63b8ff" stroke="#63b8ff" points="605.62,-87.85 602.36,-77.77 598.62,-87.68 605.62,-87.85"/>
</a>
</g>
</g>
<!-- Node10&#45;&gt;Node9 -->
<g id="edge10_Node000010_Node000009" class="edge">
<title>Node10&#45;&gt;Node9</title>
<g id="a_edge10_Node000010_Node000009"><a xlink:title=" ">
<path fill="none" stroke="#63b8ff" d="M555.36,-111.62C553.92,-94.01 550.77,-55.59 548.81,-31.65"/>
<polygon fill="#63b8ff" stroke="#63b8ff" points="552.32,-31.54 548.01,-21.86 545.34,-32.12 552.32,-31.54"/>
</a>
</g>
</g>
<!-- Node10&#45;&gt;Node11 -->
<g id="edge11_Node000010_Node000011" class="edge">
<title>Node10&#45;&gt;Node11</title>
<g id="a_edge11_Node000010_Node000011"><a xlink:title=" ">
<path fill="none" stroke="#63b8ff" d="M564.14,-111.59C570.4,-104.24 579.3,-93.8 586.91,-84.87"/>
<polygon fill="#63b8ff" stroke="#63b8ff" points="589.4,-87.33 593.22,-77.45 584.07,-82.79 589.4,-87.33"/>
</a>
</g>
</g>
<!-- Node11&#45;&gt;Node9 -->
<g id="edge12_Node000011_Node000009" class="edge">
<title>Node11&#45;&gt;Node9</title>
<g id="a_edge12_Node000011_Node000009"><a xlink:title=" ">
<path fill="none" stroke="#63b8ff" d="M592.54,-55.59C584.89,-48.08 573.97,-37.35 564.75,-28.3"/>
<polygon fill="#63b8ff" stroke="#63b8ff" points="567.26,-25.87 557.68,-21.36 562.36,-30.86 567.26,-25.87"/>
</a>
</g>
</g>
</g>
</svg>
