<?xml version="1.0" encoding="UTF-8" standalone="no"?>
<!DOCTYPE svg PUBLIC "-//W3C//DTD SVG 1.1//EN"
 "http://www.w3.org/Graphics/SVG/1.1/DTD/svg11.dtd">
<!-- Generated by graphviz version 12.1.2 (20240928.0832)
 -->
<!-- Title: INA260Sensor.h Pages: 1 -->
<svg width="264pt" height="252pt"
 viewBox="0.00 0.00 263.81 252.00" xmlns="http://www.w3.org/2000/svg" xmlns:xlink="http://www.w3.org/1999/xlink">

<svg id="main" version="1.1" xmlns="http://www.w3.org/2000/svg" xmlns:xlink="http://www.w3.org/1999/xlink" xml:space="preserve">

<style type="text/css"><![CDATA[
.node, .edge {opacity: 0.7;}
.node.selected, .edge.selected {opacity: 1;}
.edge:hover path { stroke: red; }
.edge:hover polygon { stroke: red; fill: red; }
]]></style>
<script type="application/ecmascript" xlink:href="svg.min.js"/>
<svg id="graph" class="graph">
<g id="graph0" class="graph" transform="scale(1 1) rotate(0) translate(4 248)">
<title>INA260Sensor.h</title>
<!-- Node1 -->
<g id="Node000001" class="node">
<title>Node1</title>
<g id="a_Node000001"><a xlink:title=" ">
<polygon fill="#999999" stroke="#666666" points="125.06,-244 37.06,-244 37.06,-224 125.06,-224 125.06,-244"/>
<text text-anchor="middle" x="81.06" y="-230.5" font-family="Helvetica,sans-Serif" font-size="10.00">INA260Sensor.h</text>
</a>
</g>
</g>
<!-- Node2 -->
<g id="Node000002" class="node">
<title>Node2</title>
<g id="a_Node000002"><a xlink:title=" ">
<polygon fill="#e0e0e0" stroke="#999999" points="183.68,-20 126.43,-20 126.43,0 183.68,0 183.68,-20"/>
<text text-anchor="middle" x="155.06" y="-6.5" font-family="Helvetica,sans-Serif" font-size="10.00">Arduino.h</text>
</a>
</g>
</g>
<!-- Node1&#45;&gt;Node2 -->
<g id="edge1_Node000001_Node000002" class="edge">
<title>Node1&#45;&gt;Node2</title>
<g id="a_edge1_Node000001_Node000002"><a xlink:title=" ">
<path fill="none" stroke="#63b8ff" d="M49.96,-223.66C32.87,-216.75 13.14,-205.46 3.06,-188 -1.39,-180.3 -0.28,-176.24 3.06,-168 28.95,-104.03 94.79,-51.7 130.73,-26.77"/>
<polygon fill="#63b8ff" stroke="#63b8ff" points="132.45,-29.83 138.77,-21.32 128.52,-24.04 132.45,-29.83"/>
</a>
</g>
</g>
<!-- Node3 -->
<g id="Node000003" class="node">
<title>Node3</title>
<g id="a_Node000003"><a xlink:title=" ">
<polygon fill="#e0e0e0" stroke="#999999" points="60.18,-188 11.93,-188 11.93,-168 60.18,-168 60.18,-188"/>
<text text-anchor="middle" x="36.06" y="-174.5" font-family="Helvetica,sans-Serif" font-size="10.00">string.h</text>
</a>
</g>
</g>
<!-- Node1&#45;&gt;Node3 -->
<g id="edge2_Node000001_Node000003" class="edge">
<title>Node1&#45;&gt;Node3</title>
<g id="a_edge2_Node000001_Node000003"><a xlink:title=" ">
<path fill="none" stroke="#63b8ff" d="M73.22,-223.59C67.09,-216.24 58.39,-205.8 50.94,-196.87"/>
<polygon fill="#63b8ff" stroke="#63b8ff" points="53.86,-194.9 44.77,-189.46 48.49,-199.38 53.86,-194.9"/>
</a>
</g>
</g>
<!-- Node4 -->
<g id="Node000004" class="node">
<title>Node4</title>
<g id="a_Node000004"><a xlink:title=" ">
<polygon fill="#e0e0e0" stroke="#999999" points="174.18,-188 77.93,-188 77.93,-168 174.18,-168 174.18,-188"/>
<text text-anchor="middle" x="126.06" y="-174.5" font-family="Helvetica,sans-Serif" font-size="10.00">Adafruit_INA260.h</text>
</a>
</g>
</g>
<!-- Node1&#45;&gt;Node4 -->
<g id="edge3_Node000001_Node000004" class="edge">
<title>Node1&#45;&gt;Node4</title>
<g id="a_edge3_Node000001_Node000004"><a xlink:title=" ">
<path fill="none" stroke="#63b8ff" d="M88.9,-223.59C95.03,-216.24 103.73,-205.8 111.17,-196.87"/>
<polygon fill="#63b8ff" stroke="#63b8ff" points="113.63,-199.38 117.34,-189.46 108.25,-194.9 113.63,-199.38"/>
</a>
</g>
</g>
<!-- Node5 -->
<g id="Node000005" class="node">
<title>Node5</title>
<g id="a_Node000005"><a xlink:href="Sensor_8h.html" target="_top" xlink:title=" ">
<polygon fill="white" stroke="#666666" points="247.56,-188 192.56,-188 192.56,-168 247.56,-168 247.56,-188"/>
<text text-anchor="middle" x="220.06" y="-174.5" font-family="Helvetica,sans-Serif" font-size="10.00">Sensor.h</text>
</a>
</g>
</g>
<!-- Node1&#45;&gt;Node5 -->
<g id="edge4_Node000001_Node000005" class="edge">
<title>Node1&#45;&gt;Node5</title>
<g id="a_edge4_Node000001_Node000005"><a xlink:title=" ">
<path fill="none" stroke="#63b8ff" d="M105.27,-223.59C127.36,-215.01 160.25,-202.23 185.18,-192.55"/>
<polygon fill="#63b8ff" stroke="#63b8ff" points="186.19,-195.91 194.24,-189.03 183.66,-189.39 186.19,-195.91"/>
</a>
</g>
</g>
<!-- Node5&#45;&gt;Node2 -->
<g id="edge5_Node000005_Node000002" class="edge">
<title>Node5&#45;&gt;Node2</title>
<g id="a_edge5_Node000005_Node000002"><a xlink:title=" ">
<path fill="none" stroke="#63b8ff" d="M197.03,-167.55C182.42,-160.21 164.7,-148.48 156.06,-132 139.36,-100.17 144.53,-56.84 149.8,-31.6"/>
<polygon fill="#63b8ff" stroke="#63b8ff" points="153.19,-32.5 152.04,-21.97 146.37,-30.92 153.19,-32.5"/>
</a>
</g>
</g>
<!-- Node6 -->
<g id="Node000006" class="node">
<title>Node6</title>
<g id="a_Node000006"><a xlink:href="Device_8h.html" target="_top" xlink:title=" ">
<polygon fill="white" stroke="#666666" points="219.56,-132 164.56,-132 164.56,-112 219.56,-112 219.56,-132"/>
<text text-anchor="middle" x="192.06" y="-118.5" font-family="Helvetica,sans-Serif" font-size="10.00">Device.h</text>
</a>
</g>
</g>
<!-- Node5&#45;&gt;Node6 -->
<g id="edge6_Node000005_Node000006" class="edge">
<title>Node5&#45;&gt;Node6</title>
<g id="a_edge6_Node000005_Node000006"><a xlink:title=" ">
<path fill="none" stroke="#63b8ff" d="M215.18,-167.59C211.57,-160.63 206.52,-150.89 202.06,-142.29"/>
<polygon fill="#63b8ff" stroke="#63b8ff" points="205.29,-140.91 197.57,-133.64 199.07,-144.13 205.29,-140.91"/>
</a>
</g>
</g>
<!-- Node7 -->
<g id="Node000007" class="node">
<title>Node7</title>
<g id="a_Node000007"><a xlink:href="Logger_8h.html" target="_top" xlink:title=" ">
<polygon fill="white" stroke="#666666" points="255.81,-76 202.31,-76 202.31,-56 255.81,-56 255.81,-76"/>
<text text-anchor="middle" x="229.06" y="-62.5" font-family="Helvetica,sans-Serif" font-size="10.00">Logger.h</text>
</a>
</g>
</g>
<!-- Node5&#45;&gt;Node7 -->
<g id="edge10_Node000005_Node000007" class="edge">
<title>Node5&#45;&gt;Node7</title>
<g id="a_edge10_Node000005_Node000007"><a xlink:title=" ">
<path fill="none" stroke="#63b8ff" d="M222.46,-167.77C224.68,-158.73 227.82,-144.53 229.06,-132 230.52,-117.18 230.48,-100.36 230.09,-87.54"/>
<polygon fill="#63b8ff" stroke="#63b8ff" points="233.6,-87.65 229.69,-77.8 226.6,-87.93 233.6,-87.65"/>
</a>
</g>
</g>
<!-- Node6&#45;&gt;Node2 -->
<g id="edge7_Node000006_Node000002" class="edge">
<title>Node6&#45;&gt;Node2</title>
<g id="a_edge7_Node000006_Node000002"><a xlink:title=" ">
<path fill="none" stroke="#63b8ff" d="M188.9,-111.62C182.92,-93.84 169.82,-54.88 161.78,-31"/>
<polygon fill="#63b8ff" stroke="#63b8ff" points="165.19,-30.15 158.69,-21.79 158.56,-32.38 165.19,-30.15"/>
</a>
</g>
</g>
<!-- Node6&#45;&gt;Node7 -->
<g id="edge8_Node000006_Node000007" class="edge">
<title>Node6&#45;&gt;Node7</title>
<g id="a_edge8_Node000006_Node000007"><a xlink:title=" ">
<path fill="none" stroke="#63b8ff" d="M198.5,-111.59C203.38,-104.47 210.25,-94.45 216.23,-85.72"/>
<polygon fill="#63b8ff" stroke="#63b8ff" points="219.06,-87.77 221.83,-77.55 213.29,-83.82 219.06,-87.77"/>
</a>
</g>
</g>
<!-- Node7&#45;&gt;Node2 -->
<g id="edge9_Node000007_Node000002" class="edge">
<title>Node7&#45;&gt;Node2</title>
<g id="a_edge9_Node000007_Node000002"><a xlink:title=" ">
<path fill="none" stroke="#63b8ff" d="M216.17,-55.59C205.34,-47.7 189.64,-36.24 176.87,-26.92"/>
<polygon fill="#63b8ff" stroke="#63b8ff" points="179.16,-24.26 169.02,-21.19 175.04,-29.91 179.16,-24.26"/>
</a>
</g>
</g>
</g>
</svg>
</svg>

<style type='text/css'>
<![CDATA[
[data-mouse-over-selected='false'] { opacity: 0.7; }
[data-mouse-over-selected='true']  { opacity: 1.0; }
]]>
</style>
<script type="application/ecmascript"><![CDATA[
document.addEventListener('DOMContentLoaded', (event) => {
  highlightEdges();
  highlightAdjacentNodes();
});
]]></script>
</svg>
