<?xml version="1.0" encoding="UTF-8" standalone="no"?>
<!DOCTYPE svg PUBLIC "-//W3C//DTD SVG 1.1//EN"
 "http://www.w3.org/Graphics/SVG/1.1/DTD/svg11.dtd">
<!-- Generated by graphviz version 2.43.0 (0)
 -->
<!-- Title: Graphical Class Hierarchy Pages: 1 -->
<svg width="282pt" height="508pt"
 viewBox="0.00 0.00 282.00 508.00" xmlns="http://www.w3.org/2000/svg" xmlns:xlink="http://www.w3.org/1999/xlink">
<g id="graph0" class="graph" transform="scale(1 1) rotate(0) translate(4 504)">
<title>Graphical Class Hierarchy</title>
<!-- Node0 -->
<g id="Node000000" class="node">
<title>Node0</title>
<g id="a_Node000000"><a xlink:href="classDevice.html" target="_top" xlink:title="Implements the recovery system for Sensor and Storage objects.">
<polygon fill="white" stroke="#666666" points="50,-167 0,-167 0,-148 50,-148 50,-167"/>
<text text-anchor="middle" x="25" y="-155" font-family="Helvetica,sans-Serif" font-size="10.00">Device</text>
</a>
</g>
</g>
<!-- Node1 -->
<g id="Node000001" class="node">
<title>Node1</title>
<g id="a_Node000001"><a xlink:href="classSensor.html" target="_top" xlink:title="Parent class for sensor objects.">
<polygon fill="white" stroke="#666666" points="138,-296 88,-296 88,-277 138,-277 138,-296"/>
<text text-anchor="middle" x="113" y="-284" font-family="Helvetica,sans-Serif" font-size="10.00">Sensor</text>
</a>
</g>
</g>
<!-- Node0&#45;&gt;Node1 -->
<g id="edge1_Node000000_Node000001" class="edge">
<title>Node0&#45;&gt;Node1</title>
<g id="a_edge1_Node000000_Node000001"><a xlink:title=" ">
<path fill="none" stroke="#63b8ff" d="M38.04,-175.57C56.48,-203.22 91.07,-255.11 105.46,-276.69"/>
<polygon fill="#63b8ff" stroke="#63b8ff" points="40.92,-173.58 32.46,-167.2 35.1,-177.46 40.92,-173.58"/>
</a>
</g>
</g>
<!-- Node13 -->
<g id="Node000013" class="node">
<title>Node13</title>
<g id="a_Node000013"><a xlink:href="classStorage.html" target="_top" xlink:title="Parent class for all data storage devices (sd card, radio, etc)">
<polygon fill="white" stroke="#666666" points="140,-75 86,-75 86,-56 140,-56 140,-75"/>
<text text-anchor="middle" x="113" y="-63" font-family="Helvetica,sans-Serif" font-size="10.00">Storage</text>
</a>
</g>
</g>
<!-- Node0&#45;&gt;Node13 -->
<g id="edge13_Node000000_Node000013" class="edge">
<title>Node0&#45;&gt;Node13</title>
<g id="a_edge13_Node000000_Node000013"><a xlink:title=" ">
<path fill="none" stroke="#63b8ff" d="M42.19,-140.18C60.12,-121 88.42,-90.72 102.86,-75.27"/>
<polygon fill="#63b8ff" stroke="#63b8ff" points="39.48,-137.96 35.2,-147.65 44.59,-142.74 39.48,-137.96"/>
</a>
</g>
</g>
<!-- Node2 -->
<g id="Node000002" class="node">
<title>Node2</title>
<g id="a_Node000002"><a xlink:href="classAS7331Sensor.html" target="_top" xlink:title="Implementation of a Sensor for UVA/B/C sensor.">
<polygon fill="white" stroke="#666666" points="268,-500 182,-500 182,-481 268,-481 268,-500"/>
<text text-anchor="middle" x="225" y="-488" font-family="Helvetica,sans-Serif" font-size="10.00">AS7331Sensor</text>
</a>
</g>
</g>
<!-- Node1&#45;&gt;Node2 -->
<g id="edge2_Node000001_Node000002" class="edge">
<title>Node1&#45;&gt;Node2</title>
<g id="a_edge2_Node000001_Node000002"><a xlink:title=" ">
<path fill="none" stroke="#63b8ff" d="M115.13,-306.14C118.32,-343.47 130.41,-425.19 176,-472.5 179.21,-475.83 183.1,-478.55 187.25,-480.77"/>
<polygon fill="#63b8ff" stroke="#63b8ff" points="118.62,-305.78 114.4,-296.06 111.63,-306.29 118.62,-305.78"/>
</a>
</g>
</g>
<!-- Node3 -->
<g id="Node000003" class="node">
<title>Node3</title>
<g id="a_Node000003"><a xlink:href="classBMP390Sensor.html" target="_top" xlink:title="Implementation of a Sensor for BMP384 Pressure and Temperature sensor.">
<polygon fill="white" stroke="#666666" points="269.5,-463 180.5,-463 180.5,-444 269.5,-444 269.5,-463"/>
<text text-anchor="middle" x="225" y="-451" font-family="Helvetica,sans-Serif" font-size="10.00">BMP390Sensor</text>
</a>
</g>
</g>
<!-- Node1&#45;&gt;Node3 -->
<g id="edge3_Node000001_Node000003" class="edge">
<title>Node1&#45;&gt;Node3</title>
<g id="a_edge3_Node000001_Node000003"><a xlink:title=" ">
<path fill="none" stroke="#63b8ff" d="M117.12,-306.55C123.04,-338.15 138.83,-399.63 176,-435.5 179.46,-438.84 183.59,-441.57 187.97,-443.8"/>
<polygon fill="#63b8ff" stroke="#63b8ff" points="120.51,-305.62 115.36,-296.36 113.61,-306.81 120.51,-305.62"/>
</a>
</g>
</g>
<!-- Node4 -->
<g id="Node000004" class="node">
<title>Node4</title>
<g id="a_Node000004"><a xlink:href="classENS160Sensor.html" target="_top" xlink:title="Implementation of a Sensor for the ENS160.">
<polygon fill="white" stroke="#666666" points="268.5,-426 181.5,-426 181.5,-407 268.5,-407 268.5,-426"/>
<text text-anchor="middle" x="225" y="-414" font-family="Helvetica,sans-Serif" font-size="10.00">ENS160Sensor</text>
</a>
</g>
</g>
<!-- Node1&#45;&gt;Node4 -->
<g id="edge4_Node000001_Node000004" class="edge">
<title>Node1&#45;&gt;Node4</title>
<g id="a_edge4_Node000001_Node000004"><a xlink:title=" ">
<path fill="none" stroke="#63b8ff" d="M119.96,-305.74C128.56,-330.47 146.69,-373.2 176,-398.5 179.91,-401.87 184.51,-404.64 189.29,-406.91"/>
<polygon fill="#63b8ff" stroke="#63b8ff" points="123.23,-304.46 116.77,-296.06 116.58,-306.66 123.23,-304.46"/>
</a>
</g>
</g>
<!-- Node5 -->
<g id="Node000005" class="node">
<title>Node5</title>
<g id="a_Node000005"><a xlink:href="classICM20948Sensor.html" target="_top" xlink:title="Implementation of the Sensor class for the Adafruit ICM20948 (9&#45;axis IMU)">
<polygon fill="white" stroke="#666666" points="274,-389 176,-389 176,-370 274,-370 274,-389"/>
<text text-anchor="middle" x="225" y="-377" font-family="Helvetica,sans-Serif" font-size="10.00">ICM20948Sensor</text>
</a>
</g>
</g>
<!-- Node1&#45;&gt;Node5 -->
<g id="edge5_Node000001_Node000005" class="edge">
<title>Node1&#45;&gt;Node5</title>
<g id="a_edge5_Node000001_Node000005"><a xlink:title=" ">
<path fill="none" stroke="#63b8ff" d="M125.28,-305.05C136.33,-321.86 154.61,-346.25 176,-361.5 180.64,-364.81 185.96,-367.59 191.33,-369.89"/>
<polygon fill="#63b8ff" stroke="#63b8ff" points="127.95,-302.73 119.63,-296.16 122.04,-306.48 127.95,-302.73"/>
</a>
</g>
</g>
<!-- Node6 -->
<g id="Node000006" class="node">
<title>Node6</title>
<g id="a_Node000006"><a xlink:href="classINA260Sensor.html" target="_top" xlink:title="A class to interface with the Adafruit INA260 sensor for current, voltage, and power measurements.">
<polygon fill="white" stroke="#666666" points="267.5,-352 182.5,-352 182.5,-333 267.5,-333 267.5,-352"/>
<text text-anchor="middle" x="225" y="-340" font-family="Helvetica,sans-Serif" font-size="10.00">INA260Sensor</text>
</a>
</g>
</g>
<!-- Node1&#45;&gt;Node6 -->
<g id="edge6_Node000001_Node000006" class="edge">
<title>Node1&#45;&gt;Node6</title>
<g id="a_edge6_Node000001_Node000006"><a xlink:title=" ">
<path fill="none" stroke="#63b8ff" d="M136.39,-301.66C147.93,-309.1 162.39,-317.86 176,-324.5 182.24,-327.55 189.13,-330.41 195.7,-332.91"/>
<polygon fill="#63b8ff" stroke="#63b8ff" points="138.13,-298.61 127.85,-296.05 134.28,-304.46 138.13,-298.61"/>
</a>
</g>
</g>
<!-- Node7 -->
<g id="Node000007" class="node">
<title>Node7</title>
<g id="a_Node000007"><a xlink:href="classMTK3339Sensor.html" target="_top" xlink:title="Implementation of the Adafruit MTK3339 GPS sensor.">
<polygon fill="white" stroke="#666666" points="272.5,-315 177.5,-315 177.5,-296 272.5,-296 272.5,-315"/>
<text text-anchor="middle" x="225" y="-303" font-family="Helvetica,sans-Serif" font-size="10.00">MTK3339Sensor</text>
</a>
</g>
</g>
<!-- Node1&#45;&gt;Node7 -->
<g id="edge7_Node000001_Node000007" class="edge">
<title>Node1&#45;&gt;Node7</title>
<g id="a_edge7_Node000001_Node000007"><a xlink:title=" ">
<path fill="none" stroke="#63b8ff" d="M148.11,-292.39C157.35,-293.99 167.52,-295.74 177.32,-297.44"/>
<polygon fill="#63b8ff" stroke="#63b8ff" points="148.59,-288.92 138.14,-290.67 147.4,-295.82 148.59,-288.92"/>
</a>
</g>
</g>
<!-- Node8 -->
<g id="Node000008" class="node">
<title>Node8</title>
<g id="a_Node000008"><a xlink:href="classOzoneSensor.html" target="_top" xlink:title="Implementation of a Sensor for the onboard temperature sensor.">
<polygon fill="white" stroke="#666666" points="265,-278 185,-278 185,-259 265,-259 265,-278"/>
<text text-anchor="middle" x="225" y="-266" font-family="Helvetica,sans-Serif" font-size="10.00">OzoneSensor</text>
</a>
</g>
</g>
<!-- Node1&#45;&gt;Node8 -->
<g id="edge8_Node000001_Node000008" class="edge">
<title>Node1&#45;&gt;Node8</title>
<g id="a_edge8_Node000001_Node000008"><a xlink:title=" ">
<path fill="none" stroke="#63b8ff" d="M148.29,-280.89C159.86,-279 172.87,-276.87 184.79,-274.92"/>
<polygon fill="#63b8ff" stroke="#63b8ff" points="147.44,-277.48 138.14,-282.55 148.57,-284.39 147.44,-277.48"/>
</a>
</g>
</g>
<!-- Node9 -->
<g id="Node000009" class="node">
<title>Node9</title>
<g id="a_Node000009"><a xlink:href="classPCF8523Sensor.html" target="_top" xlink:title="Implementation of the PCF8523 sensor.">
<polygon fill="white" stroke="#666666" points="271,-241 179,-241 179,-222 271,-222 271,-241"/>
<text text-anchor="middle" x="225" y="-229" font-family="Helvetica,sans-Serif" font-size="10.00">PCF8523Sensor</text>
</a>
</g>
</g>
<!-- Node1&#45;&gt;Node9 -->
<g id="edge9_Node000001_Node000009" class="edge">
<title>Node1&#45;&gt;Node9</title>
<g id="a_edge9_Node000001_Node000009"><a xlink:title=" ">
<path fill="none" stroke="#63b8ff" d="M137.8,-271.56C149.15,-264.73 163.05,-256.78 176,-250.5 182.94,-247.14 190.63,-243.89 197.79,-241.06"/>
<polygon fill="#63b8ff" stroke="#63b8ff" points="135.65,-268.77 128.94,-276.98 139.3,-274.75 135.65,-268.77"/>
</a>
</g>
</g>
<!-- Node10 -->
<g id="Node000010" class="node">
<title>Node10</title>
<g id="a_Node000010"><a xlink:href="classSHTC3Sensor.html" target="_top" xlink:title="Implementation of a Sensor for the SHTC3.">
<polygon fill="white" stroke="#666666" points="265.5,-204 184.5,-204 184.5,-185 265.5,-185 265.5,-204"/>
<text text-anchor="middle" x="225" y="-192" font-family="Helvetica,sans-Serif" font-size="10.00">SHTC3Sensor</text>
</a>
</g>
</g>
<!-- Node1&#45;&gt;Node10 -->
<g id="edge10_Node000001_Node000010" class="edge">
<title>Node1&#45;&gt;Node10</title>
<g id="a_edge10_Node000001_Node000010"><a xlink:title=" ">
<path fill="none" stroke="#63b8ff" d="M125.81,-268.01C137.02,-251.75 155.21,-228.4 176,-213.5 181.25,-209.74 187.34,-206.59 193.38,-204.01"/>
<polygon fill="#63b8ff" stroke="#63b8ff" points="122.69,-266.39 120.05,-276.65 128.51,-270.27 122.69,-266.39"/>
</a>
</g>
</g>
<!-- Node11 -->
<g id="Node000011" class="node">
<title>Node11</title>
<g id="a_Node000011"><a xlink:href="classTMP11xSensor.html" target="_top" xlink:title="Implementation of a Sensor for the TMP117.">
<polygon fill="white" stroke="#666666" points="269.5,-167 180.5,-167 180.5,-148 269.5,-148 269.5,-167"/>
<text text-anchor="middle" x="225" y="-155" font-family="Helvetica,sans-Serif" font-size="10.00">TMP11xSensor</text>
</a>
</g>
</g>
<!-- Node1&#45;&gt;Node11 -->
<g id="edge11_Node000001_Node000011" class="edge">
<title>Node1&#45;&gt;Node11</title>
<g id="a_edge11_Node000001_Node000011"><a xlink:title=" ">
<path fill="none" stroke="#63b8ff" d="M120.26,-267.32C129.08,-243.07 147.36,-201.48 176,-176.5 180.32,-172.73 185.48,-169.66 190.79,-167.17"/>
<polygon fill="#63b8ff" stroke="#63b8ff" points="116.93,-266.24 116.96,-276.83 123.54,-268.53 116.93,-266.24"/>
</a>
</g>
</g>
<!-- Node12 -->
<g id="Node000012" class="node">
<title>Node12</title>
<g id="a_Node000012"><a xlink:href="classTempSensor.html" target="_top" xlink:title="Implementation of a Sensor for the onboard temperature sensor.">
<polygon fill="white" stroke="#666666" points="263,-130 187,-130 187,-111 263,-111 263,-130"/>
<text text-anchor="middle" x="225" y="-118" font-family="Helvetica,sans-Serif" font-size="10.00">TempSensor</text>
</a>
</g>
</g>
<!-- Node1&#45;&gt;Node12 -->
<g id="edge12_Node000001_Node000012" class="edge">
<title>Node1&#45;&gt;Node12</title>
<g id="a_edge12_Node000001_Node000012"><a xlink:title=" ">
<path fill="none" stroke="#63b8ff" d="M117.27,-266.8C123.41,-235.72 139.49,-175.2 176,-139.5 179.97,-135.61 184.84,-132.5 189.93,-130"/>
<polygon fill="#63b8ff" stroke="#63b8ff" points="113.8,-266.34 115.44,-276.81 120.68,-267.6 113.8,-266.34"/>
</a>
</g>
</g>
<!-- Node14 -->
<g id="Node000014" class="node">
<title>Node14</title>
<g id="a_Node000014"><a xlink:href="classFlashStorage.html" target="_top" xlink:title=" ">
<polygon fill="white" stroke="#666666" points="265,-93 185,-93 185,-74 265,-74 265,-93"/>
<text text-anchor="middle" x="225" y="-81" font-family="Helvetica,sans-Serif" font-size="10.00">FlashStorage</text>
</a>
</g>
</g>
<!-- Node13&#45;&gt;Node14 -->
<g id="edge14_Node000013_Node000014" class="edge">
<title>Node13&#45;&gt;Node14</title>
<g id="a_edge14_Node000013_Node000014"><a xlink:title=" ">
<path fill="none" stroke="#63b8ff" d="M150.25,-71.43C161.31,-73.24 173.52,-75.24 184.77,-77.08"/>
<polygon fill="#63b8ff" stroke="#63b8ff" points="150.5,-67.93 140.07,-69.77 149.37,-74.83 150.5,-67.93"/>
</a>
</g>
</g>
<!-- Node15 -->
<g id="Node000015" class="node">
<title>Node15</title>
<g id="a_Node000015"><a xlink:href="classRadioStorage.html" target="_top" xlink:title="Implementation of a Storage device to interface with an SD card.">
<polygon fill="white" stroke="#666666" points="266,-56 184,-56 184,-37 266,-37 266,-56"/>
<text text-anchor="middle" x="225" y="-44" font-family="Helvetica,sans-Serif" font-size="10.00">RadioStorage</text>
</a>
</g>
</g>
<!-- Node13&#45;&gt;Node15 -->
<g id="edge15_Node000013_Node000015" class="edge">
<title>Node13&#45;&gt;Node15</title>
<g id="a_edge15_Node000013_Node000015"><a xlink:title=" ">
<path fill="none" stroke="#63b8ff" d="M150.05,-59.27C160.89,-57.4 172.84,-55.34 183.92,-53.42"/>
<polygon fill="#63b8ff" stroke="#63b8ff" points="149.33,-55.85 140.07,-61 150.52,-62.74 149.33,-55.85"/>
</a>
</g>
</g>
<!-- Node16 -->
<g id="Node000016" class="node">
<title>Node16</title>
<g id="a_Node000016"><a xlink:href="classSDStorage.html" target="_top" xlink:title="Implementation of a Storage device to interface with an SD card.">
<polygon fill="white" stroke="#666666" points="259,-19 191,-19 191,0 259,0 259,-19"/>
<text text-anchor="middle" x="225" y="-7" font-family="Helvetica,sans-Serif" font-size="10.00">SDStorage</text>
</a>
</g>
</g>
<!-- Node13&#45;&gt;Node16 -->
<g id="edge16_Node000013_Node000016" class="edge">
<title>Node13&#45;&gt;Node16</title>
<g id="a_edge16_Node000013_Node000016"><a xlink:title=" ">
<path fill="none" stroke="#63b8ff" d="M136.95,-50.6C148.43,-43.46 162.69,-35.05 176,-28.5 182.92,-25.1 190.6,-21.83 197.76,-19"/>
<polygon fill="#63b8ff" stroke="#63b8ff" points="134.99,-47.69 128.41,-55.99 138.73,-53.61 134.99,-47.69"/>
</a>
</g>
</g>
</g>
</svg>
