<?xml version="1.0" encoding="UTF-8" standalone="no"?>
<!DOCTYPE svg PUBLIC "-//W3C//DTD SVG 1.1//EN"
 "http://www.w3.org/Graphics/SVG/1.1/DTD/svg11.dtd">
<!-- Generated by graphviz version 12.1.2 (20240928.0832)
 -->
<!-- Title: Graphical Class Hierarchy Pages: 1 -->
<svg width="268pt" height="750pt"
 viewBox="0.00 0.00 268.25 750.00" xmlns="http://www.w3.org/2000/svg" xmlns:xlink="http://www.w3.org/1999/xlink">
<g id="graph0" class="graph" transform="scale(1 1) rotate(0) translate(4 746)">
<title>Graphical Class Hierarchy</title>
<!-- Node0 -->
<g id="Node000000" class="node">
<title>Node0</title>
<g id="a_Node000000"><a xlink:href="classDevice.html" target="_top" xlink:title="Implements the recovery system for Sensor and Storage objects.">
<polygon fill="white" stroke="#666666" points="46.75,-229 0,-229 0,-209 46.75,-209 46.75,-229"/>
<text text-anchor="middle" x="23.38" y="-215.5" font-family="Helvetica,sans-Serif" font-size="10.00">Device</text>
</a>
</g>
</g>
<!-- Node1 -->
<g id="Node000001" class="node">
<title>Node1</title>
<g id="a_Node000001"><a xlink:href="classSensor.html" target="_top" xlink:title="Parent class for sensor objects.">
<polygon fill="white" stroke="#666666" points="131,-419 84.25,-419 84.25,-399 131,-399 131,-419"/>
<text text-anchor="middle" x="107.62" y="-405.5" font-family="Helvetica,sans-Serif" font-size="10.00">Sensor</text>
</a>
</g>
</g>
<!-- Node0&#45;&gt;Node1 -->
<g id="edge1_Node000000_Node000001" class="edge">
<title>Node0&#45;&gt;Node1</title>
<g id="a_edge1_Node000000_Node000001"><a xlink:title=" ">
<path fill="none" stroke="#63b8ff" d="M33.49,-240.05C51.1,-280.74 89.23,-368.81 102.2,-398.78"/>
<polygon fill="#63b8ff" stroke="#63b8ff" points="36.7,-238.66 29.52,-230.87 30.28,-241.44 36.7,-238.66"/>
</a>
</g>
</g>
<!-- Node19 -->
<g id="Node000019" class="node">
<title>Node19</title>
<g id="a_Node000019"><a xlink:href="classStorage.html" target="_top" xlink:title="Parent class for all data storage devices (sd card, radio, etc)">
<polygon fill="white" stroke="#666666" points="132.5,-77 82.75,-77 82.75,-57 132.5,-57 132.5,-77"/>
<text text-anchor="middle" x="107.62" y="-63.5" font-family="Helvetica,sans-Serif" font-size="10.00">Storage</text>
</a>
</g>
</g>
<!-- Node0&#45;&gt;Node19 -->
<g id="edge19_Node000000_Node000019" class="edge">
<title>Node0&#45;&gt;Node19</title>
<g id="a_edge19_Node000000_Node000019"><a xlink:title=" ">
<path fill="none" stroke="#63b8ff" d="M35.38,-198.66C53.21,-165.71 87.77,-101.85 101.15,-77.12"/>
<polygon fill="#63b8ff" stroke="#63b8ff" points="32.43,-196.76 30.75,-207.22 38.59,-200.09 32.43,-196.76"/>
</a>
</g>
</g>
<!-- Node2 -->
<g id="Node000002" class="node">
<title>Node2</title>
<g id="a_Node000002"><a xlink:href="classAS7331Sensor.html" target="_top" xlink:title="Implementation of a Sensor for UVA/B/C sensor.">
<polygon fill="white" stroke="#666666" points="255,-742 173.75,-742 173.75,-722 255,-722 255,-742"/>
<text text-anchor="middle" x="214.38" y="-728.5" font-family="Helvetica,sans-Serif" font-size="10.00">AS7331Sensor</text>
</a>
</g>
</g>
<!-- Node1&#45;&gt;Node2 -->
<g id="edge2_Node000001_Node000002" class="edge">
<title>Node1&#45;&gt;Node2</title>
<g id="a_edge2_Node000001_Node000002"><a xlink:title=" ">
<path fill="none" stroke="#63b8ff" d="M110.28,-430.62C115.4,-492.58 132.87,-669.15 168.5,-713 171.27,-716.41 174.77,-719.23 178.59,-721.54"/>
<polygon fill="#63b8ff" stroke="#63b8ff" points="113.77,-430.43 109.49,-420.74 106.79,-430.98 113.77,-430.43"/>
</a>
</g>
</g>
<!-- Node3 -->
<g id="Node000003" class="node">
<title>Node3</title>
<g id="a_Node000003"><a xlink:href="classBME280Sensor.html" target="_top" xlink:title="Implementation of a Sensor for the BME280.">
<polygon fill="white" stroke="#666666" points="256.5,-704 172.25,-704 172.25,-684 256.5,-684 256.5,-704"/>
<text text-anchor="middle" x="214.38" y="-690.5" font-family="Helvetica,sans-Serif" font-size="10.00">BME280Sensor</text>
</a>
</g>
</g>
<!-- Node1&#45;&gt;Node3 -->
<g id="edge3_Node000001_Node000003" class="edge">
<title>Node1&#45;&gt;Node3</title>
<g id="a_edge3_Node000001_Node000003"><a xlink:title=" ">
<path fill="none" stroke="#63b8ff" d="M110.93,-430.49C117.36,-486.9 137.12,-637.42 168.5,-675 171.43,-678.51 175.12,-681.38 179.12,-683.73"/>
<polygon fill="#63b8ff" stroke="#63b8ff" points="114.45,-430.45 109.87,-420.9 107.49,-431.23 114.45,-430.45"/>
</a>
</g>
</g>
<!-- Node4 -->
<g id="Node000004" class="node">
<title>Node4</title>
<g id="a_Node000004"><a xlink:href="classBME680Sensor.html" target="_top" xlink:title="A class to interface with the Adafruit BME680 sensor for environmental data collection.">
<polygon fill="white" stroke="#666666" points="256.5,-666 172.25,-666 172.25,-646 256.5,-646 256.5,-666"/>
<text text-anchor="middle" x="214.38" y="-652.5" font-family="Helvetica,sans-Serif" font-size="10.00">BME680Sensor</text>
</a>
</g>
</g>
<!-- Node1&#45;&gt;Node4 -->
<g id="edge4_Node000001_Node000004" class="edge">
<title>Node1&#45;&gt;Node4</title>
<g id="a_edge4_Node000001_Node000004"><a xlink:title=" ">
<path fill="none" stroke="#63b8ff" d="M108.29,-430.31C108.75,-474.31 115.84,-576.17 168.5,-637 171.49,-640.45 175.22,-643.3 179.23,-645.63"/>
<polygon fill="#63b8ff" stroke="#63b8ff" points="111.79,-430.59 108.31,-420.58 104.79,-430.57 111.79,-430.59"/>
</a>
</g>
</g>
<!-- Node5 -->
<g id="Node000005" class="node">
<title>Node5</title>
<g id="a_Node000005"><a xlink:href="classBMP390Sensor.html" target="_top" xlink:title="Implementation of a Sensor for BMP384 Pressure and Temperature sensor.">
<polygon fill="white" stroke="#666666" points="256.5,-628 172.25,-628 172.25,-608 256.5,-608 256.5,-628"/>
<text text-anchor="middle" x="214.38" y="-614.5" font-family="Helvetica,sans-Serif" font-size="10.00">BMP390Sensor</text>
</a>
</g>
</g>
<!-- Node1&#45;&gt;Node5 -->
<g id="edge5_Node000001_Node000005" class="edge">
<title>Node1&#45;&gt;Node5</title>
<g id="a_edge5_Node000001_Node000005"><a xlink:title=" ">
<path fill="none" stroke="#63b8ff" d="M109.68,-430.39C112.67,-468.87 124.19,-550.26 168.5,-599 171.69,-602.51 175.63,-605.39 179.84,-607.75"/>
<polygon fill="#63b8ff" stroke="#63b8ff" points="113.18,-430.37 109.05,-420.61 106.2,-430.81 113.18,-430.37"/>
</a>
</g>
</g>
<!-- Node6 -->
<g id="Node000006" class="node">
<title>Node6</title>
<g id="a_Node000006"><a xlink:href="classDS3231Sensor.html" target="_top" xlink:title="Implementation of a Sensor for the DS3231 Real Time Clock.">
<polygon fill="white" stroke="#666666" points="255.38,-590 173.38,-590 173.38,-570 255.38,-570 255.38,-590"/>
<text text-anchor="middle" x="214.38" y="-576.5" font-family="Helvetica,sans-Serif" font-size="10.00">DS3231Sensor</text>
</a>
</g>
</g>
<!-- Node1&#45;&gt;Node6 -->
<g id="edge6_Node000001_Node000006" class="edge">
<title>Node1&#45;&gt;Node6</title>
<g id="a_edge6_Node000001_Node000006"><a xlink:title=" ">
<path fill="none" stroke="#63b8ff" d="M111.72,-430.57C117.43,-462.9 132.49,-524.07 168.5,-561 171.81,-564.39 175.82,-567.21 180.06,-569.54"/>
<polygon fill="#63b8ff" stroke="#63b8ff" points="115.2,-430.15 110.16,-420.84 108.29,-431.27 115.2,-430.15"/>
</a>
</g>
</g>
<!-- Node7 -->
<g id="Node000007" class="node">
<title>Node7</title>
<g id="a_Node000007"><a xlink:href="classENS160Sensor.html" target="_top" xlink:title="Implementation of a Sensor for the ENS160.">
<polygon fill="white" stroke="#666666" points="256.12,-552 172.62,-552 172.62,-532 256.12,-532 256.12,-552"/>
<text text-anchor="middle" x="214.38" y="-538.5" font-family="Helvetica,sans-Serif" font-size="10.00">ENS160Sensor</text>
</a>
</g>
</g>
<!-- Node1&#45;&gt;Node7 -->
<g id="edge7_Node000001_Node000007" class="edge">
<title>Node1&#45;&gt;Node7</title>
<g id="a_edge7_Node000001_Node000007"><a xlink:title=" ">
<path fill="none" stroke="#63b8ff" d="M114.86,-430.17C123.27,-455.36 140.51,-497.24 168.5,-523 172.24,-526.44 176.68,-529.31 181.31,-531.69"/>
<polygon fill="#63b8ff" stroke="#63b8ff" points="118.23,-429.22 111.89,-420.73 111.56,-431.32 118.23,-429.22"/>
</a>
</g>
</g>
<!-- Node8 -->
<g id="Node000008" class="node">
<title>Node8</title>
<g id="a_Node000008"><a xlink:href="classICM20948Sensor.html" target="_top" xlink:title="Implementation of the Sensor class for the Adafruit ICM20948 (9&#45;axis IMU)">
<polygon fill="white" stroke="#666666" points="260.25,-514 168.5,-514 168.5,-494 260.25,-494 260.25,-514"/>
<text text-anchor="middle" x="214.38" y="-500.5" font-family="Helvetica,sans-Serif" font-size="10.00">ICM20948Sensor</text>
</a>
</g>
</g>
<!-- Node1&#45;&gt;Node8 -->
<g id="edge8_Node000001_Node000008" class="edge">
<title>Node1&#45;&gt;Node8</title>
<g id="a_edge8_Node000001_Node000008"><a xlink:title=" ">
<path fill="none" stroke="#63b8ff" d="M120.29,-428.92C131.01,-445.76 148.27,-469.55 168.5,-485 172.8,-488.29 177.76,-491.12 182.77,-493.51"/>
<polygon fill="#63b8ff" stroke="#63b8ff" points="123.5,-427.45 115.29,-420.76 117.53,-431.11 123.5,-427.45"/>
</a>
</g>
</g>
<!-- Node9 -->
<g id="Node000009" class="node">
<title>Node9</title>
<g id="a_Node000009"><a xlink:href="classINA260Sensor.html" target="_top" xlink:title="A class to interface with the Adafruit INA260 sensor for current, voltage, and power measurements.">
<polygon fill="white" stroke="#666666" points="254.25,-476 174.5,-476 174.5,-456 254.25,-456 254.25,-476"/>
<text text-anchor="middle" x="214.38" y="-462.5" font-family="Helvetica,sans-Serif" font-size="10.00">INA260Sensor</text>
</a>
</g>
</g>
<!-- Node1&#45;&gt;Node9 -->
<g id="edge9_Node000001_Node000009" class="edge">
<title>Node1&#45;&gt;Node9</title>
<g id="a_edge9_Node000001_Node000009"><a xlink:title=" ">
<path fill="none" stroke="#63b8ff" d="M132.95,-425.72C143.62,-432.72 156.44,-440.67 168.5,-447 174.34,-450.06 180.79,-453.03 186.94,-455.66"/>
<polygon fill="#63b8ff" stroke="#63b8ff" points="134.99,-422.88 124.73,-420.23 131.1,-428.7 134.99,-422.88"/>
</a>
</g>
</g>
<!-- Node10 -->
<g id="Node000010" class="node">
<title>Node10</title>
<g id="a_Node000010"><a xlink:href="classLSM9DS1Sensor.html" target="_top" xlink:title="Implementation of the Sensor class for the LSM9DS1 (9&#45;axis IMU)">
<polygon fill="white" stroke="#666666" points="260.25,-438 168.5,-438 168.5,-418 260.25,-418 260.25,-438"/>
<text text-anchor="middle" x="214.38" y="-424.5" font-family="Helvetica,sans-Serif" font-size="10.00">LSM9DS1Sensor</text>
</a>
</g>
</g>
<!-- Node1&#45;&gt;Node10 -->
<g id="edge10_Node000001_Node000010" class="edge">
<title>Node1&#45;&gt;Node10</title>
<g id="a_edge10_Node000001_Node000010"><a xlink:title=" ">
<path fill="none" stroke="#63b8ff" d="M142.44,-415.13C150.68,-416.63 159.63,-418.25 168.3,-419.82"/>
<polygon fill="#63b8ff" stroke="#63b8ff" points="143.31,-411.73 132.84,-413.39 142.06,-418.62 143.31,-411.73"/>
</a>
</g>
</g>
<!-- Node11 -->
<g id="Node000011" class="node">
<title>Node11</title>
<g id="a_Node000011"><a xlink:href="classMTK3339Sensor.html" target="_top" xlink:title="Implementation of the Adafruit MTK3339 GPS sensor.">
<polygon fill="white" stroke="#666666" points="258.75,-400 170,-400 170,-380 258.75,-380 258.75,-400"/>
<text text-anchor="middle" x="214.38" y="-386.5" font-family="Helvetica,sans-Serif" font-size="10.00">MTK3339Sensor</text>
</a>
</g>
</g>
<!-- Node1&#45;&gt;Node11 -->
<g id="edge11_Node000001_Node000011" class="edge">
<title>Node1&#45;&gt;Node11</title>
<g id="a_edge11_Node000001_Node000011"><a xlink:title=" ">
<path fill="none" stroke="#63b8ff" d="M142.53,-402.85C151.15,-401.29 160.54,-399.58 169.58,-397.94"/>
<polygon fill="#63b8ff" stroke="#63b8ff" points="142.06,-399.38 132.84,-404.61 143.31,-406.27 142.06,-399.38"/>
</a>
</g>
</g>
<!-- Node12 -->
<g id="Node000012" class="node">
<title>Node12</title>
<g id="a_Node000012"><a xlink:href="classOzoneSensor.html" target="_top" xlink:title="Implementation of a Sensor for the onboard temperature sensor.">
<polygon fill="white" stroke="#666666" points="252,-362 176.75,-362 176.75,-342 252,-342 252,-362"/>
<text text-anchor="middle" x="214.38" y="-348.5" font-family="Helvetica,sans-Serif" font-size="10.00">OzoneSensor</text>
</a>
</g>
</g>
<!-- Node1&#45;&gt;Node12 -->
<g id="edge12_Node000001_Node000012" class="edge">
<title>Node1&#45;&gt;Node12</title>
<g id="a_edge12_Node000001_Node000012"><a xlink:title=" ">
<path fill="none" stroke="#63b8ff" d="M132.95,-392.28C143.62,-385.28 156.44,-377.33 168.5,-371 174.34,-367.94 180.79,-364.97 186.94,-362.34"/>
<polygon fill="#63b8ff" stroke="#63b8ff" points="131.1,-389.3 124.73,-397.77 134.99,-395.12 131.1,-389.3"/>
</a>
</g>
</g>
<!-- Node13 -->
<g id="Node000013" class="node">
<title>Node13</title>
<g id="a_Node000013"><a xlink:href="classPCF8523Sensor.html" target="_top" xlink:title="Implementation of the PCF8523 sensor.">
<polygon fill="white" stroke="#666666" points="258.38,-324 170.38,-324 170.38,-304 258.38,-304 258.38,-324"/>
<text text-anchor="middle" x="214.38" y="-310.5" font-family="Helvetica,sans-Serif" font-size="10.00">PCF8523Sensor</text>
</a>
</g>
</g>
<!-- Node1&#45;&gt;Node13 -->
<g id="edge13_Node000001_Node000013" class="edge">
<title>Node1&#45;&gt;Node13</title>
<g id="a_edge13_Node000001_Node000013"><a xlink:title=" ">
<path fill="none" stroke="#63b8ff" d="M120.29,-389.08C131.01,-372.24 148.27,-348.45 168.5,-333 172.8,-329.71 177.76,-326.88 182.77,-324.49"/>
<polygon fill="#63b8ff" stroke="#63b8ff" points="117.53,-386.89 115.29,-397.24 123.5,-390.55 117.53,-386.89"/>
</a>
</g>
</g>
<!-- Node14 -->
<g id="Node000014" class="node">
<title>Node14</title>
<g id="a_Node000014"><a xlink:href="classSCD40Sensor.html" target="_top" xlink:title="A class to interface with the Sensirion SCD40 sensor for CO2 data collection.">
<polygon fill="white" stroke="#666666" points="253.88,-286 174.88,-286 174.88,-266 253.88,-266 253.88,-286"/>
<text text-anchor="middle" x="214.38" y="-272.5" font-family="Helvetica,sans-Serif" font-size="10.00">SCD40Sensor</text>
</a>
</g>
</g>
<!-- Node1&#45;&gt;Node14 -->
<g id="edge14_Node000001_Node000014" class="edge">
<title>Node1&#45;&gt;Node14</title>
<g id="a_edge14_Node000001_Node000014"><a xlink:title=" ">
<path fill="none" stroke="#63b8ff" d="M114.86,-387.83C123.27,-362.64 140.51,-320.76 168.5,-295 172.24,-291.56 176.68,-288.69 181.31,-286.31"/>
<polygon fill="#63b8ff" stroke="#63b8ff" points="111.56,-386.68 111.89,-397.27 118.23,-388.78 111.56,-386.68"/>
</a>
</g>
</g>
<!-- Node15 -->
<g id="Node000015" class="node">
<title>Node15</title>
<g id="a_Node000015"><a xlink:href="classSGP30Sensor.html" target="_top" xlink:title="Implementation of a Sensor for the SGP Air Quality sensor.">
<polygon fill="white" stroke="#666666" points="253.5,-248 175.25,-248 175.25,-228 253.5,-228 253.5,-248"/>
<text text-anchor="middle" x="214.38" y="-234.5" font-family="Helvetica,sans-Serif" font-size="10.00">SGP30Sensor</text>
</a>
</g>
</g>
<!-- Node1&#45;&gt;Node15 -->
<g id="edge15_Node000001_Node000015" class="edge">
<title>Node1&#45;&gt;Node15</title>
<g id="a_edge15_Node000001_Node000015"><a xlink:title=" ">
<path fill="none" stroke="#63b8ff" d="M111.72,-387.43C117.43,-355.1 132.49,-293.93 168.5,-257 171.81,-253.61 175.82,-250.79 180.06,-248.46"/>
<polygon fill="#63b8ff" stroke="#63b8ff" points="108.29,-386.73 110.16,-397.16 115.2,-387.85 108.29,-386.73"/>
</a>
</g>
</g>
<!-- Node16 -->
<g id="Node000016" class="node">
<title>Node16</title>
<g id="a_Node000016"><a xlink:href="classSHTC3Sensor.html" target="_top" xlink:title="Implementation of a Sensor for the SHTC3.">
<polygon fill="white" stroke="#666666" points="254.25,-210 174.5,-210 174.5,-190 254.25,-190 254.25,-210"/>
<text text-anchor="middle" x="214.38" y="-196.5" font-family="Helvetica,sans-Serif" font-size="10.00">SHTC3Sensor</text>
</a>
</g>
</g>
<!-- Node1&#45;&gt;Node16 -->
<g id="edge16_Node000001_Node000016" class="edge">
<title>Node1&#45;&gt;Node16</title>
<g id="a_edge16_Node000001_Node000016"><a xlink:title=" ">
<path fill="none" stroke="#63b8ff" d="M109.68,-387.61C112.67,-349.13 124.19,-267.74 168.5,-219 171.69,-215.49 175.63,-212.61 179.84,-210.25"/>
<polygon fill="#63b8ff" stroke="#63b8ff" points="106.2,-387.19 109.05,-397.39 113.18,-387.63 106.2,-387.19"/>
</a>
</g>
</g>
<!-- Node17 -->
<g id="Node000017" class="node">
<title>Node17</title>
<g id="a_Node000017"><a xlink:href="classTMP117Sensor.html" target="_top" xlink:title="Implementation of a Sensor for the TMP117.">
<polygon fill="white" stroke="#666666" points="255.75,-172 173,-172 173,-152 255.75,-152 255.75,-172"/>
<text text-anchor="middle" x="214.38" y="-158.5" font-family="Helvetica,sans-Serif" font-size="10.00">TMP117Sensor</text>
</a>
</g>
</g>
<!-- Node1&#45;&gt;Node17 -->
<g id="edge17_Node000001_Node000017" class="edge">
<title>Node1&#45;&gt;Node17</title>
<g id="a_edge17_Node000001_Node000017"><a xlink:title=" ">
<path fill="none" stroke="#63b8ff" d="M108.29,-387.69C108.75,-343.69 115.84,-241.83 168.5,-181 171.49,-177.55 175.22,-174.7 179.23,-172.37"/>
<polygon fill="#63b8ff" stroke="#63b8ff" points="104.79,-387.43 108.31,-397.42 111.79,-387.41 104.79,-387.43"/>
</a>
</g>
</g>
<!-- Node18 -->
<g id="Node000018" class="node">
<title>Node18</title>
<g id="a_Node000018"><a xlink:href="classTempSensor.html" target="_top" xlink:title="Implementation of a Sensor for the onboard temperature sensor.">
<polygon fill="white" stroke="#666666" points="249.75,-134 179,-134 179,-114 249.75,-114 249.75,-134"/>
<text text-anchor="middle" x="214.38" y="-120.5" font-family="Helvetica,sans-Serif" font-size="10.00">TempSensor</text>
</a>
</g>
</g>
<!-- Node1&#45;&gt;Node18 -->
<g id="edge18_Node000001_Node000018" class="edge">
<title>Node1&#45;&gt;Node18</title>
<g id="a_edge18_Node000001_Node000018"><a xlink:title=" ">
<path fill="none" stroke="#63b8ff" d="M110.93,-387.51C117.36,-331.1 137.12,-180.58 168.5,-143 171.43,-139.49 175.12,-136.62 179.12,-134.27"/>
<polygon fill="#63b8ff" stroke="#63b8ff" points="107.49,-386.77 109.87,-397.1 114.45,-387.55 107.49,-386.77"/>
</a>
</g>
</g>
<!-- Node20 -->
<g id="Node000020" class="node">
<title>Node20</title>
<g id="a_Node000020"><a xlink:href="classFlashStorage.html" target="_top" xlink:title=" ">
<polygon fill="white" stroke="#666666" points="251.25,-96 177.5,-96 177.5,-76 251.25,-76 251.25,-96"/>
<text text-anchor="middle" x="214.38" y="-82.5" font-family="Helvetica,sans-Serif" font-size="10.00">FlashStorage</text>
</a>
</g>
</g>
<!-- Node19&#45;&gt;Node20 -->
<g id="edge20_Node000019_Node000020" class="edge">
<title>Node19&#45;&gt;Node20</title>
<g id="a_edge20_Node000019_Node000020"><a xlink:title=" ">
<path fill="none" stroke="#63b8ff" d="M144.03,-73.42C154.75,-75.37 166.53,-77.5 177.29,-79.45"/>
<polygon fill="#63b8ff" stroke="#63b8ff" points="144.87,-70.02 134.41,-71.68 143.62,-76.91 144.87,-70.02"/>
</a>
</g>
</g>
<!-- Node21 -->
<g id="Node000021" class="node">
<title>Node21</title>
<g id="a_Node000021"><a xlink:href="classRadioStorage.html" target="_top" xlink:title="Implementation of a Storage device to interface with an SD card.">
<polygon fill="white" stroke="#666666" points="252,-58 176.75,-58 176.75,-38 252,-38 252,-58"/>
<text text-anchor="middle" x="214.38" y="-44.5" font-family="Helvetica,sans-Serif" font-size="10.00">RadioStorage</text>
</a>
</g>
</g>
<!-- Node19&#45;&gt;Node21 -->
<g id="edge21_Node000019_Node000021" class="edge">
<title>Node19&#45;&gt;Node21</title>
<g id="a_edge21_Node000019_Node000021"><a xlink:title=" ">
<path fill="none" stroke="#63b8ff" d="M144.16,-60.56C154.57,-58.67 165.98,-56.6 176.48,-54.69"/>
<polygon fill="#63b8ff" stroke="#63b8ff" points="143.62,-57.09 134.41,-62.32 144.87,-63.98 143.62,-57.09"/>
</a>
</g>
</g>
<!-- Node22 -->
<g id="Node000022" class="node">
<title>Node22</title>
<g id="a_Node000022"><a xlink:href="classSDStorage.html" target="_top" xlink:title="Implementation of a Storage device to interface with an SD card.">
<polygon fill="white" stroke="#666666" points="246.38,-20 182.38,-20 182.38,0 246.38,0 246.38,-20"/>
<text text-anchor="middle" x="214.38" y="-6.5" font-family="Helvetica,sans-Serif" font-size="10.00">SDStorage</text>
</a>
</g>
</g>
<!-- Node19&#45;&gt;Node22 -->
<g id="edge22_Node000019_Node000022" class="edge">
<title>Node19&#45;&gt;Node22</title>
<g id="a_edge22_Node000019_Node000022"><a xlink:title=" ">
<path fill="none" stroke="#63b8ff" d="M132.95,-50.28C143.62,-43.28 156.44,-35.33 168.5,-29 174.34,-25.94 180.79,-22.97 186.94,-20.34"/>
<polygon fill="#63b8ff" stroke="#63b8ff" points="131.1,-47.3 124.73,-55.77 134.99,-53.12 131.1,-47.3"/>
</a>
</g>
</g>
</g>
</svg>
