<?xml version="1.0" encoding="UTF-8" standalone="no"?>
<!DOCTYPE svg PUBLIC "-//W3C//DTD SVG 1.1//EN"
 "http://www.w3.org/Graphics/SVG/1.1/DTD/svg11.dtd">
<!-- Generated by graphviz version 2.43.0 (0)
 -->
<!-- Title: Logger.h Pages: 1 -->
<svg width="1995pt" height="247pt"
 viewBox="0.00 0.00 1994.50 247.00" xmlns="http://www.w3.org/2000/svg" xmlns:xlink="http://www.w3.org/1999/xlink">
<g id="graph0" class="graph" transform="scale(1 1) rotate(0) translate(4 243)">
<title>Logger.h</title>
<!-- Node1 -->
<g id="Node000001" class="node">
<title>Node1</title>
<g id="a_Node000001"><a xlink:title=" ">
<polygon fill="#999999" stroke="#666666" points="1547.5,-239 1489.5,-239 1489.5,-220 1547.5,-220 1547.5,-239"/>
<text text-anchor="middle" x="1518.5" y="-227" font-family="Helvetica,sans-Serif" font-size="10.00">Logger.h</text>
</a>
</g>
</g>
<!-- Node2 -->
<g id="Node000002" class="node">
<title>Node2</title>
<g id="a_Node000002"><a xlink:href="Device_8h.html" target="_top" xlink:title=" ">
<polygon fill="white" stroke="#666666" points="1519,-184 1460,-184 1460,-165 1519,-165 1519,-184"/>
<text text-anchor="middle" x="1489.5" y="-172" font-family="Helvetica,sans-Serif" font-size="10.00">Device.h</text>
</a>
</g>
</g>
<!-- Node1&#45;&gt;Node2 -->
<g id="edge1_Node000001_Node000002" class="edge">
<title>Node1&#45;&gt;Node2</title>
<g id="a_edge1_Node000001_Node000002"><a xlink:title=" ">
<path fill="none" stroke="#63b8ff" d="M1508.82,-210.82C1503.9,-201.82 1498.14,-191.29 1494.2,-184.09"/>
<polygon fill="#63b8ff" stroke="#63b8ff" points="1505.84,-212.66 1513.71,-219.75 1511.98,-209.3 1505.84,-212.66"/>
</a>
</g>
</g>
<!-- Node3 -->
<g id="Node000003" class="node">
<title>Node3</title>
<g id="a_Node000003"><a xlink:href="Sensor_8h.html" target="_top" xlink:title=" ">
<polygon fill="white" stroke="#666666" points="905.5,-129 847.5,-129 847.5,-110 905.5,-110 905.5,-129"/>
<text text-anchor="middle" x="876.5" y="-117" font-family="Helvetica,sans-Serif" font-size="10.00">Sensor.h</text>
</a>
</g>
</g>
<!-- Node1&#45;&gt;Node3 -->
<g id="edge54_Node000001_Node000003" class="edge">
<title>Node1&#45;&gt;Node3</title>
<g id="a_edge54_Node000001_Node000003"><a xlink:title=" ">
<path fill="none" stroke="#63b8ff" d="M1479.17,-221.88C1360.73,-201.96 1009.18,-142.82 905.56,-125.39"/>
<polygon fill="#63b8ff" stroke="#63b8ff" points="1478.8,-225.37 1489.25,-223.58 1479.97,-218.47 1478.8,-225.37"/>
</a>
</g>
</g>
<!-- Node6 -->
<g id="Node000006" class="node">
<title>Node6</title>
<g id="a_Node000006"><a xlink:href="main_8cpp.html" target="_top" xlink:title="Main functions for Core 0, responsible for reading data from sensor peripherals.">
<polygon fill="white" stroke="#666666" points="794.5,-19 732.5,-19 732.5,0 794.5,0 794.5,-19"/>
<text text-anchor="middle" x="763.5" y="-7" font-family="Helvetica,sans-Serif" font-size="10.00">main.cpp</text>
</a>
</g>
</g>
<!-- Node1&#45;&gt;Node6 -->
<g id="edge56_Node000001_Node000006" class="edge">
<title>Node1&#45;&gt;Node6</title>
<g id="a_edge56_Node000001_Node000006"><a xlink:title=" ">
<path fill="none" stroke="#63b8ff" d="M1478.94,-228.07C1325.56,-225.42 774,-206.68 679.5,-74 661.74,-49.06 703.18,-29.57 733.96,-19.08"/>
<polygon fill="#63b8ff" stroke="#63b8ff" points="1479.23,-231.57 1489.28,-228.23 1479.34,-224.57 1479.23,-231.57"/>
</a>
</g>
</g>
<!-- Node29 -->
<g id="Node000029" class="node">
<title>Node29</title>
<g id="a_Node000029"><a xlink:href="Storage_8h.html" target="_top" xlink:title=" ">
<polygon fill="white" stroke="#666666" points="1679,-129 1616,-129 1616,-110 1679,-110 1679,-129"/>
<text text-anchor="middle" x="1647.5" y="-117" font-family="Helvetica,sans-Serif" font-size="10.00">Storage.h</text>
</a>
</g>
</g>
<!-- Node1&#45;&gt;Node29 -->
<g id="edge55_Node000001_Node000029" class="edge">
<title>Node1&#45;&gt;Node29</title>
<g id="a_edge55_Node000001_Node000029"><a xlink:title=" ">
<path fill="none" stroke="#63b8ff" d="M1536.77,-213.21C1564.25,-190.2 1615.32,-147.44 1637.16,-129.16"/>
<polygon fill="#63b8ff" stroke="#63b8ff" points="1534.48,-210.56 1529.06,-219.66 1538.97,-215.93 1534.48,-210.56"/>
</a>
</g>
</g>
<!-- Node32 -->
<g id="Node000032" class="node">
<title>Node32</title>
<g id="a_Node000032"><a xlink:href="main1_8cpp.html" target="_top" xlink:title="Main functions for Core 1, responsible for sending data to storage peripherals.">
<polygon fill="white" stroke="#666666" points="1745.5,-19 1677.5,-19 1677.5,0 1745.5,0 1745.5,-19"/>
<text text-anchor="middle" x="1711.5" y="-7" font-family="Helvetica,sans-Serif" font-size="10.00">main1.cpp</text>
</a>
</g>
</g>
<!-- Node1&#45;&gt;Node32 -->
<g id="edge57_Node000001_Node000032" class="edge">
<title>Node1&#45;&gt;Node32</title>
<g id="a_edge57_Node000001_Node000032"><a xlink:title=" ">
<path fill="none" stroke="#63b8ff" d="M1522.54,-210.08C1531.98,-167.75 1555.5,-66.31 1566.5,-55 1574.42,-46.86 1637.5,-29.48 1677.81,-19.02"/>
<polygon fill="#63b8ff" stroke="#63b8ff" points="1519.11,-209.38 1520.37,-219.9 1525.95,-210.9 1519.11,-209.38"/>
</a>
</g>
</g>
<!-- Node34 -->
<g id="Node000034" class="node">
<title>Node34</title>
<g id="a_Node000034"><a xlink:href="RadioStorage_8cpp.html" target="_top" xlink:title=" ">
<polygon fill="white" stroke="#666666" points="1986.5,-19 1884.5,-19 1884.5,0 1986.5,0 1986.5,-19"/>
<text text-anchor="middle" x="1935.5" y="-7" font-family="Helvetica,sans-Serif" font-size="10.00">RadioStorage.cpp</text>
</a>
</g>
</g>
<!-- Node1&#45;&gt;Node34 -->
<g id="edge53_Node000001_Node000034" class="edge">
<title>Node1&#45;&gt;Node34</title>
<g id="a_edge53_Node000001_Node000034"><a xlink:title=" ">
<path fill="none" stroke="#63b8ff" d="M1557.66,-224.6C1637.09,-214.58 1817.96,-180.7 1916.5,-74 1930.86,-58.44 1934.4,-32.45 1935.25,-19.05"/>
<polygon fill="#63b8ff" stroke="#63b8ff" points="1557.1,-221.14 1547.59,-225.81 1557.93,-228.09 1557.1,-221.14"/>
</a>
</g>
</g>
<!-- Node2&#45;&gt;Node3 -->
<g id="edge2_Node000002_Node000003" class="edge">
<title>Node2&#45;&gt;Node3</title>
<g id="a_edge2_Node000002_Node000003"><a xlink:title=" ">
<path fill="none" stroke="#63b8ff" d="M1449.85,-170.07C1335.35,-160.17 1005.97,-131.69 905.77,-123.03"/>
<polygon fill="#63b8ff" stroke="#63b8ff" points="1449.67,-173.57 1459.93,-170.94 1450.27,-166.6 1449.67,-173.57"/>
</a>
</g>
</g>
<!-- Node2&#45;&gt;Node29 -->
<g id="edge42_Node000002_Node000029" class="edge">
<title>Node2&#45;&gt;Node29</title>
<g id="a_edge42_Node000002_Node000029"><a xlink:title=" ">
<path fill="none" stroke="#63b8ff" d="M1524.38,-161.8C1553.87,-151.91 1595.43,-137.97 1621.92,-129.08"/>
<polygon fill="#63b8ff" stroke="#63b8ff" points="1523.25,-158.49 1514.89,-164.98 1525.48,-165.12 1523.25,-158.49"/>
</a>
</g>
</g>
<!-- Node4 -->
<g id="Node000004" class="node">
<title>Node4</title>
<g id="a_Node000004"><a xlink:href="AS7331Sensor_8h.html" target="_top" xlink:title=" ">
<polygon fill="white" stroke="#666666" points="924,-74 829,-74 829,-55 924,-55 924,-74"/>
<text text-anchor="middle" x="876.5" y="-62" font-family="Helvetica,sans-Serif" font-size="10.00">AS7331Sensor.h</text>
</a>
</g>
</g>
<!-- Node3&#45;&gt;Node4 -->
<g id="edge3_Node000003_Node000004" class="edge">
<title>Node3&#45;&gt;Node4</title>
<g id="a_edge3_Node000003_Node000004"><a xlink:title=" ">
<path fill="none" stroke="#63b8ff" d="M876.5,-99.66C876.5,-90.93 876.5,-80.99 876.5,-74.09"/>
<polygon fill="#63b8ff" stroke="#63b8ff" points="873,-99.75 876.5,-109.75 880,-99.75 873,-99.75"/>
</a>
</g>
</g>
<!-- Node3&#45;&gt;Node6 -->
<g id="edge41_Node000003_Node000006" class="edge">
<title>Node3&#45;&gt;Node6</title>
<g id="a_edge41_Node000003_Node000006"><a xlink:title=" ">
<path fill="none" stroke="#63b8ff" d="M855.88,-103.85C844.71,-95.56 830.89,-84.73 819.5,-74 800.24,-55.86 780.38,-31.84 770.28,-19.17"/>
<polygon fill="#63b8ff" stroke="#63b8ff" points="854.04,-106.84 864.18,-109.91 858.17,-101.19 854.04,-106.84"/>
</a>
</g>
</g>
<!-- Node7 -->
<g id="Node000007" class="node">
<title>Node7</title>
<g id="a_Node000007"><a xlink:href="AnalogTemp_8h.html" target="_top" xlink:title=" ">
<polygon fill="white" stroke="#666666" points="1028.5,-74 942.5,-74 942.5,-55 1028.5,-55 1028.5,-74"/>
<text text-anchor="middle" x="985.5" y="-62" font-family="Helvetica,sans-Serif" font-size="10.00">AnalogTemp.h</text>
</a>
</g>
</g>
<!-- Node3&#45;&gt;Node7 -->
<g id="edge6_Node000003_Node000007" class="edge">
<title>Node3&#45;&gt;Node7</title>
<g id="a_edge6_Node000003_Node000007"><a xlink:title=" ">
<path fill="none" stroke="#63b8ff" d="M903.23,-105.5C923.29,-95.75 950.18,-82.68 967.67,-74.17"/>
<polygon fill="#63b8ff" stroke="#63b8ff" points="901.48,-102.46 894.01,-109.98 904.54,-108.76 901.48,-102.46"/>
</a>
</g>
</g>
<!-- Node9 -->
<g id="Node000009" class="node">
<title>Node9</title>
<g id="a_Node000009"><a xlink:href="BMP390Sensor_8h.html" target="_top" xlink:title=" ">
<polygon fill="white" stroke="#666666" points="1144.5,-74 1046.5,-74 1046.5,-55 1144.5,-55 1144.5,-74"/>
<text text-anchor="middle" x="1095.5" y="-62" font-family="Helvetica,sans-Serif" font-size="10.00">BMP390Sensor.h</text>
</a>
</g>
</g>
<!-- Node3&#45;&gt;Node9 -->
<g id="edge9_Node000003_Node000009" class="edge">
<title>Node3&#45;&gt;Node9</title>
<g id="a_edge9_Node000003_Node000009"><a xlink:title=" ">
<path fill="none" stroke="#63b8ff" d="M915.49,-109.06C956.51,-99.14 1020.52,-83.65 1060.13,-74.06"/>
<polygon fill="#63b8ff" stroke="#63b8ff" points="914.48,-105.71 905.58,-111.46 916.12,-112.51 914.48,-105.71"/>
</a>
</g>
</g>
<!-- Node11 -->
<g id="Node000011" class="node">
<title>Node11</title>
<g id="a_Node000011"><a xlink:href="ENS160Sensor_8h.html" target="_top" xlink:title=" ">
<polygon fill="white" stroke="#666666" points="291,-74 196,-74 196,-55 291,-55 291,-74"/>
<text text-anchor="middle" x="243.5" y="-62" font-family="Helvetica,sans-Serif" font-size="10.00">ENS160Sensor.h</text>
</a>
</g>
</g>
<!-- Node3&#45;&gt;Node11 -->
<g id="edge12_Node000003_Node000011" class="edge">
<title>Node3&#45;&gt;Node11</title>
<g id="a_edge12_Node000003_Node000011"><a xlink:title=" ">
<path fill="none" stroke="#63b8ff" d="M837.18,-116.47C743.74,-111.42 501.11,-97.04 299.5,-74 296.76,-73.69 293.96,-73.34 291.13,-72.97"/>
<polygon fill="#63b8ff" stroke="#63b8ff" points="837.13,-119.97 847.31,-117.01 837.51,-112.98 837.13,-119.97"/>
</a>
</g>
</g>
<!-- Node13 -->
<g id="Node000013" class="node">
<title>Node13</title>
<g id="a_Node000013"><a xlink:href="ICM20948Sensor_8h.html" target="_top" xlink:title=" ">
<polygon fill="white" stroke="#666666" points="1270,-74 1163,-74 1163,-55 1270,-55 1270,-74"/>
<text text-anchor="middle" x="1216.5" y="-62" font-family="Helvetica,sans-Serif" font-size="10.00">ICM20948Sensor.h</text>
</a>
</g>
</g>
<!-- Node3&#45;&gt;Node13 -->
<g id="edge15_Node000003_Node000013" class="edge">
<title>Node3&#45;&gt;Node13</title>
<g id="a_edge15_Node000003_Node000013"><a xlink:title=" ">
<path fill="none" stroke="#63b8ff" d="M915.77,-112.38C976.72,-102.88 1094.2,-84.56 1162.9,-73.86"/>
<polygon fill="#63b8ff" stroke="#63b8ff" points="915.12,-108.94 905.78,-113.94 916.2,-115.85 915.12,-108.94"/>
</a>
</g>
</g>
<!-- Node15 -->
<g id="Node000015" class="node">
<title>Node15</title>
<g id="a_Node000015"><a xlink:href="INA260Sensor_8h.html" target="_top" xlink:title=" ">
<polygon fill="white" stroke="#666666" points="1381,-74 1288,-74 1288,-55 1381,-55 1381,-74"/>
<text text-anchor="middle" x="1334.5" y="-62" font-family="Helvetica,sans-Serif" font-size="10.00">INA260Sensor.h</text>
</a>
</g>
</g>
<!-- Node3&#45;&gt;Node15 -->
<g id="edge18_Node000003_Node000015" class="edge">
<title>Node3&#45;&gt;Node15</title>
<g id="a_edge18_Node000003_Node000015"><a xlink:title=" ">
<path fill="none" stroke="#63b8ff" d="M915.79,-114.68C987.82,-107.57 1145.78,-91.41 1278.5,-74 1281.52,-73.6 1284.63,-73.18 1287.77,-72.74"/>
<polygon fill="#63b8ff" stroke="#63b8ff" points="915.41,-111.2 905.8,-115.67 916.1,-118.17 915.41,-111.2"/>
</a>
</g>
</g>
<!-- Node17 -->
<g id="Node000017" class="node">
<title>Node17</title>
<g id="a_Node000017"><a xlink:href="MTK3339Sensor_8h.html" target="_top" xlink:title=" ">
<polygon fill="white" stroke="#666666" points="1503.5,-74 1399.5,-74 1399.5,-55 1503.5,-55 1503.5,-74"/>
<text text-anchor="middle" x="1451.5" y="-62" font-family="Helvetica,sans-Serif" font-size="10.00">MTK3339Sensor.h</text>
</a>
</g>
</g>
<!-- Node3&#45;&gt;Node17 -->
<g id="edge21_Node000003_Node000017" class="edge">
<title>Node3&#45;&gt;Node17</title>
<g id="a_edge21_Node000003_Node000017"><a xlink:title=" ">
<path fill="none" stroke="#63b8ff" d="M915.86,-115.76C1001.91,-109.61 1213.17,-93.72 1389.5,-74 1392.74,-73.64 1396.07,-73.24 1399.43,-72.83"/>
<polygon fill="#63b8ff" stroke="#63b8ff" points="915.49,-112.27 905.76,-116.47 915.98,-119.26 915.49,-112.27"/>
</a>
</g>
</g>
<!-- Node19 -->
<g id="Node000019" class="node">
<title>Node19</title>
<g id="a_Node000019"><a xlink:href="OzoneSensor_8h.html" target="_top" xlink:title=" ">
<polygon fill="white" stroke="#666666" points="513,-74 424,-74 424,-55 513,-55 513,-74"/>
<text text-anchor="middle" x="468.5" y="-62" font-family="Helvetica,sans-Serif" font-size="10.00">OzoneSensor.h</text>
</a>
</g>
</g>
<!-- Node3&#45;&gt;Node19 -->
<g id="edge24_Node000003_Node000019" class="edge">
<title>Node3&#45;&gt;Node19</title>
<g id="a_edge24_Node000003_Node000019"><a xlink:title=" ">
<path fill="none" stroke="#63b8ff" d="M837.19,-114.02C771.65,-106.45 635.96,-90.35 521.5,-74 518.73,-73.6 515.89,-73.19 513.02,-72.75"/>
<polygon fill="#63b8ff" stroke="#63b8ff" points="837.13,-117.54 847.46,-115.2 837.93,-110.58 837.13,-117.54"/>
</a>
</g>
</g>
<!-- Node21 -->
<g id="Node000021" class="node">
<title>Node21</title>
<g id="a_Node000021"><a xlink:href="PCF8523Sensor_8h.html" target="_top" xlink:title=" ">
<polygon fill="white" stroke="#666666" points="632,-74 531,-74 531,-55 632,-55 632,-74"/>
<text text-anchor="middle" x="581.5" y="-62" font-family="Helvetica,sans-Serif" font-size="10.00">PCF8523Sensor.h</text>
</a>
</g>
</g>
<!-- Node3&#45;&gt;Node21 -->
<g id="edge27_Node000003_Node000021" class="edge">
<title>Node3&#45;&gt;Node21</title>
<g id="a_edge27_Node000003_Node000021"><a xlink:title=" ">
<path fill="none" stroke="#63b8ff" d="M837.24,-111.45C783.4,-101.77 686.8,-84.42 628.97,-74.03"/>
<polygon fill="#63b8ff" stroke="#63b8ff" points="836.95,-114.95 847.41,-113.27 838.18,-108.06 836.95,-114.95"/>
</a>
</g>
</g>
<!-- Node23 -->
<g id="Node000023" class="node">
<title>Node23</title>
<g id="a_Node000023"><a xlink:href="SHTC3Sensor_8h.html" target="_top" xlink:title=" ">
<polygon fill="white" stroke="#666666" points="178,-74 89,-74 89,-55 178,-55 178,-74"/>
<text text-anchor="middle" x="133.5" y="-62" font-family="Helvetica,sans-Serif" font-size="10.00">SHTC3Sensor.h</text>
</a>
</g>
</g>
<!-- Node3&#45;&gt;Node23 -->
<g id="edge30_Node000003_Node000023" class="edge">
<title>Node3&#45;&gt;Node23</title>
<g id="a_edge30_Node000003_Node000023"><a xlink:title=" ">
<path fill="none" stroke="#63b8ff" d="M837.32,-117.27C731.86,-113.69 433.31,-101.69 186.5,-74 183.81,-73.7 181.06,-73.36 178.28,-72.99"/>
<polygon fill="#63b8ff" stroke="#63b8ff" points="837.38,-120.78 847.49,-117.61 837.61,-113.78 837.38,-120.78"/>
</a>
</g>
</g>
<!-- Node25 -->
<g id="Node000025" class="node">
<title>Node25</title>
<g id="a_Node000025"><a xlink:href="TMP11xSensor_8h.html" target="_top" xlink:title=" ">
<polygon fill="white" stroke="#666666" points="406,-74 309,-74 309,-55 406,-55 406,-74"/>
<text text-anchor="middle" x="357.5" y="-62" font-family="Helvetica,sans-Serif" font-size="10.00">TMP11xSensor.h</text>
</a>
</g>
</g>
<!-- Node3&#45;&gt;Node25 -->
<g id="edge34_Node000003_Node000025" class="edge">
<title>Node3&#45;&gt;Node25</title>
<g id="a_edge34_Node000003_Node000025"><a xlink:title=" ">
<path fill="none" stroke="#63b8ff" d="M837.16,-115.41C757.33,-108.97 570.65,-93.15 414.5,-74 411.82,-73.67 409.07,-73.32 406.29,-72.95"/>
<polygon fill="#63b8ff" stroke="#63b8ff" points="837.01,-118.9 847.25,-116.21 837.57,-111.93 837.01,-118.9"/>
</a>
</g>
</g>
<!-- Node27 -->
<g id="Node000027" class="node">
<title>Node27</title>
<g id="a_Node000027"><a xlink:href="TempSensor_8h.html" target="_top" xlink:title=" ">
<polygon fill="white" stroke="#666666" points="772.5,-74 688.5,-74 688.5,-55 772.5,-55 772.5,-74"/>
<text text-anchor="middle" x="730.5" y="-62" font-family="Helvetica,sans-Serif" font-size="10.00">TempSensor.h</text>
</a>
</g>
</g>
<!-- Node3&#45;&gt;Node27 -->
<g id="edge38_Node000003_Node000027" class="edge">
<title>Node3&#45;&gt;Node27</title>
<g id="a_edge38_Node000003_Node000027"><a xlink:title=" ">
<path fill="none" stroke="#63b8ff" d="M843.58,-106.55C816.47,-96.71 778.67,-82.98 754.38,-74.17"/>
<polygon fill="#63b8ff" stroke="#63b8ff" points="842.45,-109.86 853.04,-109.98 844.84,-103.28 842.45,-109.86"/>
</a>
</g>
</g>
<!-- Node5 -->
<g id="Node000005" class="node">
<title>Node5</title>
<g id="a_Node000005"><a xlink:href="AS7331Sensor_8cpp.html" target="_top" xlink:title=" ">
<polygon fill="white" stroke="#666666" points="918.5,-19 812.5,-19 812.5,0 918.5,0 918.5,-19"/>
<text text-anchor="middle" x="865.5" y="-7" font-family="Helvetica,sans-Serif" font-size="10.00">AS7331Sensor.cpp</text>
</a>
</g>
</g>
<!-- Node4&#45;&gt;Node5 -->
<g id="edge4_Node000004_Node000005" class="edge">
<title>Node4&#45;&gt;Node5</title>
<g id="a_edge4_Node000004_Node000005"><a xlink:title=" ">
<path fill="none" stroke="#63b8ff" d="M872.65,-44.95C870.82,-36.15 868.73,-26.06 867.28,-19.09"/>
<polygon fill="#63b8ff" stroke="#63b8ff" points="869.22,-45.67 874.68,-54.75 876.08,-44.25 869.22,-45.67"/>
</a>
</g>
</g>
<!-- Node4&#45;&gt;Node6 -->
<g id="edge5_Node000004_Node000006" class="edge">
<title>Node4&#45;&gt;Node6</title>
<g id="a_edge5_Node000004_Node000006"><a xlink:title=" ">
<path fill="none" stroke="#63b8ff" d="M849.07,-50.63C828.25,-40.87 800.2,-27.71 781.99,-19.17"/>
<polygon fill="#63b8ff" stroke="#63b8ff" points="847.8,-53.91 858.34,-54.98 850.78,-47.57 847.8,-53.91"/>
</a>
</g>
</g>
<!-- Node7&#45;&gt;Node6 -->
<g id="edge8_Node000007_Node000006" class="edge">
<title>Node7&#45;&gt;Node6</title>
<g id="a_edge8_Node000007_Node000006"><a xlink:title=" ">
<path fill="none" stroke="#63b8ff" d="M939.83,-52.6C896.51,-42.26 832.58,-26.99 794.77,-17.97"/>
<polygon fill="#63b8ff" stroke="#63b8ff" points="939.29,-56.07 949.83,-54.98 940.92,-49.26 939.29,-56.07"/>
</a>
</g>
</g>
<!-- Node8 -->
<g id="Node000008" class="node">
<title>Node8</title>
<g id="a_Node000008"><a xlink:href="AnalogTemp_8cpp.html" target="_top" xlink:title=" ">
<polygon fill="white" stroke="#666666" points="1034,-19 937,-19 937,0 1034,0 1034,-19"/>
<text text-anchor="middle" x="985.5" y="-7" font-family="Helvetica,sans-Serif" font-size="10.00">AnalogTemp.cpp</text>
</a>
</g>
</g>
<!-- Node7&#45;&gt;Node8 -->
<g id="edge7_Node000007_Node000008" class="edge">
<title>Node7&#45;&gt;Node8</title>
<g id="a_edge7_Node000007_Node000008"><a xlink:title=" ">
<path fill="none" stroke="#63b8ff" d="M985.5,-44.66C985.5,-35.93 985.5,-25.99 985.5,-19.09"/>
<polygon fill="#63b8ff" stroke="#63b8ff" points="982,-44.75 985.5,-54.75 989,-44.75 982,-44.75"/>
</a>
</g>
</g>
<!-- Node9&#45;&gt;Node6 -->
<g id="edge11_Node000009_Node000006" class="edge">
<title>Node9&#45;&gt;Node6</title>
<g id="a_edge11_Node000009_Node000006"><a xlink:title=" ">
<path fill="none" stroke="#63b8ff" d="M1036,-54.62C957.3,-42.85 825.86,-23.08 803.5,-19 800.71,-18.49 797.81,-17.93 794.91,-17.35"/>
<polygon fill="#63b8ff" stroke="#63b8ff" points="1035.87,-58.14 1046.27,-56.16 1036.9,-51.22 1035.87,-58.14"/>
</a>
</g>
</g>
<!-- Node10 -->
<g id="Node000010" class="node">
<title>Node10</title>
<g id="a_Node000010"><a xlink:href="BMP390Sensor_8cpp.html" target="_top" xlink:title=" ">
<polygon fill="white" stroke="#666666" points="1161,-19 1052,-19 1052,0 1161,0 1161,-19"/>
<text text-anchor="middle" x="1106.5" y="-7" font-family="Helvetica,sans-Serif" font-size="10.00">BMP390Sensor.cpp</text>
</a>
</g>
</g>
<!-- Node9&#45;&gt;Node10 -->
<g id="edge10_Node000009_Node000010" class="edge">
<title>Node9&#45;&gt;Node10</title>
<g id="a_edge10_Node000009_Node000010"><a xlink:title=" ">
<path fill="none" stroke="#63b8ff" d="M1099.35,-44.95C1101.18,-36.15 1103.27,-26.06 1104.72,-19.09"/>
<polygon fill="#63b8ff" stroke="#63b8ff" points="1095.92,-44.25 1097.32,-54.75 1102.78,-45.67 1095.92,-44.25"/>
</a>
</g>
</g>
<!-- Node11&#45;&gt;Node6 -->
<g id="edge14_Node000011_Node000006" class="edge">
<title>Node11&#45;&gt;Node6</title>
<g id="a_edge14_Node000011_Node000006"><a xlink:title=" ">
<path fill="none" stroke="#63b8ff" d="M301.32,-54.86C488.64,-33.29 539.07,-45.72 722.5,-19 725.67,-18.54 728.95,-17.99 732.23,-17.38"/>
<polygon fill="#63b8ff" stroke="#63b8ff" points="300.66,-51.42 291.13,-56.05 301.47,-58.37 300.66,-51.42"/>
</a>
</g>
</g>
<!-- Node12 -->
<g id="Node000012" class="node">
<title>Node12</title>
<g id="a_Node000012"><a xlink:href="ENS160Sensor_8cpp.html" target="_top" xlink:title=" ">
<polygon fill="white" stroke="#666666" points="226,-19 119,-19 119,0 226,0 226,-19"/>
<text text-anchor="middle" x="172.5" y="-7" font-family="Helvetica,sans-Serif" font-size="10.00">ENS160Sensor.cpp</text>
</a>
</g>
</g>
<!-- Node11&#45;&gt;Node12 -->
<g id="edge13_Node000011_Node000012" class="edge">
<title>Node11&#45;&gt;Node12</title>
<g id="a_edge13_Node000011_Node000012"><a xlink:title=" ">
<path fill="none" stroke="#63b8ff" d="M223.91,-48.88C211.13,-39.34 194.89,-27.21 184.11,-19.17"/>
<polygon fill="#63b8ff" stroke="#63b8ff" points="221.99,-51.81 232.09,-54.98 226.17,-46.2 221.99,-51.81"/>
</a>
</g>
</g>
<!-- Node13&#45;&gt;Node6 -->
<g id="edge17_Node000013_Node000006" class="edge">
<title>Node13&#45;&gt;Node6</title>
<g id="a_edge17_Node000013_Node000006"><a xlink:title=" ">
<path fill="none" stroke="#63b8ff" d="M1152.92,-54.98C996.52,-36.81 954.81,-42.79 803.5,-19 800.69,-18.56 797.79,-18.05 794.88,-17.5"/>
<polygon fill="#63b8ff" stroke="#63b8ff" points="1152.56,-58.46 1162.9,-56.15 1153.38,-51.51 1152.56,-58.46"/>
</a>
</g>
</g>
<!-- Node14 -->
<g id="Node000014" class="node">
<title>Node14</title>
<g id="a_Node000014"><a xlink:href="ICM20948Sensor_8cpp.html" target="_top" xlink:title=" ">
<polygon fill="white" stroke="#666666" points="1297.5,-19 1179.5,-19 1179.5,0 1297.5,0 1297.5,-19"/>
<text text-anchor="middle" x="1238.5" y="-7" font-family="Helvetica,sans-Serif" font-size="10.00">ICM20948Sensor.cpp</text>
</a>
</g>
</g>
<!-- Node13&#45;&gt;Node14 -->
<g id="edge16_Node000013_Node000014" class="edge">
<title>Node13&#45;&gt;Node14</title>
<g id="a_edge16_Node000013_Node000014"><a xlink:title=" ">
<path fill="none" stroke="#63b8ff" d="M1224.08,-45.24C1227.76,-36.37 1232.01,-26.14 1234.93,-19.09"/>
<polygon fill="#63b8ff" stroke="#63b8ff" points="1220.73,-44.17 1220.13,-54.75 1227.2,-46.85 1220.73,-44.17"/>
</a>
</g>
</g>
<!-- Node15&#45;&gt;Node6 -->
<g id="edge20_Node000015_Node000006" class="edge">
<title>Node15&#45;&gt;Node6</title>
<g id="a_edge20_Node000015_Node000006"><a xlink:title=" ">
<path fill="none" stroke="#63b8ff" d="M1277.61,-55C1066.38,-31.65 1009.8,-48.6 803.5,-19 800.69,-18.6 797.78,-18.11 794.87,-17.58"/>
<polygon fill="#63b8ff" stroke="#63b8ff" points="1277.46,-58.5 1287.78,-56.14 1278.24,-51.55 1277.46,-58.5"/>
</a>
</g>
</g>
<!-- Node16 -->
<g id="Node000016" class="node">
<title>Node16</title>
<g id="a_Node000016"><a xlink:href="INA260Sensor_8cpp.html" target="_top" xlink:title=" ">
<polygon fill="white" stroke="#666666" points="1419.5,-19 1315.5,-19 1315.5,0 1419.5,0 1419.5,-19"/>
<text text-anchor="middle" x="1367.5" y="-7" font-family="Helvetica,sans-Serif" font-size="10.00">INA260Sensor.cpp</text>
</a>
</g>
</g>
<!-- Node15&#45;&gt;Node16 -->
<g id="edge19_Node000015_Node000016" class="edge">
<title>Node15&#45;&gt;Node16</title>
<g id="a_edge19_Node000015_Node000016"><a xlink:title=" ">
<path fill="none" stroke="#63b8ff" d="M1345.33,-46.1C1350.97,-37.04 1357.62,-26.37 1362.15,-19.09"/>
<polygon fill="#63b8ff" stroke="#63b8ff" points="1342.26,-44.41 1339.95,-54.75 1348.21,-48.11 1342.26,-44.41"/>
</a>
</g>
</g>
<!-- Node17&#45;&gt;Node6 -->
<g id="edge23_Node000017_Node000006" class="edge">
<title>Node17&#45;&gt;Node6</title>
<g id="a_edge23_Node000017_Node000006"><a xlink:title=" ">
<path fill="none" stroke="#63b8ff" d="M1389.27,-55.08C1128.09,-29.88 1058.77,-53.77 803.5,-19 800.69,-18.62 797.78,-18.15 794.87,-17.62"/>
<polygon fill="#63b8ff" stroke="#63b8ff" points="1389.14,-58.58 1399.44,-56.07 1389.83,-51.62 1389.14,-58.58"/>
</a>
</g>
</g>
<!-- Node18 -->
<g id="Node000018" class="node">
<title>Node18</title>
<g id="a_Node000018"><a xlink:href="MTK3339Sensor_8cpp.html" target="_top" xlink:title=" ">
<polygon fill="white" stroke="#666666" points="1553,-19 1438,-19 1438,0 1553,0 1553,-19"/>
<text text-anchor="middle" x="1495.5" y="-7" font-family="Helvetica,sans-Serif" font-size="10.00">MTK3339Sensor.cpp</text>
</a>
</g>
</g>
<!-- Node17&#45;&gt;Node18 -->
<g id="edge22_Node000017_Node000018" class="edge">
<title>Node17&#45;&gt;Node18</title>
<g id="a_edge22_Node000017_Node000018"><a xlink:title=" ">
<path fill="none" stroke="#63b8ff" d="M1465.23,-46.96C1472.9,-37.72 1482.13,-26.6 1488.37,-19.09"/>
<polygon fill="#63b8ff" stroke="#63b8ff" points="1462.46,-44.82 1458.77,-54.75 1467.85,-49.29 1462.46,-44.82"/>
</a>
</g>
</g>
<!-- Node19&#45;&gt;Node6 -->
<g id="edge26_Node000019_Node000006" class="edge">
<title>Node19&#45;&gt;Node6</title>
<g id="a_edge26_Node000019_Node000006"><a xlink:title=" ">
<path fill="none" stroke="#63b8ff" d="M523,-54.45C574.49,-45.79 653.86,-32.12 722.5,-19 725.64,-18.4 728.91,-17.75 732.18,-17.1"/>
<polygon fill="#63b8ff" stroke="#63b8ff" points="522.37,-51.01 513.08,-56.12 523.52,-57.91 522.37,-51.01"/>
</a>
</g>
</g>
<!-- Node20 -->
<g id="Node000020" class="node">
<title>Node20</title>
<g id="a_Node000020"><a xlink:href="OzoneSensor_8cpp.html" target="_top" xlink:title=" ">
<polygon fill="white" stroke="#666666" points="470.5,-19 370.5,-19 370.5,0 470.5,0 470.5,-19"/>
<text text-anchor="middle" x="420.5" y="-7" font-family="Helvetica,sans-Serif" font-size="10.00">OzoneSensor.cpp</text>
</a>
</g>
</g>
<!-- Node19&#45;&gt;Node20 -->
<g id="edge25_Node000019_Node000020" class="edge">
<title>Node19&#45;&gt;Node20</title>
<g id="a_edge25_Node000019_Node000020"><a xlink:title=" ">
<path fill="none" stroke="#63b8ff" d="M453.77,-47.24C445.36,-37.95 435.15,-26.68 428.28,-19.09"/>
<polygon fill="#63b8ff" stroke="#63b8ff" points="451.27,-49.69 460.57,-54.75 456.46,-44.99 451.27,-49.69"/>
</a>
</g>
</g>
<!-- Node21&#45;&gt;Node6 -->
<g id="edge29_Node000021_Node000006" class="edge">
<title>Node21&#45;&gt;Node6</title>
<g id="a_edge29_Node000021_Node000006"><a xlink:title=" ">
<path fill="none" stroke="#63b8ff" d="M620.36,-52.18C654.4,-42.27 703.12,-28.08 734.03,-19.08"/>
<polygon fill="#63b8ff" stroke="#63b8ff" points="619.36,-48.83 610.74,-54.98 621.32,-55.55 619.36,-48.83"/>
</a>
</g>
</g>
<!-- Node22 -->
<g id="Node000022" class="node">
<title>Node22</title>
<g id="a_Node000022"><a xlink:href="PCF8523Sensor_8cpp.html" target="_top" xlink:title=" ">
<polygon fill="white" stroke="#666666" points="600.5,-19 488.5,-19 488.5,0 600.5,0 600.5,-19"/>
<text text-anchor="middle" x="544.5" y="-7" font-family="Helvetica,sans-Serif" font-size="10.00">PCF8523Sensor.cpp</text>
</a>
</g>
</g>
<!-- Node21&#45;&gt;Node22 -->
<g id="edge28_Node000021_Node000022" class="edge">
<title>Node21&#45;&gt;Node22</title>
<g id="a_edge28_Node000021_Node000022"><a xlink:title=" ">
<path fill="none" stroke="#63b8ff" d="M569.55,-46.39C563.19,-37.27 555.63,-26.45 550.5,-19.09"/>
<polygon fill="#63b8ff" stroke="#63b8ff" points="566.8,-48.55 575.39,-54.75 572.54,-44.55 566.8,-48.55"/>
</a>
</g>
</g>
<!-- Node23&#45;&gt;Node6 -->
<g id="edge33_Node000023_Node000006" class="edge">
<title>Node23&#45;&gt;Node6</title>
<g id="a_edge33_Node000023_Node000006"><a xlink:title=" ">
<path fill="none" stroke="#63b8ff" d="M188.25,-54.9C425.47,-28.69 489.17,-50.87 722.5,-19 725.67,-18.57 728.96,-18.03 732.24,-17.44"/>
<polygon fill="#63b8ff" stroke="#63b8ff" points="187.83,-51.43 178.28,-56.02 188.61,-58.38 187.83,-51.43"/>
</a>
</g>
</g>
<!-- Node23&#45;&gt;Node12 -->
<g id="edge31_Node000023_Node000012" class="edge">
<title>Node23&#45;&gt;Node12</title>
<g id="a_edge31_Node000023_Node000012"><a xlink:title=" ">
<path fill="none" stroke="#63b8ff" d="M145.88,-46.67C152.64,-37.5 160.71,-26.52 166.18,-19.09"/>
<polygon fill="#63b8ff" stroke="#63b8ff" points="143.05,-44.62 139.94,-54.75 148.69,-48.77 143.05,-44.62"/>
</a>
</g>
</g>
<!-- Node24 -->
<g id="Node000024" class="node">
<title>Node24</title>
<g id="a_Node000024"><a xlink:href="SHTC3Sensor_8cpp.html" target="_top" xlink:title=" ">
<polygon fill="white" stroke="#666666" points="101,-19 0,-19 0,0 101,0 101,-19"/>
<text text-anchor="middle" x="50.5" y="-7" font-family="Helvetica,sans-Serif" font-size="10.00">SHTC3Sensor.cpp</text>
</a>
</g>
</g>
<!-- Node23&#45;&gt;Node24 -->
<g id="edge32_Node000023_Node000024" class="edge">
<title>Node23&#45;&gt;Node24</title>
<g id="a_edge32_Node000023_Node000024"><a xlink:title=" ">
<path fill="none" stroke="#63b8ff" d="M111.46,-49.42C96.39,-39.81 76.91,-27.37 64.08,-19.17"/>
<polygon fill="#63b8ff" stroke="#63b8ff" points="109.85,-52.55 120.16,-54.98 113.62,-46.65 109.85,-52.55"/>
</a>
</g>
</g>
<!-- Node25&#45;&gt;Node6 -->
<g id="edge37_Node000025_Node000006" class="edge">
<title>Node25&#45;&gt;Node6</title>
<g id="a_edge37_Node000025_Node000006"><a xlink:title=" ">
<path fill="none" stroke="#63b8ff" d="M416.31,-54.8C552.83,-37.02 589.64,-40.49 722.5,-19 725.66,-18.49 728.94,-17.9 732.21,-17.28"/>
<polygon fill="#63b8ff" stroke="#63b8ff" points="415.76,-51.34 406.3,-56.12 416.67,-58.28 415.76,-51.34"/>
</a>
</g>
</g>
<!-- Node25&#45;&gt;Node12 -->
<g id="edge35_Node000025_Node000012" class="edge">
<title>Node25&#45;&gt;Node12</title>
<g id="a_edge35_Node000025_Node000012"><a xlink:title=" ">
<path fill="none" stroke="#63b8ff" d="M318,-52.18C283.4,-42.27 233.87,-28.08 202.46,-19.08"/>
<polygon fill="#63b8ff" stroke="#63b8ff" points="317.2,-55.6 327.78,-54.98 319.13,-48.87 317.2,-55.6"/>
</a>
</g>
</g>
<!-- Node26 -->
<g id="Node000026" class="node">
<title>Node26</title>
<g id="a_Node000026"><a xlink:href="TMP11xSensor_8cpp.html" target="_top" xlink:title=" ">
<polygon fill="white" stroke="#666666" points="352.5,-19 244.5,-19 244.5,0 352.5,0 352.5,-19"/>
<text text-anchor="middle" x="298.5" y="-7" font-family="Helvetica,sans-Serif" font-size="10.00">TMP11xSensor.cpp</text>
</a>
</g>
</g>
<!-- Node25&#45;&gt;Node26 -->
<g id="edge36_Node000025_Node000026" class="edge">
<title>Node25&#45;&gt;Node26</title>
<g id="a_edge36_Node000025_Node000026"><a xlink:title=" ">
<path fill="none" stroke="#63b8ff" d="M340.3,-48.04C329.83,-38.64 316.85,-26.98 308.15,-19.17"/>
<polygon fill="#63b8ff" stroke="#63b8ff" points="338.24,-50.91 348.02,-54.98 342.92,-45.7 338.24,-50.91"/>
</a>
</g>
</g>
<!-- Node27&#45;&gt;Node6 -->
<g id="edge40_Node000027_Node000006" class="edge">
<title>Node27&#45;&gt;Node6</title>
<g id="a_edge40_Node000027_Node000006"><a xlink:title=" ">
<path fill="none" stroke="#63b8ff" d="M741.33,-46.1C746.97,-37.04 753.62,-26.37 758.15,-19.09"/>
<polygon fill="#63b8ff" stroke="#63b8ff" points="738.26,-44.41 735.95,-54.75 744.21,-48.11 738.26,-44.41"/>
</a>
</g>
</g>
<!-- Node28 -->
<g id="Node000028" class="node">
<title>Node28</title>
<g id="a_Node000028"><a xlink:href="TempSensor_8cpp.html" target="_top" xlink:title=" ">
<polygon fill="white" stroke="#666666" points="714,-19 619,-19 619,0 714,0 714,-19"/>
<text text-anchor="middle" x="666.5" y="-7" font-family="Helvetica,sans-Serif" font-size="10.00">TempSensor.cpp</text>
</a>
</g>
</g>
<!-- Node27&#45;&gt;Node28 -->
<g id="edge39_Node000027_Node000028" class="edge">
<title>Node27&#45;&gt;Node28</title>
<g id="a_edge39_Node000027_Node000028"><a xlink:title=" ">
<path fill="none" stroke="#63b8ff" d="M712.51,-48.6C701.04,-39.11 686.59,-27.13 676.97,-19.17"/>
<polygon fill="#63b8ff" stroke="#63b8ff" points="710.28,-51.3 720.22,-54.98 714.75,-45.91 710.28,-51.3"/>
</a>
</g>
</g>
<!-- Node30 -->
<g id="Node000030" class="node">
<title>Node30</title>
<g id="a_Node000030"><a xlink:href="FlashStorage_8h.html" target="_top" xlink:title=" ">
<polygon fill="white" stroke="#666666" points="1799,-74 1710,-74 1710,-55 1799,-55 1799,-74"/>
<text text-anchor="middle" x="1754.5" y="-62" font-family="Helvetica,sans-Serif" font-size="10.00">FlashStorage.h</text>
</a>
</g>
</g>
<!-- Node29&#45;&gt;Node30 -->
<g id="edge43_Node000029_Node000030" class="edge">
<title>Node29&#45;&gt;Node30</title>
<g id="a_edge43_Node000029_Node000030"><a xlink:title=" ">
<path fill="none" stroke="#63b8ff" d="M1673.74,-105.5C1693.43,-95.75 1719.82,-82.68 1737,-74.17"/>
<polygon fill="#63b8ff" stroke="#63b8ff" points="1672.1,-102.41 1664.69,-109.98 1675.21,-108.68 1672.1,-102.41"/>
</a>
</g>
</g>
<!-- Node29&#45;&gt;Node32 -->
<g id="edge52_Node000029_Node000032" class="edge">
<title>Node29&#45;&gt;Node32</title>
<g id="a_edge52_Node000029_Node000032"><a xlink:title=" ">
<path fill="none" stroke="#63b8ff" d="M1658.01,-100.76C1671.93,-77.28 1695.91,-36.81 1706.37,-19.16"/>
<polygon fill="#63b8ff" stroke="#63b8ff" points="1654.82,-99.27 1652.74,-109.66 1660.85,-102.84 1654.82,-99.27"/>
</a>
</g>
</g>
<!-- Node33 -->
<g id="Node000033" class="node">
<title>Node33</title>
<g id="a_Node000033"><a xlink:href="RadioStorage_8h.html" target="_top" xlink:title=" ">
<polygon fill="white" stroke="#666666" points="1908,-74 1817,-74 1817,-55 1908,-55 1908,-74"/>
<text text-anchor="middle" x="1862.5" y="-62" font-family="Helvetica,sans-Serif" font-size="10.00">RadioStorage.h</text>
</a>
</g>
</g>
<!-- Node29&#45;&gt;Node33 -->
<g id="edge46_Node000029_Node000033" class="edge">
<title>Node29&#45;&gt;Node33</title>
<g id="a_edge46_Node000029_Node000033"><a xlink:title=" ">
<path fill="none" stroke="#63b8ff" d="M1689.02,-108.26C1729.37,-98.32 1789.94,-83.39 1827.79,-74.06"/>
<polygon fill="#63b8ff" stroke="#63b8ff" points="1688.1,-104.89 1679.22,-110.68 1689.77,-111.68 1688.1,-104.89"/>
</a>
</g>
</g>
<!-- Node35 -->
<g id="Node000035" class="node">
<title>Node35</title>
<g id="a_Node000035"><a xlink:href="SDStorage_8h.html" target="_top" xlink:title=" ">
<polygon fill="white" stroke="#666666" points="1653,-74 1576,-74 1576,-55 1653,-55 1653,-74"/>
<text text-anchor="middle" x="1614.5" y="-62" font-family="Helvetica,sans-Serif" font-size="10.00">SDStorage.h</text>
</a>
</g>
</g>
<!-- Node29&#45;&gt;Node35 -->
<g id="edge49_Node000029_Node000035" class="edge">
<title>Node29&#45;&gt;Node35</title>
<g id="a_edge49_Node000029_Node000035"><a xlink:title=" ">
<path fill="none" stroke="#63b8ff" d="M1636.67,-101.1C1631.03,-92.04 1624.38,-81.37 1619.85,-74.09"/>
<polygon fill="#63b8ff" stroke="#63b8ff" points="1633.79,-103.11 1642.05,-109.75 1639.74,-99.41 1633.79,-103.11"/>
</a>
</g>
</g>
<!-- Node31 -->
<g id="Node000031" class="node">
<title>Node31</title>
<g id="a_Node000031"><a xlink:href="FlashStorage_8cpp.html" target="_top" xlink:title=" ">
<polygon fill="white" stroke="#666666" points="1865,-19 1764,-19 1764,0 1865,0 1865,-19"/>
<text text-anchor="middle" x="1814.5" y="-7" font-family="Helvetica,sans-Serif" font-size="10.00">FlashStorage.cpp</text>
</a>
</g>
</g>
<!-- Node30&#45;&gt;Node31 -->
<g id="edge44_Node000030_Node000031" class="edge">
<title>Node30&#45;&gt;Node31</title>
<g id="a_edge44_Node000030_Node000031"><a xlink:title=" ">
<path fill="none" stroke="#63b8ff" d="M1771.68,-48.32C1782.38,-38.87 1795.76,-27.06 1804.68,-19.17"/>
<polygon fill="#63b8ff" stroke="#63b8ff" points="1769.32,-45.74 1764.14,-54.98 1773.95,-50.99 1769.32,-45.74"/>
</a>
</g>
</g>
<!-- Node30&#45;&gt;Node32 -->
<g id="edge45_Node000030_Node000032" class="edge">
<title>Node30&#45;&gt;Node32</title>
<g id="a_edge45_Node000030_Node000032"><a xlink:title=" ">
<path fill="none" stroke="#63b8ff" d="M1741.08,-46.96C1733.59,-37.72 1724.56,-26.6 1718.47,-19.09"/>
<polygon fill="#63b8ff" stroke="#63b8ff" points="1738.38,-49.19 1747.4,-54.75 1743.82,-44.78 1738.38,-49.19"/>
</a>
</g>
</g>
<!-- Node33&#45;&gt;Node32 -->
<g id="edge48_Node000033_Node000032" class="edge">
<title>Node33&#45;&gt;Node32</title>
<g id="a_edge48_Node000033_Node000032"><a xlink:title=" ">
<path fill="none" stroke="#63b8ff" d="M1828.45,-51.55C1800.41,-41.71 1761.32,-27.98 1736.2,-19.17"/>
<polygon fill="#63b8ff" stroke="#63b8ff" points="1827.64,-54.98 1838.24,-54.98 1829.96,-48.37 1827.64,-54.98"/>
</a>
</g>
</g>
<!-- Node33&#45;&gt;Node34 -->
<g id="edge47_Node000033_Node000034" class="edge">
<title>Node33&#45;&gt;Node34</title>
<g id="a_edge47_Node000033_Node000034"><a xlink:title=" ">
<path fill="none" stroke="#63b8ff" d="M1882.64,-48.88C1895.78,-39.34 1912.48,-27.21 1923.56,-19.17"/>
<polygon fill="#63b8ff" stroke="#63b8ff" points="1880.26,-46.28 1874.23,-54.98 1884.38,-51.94 1880.26,-46.28"/>
</a>
</g>
</g>
<!-- Node35&#45;&gt;Node32 -->
<g id="edge51_Node000035_Node000032" class="edge">
<title>Node35&#45;&gt;Node32</title>
<g id="a_edge51_Node000035_Node000032"><a xlink:title=" ">
<path fill="none" stroke="#63b8ff" d="M1639.27,-49.97C1657,-40.28 1680.35,-27.52 1695.63,-19.17"/>
<polygon fill="#63b8ff" stroke="#63b8ff" points="1637.18,-47.12 1630.08,-54.98 1640.54,-53.26 1637.18,-47.12"/>
</a>
</g>
</g>
<!-- Node36 -->
<g id="Node000036" class="node">
<title>Node36</title>
<g id="a_Node000036"><a xlink:href="SDStorage_8cpp.html" target="_top" xlink:title=" ">
<polygon fill="white" stroke="#666666" points="1659.5,-19 1571.5,-19 1571.5,0 1659.5,0 1659.5,-19"/>
<text text-anchor="middle" x="1615.5" y="-7" font-family="Helvetica,sans-Serif" font-size="10.00">SDStorage.cpp</text>
</a>
</g>
</g>
<!-- Node35&#45;&gt;Node36 -->
<g id="edge50_Node000035_Node000036" class="edge">
<title>Node35&#45;&gt;Node36</title>
<g id="a_edge50_Node000035_Node000036"><a xlink:title=" ">
<path fill="none" stroke="#63b8ff" d="M1614.86,-44.66C1615.02,-35.93 1615.21,-25.99 1615.34,-19.09"/>
<polygon fill="#63b8ff" stroke="#63b8ff" points="1611.35,-44.68 1614.67,-54.75 1618.35,-44.82 1611.35,-44.68"/>
</a>
</g>
</g>
</g>
</svg>
