<?xml version="1.0" encoding="UTF-8" standalone="no"?>
<!DOCTYPE svg PUBLIC "-//W3C//DTD SVG 1.1//EN"
 "http://www.w3.org/Graphics/SVG/1.1/DTD/svg11.dtd">
<!-- Generated by graphviz version 2.43.0 (0)
 -->
<!-- Title: Logger.h Pages: 1 -->
<svg width="1896pt" height="247pt"
 viewBox="0.00 0.00 1896.00 247.00" xmlns="http://www.w3.org/2000/svg" xmlns:xlink="http://www.w3.org/1999/xlink">
<g id="graph0" class="graph" transform="scale(1 1) rotate(0) translate(4 243)">
<title>Logger.h</title>
<!-- Node1 -->
<g id="Node000001" class="node">
<title>Node1</title>
<g id="a_Node000001"><a xlink:title=" ">
<polygon fill="#999999" stroke="#666666" points="1617,-239 1559,-239 1559,-220 1617,-220 1617,-239"/>
<text text-anchor="middle" x="1588" y="-227" font-family="Helvetica,sans-Serif" font-size="10.00">Logger.h</text>
</a>
</g>
</g>
<!-- Node2 -->
<g id="Node000002" class="node">
<title>Node2</title>
<g id="a_Node000002"><a xlink:href="Device_8h.html" target="_top" xlink:title=" ">
<polygon fill="white" stroke="#666666" points="1646.5,-184 1587.5,-184 1587.5,-165 1646.5,-165 1646.5,-184"/>
<text text-anchor="middle" x="1617" y="-172" font-family="Helvetica,sans-Serif" font-size="10.00">Device.h</text>
</a>
</g>
</g>
<!-- Node1&#45;&gt;Node2 -->
<g id="edge1_Node000001_Node000002" class="edge">
<title>Node1&#45;&gt;Node2</title>
<g id="a_edge1_Node000001_Node000002"><a xlink:title=" ">
<path fill="none" stroke="#63b8ff" d="M1597.68,-210.82C1602.6,-201.82 1608.36,-191.29 1612.3,-184.09"/>
<polygon fill="#63b8ff" stroke="#63b8ff" points="1594.52,-209.3 1592.79,-219.75 1600.66,-212.66 1594.52,-209.3"/>
</a>
</g>
</g>
<!-- Node3 -->
<g id="Node000003" class="node">
<title>Node3</title>
<g id="a_Node000003"><a xlink:href="Sensor_8h.html" target="_top" xlink:title=" ">
<polygon fill="white" stroke="#666666" points="872,-129 814,-129 814,-110 872,-110 872,-129"/>
<text text-anchor="middle" x="843" y="-117" font-family="Helvetica,sans-Serif" font-size="10.00">Sensor.h</text>
</a>
</g>
</g>
<!-- Node1&#45;&gt;Node3 -->
<g id="edge51_Node000001_Node000003" class="edge">
<title>Node1&#45;&gt;Node3</title>
<g id="a_edge51_Node000001_Node000003"><a xlink:title=" ">
<path fill="none" stroke="#63b8ff" d="M1548.69,-222.8C1416.18,-203.59 987.67,-141.47 872,-124.7"/>
<polygon fill="#63b8ff" stroke="#63b8ff" points="1548.4,-226.3 1558.8,-224.27 1549.4,-219.37 1548.4,-226.3"/>
</a>
</g>
</g>
<!-- Node6 -->
<g id="Node000006" class="node">
<title>Node6</title>
<g id="a_Node000006"><a xlink:href="main_8cpp.html" target="_top" xlink:title="Main functions for Core 0, responsible for reading data from sensor peripherals.">
<polygon fill="white" stroke="#666666" points="802,-19 740,-19 740,0 802,0 802,-19"/>
<text text-anchor="middle" x="771" y="-7" font-family="Helvetica,sans-Serif" font-size="10.00">main.cpp</text>
</a>
</g>
</g>
<!-- Node1&#45;&gt;Node6 -->
<g id="edge53_Node000001_Node000006" class="edge">
<title>Node1&#45;&gt;Node6</title>
<g id="a_edge53_Node000001_Node000006"><a xlink:title=" ">
<path fill="none" stroke="#63b8ff" d="M1565.88,-214.46C1503.25,-174.81 1327.33,-64.28 1298,-55 1091.08,10.48 1025.86,-49.63 811,-19 808.19,-18.6 805.28,-18.12 802.37,-17.59"/>
<polygon fill="#63b8ff" stroke="#63b8ff" points="1564.28,-217.58 1574.6,-219.98 1568.02,-211.67 1564.28,-217.58"/>
</a>
</g>
</g>
<!-- Node27 -->
<g id="Node000027" class="node">
<title>Node27</title>
<g id="a_Node000027"><a xlink:href="Storage_8h.html" target="_top" xlink:title=" ">
<polygon fill="white" stroke="#666666" points="1675.5,-129 1612.5,-129 1612.5,-110 1675.5,-110 1675.5,-129"/>
<text text-anchor="middle" x="1644" y="-117" font-family="Helvetica,sans-Serif" font-size="10.00">Storage.h</text>
</a>
</g>
</g>
<!-- Node1&#45;&gt;Node27 -->
<g id="edge52_Node000001_Node000027" class="edge">
<title>Node1&#45;&gt;Node27</title>
<g id="a_edge52_Node000001_Node000027"><a xlink:title=" ">
<path fill="none" stroke="#63b8ff" d="M1620.12,-215.52C1633.43,-208.34 1647.49,-198 1655,-184 1664.52,-166.25 1655.21,-142.07 1648.85,-129.27"/>
<polygon fill="#63b8ff" stroke="#63b8ff" points="1618.52,-212.4 1611.11,-219.98 1621.63,-218.67 1618.52,-212.4"/>
</a>
</g>
</g>
<!-- Node30 -->
<g id="Node000030" class="node">
<title>Node30</title>
<g id="a_Node000030"><a xlink:href="main1_8cpp.html" target="_top" xlink:title="Main functions for Core 1, responsible for sending data to storage peripherals.">
<polygon fill="white" stroke="#666666" points="1632,-19 1564,-19 1564,0 1632,0 1632,-19"/>
<text text-anchor="middle" x="1598" y="-7" font-family="Helvetica,sans-Serif" font-size="10.00">main1.cpp</text>
</a>
</g>
</g>
<!-- Node1&#45;&gt;Node30 -->
<g id="edge54_Node000001_Node000030" class="edge">
<title>Node1&#45;&gt;Node30</title>
<g id="a_edge54_Node000001_Node000030"><a xlink:title=" ">
<path fill="none" stroke="#63b8ff" d="M1582.89,-210.03C1580.94,-202.09 1578.96,-192.66 1578,-184 1570.98,-120.71 1588.93,-44.51 1595.61,-19.16"/>
<polygon fill="#63b8ff" stroke="#63b8ff" points="1579.51,-210.94 1585.43,-219.73 1586.28,-209.17 1579.51,-210.94"/>
</a>
</g>
</g>
<!-- Node32 -->
<g id="Node000032" class="node">
<title>Node32</title>
<g id="a_Node000032"><a xlink:href="RadioStorage_8cpp.html" target="_top" xlink:title=" ">
<polygon fill="white" stroke="#666666" points="1888,-19 1786,-19 1786,0 1888,0 1888,-19"/>
<text text-anchor="middle" x="1837" y="-7" font-family="Helvetica,sans-Serif" font-size="10.00">RadioStorage.cpp</text>
</a>
</g>
</g>
<!-- Node1&#45;&gt;Node32 -->
<g id="edge50_Node000001_Node000032" class="edge">
<title>Node1&#45;&gt;Node32</title>
<g id="a_edge50_Node000001_Node000032"><a xlink:title=" ">
<path fill="none" stroke="#63b8ff" d="M1626.76,-216.77C1683.3,-197.35 1786.6,-152.65 1832,-74 1841.95,-56.76 1840.38,-32.37 1838.57,-19.41"/>
<polygon fill="#63b8ff" stroke="#63b8ff" points="1625.48,-213.5 1617.1,-219.99 1627.69,-220.14 1625.48,-213.5"/>
</a>
</g>
</g>
<!-- Node2&#45;&gt;Node3 -->
<g id="edge2_Node000002_Node000003" class="edge">
<title>Node2&#45;&gt;Node3</title>
<g id="a_edge2_Node000002_Node000003"><a xlink:title=" ">
<path fill="none" stroke="#63b8ff" d="M1577.08,-170.77C1440.19,-161.39 991.66,-130.68 872.36,-122.51"/>
<polygon fill="#63b8ff" stroke="#63b8ff" points="1576.92,-174.26 1587.13,-171.45 1577.4,-167.28 1576.92,-174.26"/>
</a>
</g>
</g>
<!-- Node2&#45;&gt;Node27 -->
<g id="edge39_Node000002_Node000027" class="edge">
<title>Node2&#45;&gt;Node27</title>
<g id="a_edge39_Node000002_Node000027"><a xlink:title=" ">
<path fill="none" stroke="#63b8ff" d="M1626.01,-155.82C1630.59,-146.82 1635.95,-136.29 1639.62,-129.09"/>
<polygon fill="#63b8ff" stroke="#63b8ff" points="1622.88,-154.25 1621.46,-164.75 1629.12,-157.43 1622.88,-154.25"/>
</a>
</g>
</g>
<!-- Node4 -->
<g id="Node000004" class="node">
<title>Node4</title>
<g id="a_Node000004"><a xlink:href="AS7331Sensor_8h.html" target="_top" xlink:title=" ">
<polygon fill="white" stroke="#666666" points="219.5,-74 124.5,-74 124.5,-55 219.5,-55 219.5,-74"/>
<text text-anchor="middle" x="172" y="-62" font-family="Helvetica,sans-Serif" font-size="10.00">AS7331Sensor.h</text>
</a>
</g>
</g>
<!-- Node3&#45;&gt;Node4 -->
<g id="edge3_Node000003_Node000004" class="edge">
<title>Node3&#45;&gt;Node4</title>
<g id="a_edge3_Node000003_Node000004"><a xlink:title=" ">
<path fill="none" stroke="#63b8ff" d="M803.79,-116.73C706.24,-112.1 444.84,-98.26 228,-74 225.26,-73.69 222.46,-73.35 219.63,-72.99"/>
<polygon fill="#63b8ff" stroke="#63b8ff" points="803.64,-120.23 813.79,-117.2 803.97,-113.24 803.64,-120.23"/>
</a>
</g>
</g>
<!-- Node3&#45;&gt;Node6 -->
<g id="edge38_Node000003_Node000006" class="edge">
<title>Node3&#45;&gt;Node6</title>
<g id="a_edge38_Node000003_Node000006"><a xlink:title=" ">
<path fill="none" stroke="#63b8ff" d="M831.38,-101.07C815.76,-77.64 788.59,-36.89 776.77,-19.16"/>
<polygon fill="#63b8ff" stroke="#63b8ff" points="828.65,-103.28 837.11,-109.66 834.47,-99.4 828.65,-103.28"/>
</a>
</g>
</g>
<!-- Node7 -->
<g id="Node000007" class="node">
<title>Node7</title>
<g id="a_Node000007"><a xlink:href="BMP390Sensor_8h.html" target="_top" xlink:title=" ">
<polygon fill="white" stroke="#666666" points="930,-74 832,-74 832,-55 930,-55 930,-74"/>
<text text-anchor="middle" x="881" y="-62" font-family="Helvetica,sans-Serif" font-size="10.00">BMP390Sensor.h</text>
</a>
</g>
</g>
<!-- Node3&#45;&gt;Node7 -->
<g id="edge6_Node000003_Node000007" class="edge">
<title>Node3&#45;&gt;Node7</title>
<g id="a_edge6_Node000003_Node000007"><a xlink:title=" ">
<path fill="none" stroke="#63b8ff" d="M855.27,-101.39C861.81,-92.27 869.57,-81.45 874.84,-74.09"/>
<polygon fill="#63b8ff" stroke="#63b8ff" points="852.26,-99.58 849.27,-109.75 857.95,-103.66 852.26,-99.58"/>
</a>
</g>
</g>
<!-- Node9 -->
<g id="Node000009" class="node">
<title>Node9</title>
<g id="a_Node000009"><a xlink:href="ENS160Sensor_8h.html" target="_top" xlink:title=" ">
<polygon fill="white" stroke="#666666" points="554.5,-74 459.5,-74 459.5,-55 554.5,-55 554.5,-74"/>
<text text-anchor="middle" x="507" y="-62" font-family="Helvetica,sans-Serif" font-size="10.00">ENS160Sensor.h</text>
</a>
</g>
</g>
<!-- Node3&#45;&gt;Node9 -->
<g id="edge9_Node000003_Node000009" class="edge">
<title>Node3&#45;&gt;Node9</title>
<g id="a_edge9_Node000003_Node000009"><a xlink:title=" ">
<path fill="none" stroke="#63b8ff" d="M803.61,-112.29C741.56,-102.5 621.26,-83.52 554.51,-72.99"/>
<polygon fill="#63b8ff" stroke="#63b8ff" points="803.35,-115.79 813.77,-113.89 804.44,-108.87 803.35,-115.79"/>
</a>
</g>
</g>
<!-- Node11 -->
<g id="Node000011" class="node">
<title>Node11</title>
<g id="a_Node000011"><a xlink:href="ICM20948Sensor_8h.html" target="_top" xlink:title=" ">
<polygon fill="white" stroke="#666666" points="1055.5,-74 948.5,-74 948.5,-55 1055.5,-55 1055.5,-74"/>
<text text-anchor="middle" x="1002" y="-62" font-family="Helvetica,sans-Serif" font-size="10.00">ICM20948Sensor.h</text>
</a>
</g>
</g>
<!-- Node3&#45;&gt;Node11 -->
<g id="edge12_Node000003_Node000011" class="edge">
<title>Node3&#45;&gt;Node11</title>
<g id="a_edge12_Node000003_Node000011"><a xlink:title=" ">
<path fill="none" stroke="#63b8ff" d="M878.1,-106.8C907.78,-96.91 949.6,-82.97 976.25,-74.08"/>
<polygon fill="#63b8ff" stroke="#63b8ff" points="876.93,-103.5 868.55,-109.98 879.14,-110.14 876.93,-103.5"/>
</a>
</g>
</g>
<!-- Node13 -->
<g id="Node000013" class="node">
<title>Node13</title>
<g id="a_Node000013"><a xlink:href="INA260Sensor_8h.html" target="_top" xlink:title=" ">
<polygon fill="white" stroke="#666666" points="1166.5,-74 1073.5,-74 1073.5,-55 1166.5,-55 1166.5,-74"/>
<text text-anchor="middle" x="1120" y="-62" font-family="Helvetica,sans-Serif" font-size="10.00">INA260Sensor.h</text>
</a>
</g>
</g>
<!-- Node3&#45;&gt;Node13 -->
<g id="edge15_Node000003_Node000013" class="edge">
<title>Node3&#45;&gt;Node13</title>
<g id="a_edge15_Node000003_Node000013"><a xlink:title=" ">
<path fill="none" stroke="#63b8ff" d="M882.08,-111.02C933.01,-101.28 1021.85,-84.28 1075.37,-74.04"/>
<polygon fill="#63b8ff" stroke="#63b8ff" points="881.28,-107.61 872.12,-112.93 882.6,-114.49 881.28,-107.61"/>
</a>
</g>
</g>
<!-- Node15 -->
<g id="Node000015" class="node">
<title>Node15</title>
<g id="a_Node000015"><a xlink:href="MTK3339Sensor_8h.html" target="_top" xlink:title=" ">
<polygon fill="white" stroke="#666666" points="1289,-74 1185,-74 1185,-55 1289,-55 1289,-74"/>
<text text-anchor="middle" x="1237" y="-62" font-family="Helvetica,sans-Serif" font-size="10.00">MTK3339Sensor.h</text>
</a>
</g>
</g>
<!-- Node3&#45;&gt;Node15 -->
<g id="edge18_Node000003_Node000015" class="edge">
<title>Node3&#45;&gt;Node15</title>
<g id="a_edge18_Node000003_Node000015"><a xlink:title=" ">
<path fill="none" stroke="#63b8ff" d="M882.47,-113.25C944.67,-104.96 1069.32,-88.33 1175,-74 1178.23,-73.56 1181.55,-73.11 1184.91,-72.65"/>
<polygon fill="#63b8ff" stroke="#63b8ff" points="881.77,-109.81 872.32,-114.6 882.69,-116.75 881.77,-109.81"/>
</a>
</g>
</g>
<!-- Node17 -->
<g id="Node000017" class="node">
<title>Node17</title>
<g id="a_Node000017"><a xlink:href="OzoneSensor_8h.html" target="_top" xlink:title=" ">
<polygon fill="white" stroke="#666666" points="1434.5,-74 1345.5,-74 1345.5,-55 1434.5,-55 1434.5,-74"/>
<text text-anchor="middle" x="1390" y="-62" font-family="Helvetica,sans-Serif" font-size="10.00">OzoneSensor.h</text>
</a>
</g>
</g>
<!-- Node3&#45;&gt;Node17 -->
<g id="edge21_Node000003_Node000017" class="edge">
<title>Node3&#45;&gt;Node17</title>
<g id="a_edge21_Node000003_Node000017"><a xlink:title=" ">
<path fill="none" stroke="#63b8ff" d="M882.19,-114.7C981.15,-105.11 1240.69,-79.97 1345.32,-69.83"/>
<polygon fill="#63b8ff" stroke="#63b8ff" points="881.64,-111.24 872.02,-115.69 882.31,-118.21 881.64,-111.24"/>
</a>
</g>
</g>
<!-- Node19 -->
<g id="Node000019" class="node">
<title>Node19</title>
<g id="a_Node000019"><a xlink:href="PCF8523Sensor_8h.html" target="_top" xlink:title=" ">
<polygon fill="white" stroke="#666666" points="673.5,-74 572.5,-74 572.5,-55 673.5,-55 673.5,-74"/>
<text text-anchor="middle" x="623" y="-62" font-family="Helvetica,sans-Serif" font-size="10.00">PCF8523Sensor.h</text>
</a>
</g>
</g>
<!-- Node3&#45;&gt;Node19 -->
<g id="edge24_Node000003_Node000019" class="edge">
<title>Node3&#45;&gt;Node19</title>
<g id="a_edge24_Node000003_Node000019"><a xlink:title=" ">
<path fill="none" stroke="#63b8ff" d="M803.83,-109.06C762.62,-99.14 698.32,-83.65 658.53,-74.06"/>
<polygon fill="#63b8ff" stroke="#63b8ff" points="803.24,-112.52 813.79,-111.46 804.88,-105.72 803.24,-112.52"/>
</a>
</g>
</g>
<!-- Node21 -->
<g id="Node000021" class="node">
<title>Node21</title>
<g id="a_Node000021"><a xlink:href="SHTC3Sensor_8h.html" target="_top" xlink:title=" ">
<polygon fill="white" stroke="#666666" points="326.5,-74 237.5,-74 237.5,-55 326.5,-55 326.5,-74"/>
<text text-anchor="middle" x="282" y="-62" font-family="Helvetica,sans-Serif" font-size="10.00">SHTC3Sensor.h</text>
</a>
</g>
</g>
<!-- Node3&#45;&gt;Node21 -->
<g id="edge27_Node000003_Node000021" class="edge">
<title>Node3&#45;&gt;Node21</title>
<g id="a_edge27_Node000003_Node000021"><a xlink:title=" ">
<path fill="none" stroke="#63b8ff" d="M803.99,-116.04C718.71,-110.45 509.38,-95.59 335,-74 332.23,-73.66 329.37,-73.28 326.5,-72.87"/>
<polygon fill="#63b8ff" stroke="#63b8ff" points="803.79,-119.53 814,-116.69 804.25,-112.55 803.79,-119.53"/>
</a>
</g>
</g>
<!-- Node23 -->
<g id="Node000023" class="node">
<title>Node23</title>
<g id="a_Node000023"><a xlink:href="TMP11xSensor_8h.html" target="_top" xlink:title=" ">
<polygon fill="white" stroke="#666666" points="441.5,-74 344.5,-74 344.5,-55 441.5,-55 441.5,-74"/>
<text text-anchor="middle" x="393" y="-62" font-family="Helvetica,sans-Serif" font-size="10.00">TMP11xSensor.h</text>
</a>
</g>
</g>
<!-- Node3&#45;&gt;Node23 -->
<g id="edge31_Node000003_Node000023" class="edge">
<title>Node3&#45;&gt;Node23</title>
<g id="a_edge31_Node000003_Node000023"><a xlink:title=" ">
<path fill="none" stroke="#63b8ff" d="M803.63,-114.51C732.79,-107.22 579.19,-90.94 450,-74 447.32,-73.65 444.57,-73.28 441.8,-72.89"/>
<polygon fill="#63b8ff" stroke="#63b8ff" points="803.56,-118.02 813.87,-115.56 804.28,-111.05 803.56,-118.02"/>
</a>
</g>
</g>
<!-- Node25 -->
<g id="Node000025" class="node">
<title>Node25</title>
<g id="a_Node000025"><a xlink:href="TempSensor_8h.html" target="_top" xlink:title=" ">
<polygon fill="white" stroke="#666666" points="776,-74 692,-74 692,-55 776,-55 776,-74"/>
<text text-anchor="middle" x="734" y="-62" font-family="Helvetica,sans-Serif" font-size="10.00">TempSensor.h</text>
</a>
</g>
</g>
<!-- Node3&#45;&gt;Node25 -->
<g id="edge35_Node000003_Node000025" class="edge">
<title>Node3&#45;&gt;Node25</title>
<g id="a_edge35_Node000003_Node000025"><a xlink:title=" ">
<path fill="none" stroke="#63b8ff" d="M816.27,-105.5C796.21,-95.75 769.32,-82.68 751.83,-74.17"/>
<polygon fill="#63b8ff" stroke="#63b8ff" points="814.96,-108.76 825.49,-109.98 818.02,-102.46 814.96,-108.76"/>
</a>
</g>
</g>
<!-- Node5 -->
<g id="Node000005" class="node">
<title>Node5</title>
<g id="a_Node000005"><a xlink:href="AS7331Sensor_8cpp.html" target="_top" xlink:title=" ">
<polygon fill="white" stroke="#666666" points="106,-19 0,-19 0,0 106,0 106,-19"/>
<text text-anchor="middle" x="53" y="-7" font-family="Helvetica,sans-Serif" font-size="10.00">AS7331Sensor.cpp</text>
</a>
</g>
</g>
<!-- Node4&#45;&gt;Node5 -->
<g id="edge4_Node000004_Node000005" class="edge">
<title>Node4&#45;&gt;Node5</title>
<g id="a_edge4_Node000004_Node000005"><a xlink:title=" ">
<path fill="none" stroke="#63b8ff" d="M143.7,-50.9C121.72,-41.11 91.82,-27.79 72.47,-19.17"/>
<polygon fill="#63b8ff" stroke="#63b8ff" points="142.32,-54.11 152.88,-54.98 145.17,-47.72 142.32,-54.11"/>
</a>
</g>
</g>
<!-- Node4&#45;&gt;Node6 -->
<g id="edge5_Node000004_Node000006" class="edge">
<title>Node4&#45;&gt;Node6</title>
<g id="a_edge5_Node000004_Node000006"><a xlink:title=" ">
<path fill="none" stroke="#63b8ff" d="M229.65,-54.9C452.04,-30.76 511.69,-49.32 730,-19 733.17,-18.56 736.46,-18.02 739.74,-17.43"/>
<polygon fill="#63b8ff" stroke="#63b8ff" points="229.18,-51.43 219.63,-56.01 229.95,-58.39 229.18,-51.43"/>
</a>
</g>
</g>
<!-- Node7&#45;&gt;Node6 -->
<g id="edge8_Node000007_Node000006" class="edge">
<title>Node7&#45;&gt;Node6</title>
<g id="a_edge8_Node000007_Node000006"><a xlink:title=" ">
<path fill="none" stroke="#63b8ff" d="M854.3,-50.63C834.03,-40.87 806.73,-27.71 788.99,-19.17"/>
<polygon fill="#63b8ff" stroke="#63b8ff" points="852.8,-53.8 863.33,-54.98 855.84,-47.49 852.8,-53.8"/>
</a>
</g>
</g>
<!-- Node8 -->
<g id="Node000008" class="node">
<title>Node8</title>
<g id="a_Node000008"><a xlink:href="BMP390Sensor_8cpp.html" target="_top" xlink:title=" ">
<polygon fill="white" stroke="#666666" points="929.5,-19 820.5,-19 820.5,0 929.5,0 929.5,-19"/>
<text text-anchor="middle" x="875" y="-7" font-family="Helvetica,sans-Serif" font-size="10.00">BMP390Sensor.cpp</text>
</a>
</g>
</g>
<!-- Node7&#45;&gt;Node8 -->
<g id="edge7_Node000007_Node000008" class="edge">
<title>Node7&#45;&gt;Node8</title>
<g id="a_edge7_Node000007_Node000008"><a xlink:title=" ">
<path fill="none" stroke="#63b8ff" d="M878.87,-44.66C877.88,-35.93 876.75,-25.99 875.97,-19.09"/>
<polygon fill="#63b8ff" stroke="#63b8ff" points="875.41,-45.21 880.01,-54.75 882.36,-44.42 875.41,-45.21"/>
</a>
</g>
</g>
<!-- Node9&#45;&gt;Node6 -->
<g id="edge11_Node000009_Node000006" class="edge">
<title>Node9&#45;&gt;Node6</title>
<g id="a_edge11_Node000009_Node000006"><a xlink:title=" ">
<path fill="none" stroke="#63b8ff" d="M560.06,-53.03C605.26,-44.08 671.91,-30.82 730,-19 733.13,-18.36 736.4,-17.69 739.67,-17.02"/>
<polygon fill="#63b8ff" stroke="#63b8ff" points="559.32,-49.61 550.19,-54.98 560.68,-56.47 559.32,-49.61"/>
</a>
</g>
</g>
<!-- Node10 -->
<g id="Node000010" class="node">
<title>Node10</title>
<g id="a_Node000010"><a xlink:href="ENS160Sensor_8cpp.html" target="_top" xlink:title=" ">
<polygon fill="white" stroke="#666666" points="477.5,-19 370.5,-19 370.5,0 477.5,0 477.5,-19"/>
<text text-anchor="middle" x="424" y="-7" font-family="Helvetica,sans-Serif" font-size="10.00">ENS160Sensor.cpp</text>
</a>
</g>
</g>
<!-- Node9&#45;&gt;Node10 -->
<g id="edge10_Node000009_Node000010" class="edge">
<title>Node9&#45;&gt;Node10</title>
<g id="a_edge10_Node000009_Node000010"><a xlink:title=" ">
<path fill="none" stroke="#63b8ff" d="M484.96,-49.42C469.89,-39.81 450.41,-27.37 437.58,-19.17"/>
<polygon fill="#63b8ff" stroke="#63b8ff" points="483.35,-52.55 493.66,-54.98 487.12,-46.65 483.35,-52.55"/>
</a>
</g>
</g>
<!-- Node11&#45;&gt;Node6 -->
<g id="edge14_Node000011_Node000006" class="edge">
<title>Node11&#45;&gt;Node6</title>
<g id="a_edge14_Node000011_Node000006"><a xlink:title=" ">
<path fill="none" stroke="#63b8ff" d="M954.94,-52.7C909.3,-42.23 841.37,-26.64 802.1,-17.63"/>
<polygon fill="#63b8ff" stroke="#63b8ff" points="954.36,-56.16 964.89,-54.98 955.92,-49.34 954.36,-56.16"/>
</a>
</g>
</g>
<!-- Node12 -->
<g id="Node000012" class="node">
<title>Node12</title>
<g id="a_Node000012"><a xlink:href="ICM20948Sensor_8cpp.html" target="_top" xlink:title=" ">
<polygon fill="white" stroke="#666666" points="1066,-19 948,-19 948,0 1066,0 1066,-19"/>
<text text-anchor="middle" x="1007" y="-7" font-family="Helvetica,sans-Serif" font-size="10.00">ICM20948Sensor.cpp</text>
</a>
</g>
</g>
<!-- Node11&#45;&gt;Node12 -->
<g id="edge13_Node000011_Node000012" class="edge">
<title>Node11&#45;&gt;Node12</title>
<g id="a_edge13_Node000011_Node000012"><a xlink:title=" ">
<path fill="none" stroke="#63b8ff" d="M1003.78,-44.66C1004.6,-35.93 1005.54,-25.99 1006.19,-19.09"/>
<polygon fill="#63b8ff" stroke="#63b8ff" points="1000.28,-44.46 1002.83,-54.75 1007.25,-45.12 1000.28,-44.46"/>
</a>
</g>
</g>
<!-- Node13&#45;&gt;Node6 -->
<g id="edge17_Node000013_Node000006" class="edge">
<title>Node13&#45;&gt;Node6</title>
<g id="a_edge17_Node000013_Node000006"><a xlink:title=" ">
<path fill="none" stroke="#63b8ff" d="M1063.14,-54.89C949.93,-38.48 919.67,-38.25 811,-19 808.2,-18.5 805.3,-17.96 802.4,-17.38"/>
<polygon fill="#63b8ff" stroke="#63b8ff" points="1062.85,-58.39 1073.25,-56.37 1063.86,-51.46 1062.85,-58.39"/>
</a>
</g>
</g>
<!-- Node14 -->
<g id="Node000014" class="node">
<title>Node14</title>
<g id="a_Node000014"><a xlink:href="INA260Sensor_8cpp.html" target="_top" xlink:title=" ">
<polygon fill="white" stroke="#666666" points="1188,-19 1084,-19 1084,0 1188,0 1188,-19"/>
<text text-anchor="middle" x="1136" y="-7" font-family="Helvetica,sans-Serif" font-size="10.00">INA260Sensor.cpp</text>
</a>
</g>
</g>
<!-- Node13&#45;&gt;Node14 -->
<g id="edge16_Node000013_Node000014" class="edge">
<title>Node13&#45;&gt;Node14</title>
<g id="a_edge16_Node000013_Node000014"><a xlink:title=" ">
<path fill="none" stroke="#63b8ff" d="M1125.6,-44.95C1128.26,-36.15 1131.3,-26.06 1133.41,-19.09"/>
<polygon fill="#63b8ff" stroke="#63b8ff" points="1122.18,-44.16 1122.64,-54.75 1128.88,-46.19 1122.18,-44.16"/>
</a>
</g>
</g>
<!-- Node15&#45;&gt;Node6 -->
<g id="edge20_Node000015_Node000006" class="edge">
<title>Node15&#45;&gt;Node6</title>
<g id="a_edge20_Node000015_Node000006"><a xlink:title=" ">
<path fill="none" stroke="#63b8ff" d="M1174.54,-55C1011.78,-36.27 968.35,-43.42 811,-19 808.19,-18.56 805.29,-18.06 802.38,-17.51"/>
<polygon fill="#63b8ff" stroke="#63b8ff" points="1174.58,-58.53 1184.92,-56.22 1175.4,-51.58 1174.58,-58.53"/>
</a>
</g>
</g>
<!-- Node16 -->
<g id="Node000016" class="node">
<title>Node16</title>
<g id="a_Node000016"><a xlink:href="MTK3339Sensor_8cpp.html" target="_top" xlink:title=" ">
<polygon fill="white" stroke="#666666" points="1321.5,-19 1206.5,-19 1206.5,0 1321.5,0 1321.5,-19"/>
<text text-anchor="middle" x="1264" y="-7" font-family="Helvetica,sans-Serif" font-size="10.00">MTK3339Sensor.cpp</text>
</a>
</g>
</g>
<!-- Node15&#45;&gt;Node16 -->
<g id="edge19_Node000015_Node000016" class="edge">
<title>Node15&#45;&gt;Node16</title>
<g id="a_edge19_Node000015_Node000016"><a xlink:title=" ">
<path fill="none" stroke="#63b8ff" d="M1246.01,-45.82C1250.59,-36.82 1255.95,-26.29 1259.62,-19.09"/>
<polygon fill="#63b8ff" stroke="#63b8ff" points="1242.88,-44.25 1241.46,-54.75 1249.12,-47.43 1242.88,-44.25"/>
</a>
</g>
</g>
<!-- Node17&#45;&gt;Node6 -->
<g id="edge23_Node000017_Node000006" class="edge">
<title>Node17&#45;&gt;Node6</title>
<g id="a_edge23_Node000017_Node000006"><a xlink:title=" ">
<path fill="none" stroke="#63b8ff" d="M1334.95,-55.44C1333.62,-55.28 1332.3,-55.14 1331,-55 1100.64,-30.47 1040.42,-51.16 811,-19 808.19,-18.61 805.28,-18.13 802.37,-17.6"/>
<polygon fill="#63b8ff" stroke="#63b8ff" points="1334.91,-58.96 1345.27,-56.7 1335.77,-52.01 1334.91,-58.96"/>
</a>
</g>
</g>
<!-- Node18 -->
<g id="Node000018" class="node">
<title>Node18</title>
<g id="a_Node000018"><a xlink:href="OzoneSensor_8cpp.html" target="_top" xlink:title=" ">
<polygon fill="white" stroke="#666666" points="1440,-19 1340,-19 1340,0 1440,0 1440,-19"/>
<text text-anchor="middle" x="1390" y="-7" font-family="Helvetica,sans-Serif" font-size="10.00">OzoneSensor.cpp</text>
</a>
</g>
</g>
<!-- Node17&#45;&gt;Node18 -->
<g id="edge22_Node000017_Node000018" class="edge">
<title>Node17&#45;&gt;Node18</title>
<g id="a_edge22_Node000017_Node000018"><a xlink:title=" ">
<path fill="none" stroke="#63b8ff" d="M1390,-44.66C1390,-35.93 1390,-25.99 1390,-19.09"/>
<polygon fill="#63b8ff" stroke="#63b8ff" points="1386.5,-44.75 1390,-54.75 1393.5,-44.75 1386.5,-44.75"/>
</a>
</g>
</g>
<!-- Node19&#45;&gt;Node6 -->
<g id="edge26_Node000019_Node000006" class="edge">
<title>Node19&#45;&gt;Node6</title>
<g id="a_edge26_Node000019_Node000006"><a xlink:title=" ">
<path fill="none" stroke="#63b8ff" d="M656.37,-51.55C683.85,-41.71 722.17,-27.98 746.79,-19.17"/>
<polygon fill="#63b8ff" stroke="#63b8ff" points="655.01,-48.32 646.78,-54.98 657.37,-54.91 655.01,-48.32"/>
</a>
</g>
</g>
<!-- Node20 -->
<g id="Node000020" class="node">
<title>Node20</title>
<g id="a_Node000020"><a xlink:href="PCF8523Sensor_8cpp.html" target="_top" xlink:title=" ">
<polygon fill="white" stroke="#666666" points="608,-19 496,-19 496,0 608,0 608,-19"/>
<text text-anchor="middle" x="552" y="-7" font-family="Helvetica,sans-Serif" font-size="10.00">PCF8523Sensor.cpp</text>
</a>
</g>
</g>
<!-- Node19&#45;&gt;Node20 -->
<g id="edge25_Node000019_Node000020" class="edge">
<title>Node19&#45;&gt;Node20</title>
<g id="a_edge25_Node000019_Node000020"><a xlink:title=" ">
<path fill="none" stroke="#63b8ff" d="M603.41,-48.88C590.63,-39.34 574.39,-27.21 563.61,-19.17"/>
<polygon fill="#63b8ff" stroke="#63b8ff" points="601.49,-51.81 611.59,-54.98 605.67,-46.2 601.49,-51.81"/>
</a>
</g>
</g>
<!-- Node21&#45;&gt;Node6 -->
<g id="edge30_Node000021_Node000006" class="edge">
<title>Node21&#45;&gt;Node6</title>
<g id="a_edge30_Node000021_Node000006"><a xlink:title=" ">
<path fill="none" stroke="#63b8ff" d="M336.57,-54.89C511.65,-33.46 558.87,-44.45 730,-19 733.16,-18.53 736.45,-17.97 739.73,-17.36"/>
<polygon fill="#63b8ff" stroke="#63b8ff" points="335.99,-51.43 326.5,-56.14 336.86,-58.38 335.99,-51.43"/>
</a>
</g>
</g>
<!-- Node21&#45;&gt;Node10 -->
<g id="edge28_Node000021_Node000010" class="edge">
<title>Node21&#45;&gt;Node10</title>
<g id="a_edge28_Node000021_Node000010"><a xlink:title=" ">
<path fill="none" stroke="#63b8ff" d="M314.36,-51.42C340.71,-41.59 377.26,-27.95 400.77,-19.17"/>
<polygon fill="#63b8ff" stroke="#63b8ff" points="312.96,-48.21 304.81,-54.98 315.41,-54.77 312.96,-48.21"/>
</a>
</g>
</g>
<!-- Node22 -->
<g id="Node000022" class="node">
<title>Node22</title>
<g id="a_Node000022"><a xlink:href="SHTC3Sensor_8cpp.html" target="_top" xlink:title=" ">
<polygon fill="white" stroke="#666666" points="225.5,-19 124.5,-19 124.5,0 225.5,0 225.5,-19"/>
<text text-anchor="middle" x="175" y="-7" font-family="Helvetica,sans-Serif" font-size="10.00">SHTC3Sensor.cpp</text>
</a>
</g>
</g>
<!-- Node21&#45;&gt;Node22 -->
<g id="edge29_Node000021_Node000022" class="edge">
<title>Node21&#45;&gt;Node22</title>
<g id="a_edge29_Node000021_Node000022"><a xlink:title=" ">
<path fill="none" stroke="#63b8ff" d="M255.76,-50.5C236.07,-40.75 209.68,-27.68 192.5,-19.17"/>
<polygon fill="#63b8ff" stroke="#63b8ff" points="254.29,-53.68 264.81,-54.98 257.4,-47.41 254.29,-53.68"/>
</a>
</g>
</g>
<!-- Node23&#45;&gt;Node6 -->
<g id="edge34_Node000023_Node000006" class="edge">
<title>Node23&#45;&gt;Node6</title>
<g id="a_edge34_Node000023_Node000006"><a xlink:title=" ">
<path fill="none" stroke="#63b8ff" d="M451.42,-54.83C575.96,-37.83 609.4,-39.22 730,-19 733.15,-18.47 736.44,-17.87 739.71,-17.24"/>
<polygon fill="#63b8ff" stroke="#63b8ff" points="450.93,-51.37 441.5,-56.2 451.88,-58.3 450.93,-51.37"/>
</a>
</g>
</g>
<!-- Node23&#45;&gt;Node10 -->
<g id="edge32_Node000023_Node000010" class="edge">
<title>Node23&#45;&gt;Node10</title>
<g id="a_edge32_Node000023_Node000010"><a xlink:title=" ">
<path fill="none" stroke="#63b8ff" d="M403.18,-46.1C408.47,-37.04 414.72,-26.37 418.98,-19.09"/>
<polygon fill="#63b8ff" stroke="#63b8ff" points="400.15,-44.35 398.12,-54.75 406.19,-47.88 400.15,-44.35"/>
</a>
</g>
</g>
<!-- Node24 -->
<g id="Node000024" class="node">
<title>Node24</title>
<g id="a_Node000024"><a xlink:href="TMP11xSensor_8cpp.html" target="_top" xlink:title=" ">
<polygon fill="white" stroke="#666666" points="352,-19 244,-19 244,0 352,0 352,-19"/>
<text text-anchor="middle" x="298" y="-7" font-family="Helvetica,sans-Serif" font-size="10.00">TMP11xSensor.cpp</text>
</a>
</g>
</g>
<!-- Node23&#45;&gt;Node24 -->
<g id="edge33_Node000023_Node000024" class="edge">
<title>Node23&#45;&gt;Node24</title>
<g id="a_edge33_Node000023_Node000024"><a xlink:title=" ">
<path fill="none" stroke="#63b8ff" d="M368.74,-49.97C351.37,-40.28 328.51,-27.52 313.54,-19.17"/>
<polygon fill="#63b8ff" stroke="#63b8ff" points="367.3,-53.17 377.74,-54.98 370.71,-47.06 367.3,-53.17"/>
</a>
</g>
</g>
<!-- Node25&#45;&gt;Node6 -->
<g id="edge37_Node000025_Node000006" class="edge">
<title>Node25&#45;&gt;Node6</title>
<g id="a_edge37_Node000025_Node000006"><a xlink:title=" ">
<path fill="none" stroke="#63b8ff" d="M745.95,-46.39C752.31,-37.27 759.87,-26.45 765,-19.09"/>
<polygon fill="#63b8ff" stroke="#63b8ff" points="742.96,-44.55 740.11,-54.75 748.7,-48.55 742.96,-44.55"/>
</a>
</g>
</g>
<!-- Node26 -->
<g id="Node000026" class="node">
<title>Node26</title>
<g id="a_Node000026"><a xlink:href="TempSensor_8cpp.html" target="_top" xlink:title=" ">
<polygon fill="white" stroke="#666666" points="721.5,-19 626.5,-19 626.5,0 721.5,0 721.5,-19"/>
<text text-anchor="middle" x="674" y="-7" font-family="Helvetica,sans-Serif" font-size="10.00">TempSensor.cpp</text>
</a>
</g>
</g>
<!-- Node25&#45;&gt;Node26 -->
<g id="edge36_Node000025_Node000026" class="edge">
<title>Node25&#45;&gt;Node26</title>
<g id="a_edge36_Node000025_Node000026"><a xlink:title=" ">
<path fill="none" stroke="#63b8ff" d="M716.82,-48.32C706.12,-38.87 692.74,-27.06 683.82,-19.17"/>
<polygon fill="#63b8ff" stroke="#63b8ff" points="714.55,-50.99 724.36,-54.98 719.18,-45.74 714.55,-50.99"/>
</a>
</g>
</g>
<!-- Node28 -->
<g id="Node000028" class="node">
<title>Node28</title>
<g id="a_Node000028"><a xlink:href="FlashStorage_8h.html" target="_top" xlink:title=" ">
<polygon fill="white" stroke="#666666" points="1714.5,-74 1625.5,-74 1625.5,-55 1714.5,-55 1714.5,-74"/>
<text text-anchor="middle" x="1670" y="-62" font-family="Helvetica,sans-Serif" font-size="10.00">FlashStorage.h</text>
</a>
</g>
</g>
<!-- Node27&#45;&gt;Node28 -->
<g id="edge40_Node000027_Node000028" class="edge">
<title>Node27&#45;&gt;Node28</title>
<g id="a_edge40_Node000027_Node000028"><a xlink:title=" ">
<path fill="none" stroke="#63b8ff" d="M1652.82,-100.53C1657.2,-91.6 1662.29,-81.22 1665.79,-74.09"/>
<polygon fill="#63b8ff" stroke="#63b8ff" points="1649.56,-99.23 1648.29,-109.75 1655.84,-102.31 1649.56,-99.23"/>
</a>
</g>
</g>
<!-- Node27&#45;&gt;Node30 -->
<g id="edge49_Node000027_Node000030" class="edge">
<title>Node27&#45;&gt;Node30</title>
<g id="a_edge49_Node000027_Node000030"><a xlink:title=" ">
<path fill="none" stroke="#63b8ff" d="M1631.56,-101.3C1626.2,-93.29 1620.22,-83.47 1616,-74 1607.7,-55.37 1602.24,-31.95 1599.68,-19.4"/>
<polygon fill="#63b8ff" stroke="#63b8ff" points="1628.83,-103.51 1637.41,-109.72 1634.58,-99.51 1628.83,-103.51"/>
</a>
</g>
</g>
<!-- Node31 -->
<g id="Node000031" class="node">
<title>Node31</title>
<g id="a_Node000031"><a xlink:href="RadioStorage_8h.html" target="_top" xlink:title=" ">
<polygon fill="white" stroke="#666666" points="1823.5,-74 1732.5,-74 1732.5,-55 1823.5,-55 1823.5,-74"/>
<text text-anchor="middle" x="1778" y="-62" font-family="Helvetica,sans-Serif" font-size="10.00">RadioStorage.h</text>
</a>
</g>
</g>
<!-- Node27&#45;&gt;Node31 -->
<g id="edge43_Node000027_Node000031" class="edge">
<title>Node27&#45;&gt;Node31</title>
<g id="a_edge43_Node000027_Node000031"><a xlink:title=" ">
<path fill="none" stroke="#63b8ff" d="M1674.87,-106.29C1699.7,-96.47 1733.99,-82.91 1756.08,-74.17"/>
<polygon fill="#63b8ff" stroke="#63b8ff" points="1673.54,-103.05 1665.53,-109.98 1676.12,-109.56 1673.54,-103.05"/>
</a>
</g>
</g>
<!-- Node33 -->
<g id="Node000033" class="node">
<title>Node33</title>
<g id="a_Node000033"><a xlink:href="SDStorage_8h.html" target="_top" xlink:title=" ">
<polygon fill="white" stroke="#666666" points="1530.5,-74 1453.5,-74 1453.5,-55 1530.5,-55 1530.5,-74"/>
<text text-anchor="middle" x="1492" y="-62" font-family="Helvetica,sans-Serif" font-size="10.00">SDStorage.h</text>
</a>
</g>
</g>
<!-- Node27&#45;&gt;Node33 -->
<g id="edge46_Node000027_Node000033" class="edge">
<title>Node27&#45;&gt;Node33</title>
<g id="a_edge46_Node000027_Node000033"><a xlink:title=" ">
<path fill="none" stroke="#63b8ff" d="M1610.07,-106.67C1581.73,-96.79 1541.98,-82.93 1516.61,-74.08"/>
<polygon fill="#63b8ff" stroke="#63b8ff" points="1608.98,-110 1619.58,-109.98 1611.29,-103.39 1608.98,-110"/>
</a>
</g>
</g>
<!-- Node29 -->
<g id="Node000029" class="node">
<title>Node29</title>
<g id="a_Node000029"><a xlink:href="FlashStorage_8cpp.html" target="_top" xlink:title=" ">
<polygon fill="white" stroke="#666666" points="1751.5,-19 1650.5,-19 1650.5,0 1751.5,0 1751.5,-19"/>
<text text-anchor="middle" x="1701" y="-7" font-family="Helvetica,sans-Serif" font-size="10.00">FlashStorage.cpp</text>
</a>
</g>
</g>
<!-- Node28&#45;&gt;Node29 -->
<g id="edge41_Node000028_Node000029" class="edge">
<title>Node28&#45;&gt;Node29</title>
<g id="a_edge41_Node000028_Node000029"><a xlink:title=" ">
<path fill="none" stroke="#63b8ff" d="M1680.18,-46.1C1685.47,-37.04 1691.72,-26.37 1695.98,-19.09"/>
<polygon fill="#63b8ff" stroke="#63b8ff" points="1677.15,-44.35 1675.12,-54.75 1683.19,-47.88 1677.15,-44.35"/>
</a>
</g>
</g>
<!-- Node28&#45;&gt;Node30 -->
<g id="edge42_Node000028_Node000030" class="edge">
<title>Node28&#45;&gt;Node30</title>
<g id="a_edge42_Node000028_Node000030"><a xlink:title=" ">
<path fill="none" stroke="#63b8ff" d="M1650.13,-48.88C1637.18,-39.34 1620.7,-27.21 1609.78,-19.17"/>
<polygon fill="#63b8ff" stroke="#63b8ff" points="1648.3,-51.88 1658.43,-54.98 1652.45,-46.24 1648.3,-51.88"/>
</a>
</g>
</g>
<!-- Node31&#45;&gt;Node30 -->
<g id="edge45_Node000031_Node000030" class="edge">
<title>Node31&#45;&gt;Node30</title>
<g id="a_edge45_Node000031_Node000030"><a xlink:title=" ">
<path fill="none" stroke="#63b8ff" d="M1739.13,-52.06C1705.49,-42.15 1657.58,-28.04 1627.15,-19.08"/>
<polygon fill="#63b8ff" stroke="#63b8ff" points="1738.5,-55.52 1749.08,-54.98 1740.48,-48.8 1738.5,-55.52"/>
</a>
</g>
</g>
<!-- Node31&#45;&gt;Node32 -->
<g id="edge44_Node000031_Node000032" class="edge">
<title>Node31&#45;&gt;Node32</title>
<g id="a_edge44_Node000031_Node000032"><a xlink:title=" ">
<path fill="none" stroke="#63b8ff" d="M1795.2,-48.04C1805.67,-38.64 1818.65,-26.98 1827.35,-19.17"/>
<polygon fill="#63b8ff" stroke="#63b8ff" points="1792.58,-45.7 1787.48,-54.98 1797.26,-50.91 1792.58,-45.7"/>
</a>
</g>
</g>
<!-- Node33&#45;&gt;Node30 -->
<g id="edge48_Node000033_Node000030" class="edge">
<title>Node33&#45;&gt;Node30</title>
<g id="a_edge48_Node000033_Node000030"><a xlink:title=" ">
<path fill="none" stroke="#63b8ff" d="M1518,-50.5C1537.5,-40.75 1563.65,-27.68 1580.66,-19.17"/>
<polygon fill="#63b8ff" stroke="#63b8ff" points="1516.41,-47.38 1509.03,-54.98 1519.54,-53.64 1516.41,-47.38"/>
</a>
</g>
</g>
<!-- Node34 -->
<g id="Node000034" class="node">
<title>Node34</title>
<g id="a_Node000034"><a xlink:href="SDStorage_8cpp.html" target="_top" xlink:title=" ">
<polygon fill="white" stroke="#666666" points="1546,-19 1458,-19 1458,0 1546,0 1546,-19"/>
<text text-anchor="middle" x="1502" y="-7" font-family="Helvetica,sans-Serif" font-size="10.00">SDStorage.cpp</text>
</a>
</g>
</g>
<!-- Node33&#45;&gt;Node34 -->
<g id="edge47_Node000033_Node000034" class="edge">
<title>Node33&#45;&gt;Node34</title>
<g id="a_edge47_Node000033_Node000034"><a xlink:title=" ">
<path fill="none" stroke="#63b8ff" d="M1495.55,-44.66C1497.2,-35.93 1499.08,-25.99 1500.38,-19.09"/>
<polygon fill="#63b8ff" stroke="#63b8ff" points="1492.07,-44.27 1493.65,-54.75 1498.94,-45.57 1492.07,-44.27"/>
</a>
</g>
</g>
</g>
</svg>
