<?xml version="1.0" encoding="UTF-8" standalone="no"?>
<!DOCTYPE svg PUBLIC "-//W3C//DTD SVG 1.1//EN"
 "http://www.w3.org/Graphics/SVG/1.1/DTD/svg11.dtd">
<!-- Generated by graphviz version 2.43.0 (0)
 -->
<!-- Title: Logger.h Pages: 1 -->
<svg width="1878pt" height="247pt"
 viewBox="0.00 0.00 1878.00 247.00" xmlns="http://www.w3.org/2000/svg" xmlns:xlink="http://www.w3.org/1999/xlink">
<g id="graph0" class="graph" transform="scale(1 1) rotate(0) translate(4 243)">
<title>Logger.h</title>
<!-- Node1 -->
<g id="Node000001" class="node">
<title>Node1</title>
<g id="a_Node000001"><a xlink:title=" ">
<polygon fill="#999999" stroke="#666666" points="1267.5,-239 1209.5,-239 1209.5,-220 1267.5,-220 1267.5,-239"/>
<text text-anchor="middle" x="1238.5" y="-227" font-family="Helvetica,sans-Serif" font-size="10.00">Logger.h</text>
</a>
</g>
</g>
<!-- Node2 -->
<g id="Node000002" class="node">
<title>Node2</title>
<g id="a_Node000002"><a xlink:href="Device_8h.html" target="_top" xlink:title=" ">
<polygon fill="white" stroke="#666666" points="1268,-184 1209,-184 1209,-165 1268,-165 1268,-184"/>
<text text-anchor="middle" x="1238.5" y="-172" font-family="Helvetica,sans-Serif" font-size="10.00">Device.h</text>
</a>
</g>
</g>
<!-- Node1&#45;&gt;Node2 -->
<g id="edge1_Node000001_Node000002" class="edge">
<title>Node1&#45;&gt;Node2</title>
<g id="a_edge1_Node000001_Node000002"><a xlink:title=" ">
<path fill="none" stroke="#63b8ff" d="M1238.5,-209.66C1238.5,-200.93 1238.5,-190.99 1238.5,-184.09"/>
<polygon fill="#63b8ff" stroke="#63b8ff" points="1235,-209.75 1238.5,-219.75 1242,-209.75 1235,-209.75"/>
</a>
</g>
</g>
<!-- Node3 -->
<g id="Node000003" class="node">
<title>Node3</title>
<g id="a_Node000003"><a xlink:href="Sensor_8h.html" target="_top" xlink:title=" ">
<polygon fill="white" stroke="#666666" points="840.5,-129 782.5,-129 782.5,-110 840.5,-110 840.5,-129"/>
<text text-anchor="middle" x="811.5" y="-117" font-family="Helvetica,sans-Serif" font-size="10.00">Sensor.h</text>
</a>
</g>
</g>
<!-- Node1&#45;&gt;Node3 -->
<g id="edge50_Node000001_Node000003" class="edge">
<title>Node1&#45;&gt;Node3</title>
<g id="a_edge50_Node000001_Node000003"><a xlink:title=" ">
<path fill="none" stroke="#63b8ff" d="M1199.75,-218.7C1115.15,-197.3 915.45,-146.79 840.55,-127.85"/>
<polygon fill="#63b8ff" stroke="#63b8ff" points="1198.93,-222.1 1209.49,-221.16 1200.65,-215.32 1198.93,-222.1"/>
</a>
</g>
</g>
<!-- Node6 -->
<g id="Node000006" class="node">
<title>Node6</title>
<g id="a_Node000006"><a xlink:href="main_8cpp.html" target="_top" xlink:title="Main functions for Core 0, responsible for reading data from sensor peripherals.">
<polygon fill="white" stroke="#666666" points="680.5,-19 618.5,-19 618.5,0 680.5,0 680.5,-19"/>
<text text-anchor="middle" x="649.5" y="-7" font-family="Helvetica,sans-Serif" font-size="10.00">main.cpp</text>
</a>
</g>
</g>
<!-- Node1&#45;&gt;Node6 -->
<g id="edge52_Node000001_Node000006" class="edge">
<title>Node1&#45;&gt;Node6</title>
<g id="a_edge52_Node000001_Node000006"><a xlink:title=" ">
<path fill="none" stroke="#63b8ff" d="M1199.04,-225.99C1064.89,-216.57 630.25,-178.3 548.5,-74 526.27,-45.63 580.92,-26.49 618.21,-17.14"/>
<polygon fill="#63b8ff" stroke="#63b8ff" points="1199.04,-229.5 1209.26,-226.7 1199.53,-222.52 1199.04,-229.5"/>
</a>
</g>
</g>
<!-- Node27 -->
<g id="Node000027" class="node">
<title>Node27</title>
<g id="a_Node000027"><a xlink:href="Storage_8h.html" target="_top" xlink:title=" ">
<polygon fill="white" stroke="#666666" points="1590,-129 1527,-129 1527,-110 1590,-110 1590,-129"/>
<text text-anchor="middle" x="1558.5" y="-117" font-family="Helvetica,sans-Serif" font-size="10.00">Storage.h</text>
</a>
</g>
</g>
<!-- Node1&#45;&gt;Node27 -->
<g id="edge51_Node000001_Node000027" class="edge">
<title>Node1&#45;&gt;Node27</title>
<g id="a_edge51_Node000001_Node000027"><a xlink:title=" ">
<path fill="none" stroke="#63b8ff" d="M1273.67,-216.63C1338.7,-194.68 1476.29,-148.25 1533.12,-129.07"/>
<polygon fill="#63b8ff" stroke="#63b8ff" points="1272.23,-213.42 1263.88,-219.94 1274.47,-220.05 1272.23,-213.42"/>
</a>
</g>
</g>
<!-- Node30 -->
<g id="Node000030" class="node">
<title>Node30</title>
<g id="a_Node000030"><a xlink:href="main1_8cpp.html" target="_top" xlink:title="Main functions for Core 1, responsible for sending data to storage peripherals.">
<polygon fill="white" stroke="#666666" points="1750.5,-19 1682.5,-19 1682.5,0 1750.5,0 1750.5,-19"/>
<text text-anchor="middle" x="1716.5" y="-7" font-family="Helvetica,sans-Serif" font-size="10.00">main1.cpp</text>
</a>
</g>
</g>
<!-- Node1&#45;&gt;Node30 -->
<g id="edge53_Node000001_Node000030" class="edge">
<title>Node1&#45;&gt;Node30</title>
<g id="a_edge53_Node000001_Node000030"><a xlink:title=" ">
<path fill="none" stroke="#63b8ff" d="M1277.64,-223.9C1394.64,-209.27 1737.67,-159.65 1802.5,-74 1821.32,-49.14 1778.4,-29.56 1746.67,-19.04"/>
<polygon fill="#63b8ff" stroke="#63b8ff" points="1277.17,-220.43 1267.68,-225.13 1278.03,-227.38 1277.17,-220.43"/>
</a>
</g>
</g>
<!-- Node2&#45;&gt;Node3 -->
<g id="edge2_Node000002_Node000003" class="edge">
<title>Node2&#45;&gt;Node3</title>
<g id="a_edge2_Node000002_Node000003"><a xlink:title=" ">
<path fill="none" stroke="#63b8ff" d="M1198.77,-168.57C1113.67,-158.01 915.44,-133.4 840.71,-124.13"/>
<polygon fill="#63b8ff" stroke="#63b8ff" points="1198.46,-172.06 1208.81,-169.82 1199.32,-165.11 1198.46,-172.06"/>
</a>
</g>
</g>
<!-- Node2&#45;&gt;Node27 -->
<g id="edge39_Node000002_Node000027" class="edge">
<title>Node2&#45;&gt;Node27</title>
<g id="a_edge39_Node000002_Node000027"><a xlink:title=" ">
<path fill="none" stroke="#63b8ff" d="M1278.17,-166.93C1342.4,-156.29 1467.89,-135.51 1526.68,-125.77"/>
<polygon fill="#63b8ff" stroke="#63b8ff" points="1277.32,-163.52 1268.03,-168.61 1278.47,-170.43 1277.32,-163.52"/>
</a>
</g>
</g>
<!-- Node4 -->
<g id="Node000004" class="node">
<title>Node4</title>
<g id="a_Node000004"><a xlink:href="AS7331Sensor_8h.html" target="_top" xlink:title=" ">
<polygon fill="white" stroke="#666666" points="913,-74 818,-74 818,-55 913,-55 913,-74"/>
<text text-anchor="middle" x="865.5" y="-62" font-family="Helvetica,sans-Serif" font-size="10.00">AS7331Sensor.h</text>
</a>
</g>
</g>
<!-- Node3&#45;&gt;Node4 -->
<g id="edge3_Node000003_Node000004" class="edge">
<title>Node3&#45;&gt;Node4</title>
<g id="a_edge3_Node000003_Node000004"><a xlink:title=" ">
<path fill="none" stroke="#63b8ff" d="M827.78,-102.52C837.3,-93.18 848.94,-81.75 856.75,-74.09"/>
<polygon fill="#63b8ff" stroke="#63b8ff" points="825.1,-100.25 820.42,-109.75 830.01,-105.24 825.1,-100.25"/>
</a>
</g>
</g>
<!-- Node3&#45;&gt;Node6 -->
<g id="edge38_Node000003_Node000006" class="edge">
<title>Node3&#45;&gt;Node6</title>
<g id="a_edge38_Node000003_Node000006"><a xlink:title=" ">
<path fill="none" stroke="#63b8ff" d="M772.63,-106.64C751.87,-99.21 726.53,-88.3 706.5,-74 684.56,-58.33 665,-32.85 655.53,-19.42"/>
<polygon fill="#63b8ff" stroke="#63b8ff" points="771.52,-109.96 782.12,-109.91 773.8,-103.34 771.52,-109.96"/>
</a>
</g>
</g>
<!-- Node7 -->
<g id="Node000007" class="node">
<title>Node7</title>
<g id="a_Node000007"><a xlink:href="BMP390Sensor_8h.html" target="_top" xlink:title=" ">
<polygon fill="white" stroke="#666666" points="1029.5,-74 931.5,-74 931.5,-55 1029.5,-55 1029.5,-74"/>
<text text-anchor="middle" x="980.5" y="-62" font-family="Helvetica,sans-Serif" font-size="10.00">BMP390Sensor.h</text>
</a>
</g>
</g>
<!-- Node3&#45;&gt;Node7 -->
<g id="edge6_Node000003_Node000007" class="edge">
<title>Node3&#45;&gt;Node7</title>
<g id="a_edge6_Node000003_Node000007"><a xlink:title=" ">
<path fill="none" stroke="#63b8ff" d="M848.4,-106.93C879.97,-97.03 924.68,-83.01 953.13,-74.08"/>
<polygon fill="#63b8ff" stroke="#63b8ff" points="847.15,-103.65 838.65,-109.98 849.24,-110.33 847.15,-103.65"/>
</a>
</g>
</g>
<!-- Node9 -->
<g id="Node000009" class="node">
<title>Node9</title>
<g id="a_Node000009"><a xlink:href="ENS160Sensor_8h.html" target="_top" xlink:title=" ">
<polygon fill="white" stroke="#666666" points="279,-74 184,-74 184,-55 279,-55 279,-74"/>
<text text-anchor="middle" x="231.5" y="-62" font-family="Helvetica,sans-Serif" font-size="10.00">ENS160Sensor.h</text>
</a>
</g>
</g>
<!-- Node3&#45;&gt;Node9 -->
<g id="edge9_Node000003_Node000009" class="edge">
<title>Node3&#45;&gt;Node9</title>
<g id="a_edge9_Node000003_Node000009"><a xlink:title=" ">
<path fill="none" stroke="#63b8ff" d="M772.22,-116.05C684.9,-110.42 468.1,-95.35 287.5,-74 284.77,-73.68 281.96,-73.32 279.13,-72.95"/>
<polygon fill="#63b8ff" stroke="#63b8ff" points="772.26,-119.56 782.46,-116.71 772.71,-112.58 772.26,-119.56"/>
</a>
</g>
</g>
<!-- Node11 -->
<g id="Node000011" class="node">
<title>Node11</title>
<g id="a_Node000011"><a xlink:href="ICM20948Sensor_8h.html" target="_top" xlink:title=" ">
<polygon fill="white" stroke="#666666" points="1155,-74 1048,-74 1048,-55 1155,-55 1155,-74"/>
<text text-anchor="middle" x="1101.5" y="-62" font-family="Helvetica,sans-Serif" font-size="10.00">ICM20948Sensor.h</text>
</a>
</g>
</g>
<!-- Node3&#45;&gt;Node11 -->
<g id="edge12_Node000003_Node000011" class="edge">
<title>Node3&#45;&gt;Node11</title>
<g id="a_edge12_Node000003_Node000011"><a xlink:title=" ">
<path fill="none" stroke="#63b8ff" d="M850.66,-111.34C903.67,-101.66 998.13,-84.39 1054.78,-74.04"/>
<polygon fill="#63b8ff" stroke="#63b8ff" points="849.84,-107.93 840.63,-113.18 851.1,-114.82 849.84,-107.93"/>
</a>
</g>
</g>
<!-- Node13 -->
<g id="Node000013" class="node">
<title>Node13</title>
<g id="a_Node000013"><a xlink:href="INA260Sensor_8h.html" target="_top" xlink:title=" ">
<polygon fill="white" stroke="#666666" points="1266,-74 1173,-74 1173,-55 1266,-55 1266,-74"/>
<text text-anchor="middle" x="1219.5" y="-62" font-family="Helvetica,sans-Serif" font-size="10.00">INA260Sensor.h</text>
</a>
</g>
</g>
<!-- Node3&#45;&gt;Node13 -->
<g id="edge15_Node000003_Node000013" class="edge">
<title>Node3&#45;&gt;Node13</title>
<g id="a_edge15_Node000003_Node000013"><a xlink:title=" ">
<path fill="none" stroke="#63b8ff" d="M850.96,-113.84C916.11,-106.06 1050.23,-89.75 1163.5,-74 1166.52,-73.58 1169.63,-73.14 1172.76,-72.68"/>
<polygon fill="#63b8ff" stroke="#63b8ff" points="850.25,-110.4 840.74,-115.05 851.08,-117.35 850.25,-110.4"/>
</a>
</g>
</g>
<!-- Node15 -->
<g id="Node000015" class="node">
<title>Node15</title>
<g id="a_Node000015"><a xlink:href="MTK3339Sensor_8h.html" target="_top" xlink:title=" ">
<polygon fill="white" stroke="#666666" points="1388.5,-74 1284.5,-74 1284.5,-55 1388.5,-55 1388.5,-74"/>
<text text-anchor="middle" x="1336.5" y="-62" font-family="Helvetica,sans-Serif" font-size="10.00">MTK3339Sensor.h</text>
</a>
</g>
</g>
<!-- Node3&#45;&gt;Node15 -->
<g id="edge18_Node000003_Node000015" class="edge">
<title>Node3&#45;&gt;Node15</title>
<g id="a_edge18_Node000003_Node000015"><a xlink:title=" ">
<path fill="none" stroke="#63b8ff" d="M850.61,-115.28C930.41,-108.59 1117.71,-92.27 1274.5,-74 1277.74,-73.62 1281.07,-73.22 1284.42,-72.79"/>
<polygon fill="#63b8ff" stroke="#63b8ff" points="850.2,-111.8 840.53,-116.12 850.78,-118.78 850.2,-111.8"/>
</a>
</g>
</g>
<!-- Node17 -->
<g id="Node000017" class="node">
<title>Node17</title>
<g id="a_Node000017"><a xlink:href="OzoneSensor_8h.html" target="_top" xlink:title=" ">
<polygon fill="white" stroke="#666666" points="501,-74 412,-74 412,-55 501,-55 501,-74"/>
<text text-anchor="middle" x="456.5" y="-62" font-family="Helvetica,sans-Serif" font-size="10.00">OzoneSensor.h</text>
</a>
</g>
</g>
<!-- Node3&#45;&gt;Node17 -->
<g id="edge21_Node000003_Node000017" class="edge">
<title>Node3&#45;&gt;Node17</title>
<g id="a_edge21_Node000003_Node000017"><a xlink:title=" ">
<path fill="none" stroke="#63b8ff" d="M772.39,-112.66C705.94,-102.74 571.39,-82.65 501.28,-72.18"/>
<polygon fill="#63b8ff" stroke="#63b8ff" points="772.04,-116.15 782.45,-114.16 773.08,-109.22 772.04,-116.15"/>
</a>
</g>
</g>
<!-- Node19 -->
<g id="Node000019" class="node">
<title>Node19</title>
<g id="a_Node000019"><a xlink:href="PCF8523Sensor_8h.html" target="_top" xlink:title=" ">
<polygon fill="white" stroke="#666666" points="659,-74 558,-74 558,-55 659,-55 659,-74"/>
<text text-anchor="middle" x="608.5" y="-62" font-family="Helvetica,sans-Serif" font-size="10.00">PCF8523Sensor.h</text>
</a>
</g>
</g>
<!-- Node3&#45;&gt;Node19 -->
<g id="edge24_Node000003_Node000019" class="edge">
<title>Node3&#45;&gt;Node19</title>
<g id="a_edge24_Node000003_Node000019"><a xlink:title=" ">
<path fill="none" stroke="#63b8ff" d="M772.69,-108.37C734.58,-98.42 677.09,-83.41 641.23,-74.05"/>
<polygon fill="#63b8ff" stroke="#63b8ff" points="771.86,-111.77 782.42,-110.91 773.62,-104.99 771.86,-111.77"/>
</a>
</g>
</g>
<!-- Node21 -->
<g id="Node000021" class="node">
<title>Node21</title>
<g id="a_Node000021"><a xlink:href="SHTC3Sensor_8h.html" target="_top" xlink:title=" ">
<polygon fill="white" stroke="#666666" points="166,-74 77,-74 77,-55 166,-55 166,-74"/>
<text text-anchor="middle" x="121.5" y="-62" font-family="Helvetica,sans-Serif" font-size="10.00">SHTC3Sensor.h</text>
</a>
</g>
</g>
<!-- Node3&#45;&gt;Node21 -->
<g id="edge27_Node000003_Node000021" class="edge">
<title>Node3&#45;&gt;Node21</title>
<g id="a_edge27_Node000003_Node000021"><a xlink:title=" ">
<path fill="none" stroke="#63b8ff" d="M771.95,-116.97C671.73,-112.81 399.78,-99.88 174.5,-74 171.82,-73.69 169.06,-73.34 166.28,-72.97"/>
<polygon fill="#63b8ff" stroke="#63b8ff" points="772.07,-120.47 782.21,-117.39 772.36,-113.48 772.07,-120.47"/>
</a>
</g>
</g>
<!-- Node23 -->
<g id="Node000023" class="node">
<title>Node23</title>
<g id="a_Node000023"><a xlink:href="TMP11xSensor_8h.html" target="_top" xlink:title=" ">
<polygon fill="white" stroke="#666666" points="394,-74 297,-74 297,-55 394,-55 394,-74"/>
<text text-anchor="middle" x="345.5" y="-62" font-family="Helvetica,sans-Serif" font-size="10.00">TMP11xSensor.h</text>
</a>
</g>
</g>
<!-- Node3&#45;&gt;Node23 -->
<g id="edge31_Node000003_Node000023" class="edge">
<title>Node3&#45;&gt;Node23</title>
<g id="a_edge31_Node000003_Node000023"><a xlink:title=" ">
<path fill="none" stroke="#63b8ff" d="M772.34,-114.76C699.45,-107.69 538.04,-91.47 402.5,-74 399.82,-73.65 397.07,-73.29 394.3,-72.91"/>
<polygon fill="#63b8ff" stroke="#63b8ff" points="772.15,-118.26 782.44,-115.74 772.83,-111.29 772.15,-118.26"/>
</a>
</g>
</g>
<!-- Node25 -->
<g id="Node000025" class="node">
<title>Node25</title>
<g id="a_Node000025"><a xlink:href="TempSensor_8h.html" target="_top" xlink:title=" ">
<polygon fill="white" stroke="#666666" points="799.5,-74 715.5,-74 715.5,-55 799.5,-55 799.5,-74"/>
<text text-anchor="middle" x="757.5" y="-62" font-family="Helvetica,sans-Serif" font-size="10.00">TempSensor.h</text>
</a>
</g>
</g>
<!-- Node3&#45;&gt;Node25 -->
<g id="edge35_Node000003_Node000025" class="edge">
<title>Node3&#45;&gt;Node25</title>
<g id="a_edge35_Node000003_Node000025"><a xlink:title=" ">
<path fill="none" stroke="#63b8ff" d="M795.22,-102.52C785.7,-93.18 774.06,-81.75 766.25,-74.09"/>
<polygon fill="#63b8ff" stroke="#63b8ff" points="792.99,-105.24 802.58,-109.75 797.9,-100.25 792.99,-105.24"/>
</a>
</g>
</g>
<!-- Node5 -->
<g id="Node000005" class="node">
<title>Node5</title>
<g id="a_Node000005"><a xlink:href="AS7331Sensor_8cpp.html" target="_top" xlink:title=" ">
<polygon fill="white" stroke="#666666" points="918.5,-19 812.5,-19 812.5,0 918.5,0 918.5,-19"/>
<text text-anchor="middle" x="865.5" y="-7" font-family="Helvetica,sans-Serif" font-size="10.00">AS7331Sensor.cpp</text>
</a>
</g>
</g>
<!-- Node4&#45;&gt;Node5 -->
<g id="edge4_Node000004_Node000005" class="edge">
<title>Node4&#45;&gt;Node5</title>
<g id="a_edge4_Node000004_Node000005"><a xlink:title=" ">
<path fill="none" stroke="#63b8ff" d="M865.5,-44.66C865.5,-35.93 865.5,-25.99 865.5,-19.09"/>
<polygon fill="#63b8ff" stroke="#63b8ff" points="862,-44.75 865.5,-54.75 869,-44.75 862,-44.75"/>
</a>
</g>
</g>
<!-- Node4&#45;&gt;Node6 -->
<g id="edge5_Node000004_Node000006" class="edge">
<title>Node4&#45;&gt;Node6</title>
<g id="a_edge5_Node000004_Node000006"><a xlink:title=" ">
<path fill="none" stroke="#63b8ff" d="M820.86,-52.55C778.98,-42.27 717.42,-27.17 680.61,-18.13"/>
<polygon fill="#63b8ff" stroke="#63b8ff" points="820.25,-56 830.8,-54.98 821.92,-49.2 820.25,-56"/>
</a>
</g>
</g>
<!-- Node7&#45;&gt;Node6 -->
<g id="edge8_Node000007_Node000006" class="edge">
<title>Node7&#45;&gt;Node6</title>
<g id="a_edge8_Node000007_Node000006"><a xlink:title=" ">
<path fill="none" stroke="#63b8ff" d="M921.08,-54.83C849.29,-44.28 732.75,-26.9 689.5,-19 686.71,-18.49 683.81,-17.93 680.91,-17.35"/>
<polygon fill="#63b8ff" stroke="#63b8ff" points="920.93,-58.34 931.34,-56.33 921.95,-51.42 920.93,-58.34"/>
</a>
</g>
</g>
<!-- Node8 -->
<g id="Node000008" class="node">
<title>Node8</title>
<g id="a_Node000008"><a xlink:href="BMP390Sensor_8cpp.html" target="_top" xlink:title=" ">
<polygon fill="white" stroke="#666666" points="1046,-19 937,-19 937,0 1046,0 1046,-19"/>
<text text-anchor="middle" x="991.5" y="-7" font-family="Helvetica,sans-Serif" font-size="10.00">BMP390Sensor.cpp</text>
</a>
</g>
</g>
<!-- Node7&#45;&gt;Node8 -->
<g id="edge7_Node000007_Node000008" class="edge">
<title>Node7&#45;&gt;Node8</title>
<g id="a_edge7_Node000007_Node000008"><a xlink:title=" ">
<path fill="none" stroke="#63b8ff" d="M984.35,-44.95C986.18,-36.15 988.27,-26.06 989.72,-19.09"/>
<polygon fill="#63b8ff" stroke="#63b8ff" points="980.92,-44.25 982.32,-54.75 987.78,-45.67 980.92,-44.25"/>
</a>
</g>
</g>
<!-- Node9&#45;&gt;Node6 -->
<g id="edge11_Node000009_Node000006" class="edge">
<title>Node9&#45;&gt;Node6</title>
<g id="a_edge11_Node000009_Node000006"><a xlink:title=" ">
<path fill="none" stroke="#63b8ff" d="M289.15,-54.83C431.99,-36.44 470.54,-41.48 609.5,-19 612.3,-18.55 615.21,-18.03 618.11,-17.47"/>
<polygon fill="#63b8ff" stroke="#63b8ff" points="288.6,-51.37 279.14,-56.14 289.51,-58.32 288.6,-51.37"/>
</a>
</g>
</g>
<!-- Node10 -->
<g id="Node000010" class="node">
<title>Node10</title>
<g id="a_Node000010"><a xlink:href="ENS160Sensor_8cpp.html" target="_top" xlink:title=" ">
<polygon fill="white" stroke="#666666" points="226,-19 119,-19 119,0 226,0 226,-19"/>
<text text-anchor="middle" x="172.5" y="-7" font-family="Helvetica,sans-Serif" font-size="10.00">ENS160Sensor.cpp</text>
</a>
</g>
</g>
<!-- Node9&#45;&gt;Node10 -->
<g id="edge10_Node000009_Node000010" class="edge">
<title>Node9&#45;&gt;Node10</title>
<g id="a_edge10_Node000009_Node000010"><a xlink:title=" ">
<path fill="none" stroke="#63b8ff" d="M214.3,-48.04C203.83,-38.64 190.85,-26.98 182.15,-19.17"/>
<polygon fill="#63b8ff" stroke="#63b8ff" points="212.24,-50.91 222.02,-54.98 216.92,-45.7 212.24,-50.91"/>
</a>
</g>
</g>
<!-- Node11&#45;&gt;Node6 -->
<g id="edge14_Node000011_Node000006" class="edge">
<title>Node11&#45;&gt;Node6</title>
<g id="a_edge14_Node000011_Node000006"><a xlink:title=" ">
<path fill="none" stroke="#63b8ff" d="M1037.95,-54.98C881.97,-36.83 840.38,-42.74 689.5,-19 686.69,-18.56 683.79,-18.05 680.88,-17.5"/>
<polygon fill="#63b8ff" stroke="#63b8ff" points="1037.56,-58.46 1047.9,-56.15 1038.38,-51.51 1037.56,-58.46"/>
</a>
</g>
</g>
<!-- Node12 -->
<g id="Node000012" class="node">
<title>Node12</title>
<g id="a_Node000012"><a xlink:href="ICM20948Sensor_8cpp.html" target="_top" xlink:title=" ">
<polygon fill="white" stroke="#666666" points="1182.5,-19 1064.5,-19 1064.5,0 1182.5,0 1182.5,-19"/>
<text text-anchor="middle" x="1123.5" y="-7" font-family="Helvetica,sans-Serif" font-size="10.00">ICM20948Sensor.cpp</text>
</a>
</g>
</g>
<!-- Node11&#45;&gt;Node12 -->
<g id="edge13_Node000011_Node000012" class="edge">
<title>Node11&#45;&gt;Node12</title>
<g id="a_edge13_Node000011_Node000012"><a xlink:title=" ">
<path fill="none" stroke="#63b8ff" d="M1109.08,-45.24C1112.76,-36.37 1117.01,-26.14 1119.93,-19.09"/>
<polygon fill="#63b8ff" stroke="#63b8ff" points="1105.73,-44.17 1105.13,-54.75 1112.2,-46.85 1105.73,-44.17"/>
</a>
</g>
</g>
<!-- Node13&#45;&gt;Node6 -->
<g id="edge17_Node000013_Node000006" class="edge">
<title>Node13&#45;&gt;Node6</title>
<g id="a_edge17_Node000013_Node000006"><a xlink:title=" ">
<path fill="none" stroke="#63b8ff" d="M1162.63,-55C951.82,-31.68 895.36,-48.56 689.5,-19 686.69,-18.6 683.78,-18.11 680.87,-17.58"/>
<polygon fill="#63b8ff" stroke="#63b8ff" points="1162.46,-58.5 1172.78,-56.14 1163.24,-51.55 1162.46,-58.5"/>
</a>
</g>
</g>
<!-- Node14 -->
<g id="Node000014" class="node">
<title>Node14</title>
<g id="a_Node000014"><a xlink:href="INA260Sensor_8cpp.html" target="_top" xlink:title=" ">
<polygon fill="white" stroke="#666666" points="1304.5,-19 1200.5,-19 1200.5,0 1304.5,0 1304.5,-19"/>
<text text-anchor="middle" x="1252.5" y="-7" font-family="Helvetica,sans-Serif" font-size="10.00">INA260Sensor.cpp</text>
</a>
</g>
</g>
<!-- Node13&#45;&gt;Node14 -->
<g id="edge16_Node000013_Node000014" class="edge">
<title>Node13&#45;&gt;Node14</title>
<g id="a_edge16_Node000013_Node000014"><a xlink:title=" ">
<path fill="none" stroke="#63b8ff" d="M1230.33,-46.1C1235.97,-37.04 1242.62,-26.37 1247.15,-19.09"/>
<polygon fill="#63b8ff" stroke="#63b8ff" points="1227.26,-44.41 1224.95,-54.75 1233.21,-48.11 1227.26,-44.41"/>
</a>
</g>
</g>
<!-- Node15&#45;&gt;Node6 -->
<g id="edge20_Node000015_Node000006" class="edge">
<title>Node15&#45;&gt;Node6</title>
<g id="a_edge20_Node000015_Node000006"><a xlink:title=" ">
<path fill="none" stroke="#63b8ff" d="M1274.28,-55.08C1013.53,-29.91 944.33,-53.72 689.5,-19 686.69,-18.62 683.78,-18.15 680.87,-17.62"/>
<polygon fill="#63b8ff" stroke="#63b8ff" points="1274.14,-58.58 1284.44,-56.07 1274.83,-51.62 1274.14,-58.58"/>
</a>
</g>
</g>
<!-- Node16 -->
<g id="Node000016" class="node">
<title>Node16</title>
<g id="a_Node000016"><a xlink:href="MTK3339Sensor_8cpp.html" target="_top" xlink:title=" ">
<polygon fill="white" stroke="#666666" points="1438,-19 1323,-19 1323,0 1438,0 1438,-19"/>
<text text-anchor="middle" x="1380.5" y="-7" font-family="Helvetica,sans-Serif" font-size="10.00">MTK3339Sensor.cpp</text>
</a>
</g>
</g>
<!-- Node15&#45;&gt;Node16 -->
<g id="edge19_Node000015_Node000016" class="edge">
<title>Node15&#45;&gt;Node16</title>
<g id="a_edge19_Node000015_Node000016"><a xlink:title=" ">
<path fill="none" stroke="#63b8ff" d="M1350.23,-46.96C1357.9,-37.72 1367.13,-26.6 1373.37,-19.09"/>
<polygon fill="#63b8ff" stroke="#63b8ff" points="1347.46,-44.82 1343.77,-54.75 1352.85,-49.29 1347.46,-44.82"/>
</a>
</g>
</g>
<!-- Node17&#45;&gt;Node6 -->
<g id="edge23_Node000017_Node000006" class="edge">
<title>Node17&#45;&gt;Node6</title>
<g id="a_edge23_Node000017_Node000006"><a xlink:title=" ">
<path fill="none" stroke="#63b8ff" d="M497.25,-52.31C533.36,-42.39 585.33,-28.12 618.25,-19.08"/>
<polygon fill="#63b8ff" stroke="#63b8ff" points="496.22,-48.96 487.51,-54.98 498.08,-55.71 496.22,-48.96"/>
</a>
</g>
</g>
<!-- Node18 -->
<g id="Node000018" class="node">
<title>Node18</title>
<g id="a_Node000018"><a xlink:href="OzoneSensor_8cpp.html" target="_top" xlink:title=" ">
<polygon fill="white" stroke="#666666" points="470.5,-19 370.5,-19 370.5,0 470.5,0 470.5,-19"/>
<text text-anchor="middle" x="420.5" y="-7" font-family="Helvetica,sans-Serif" font-size="10.00">OzoneSensor.cpp</text>
</a>
</g>
</g>
<!-- Node17&#45;&gt;Node18 -->
<g id="edge22_Node000017_Node000018" class="edge">
<title>Node17&#45;&gt;Node18</title>
<g id="a_edge22_Node000017_Node000018"><a xlink:title=" ">
<path fill="none" stroke="#63b8ff" d="M444.88,-46.39C438.68,-37.27 431.33,-26.45 426.33,-19.09"/>
<polygon fill="#63b8ff" stroke="#63b8ff" points="442.04,-48.44 450.56,-54.75 447.83,-44.51 442.04,-48.44"/>
</a>
</g>
</g>
<!-- Node19&#45;&gt;Node6 -->
<g id="edge26_Node000019_Node000006" class="edge">
<title>Node19&#45;&gt;Node6</title>
<g id="a_edge26_Node000019_Node000006"><a xlink:title=" ">
<path fill="none" stroke="#63b8ff" d="M621.52,-46.67C628.62,-37.5 637.1,-26.52 642.86,-19.09"/>
<polygon fill="#63b8ff" stroke="#63b8ff" points="618.62,-44.7 615.27,-54.75 624.16,-48.98 618.62,-44.7"/>
</a>
</g>
</g>
<!-- Node20 -->
<g id="Node000020" class="node">
<title>Node20</title>
<g id="a_Node000020"><a xlink:href="PCF8523Sensor_8cpp.html" target="_top" xlink:title=" ">
<polygon fill="white" stroke="#666666" points="600.5,-19 488.5,-19 488.5,0 600.5,0 600.5,-19"/>
<text text-anchor="middle" x="544.5" y="-7" font-family="Helvetica,sans-Serif" font-size="10.00">PCF8523Sensor.cpp</text>
</a>
</g>
</g>
<!-- Node19&#45;&gt;Node20 -->
<g id="edge25_Node000019_Node000020" class="edge">
<title>Node19&#45;&gt;Node20</title>
<g id="a_edge25_Node000019_Node000020"><a xlink:title=" ">
<path fill="none" stroke="#63b8ff" d="M590.51,-48.6C579.04,-39.11 564.59,-27.13 554.97,-19.17"/>
<polygon fill="#63b8ff" stroke="#63b8ff" points="588.28,-51.3 598.22,-54.98 592.75,-45.91 588.28,-51.3"/>
</a>
</g>
</g>
<!-- Node21&#45;&gt;Node6 -->
<g id="edge30_Node000021_Node000006" class="edge">
<title>Node21&#45;&gt;Node6</title>
<g id="a_edge30_Node000021_Node000006"><a xlink:title=" ">
<path fill="none" stroke="#63b8ff" d="M176.45,-54.85C368.85,-32.14 420.85,-46.74 609.5,-19 612.31,-18.59 615.22,-18.1 618.13,-17.56"/>
<polygon fill="#63b8ff" stroke="#63b8ff" points="175.8,-51.4 166.29,-56.07 176.63,-58.36 175.8,-51.4"/>
</a>
</g>
</g>
<!-- Node21&#45;&gt;Node10 -->
<g id="edge28_Node000021_Node000010" class="edge">
<title>Node21&#45;&gt;Node10</title>
<g id="a_edge28_Node000021_Node000010"><a xlink:title=" ">
<path fill="none" stroke="#63b8ff" d="M136.88,-47.52C145.87,-38.18 156.86,-26.75 164.24,-19.09"/>
<polygon fill="#63b8ff" stroke="#63b8ff" points="134.33,-45.12 129.92,-54.75 139.38,-49.97 134.33,-45.12"/>
</a>
</g>
</g>
<!-- Node22 -->
<g id="Node000022" class="node">
<title>Node22</title>
<g id="a_Node000022"><a xlink:href="SHTC3Sensor_8cpp.html" target="_top" xlink:title=" ">
<polygon fill="white" stroke="#666666" points="101,-19 0,-19 0,0 101,0 101,-19"/>
<text text-anchor="middle" x="50.5" y="-7" font-family="Helvetica,sans-Serif" font-size="10.00">SHTC3Sensor.cpp</text>
</a>
</g>
</g>
<!-- Node21&#45;&gt;Node22 -->
<g id="edge29_Node000021_Node000022" class="edge">
<title>Node21&#45;&gt;Node22</title>
<g id="a_edge29_Node000021_Node000022"><a xlink:title=" ">
<path fill="none" stroke="#63b8ff" d="M101.91,-48.88C89.13,-39.34 72.89,-27.21 62.11,-19.17"/>
<polygon fill="#63b8ff" stroke="#63b8ff" points="99.99,-51.81 110.09,-54.98 104.17,-46.2 99.99,-51.81"/>
</a>
</g>
</g>
<!-- Node23&#45;&gt;Node6 -->
<g id="edge34_Node000023_Node000006" class="edge">
<title>Node23&#45;&gt;Node6</title>
<g id="a_edge34_Node000023_Node000006"><a xlink:title=" ">
<path fill="none" stroke="#63b8ff" d="M404.27,-54.33C457.86,-45.79 539.15,-32.4 609.5,-19 612.29,-18.47 615.18,-17.9 618.08,-17.31"/>
<polygon fill="#63b8ff" stroke="#63b8ff" points="403.6,-50.89 394.27,-55.91 404.69,-57.8 403.6,-50.89"/>
</a>
</g>
</g>
<!-- Node23&#45;&gt;Node10 -->
<g id="edge32_Node000023_Node000010" class="edge">
<title>Node23&#45;&gt;Node10</title>
<g id="a_edge32_Node000023_Node000010"><a xlink:title=" ">
<path fill="none" stroke="#63b8ff" d="M307.73,-51.93C275.41,-42.03 229.64,-28.01 200.51,-19.08"/>
<polygon fill="#63b8ff" stroke="#63b8ff" points="307.12,-55.4 317.7,-54.98 309.17,-48.71 307.12,-55.4"/>
</a>
</g>
</g>
<!-- Node24 -->
<g id="Node000024" class="node">
<title>Node24</title>
<g id="a_Node000024"><a xlink:href="TMP11xSensor_8cpp.html" target="_top" xlink:title=" ">
<polygon fill="white" stroke="#666666" points="352.5,-19 244.5,-19 244.5,0 352.5,0 352.5,-19"/>
<text text-anchor="middle" x="298.5" y="-7" font-family="Helvetica,sans-Serif" font-size="10.00">TMP11xSensor.cpp</text>
</a>
</g>
</g>
<!-- Node23&#45;&gt;Node24 -->
<g id="edge33_Node000023_Node000024" class="edge">
<title>Node23&#45;&gt;Node24</title>
<g id="a_edge33_Node000023_Node000024"><a xlink:title=" ">
<path fill="none" stroke="#63b8ff" d="M331.08,-47.24C322.84,-37.95 312.85,-26.68 306.12,-19.09"/>
<polygon fill="#63b8ff" stroke="#63b8ff" points="328.49,-49.59 337.74,-54.75 333.72,-44.94 328.49,-49.59"/>
</a>
</g>
</g>
<!-- Node25&#45;&gt;Node6 -->
<g id="edge37_Node000025_Node000006" class="edge">
<title>Node25&#45;&gt;Node6</title>
<g id="a_edge37_Node000025_Node000006"><a xlink:title=" ">
<path fill="none" stroke="#63b8ff" d="M731.01,-50.5C711.14,-40.75 684.5,-27.68 667.17,-19.17"/>
<polygon fill="#63b8ff" stroke="#63b8ff" points="729.63,-53.72 740.15,-54.98 732.71,-47.44 729.63,-53.72"/>
</a>
</g>
</g>
<!-- Node26 -->
<g id="Node000026" class="node">
<title>Node26</title>
<g id="a_Node000026"><a xlink:href="TempSensor_8cpp.html" target="_top" xlink:title=" ">
<polygon fill="white" stroke="#666666" points="794,-19 699,-19 699,0 794,0 794,-19"/>
<text text-anchor="middle" x="746.5" y="-7" font-family="Helvetica,sans-Serif" font-size="10.00">TempSensor.cpp</text>
</a>
</g>
</g>
<!-- Node25&#45;&gt;Node26 -->
<g id="edge36_Node000025_Node000026" class="edge">
<title>Node25&#45;&gt;Node26</title>
<g id="a_edge36_Node000025_Node000026"><a xlink:title=" ">
<path fill="none" stroke="#63b8ff" d="M753.65,-44.95C751.82,-36.15 749.73,-26.06 748.28,-19.09"/>
<polygon fill="#63b8ff" stroke="#63b8ff" points="750.22,-45.67 755.68,-54.75 757.08,-44.25 750.22,-45.67"/>
</a>
</g>
</g>
<!-- Node28 -->
<g id="Node000028" class="node">
<title>Node28</title>
<g id="a_Node000028"><a xlink:href="FlashStorage_8h.html" target="_top" xlink:title=" ">
<polygon fill="white" stroke="#666666" points="1794,-74 1705,-74 1705,-55 1794,-55 1794,-74"/>
<text text-anchor="middle" x="1749.5" y="-62" font-family="Helvetica,sans-Serif" font-size="10.00">FlashStorage.h</text>
</a>
</g>
</g>
<!-- Node27&#45;&gt;Node28 -->
<g id="edge40_Node000027_Node000028" class="edge">
<title>Node27&#45;&gt;Node28</title>
<g id="a_edge40_Node000027_Node000028"><a xlink:title=" ">
<path fill="none" stroke="#63b8ff" d="M1599.28,-107.18C1635,-97.27 1686.13,-83.08 1718.57,-74.08"/>
<polygon fill="#63b8ff" stroke="#63b8ff" points="1597.89,-103.94 1589.19,-109.98 1599.76,-110.68 1597.89,-103.94"/>
</a>
</g>
</g>
<!-- Node27&#45;&gt;Node30 -->
<g id="edge49_Node000027_Node000030" class="edge">
<title>Node27&#45;&gt;Node30</title>
<g id="a_edge49_Node000027_Node000030"><a xlink:title=" ">
<path fill="none" stroke="#63b8ff" d="M1593.94,-106.27C1613.39,-98.63 1637.38,-87.65 1656.5,-74 1678.97,-57.96 1699.81,-32.63 1709.99,-19.33"/>
<polygon fill="#63b8ff" stroke="#63b8ff" points="1592.62,-103.02 1584.51,-109.85 1595.1,-109.57 1592.62,-103.02"/>
</a>
</g>
</g>
<!-- Node31 -->
<g id="Node000031" class="node">
<title>Node31</title>
<g id="a_Node000031"><a xlink:href="RadioStorage_8h.html" target="_top" xlink:title=" ">
<polygon fill="white" stroke="#666666" points="1553,-74 1462,-74 1462,-55 1553,-55 1553,-74"/>
<text text-anchor="middle" x="1507.5" y="-62" font-family="Helvetica,sans-Serif" font-size="10.00">RadioStorage.h</text>
</a>
</g>
</g>
<!-- Node27&#45;&gt;Node31 -->
<g id="edge43_Node000027_Node000031" class="edge">
<title>Node27&#45;&gt;Node31</title>
<g id="a_edge43_Node000027_Node000031"><a xlink:title=" ">
<path fill="none" stroke="#63b8ff" d="M1543.12,-102.52C1534.13,-93.18 1523.14,-81.75 1515.76,-74.09"/>
<polygon fill="#63b8ff" stroke="#63b8ff" points="1540.62,-104.97 1550.08,-109.75 1545.67,-100.12 1540.62,-104.97"/>
</a>
</g>
</g>
<!-- Node33 -->
<g id="Node000033" class="node">
<title>Node33</title>
<g id="a_Node000033"><a xlink:href="SDStorage_8h.html" target="_top" xlink:title=" ">
<polygon fill="white" stroke="#666666" points="1648,-74 1571,-74 1571,-55 1648,-55 1648,-74"/>
<text text-anchor="middle" x="1609.5" y="-62" font-family="Helvetica,sans-Serif" font-size="10.00">SDStorage.h</text>
</a>
</g>
</g>
<!-- Node27&#45;&gt;Node33 -->
<g id="edge46_Node000027_Node000033" class="edge">
<title>Node27&#45;&gt;Node33</title>
<g id="a_edge46_Node000027_Node000033"><a xlink:title=" ">
<path fill="none" stroke="#63b8ff" d="M1573.88,-102.52C1582.87,-93.18 1593.86,-81.75 1601.24,-74.09"/>
<polygon fill="#63b8ff" stroke="#63b8ff" points="1571.33,-100.12 1566.92,-109.75 1576.38,-104.97 1571.33,-100.12"/>
</a>
</g>
</g>
<!-- Node29 -->
<g id="Node000029" class="node">
<title>Node29</title>
<g id="a_Node000029"><a xlink:href="FlashStorage_8cpp.html" target="_top" xlink:title=" ">
<polygon fill="white" stroke="#666666" points="1870,-19 1769,-19 1769,0 1870,0 1870,-19"/>
<text text-anchor="middle" x="1819.5" y="-7" font-family="Helvetica,sans-Serif" font-size="10.00">FlashStorage.cpp</text>
</a>
</g>
</g>
<!-- Node28&#45;&gt;Node29 -->
<g id="edge41_Node000028_Node000029" class="edge">
<title>Node28&#45;&gt;Node29</title>
<g id="a_edge41_Node000028_Node000029"><a xlink:title=" ">
<path fill="none" stroke="#63b8ff" d="M1768.81,-48.88C1781.41,-39.34 1797.43,-27.21 1808.05,-19.17"/>
<polygon fill="#63b8ff" stroke="#63b8ff" points="1766.61,-46.16 1760.75,-54.98 1770.83,-51.74 1766.61,-46.16"/>
</a>
</g>
</g>
<!-- Node28&#45;&gt;Node30 -->
<g id="edge42_Node000028_Node000030" class="edge">
<title>Node28&#45;&gt;Node30</title>
<g id="a_edge42_Node000028_Node000030"><a xlink:title=" ">
<path fill="none" stroke="#63b8ff" d="M1738.67,-46.1C1733.03,-37.04 1726.38,-26.37 1721.85,-19.09"/>
<polygon fill="#63b8ff" stroke="#63b8ff" points="1735.79,-48.11 1744.05,-54.75 1741.74,-44.41 1735.79,-48.11"/>
</a>
</g>
</g>
<!-- Node31&#45;&gt;Node30 -->
<g id="edge45_Node000031_Node000030" class="edge">
<title>Node31&#45;&gt;Node30</title>
<g id="a_edge45_Node000031_Node000030"><a xlink:title=" ">
<path fill="none" stroke="#63b8ff" d="M1550.87,-52.5C1590.01,-42.58 1646.78,-28.18 1682.66,-19.08"/>
<polygon fill="#63b8ff" stroke="#63b8ff" points="1549.91,-49.13 1541.08,-54.98 1551.63,-55.92 1549.91,-49.13"/>
</a>
</g>
</g>
<!-- Node32 -->
<g id="Node000032" class="node">
<title>Node32</title>
<g id="a_Node000032"><a xlink:href="RadioStorage_8cpp.html" target="_top" xlink:title=" ">
<polygon fill="white" stroke="#666666" points="1558.5,-19 1456.5,-19 1456.5,0 1558.5,0 1558.5,-19"/>
<text text-anchor="middle" x="1507.5" y="-7" font-family="Helvetica,sans-Serif" font-size="10.00">RadioStorage.cpp</text>
</a>
</g>
</g>
<!-- Node31&#45;&gt;Node32 -->
<g id="edge44_Node000031_Node000032" class="edge">
<title>Node31&#45;&gt;Node32</title>
<g id="a_edge44_Node000031_Node000032"><a xlink:title=" ">
<path fill="none" stroke="#63b8ff" d="M1507.5,-44.66C1507.5,-35.93 1507.5,-25.99 1507.5,-19.09"/>
<polygon fill="#63b8ff" stroke="#63b8ff" points="1504,-44.75 1507.5,-54.75 1511,-44.75 1504,-44.75"/>
</a>
</g>
</g>
<!-- Node33&#45;&gt;Node30 -->
<g id="edge48_Node000033_Node000030" class="edge">
<title>Node33&#45;&gt;Node30</title>
<g id="a_edge48_Node000033_Node000030"><a xlink:title=" ">
<path fill="none" stroke="#63b8ff" d="M1635.74,-50.5C1655.43,-40.75 1681.82,-27.68 1699,-19.17"/>
<polygon fill="#63b8ff" stroke="#63b8ff" points="1634.1,-47.41 1626.69,-54.98 1637.21,-53.68 1634.1,-47.41"/>
</a>
</g>
</g>
<!-- Node34 -->
<g id="Node000034" class="node">
<title>Node34</title>
<g id="a_Node000034"><a xlink:href="SDStorage_8cpp.html" target="_top" xlink:title=" ">
<polygon fill="white" stroke="#666666" points="1664.5,-19 1576.5,-19 1576.5,0 1664.5,0 1664.5,-19"/>
<text text-anchor="middle" x="1620.5" y="-7" font-family="Helvetica,sans-Serif" font-size="10.00">SDStorage.cpp</text>
</a>
</g>
</g>
<!-- Node33&#45;&gt;Node34 -->
<g id="edge47_Node000033_Node000034" class="edge">
<title>Node33&#45;&gt;Node34</title>
<g id="a_edge47_Node000033_Node000034"><a xlink:title=" ">
<path fill="none" stroke="#63b8ff" d="M1613.35,-44.95C1615.18,-36.15 1617.27,-26.06 1618.72,-19.09"/>
<polygon fill="#63b8ff" stroke="#63b8ff" points="1609.92,-44.25 1611.32,-54.75 1616.78,-45.67 1609.92,-44.25"/>
</a>
</g>
</g>
</g>
</svg>
