<?xml version="1.0" encoding="UTF-8" standalone="no"?>
<!DOCTYPE svg PUBLIC "-//W3C//DTD SVG 1.1//EN"
 "http://www.w3.org/Graphics/SVG/1.1/DTD/svg11.dtd">
<!-- Generated by graphviz version 2.43.0 (0)
 -->
<!-- Title: Logger.h Pages: 1 -->
<!--zoomable 247 -->

<svg id="main" version="1.1" xmlns="http://www.w3.org/2000/svg" xmlns:xlink="http://www.w3.org/1999/xlink" xml:space="preserve" onload="init(evt)">
<style type="text/css"><![CDATA[
.node, .edge {opacity: 0.7;}
.node.selected, .edge.selected {opacity: 1;}
.edge:hover path { stroke: red; }
.edge:hover polygon { stroke: red; fill: red; }
]]></style>

<defs>
  <circle id="rim" cx="0" cy="0" r="7"/>
  <circle id="rim2" cx="0" cy="0" r="3.5"/>
  <g id="zoomPlus">
    <use xlink:href="#rim" fill="#404040"><set attributeName="fill" to="#808080" begin="zoomplus.mouseover" end="zoomplus.mouseout"/></use>
    <path d="M-4,0h8M0,-4v8" fill="none" stroke="white" stroke-width="1.5" pointer-events="none"/>
  </g>
  <g id="zoomMin">
    <use xlink:href="#rim" fill="#404040"><set attributeName="fill" to="#808080" begin="zoomminus.mouseover" end="zoomminus.mouseout"/></use>
    <path d="M-4,0h8" fill="none" stroke="white" stroke-width="1.5" pointer-events="none"/>
  </g>
  <g id="arrowUp" transform="translate(30 24)">
    <use xlink:href="#rim"/>
    <path pointer-events="none" fill="none" stroke="white" stroke-width="1.5" d="M0,-3.0v7 M-2.5,-0.5L0,-3.0L2.5,-0.5"/>
  </g>
  <g id="arrowRight" transform="rotate(90) translate(36 -43)">
    <use xlink:href="#rim"/>
    <path pointer-events="none" fill="none" stroke="white" stroke-width="1.5" d="M0,-3.0v7 M-2.5,-0.5L0,-3.0L2.5,-0.5"/>
  </g>
  <g id="arrowDown" transform="rotate(180) translate(-30 -48)">
    <use xlink:href="#rim"/>
    <path pointer-events="none" fill="none" stroke="white" stroke-width="1.5" d="M0,-3.0v7 M-2.5,-0.5L0,-3.0L2.5,-0.5"/>
  </g>
  <g id="arrowLeft" transform="rotate(270) translate(-36 17)">
    <use xlink:href="#rim"/>
    <path pointer-events="none" fill="none" stroke="white" stroke-width="1.5" d="M0,-3.0v7 M-2.5,-0.5L0,-3.0L2.5,-0.5"/>
  </g>
  <g id="resetDef">
    <use xlink:href="#rim2" fill="#404040"><set attributeName="fill" to="#808080" begin="reset.mouseover" end="reset.mouseout"/></use>
  </g>
</defs>
<script type="application/ecmascript">
var viewWidth = 2010;
var viewHeight = 247;
var sectionId = 'dynsection-1';
</script>
<script type="application/ecmascript" xlink:href="svg.min.js"/>
<svg id="graph" class="graph">
<g id="viewport">
<title>Logger.h</title>
<!-- Node1 -->
<g id="Node000001" class="node">
<title>Node1</title>
<g id="a_Node000001"><a xlink:title=" ">
<polygon fill="#999999" stroke="#666666" points="1730.5,-239 1672.5,-239 1672.5,-220 1730.5,-220 1730.5,-239"/>
<text text-anchor="middle" x="1701.5" y="-227" font-family="Helvetica,sans-Serif" font-size="10.00">Logger.h</text>
</a>
</g>
</g>
<!-- Node2 -->
<g id="Node000002" class="node">
<title>Node2</title>
<g id="a_Node000002"><a xlink:href="Device_8h.html" target="_top" xlink:title=" ">
<polygon fill="white" stroke="#666666" points="1760,-184 1701,-184 1701,-165 1760,-165 1760,-184"/>
<text text-anchor="middle" x="1730.5" y="-172" font-family="Helvetica,sans-Serif" font-size="10.00">Device.h</text>
</a>
</g>
</g>
<!-- Node1&#45;&gt;Node2 -->
<g id="edge1_Node000001_Node000002" class="edge">
<title>Node1&#45;&gt;Node2</title>
<g id="a_edge1_Node000001_Node000002"><a xlink:title=" ">
<path fill="none" stroke="#63b8ff" d="M1711.18,-210.82C1716.1,-201.82 1721.86,-191.29 1725.8,-184.09"/>
<polygon fill="#63b8ff" stroke="#63b8ff" points="1708.02,-209.3 1706.29,-219.75 1714.16,-212.66 1708.02,-209.3"/>
</a>
</g>
</g>
<!-- Node3 -->
<g id="Node000003" class="node">
<title>Node3</title>
<g id="a_Node000003"><a xlink:href="Sensor_8h.html" target="_top" xlink:title=" ">
<polygon fill="white" stroke="#666666" points="943.5,-129 885.5,-129 885.5,-110 943.5,-110 943.5,-129"/>
<text text-anchor="middle" x="914.5" y="-117" font-family="Helvetica,sans-Serif" font-size="10.00">Sensor.h</text>
</a>
</g>
</g>
<!-- Node1&#45;&gt;Node3 -->
<g id="edge53_Node000001_Node000003" class="edge">
<title>Node1&#45;&gt;Node3</title>
<g id="a_edge53_Node000001_Node000003"><a xlink:title=" ">
<path fill="none" stroke="#63b8ff" d="M1661.95,-223.07C1523.73,-204.11 1064.16,-141.04 943.64,-124.5"/>
<polygon fill="#63b8ff" stroke="#63b8ff" points="1661.7,-226.57 1672.09,-224.46 1662.65,-219.64 1661.7,-226.57"/>
</a>
</g>
</g>
<!-- Node6 -->
<g id="Node000006" class="node">
<title>Node6</title>
<g id="a_Node000006"><a xlink:href="main_8cpp.html" target="_top" xlink:title="Main functions for Core 0, responsible for reading data from sensor peripherals.">
<polygon fill="white" stroke="#666666" points="916.5,-19 854.5,-19 854.5,0 916.5,0 916.5,-19"/>
<text text-anchor="middle" x="885.5" y="-7" font-family="Helvetica,sans-Serif" font-size="10.00">main.cpp</text>
</a>
</g>
</g>
<!-- Node1&#45;&gt;Node6 -->
<g id="edge55_Node000001_Node000006" class="edge">
<title>Node1&#45;&gt;Node6</title>
<g id="a_edge55_Node000001_Node000006"><a xlink:title=" ">
<path fill="none" stroke="#63b8ff" d="M1678.56,-214.53C1612.13,-174.12 1423.35,-59.67 1408.5,-55 1203.14,9.54 1138.6,-49.44 925.5,-19 922.69,-18.6 919.78,-18.11 916.87,-17.58"/>
<polygon fill="#63b8ff" stroke="#63b8ff" points="1677.08,-217.72 1687.44,-219.93 1680.72,-211.74 1677.08,-217.72"/>
</a>
</g>
</g>
<!-- Node29 -->
<g id="Node000029" class="node">
<title>Node29</title>
<g id="a_Node000029"><a xlink:href="Storage_8h.html" target="_top" xlink:title=" ">
<polygon fill="white" stroke="#666666" points="1789,-129 1726,-129 1726,-110 1789,-110 1789,-129"/>
<text text-anchor="middle" x="1757.5" y="-117" font-family="Helvetica,sans-Serif" font-size="10.00">Storage.h</text>
</a>
</g>
</g>
<!-- Node1&#45;&gt;Node29 -->
<g id="edge54_Node000001_Node000029" class="edge">
<title>Node1&#45;&gt;Node29</title>
<g id="a_edge54_Node000001_Node000029"><a xlink:title=" ">
<path fill="none" stroke="#63b8ff" d="M1733.62,-215.52C1746.93,-208.34 1760.99,-198 1768.5,-184 1778.02,-166.25 1768.71,-142.07 1762.35,-129.27"/>
<polygon fill="#63b8ff" stroke="#63b8ff" points="1732.02,-212.4 1724.61,-219.98 1735.13,-218.67 1732.02,-212.4"/>
</a>
</g>
</g>
<!-- Node32 -->
<g id="Node000032" class="node">
<title>Node32</title>
<g id="a_Node000032"><a xlink:href="main1_8cpp.html" target="_top" xlink:title="Main functions for Core 1, responsible for sending data to storage peripherals.">
<polygon fill="white" stroke="#666666" points="1746.5,-19 1678.5,-19 1678.5,0 1746.5,0 1746.5,-19"/>
<text text-anchor="middle" x="1712.5" y="-7" font-family="Helvetica,sans-Serif" font-size="10.00">main1.cpp</text>
</a>
</g>
</g>
<!-- Node1&#45;&gt;Node32 -->
<g id="edge56_Node000001_Node000032" class="edge">
<title>Node1&#45;&gt;Node32</title>
<g id="a_edge56_Node000001_Node000032"><a xlink:title=" ">
<path fill="none" stroke="#63b8ff" d="M1696.39,-210.03C1694.44,-202.09 1692.46,-192.66 1691.5,-184 1684.47,-120.67 1703.11,-44.49 1710.03,-19.16"/>
<polygon fill="#63b8ff" stroke="#63b8ff" points="1693.01,-210.94 1698.93,-219.73 1699.78,-209.17 1693.01,-210.94"/>
</a>
</g>
</g>
<!-- Node34 -->
<g id="Node000034" class="node">
<title>Node34</title>
<g id="a_Node000034"><a xlink:href="RadioStorage_8cpp.html" target="_top" xlink:title=" ">
<polygon fill="white" stroke="#666666" points="2001.5,-19 1899.5,-19 1899.5,0 2001.5,0 2001.5,-19"/>
<text text-anchor="middle" x="1950.5" y="-7" font-family="Helvetica,sans-Serif" font-size="10.00">RadioStorage.cpp</text>
</a>
</g>
</g>
<!-- Node1&#45;&gt;Node34 -->
<g id="edge52_Node000001_Node000034" class="edge">
<title>Node1&#45;&gt;Node34</title>
<g id="a_edge52_Node000001_Node000034"><a xlink:title=" ">
<path fill="none" stroke="#63b8ff" d="M1740.26,-216.77C1796.8,-197.35 1900.1,-152.65 1945.5,-74 1955.45,-56.76 1953.88,-32.37 1952.07,-19.41"/>
<polygon fill="#63b8ff" stroke="#63b8ff" points="1738.98,-213.5 1730.6,-219.99 1741.19,-220.14 1738.98,-213.5"/>
</a>
</g>
</g>
<!-- Node2&#45;&gt;Node3 -->
<g id="edge2_Node000002_Node000003" class="edge">
<title>Node2&#45;&gt;Node3</title>
<g id="a_edge2_Node000002_Node000003"><a xlink:title=" ">
<path fill="none" stroke="#63b8ff" d="M1690.97,-170.93C1549.05,-161.71 1067.12,-130.41 943.56,-122.39"/>
<polygon fill="#63b8ff" stroke="#63b8ff" points="1690.77,-174.43 1700.98,-171.58 1691.22,-167.44 1690.77,-174.43"/>
</a>
</g>
</g>
<!-- Node2&#45;&gt;Node29 -->
<g id="edge41_Node000002_Node000029" class="edge">
<title>Node2&#45;&gt;Node29</title>
<g id="a_edge41_Node000002_Node000029"><a xlink:title=" ">
<path fill="none" stroke="#63b8ff" d="M1739.51,-155.82C1744.09,-146.82 1749.45,-136.29 1753.12,-129.09"/>
<polygon fill="#63b8ff" stroke="#63b8ff" points="1736.38,-154.25 1734.96,-164.75 1742.62,-157.43 1736.38,-154.25"/>
</a>
</g>
</g>
<!-- Node4 -->
<g id="Node000004" class="node">
<title>Node4</title>
<g id="a_Node000004"><a xlink:href="AS7331Sensor_8h.html" target="_top" xlink:title=" ">
<polygon fill="white" stroke="#666666" points="886,-74 791,-74 791,-55 886,-55 886,-74"/>
<text text-anchor="middle" x="838.5" y="-62" font-family="Helvetica,sans-Serif" font-size="10.00">AS7331Sensor.h</text>
</a>
</g>
</g>
<!-- Node3&#45;&gt;Node4 -->
<g id="edge3_Node000003_Node000004" class="edge">
<title>Node3&#45;&gt;Node4</title>
<g id="a_edge3_Node000003_Node000004"><a xlink:title=" ">
<path fill="none" stroke="#63b8ff" d="M893.92,-104.15C880.19,-94.57 862.57,-82.29 850.93,-74.17"/>
<polygon fill="#63b8ff" stroke="#63b8ff" points="892.08,-107.14 902.29,-109.98 896.09,-101.39 892.08,-107.14"/>
</a>
</g>
</g>
<!-- Node3&#45;&gt;Node6 -->
<g id="edge40_Node000003_Node000006" class="edge">
<title>Node3&#45;&gt;Node6</title>
<g id="a_edge40_Node000003_Node000006"><a xlink:title=" ">
<path fill="none" stroke="#63b8ff" d="M909.48,-99.8C903.14,-76.2 892.5,-36.58 887.82,-19.16"/>
<polygon fill="#63b8ff" stroke="#63b8ff" points="906.15,-100.91 912.13,-109.66 912.91,-99.1 906.15,-100.91"/>
</a>
</g>
</g>
<!-- Node7 -->
<g id="Node000007" class="node">
<title>Node7</title>
<g id="a_Node000007"><a xlink:href="AnalogTemp_8h.html" target="_top" xlink:title=" ">
<polygon fill="white" stroke="#666666" points="154.5,-74 68.5,-74 68.5,-55 154.5,-55 154.5,-74"/>
<text text-anchor="middle" x="111.5" y="-62" font-family="Helvetica,sans-Serif" font-size="10.00">AnalogTemp.h</text>
</a>
</g>
</g>
<!-- Node3&#45;&gt;Node7 -->
<g id="edge6_Node000003_Node000007" class="edge">
<title>Node3&#45;&gt;Node7</title>
<g id="a_edge6_Node000003_Node000007"><a xlink:title=" ">
<path fill="none" stroke="#63b8ff" d="M875.05,-116.1C769.53,-109.66 471.96,-91.29 224.5,-74 201.44,-72.39 175.74,-70.47 154.69,-68.86"/>
<polygon fill="#63b8ff" stroke="#63b8ff" points="875.04,-119.61 885.24,-116.72 875.47,-112.62 875.04,-119.61"/>
</a>
</g>
</g>
<!-- Node9 -->
<g id="Node000009" class="node">
<title>Node9</title>
<g id="a_Node000009"><a xlink:href="BMP390Sensor_8h.html" target="_top" xlink:title=" ">
<polygon fill="white" stroke="#666666" points="1040.5,-74 942.5,-74 942.5,-55 1040.5,-55 1040.5,-74"/>
<text text-anchor="middle" x="991.5" y="-62" font-family="Helvetica,sans-Serif" font-size="10.00">BMP390Sensor.h</text>
</a>
</g>
</g>
<!-- Node3&#45;&gt;Node9 -->
<g id="edge8_Node000003_Node000009" class="edge">
<title>Node3&#45;&gt;Node9</title>
<g id="a_edge8_Node000003_Node000009"><a xlink:title=" ">
<path fill="none" stroke="#63b8ff" d="M935.35,-104.15C949.26,-94.57 967.11,-82.29 978.9,-74.17"/>
<polygon fill="#63b8ff" stroke="#63b8ff" points="933.12,-101.43 926.87,-109.98 937.09,-107.2 933.12,-101.43"/>
</a>
</g>
</g>
<!-- Node11 -->
<g id="Node000011" class="node">
<title>Node11</title>
<g id="a_Node000011"><a xlink:href="ENS160Sensor_8h.html" target="_top" xlink:title=" ">
<polygon fill="white" stroke="#666666" points="670,-74 575,-74 575,-55 670,-55 670,-74"/>
<text text-anchor="middle" x="622.5" y="-62" font-family="Helvetica,sans-Serif" font-size="10.00">ENS160Sensor.h</text>
</a>
</g>
</g>
<!-- Node3&#45;&gt;Node11 -->
<g id="edge11_Node000003_Node000011" class="edge">
<title>Node3&#45;&gt;Node11</title>
<g id="a_edge11_Node000003_Node000011"><a xlink:title=" ">
<path fill="none" stroke="#63b8ff" d="M875.35,-111.39C821.97,-101.71 726.51,-84.38 669.39,-74.01"/>
<polygon fill="#63b8ff" stroke="#63b8ff" points="874.97,-114.88 885.43,-113.22 876.22,-107.99 874.97,-114.88"/>
</a>
</g>
</g>
<!-- Node13 -->
<g id="Node000013" class="node">
<title>Node13</title>
<g id="a_Node000013"><a xlink:href="ICM20948Sensor_8h.html" target="_top" xlink:title=" ">
<polygon fill="white" stroke="#666666" points="1166,-74 1059,-74 1059,-55 1166,-55 1166,-74"/>
<text text-anchor="middle" x="1112.5" y="-62" font-family="Helvetica,sans-Serif" font-size="10.00">ICM20948Sensor.h</text>
</a>
</g>
</g>
<!-- Node3&#45;&gt;Node13 -->
<g id="edge14_Node000003_Node000013" class="edge">
<title>Node3&#45;&gt;Node13</title>
<g id="a_edge14_Node000003_Node000013"><a xlink:title=" ">
<path fill="none" stroke="#63b8ff" d="M953.69,-108.01C990.84,-98.07 1045.97,-83.31 1080.54,-74.06"/>
<polygon fill="#63b8ff" stroke="#63b8ff" points="952.47,-104.71 943.72,-110.68 954.28,-111.47 952.47,-104.71"/>
</a>
</g>
</g>
<!-- Node15 -->
<g id="Node000015" class="node">
<title>Node15</title>
<g id="a_Node000015"><a xlink:href="INA260Sensor_8h.html" target="_top" xlink:title=" ">
<polygon fill="white" stroke="#666666" points="1277,-74 1184,-74 1184,-55 1277,-55 1277,-74"/>
<text text-anchor="middle" x="1230.5" y="-62" font-family="Helvetica,sans-Serif" font-size="10.00">INA260Sensor.h</text>
</a>
</g>
</g>
<!-- Node3&#45;&gt;Node15 -->
<g id="edge17_Node000003_Node000015" class="edge">
<title>Node3&#45;&gt;Node15</title>
<g id="a_edge17_Node000003_Node000015"><a xlink:title=" ">
<path fill="none" stroke="#63b8ff" d="M953.59,-111.94C1011.92,-102.16 1121.54,-83.77 1183.94,-73.31"/>
<polygon fill="#63b8ff" stroke="#63b8ff" points="952.95,-108.5 943.66,-113.61 954.1,-115.41 952.95,-108.5"/>
</a>
</g>
</g>
<!-- Node17 -->
<g id="Node000017" class="node">
<title>Node17</title>
<g id="a_Node000017"><a xlink:href="MTK3339Sensor_8h.html" target="_top" xlink:title=" ">
<polygon fill="white" stroke="#666666" points="1399.5,-74 1295.5,-74 1295.5,-55 1399.5,-55 1399.5,-74"/>
<text text-anchor="middle" x="1347.5" y="-62" font-family="Helvetica,sans-Serif" font-size="10.00">MTK3339Sensor.h</text>
</a>
</g>
</g>
<!-- Node3&#45;&gt;Node17 -->
<g id="edge20_Node000003_Node000017" class="edge">
<title>Node3&#45;&gt;Node17</title>
<g id="a_edge20_Node000003_Node000017"><a xlink:title=" ">
<path fill="none" stroke="#63b8ff" d="M954.09,-113.97C1021.96,-106.16 1164.88,-89.5 1285.5,-74 1288.73,-73.58 1292.06,-73.15 1295.41,-72.71"/>
<polygon fill="#63b8ff" stroke="#63b8ff" points="953.39,-110.53 943.86,-115.15 954.19,-117.48 953.39,-110.53"/>
</a>
</g>
</g>
<!-- Node19 -->
<g id="Node000019" class="node">
<title>Node19</title>
<g id="a_Node000019"><a xlink:href="OzoneSensor_8h.html" target="_top" xlink:title=" ">
<polygon fill="white" stroke="#666666" points="1545,-74 1456,-74 1456,-55 1545,-55 1545,-74"/>
<text text-anchor="middle" x="1500.5" y="-62" font-family="Helvetica,sans-Serif" font-size="10.00">OzoneSensor.h</text>
</a>
</g>
</g>
<!-- Node3&#45;&gt;Node19 -->
<g id="edge23_Node000003_Node000019" class="edge">
<title>Node3&#45;&gt;Node19</title>
<g id="a_edge23_Node000003_Node000019"><a xlink:title=" ">
<path fill="none" stroke="#63b8ff" d="M953.81,-114.99C1037.46,-107.51 1239.3,-89.44 1408.5,-74 1423.83,-72.6 1440.61,-71.06 1455.58,-69.67"/>
<polygon fill="#63b8ff" stroke="#63b8ff" points="953.38,-111.51 943.73,-115.89 954.01,-118.49 953.38,-111.51"/>
</a>
</g>
</g>
<!-- Node21 -->
<g id="Node000021" class="node">
<title>Node21</title>
<g id="a_Node000021"><a xlink:href="PCF8523Sensor_8h.html" target="_top" xlink:title=" ">
<polygon fill="white" stroke="#666666" points="335,-74 234,-74 234,-55 335,-55 335,-74"/>
<text text-anchor="middle" x="284.5" y="-62" font-family="Helvetica,sans-Serif" font-size="10.00">PCF8523Sensor.h</text>
</a>
</g>
</g>
<!-- Node3&#45;&gt;Node21 -->
<g id="edge26_Node000003_Node000021" class="edge">
<title>Node3&#45;&gt;Node21</title>
<g id="a_edge26_Node000003_Node000021"><a xlink:title=" ">
<path fill="none" stroke="#63b8ff" d="M875.27,-116.33C782.58,-111 542.86,-96.11 343.5,-74 340.72,-73.69 337.88,-73.35 335,-73"/>
<polygon fill="#63b8ff" stroke="#63b8ff" points="875.14,-119.83 885.32,-116.9 875.53,-112.84 875.14,-119.83"/>
</a>
</g>
</g>
<!-- Node23 -->
<g id="Node000023" class="node">
<title>Node23</title>
<g id="a_Node000023"><a xlink:href="SHTC3Sensor_8h.html" target="_top" xlink:title=" ">
<polygon fill="white" stroke="#666666" points="442,-74 353,-74 353,-55 442,-55 442,-74"/>
<text text-anchor="middle" x="397.5" y="-62" font-family="Helvetica,sans-Serif" font-size="10.00">SHTC3Sensor.h</text>
</a>
</g>
</g>
<!-- Node3&#45;&gt;Node23 -->
<g id="edge29_Node000003_Node000023" class="edge">
<title>Node3&#45;&gt;Node23</title>
<g id="a_edge29_Node000003_Node000023"><a xlink:title=" ">
<path fill="none" stroke="#63b8ff" d="M875.27,-115.58C795.22,-109.44 607.41,-94.09 450.5,-74 447.73,-73.65 444.88,-73.26 442,-72.85"/>
<polygon fill="#63b8ff" stroke="#63b8ff" points="875.15,-119.08 885.38,-116.35 875.68,-112.1 875.15,-119.08"/>
</a>
</g>
</g>
<!-- Node25 -->
<g id="Node000025" class="node">
<title>Node25</title>
<g id="a_Node000025"><a xlink:href="TMP11xSensor_8h.html" target="_top" xlink:title=" ">
<polygon fill="white" stroke="#666666" points="557,-74 460,-74 460,-55 557,-55 557,-74"/>
<text text-anchor="middle" x="508.5" y="-62" font-family="Helvetica,sans-Serif" font-size="10.00">TMP11xSensor.h</text>
</a>
</g>
</g>
<!-- Node3&#45;&gt;Node25 -->
<g id="edge33_Node000003_Node000025" class="edge">
<title>Node3&#45;&gt;Node25</title>
<g id="a_edge33_Node000003_Node000025"><a xlink:title=" ">
<path fill="none" stroke="#63b8ff" d="M874.89,-113.73C810.12,-105.86 677.55,-89.5 565.5,-74 562.82,-73.63 560.08,-73.24 557.31,-72.85"/>
<polygon fill="#63b8ff" stroke="#63b8ff" points="874.71,-117.23 885.06,-114.96 875.55,-110.28 874.71,-117.23"/>
</a>
</g>
</g>
<!-- Node27 -->
<g id="Node000027" class="node">
<title>Node27</title>
<g id="a_Node000027"><a xlink:href="TempSensor_8h.html" target="_top" xlink:title=" ">
<polygon fill="white" stroke="#666666" points="772.5,-74 688.5,-74 688.5,-55 772.5,-55 772.5,-74"/>
<text text-anchor="middle" x="730.5" y="-62" font-family="Helvetica,sans-Serif" font-size="10.00">TempSensor.h</text>
</a>
</g>
</g>
<!-- Node3&#45;&gt;Node27 -->
<g id="edge37_Node000003_Node000027" class="edge">
<title>Node3&#45;&gt;Node27</title>
<g id="a_edge37_Node000003_Node000027"><a xlink:title=" ">
<path fill="none" stroke="#63b8ff" d="M875.61,-107.3C841.12,-97.36 791.49,-83.07 760.13,-74.03"/>
<polygon fill="#63b8ff" stroke="#63b8ff" points="874.77,-110.7 885.34,-110.1 876.7,-103.97 874.77,-110.7"/>
</a>
</g>
</g>
<!-- Node5 -->
<g id="Node000005" class="node">
<title>Node5</title>
<g id="a_Node000005"><a xlink:href="AS7331Sensor_8cpp.html" target="_top" xlink:title=" ">
<polygon fill="white" stroke="#666666" points="836.5,-19 730.5,-19 730.5,0 836.5,0 836.5,-19"/>
<text text-anchor="middle" x="783.5" y="-7" font-family="Helvetica,sans-Serif" font-size="10.00">AS7331Sensor.cpp</text>
</a>
</g>
</g>
<!-- Node4&#45;&gt;Node5 -->
<g id="edge4_Node000004_Node000005" class="edge">
<title>Node4&#45;&gt;Node5</title>
<g id="a_edge4_Node000004_Node000005"><a xlink:title=" ">
<path fill="none" stroke="#63b8ff" d="M822.21,-47.8C812.46,-38.41 800.45,-26.83 792.41,-19.09"/>
<polygon fill="#63b8ff" stroke="#63b8ff" points="819.79,-50.33 829.42,-54.75 824.65,-45.29 819.79,-50.33"/>
</a>
</g>
</g>
<!-- Node4&#45;&gt;Node6 -->
<g id="edge5_Node000004_Node000006" class="edge">
<title>Node4&#45;&gt;Node6</title>
<g id="a_edge5_Node000004_Node000006"><a xlink:title=" ">
<path fill="none" stroke="#63b8ff" d="M852.92,-47.24C861.16,-37.95 871.15,-26.68 877.88,-19.09"/>
<polygon fill="#63b8ff" stroke="#63b8ff" points="850.28,-44.94 846.26,-54.75 855.51,-49.59 850.28,-44.94"/>
</a>
</g>
</g>
<!-- Node8 -->
<g id="Node000008" class="node">
<title>Node8</title>
<g id="a_Node000008"><a xlink:href="AnalogTemp_8cpp.html" target="_top" xlink:title=" ">
<polygon fill="white" stroke="#666666" points="97,-19 0,-19 0,0 97,0 97,-19"/>
<text text-anchor="middle" x="48.5" y="-7" font-family="Helvetica,sans-Serif" font-size="10.00">AnalogTemp.cpp</text>
</a>
</g>
</g>
<!-- Node7&#45;&gt;Node8 -->
<g id="edge7_Node000007_Node000008" class="edge">
<title>Node7&#45;&gt;Node8</title>
<g id="a_edge7_Node000007_Node000008"><a xlink:title=" ">
<path fill="none" stroke="#63b8ff" d="M93.46,-48.32C82.23,-38.87 68.18,-27.06 58.81,-19.17"/>
<polygon fill="#63b8ff" stroke="#63b8ff" points="91.47,-51.23 101.38,-54.98 95.98,-45.87 91.47,-51.23"/>
</a>
</g>
</g>
<!-- Node9&#45;&gt;Node6 -->
<g id="edge10_Node000009_Node000006" class="edge">
<title>Node9&#45;&gt;Node6</title>
<g id="a_edge10_Node000009_Node000006"><a xlink:title=" ">
<path fill="none" stroke="#63b8ff" d="M965.5,-50.5C946,-40.75 919.85,-27.68 902.84,-19.17"/>
<polygon fill="#63b8ff" stroke="#63b8ff" points="963.96,-53.64 974.47,-54.98 967.09,-47.38 963.96,-53.64"/>
</a>
</g>
</g>
<!-- Node10 -->
<g id="Node000010" class="node">
<title>Node10</title>
<g id="a_Node000010"><a xlink:href="BMP390Sensor_8cpp.html" target="_top" xlink:title=" ">
<polygon fill="white" stroke="#666666" points="1044,-19 935,-19 935,0 1044,0 1044,-19"/>
<text text-anchor="middle" x="989.5" y="-7" font-family="Helvetica,sans-Serif" font-size="10.00">BMP390Sensor.cpp</text>
</a>
</g>
</g>
<!-- Node9&#45;&gt;Node10 -->
<g id="edge9_Node000009_Node000010" class="edge">
<title>Node9&#45;&gt;Node10</title>
<g id="a_edge9_Node000009_Node000010"><a xlink:title=" ">
<path fill="none" stroke="#63b8ff" d="M990.79,-44.66C990.46,-35.93 990.08,-25.99 989.82,-19.09"/>
<polygon fill="#63b8ff" stroke="#63b8ff" points="987.3,-44.89 991.17,-54.75 994.29,-44.62 987.3,-44.89"/>
</a>
</g>
</g>
<!-- Node11&#45;&gt;Node6 -->
<g id="edge13_Node000011_Node000006" class="edge">
<title>Node11&#45;&gt;Node6</title>
<g id="a_edge13_Node000011_Node000006"><a xlink:title=" ">
<path fill="none" stroke="#63b8ff" d="M676,-53.02C721.19,-44.12 787.62,-30.92 845.5,-19 848.42,-18.4 851.46,-17.77 854.5,-17.13"/>
<polygon fill="#63b8ff" stroke="#63b8ff" points="675.25,-49.6 666.12,-54.96 676.61,-56.47 675.25,-49.6"/>
</a>
</g>
</g>
<!-- Node12 -->
<g id="Node000012" class="node">
<title>Node12</title>
<g id="a_Node000012"><a xlink:href="ENS160Sensor_8cpp.html" target="_top" xlink:title=" ">
<polygon fill="white" stroke="#666666" points="599,-19 492,-19 492,0 599,0 599,-19"/>
<text text-anchor="middle" x="545.5" y="-7" font-family="Helvetica,sans-Serif" font-size="10.00">ENS160Sensor.cpp</text>
</a>
</g>
</g>
<!-- Node11&#45;&gt;Node12 -->
<g id="edge12_Node000011_Node000012" class="edge">
<title>Node11&#45;&gt;Node12</title>
<g id="a_edge12_Node000011_Node000012"><a xlink:title=" ">
<path fill="none" stroke="#63b8ff" d="M601.65,-49.15C587.74,-39.57 569.89,-27.29 558.1,-19.17"/>
<polygon fill="#63b8ff" stroke="#63b8ff" points="599.91,-52.2 610.13,-54.98 603.88,-46.43 599.91,-52.2"/>
</a>
</g>
</g>
<!-- Node13&#45;&gt;Node6 -->
<g id="edge16_Node000013_Node000006" class="edge">
<title>Node13&#45;&gt;Node6</title>
<g id="a_edge16_Node000013_Node000006"><a xlink:title=" ">
<path fill="none" stroke="#63b8ff" d="M1066.03,-52.65C1021.46,-42.24 955.39,-26.82 916.77,-17.8"/>
<polygon fill="#63b8ff" stroke="#63b8ff" points="1065.49,-56.12 1076.03,-54.98 1067.09,-49.3 1065.49,-56.12"/>
</a>
</g>
</g>
<!-- Node14 -->
<g id="Node000014" class="node">
<title>Node14</title>
<g id="a_Node000014"><a xlink:href="ICM20948Sensor_8cpp.html" target="_top" xlink:title=" ">
<polygon fill="white" stroke="#666666" points="1180.5,-19 1062.5,-19 1062.5,0 1180.5,0 1180.5,-19"/>
<text text-anchor="middle" x="1121.5" y="-7" font-family="Helvetica,sans-Serif" font-size="10.00">ICM20948Sensor.cpp</text>
</a>
</g>
</g>
<!-- Node13&#45;&gt;Node14 -->
<g id="edge15_Node000013_Node000014" class="edge">
<title>Node13&#45;&gt;Node14</title>
<g id="a_edge15_Node000013_Node000014"><a xlink:title=" ">
<path fill="none" stroke="#63b8ff" d="M1115.7,-44.66C1117.18,-35.93 1118.87,-25.99 1120.04,-19.09"/>
<polygon fill="#63b8ff" stroke="#63b8ff" points="1112.21,-44.3 1113.99,-54.75 1119.11,-45.48 1112.21,-44.3"/>
</a>
</g>
</g>
<!-- Node15&#45;&gt;Node6 -->
<g id="edge19_Node000015_Node000006" class="edge">
<title>Node15&#45;&gt;Node6</title>
<g id="a_edge19_Node000015_Node000006"><a xlink:title=" ">
<path fill="none" stroke="#63b8ff" d="M1173.79,-54.91C1062.22,-38.6 1032.46,-38.08 925.5,-19 922.7,-18.5 919.81,-17.95 916.9,-17.38"/>
<polygon fill="#63b8ff" stroke="#63b8ff" points="1173.35,-58.38 1183.75,-56.38 1174.37,-51.46 1173.35,-58.38"/>
</a>
</g>
</g>
<!-- Node16 -->
<g id="Node000016" class="node">
<title>Node16</title>
<g id="a_Node000016"><a xlink:href="INA260Sensor_8cpp.html" target="_top" xlink:title=" ">
<polygon fill="white" stroke="#666666" points="1302.5,-19 1198.5,-19 1198.5,0 1302.5,0 1302.5,-19"/>
<text text-anchor="middle" x="1250.5" y="-7" font-family="Helvetica,sans-Serif" font-size="10.00">INA260Sensor.cpp</text>
</a>
</g>
</g>
<!-- Node15&#45;&gt;Node16 -->
<g id="edge18_Node000015_Node000016" class="edge">
<title>Node15&#45;&gt;Node16</title>
<g id="a_edge18_Node000015_Node000016"><a xlink:title=" ">
<path fill="none" stroke="#63b8ff" d="M1237.39,-45.24C1240.74,-36.37 1244.6,-26.14 1247.26,-19.09"/>
<polygon fill="#63b8ff" stroke="#63b8ff" points="1234.06,-44.16 1233.8,-54.75 1240.61,-46.63 1234.06,-44.16"/>
</a>
</g>
</g>
<!-- Node17&#45;&gt;Node6 -->
<g id="edge22_Node000017_Node000006" class="edge">
<title>Node17&#45;&gt;Node6</title>
<g id="a_edge22_Node000017_Node000006"><a xlink:title=" ">
<path fill="none" stroke="#63b8ff" d="M1285.15,-55.01C1124.07,-36.38 1081.12,-43.24 925.5,-19 922.69,-18.56 919.79,-18.05 916.88,-17.51"/>
<polygon fill="#63b8ff" stroke="#63b8ff" points="1285.08,-58.53 1295.42,-56.22 1285.9,-51.58 1285.08,-58.53"/>
</a>
</g>
</g>
<!-- Node18 -->
<g id="Node000018" class="node">
<title>Node18</title>
<g id="a_Node000018"><a xlink:href="MTK3339Sensor_8cpp.html" target="_top" xlink:title=" ">
<polygon fill="white" stroke="#666666" points="1436,-19 1321,-19 1321,0 1436,0 1436,-19"/>
<text text-anchor="middle" x="1378.5" y="-7" font-family="Helvetica,sans-Serif" font-size="10.00">MTK3339Sensor.cpp</text>
</a>
</g>
</g>
<!-- Node17&#45;&gt;Node18 -->
<g id="edge21_Node000017_Node000018" class="edge">
<title>Node17&#45;&gt;Node18</title>
<g id="a_edge21_Node000017_Node000018"><a xlink:title=" ">
<path fill="none" stroke="#63b8ff" d="M1357.68,-46.1C1362.97,-37.04 1369.22,-26.37 1373.48,-19.09"/>
<polygon fill="#63b8ff" stroke="#63b8ff" points="1354.65,-44.35 1352.62,-54.75 1360.69,-47.88 1354.65,-44.35"/>
</a>
</g>
</g>
<!-- Node19&#45;&gt;Node6 -->
<g id="edge25_Node000019_Node000006" class="edge">
<title>Node19&#45;&gt;Node6</title>
<g id="a_edge25_Node000019_Node000006"><a xlink:title=" ">
<path fill="none" stroke="#63b8ff" d="M1445.45,-55.44C1444.12,-55.29 1442.8,-55.14 1441.5,-55 1212.91,-30.59 1153.16,-50.97 925.5,-19 922.69,-18.61 919.78,-18.13 916.87,-17.6"/>
<polygon fill="#63b8ff" stroke="#63b8ff" points="1445.41,-58.96 1455.77,-56.7 1446.27,-52.01 1445.41,-58.96"/>
</a>
</g>
</g>
<!-- Node20 -->
<g id="Node000020" class="node">
<title>Node20</title>
<g id="a_Node000020"><a xlink:href="OzoneSensor_8cpp.html" target="_top" xlink:title=" ">
<polygon fill="white" stroke="#666666" points="1554.5,-19 1454.5,-19 1454.5,0 1554.5,0 1554.5,-19"/>
<text text-anchor="middle" x="1504.5" y="-7" font-family="Helvetica,sans-Serif" font-size="10.00">OzoneSensor.cpp</text>
</a>
</g>
</g>
<!-- Node19&#45;&gt;Node20 -->
<g id="edge24_Node000019_Node000020" class="edge">
<title>Node19&#45;&gt;Node20</title>
<g id="a_edge24_Node000019_Node000020"><a xlink:title=" ">
<path fill="none" stroke="#63b8ff" d="M1501.92,-44.66C1502.58,-35.93 1503.33,-25.99 1503.85,-19.09"/>
<polygon fill="#63b8ff" stroke="#63b8ff" points="1498.42,-44.51 1501.16,-54.75 1505.4,-45.04 1498.42,-44.51"/>
</a>
</g>
</g>
<!-- Node21&#45;&gt;Node6 -->
<g id="edge28_Node000021_Node000006" class="edge">
<title>Node21&#45;&gt;Node6</title>
<g id="a_edge28_Node000021_Node000006"><a xlink:title=" ">
<path fill="none" stroke="#63b8ff" d="M345.04,-54.91C567.63,-31.59 627.26,-49.86 845.5,-19 848.31,-18.6 851.22,-18.12 854.13,-17.59"/>
<polygon fill="#63b8ff" stroke="#63b8ff" points="344.57,-51.44 335,-55.98 345.31,-58.4 344.57,-51.44"/>
</a>
</g>
</g>
<!-- Node22 -->
<g id="Node000022" class="node">
<title>Node22</title>
<g id="a_Node000022"><a xlink:href="PCF8523Sensor_8cpp.html" target="_top" xlink:title=" ">
<polygon fill="white" stroke="#666666" points="227.5,-19 115.5,-19 115.5,0 227.5,0 227.5,-19"/>
<text text-anchor="middle" x="171.5" y="-7" font-family="Helvetica,sans-Serif" font-size="10.00">PCF8523Sensor.cpp</text>
</a>
</g>
</g>
<!-- Node21&#45;&gt;Node22 -->
<g id="edge27_Node000021_Node000022" class="edge">
<title>Node21&#45;&gt;Node22</title>
<g id="a_edge27_Node000021_Node000022"><a xlink:title=" ">
<path fill="none" stroke="#63b8ff" d="M257.07,-50.63C236.25,-40.87 208.2,-27.71 189.99,-19.17"/>
<polygon fill="#63b8ff" stroke="#63b8ff" points="255.8,-53.91 266.34,-54.98 258.78,-47.57 255.8,-53.91"/>
</a>
</g>
</g>
<!-- Node23&#45;&gt;Node6 -->
<g id="edge32_Node000023_Node000006" class="edge">
<title>Node23&#45;&gt;Node6</title>
<g id="a_edge32_Node000023_Node000006"><a xlink:title=" ">
<path fill="none" stroke="#63b8ff" d="M452.07,-54.89C627.15,-33.47 674.43,-44.88 845.5,-19 848.31,-18.58 851.21,-18.08 854.12,-17.54"/>
<polygon fill="#63b8ff" stroke="#63b8ff" points="451.49,-51.43 442,-56.14 452.36,-58.38 451.49,-51.43"/>
</a>
</g>
</g>
<!-- Node23&#45;&gt;Node12 -->
<g id="edge30_Node000023_Node000012" class="edge">
<title>Node23&#45;&gt;Node12</title>
<g id="a_edge30_Node000023_Node000012"><a xlink:title=" ">
<path fill="none" stroke="#63b8ff" d="M430.87,-51.55C458.35,-41.71 496.67,-27.98 521.29,-19.17"/>
<polygon fill="#63b8ff" stroke="#63b8ff" points="429.51,-48.32 421.28,-54.98 431.87,-54.91 429.51,-48.32"/>
</a>
</g>
</g>
<!-- Node24 -->
<g id="Node000024" class="node">
<title>Node24</title>
<g id="a_Node000024"><a xlink:href="SHTC3Sensor_8cpp.html" target="_top" xlink:title=" ">
<polygon fill="white" stroke="#666666" points="347,-19 246,-19 246,0 347,0 347,-19"/>
<text text-anchor="middle" x="296.5" y="-7" font-family="Helvetica,sans-Serif" font-size="10.00">SHTC3Sensor.cpp</text>
</a>
</g>
</g>
<!-- Node23&#45;&gt;Node24 -->
<g id="edge31_Node000023_Node000024" class="edge">
<title>Node23&#45;&gt;Node24</title>
<g id="a_edge31_Node000023_Node000024"><a xlink:title=" ">
<path fill="none" stroke="#63b8ff" d="M372.22,-50.23C353.7,-40.51 329.08,-27.6 313.02,-19.17"/>
<polygon fill="#63b8ff" stroke="#63b8ff" points="370.79,-53.44 381.27,-54.98 374.04,-47.24 370.79,-53.44"/>
</a>
</g>
</g>
<!-- Node25&#45;&gt;Node6 -->
<g id="edge36_Node000025_Node000006" class="edge">
<title>Node25&#45;&gt;Node6</title>
<g id="a_edge36_Node000025_Node000006"><a xlink:title=" ">
<path fill="none" stroke="#63b8ff" d="M566.92,-54.83C691.46,-37.85 724.95,-39.52 845.5,-19 848.3,-18.52 851.2,-17.99 854.1,-17.42"/>
<polygon fill="#63b8ff" stroke="#63b8ff" points="566.43,-51.37 557,-56.2 567.38,-58.3 566.43,-51.37"/>
</a>
</g>
</g>
<!-- Node25&#45;&gt;Node12 -->
<g id="edge34_Node000025_Node000012" class="edge">
<title>Node25&#45;&gt;Node12</title>
<g id="a_edge34_Node000025_Node000012"><a xlink:title=" ">
<path fill="none" stroke="#63b8ff" d="M520.45,-46.39C526.81,-37.27 534.37,-26.45 539.5,-19.09"/>
<polygon fill="#63b8ff" stroke="#63b8ff" points="517.46,-44.55 514.61,-54.75 523.2,-48.55 517.46,-44.55"/>
</a>
</g>
</g>
<!-- Node26 -->
<g id="Node000026" class="node">
<title>Node26</title>
<g id="a_Node000026"><a xlink:href="TMP11xSensor_8cpp.html" target="_top" xlink:title=" ">
<polygon fill="white" stroke="#666666" points="473.5,-19 365.5,-19 365.5,0 473.5,0 473.5,-19"/>
<text text-anchor="middle" x="419.5" y="-7" font-family="Helvetica,sans-Serif" font-size="10.00">TMP11xSensor.cpp</text>
</a>
</g>
</g>
<!-- Node25&#45;&gt;Node26 -->
<g id="edge35_Node000025_Node000026" class="edge">
<title>Node25&#45;&gt;Node26</title>
<g id="a_edge35_Node000025_Node000026"><a xlink:title=" ">
<path fill="none" stroke="#63b8ff" d="M485.32,-49.7C469.11,-40.04 447.95,-27.44 434.06,-19.17"/>
<polygon fill="#63b8ff" stroke="#63b8ff" points="483.82,-52.88 494.2,-54.98 487.4,-46.86 483.82,-52.88"/>
</a>
</g>
</g>
<!-- Node27&#45;&gt;Node6 -->
<g id="edge39_Node000027_Node000006" class="edge">
<title>Node27&#45;&gt;Node6</title>
<g id="a_edge39_Node000027_Node000006"><a xlink:title=" ">
<path fill="none" stroke="#63b8ff" d="M765.1,-51.67C794,-41.79 834.53,-27.93 860.4,-19.08"/>
<polygon fill="#63b8ff" stroke="#63b8ff" points="763.73,-48.44 755.4,-54.98 766,-55.06 763.73,-48.44"/>
</a>
</g>
</g>
<!-- Node28 -->
<g id="Node000028" class="node">
<title>Node28</title>
<g id="a_Node000028"><a xlink:href="TempSensor_8cpp.html" target="_top" xlink:title=" ">
<polygon fill="white" stroke="#666666" points="712,-19 617,-19 617,0 712,0 712,-19"/>
<text text-anchor="middle" x="664.5" y="-7" font-family="Helvetica,sans-Serif" font-size="10.00">TempSensor.cpp</text>
</a>
</g>
</g>
<!-- Node27&#45;&gt;Node28 -->
<g id="edge38_Node000027_Node000028" class="edge">
<title>Node27&#45;&gt;Node28</title>
<g id="a_edge38_Node000027_Node000028"><a xlink:title=" ">
<path fill="none" stroke="#63b8ff" d="M711.95,-48.6C700.12,-39.11 685.21,-27.13 675.3,-19.17"/>
<polygon fill="#63b8ff" stroke="#63b8ff" points="709.91,-51.45 719.9,-54.98 714.29,-45.99 709.91,-51.45"/>
</a>
</g>
</g>
<!-- Node30 -->
<g id="Node000030" class="node">
<title>Node30</title>
<g id="a_Node000030"><a xlink:href="FlashStorage_8h.html" target="_top" xlink:title=" ">
<polygon fill="white" stroke="#666666" points="1828,-74 1739,-74 1739,-55 1828,-55 1828,-74"/>
<text text-anchor="middle" x="1783.5" y="-62" font-family="Helvetica,sans-Serif" font-size="10.00">FlashStorage.h</text>
</a>
</g>
</g>
<!-- Node29&#45;&gt;Node30 -->
<g id="edge42_Node000029_Node000030" class="edge">
<title>Node29&#45;&gt;Node30</title>
<g id="a_edge42_Node000029_Node000030"><a xlink:title=" ">
<path fill="none" stroke="#63b8ff" d="M1766.32,-100.53C1770.7,-91.6 1775.79,-81.22 1779.29,-74.09"/>
<polygon fill="#63b8ff" stroke="#63b8ff" points="1763.06,-99.23 1761.79,-109.75 1769.34,-102.31 1763.06,-99.23"/>
</a>
</g>
</g>
<!-- Node29&#45;&gt;Node32 -->
<g id="edge51_Node000029_Node000032" class="edge">
<title>Node29&#45;&gt;Node32</title>
<g id="a_edge51_Node000029_Node000032"><a xlink:title=" ">
<path fill="none" stroke="#63b8ff" d="M1744.99,-101.32C1739.62,-93.33 1733.65,-83.5 1729.5,-74 1721.37,-55.38 1716.33,-31.96 1714.01,-19.41"/>
<polygon fill="#63b8ff" stroke="#63b8ff" points="1742.27,-103.54 1750.87,-109.74 1748.01,-99.54 1742.27,-103.54"/>
</a>
</g>
</g>
<!-- Node33 -->
<g id="Node000033" class="node">
<title>Node33</title>
<g id="a_Node000033"><a xlink:href="RadioStorage_8h.html" target="_top" xlink:title=" ">
<polygon fill="white" stroke="#666666" points="1937,-74 1846,-74 1846,-55 1937,-55 1937,-74"/>
<text text-anchor="middle" x="1891.5" y="-62" font-family="Helvetica,sans-Serif" font-size="10.00">RadioStorage.h</text>
</a>
</g>
</g>
<!-- Node29&#45;&gt;Node33 -->
<g id="edge45_Node000029_Node000033" class="edge">
<title>Node29&#45;&gt;Node33</title>
<g id="a_edge45_Node000029_Node000033"><a xlink:title=" ">
<path fill="none" stroke="#63b8ff" d="M1788.37,-106.29C1813.2,-96.47 1847.49,-82.91 1869.58,-74.17"/>
<polygon fill="#63b8ff" stroke="#63b8ff" points="1787.04,-103.05 1779.03,-109.98 1789.62,-109.56 1787.04,-103.05"/>
</a>
</g>
</g>
<!-- Node35 -->
<g id="Node000035" class="node">
<title>Node35</title>
<g id="a_Node000035"><a xlink:href="SDStorage_8h.html" target="_top" xlink:title=" ">
<polygon fill="white" stroke="#666666" points="1644,-74 1567,-74 1567,-55 1644,-55 1644,-74"/>
<text text-anchor="middle" x="1605.5" y="-62" font-family="Helvetica,sans-Serif" font-size="10.00">SDStorage.h</text>
</a>
</g>
</g>
<!-- Node29&#45;&gt;Node35 -->
<g id="edge48_Node000029_Node000035" class="edge">
<title>Node29&#45;&gt;Node35</title>
<g id="a_edge48_Node000029_Node000035"><a xlink:title=" ">
<path fill="none" stroke="#63b8ff" d="M1723.57,-106.67C1695.23,-96.79 1655.48,-82.93 1630.11,-74.08"/>
<polygon fill="#63b8ff" stroke="#63b8ff" points="1722.48,-110 1733.08,-109.98 1724.79,-103.39 1722.48,-110"/>
</a>
</g>
</g>
<!-- Node31 -->
<g id="Node000031" class="node">
<title>Node31</title>
<g id="a_Node000031"><a xlink:href="FlashStorage_8cpp.html" target="_top" xlink:title=" ">
<polygon fill="white" stroke="#666666" points="1866,-19 1765,-19 1765,0 1866,0 1866,-19"/>
<text text-anchor="middle" x="1815.5" y="-7" font-family="Helvetica,sans-Serif" font-size="10.00">FlashStorage.cpp</text>
</a>
</g>
</g>
<!-- Node30&#45;&gt;Node31 -->
<g id="edge43_Node000030_Node000031" class="edge">
<title>Node30&#45;&gt;Node31</title>
<g id="a_edge43_Node000030_Node000031"><a xlink:title=" ">
<path fill="none" stroke="#63b8ff" d="M1794,-46.1C1799.47,-37.04 1805.92,-26.37 1810.31,-19.09"/>
<polygon fill="#63b8ff" stroke="#63b8ff" points="1790.96,-44.38 1788.78,-54.75 1796.95,-48 1790.96,-44.38"/>
</a>
</g>
</g>
<!-- Node30&#45;&gt;Node32 -->
<g id="edge44_Node000030_Node000032" class="edge">
<title>Node30&#45;&gt;Node32</title>
<g id="a_edge44_Node000030_Node000032"><a xlink:title=" ">
<path fill="none" stroke="#63b8ff" d="M1763.91,-48.88C1751.13,-39.34 1734.89,-27.21 1724.11,-19.17"/>
<polygon fill="#63b8ff" stroke="#63b8ff" points="1761.99,-51.81 1772.09,-54.98 1766.17,-46.2 1761.99,-51.81"/>
</a>
</g>
</g>
<!-- Node33&#45;&gt;Node32 -->
<g id="edge47_Node000033_Node000032" class="edge">
<title>Node33&#45;&gt;Node32</title>
<g id="a_edge47_Node000033_Node000032"><a xlink:title=" ">
<path fill="none" stroke="#63b8ff" d="M1852.85,-52.06C1819.39,-42.15 1771.75,-28.04 1741.48,-19.08"/>
<polygon fill="#63b8ff" stroke="#63b8ff" points="1852.16,-55.5 1862.74,-54.98 1854.15,-48.79 1852.16,-55.5"/>
</a>
</g>
</g>
<!-- Node33&#45;&gt;Node34 -->
<g id="edge46_Node000033_Node000034" class="edge">
<title>Node33&#45;&gt;Node34</title>
<g id="a_edge46_Node000033_Node000034"><a xlink:title=" ">
<path fill="none" stroke="#63b8ff" d="M1908.7,-48.04C1919.17,-38.64 1932.15,-26.98 1940.85,-19.17"/>
<polygon fill="#63b8ff" stroke="#63b8ff" points="1906.08,-45.7 1900.98,-54.98 1910.76,-50.91 1906.08,-45.7"/>
</a>
</g>
</g>
<!-- Node35&#45;&gt;Node32 -->
<g id="edge50_Node000035_Node000032" class="edge">
<title>Node35&#45;&gt;Node32</title>
<g id="a_edge50_Node000035_Node000032"><a xlink:title=" ">
<path fill="none" stroke="#63b8ff" d="M1631.74,-50.5C1651.43,-40.75 1677.82,-27.68 1695,-19.17"/>
<polygon fill="#63b8ff" stroke="#63b8ff" points="1630.1,-47.41 1622.69,-54.98 1633.21,-53.68 1630.1,-47.41"/>
</a>
</g>
</g>
<!-- Node36 -->
<g id="Node000036" class="node">
<title>Node36</title>
<g id="a_Node000036"><a xlink:href="SDStorage_8cpp.html" target="_top" xlink:title=" ">
<polygon fill="white" stroke="#666666" points="1660.5,-19 1572.5,-19 1572.5,0 1660.5,0 1660.5,-19"/>
<text text-anchor="middle" x="1616.5" y="-7" font-family="Helvetica,sans-Serif" font-size="10.00">SDStorage.cpp</text>
</a>
</g>
</g>
<!-- Node35&#45;&gt;Node36 -->
<g id="edge49_Node000035_Node000036" class="edge">
<title>Node35&#45;&gt;Node36</title>
<g id="a_edge49_Node000035_Node000036"><a xlink:title=" ">
<path fill="none" stroke="#63b8ff" d="M1609.35,-44.95C1611.18,-36.15 1613.27,-26.06 1614.72,-19.09"/>
<polygon fill="#63b8ff" stroke="#63b8ff" points="1605.92,-44.25 1607.32,-54.75 1612.78,-45.67 1605.92,-44.25"/>
</a>
</g>
</g>
</g>
</svg>

<g id="navigator" transform="translate(0 0)" fill="#404254">
  <rect fill="#f2f5e9" fill-opacity="0.5" stroke="#606060" stroke-width=".5" x="0" y="0" width="60" height="60"/>
  <use id="zoomplus" xlink:href="#zoomPlus" x="17" y="9" onmousedown="handleZoom(evt,'in')"/>
  <use id="zoomminus" xlink:href="#zoomMin" x="42" y="9" onmousedown="handleZoom(evt,'out')"/>
  <use id="reset" xlink:href="#resetDef" x="30" y="36" onmousedown="handleReset()"/>
   <use id="arrowup" xlink:href="#arrowUp" x="0" y="0" onmousedown="handlePan(0,-1)"/>
  <use id="arrowright" xlink:href="#arrowRight" x="0" y="0" onmousedown="handlePan(1,0)"/>
  <use id="arrowdown" xlink:href="#arrowDown" x="0" y="0" onmousedown="handlePan(0,1)"/>
  <use id="arrowleft" xlink:href="#arrowLeft" x="0" y="0" onmousedown="handlePan(-1,0)"/>
</g>
<svg viewBox="0 0 15 15" width="100%" height="30px" preserveAspectRatio="xMaxYMin meet">
 <g id="arrow_out" transform="scale(0.3 0.3)">
  <a xlink:href="Logger_8h__dep__incl_org.svg" target="_base">
   <rect id="button" ry="5" rx="5" y="6" x="6" height="38" width="38"
        fill="#f2f5e9" fill-opacity="0.5" stroke="#606060" stroke-width="1.0"/>
   <path id="arrow"
     d="M 11.500037,31.436501 C 11.940474,20.09759 22.043105,11.32322 32.158766,21.979434 L 37.068811,17.246167 C 37.068811,17.246167 37.088388,32 37.088388,32 L 22.160133,31.978069 C 22.160133,31.978069 26.997745,27.140456 26.997745,27.140456 C 18.528582,18.264221 13.291696,25.230495 11.500037,31.436501 z"
     style="fill:#404040;"/>
  </a>
 </g>
</svg>

<style type='text/css'>
<![CDATA[
[data-mouse-over-selected='false'] { opacity: 0.7; }
[data-mouse-over-selected='true']  { opacity: 1.0; }
]]>
</style>
<script type="application/ecmascript"><![CDATA[
document.addEventListener('DOMContentLoaded', (event) => {
  highlightEdges();
  highlightAdjacentNodes();
});
]]></script>
</svg>
