<?xml version="1.0" encoding="UTF-8" standalone="no"?>
<!DOCTYPE svg PUBLIC "-//W3C//DTD SVG 1.1//EN"
 "http://www.w3.org/Graphics/SVG/1.1/DTD/svg11.dtd">
<!-- Generated by graphviz version 12.1.2 (20240928.0832)
 -->
<!-- Title: Logger.h Pages: 1 -->
<svg width="2500pt" height="252pt"
 viewBox="0.00 0.00 2500.00 252.00" xmlns="http://www.w3.org/2000/svg" xmlns:xlink="http://www.w3.org/1999/xlink">
<g id="graph0" class="graph" transform="scale(1 1) rotate(0) translate(4 248)">
<title>Logger.h</title>
<!-- Node1 -->
<g id="Node000001" class="node">
<title>Node1</title>
<g id="a_Node000001"><a xlink:title=" ">
<polygon fill="#999999" stroke="#666666" points="1789.75,-244 1736.25,-244 1736.25,-224 1789.75,-224 1789.75,-244"/>
<text text-anchor="middle" x="1763" y="-230.5" font-family="Helvetica,sans-Serif" font-size="10.00">Logger.h</text>
</a>
</g>
</g>
<!-- Node2 -->
<g id="Node000002" class="node">
<title>Node2</title>
<g id="a_Node000002"><a xlink:href="Device_8h.html" target="_top" xlink:title=" ">
<polygon fill="white" stroke="#666666" points="1790.5,-188 1735.5,-188 1735.5,-168 1790.5,-168 1790.5,-188"/>
<text text-anchor="middle" x="1763" y="-174.5" font-family="Helvetica,sans-Serif" font-size="10.00">Device.h</text>
</a>
</g>
</g>
<!-- Node1&#45;&gt;Node2 -->
<g id="edge1_Node000001_Node000002" class="edge">
<title>Node1&#45;&gt;Node2</title>
<g id="a_edge1_Node000001_Node000002"><a xlink:title=" ">
<path fill="none" stroke="#63b8ff" d="M1763,-212.13C1763,-203.9 1763,-194.85 1763,-188.3"/>
<polygon fill="#63b8ff" stroke="#63b8ff" points="1759.5,-212.08 1763,-222.08 1766.5,-212.08 1759.5,-212.08"/>
</a>
</g>
</g>
<!-- Node3 -->
<g id="Node000003" class="node">
<title>Node3</title>
<g id="a_Node000003"><a xlink:href="Sensor_8h.html" target="_top" xlink:title=" ">
<polygon fill="white" stroke="#666666" points="1170.5,-132 1115.5,-132 1115.5,-112 1170.5,-112 1170.5,-132"/>
<text text-anchor="middle" x="1143" y="-118.5" font-family="Helvetica,sans-Serif" font-size="10.00">Sensor.h</text>
</a>
</g>
</g>
<!-- Node1&#45;&gt;Node3 -->
<g id="edge63_Node000001_Node000003" class="edge">
<title>Node1&#45;&gt;Node3</title>
<g id="a_edge63_Node000001_Node000003"><a xlink:title=" ">
<path fill="none" stroke="#63b8ff" d="M1724.63,-226.19C1609.8,-205.82 1270.63,-145.64 1170.89,-127.95"/>
<polygon fill="#63b8ff" stroke="#63b8ff" points="1724.01,-229.64 1734.47,-227.94 1725.24,-222.75 1724.01,-229.64"/>
</a>
</g>
</g>
<!-- Node6 -->
<g id="Node000006" class="node">
<title>Node6</title>
<g id="a_Node000006"><a xlink:href="main_8cpp.html" target="_top" xlink:title="Main functions for Core 0, responsible for reading data from sensor peripherals.">
<polygon fill="white" stroke="#666666" points="764.88,-20 709.12,-20 709.12,0 764.88,0 764.88,-20"/>
<text text-anchor="middle" x="737" y="-6.5" font-family="Helvetica,sans-Serif" font-size="10.00">main.cpp</text>
</a>
</g>
</g>
<!-- Node1&#45;&gt;Node6 -->
<g id="edge65_Node000001_Node000006" class="edge">
<title>Node1&#45;&gt;Node6</title>
<g id="a_edge65_Node000001_Node000006"><a xlink:title=" ">
<path fill="none" stroke="#63b8ff" d="M1724.43,-230.91C1528.12,-219.88 646.24,-165.58 568,-76 562.15,-69.31 562.58,-63.05 568,-56 570.19,-53.16 661.26,-29.98 708.78,-18.05"/>
<polygon fill="#63b8ff" stroke="#63b8ff" points="1724.15,-234.4 1734.33,-231.46 1724.54,-227.41 1724.15,-234.4"/>
</a>
</g>
</g>
<!-- Node39 -->
<g id="Node000039" class="node">
<title>Node39</title>
<g id="a_Node000039"><a xlink:href="Storage_8h.html" target="_top" xlink:title=" ">
<polygon fill="white" stroke="#666666" points="2224,-132 2166,-132 2166,-112 2224,-112 2224,-132"/>
<text text-anchor="middle" x="2195" y="-118.5" font-family="Helvetica,sans-Serif" font-size="10.00">Storage.h</text>
</a>
</g>
</g>
<!-- Node1&#45;&gt;Node39 -->
<g id="edge64_Node000001_Node000039" class="edge">
<title>Node1&#45;&gt;Node39</title>
<g id="a_edge64_Node000001_Node000039"><a xlink:title=" ">
<path fill="none" stroke="#63b8ff" d="M1800.96,-223.34C1885.87,-201.71 2089.68,-149.82 2165.73,-130.45"/>
<polygon fill="#63b8ff" stroke="#63b8ff" points="1800.32,-219.89 1791.49,-225.75 1802.04,-226.67 1800.32,-219.89"/>
</a>
</g>
</g>
<!-- Node42 -->
<g id="Node000042" class="node">
<title>Node42</title>
<g id="a_Node000042"><a xlink:href="main1_8cpp.html" target="_top" xlink:title="Main functions for Core 1, responsible for sending data to storage peripherals.">
<polygon fill="white" stroke="#666666" points="2379.5,-20 2318.5,-20 2318.5,0 2379.5,0 2379.5,-20"/>
<text text-anchor="middle" x="2349" y="-6.5" font-family="Helvetica,sans-Serif" font-size="10.00">main1.cpp</text>
</a>
</g>
</g>
<!-- Node1&#45;&gt;Node42 -->
<g id="edge66_Node000001_Node000042" class="edge">
<title>Node1&#45;&gt;Node42</title>
<g id="a_edge66_Node000001_Node000042"><a xlink:title=" ">
<path fill="none" stroke="#63b8ff" d="M1801.37,-229.88C1883.58,-222.12 2081.53,-197.59 2233,-132 2274.18,-114.17 2287.41,-109.73 2317,-76 2331.93,-58.98 2341.69,-33.76 2346.16,-20.28"/>
<polygon fill="#63b8ff" stroke="#63b8ff" points="1801.25,-226.38 1791.61,-230.77 1801.89,-233.35 1801.25,-226.38"/>
</a>
</g>
</g>
<!-- Node2&#45;&gt;Node3 -->
<g id="edge2_Node000002_Node000003" class="edge">
<title>Node2&#45;&gt;Node3</title>
<g id="a_edge2_Node000002_Node000003"><a xlink:title=" ">
<path fill="none" stroke="#63b8ff" d="M1723.72,-173.58C1607.97,-163.5 1270.09,-134.07 1170.77,-125.42"/>
<polygon fill="#63b8ff" stroke="#63b8ff" points="1723.38,-177.06 1733.65,-174.44 1723.99,-170.09 1723.38,-177.06"/>
</a>
</g>
</g>
<!-- Node2&#45;&gt;Node39 -->
<g id="edge52_Node000002_Node000039" class="edge">
<title>Node2&#45;&gt;Node39</title>
<g id="a_edge52_Node000002_Node000039"><a xlink:title=" ">
<path fill="none" stroke="#63b8ff" d="M1801.93,-172.13C1887.37,-161.45 2089.69,-136.16 2165.57,-126.68"/>
<polygon fill="#63b8ff" stroke="#63b8ff" points="1801.67,-168.64 1792.18,-173.35 1802.54,-175.58 1801.67,-168.64"/>
</a>
</g>
</g>
<!-- Node4 -->
<g id="Node000004" class="node">
<title>Node4</title>
<g id="a_Node000004"><a xlink:href="AS7331Sensor_8h.html" target="_top" xlink:title=" ">
<polygon fill="white" stroke="#666666" points="1021.75,-76 932.25,-76 932.25,-56 1021.75,-56 1021.75,-76"/>
<text text-anchor="middle" x="977" y="-62.5" font-family="Helvetica,sans-Serif" font-size="10.00">AS7331Sensor.h</text>
</a>
</g>
</g>
<!-- Node3&#45;&gt;Node4 -->
<g id="edge3_Node000003_Node000004" class="edge">
<title>Node3&#45;&gt;Node4</title>
<g id="a_edge3_Node000003_Node000004"><a xlink:title=" ">
<path fill="none" stroke="#63b8ff" d="M1104.29,-108.41C1074.24,-98.63 1033.25,-85.3 1005.99,-76.43"/>
<polygon fill="#63b8ff" stroke="#63b8ff" points="1103.18,-111.73 1113.78,-111.49 1105.35,-105.07 1103.18,-111.73"/>
</a>
</g>
</g>
<!-- Node3&#45;&gt;Node6 -->
<g id="edge51_Node000003_Node000006" class="edge">
<title>Node3&#45;&gt;Node6</title>
<g id="a_edge51_Node000003_Node000006"><a xlink:title=" ">
<path fill="none" stroke="#63b8ff" d="M1103.64,-121.45C1042.11,-120.85 920.39,-114.35 826,-76 793.38,-62.75 761.68,-34.97 746.42,-20.39"/>
<polygon fill="#63b8ff" stroke="#63b8ff" points="1103.59,-124.95 1113.61,-121.5 1103.62,-117.95 1103.59,-124.95"/>
</a>
</g>
</g>
<!-- Node7 -->
<g id="Node000007" class="node">
<title>Node7</title>
<g id="a_Node000007"><a xlink:href="BME280Sensor_8h.html" target="_top" xlink:title=" ">
<polygon fill="white" stroke="#666666" points="1592.25,-76 1499.75,-76 1499.75,-56 1592.25,-56 1592.25,-76"/>
<text text-anchor="middle" x="1546" y="-62.5" font-family="Helvetica,sans-Serif" font-size="10.00">BME280Sensor.h</text>
</a>
</g>
</g>
<!-- Node3&#45;&gt;Node7 -->
<g id="edge6_Node000003_Node000007" class="edge">
<title>Node3&#45;&gt;Node7</title>
<g id="a_edge6_Node000003_Node000007"><a xlink:title=" ">
<path fill="none" stroke="#63b8ff" d="M1182.3,-115.79C1245.18,-107.44 1372.29,-90.54 1480,-76 1486.3,-75.15 1492.94,-74.25 1499.49,-73.36"/>
<polygon fill="#63b8ff" stroke="#63b8ff" points="1181.92,-112.31 1172.46,-117.09 1182.84,-119.25 1181.92,-112.31"/>
</a>
</g>
</g>
<!-- Node9 -->
<g id="Node000009" class="node">
<title>Node9</title>
<g id="a_Node000009"><a xlink:href="BME680Sensor_8h.html" target="_top" xlink:title=" ">
<polygon fill="white" stroke="#666666" points="1712.25,-76 1619.75,-76 1619.75,-56 1712.25,-56 1712.25,-76"/>
<text text-anchor="middle" x="1666" y="-62.5" font-family="Helvetica,sans-Serif" font-size="10.00">BME680Sensor.h</text>
</a>
</g>
</g>
<!-- Node3&#45;&gt;Node9 -->
<g id="edge8_Node000003_Node000009" class="edge">
<title>Node3&#45;&gt;Node9</title>
<g id="a_edge8_Node000003_Node000009"><a xlink:title=" ">
<path fill="none" stroke="#63b8ff" d="M1182.28,-117.67C1261.55,-110.83 1446.29,-94.3 1601,-76 1607,-75.29 1613.3,-74.49 1619.52,-73.66"/>
<polygon fill="#63b8ff" stroke="#63b8ff" points="1182.09,-114.17 1172.43,-118.52 1182.69,-121.15 1182.09,-114.17"/>
</a>
</g>
</g>
<!-- Node11 -->
<g id="Node000011" class="node">
<title>Node11</title>
<g id="a_Node000011"><a xlink:href="BMP390Sensor_8h.html" target="_top" xlink:title=" ">
<polygon fill="white" stroke="#666666" points="1132.25,-76 1039.75,-76 1039.75,-56 1132.25,-56 1132.25,-76"/>
<text text-anchor="middle" x="1086" y="-62.5" font-family="Helvetica,sans-Serif" font-size="10.00">BMP390Sensor.h</text>
</a>
</g>
</g>
<!-- Node3&#45;&gt;Node11 -->
<g id="edge10_Node000003_Node000011" class="edge">
<title>Node3&#45;&gt;Node11</title>
<g id="a_edge10_Node000003_Node000011"><a xlink:title=" ">
<path fill="none" stroke="#63b8ff" d="M1124.89,-103.85C1115.26,-94.72 1103.79,-83.86 1095.81,-76.3"/>
<polygon fill="#63b8ff" stroke="#63b8ff" points="1122.31,-106.22 1131.97,-110.55 1127.12,-101.13 1122.31,-106.22"/>
</a>
</g>
</g>
<!-- Node13 -->
<g id="Node000013" class="node">
<title>Node13</title>
<g id="a_Node000013"><a xlink:href="DS3231Sensor_8h.html" target="_top" xlink:title=" ">
<polygon fill="white" stroke="#666666" points="1830.12,-76 1739.88,-76 1739.88,-56 1830.12,-56 1830.12,-76"/>
<text text-anchor="middle" x="1785" y="-62.5" font-family="Helvetica,sans-Serif" font-size="10.00">DS3231Sensor.h</text>
</a>
</g>
</g>
<!-- Node3&#45;&gt;Node13 -->
<g id="edge13_Node000003_Node000013" class="edge">
<title>Node3&#45;&gt;Node13</title>
<g id="a_edge13_Node000003_Node000013"><a xlink:title=" ">
<path fill="none" stroke="#63b8ff" d="M1182.13,-118.79C1275.52,-113.34 1518.75,-98.07 1721,-76 1727.02,-75.34 1733.35,-74.56 1739.59,-73.74"/>
<polygon fill="#63b8ff" stroke="#63b8ff" points="1182.02,-115.29 1172.24,-119.37 1182.43,-122.28 1182.02,-115.29"/>
</a>
</g>
</g>
<!-- Node15 -->
<g id="Node000015" class="node">
<title>Node15</title>
<g id="a_Node000015"><a xlink:href="ENS160Sensor_8h.html" target="_top" xlink:title=" ">
<polygon fill="white" stroke="#666666" points="520.88,-76 429.12,-76 429.12,-56 520.88,-56 520.88,-76"/>
<text text-anchor="middle" x="475" y="-62.5" font-family="Helvetica,sans-Serif" font-size="10.00">ENS160Sensor.h</text>
</a>
</g>
</g>
<!-- Node3&#45;&gt;Node15 -->
<g id="edge15_Node000003_Node000015" class="edge">
<title>Node3&#45;&gt;Node15</title>
<g id="a_edge15_Node000003_Node000015"><a xlink:title=" ">
<path fill="none" stroke="#63b8ff" d="M1103.8,-118.18C1010.77,-111.44 769.4,-93.62 568,-76 552.81,-74.67 536.24,-73.1 521.34,-71.65"/>
<polygon fill="#63b8ff" stroke="#63b8ff" points="1103.42,-121.66 1113.65,-118.89 1103.93,-114.68 1103.42,-121.66"/>
</a>
</g>
</g>
<!-- Node17 -->
<g id="Node000017" class="node">
<title>Node17</title>
<g id="a_Node000017"><a xlink:href="ICM20948Sensor_8h.html" target="_top" xlink:title=" ">
<polygon fill="white" stroke="#666666" points="1250,-76 1150,-76 1150,-56 1250,-56 1250,-76"/>
<text text-anchor="middle" x="1200" y="-62.5" font-family="Helvetica,sans-Serif" font-size="10.00">ICM20948Sensor.h</text>
</a>
</g>
</g>
<!-- Node3&#45;&gt;Node17 -->
<g id="edge18_Node000003_Node000017" class="edge">
<title>Node3&#45;&gt;Node17</title>
<g id="a_edge18_Node000003_Node000017"><a xlink:title=" ">
<path fill="none" stroke="#63b8ff" d="M1161.11,-103.85C1170.74,-94.72 1182.21,-83.86 1190.19,-76.3"/>
<polygon fill="#63b8ff" stroke="#63b8ff" points="1158.88,-101.13 1154.03,-110.55 1163.69,-106.22 1158.88,-101.13"/>
</a>
</g>
</g>
<!-- Node19 -->
<g id="Node000019" class="node">
<title>Node19</title>
<g id="a_Node000019"><a xlink:href="INA260Sensor_8h.html" target="_top" xlink:title=" ">
<polygon fill="white" stroke="#666666" points="1356,-76 1268,-76 1268,-56 1356,-56 1356,-76"/>
<text text-anchor="middle" x="1312" y="-62.5" font-family="Helvetica,sans-Serif" font-size="10.00">INA260Sensor.h</text>
</a>
</g>
</g>
<!-- Node3&#45;&gt;Node19 -->
<g id="edge21_Node000003_Node000019" class="edge">
<title>Node3&#45;&gt;Node19</title>
<g id="a_edge21_Node000003_Node000019"><a xlink:title=" ">
<path fill="none" stroke="#63b8ff" d="M1181.61,-108.66C1212.22,-98.88 1254.35,-85.42 1282.34,-76.48"/>
<polygon fill="#63b8ff" stroke="#63b8ff" points="1180.81,-105.24 1172.35,-111.62 1182.94,-111.91 1180.81,-105.24"/>
</a>
</g>
</g>
<!-- Node21 -->
<g id="Node000021" class="node">
<title>Node21</title>
<g id="a_Node000021"><a xlink:href="LSM9DS1Sensor_8h.html" target="_top" xlink:title=" ">
<polygon fill="white" stroke="#666666" points="1958,-76 1858,-76 1858,-56 1958,-56 1958,-76"/>
<text text-anchor="middle" x="1908" y="-62.5" font-family="Helvetica,sans-Serif" font-size="10.00">LSM9DS1Sensor.h</text>
</a>
</g>
</g>
<!-- Node3&#45;&gt;Node21 -->
<g id="edge24_Node000003_Node000021" class="edge">
<title>Node3&#45;&gt;Node21</title>
<g id="a_edge24_Node000003_Node000021"><a xlink:title=" ">
<path fill="none" stroke="#63b8ff" d="M1182.28,-119.36C1288.38,-114.73 1589.51,-100.31 1839,-76 1845.01,-75.41 1851.31,-74.71 1857.55,-73.97"/>
<polygon fill="#63b8ff" stroke="#63b8ff" points="1182.25,-115.86 1172.41,-119.78 1182.55,-122.85 1182.25,-115.86"/>
</a>
</g>
</g>
<!-- Node23 -->
<g id="Node000023" class="node">
<title>Node23</title>
<g id="a_Node000023"><a xlink:href="MTK3339Sensor_8h.html" target="_top" xlink:title=" ">
<polygon fill="white" stroke="#666666" points="1471.5,-76 1374.5,-76 1374.5,-56 1471.5,-56 1471.5,-76"/>
<text text-anchor="middle" x="1423" y="-62.5" font-family="Helvetica,sans-Serif" font-size="10.00">MTK3339Sensor.h</text>
</a>
</g>
</g>
<!-- Node3&#45;&gt;Node23 -->
<g id="edge26_Node000003_Node000023" class="edge">
<title>Node3&#45;&gt;Node23</title>
<g id="a_edge26_Node000003_Node000023"><a xlink:title=" ">
<path fill="none" stroke="#63b8ff" d="M1181.9,-113.5C1232.14,-103.81 1319.6,-86.94 1374.23,-76.41"/>
<polygon fill="#63b8ff" stroke="#63b8ff" points="1181.51,-110.01 1172.36,-115.34 1182.84,-116.88 1181.51,-110.01"/>
</a>
</g>
</g>
<!-- Node25 -->
<g id="Node000025" class="node">
<title>Node25</title>
<g id="a_Node000025"><a xlink:href="OzoneSensor_8h.html" target="_top" xlink:title=" ">
<polygon fill="white" stroke="#666666" points="195.75,-76 112.25,-76 112.25,-56 195.75,-56 195.75,-76"/>
<text text-anchor="middle" x="154" y="-62.5" font-family="Helvetica,sans-Serif" font-size="10.00">OzoneSensor.h</text>
</a>
</g>
</g>
<!-- Node3&#45;&gt;Node25 -->
<g id="edge29_Node000003_Node000025" class="edge">
<title>Node3&#45;&gt;Node25</title>
<g id="a_edge29_Node000003_Node000025"><a xlink:title=" ">
<path fill="none" stroke="#63b8ff" d="M1104.1,-120.9C975.46,-120.18 552.24,-114.81 205,-76 202.14,-75.68 199.2,-75.3 196.24,-74.88"/>
<polygon fill="#63b8ff" stroke="#63b8ff" points="1103.74,-124.39 1113.76,-120.94 1103.78,-117.39 1103.74,-124.39"/>
</a>
</g>
</g>
<!-- Node27 -->
<g id="Node000027" class="node">
<title>Node27</title>
<g id="a_Node000027"><a xlink:href="PCF8523Sensor_8h.html" target="_top" xlink:title=" ">
<polygon fill="white" stroke="#666666" points="673.12,-76 576.88,-76 576.88,-56 673.12,-56 673.12,-76"/>
<text text-anchor="middle" x="625" y="-62.5" font-family="Helvetica,sans-Serif" font-size="10.00">PCF8523Sensor.h</text>
</a>
</g>
</g>
<!-- Node3&#45;&gt;Node27 -->
<g id="edge32_Node000003_Node000027" class="edge">
<title>Node3&#45;&gt;Node27</title>
<g id="a_edge32_Node000003_Node000027"><a xlink:title=" ">
<path fill="none" stroke="#63b8ff" d="M1103.72,-117.96C1024.04,-111.61 837.73,-95.88 682,-76 679.22,-75.64 676.36,-75.26 673.48,-74.86"/>
<polygon fill="#63b8ff" stroke="#63b8ff" points="1103.38,-121.44 1113.63,-118.74 1103.93,-114.46 1103.38,-121.44"/>
</a>
</g>
</g>
<!-- Node29 -->
<g id="Node000029" class="node">
<title>Node29</title>
<g id="a_Node000029"><a xlink:href="SCD40Sensor_8h.html" target="_top" xlink:title=" ">
<polygon fill="white" stroke="#666666" points="778.62,-76 691.38,-76 691.38,-56 778.62,-56 778.62,-76"/>
<text text-anchor="middle" x="735" y="-62.5" font-family="Helvetica,sans-Serif" font-size="10.00">SCD40Sensor.h</text>
</a>
</g>
</g>
<!-- Node3&#45;&gt;Node29 -->
<g id="edge35_Node000003_Node000029" class="edge">
<title>Node3&#45;&gt;Node29</title>
<g id="a_edge35_Node000003_Node000029"><a xlink:title=" ">
<path fill="none" stroke="#63b8ff" d="M1104.04,-116.33C1039.36,-108.49 905.78,-92 793,-76 788.46,-75.36 783.72,-74.66 779,-73.95"/>
<polygon fill="#63b8ff" stroke="#63b8ff" points="1103.44,-119.78 1113.79,-117.5 1104.28,-112.83 1103.44,-119.78"/>
</a>
</g>
</g>
<!-- Node31 -->
<g id="Node000031" class="node">
<title>Node31</title>
<g id="a_Node000031"><a xlink:href="SGP30Sensor_8h.html" target="_top" xlink:title=" ">
<polygon fill="white" stroke="#666666" points="2073.25,-76 1986.75,-76 1986.75,-56 2073.25,-56 2073.25,-76"/>
<text text-anchor="middle" x="2030" y="-62.5" font-family="Helvetica,sans-Serif" font-size="10.00">SGP30Sensor.h</text>
</a>
</g>
</g>
<!-- Node3&#45;&gt;Node31 -->
<g id="edge38_Node000003_Node000031" class="edge">
<title>Node3&#45;&gt;Node31</title>
<g id="a_edge38_Node000003_Node000031"><a xlink:title=" ">
<path fill="none" stroke="#63b8ff" d="M1182.13,-120.08C1300.62,-117.02 1665.81,-105.68 1967,-76 1973.27,-75.38 1979.87,-74.59 1986.34,-73.74"/>
<polygon fill="#63b8ff" stroke="#63b8ff" points="1182.23,-116.57 1172.32,-120.32 1182.41,-123.57 1182.23,-116.57"/>
</a>
</g>
</g>
<!-- Node33 -->
<g id="Node000033" class="node">
<title>Node33</title>
<g id="a_Node000033"><a xlink:href="SHTC3Sensor_8h.html" target="_top" xlink:title=" ">
<polygon fill="white" stroke="#666666" points="302,-76 214,-76 214,-56 302,-56 302,-76"/>
<text text-anchor="middle" x="258" y="-62.5" font-family="Helvetica,sans-Serif" font-size="10.00">SHTC3Sensor.h</text>
</a>
</g>
</g>
<!-- Node3&#45;&gt;Node33 -->
<g id="edge40_Node000003_Node000033" class="edge">
<title>Node3&#45;&gt;Node33</title>
<g id="a_edge40_Node000003_Node000033"><a xlink:title=" ">
<path fill="none" stroke="#63b8ff" d="M1103.86,-120.47C984.55,-118.51 615.04,-109.92 311,-76 308.22,-75.69 305.36,-75.33 302.48,-74.93"/>
<polygon fill="#63b8ff" stroke="#63b8ff" points="1103.69,-123.97 1113.74,-120.62 1103.8,-116.97 1103.69,-123.97"/>
</a>
</g>
</g>
<!-- Node35 -->
<g id="Node000035" class="node">
<title>Node35</title>
<g id="a_Node000035"><a xlink:href="TMP117Sensor_8h.html" target="_top" xlink:title=" ">
<polygon fill="white" stroke="#666666" points="411.5,-76 320.5,-76 320.5,-56 411.5,-56 411.5,-76"/>
<text text-anchor="middle" x="366" y="-62.5" font-family="Helvetica,sans-Serif" font-size="10.00">TMP117Sensor.h</text>
</a>
</g>
</g>
<!-- Node3&#45;&gt;Node35 -->
<g id="edge44_Node000003_Node000035" class="edge">
<title>Node3&#45;&gt;Node35</title>
<g id="a_edge44_Node000003_Node000035"><a xlink:title=" ">
<path fill="none" stroke="#63b8ff" d="M1104,-119.98C995.35,-116.85 680.14,-105.69 420,-76 417.36,-75.7 414.64,-75.35 411.91,-74.98"/>
<polygon fill="#63b8ff" stroke="#63b8ff" points="1103.72,-123.48 1113.82,-120.26 1103.92,-116.48 1103.72,-123.48"/>
</a>
</g>
</g>
<!-- Node37 -->
<g id="Node000037" class="node">
<title>Node37</title>
<g id="a_Node000037"><a xlink:href="TempSensor_8h.html" target="_top" xlink:title=" ">
<polygon fill="white" stroke="#666666" points="914.5,-76 835.5,-76 835.5,-56 914.5,-56 914.5,-76"/>
<text text-anchor="middle" x="875" y="-62.5" font-family="Helvetica,sans-Serif" font-size="10.00">TempSensor.h</text>
</a>
</g>
</g>
<!-- Node3&#45;&gt;Node37 -->
<g id="edge48_Node000003_Node000037" class="edge">
<title>Node3&#45;&gt;Node37</title>
<g id="a_edge48_Node000003_Node000037"><a xlink:title=" ">
<path fill="none" stroke="#63b8ff" d="M1103.99,-113.14C1053.49,-102.96 965.96,-85.33 914.99,-75.06"/>
<polygon fill="#63b8ff" stroke="#63b8ff" points="1103.1,-116.53 1113.59,-115.07 1104.48,-109.67 1103.1,-116.53"/>
</a>
</g>
</g>
<!-- Node5 -->
<g id="Node000005" class="node">
<title>Node5</title>
<g id="a_Node000005"><a xlink:href="AS7331Sensor_8cpp.html" target="_top" xlink:title=" ">
<polygon fill="white" stroke="#666666" points="991,-20 891,-20 891,0 991,0 991,-20"/>
<text text-anchor="middle" x="941" y="-6.5" font-family="Helvetica,sans-Serif" font-size="10.00">AS7331Sensor.cpp</text>
</a>
</g>
</g>
<!-- Node4&#45;&gt;Node5 -->
<g id="edge4_Node000004_Node000005" class="edge">
<title>Node4&#45;&gt;Node5</title>
<g id="a_edge4_Node000004_Node000005"><a xlink:title=" ">
<path fill="none" stroke="#63b8ff" d="M964.43,-46.15C958.6,-37.4 951.93,-27.39 947.2,-20.3"/>
<polygon fill="#63b8ff" stroke="#63b8ff" points="961.43,-47.96 969.89,-54.33 967.25,-44.07 961.43,-47.96"/>
</a>
</g>
</g>
<!-- Node4&#45;&gt;Node6 -->
<g id="edge5_Node000004_Node000006" class="edge">
<title>Node4&#45;&gt;Node6</title>
<g id="a_edge5_Node000004_Node000006"><a xlink:title=" ">
<path fill="none" stroke="#63b8ff" d="M921.91,-53.11C881.04,-44.21 823.98,-31.62 774,-20 771.17,-19.34 768.21,-18.64 765.27,-17.94"/>
<polygon fill="#63b8ff" stroke="#63b8ff" points="920.99,-56.49 931.51,-55.19 922.48,-49.65 920.99,-56.49"/>
</a>
</g>
</g>
<!-- Node8 -->
<g id="Node000008" class="node">
<title>Node8</title>
<g id="a_Node000008"><a xlink:href="BME280Sensor_8cpp.html" target="_top" xlink:title=" ">
<polygon fill="white" stroke="#666666" points="1604.5,-20 1501.5,-20 1501.5,0 1604.5,0 1604.5,-20"/>
<text text-anchor="middle" x="1553" y="-6.5" font-family="Helvetica,sans-Serif" font-size="10.00">BME280Sensor.cpp</text>
</a>
</g>
</g>
<!-- Node7&#45;&gt;Node8 -->
<g id="edge7_Node000007_Node000008" class="edge">
<title>Node7&#45;&gt;Node8</title>
<g id="a_edge7_Node000007_Node000008"><a xlink:title=" ">
<path fill="none" stroke="#63b8ff" d="M1548.67,-44.43C1549.75,-36.11 1550.93,-26.93 1551.79,-20.3"/>
<polygon fill="#63b8ff" stroke="#63b8ff" points="1545.23,-43.73 1547.41,-54.09 1552.17,-44.63 1545.23,-43.73"/>
</a>
</g>
</g>
<!-- Node10 -->
<g id="Node000010" class="node">
<title>Node10</title>
<g id="a_Node000010"><a xlink:href="BME680Sensor_8cpp.html" target="_top" xlink:title=" ">
<polygon fill="white" stroke="#666666" points="1725.5,-20 1622.5,-20 1622.5,0 1725.5,0 1725.5,-20"/>
<text text-anchor="middle" x="1674" y="-6.5" font-family="Helvetica,sans-Serif" font-size="10.00">BME680Sensor.cpp</text>
</a>
</g>
</g>
<!-- Node9&#45;&gt;Node10 -->
<g id="edge9_Node000009_Node000010" class="edge">
<title>Node9&#45;&gt;Node10</title>
<g id="a_edge9_Node000009_Node000010"><a xlink:title=" ">
<path fill="none" stroke="#63b8ff" d="M1669.05,-44.43C1670.28,-36.11 1671.64,-26.93 1672.62,-20.3"/>
<polygon fill="#63b8ff" stroke="#63b8ff" points="1665.62,-43.69 1667.62,-54.1 1672.54,-44.72 1665.62,-43.69"/>
</a>
</g>
</g>
<!-- Node11&#45;&gt;Node6 -->
<g id="edge12_Node000011_Node000006" class="edge">
<title>Node11&#45;&gt;Node6</title>
<g id="a_edge12_Node000011_Node000006"><a xlink:title=" ">
<path fill="none" stroke="#63b8ff" d="M1028.28,-55.63C915.03,-38.85 883.75,-40.98 774,-20 771.14,-19.45 768.17,-18.83 765.22,-18.17"/>
<polygon fill="#63b8ff" stroke="#63b8ff" points="1027.6,-59.07 1038,-57.09 1028.63,-52.14 1027.6,-59.07"/>
</a>
</g>
</g>
<!-- Node12 -->
<g id="Node000012" class="node">
<title>Node12</title>
<g id="a_Node000012"><a xlink:href="BMP390Sensor_8cpp.html" target="_top" xlink:title=" ">
<polygon fill="white" stroke="#666666" points="1112.5,-20 1009.5,-20 1009.5,0 1112.5,0 1112.5,-20"/>
<text text-anchor="middle" x="1061" y="-6.5" font-family="Helvetica,sans-Serif" font-size="10.00">BMP390Sensor.cpp</text>
</a>
</g>
</g>
<!-- Node11&#45;&gt;Node12 -->
<g id="edge11_Node000011_Node000012" class="edge">
<title>Node11&#45;&gt;Node12</title>
<g id="a_edge11_Node000011_Node000012"><a xlink:title=" ">
<path fill="none" stroke="#63b8ff" d="M1076.88,-45.29C1072.92,-36.75 1068.48,-27.16 1065.3,-20.3"/>
<polygon fill="#63b8ff" stroke="#63b8ff" points="1073.63,-46.62 1081.01,-54.22 1079.98,-43.68 1073.63,-46.62"/>
</a>
</g>
</g>
<!-- Node14 -->
<g id="Node000014" class="node">
<title>Node14</title>
<g id="a_Node000014"><a xlink:href="DS3231Sensor_8cpp.html" target="_top" xlink:title=" ">
<polygon fill="white" stroke="#666666" points="1844.38,-20 1743.62,-20 1743.62,0 1844.38,0 1844.38,-20"/>
<text text-anchor="middle" x="1794" y="-6.5" font-family="Helvetica,sans-Serif" font-size="10.00">DS3231Sensor.cpp</text>
</a>
</g>
</g>
<!-- Node13&#45;&gt;Node14 -->
<g id="edge14_Node000013_Node000014" class="edge">
<title>Node13&#45;&gt;Node14</title>
<g id="a_edge14_Node000013_Node000014"><a xlink:title=" ">
<path fill="none" stroke="#63b8ff" d="M1788.43,-44.43C1789.82,-36.11 1791.34,-26.93 1792.45,-20.3"/>
<polygon fill="#63b8ff" stroke="#63b8ff" points="1785.01,-43.66 1786.82,-54.1 1791.91,-44.81 1785.01,-43.66"/>
</a>
</g>
</g>
<!-- Node15&#45;&gt;Node6 -->
<g id="edge17_Node000015_Node000006" class="edge">
<title>Node15&#45;&gt;Node6</title>
<g id="a_edge17_Node000015_Node000006"><a xlink:title=" ">
<path fill="none" stroke="#63b8ff" d="M532.36,-54.2C577.91,-45.47 643.17,-32.59 700,-20 702.84,-19.37 705.8,-18.69 708.75,-18"/>
<polygon fill="#63b8ff" stroke="#63b8ff" points="531.88,-50.73 522.71,-56.05 533.19,-57.61 531.88,-50.73"/>
</a>
</g>
</g>
<!-- Node16 -->
<g id="Node000016" class="node">
<title>Node16</title>
<g id="a_Node000016"><a xlink:href="ENS160Sensor_8cpp.html" target="_top" xlink:title=" ">
<polygon fill="white" stroke="#666666" points="450.12,-20 347.88,-20 347.88,0 450.12,0 450.12,-20"/>
<text text-anchor="middle" x="399" y="-6.5" font-family="Helvetica,sans-Serif" font-size="10.00">ENS160Sensor.cpp</text>
</a>
</g>
</g>
<!-- Node15&#45;&gt;Node16 -->
<g id="edge16_Node000015_Node000016" class="edge">
<title>Node15&#45;&gt;Node16</title>
<g id="a_edge16_Node000015_Node000016"><a xlink:title=" ">
<path fill="none" stroke="#63b8ff" d="M452.48,-49C439.42,-39.72 423.42,-28.35 412.34,-20.48"/>
<polygon fill="#63b8ff" stroke="#63b8ff" points="450.35,-51.78 460.53,-54.72 454.4,-46.07 450.35,-51.78"/>
</a>
</g>
</g>
<!-- Node17&#45;&gt;Node6 -->
<g id="edge20_Node000017_Node000006" class="edge">
<title>Node17&#45;&gt;Node6</title>
<g id="a_edge20_Node000017_Node000006"><a xlink:title=" ">
<path fill="none" stroke="#63b8ff" d="M1138.45,-55.76C976.39,-36.15 931.95,-46.82 774,-20 771.13,-19.51 768.16,-18.93 765.2,-18.29"/>
<polygon fill="#63b8ff" stroke="#63b8ff" points="1137.96,-59.22 1148.31,-56.97 1138.81,-52.27 1137.96,-59.22"/>
</a>
</g>
</g>
<!-- Node18 -->
<g id="Node000018" class="node">
<title>Node18</title>
<g id="a_Node000018"><a xlink:href="ICM20948Sensor_8cpp.html" target="_top" xlink:title=" ">
<polygon fill="white" stroke="#666666" points="1241.25,-20 1130.75,-20 1130.75,0 1241.25,0 1241.25,-20"/>
<text text-anchor="middle" x="1186" y="-6.5" font-family="Helvetica,sans-Serif" font-size="10.00">ICM20948Sensor.cpp</text>
</a>
</g>
</g>
<!-- Node17&#45;&gt;Node18 -->
<g id="edge19_Node000017_Node000018" class="edge">
<title>Node17&#45;&gt;Node18</title>
<g id="a_edge19_Node000017_Node000018"><a xlink:title=" ">
<path fill="none" stroke="#63b8ff" d="M1194.74,-44.71C1192.57,-36.32 1190.15,-27.01 1188.41,-20.3"/>
<polygon fill="#63b8ff" stroke="#63b8ff" points="1191.28,-45.33 1197.18,-54.13 1198.06,-43.57 1191.28,-45.33"/>
</a>
</g>
</g>
<!-- Node19&#45;&gt;Node6 -->
<g id="edge23_Node000019_Node000006" class="edge">
<title>Node19&#45;&gt;Node6</title>
<g id="a_edge23_Node000019_Node000006"><a xlink:title=" ">
<path fill="none" stroke="#63b8ff" d="M1256.22,-55.78C1042.44,-30.67 983.86,-53.08 774,-20 771.13,-19.55 768.15,-18.98 765.19,-18.36"/>
<polygon fill="#63b8ff" stroke="#63b8ff" points="1255.66,-59.24 1266.01,-56.95 1256.5,-52.29 1255.66,-59.24"/>
</a>
</g>
</g>
<!-- Node20 -->
<g id="Node000020" class="node">
<title>Node20</title>
<g id="a_Node000020"><a xlink:href="INA260Sensor_8cpp.html" target="_top" xlink:title=" ">
<polygon fill="white" stroke="#666666" points="1358.25,-20 1259.75,-20 1259.75,0 1358.25,0 1358.25,-20"/>
<text text-anchor="middle" x="1309" y="-6.5" font-family="Helvetica,sans-Serif" font-size="10.00">INA260Sensor.cpp</text>
</a>
</g>
</g>
<!-- Node19&#45;&gt;Node20 -->
<g id="edge22_Node000019_Node000020" class="edge">
<title>Node19&#45;&gt;Node20</title>
<g id="a_edge22_Node000019_Node000020"><a xlink:title=" ">
<path fill="none" stroke="#63b8ff" d="M1310.84,-44.13C1310.38,-35.9 1309.88,-26.85 1309.52,-20.3"/>
<polygon fill="#63b8ff" stroke="#63b8ff" points="1307.34,-44.29 1311.39,-54.08 1314.33,-43.9 1307.34,-44.29"/>
</a>
</g>
</g>
<!-- Node22 -->
<g id="Node000022" class="node">
<title>Node22</title>
<g id="a_Node000022"><a xlink:href="LSM9DS1Sensor_8cpp.html" target="_top" xlink:title=" ">
<polygon fill="white" stroke="#666666" points="1973.25,-20 1862.75,-20 1862.75,0 1973.25,0 1973.25,-20"/>
<text text-anchor="middle" x="1918" y="-6.5" font-family="Helvetica,sans-Serif" font-size="10.00">LSM9DS1Sensor.cpp</text>
</a>
</g>
</g>
<!-- Node21&#45;&gt;Node22 -->
<g id="edge25_Node000021_Node000022" class="edge">
<title>Node21&#45;&gt;Node22</title>
<g id="a_edge25_Node000021_Node000022"><a xlink:title=" ">
<path fill="none" stroke="#63b8ff" d="M1911.81,-44.43C1913.35,-36.11 1915.05,-26.93 1916.28,-20.3"/>
<polygon fill="#63b8ff" stroke="#63b8ff" points="1908.4,-43.64 1910.02,-54.11 1915.28,-44.91 1908.4,-43.64"/>
</a>
</g>
</g>
<!-- Node23&#45;&gt;Node6 -->
<g id="edge28_Node000023_Node000006" class="edge">
<title>Node23&#45;&gt;Node6</title>
<g id="a_edge28_Node000023_Node000006"><a xlink:title=" ">
<path fill="none" stroke="#63b8ff" d="M1362.92,-55.9C1101.37,-28.67 1030.52,-58.7 774,-20 771.12,-19.57 768.14,-19.02 765.18,-18.4"/>
<polygon fill="#63b8ff" stroke="#63b8ff" points="1362.49,-59.37 1372.8,-56.95 1363.23,-52.41 1362.49,-59.37"/>
</a>
</g>
</g>
<!-- Node24 -->
<g id="Node000024" class="node">
<title>Node24</title>
<g id="a_Node000024"><a xlink:href="MTK3339Sensor_8cpp.html" target="_top" xlink:title=" ">
<polygon fill="white" stroke="#666666" points="1483.75,-20 1376.25,-20 1376.25,0 1483.75,0 1483.75,-20"/>
<text text-anchor="middle" x="1430" y="-6.5" font-family="Helvetica,sans-Serif" font-size="10.00">MTK3339Sensor.cpp</text>
</a>
</g>
</g>
<!-- Node23&#45;&gt;Node24 -->
<g id="edge27_Node000023_Node000024" class="edge">
<title>Node23&#45;&gt;Node24</title>
<g id="a_edge27_Node000023_Node000024"><a xlink:title=" ">
<path fill="none" stroke="#63b8ff" d="M1425.67,-44.43C1426.75,-36.11 1427.93,-26.93 1428.79,-20.3"/>
<polygon fill="#63b8ff" stroke="#63b8ff" points="1422.23,-43.73 1424.41,-54.09 1429.17,-44.63 1422.23,-43.73"/>
</a>
</g>
</g>
<!-- Node25&#45;&gt;Node6 -->
<g id="edge31_Node000025_Node000006" class="edge">
<title>Node25&#45;&gt;Node6</title>
<g id="a_edge31_Node000025_Node000006"><a xlink:title=" ">
<path fill="none" stroke="#63b8ff" d="M207.19,-55.87C425.87,-29.62 485.7,-53.62 700,-20 702.87,-19.55 705.85,-18.99 708.82,-18.37"/>
<polygon fill="#63b8ff" stroke="#63b8ff" points="206.98,-52.37 197.48,-57.06 207.83,-59.32 206.98,-52.37"/>
</a>
</g>
</g>
<!-- Node26 -->
<g id="Node000026" class="node">
<title>Node26</title>
<g id="a_Node000026"><a xlink:href="OzoneSensor_8cpp.html" target="_top" xlink:title=" ">
<polygon fill="white" stroke="#666666" points="94,-20 0,-20 0,0 94,0 94,-20"/>
<text text-anchor="middle" x="47" y="-6.5" font-family="Helvetica,sans-Serif" font-size="10.00">OzoneSensor.cpp</text>
</a>
</g>
</g>
<!-- Node25&#45;&gt;Node26 -->
<g id="edge30_Node000025_Node000026" class="edge">
<title>Node25&#45;&gt;Node26</title>
<g id="a_edge30_Node000025_Node000026"><a xlink:title=" ">
<path fill="none" stroke="#63b8ff" d="M125.23,-50.48C106.36,-40.96 82.22,-28.78 65.78,-20.48"/>
<polygon fill="#63b8ff" stroke="#63b8ff" points="123.51,-53.53 134.01,-54.91 126.66,-47.28 123.51,-53.53"/>
</a>
</g>
</g>
<!-- Node27&#45;&gt;Node6 -->
<g id="edge34_Node000027_Node000006" class="edge">
<title>Node27&#45;&gt;Node6</title>
<g id="a_edge34_Node000027_Node000006"><a xlink:title=" ">
<path fill="none" stroke="#63b8ff" d="M654.84,-50.61C674.63,-41.07 700.05,-28.81 717.34,-20.48"/>
<polygon fill="#63b8ff" stroke="#63b8ff" points="653.36,-47.44 645.87,-54.94 656.4,-53.75 653.36,-47.44"/>
</a>
</g>
</g>
<!-- Node28 -->
<g id="Node000028" class="node">
<title>Node28</title>
<g id="a_Node000028"><a xlink:href="PCF8523Sensor_8cpp.html" target="_top" xlink:title=" ">
<polygon fill="white" stroke="#666666" points="575.38,-20 468.62,-20 468.62,0 575.38,0 575.38,-20"/>
<text text-anchor="middle" x="522" y="-6.5" font-family="Helvetica,sans-Serif" font-size="10.00">PCF8523Sensor.cpp</text>
</a>
</g>
</g>
<!-- Node27&#45;&gt;Node28 -->
<g id="edge33_Node000027_Node000028" class="edge">
<title>Node27&#45;&gt;Node28</title>
<g id="a_edge33_Node000027_Node000028"><a xlink:title=" ">
<path fill="none" stroke="#63b8ff" d="M597.05,-50.35C578.92,-40.84 555.83,-28.74 540.08,-20.48"/>
<polygon fill="#63b8ff" stroke="#63b8ff" points="595.24,-53.35 605.72,-54.89 598.49,-47.15 595.24,-53.35"/>
</a>
</g>
</g>
<!-- Node29&#45;&gt;Node6 -->
<g id="edge37_Node000029_Node000006" class="edge">
<title>Node29&#45;&gt;Node6</title>
<g id="a_edge37_Node000029_Node000006"><a xlink:title=" ">
<path fill="none" stroke="#63b8ff" d="M735.77,-44.13C736.08,-35.9 736.41,-26.85 736.66,-20.3"/>
<polygon fill="#63b8ff" stroke="#63b8ff" points="732.28,-43.96 735.4,-54.08 739.27,-44.22 732.28,-43.96"/>
</a>
</g>
</g>
<!-- Node30 -->
<g id="Node000030" class="node">
<title>Node30</title>
<g id="a_Node000030"><a xlink:href="SCD40Sensor_8cpp.html" target="_top" xlink:title=" ">
<polygon fill="white" stroke="#666666" points="690.88,-20 593.12,-20 593.12,0 690.88,0 690.88,-20"/>
<text text-anchor="middle" x="642" y="-6.5" font-family="Helvetica,sans-Serif" font-size="10.00">SCD40Sensor.cpp</text>
</a>
</g>
</g>
<!-- Node29&#45;&gt;Node30 -->
<g id="edge36_Node000029_Node000030" class="edge">
<title>Node29&#45;&gt;Node30</title>
<g id="a_edge36_Node000029_Node000030"><a xlink:title=" ">
<path fill="none" stroke="#63b8ff" d="M709.3,-50.08C693.01,-40.62 672.41,-28.66 658.33,-20.48"/>
<polygon fill="#63b8ff" stroke="#63b8ff" points="707.09,-52.84 717.49,-54.83 710.6,-46.79 707.09,-52.84"/>
</a>
</g>
</g>
<!-- Node32 -->
<g id="Node000032" class="node">
<title>Node32</title>
<g id="a_Node000032"><a xlink:href="SGP30Sensor_8cpp.html" target="_top" xlink:title=" ">
<polygon fill="white" stroke="#666666" points="2088.5,-20 1991.5,-20 1991.5,0 2088.5,0 2088.5,-20"/>
<text text-anchor="middle" x="2040" y="-6.5" font-family="Helvetica,sans-Serif" font-size="10.00">SGP30Sensor.cpp</text>
</a>
</g>
</g>
<!-- Node31&#45;&gt;Node32 -->
<g id="edge39_Node000031_Node000032" class="edge">
<title>Node31&#45;&gt;Node32</title>
<g id="a_edge39_Node000031_Node000032"><a xlink:title=" ">
<path fill="none" stroke="#63b8ff" d="M2033.81,-44.43C2035.35,-36.11 2037.05,-26.93 2038.28,-20.3"/>
<polygon fill="#63b8ff" stroke="#63b8ff" points="2030.4,-43.64 2032.02,-54.11 2037.28,-44.91 2030.4,-43.64"/>
</a>
</g>
</g>
<!-- Node33&#45;&gt;Node6 -->
<g id="edge43_Node000033_Node000006" class="edge">
<title>Node33&#45;&gt;Node6</title>
<g id="a_edge43_Node000033_Node000006"><a xlink:title=" ">
<path fill="none" stroke="#63b8ff" d="M313.7,-55.75C485.13,-34.07 532.34,-47.99 700,-20 702.87,-19.52 705.84,-18.94 708.81,-18.31"/>
<polygon fill="#63b8ff" stroke="#63b8ff" points="313.47,-52.25 304,-57 314.36,-59.19 313.47,-52.25"/>
</a>
</g>
</g>
<!-- Node33&#45;&gt;Node16 -->
<g id="edge41_Node000033_Node000016" class="edge">
<title>Node33&#45;&gt;Node16</title>
<g id="a_edge41_Node000033_Node000016"><a xlink:title=" ">
<path fill="none" stroke="#63b8ff" d="M293.17,-51.53C318.4,-41.87 351.78,-29.08 374.25,-20.48"/>
<polygon fill="#63b8ff" stroke="#63b8ff" points="292.06,-48.21 283.97,-55.05 294.56,-54.74 292.06,-48.21"/>
</a>
</g>
</g>
<!-- Node34 -->
<g id="Node000034" class="node">
<title>Node34</title>
<g id="a_Node000034"><a xlink:href="SHTC3Sensor_8cpp.html" target="_top" xlink:title=" ">
<polygon fill="white" stroke="#666666" points="210.25,-20 111.75,-20 111.75,0 210.25,0 210.25,-20"/>
<text text-anchor="middle" x="161" y="-6.5" font-family="Helvetica,sans-Serif" font-size="10.00">SHTC3Sensor.cpp</text>
</a>
</g>
</g>
<!-- Node33&#45;&gt;Node34 -->
<g id="edge42_Node000033_Node000034" class="edge">
<title>Node33&#45;&gt;Node34</title>
<g id="a_edge42_Node000033_Node000034"><a xlink:title=" ">
<path fill="none" stroke="#63b8ff" d="M231.2,-50.08C214.2,-40.62 192.72,-28.66 178.03,-20.48"/>
<polygon fill="#63b8ff" stroke="#63b8ff" points="229.34,-53.05 239.78,-54.86 232.75,-46.94 229.34,-53.05"/>
</a>
</g>
</g>
<!-- Node35&#45;&gt;Node6 -->
<g id="edge47_Node000035_Node000006" class="edge">
<title>Node35&#45;&gt;Node6</title>
<g id="a_edge47_Node000035_Node000006"><a xlink:title=" ">
<path fill="none" stroke="#63b8ff" d="M423.3,-55.57C546.11,-37.96 580.25,-42.19 700,-20 702.86,-19.47 705.83,-18.86 708.79,-18.2"/>
<polygon fill="#63b8ff" stroke="#63b8ff" points="422.83,-52.1 413.44,-57.01 423.84,-59.03 422.83,-52.1"/>
</a>
</g>
</g>
<!-- Node35&#45;&gt;Node16 -->
<g id="edge45_Node000035_Node000016" class="edge">
<title>Node35&#45;&gt;Node16</title>
<g id="a_edge45_Node000035_Node000016"><a xlink:title=" ">
<path fill="none" stroke="#63b8ff" d="M377.69,-45.87C383,-37.19 389.03,-27.32 393.32,-20.3"/>
<polygon fill="#63b8ff" stroke="#63b8ff" points="374.77,-43.94 372.54,-54.3 380.74,-47.59 374.77,-43.94"/>
</a>
</g>
</g>
<!-- Node36 -->
<g id="Node000036" class="node">
<title>Node36</title>
<g id="a_Node000036"><a xlink:href="TMP117Sensor_8cpp.html" target="_top" xlink:title=" ">
<polygon fill="white" stroke="#666666" points="329.75,-20 228.25,-20 228.25,0 329.75,0 329.75,-20"/>
<text text-anchor="middle" x="279" y="-6.5" font-family="Helvetica,sans-Serif" font-size="10.00">TMP117Sensor.cpp</text>
</a>
</g>
</g>
<!-- Node35&#45;&gt;Node36 -->
<g id="edge46_Node000035_Node000036" class="edge">
<title>Node35&#45;&gt;Node36</title>
<g id="a_edge46_Node000035_Node000036"><a xlink:title=" ">
<path fill="none" stroke="#63b8ff" d="M341.1,-49.54C325.99,-40.17 307.2,-28.51 294.27,-20.48"/>
<polygon fill="#63b8ff" stroke="#63b8ff" points="339.22,-52.5 349.56,-54.8 342.91,-46.55 339.22,-52.5"/>
</a>
</g>
</g>
<!-- Node37&#45;&gt;Node6 -->
<g id="edge50_Node000037_Node000006" class="edge">
<title>Node37&#45;&gt;Node6</title>
<g id="a_edge50_Node000037_Node000006"><a xlink:title=" ">
<path fill="none" stroke="#63b8ff" d="M840.25,-51.4C815.59,-41.75 783.12,-29.05 761.23,-20.48"/>
<polygon fill="#63b8ff" stroke="#63b8ff" points="838.96,-54.66 849.55,-55.04 841.52,-48.14 838.96,-54.66"/>
</a>
</g>
</g>
<!-- Node38 -->
<g id="Node000038" class="node">
<title>Node38</title>
<g id="a_Node000038"><a xlink:href="TempSensor_8cpp.html" target="_top" xlink:title=" ">
<polygon fill="white" stroke="#666666" points="872.75,-20 783.25,-20 783.25,0 872.75,0 872.75,-20"/>
<text text-anchor="middle" x="828" y="-6.5" font-family="Helvetica,sans-Serif" font-size="10.00">TempSensor.cpp</text>
</a>
</g>
</g>
<!-- Node37&#45;&gt;Node38 -->
<g id="edge49_Node000037_Node000038" class="edge">
<title>Node37&#45;&gt;Node38</title>
<g id="a_edge49_Node000037_Node000038"><a xlink:title=" ">
<path fill="none" stroke="#63b8ff" d="M859.34,-47C851.55,-38.06 842.47,-27.62 836.09,-20.3"/>
<polygon fill="#63b8ff" stroke="#63b8ff" points="856.61,-49.21 865.82,-54.45 861.89,-44.61 856.61,-49.21"/>
</a>
</g>
</g>
<!-- Node40 -->
<g id="Node000040" class="node">
<title>Node40</title>
<g id="a_Node000040"><a xlink:href="FlashStorage_8h.html" target="_top" xlink:title=" ">
<polygon fill="white" stroke="#666666" points="2284,-76 2202,-76 2202,-56 2284,-56 2284,-76"/>
<text text-anchor="middle" x="2243" y="-62.5" font-family="Helvetica,sans-Serif" font-size="10.00">FlashStorage.h</text>
</a>
</g>
</g>
<!-- Node39&#45;&gt;Node40 -->
<g id="edge53_Node000039_Node000040" class="edge">
<title>Node39&#45;&gt;Node40</title>
<g id="a_edge53_Node000039_Node000040"><a xlink:title=" ">
<path fill="none" stroke="#63b8ff" d="M2211,-103C2218.95,-94.06 2228.22,-83.62 2234.73,-76.3"/>
<polygon fill="#63b8ff" stroke="#63b8ff" points="2208.39,-100.66 2204.37,-110.46 2213.63,-105.31 2208.39,-100.66"/>
</a>
</g>
</g>
<!-- Node39&#45;&gt;Node42 -->
<g id="edge62_Node000039_Node000042" class="edge">
<title>Node39&#45;&gt;Node42</title>
<g id="a_edge62_Node000039_Node000042"><a xlink:title=" ">
<path fill="none" stroke="#63b8ff" d="M2234.4,-107.42C2253.2,-99.86 2275.37,-89.27 2293,-76 2314.66,-59.7 2333.83,-33.72 2343.1,-20.07"/>
<polygon fill="#63b8ff" stroke="#63b8ff" points="2233.27,-104.11 2225.2,-110.98 2235.79,-110.64 2233.27,-104.11"/>
</a>
</g>
</g>
<!-- Node43 -->
<g id="Node000043" class="node">
<title>Node43</title>
<g id="a_Node000043"><a xlink:href="RadioStorage_8h.html" target="_top" xlink:title=" ">
<polygon fill="white" stroke="#666666" points="2461.75,-76 2378.25,-76 2378.25,-56 2461.75,-56 2461.75,-76"/>
<text text-anchor="middle" x="2420" y="-62.5" font-family="Helvetica,sans-Serif" font-size="10.00">RadioStorage.h</text>
</a>
</g>
</g>
<!-- Node39&#45;&gt;Node43 -->
<g id="edge56_Node000039_Node000043" class="edge">
<title>Node39&#45;&gt;Node43</title>
<g id="a_edge56_Node000039_Node000043"><a xlink:title=" ">
<path fill="none" stroke="#63b8ff" d="M2235.4,-111.3C2276.57,-101.42 2339.99,-86.2 2380.74,-76.42"/>
<polygon fill="#63b8ff" stroke="#63b8ff" points="2234.79,-107.85 2225.89,-113.59 2236.43,-114.66 2234.79,-107.85"/>
</a>
</g>
</g>
<!-- Node45 -->
<g id="Node000045" class="node">
<title>Node45</title>
<g id="a_Node000045"><a xlink:href="SDStorage_8h.html" target="_top" xlink:title=" ">
<polygon fill="white" stroke="#666666" points="2184.12,-76 2111.88,-76 2111.88,-56 2184.12,-56 2184.12,-76"/>
<text text-anchor="middle" x="2148" y="-62.5" font-family="Helvetica,sans-Serif" font-size="10.00">SDStorage.h</text>
</a>
</g>
</g>
<!-- Node39&#45;&gt;Node45 -->
<g id="edge59_Node000039_Node000045" class="edge">
<title>Node39&#45;&gt;Node45</title>
<g id="a_edge59_Node000039_Node000045"><a xlink:title=" ">
<path fill="none" stroke="#63b8ff" d="M2179.34,-103C2171.55,-94.06 2162.47,-83.62 2156.09,-76.3"/>
<polygon fill="#63b8ff" stroke="#63b8ff" points="2176.61,-105.21 2185.82,-110.45 2181.89,-100.61 2176.61,-105.21"/>
</a>
</g>
</g>
<!-- Node41 -->
<g id="Node000041" class="node">
<title>Node41</title>
<g id="a_Node000041"><a xlink:href="FlashStorage_8cpp.html" target="_top" xlink:title=" ">
<polygon fill="white" stroke="#666666" points="2300.25,-20 2207.75,-20 2207.75,0 2300.25,0 2300.25,-20"/>
<text text-anchor="middle" x="2254" y="-6.5" font-family="Helvetica,sans-Serif" font-size="10.00">FlashStorage.cpp</text>
</a>
</g>
</g>
<!-- Node40&#45;&gt;Node41 -->
<g id="edge54_Node000040_Node000041" class="edge">
<title>Node40&#45;&gt;Node41</title>
<g id="a_edge54_Node000040_Node000041"><a xlink:title=" ">
<path fill="none" stroke="#63b8ff" d="M2247.19,-44.43C2248.89,-36.11 2250.75,-26.93 2252.11,-20.3"/>
<polygon fill="#63b8ff" stroke="#63b8ff" points="2243.78,-43.61 2245.22,-54.11 2250.64,-45.01 2243.78,-43.61"/>
</a>
</g>
</g>
<!-- Node40&#45;&gt;Node42 -->
<g id="edge55_Node000040_Node000042" class="edge">
<title>Node40&#45;&gt;Node42</title>
<g id="a_edge55_Node000040_Node000042"><a xlink:title=" ">
<path fill="none" stroke="#63b8ff" d="M2271.5,-50.48C2290.2,-40.96 2314.11,-28.78 2330.39,-20.48"/>
<polygon fill="#63b8ff" stroke="#63b8ff" points="2270.13,-47.25 2262.81,-54.91 2273.31,-53.49 2270.13,-47.25"/>
</a>
</g>
</g>
<!-- Node43&#45;&gt;Node42 -->
<g id="edge58_Node000043_Node000042" class="edge">
<title>Node43&#45;&gt;Node42</title>
<g id="a_edge58_Node000043_Node000042"><a xlink:title=" ">
<path fill="none" stroke="#63b8ff" d="M2398.54,-48.68C2386.33,-39.39 2371.47,-28.09 2361.23,-20.3"/>
<polygon fill="#63b8ff" stroke="#63b8ff" points="2396.35,-51.41 2406.43,-54.68 2400.59,-45.84 2396.35,-51.41"/>
</a>
</g>
</g>
<!-- Node44 -->
<g id="Node000044" class="node">
<title>Node44</title>
<g id="a_Node000044"><a xlink:href="RadioStorage_8cpp.html" target="_top" xlink:title=" ">
<polygon fill="white" stroke="#666666" points="2492,-20 2398,-20 2398,0 2492,0 2492,-20"/>
<text text-anchor="middle" x="2445" y="-6.5" font-family="Helvetica,sans-Serif" font-size="10.00">RadioStorage.cpp</text>
</a>
</g>
</g>
<!-- Node43&#45;&gt;Node44 -->
<g id="edge57_Node000043_Node000044" class="edge">
<title>Node43&#45;&gt;Node44</title>
<g id="a_edge57_Node000043_Node000044"><a xlink:title=" ">
<path fill="none" stroke="#63b8ff" d="M2429.12,-45.29C2433.08,-36.75 2437.52,-27.16 2440.7,-20.3"/>
<polygon fill="#63b8ff" stroke="#63b8ff" points="2426.02,-43.68 2424.99,-54.22 2432.37,-46.62 2426.02,-43.68"/>
</a>
</g>
</g>
<!-- Node45&#45;&gt;Node42 -->
<g id="edge61_Node000045_Node000042" class="edge">
<title>Node45&#45;&gt;Node42</title>
<g id="a_edge61_Node000045_Node000042"><a xlink:title=" ">
<path fill="none" stroke="#63b8ff" d="M2193.79,-52.7C2231.8,-42.49 2284.82,-28.24 2318.01,-19.32"/>
<polygon fill="#63b8ff" stroke="#63b8ff" points="2193.22,-49.23 2184.47,-55.2 2195.04,-55.99 2193.22,-49.23"/>
</a>
</g>
</g>
<!-- Node46 -->
<g id="Node000046" class="node">
<title>Node46</title>
<g id="a_Node000046"><a xlink:href="SDStorage_8cpp.html" target="_top" xlink:title=" ">
<polygon fill="white" stroke="#666666" points="2189.38,-20 2106.62,-20 2106.62,0 2189.38,0 2189.38,-20"/>
<text text-anchor="middle" x="2148" y="-6.5" font-family="Helvetica,sans-Serif" font-size="10.00">SDStorage.cpp</text>
</a>
</g>
</g>
<!-- Node45&#45;&gt;Node46 -->
<g id="edge60_Node000045_Node000046" class="edge">
<title>Node45&#45;&gt;Node46</title>
<g id="a_edge60_Node000045_Node000046"><a xlink:title=" ">
<path fill="none" stroke="#63b8ff" d="M2148,-44.13C2148,-35.9 2148,-26.85 2148,-20.3"/>
<polygon fill="#63b8ff" stroke="#63b8ff" points="2144.5,-44.08 2148,-54.08 2151.5,-44.08 2144.5,-44.08"/>
</a>
</g>
</g>
</g>
</svg>
