<?xml version="1.0" encoding="UTF-8" standalone="no"?>
<!DOCTYPE svg PUBLIC "-//W3C//DTD SVG 1.1//EN"
 "http://www.w3.org/Graphics/SVG/1.1/DTD/svg11.dtd">
<!-- Generated by graphviz version 12.1.2 (20240928.0832)
 -->
<!-- Title: LSM9DS1Sensor.cpp Pages: 1 -->
<svg width="519pt" height="308pt"
 viewBox="0.00 0.00 518.88 308.00" xmlns="http://www.w3.org/2000/svg" xmlns:xlink="http://www.w3.org/1999/xlink">
<g id="graph0" class="graph" transform="scale(1 1) rotate(0) translate(4 304)">
<title>LSM9DS1Sensor.cpp</title>
<!-- Node1 -->
<g id="Node000001" class="node">
<title>Node1</title>
<g id="a_Node000001"><a xlink:title=" ">
<polygon fill="#999999" stroke="#666666" points="317.38,-300 206.88,-300 206.88,-280 317.38,-280 317.38,-300"/>
<text text-anchor="middle" x="262.12" y="-286.5" font-family="Helvetica,sans-Serif" font-size="10.00">LSM9DS1Sensor.cpp</text>
</a>
</g>
</g>
<!-- Node2 -->
<g id="Node000002" class="node">
<title>Node2</title>
<g id="a_Node000002"><a xlink:href="LSM9DS1Sensor_8h.html" target="_top" xlink:title=" ">
<polygon fill="white" stroke="#666666" points="312.12,-244 212.12,-244 212.12,-224 312.12,-224 312.12,-244"/>
<text text-anchor="middle" x="262.12" y="-230.5" font-family="Helvetica,sans-Serif" font-size="10.00">LSM9DS1Sensor.h</text>
</a>
</g>
</g>
<!-- Node1&#45;&gt;Node2 -->
<g id="edge1_Node000001_Node000002" class="edge">
<title>Node1&#45;&gt;Node2</title>
<g id="a_edge1_Node000001_Node000002"><a xlink:title=" ">
<path fill="none" stroke="#63b8ff" d="M262.12,-279.59C262.12,-273.01 262.12,-263.96 262.12,-255.73"/>
<polygon fill="#63b8ff" stroke="#63b8ff" points="265.63,-255.81 262.13,-245.81 258.63,-255.81 265.63,-255.81"/>
</a>
</g>
</g>
<!-- Node3 -->
<g id="Node000003" class="node">
<title>Node3</title>
<g id="a_Node000003"><a xlink:title=" ">
<polygon fill="#e0e0e0" stroke="#999999" points="108.25,-188 0,-188 0,-168 108.25,-168 108.25,-188"/>
<text text-anchor="middle" x="54.12" y="-174.5" font-family="Helvetica,sans-Serif" font-size="10.00">Adafruit_LSM9DS1.h</text>
</a>
</g>
</g>
<!-- Node2&#45;&gt;Node3 -->
<g id="edge2_Node000002_Node000003" class="edge">
<title>Node2&#45;&gt;Node3</title>
<g id="a_edge2_Node000002_Node000003"><a xlink:title=" ">
<path fill="none" stroke="#63b8ff" d="M225.89,-223.59C191.36,-214.63 139.16,-201.08 101.38,-191.27"/>
<polygon fill="#63b8ff" stroke="#63b8ff" points="102.66,-187.99 92.1,-188.86 100.9,-194.76 102.66,-187.99"/>
</a>
</g>
</g>
<!-- Node4 -->
<g id="Node000004" class="node">
<title>Node4</title>
<g id="a_Node000004"><a xlink:title=" ">
<polygon fill="#e0e0e0" stroke="#999999" points="220.12,-188 126.12,-188 126.12,-168 220.12,-168 220.12,-188"/>
<text text-anchor="middle" x="173.12" y="-174.5" font-family="Helvetica,sans-Serif" font-size="10.00">Adafruit_Sensor.h</text>
</a>
</g>
</g>
<!-- Node2&#45;&gt;Node4 -->
<g id="edge3_Node000002_Node000004" class="edge">
<title>Node2&#45;&gt;Node4</title>
<g id="a_edge3_Node000002_Node000004"><a xlink:title=" ">
<path fill="none" stroke="#63b8ff" d="M246.62,-223.59C233.3,-215.51 213.85,-203.71 198.3,-194.27"/>
<polygon fill="#63b8ff" stroke="#63b8ff" points="200.41,-191.46 190.04,-189.26 196.78,-197.44 200.41,-191.46"/>
</a>
</g>
</g>
<!-- Node5 -->
<g id="Node000005" class="node">
<title>Node5</title>
<g id="a_Node000005"><a xlink:title=" ">
<polygon fill="#e0e0e0" stroke="#999999" points="286.25,-188 238,-188 238,-168 286.25,-168 286.25,-188"/>
<text text-anchor="middle" x="262.12" y="-174.5" font-family="Helvetica,sans-Serif" font-size="10.00">string.h</text>
</a>
</g>
</g>
<!-- Node2&#45;&gt;Node5 -->
<g id="edge4_Node000002_Node000005" class="edge">
<title>Node2&#45;&gt;Node5</title>
<g id="a_edge4_Node000002_Node000005"><a xlink:title=" ">
<path fill="none" stroke="#63b8ff" d="M262.12,-223.59C262.12,-217.01 262.12,-207.96 262.12,-199.73"/>
<polygon fill="#63b8ff" stroke="#63b8ff" points="265.63,-199.81 262.13,-189.81 258.63,-199.81 265.63,-199.81"/>
</a>
</g>
</g>
<!-- Node6 -->
<g id="Node000006" class="node">
<title>Node6</title>
<g id="a_Node000006"><a xlink:href="PayloadConfig_8h.html" target="_top" xlink:title="Central location for pinout and config defines.">
<polygon fill="white" stroke="#666666" points="392.12,-188 304.12,-188 304.12,-168 392.12,-168 392.12,-188"/>
<text text-anchor="middle" x="348.12" y="-174.5" font-family="Helvetica,sans-Serif" font-size="10.00">PayloadConfig.h</text>
</a>
</g>
</g>
<!-- Node2&#45;&gt;Node6 -->
<g id="edge5_Node000002_Node000006" class="edge">
<title>Node2&#45;&gt;Node6</title>
<g id="a_edge5_Node000002_Node000006"><a xlink:title=" ">
<path fill="none" stroke="#63b8ff" d="M277.11,-223.59C289.85,-215.59 308.42,-203.93 323.37,-194.54"/>
<polygon fill="#63b8ff" stroke="#63b8ff" points="325.14,-197.57 331.75,-189.28 321.42,-191.64 325.14,-197.57"/>
</a>
</g>
</g>
<!-- Node7 -->
<g id="Node000007" class="node">
<title>Node7</title>
<g id="a_Node000007"><a xlink:href="Sensor_8h.html" target="_top" xlink:title=" ">
<polygon fill="white" stroke="#666666" points="465.62,-188 410.62,-188 410.62,-168 465.62,-168 465.62,-188"/>
<text text-anchor="middle" x="438.12" y="-174.5" font-family="Helvetica,sans-Serif" font-size="10.00">Sensor.h</text>
</a>
</g>
</g>
<!-- Node2&#45;&gt;Node7 -->
<g id="edge6_Node000002_Node000007" class="edge">
<title>Node2&#45;&gt;Node7</title>
<g id="a_edge6_Node000002_Node000007"><a xlink:title=" ">
<path fill="none" stroke="#63b8ff" d="M292.78,-223.59C322.38,-214.51 367.32,-200.73 399.38,-190.89"/>
<polygon fill="#63b8ff" stroke="#63b8ff" points="400.16,-194.31 408.69,-188.03 398.11,-187.62 400.16,-194.31"/>
</a>
</g>
</g>
<!-- Node8 -->
<g id="Node000008" class="node">
<title>Node8</title>
<g id="a_Node000008"><a xlink:title=" ">
<polygon fill="#e0e0e0" stroke="#999999" points="457.75,-20 400.5,-20 400.5,0 457.75,0 457.75,-20"/>
<text text-anchor="middle" x="429.12" y="-6.5" font-family="Helvetica,sans-Serif" font-size="10.00">Arduino.h</text>
</a>
</g>
</g>
<!-- Node7&#45;&gt;Node8 -->
<g id="edge7_Node000007_Node000008" class="edge">
<title>Node7&#45;&gt;Node8</title>
<g id="a_edge7_Node000007_Node000008"><a xlink:title=" ">
<path fill="none" stroke="#63b8ff" d="M427.27,-167.53C418.6,-159.18 407.09,-146.16 402.12,-132 389.89,-97.11 406.23,-54.56 418.31,-30.34"/>
<polygon fill="#63b8ff" stroke="#63b8ff" points="421.32,-32.13 422.89,-21.65 415.13,-28.86 421.32,-32.13"/>
</a>
</g>
</g>
<!-- Node9 -->
<g id="Node000009" class="node">
<title>Node9</title>
<g id="a_Node000009"><a xlink:href="Device_8h.html" target="_top" xlink:title=" ">
<polygon fill="white" stroke="#666666" points="465.62,-132 410.62,-132 410.62,-112 465.62,-112 465.62,-132"/>
<text text-anchor="middle" x="438.12" y="-118.5" font-family="Helvetica,sans-Serif" font-size="10.00">Device.h</text>
</a>
</g>
</g>
<!-- Node7&#45;&gt;Node9 -->
<g id="edge8_Node000007_Node000009" class="edge">
<title>Node7&#45;&gt;Node9</title>
<g id="a_edge8_Node000007_Node000009"><a xlink:title=" ">
<path fill="none" stroke="#63b8ff" d="M438.12,-167.59C438.12,-161.01 438.12,-151.96 438.12,-143.73"/>
<polygon fill="#63b8ff" stroke="#63b8ff" points="441.63,-143.81 438.13,-133.81 434.63,-143.81 441.63,-143.81"/>
</a>
</g>
</g>
<!-- Node10 -->
<g id="Node000010" class="node">
<title>Node10</title>
<g id="a_Node000010"><a xlink:href="Logger_8h.html" target="_top" xlink:title=" ">
<polygon fill="white" stroke="#666666" points="510.88,-76 457.38,-76 457.38,-56 510.88,-56 510.88,-76"/>
<text text-anchor="middle" x="484.12" y="-62.5" font-family="Helvetica,sans-Serif" font-size="10.00">Logger.h</text>
</a>
</g>
</g>
<!-- Node7&#45;&gt;Node10 -->
<g id="edge12_Node000007_Node000010" class="edge">
<title>Node7&#45;&gt;Node10</title>
<g id="a_edge12_Node000007_Node000010"><a xlink:title=" ">
<path fill="none" stroke="#63b8ff" d="M448.43,-167.73C457.07,-159.31 468.96,-146.08 475.12,-132 481.29,-117.92 483.46,-100.64 484.13,-87.43"/>
<polygon fill="#63b8ff" stroke="#63b8ff" points="487.62,-87.85 484.36,-77.77 480.62,-87.68 487.62,-87.85"/>
</a>
</g>
</g>
<!-- Node9&#45;&gt;Node8 -->
<g id="edge9_Node000009_Node000008" class="edge">
<title>Node9&#45;&gt;Node8</title>
<g id="a_edge9_Node000009_Node000008"><a xlink:title=" ">
<path fill="none" stroke="#63b8ff" d="M437.36,-111.62C435.92,-94.01 432.77,-55.59 430.81,-31.65"/>
<polygon fill="#63b8ff" stroke="#63b8ff" points="434.32,-31.54 430.01,-21.86 427.34,-32.12 434.32,-31.54"/>
</a>
</g>
</g>
<!-- Node9&#45;&gt;Node10 -->
<g id="edge10_Node000009_Node000010" class="edge">
<title>Node9&#45;&gt;Node10</title>
<g id="a_edge10_Node000009_Node000010"><a xlink:title=" ">
<path fill="none" stroke="#63b8ff" d="M446.14,-111.59C452.4,-104.24 461.3,-93.8 468.91,-84.87"/>
<polygon fill="#63b8ff" stroke="#63b8ff" points="471.4,-87.33 475.22,-77.45 466.07,-82.79 471.4,-87.33"/>
</a>
</g>
</g>
<!-- Node10&#45;&gt;Node8 -->
<g id="edge11_Node000010_Node000008" class="edge">
<title>Node10&#45;&gt;Node8</title>
<g id="a_edge11_Node000010_Node000008"><a xlink:title=" ">
<path fill="none" stroke="#63b8ff" d="M474.54,-55.59C466.89,-48.08 455.97,-37.35 446.75,-28.3"/>
<polygon fill="#63b8ff" stroke="#63b8ff" points="449.26,-25.87 439.68,-21.36 444.36,-30.86 449.26,-25.87"/>
</a>
</g>
</g>
</g>
</svg>
