<?xml version="1.0" encoding="UTF-8" standalone="no"?>
<!DOCTYPE svg PUBLIC "-//W3C//DTD SVG 1.1//EN"
 "http://www.w3.org/Graphics/SVG/1.1/DTD/svg11.dtd">
<!-- Generated by graphviz version 12.1.2 (20240928.0832)
 -->
<!-- Title: loop Pages: 1 -->
<svg width="509pt" height="275pt"
 viewBox="0.00 0.00 508.50 275.00" xmlns="http://www.w3.org/2000/svg" xmlns:xlink="http://www.w3.org/1999/xlink">
<g id="graph0" class="graph" transform="scale(1 1) rotate(0) translate(4 271)">
<title>loop</title>
<!-- Node1 -->
<g id="Node000001" class="node">
<title>Node1</title>
<g id="a_Node000001"><a xlink:title="Loop for core 0, handling sensor reads.">
<polygon fill="#999999" stroke="#666666" points="34,-134 0,-134 0,-114 34,-114 34,-134"/>
<text text-anchor="middle" x="17" y="-120.5" font-family="Helvetica,sans-Serif" font-size="10.00">loop</text>
</a>
</g>
</g>
<!-- Node2 -->
<g id="Node000002" class="node">
<title>Node2</title>
<g id="a_Node000002"><a xlink:href="main_8cpp.html#a9163644b089001958496a71b73b9091a" target="_top" xlink:title="Decodes the packet to a CSV row.">
<polygon fill="white" stroke="#666666" points="167.75,-248 89.5,-248 89.5,-228 167.75,-228 167.75,-248"/>
<text text-anchor="middle" x="128.62" y="-234.5" font-family="Helvetica,sans-Serif" font-size="10.00">decodePacket</text>
</a>
</g>
</g>
<!-- Node1&#45;&gt;Node2 -->
<g id="edge1_Node000001_Node000002" class="edge">
<title>Node1&#45;&gt;Node2</title>
<g id="a_edge1_Node000001_Node000002"><a xlink:title=" ">
<path fill="none" stroke="#63b8ff" d="M21.45,-134.35C28.07,-152.76 44.24,-191.37 70,-214 73.62,-217.18 77.72,-219.98 82.02,-222.43"/>
<polygon fill="#63b8ff" stroke="#63b8ff" points="80.43,-225.55 90.95,-226.87 83.55,-219.28 80.43,-225.55"/>
</a>
</g>
</g>
<!-- Node6 -->
<g id="Node000006" class="node">
<title>Node6</title>
<g id="a_Node000006"><a xlink:href="CommandMessage_8cpp.html#a614e558f381a8d26db49eed9b12fd14f" target="_top" xlink:title=" ">
<polygon fill="white" stroke="#666666" points="318,-191 246.5,-191 246.5,-171 318,-171 318,-191"/>
<text text-anchor="middle" x="282.25" y="-177.5" font-family="Helvetica,sans-Serif" font-size="10.00">getCmdData</text>
</a>
</g>
</g>
<!-- Node1&#45;&gt;Node6 -->
<g id="edge5_Node000001_Node000006" class="edge">
<title>Node1&#45;&gt;Node6</title>
<g id="a_edge5_Node000001_Node000006"><a xlink:title=" ">
<path fill="none" stroke="#63b8ff" d="M23.74,-134.43C31.94,-148.11 48.43,-171.48 70,-181 122.82,-204.31 190.57,-198.95 234.91,-191.37"/>
<polygon fill="#63b8ff" stroke="#63b8ff" points="235.51,-194.82 244.72,-189.57 234.25,-187.93 235.51,-194.82"/>
</a>
</g>
</g>
<!-- Node7 -->
<g id="Node000007" class="node">
<title>Node7</title>
<g id="a_Node000007"><a xlink:href="main_8cpp.html#a76a2f3ef1d3b3d36284ea02246512daa" target="_top" xlink:title="Handle commands read from serial input.">
<polygon fill="white" stroke="#666666" points="173.38,-172 83.88,-172 83.88,-152 173.38,-152 173.38,-172"/>
<text text-anchor="middle" x="128.62" y="-158.5" font-family="Helvetica,sans-Serif" font-size="10.00">handleCommand</text>
</a>
</g>
</g>
<!-- Node1&#45;&gt;Node7 -->
<g id="edge6_Node000001_Node000007" class="edge">
<title>Node1&#45;&gt;Node7</title>
<g id="a_edge6_Node000001_Node000007"><a xlink:title=" ">
<path fill="none" stroke="#63b8ff" d="M34.18,-129.61C48.05,-134.42 68.65,-141.56 86.98,-147.91"/>
<polygon fill="#63b8ff" stroke="#63b8ff" points="85.7,-151.17 96.29,-151.14 87.99,-144.56 85.7,-151.17"/>
</a>
</g>
</g>
<!-- Node8 -->
<g id="Node000008" class="node">
<title>Node8</title>
<g id="a_Node000008"><a xlink:href="CommandMessage_8cpp.html#ad408818d8c69721c19d63006e8ef4d22" target="_top" xlink:title=" ">
<polygon fill="white" stroke="#666666" points="318,-153 246.5,-153 246.5,-133 318,-133 318,-153"/>
<text text-anchor="middle" x="282.25" y="-139.5" font-family="Helvetica,sans-Serif" font-size="10.00">setCmdData</text>
</a>
</g>
</g>
<!-- Node1&#45;&gt;Node8 -->
<g id="edge13_Node000001_Node000008" class="edge">
<title>Node1&#45;&gt;Node8</title>
<g id="a_edge13_Node000001_Node000008"><a xlink:title=" ">
<path fill="none" stroke="#63b8ff" d="M34.47,-125.19C73.93,-128.04 175.08,-135.34 234.92,-139.66"/>
<polygon fill="#63b8ff" stroke="#63b8ff" points="234.57,-143.14 244.8,-140.37 235.07,-136.16 234.57,-143.14"/>
</a>
</g>
</g>
<!-- Node9 -->
<g id="Node000009" class="node">
<title>Node9</title>
<g id="a_Node000009"><a xlink:href="classErrorDisplay.html#a4f9e7e64ffc64711653b539bf3d8d24f" target="_top" xlink:title="Accesses the only instance of ErrorDisplay (Singleton)">
<polygon fill="white" stroke="#666666" points="185,-96 72.25,-96 72.25,-76 185,-76 185,-96"/>
<text text-anchor="middle" x="128.62" y="-82.5" font-family="Helvetica,sans-Serif" font-size="10.00">ErrorDisplay::instance</text>
</a>
</g>
</g>
<!-- Node1&#45;&gt;Node9 -->
<g id="edge9_Node000001_Node000009" class="edge">
<title>Node1&#45;&gt;Node9</title>
<g id="a_edge9_Node000001_Node000009"><a xlink:title=" ">
<path fill="none" stroke="#63b8ff" d="M34.18,-118.39C48.05,-113.58 68.65,-106.44 86.98,-100.09"/>
<polygon fill="#63b8ff" stroke="#63b8ff" points="87.99,-103.44 96.29,-96.86 85.7,-96.83 87.99,-103.44"/>
</a>
</g>
</g>
<!-- Node10 -->
<g id="Node000010" class="node">
<title>Node10</title>
<g id="a_Node000010"><a xlink:href="main_8cpp.html#a35aec64ebd5600523486586642a4fe23" target="_top" xlink:title="Reads sensor data into a packet byte array.">
<polygon fill="white" stroke="#666666" points="187.25,-58 70,-58 70,-38 187.25,-38 187.25,-58"/>
<text text-anchor="middle" x="128.62" y="-44.5" font-family="Helvetica,sans-Serif" font-size="10.00">readSensorDataPacket</text>
</a>
</g>
</g>
<!-- Node1&#45;&gt;Node10 -->
<g id="edge10_Node000001_Node000010" class="edge">
<title>Node1&#45;&gt;Node10</title>
<g id="a_edge10_Node000001_Node000010"><a xlink:title=" ">
<path fill="none" stroke="#63b8ff" d="M24.88,-113.66C33.84,-100.95 50.66,-79.53 70,-67 72.12,-65.63 74.35,-64.34 76.64,-63.15"/>
<polygon fill="#63b8ff" stroke="#63b8ff" points="78,-66.38 85.66,-59.06 75.11,-60 78,-66.38"/>
</a>
</g>
</g>
<!-- Node13 -->
<g id="Node000013" class="node">
<title>Node13</title>
<g id="a_Node000013"><a xlink:href="classErrorDisplay.html#a493bde338b369414abffe90e0d49e93b" target="_top" xlink:title="Toggles the level of the error display.">
<polygon fill="white" stroke="#666666" points="179.75,-20 77.5,-20 77.5,0 179.75,0 179.75,-20"/>
<text text-anchor="middle" x="128.62" y="-6.5" font-family="Helvetica,sans-Serif" font-size="10.00">ErrorDisplay::toggle</text>
</a>
</g>
</g>
<!-- Node1&#45;&gt;Node13 -->
<g id="edge14_Node000001_Node000013" class="edge">
<title>Node1&#45;&gt;Node13</title>
<g id="a_edge14_Node000001_Node000013"><a xlink:title=" ">
<path fill="none" stroke="#63b8ff" d="M20.83,-113.79C26.72,-94.42 42.11,-52.22 70,-29 71.29,-27.93 72.64,-26.91 74.05,-25.95"/>
<polygon fill="#63b8ff" stroke="#63b8ff" points="75.57,-29.11 82.57,-21.17 72.14,-23.01 75.57,-29.11"/>
</a>
</g>
</g>
<!-- Node3 -->
<g id="Node000003" class="node">
<title>Node3</title>
<g id="a_Node000003"><a xlink:href="classSensor.html#ab344e7fbc9acdc5dcc7ae59d0a3fb5f6" target="_top" xlink:title="Used for onboard decoding of packets.">
<polygon fill="white" stroke="#666666" points="340.12,-267 224.38,-267 224.38,-247 340.12,-247 340.12,-267"/>
<text text-anchor="middle" x="282.25" y="-253.5" font-family="Helvetica,sans-Serif" font-size="10.00">Sensor::decodeToCSV</text>
</a>
</g>
</g>
<!-- Node2&#45;&gt;Node3 -->
<g id="edge2_Node000002_Node000003" class="edge">
<title>Node2&#45;&gt;Node3</title>
<g id="a_edge2_Node000002_Node000003"><a xlink:title=" ">
<path fill="none" stroke="#63b8ff" d="M167.89,-242.79C181.58,-244.51 197.46,-246.5 212.93,-248.44"/>
<polygon fill="#63b8ff" stroke="#63b8ff" points="212.22,-251.88 222.57,-249.65 213.09,-244.93 212.22,-251.88"/>
</a>
</g>
</g>
<!-- Node5 -->
<g id="Node000005" class="node">
<title>Node5</title>
<g id="a_Node000005"><a xlink:href="classSensor.html#a62d72a2f81422ac2d2fa8ae86ba08571" target="_top" xlink:title="Returns CSV line in the same format as readData() but with &quot;&#45;&quot; instead of data.">
<polygon fill="white" stroke="#666666" points="332.25,-229 232.25,-229 232.25,-209 332.25,-209 332.25,-229"/>
<text text-anchor="middle" x="282.25" y="-215.5" font-family="Helvetica,sans-Serif" font-size="10.00">Sensor::readEmpty</text>
</a>
</g>
</g>
<!-- Node2&#45;&gt;Node5 -->
<g id="edge4_Node000002_Node000005" class="edge">
<title>Node2&#45;&gt;Node5</title>
<g id="a_edge4_Node000002_Node000005"><a xlink:title=" ">
<path fill="none" stroke="#63b8ff" d="M167.89,-233.21C183.87,-231.2 202.82,-228.83 220.62,-226.6"/>
<polygon fill="#63b8ff" stroke="#63b8ff" points="220.82,-230.1 230.3,-225.38 219.95,-223.15 220.82,-230.1"/>
</a>
</g>
</g>
<!-- Node4 -->
<g id="Node000004" class="node">
<title>Node4</title>
<g id="a_Node000004"><a xlink:href="classDevice.html#abbc7184e7fb286208c3b30357cf53f88" target="_top" xlink:title=" ">
<polygon fill="white" stroke="#666666" points="500.5,-267 377.25,-267 377.25,-247 500.5,-247 500.5,-267"/>
<text text-anchor="middle" x="438.88" y="-253.5" font-family="Helvetica,sans-Serif" font-size="10.00">Device::getDeviceName</text>
</a>
</g>
</g>
<!-- Node3&#45;&gt;Node4 -->
<g id="edge3_Node000003_Node000004" class="edge">
<title>Node3&#45;&gt;Node4</title>
<g id="a_edge3_Node000003_Node000004"><a xlink:title=" ">
<path fill="none" stroke="#63b8ff" d="M340.39,-257C348.55,-257 357.03,-257 365.44,-257"/>
<polygon fill="#63b8ff" stroke="#63b8ff" points="365.31,-260.5 375.31,-257 365.31,-253.5 365.31,-260.5"/>
</a>
</g>
</g>
<!-- Node7&#45;&gt;Node6 -->
<g id="edge7_Node000007_Node000006" class="edge">
<title>Node7&#45;&gt;Node6</title>
<g id="a_edge7_Node000007_Node000006"><a xlink:title=" ">
<path fill="none" stroke="#63b8ff" d="M173.48,-167.5C192.69,-169.9 215.26,-172.73 234.76,-175.17"/>
<polygon fill="#63b8ff" stroke="#63b8ff" points="234.28,-178.64 244.64,-176.41 235.15,-171.7 234.28,-178.64"/>
</a>
</g>
</g>
<!-- Node7&#45;&gt;Node8 -->
<g id="edge8_Node000007_Node000008" class="edge">
<title>Node7&#45;&gt;Node8</title>
<g id="a_edge8_Node000007_Node000008"><a xlink:title=" ">
<path fill="none" stroke="#63b8ff" d="M173.48,-156.5C192.69,-154.1 215.26,-151.27 234.76,-148.83"/>
<polygon fill="#63b8ff" stroke="#63b8ff" points="235.15,-152.3 244.64,-147.59 234.28,-145.36 235.15,-152.3"/>
</a>
</g>
</g>
<!-- Node11 -->
<g id="Node000011" class="node">
<title>Node11</title>
<g id="a_Node000011"><a xlink:href="classSensor.html#a1d128dc295e634de6506da5cbb716b64" target="_top" xlink:title="Append the data from a sensor to the packet if the minium period is satisfied.">
<polygon fill="white" stroke="#666666" points="341.25,-58 223.25,-58 223.25,-38 341.25,-38 341.25,-58"/>
<text text-anchor="middle" x="282.25" y="-44.5" font-family="Helvetica,sans-Serif" font-size="10.00">Sensor::getDataPacket</text>
</a>
</g>
</g>
<!-- Node10&#45;&gt;Node11 -->
<g id="edge11_Node000010_Node000011" class="edge">
<title>Node10&#45;&gt;Node11</title>
<g id="a_edge11_Node000010_Node000011"><a xlink:title=" ">
<path fill="none" stroke="#63b8ff" d="M187.38,-48C195.29,-48 203.47,-48 211.56,-48"/>
<polygon fill="#63b8ff" stroke="#63b8ff" points="211.39,-51.5 221.39,-48 211.39,-44.5 211.39,-51.5"/>
</a>
</g>
</g>
<!-- Node12 -->
<g id="Node000012" class="node">
<title>Node12</title>
<g id="a_Node000012"><a xlink:href="classSensor.html#ae835436cbb1fd60580e72a4ee7014c48" target="_top" xlink:title="Used for creating packets, reads data from the sensor and appends it to the passed uint8_t array poin...">
<polygon fill="white" stroke="#666666" points="500.5,-58 377.25,-58 377.25,-38 500.5,-38 500.5,-58"/>
<text text-anchor="middle" x="438.88" y="-44.5" font-family="Helvetica,sans-Serif" font-size="10.00">Sensor::readDataPacket</text>
</a>
</g>
</g>
<!-- Node11&#45;&gt;Node12 -->
<g id="edge12_Node000011_Node000012" class="edge">
<title>Node11&#45;&gt;Node12</title>
<g id="a_edge12_Node000011_Node000012"><a xlink:title=" ">
<path fill="none" stroke="#63b8ff" d="M341.71,-48C349.41,-48 357.37,-48 365.27,-48"/>
<polygon fill="#63b8ff" stroke="#63b8ff" points="365.25,-51.5 375.25,-48 365.25,-44.5 365.25,-51.5"/>
</a>
</g>
</g>
</g>
</svg>
