<?xml version="1.0" encoding="UTF-8" standalone="no"?>
<!DOCTYPE svg PUBLIC "-//W3C//DTD SVG 1.1//EN"
 "http://www.w3.org/Graphics/SVG/1.1/DTD/svg11.dtd">
<!-- Generated by graphviz version 2.43.0 (0)
 -->
<!-- Title: main.cpp Pages: 1 -->
<!--zoomable 313 -->

<svg id="main" version="1.1" xmlns="http://www.w3.org/2000/svg" xmlns:xlink="http://www.w3.org/1999/xlink" xml:space="preserve" onload="init(evt)">
<style type="text/css"><![CDATA[
.node, .edge {opacity: 0.7;}
.node.selected, .edge.selected {opacity: 1;}
.edge:hover path { stroke: red; }
.edge:hover polygon { stroke: red; fill: red; }
]]></style>

<defs>
  <circle id="rim" cx="0" cy="0" r="7"/>
  <circle id="rim2" cx="0" cy="0" r="3.5"/>
  <g id="zoomPlus">
    <use xlink:href="#rim" fill="#404040"><set attributeName="fill" to="#808080" begin="zoomplus.mouseover" end="zoomplus.mouseout"/></use>
    <path d="M-4,0h8M0,-4v8" fill="none" stroke="white" stroke-width="1.5" pointer-events="none"/>
  </g>
  <g id="zoomMin">
    <use xlink:href="#rim" fill="#404040"><set attributeName="fill" to="#808080" begin="zoomminus.mouseover" end="zoomminus.mouseout"/></use>
    <path d="M-4,0h8" fill="none" stroke="white" stroke-width="1.5" pointer-events="none"/>
  </g>
  <g id="arrowUp" transform="translate(30 24)">
    <use xlink:href="#rim"/>
    <path pointer-events="none" fill="none" stroke="white" stroke-width="1.5" d="M0,-3.0v7 M-2.5,-0.5L0,-3.0L2.5,-0.5"/>
  </g>
  <g id="arrowRight" transform="rotate(90) translate(36 -43)">
    <use xlink:href="#rim"/>
    <path pointer-events="none" fill="none" stroke="white" stroke-width="1.5" d="M0,-3.0v7 M-2.5,-0.5L0,-3.0L2.5,-0.5"/>
  </g>
  <g id="arrowDown" transform="rotate(180) translate(-30 -48)">
    <use xlink:href="#rim"/>
    <path pointer-events="none" fill="none" stroke="white" stroke-width="1.5" d="M0,-3.0v7 M-2.5,-0.5L0,-3.0L2.5,-0.5"/>
  </g>
  <g id="arrowLeft" transform="rotate(270) translate(-36 17)">
    <use xlink:href="#rim"/>
    <path pointer-events="none" fill="none" stroke="white" stroke-width="1.5" d="M0,-3.0v7 M-2.5,-0.5L0,-3.0L2.5,-0.5"/>
  </g>
  <g id="resetDef">
    <use xlink:href="#rim2" fill="#404040"><set attributeName="fill" to="#808080" begin="reset.mouseover" end="reset.mouseout"/></use>
  </g>
</defs>
<script type="application/ecmascript">
var viewWidth = 2335;
var viewHeight = 313;
var sectionId = 'dynsection-0';
</script>
<script type="application/ecmascript" xlink:href="svg.min.js"/>
<svg id="graph" class="graph">
<g id="viewport">
<title>main.cpp</title>
<!-- Node1 -->
<g id="Node000001" class="node">
<title>Node1</title>
<g id="a_Node000001"><a xlink:title="Main functions for Core 0, responsible for reading data from sensor peripherals.">
<polygon fill="#999999" stroke="#666666" points="1393,-305 1331,-305 1331,-286 1393,-286 1393,-305"/>
<text text-anchor="middle" x="1362" y="-293" font-family="Helvetica,sans-Serif" font-size="10.00">main.cpp</text>
</a>
</g>
</g>
<!-- Node2 -->
<g id="Node000002" class="node">
<title>Node2</title>
<g id="a_Node000002"><a xlink:title=" ">
<polygon fill="#e0e0e0" stroke="#999999" points="1606.5,-19 1543.5,-19 1543.5,0 1606.5,0 1606.5,-19"/>
<text text-anchor="middle" x="1575" y="-7" font-family="Helvetica,sans-Serif" font-size="10.00">Arduino.h</text>
</a>
</g>
</g>
<!-- Node1&#45;&gt;Node2 -->
<g id="edge1_Node000001_Node000002" class="edge">
<title>Node1&#45;&gt;Node2</title>
<g id="a_edge1_Node000001_Node000002"><a xlink:title=" ">
<path fill="none" stroke="#63b8ff" d="M1330.95,-294.61C1146.98,-295.08 203.87,-295.29 84,-250 38.8,-232.92 0,-229.31 0,-181 0,-181 0,-181 0,-118.5 0,-39.34 1283.03,-15.09 1533.06,-11.12"/>
<polygon fill="#63b8ff" stroke="#63b8ff" points="1533.24,-14.62 1543.18,-10.96 1533.13,-7.62 1533.24,-14.62"/>
</a>
</g>
</g>
<!-- Node3 -->
<g id="Node000003" class="node">
<title>Node3</title>
<g id="a_Node000003"><a xlink:href="ErrorDisplay_8h.html" target="_top" xlink:title=" ">
<polygon fill="white" stroke="#666666" points="315,-250 231,-250 231,-231 315,-231 315,-250"/>
<text text-anchor="middle" x="273" y="-238" font-family="Helvetica,sans-Serif" font-size="10.00">ErrorDisplay.h</text>
</a>
</g>
</g>
<!-- Node1&#45;&gt;Node3 -->
<g id="edge2_Node000001_Node000003" class="edge">
<title>Node1&#45;&gt;Node3</title>
<g id="a_edge2_Node000001_Node000003"><a xlink:title=" ">
<path fill="none" stroke="#63b8ff" d="M1330.87,-292.99C1179.23,-285.6 517.35,-253.39 325.37,-244.05"/>
<polygon fill="#63b8ff" stroke="#63b8ff" points="325.42,-240.55 315.26,-243.56 325.08,-247.54 325.42,-240.55"/>
</a>
</g>
</g>
<!-- Node4 -->
<g id="Node000004" class="node">
<title>Node4</title>
<g id="a_Node000004"><a xlink:href="PayloadConfig_8h.html" target="_top" xlink:title="Central location for pinout and config defines.">
<polygon fill="white" stroke="#666666" points="1323.5,-189.5 1228.5,-189.5 1228.5,-170.5 1323.5,-170.5 1323.5,-189.5"/>
<text text-anchor="middle" x="1276" y="-177.5" font-family="Helvetica,sans-Serif" font-size="10.00">PayloadConfig.h</text>
</a>
</g>
</g>
<!-- Node1&#45;&gt;Node4 -->
<g id="edge10_Node000001_Node000004" class="edge">
<title>Node1&#45;&gt;Node4</title>
<g id="a_edge10_Node000001_Node000004"><a xlink:title=" ">
<path fill="none" stroke="#63b8ff" d="M1347.16,-285.94C1334.51,-278 1316.59,-265.16 1305,-250 1293.43,-234.87 1285.6,-214.43 1281.02,-199.74"/>
<polygon fill="#63b8ff" stroke="#63b8ff" points="1284.29,-198.43 1278.14,-189.8 1277.56,-200.38 1284.29,-198.43"/>
</a>
</g>
</g>
<!-- Node8 -->
<g id="Node000008" class="node">
<title>Node8</title>
<g id="a_Node000008"><a xlink:href="Logger_8h.html" target="_top" xlink:title=" ">
<polygon fill="white" stroke="#666666" points="1714,-74 1656,-74 1656,-55 1714,-55 1714,-74"/>
<text text-anchor="middle" x="1685" y="-62" font-family="Helvetica,sans-Serif" font-size="10.00">Logger.h</text>
</a>
</g>
</g>
<!-- Node1&#45;&gt;Node8 -->
<g id="edge8_Node000001_Node000008" class="edge">
<title>Node1&#45;&gt;Node8</title>
<g id="a_edge8_Node000001_Node000008"><a xlink:title=" ">
<path fill="none" stroke="#63b8ff" d="M1393.07,-293.65C1518.29,-290.06 1986.2,-275.2 2132,-250 2217.79,-235.17 2267.79,-264.67 2320,-195 2394.13,-96.08 1873.21,-71.57 1724.1,-66.61"/>
<polygon fill="#63b8ff" stroke="#63b8ff" points="1724.13,-63.1 1714.02,-66.28 1723.9,-70.1 1724.13,-63.1"/>
</a>
</g>
</g>
<!-- Node9 -->
<g id="Node000009" class="node">
<title>Node9</title>
<g id="a_Node000009"><a xlink:href="CommandMessage_8h.html" target="_top" xlink:title=" ">
<polygon fill="white" stroke="#666666" points="212.5,-250 93.5,-250 93.5,-231 212.5,-231 212.5,-250"/>
<text text-anchor="middle" x="153" y="-238" font-family="Helvetica,sans-Serif" font-size="10.00">CommandMessage.h</text>
</a>
</g>
</g>
<!-- Node1&#45;&gt;Node9 -->
<g id="edge11_Node000001_Node000009" class="edge">
<title>Node1&#45;&gt;Node9</title>
<g id="a_edge11_Node000001_Node000009"><a xlink:title=" ">
<path fill="none" stroke="#63b8ff" d="M1330.66,-294.24C1197.93,-292.92 668.86,-285.64 222.99,-250"/>
<polygon fill="#63b8ff" stroke="#63b8ff" points="223.06,-246.49 212.81,-249.18 222.49,-253.47 223.06,-246.49"/>
</a>
</g>
</g>
<!-- Node10 -->
<g id="Node000010" class="node">
<title>Node10</title>
<g id="a_Node000010"><a xlink:href="Sensor_8h.html" target="_top" xlink:title=" ">
<polygon fill="white" stroke="#666666" points="1691,-189.5 1633,-189.5 1633,-170.5 1691,-170.5 1691,-189.5"/>
<text text-anchor="middle" x="1662" y="-177.5" font-family="Helvetica,sans-Serif" font-size="10.00">Sensor.h</text>
</a>
</g>
</g>
<!-- Node1&#45;&gt;Node10 -->
<g id="edge14_Node000001_Node000010" class="edge">
<title>Node1&#45;&gt;Node10</title>
<g id="a_edge14_Node000001_Node000010"><a xlink:title=" ">
<path fill="none" stroke="#63b8ff" d="M1393.3,-293.16C1456.67,-289.85 1597.26,-279.33 1634,-250 1649.28,-237.8 1656.28,-215.92 1659.45,-200.07"/>
<polygon fill="#63b8ff" stroke="#63b8ff" points="1662.97,-200.25 1661.14,-189.81 1656.06,-199.11 1662.97,-200.25"/>
</a>
</g>
</g>
<!-- Node12 -->
<g id="Node000012" class="node">
<title>Node12</title>
<g id="a_Node000012"><a xlink:href="AS7331Sensor_8h.html" target="_top" xlink:title=" ">
<polygon fill="white" stroke="#666666" points="1106.5,-250 1011.5,-250 1011.5,-231 1106.5,-231 1106.5,-250"/>
<text text-anchor="middle" x="1059" y="-238" font-family="Helvetica,sans-Serif" font-size="10.00">AS7331Sensor.h</text>
</a>
</g>
</g>
<!-- Node1&#45;&gt;Node12 -->
<g id="edge20_Node000001_Node000012" class="edge">
<title>Node1&#45;&gt;Node12</title>
<g id="a_edge20_Node000001_Node000012"><a xlink:title=" ">
<path fill="none" stroke="#63b8ff" d="M1331,-289.08C1280.6,-280.26 1180.15,-262.69 1116.43,-251.55"/>
<polygon fill="#63b8ff" stroke="#63b8ff" points="1116.98,-248.09 1106.53,-249.81 1115.78,-254.98 1116.98,-248.09"/>
</a>
</g>
</g>
<!-- Node15 -->
<g id="Node000015" class="node">
<title>Node15</title>
<g id="a_Node000015"><a xlink:href="BMP390Sensor_8h.html" target="_top" xlink:title=" ">
<polygon fill="white" stroke="#666666" points="1881,-250 1783,-250 1783,-231 1881,-231 1881,-250"/>
<text text-anchor="middle" x="1832" y="-238" font-family="Helvetica,sans-Serif" font-size="10.00">BMP390Sensor.h</text>
</a>
</g>
</g>
<!-- Node1&#45;&gt;Node15 -->
<g id="edge26_Node000001_Node000015" class="edge">
<title>Node1&#45;&gt;Node15</title>
<g id="a_edge26_Node000001_Node000015"><a xlink:title=" ">
<path fill="none" stroke="#63b8ff" d="M1393.06,-291.55C1460.25,-285.09 1624.38,-268.82 1772.77,-250.11"/>
<polygon fill="#63b8ff" stroke="#63b8ff" points="1773.49,-253.55 1782.97,-248.82 1772.61,-246.6 1773.49,-253.55"/>
</a>
</g>
</g>
<!-- Node17 -->
<g id="Node000017" class="node">
<title>Node17</title>
<g id="a_Node000017"><a xlink:href="ENS160Sensor_8h.html" target="_top" xlink:title=" ">
<polygon fill="white" stroke="#666666" points="1256.5,-250 1161.5,-250 1161.5,-231 1256.5,-231 1256.5,-250"/>
<text text-anchor="middle" x="1209" y="-238" font-family="Helvetica,sans-Serif" font-size="10.00">ENS160Sensor.h</text>
</a>
</g>
</g>
<!-- Node1&#45;&gt;Node17 -->
<g id="edge30_Node000001_Node000017" class="edge">
<title>Node1&#45;&gt;Node17</title>
<g id="a_edge30_Node000001_Node000017"><a xlink:title=" ">
<path fill="none" stroke="#63b8ff" d="M1337.42,-285.98C1311.95,-277.16 1271.96,-263.31 1243.37,-253.41"/>
<polygon fill="#63b8ff" stroke="#63b8ff" points="1244.37,-250.05 1233.77,-250.08 1242.08,-256.66 1244.37,-250.05"/>
</a>
</g>
</g>
<!-- Node19 -->
<g id="Node000019" class="node">
<title>Node19</title>
<g id="a_Node000019"><a xlink:href="ICM20948Sensor_8h.html" target="_top" xlink:title=" ">
<polygon fill="white" stroke="#666666" points="872.5,-250 765.5,-250 765.5,-231 872.5,-231 872.5,-250"/>
<text text-anchor="middle" x="819" y="-238" font-family="Helvetica,sans-Serif" font-size="10.00">ICM20948Sensor.h</text>
</a>
</g>
</g>
<!-- Node1&#45;&gt;Node19 -->
<g id="edge35_Node000001_Node000019" class="edge">
<title>Node1&#45;&gt;Node19</title>
<g id="a_edge35_Node000001_Node000019"><a xlink:title=" ">
<path fill="none" stroke="#63b8ff" d="M1330.86,-291.46C1244.34,-283.02 999.78,-259.15 882.83,-247.73"/>
<polygon fill="#63b8ff" stroke="#63b8ff" points="882.89,-244.22 872.6,-246.73 882.21,-251.19 882.89,-244.22"/>
</a>
</g>
</g>
<!-- Node23 -->
<g id="Node000023" class="node">
<title>Node23</title>
<g id="a_Node000023"><a xlink:href="INA260Sensor_8h.html" target="_top" xlink:title=" ">
<polygon fill="white" stroke="#666666" points="747.5,-250 654.5,-250 654.5,-231 747.5,-231 747.5,-250"/>
<text text-anchor="middle" x="701" y="-238" font-family="Helvetica,sans-Serif" font-size="10.00">INA260Sensor.h</text>
</a>
</g>
</g>
<!-- Node1&#45;&gt;Node23 -->
<g id="edge42_Node000001_Node000023" class="edge">
<title>Node1&#45;&gt;Node23</title>
<g id="a_edge42_Node000001_Node000023"><a xlink:title=" ">
<path fill="none" stroke="#63b8ff" d="M1330.75,-293.05C1242.51,-288.79 983.73,-275.05 757.77,-249.99"/>
<polygon fill="#63b8ff" stroke="#63b8ff" points="758.04,-246.5 747.72,-248.87 757.26,-253.46 758.04,-246.5"/>
</a>
</g>
</g>
<!-- Node25 -->
<g id="Node000025" class="node">
<title>Node25</title>
<g id="a_Node000025"><a xlink:href="MTK3339Sensor_8h.html" target="_top" xlink:title=" ">
<polygon fill="white" stroke="#666666" points="2003,-250 1899,-250 1899,-231 2003,-231 2003,-250"/>
<text text-anchor="middle" x="1951" y="-238" font-family="Helvetica,sans-Serif" font-size="10.00">MTK3339Sensor.h</text>
</a>
</g>
</g>
<!-- Node1&#45;&gt;Node25 -->
<g id="edge47_Node000001_Node000025" class="edge">
<title>Node1&#45;&gt;Node25</title>
<g id="a_edge47_Node000001_Node000025"><a xlink:title=" ">
<path fill="none" stroke="#63b8ff" d="M1393,-292.48C1473.15,-287.13 1693.95,-271.59 1888.65,-250.09"/>
<polygon fill="#63b8ff" stroke="#63b8ff" points="1889.23,-253.55 1898.78,-248.97 1888.45,-246.59 1889.23,-253.55"/>
</a>
</g>
</g>
<!-- Node27 -->
<g id="Node000027" class="node">
<title>Node27</title>
<g id="a_Node000027"><a xlink:href="OzoneSensor_8h.html" target="_top" xlink:title=" ">
<polygon fill="white" stroke="#666666" points="1624.5,-250 1535.5,-250 1535.5,-231 1624.5,-231 1624.5,-250"/>
<text text-anchor="middle" x="1580" y="-238" font-family="Helvetica,sans-Serif" font-size="10.00">OzoneSensor.h</text>
</a>
</g>
</g>
<!-- Node1&#45;&gt;Node27 -->
<g id="edge53_Node000001_Node000027" class="edge">
<title>Node1&#45;&gt;Node27</title>
<g id="a_edge53_Node000001_Node000027"><a xlink:title=" ">
<path fill="none" stroke="#63b8ff" d="M1393.23,-286.91C1430.4,-277.87 1492.74,-262.71 1535.08,-252.42"/>
<polygon fill="#63b8ff" stroke="#63b8ff" points="1535.96,-255.81 1544.85,-250.05 1534.31,-249.01 1535.96,-255.81"/>
</a>
</g>
</g>
<!-- Node29 -->
<g id="Node000029" class="node">
<title>Node29</title>
<g id="a_Node000029"><a xlink:href="PCF8523Sensor_8h.html" target="_top" xlink:title=" ">
<polygon fill="white" stroke="#666666" points="2122.5,-250 2021.5,-250 2021.5,-231 2122.5,-231 2122.5,-250"/>
<text text-anchor="middle" x="2072" y="-238" font-family="Helvetica,sans-Serif" font-size="10.00">PCF8523Sensor.h</text>
</a>
</g>
</g>
<!-- Node1&#45;&gt;Node29 -->
<g id="edge57_Node000001_Node000029" class="edge">
<title>Node1&#45;&gt;Node29</title>
<g id="a_edge57_Node000001_Node000029"><a xlink:title=" ">
<path fill="none" stroke="#63b8ff" d="M1393.19,-293.17C1485.7,-289.04 1766.81,-275.29 2011.15,-250"/>
<polygon fill="#63b8ff" stroke="#63b8ff" points="2011.71,-253.47 2021.29,-248.95 2010.98,-246.5 2011.71,-253.47"/>
</a>
</g>
</g>
<!-- Node31 -->
<g id="Node000031" class="node">
<title>Node31</title>
<g id="a_Node000031"><a xlink:href="SHTC3Sensor_8h.html" target="_top" xlink:title=" ">
<polygon fill="white" stroke="#666666" points="1517.5,-250 1428.5,-250 1428.5,-231 1517.5,-231 1517.5,-250"/>
<text text-anchor="middle" x="1473" y="-238" font-family="Helvetica,sans-Serif" font-size="10.00">SHTC3Sensor.h</text>
</a>
</g>
</g>
<!-- Node1&#45;&gt;Node31 -->
<g id="edge60_Node000001_Node000031" class="edge">
<title>Node1&#45;&gt;Node31</title>
<g id="a_edge60_Node000001_Node000031"><a xlink:title=" ">
<path fill="none" stroke="#63b8ff" d="M1379.83,-285.98C1397.61,-277.5 1425.15,-264.35 1445.68,-254.54"/>
<polygon fill="#63b8ff" stroke="#63b8ff" points="1447.33,-257.64 1454.84,-250.17 1444.31,-251.32 1447.33,-257.64"/>
</a>
</g>
</g>
<!-- Node33 -->
<g id="Node000033" class="node">
<title>Node33</title>
<g id="a_Node000033"><a xlink:href="TMP11xSensor_8h.html" target="_top" xlink:title=" ">
<polygon fill="white" stroke="#666666" points="1410.5,-250 1313.5,-250 1313.5,-231 1410.5,-231 1410.5,-250"/>
<text text-anchor="middle" x="1362" y="-238" font-family="Helvetica,sans-Serif" font-size="10.00">TMP11xSensor.h</text>
</a>
</g>
</g>
<!-- Node1&#45;&gt;Node33 -->
<g id="edge64_Node000001_Node000033" class="edge">
<title>Node1&#45;&gt;Node33</title>
<g id="a_edge64_Node000001_Node000033"><a xlink:title=" ">
<path fill="none" stroke="#63b8ff" d="M1362,-285.75C1362,-278.8 1362,-268.85 1362,-260.13"/>
<polygon fill="#63b8ff" stroke="#63b8ff" points="1365.5,-260.09 1362,-250.09 1358.5,-260.09 1365.5,-260.09"/>
</a>
</g>
</g>
<!-- Node35 -->
<g id="Node000035" class="node">
<title>Node35</title>
<g id="a_Node000035"><a xlink:href="TempSensor_8h.html" target="_top" xlink:title=" ">
<polygon fill="white" stroke="#666666" points="1765,-250 1681,-250 1681,-231 1765,-231 1765,-250"/>
<text text-anchor="middle" x="1723" y="-238" font-family="Helvetica,sans-Serif" font-size="10.00">TempSensor.h</text>
</a>
</g>
</g>
<!-- Node1&#45;&gt;Node35 -->
<g id="edge69_Node000001_Node000035" class="edge">
<title>Node1&#45;&gt;Node35</title>
<g id="a_edge69_Node000001_Node000035"><a xlink:title=" ">
<path fill="none" stroke="#63b8ff" d="M1393.18,-290.01C1448.39,-282.05 1566.96,-264.89 1667,-250 1668.26,-249.81 1669.53,-249.62 1670.82,-249.43"/>
<polygon fill="#63b8ff" stroke="#63b8ff" points="1671.44,-252.88 1680.81,-247.93 1670.4,-245.95 1671.44,-252.88"/>
</a>
</g>
</g>
<!-- Node3&#45;&gt;Node2 -->
<g id="edge3_Node000003_Node000002" class="edge">
<title>Node3&#45;&gt;Node2</title>
<g id="a_edge3_Node000003_Node000002"><a xlink:title=" ">
<path fill="none" stroke="#63b8ff" d="M273.35,-230.83C274.34,-215.99 278.18,-185.35 293,-165 319.49,-128.63 336.04,-126.25 378,-110 595.58,-25.74 1347.43,-12.76 1533.23,-10.83"/>
<polygon fill="#63b8ff" stroke="#63b8ff" points="1533.44,-14.33 1543.4,-10.73 1533.37,-7.33 1533.44,-14.33"/>
</a>
</g>
</g>
<!-- Node3&#45;&gt;Node4 -->
<g id="edge4_Node000003_Node000004" class="edge">
<title>Node3&#45;&gt;Node4</title>
<g id="a_edge4_Node000003_Node000004"><a xlink:title=" ">
<path fill="none" stroke="#63b8ff" d="M315.18,-238.63C474.77,-235.16 1041.59,-221.23 1220,-195 1225.45,-194.2 1231.15,-193.09 1236.73,-191.86"/>
<polygon fill="#63b8ff" stroke="#63b8ff" points="1237.65,-195.23 1246.57,-189.52 1236.04,-188.42 1237.65,-195.23"/>
</a>
</g>
</g>
<!-- Node6 -->
<g id="Node000006" class="node">
<title>Node6</title>
<g id="a_Node000006"><a xlink:title=" ">
<polygon fill="#e0e0e0" stroke="#999999" points="123.5,-189.5 28.5,-189.5 28.5,-170.5 123.5,-170.5 123.5,-189.5"/>
<text text-anchor="middle" x="76" y="-177.5" font-family="Helvetica,sans-Serif" font-size="10.00">pico/multicore.h</text>
</a>
</g>
</g>
<!-- Node3&#45;&gt;Node6 -->
<g id="edge6_Node000003_Node000006" class="edge">
<title>Node3&#45;&gt;Node6</title>
<g id="a_edge6_Node000003_Node000006"><a xlink:title=" ">
<path fill="none" stroke="#63b8ff" d="M244.35,-230.99C210.07,-220.81 152.52,-203.72 114.4,-192.4"/>
<polygon fill="#63b8ff" stroke="#63b8ff" points="115.26,-189.01 104.68,-189.52 113.27,-195.72 115.26,-189.01"/>
</a>
</g>
</g>
<!-- Node7 -->
<g id="Node000007" class="node">
<title>Node7</title>
<g id="a_Node000007"><a xlink:title=" ">
<polygon fill="#e0e0e0" stroke="#999999" points="218,-189.5 142,-189.5 142,-170.5 218,-170.5 218,-189.5"/>
<text text-anchor="middle" x="180" y="-177.5" font-family="Helvetica,sans-Serif" font-size="10.00">pico/stdlib.h</text>
</a>
</g>
</g>
<!-- Node3&#45;&gt;Node7 -->
<g id="edge7_Node000003_Node000007" class="edge">
<title>Node3&#45;&gt;Node7</title>
<g id="a_edge7_Node000003_Node000007"><a xlink:title=" ">
<path fill="none" stroke="#63b8ff" d="M259.28,-230.87C244.3,-221.45 220.11,-206.23 202.38,-195.08"/>
<polygon fill="#63b8ff" stroke="#63b8ff" points="204.11,-192.03 193.78,-189.67 200.38,-197.95 204.11,-192.03"/>
</a>
</g>
</g>
<!-- Node5 -->
<g id="Node000005" class="node">
<title>Node5</title>
<g id="a_Node000005"><a xlink:title=" ">
<polygon fill="#e0e0e0" stroke="#999999" points="1404,-129 1356,-129 1356,-110 1404,-110 1404,-129"/>
<text text-anchor="middle" x="1380" y="-117" font-family="Helvetica,sans-Serif" font-size="10.00">Wire.h</text>
</a>
</g>
</g>
<!-- Node4&#45;&gt;Node5 -->
<g id="edge5_Node000004_Node000005" class="edge">
<title>Node4&#45;&gt;Node5</title>
<g id="a_edge5_Node000004_Node000005"><a xlink:title=" ">
<path fill="none" stroke="#63b8ff" d="M1291.35,-170.37C1308.32,-160.82 1335.9,-145.31 1355.79,-134.12"/>
<polygon fill="#63b8ff" stroke="#63b8ff" points="1357.59,-137.12 1364.59,-129.17 1354.16,-131.02 1357.59,-137.12"/>
</a>
</g>
</g>
<!-- Node8&#45;&gt;Node2 -->
<g id="edge9_Node000008_Node000002" class="edge">
<title>Node8&#45;&gt;Node2</title>
<g id="a_edge9_Node000008_Node000002"><a xlink:title=" ">
<path fill="none" stroke="#63b8ff" d="M1667.33,-54.98C1649.71,-46.5 1622.42,-33.35 1602.07,-23.54"/>
<polygon fill="#63b8ff" stroke="#63b8ff" points="1603.52,-20.36 1592.99,-19.17 1600.48,-26.66 1603.52,-20.36"/>
</a>
</g>
</g>
<!-- Node9&#45;&gt;Node6 -->
<g id="edge12_Node000009_Node000006" class="edge">
<title>Node9&#45;&gt;Node6</title>
<g id="a_edge12_Node000009_Node000006"><a xlink:title=" ">
<path fill="none" stroke="#63b8ff" d="M141.64,-230.87C129.58,-221.71 110.3,-207.06 95.75,-196.01"/>
<polygon fill="#63b8ff" stroke="#63b8ff" points="97.49,-192.93 87.41,-189.67 93.25,-198.5 97.49,-192.93"/>
</a>
</g>
</g>
<!-- Node9&#45;&gt;Node7 -->
<g id="edge13_Node000009_Node000007" class="edge">
<title>Node9&#45;&gt;Node7</title>
<g id="a_edge13_Node000009_Node000007"><a xlink:title=" ">
<path fill="none" stroke="#63b8ff" d="M156.98,-230.87C160.85,-222.49 166.84,-209.51 171.74,-198.89"/>
<polygon fill="#63b8ff" stroke="#63b8ff" points="174.99,-200.21 176,-189.67 168.63,-197.28 174.99,-200.21"/>
</a>
</g>
</g>
<!-- Node10&#45;&gt;Node2 -->
<g id="edge15_Node000010_Node000002" class="edge">
<title>Node10&#45;&gt;Node2</title>
<g id="a_edge15_Node000010_Node000002"><a xlink:title=" ">
<path fill="none" stroke="#63b8ff" d="M1643.81,-170.43C1628.25,-162.11 1606.58,-147.95 1595,-129 1576.03,-97.95 1573.62,-54.22 1574.02,-29.49"/>
<polygon fill="#63b8ff" stroke="#63b8ff" points="1577.52,-29.4 1574.36,-19.29 1570.53,-29.17 1577.52,-29.4"/>
</a>
</g>
</g>
<!-- Node10&#45;&gt;Node8 -->
<g id="edge19_Node000010_Node000008" class="edge">
<title>Node10&#45;&gt;Node8</title>
<g id="a_edge19_Node000010_Node000008"><a xlink:title=" ">
<path fill="none" stroke="#63b8ff" d="M1663.73,-170.47C1667.43,-152.23 1676.17,-109.07 1681.22,-84.14"/>
<polygon fill="#63b8ff" stroke="#63b8ff" points="1684.7,-84.63 1683.25,-74.13 1677.83,-83.24 1684.7,-84.63"/>
</a>
</g>
</g>
<!-- Node11 -->
<g id="Node000011" class="node">
<title>Node11</title>
<g id="a_Node000011"><a xlink:href="Device_8h.html" target="_top" xlink:title=" ">
<polygon fill="white" stroke="#666666" points="1662.5,-129 1603.5,-129 1603.5,-110 1662.5,-110 1662.5,-129"/>
<text text-anchor="middle" x="1633" y="-117" font-family="Helvetica,sans-Serif" font-size="10.00">Device.h</text>
</a>
</g>
</g>
<!-- Node10&#45;&gt;Node11 -->
<g id="edge16_Node000010_Node000011" class="edge">
<title>Node10&#45;&gt;Node11</title>
<g id="a_edge16_Node000010_Node000011"><a xlink:title=" ">
<path fill="none" stroke="#63b8ff" d="M1657.72,-170.37C1653.57,-161.99 1647.13,-149.01 1641.87,-138.39"/>
<polygon fill="#63b8ff" stroke="#63b8ff" points="1644.87,-136.57 1637.3,-129.17 1638.6,-139.68 1644.87,-136.57"/>
</a>
</g>
</g>
<!-- Node11&#45;&gt;Node2 -->
<g id="edge17_Node000011_Node000002" class="edge">
<title>Node11&#45;&gt;Node2</title>
<g id="a_edge17_Node000011_Node000002"><a xlink:title=" ">
<path fill="none" stroke="#63b8ff" d="M1628.25,-109.66C1618.69,-91.85 1596.95,-51.37 1584.4,-28.01"/>
<polygon fill="#63b8ff" stroke="#63b8ff" points="1587.46,-26.31 1579.65,-19.16 1581.3,-29.62 1587.46,-26.31"/>
</a>
</g>
</g>
<!-- Node11&#45;&gt;Node8 -->
<g id="edge18_Node000011_Node000008" class="edge">
<title>Node11&#45;&gt;Node8</title>
<g id="a_edge18_Node000011_Node000008"><a xlink:title=" ">
<path fill="none" stroke="#63b8ff" d="M1641.59,-109.75C1649.16,-102.03 1660.38,-90.6 1669.51,-81.28"/>
<polygon fill="#63b8ff" stroke="#63b8ff" points="1672.07,-83.68 1676.57,-74.09 1667.07,-78.78 1672.07,-83.68"/>
</a>
</g>
</g>
<!-- Node12&#45;&gt;Node4 -->
<g id="edge24_Node000012_Node000004" class="edge">
<title>Node12&#45;&gt;Node4</title>
<g id="a_edge24_Node000012_Node000004"><a xlink:title=" ">
<path fill="none" stroke="#63b8ff" d="M1090.55,-230.99C1128.56,-220.75 1192.52,-203.5 1234.5,-192.19"/>
<polygon fill="#63b8ff" stroke="#63b8ff" points="1235.66,-195.5 1244.41,-189.52 1233.84,-188.74 1235.66,-195.5"/>
</a>
</g>
</g>
<!-- Node12&#45;&gt;Node5 -->
<g id="edge22_Node000012_Node000005" class="edge">
<title>Node12&#45;&gt;Node5</title>
<g id="a_edge22_Node000012_Node000005"><a xlink:title=" ">
<path fill="none" stroke="#63b8ff" d="M1058.39,-230.83C1057.81,-215.14 1059.06,-182.07 1078,-165 1116.84,-129.98 1275.3,-122.51 1345.84,-120.92"/>
<polygon fill="#63b8ff" stroke="#63b8ff" points="1346.06,-124.42 1355.99,-120.72 1345.92,-117.42 1346.06,-124.42"/>
</a>
</g>
</g>
<!-- Node12&#45;&gt;Node10 -->
<g id="edge25_Node000012_Node000010" class="edge">
<title>Node12&#45;&gt;Node10</title>
<g id="a_edge25_Node000012_Node000010"><a xlink:title=" ">
<path fill="none" stroke="#63b8ff" d="M1106.81,-235.05C1121.61,-233.7 1137.98,-232.25 1153,-231 1362.22,-213.55 1418.87,-239.72 1624,-195 1626.68,-194.42 1629.42,-193.69 1632.15,-192.87"/>
<polygon fill="#63b8ff" stroke="#63b8ff" points="1633.44,-196.13 1641.8,-189.62 1631.21,-189.49 1633.44,-196.13"/>
</a>
</g>
</g>
<!-- Node13 -->
<g id="Node000013" class="node">
<title>Node13</title>
<g id="a_Node000013"><a xlink:title=" ">
<polygon fill="#e0e0e0" stroke="#999999" points="1002.5,-189.5 889.5,-189.5 889.5,-170.5 1002.5,-170.5 1002.5,-189.5"/>
<text text-anchor="middle" x="946" y="-177.5" font-family="Helvetica,sans-Serif" font-size="10.00">SparkFun_AS7331.h</text>
</a>
</g>
</g>
<!-- Node12&#45;&gt;Node13 -->
<g id="edge21_Node000012_Node000013" class="edge">
<title>Node12&#45;&gt;Node13</title>
<g id="a_edge21_Node000012_Node000013"><a xlink:title=" ">
<path fill="none" stroke="#63b8ff" d="M1042.33,-230.87C1023.72,-221.23 993.38,-205.53 971.72,-194.31"/>
<polygon fill="#63b8ff" stroke="#63b8ff" points="973.23,-191.16 962.74,-189.67 970.01,-197.37 973.23,-191.16"/>
</a>
</g>
</g>
<!-- Node14 -->
<g id="Node000014" class="node">
<title>Node14</title>
<g id="a_Node000014"><a xlink:title=" ">
<polygon fill="#e0e0e0" stroke="#999999" points="734.5,-189.5 681.5,-189.5 681.5,-170.5 734.5,-170.5 734.5,-189.5"/>
<text text-anchor="middle" x="708" y="-177.5" font-family="Helvetica,sans-Serif" font-size="10.00">string.h</text>
</a>
</g>
</g>
<!-- Node12&#45;&gt;Node14 -->
<g id="edge23_Node000012_Node000014" class="edge">
<title>Node12&#45;&gt;Node14</title>
<g id="a_edge23_Node000012_Node000014"><a xlink:title=" ">
<path fill="none" stroke="#63b8ff" d="M1011.37,-236.21C949.09,-231.12 836.98,-219.3 744,-195 741.7,-194.4 739.35,-193.7 737,-192.93"/>
<polygon fill="#63b8ff" stroke="#63b8ff" points="738.13,-189.62 727.54,-189.54 735.77,-196.21 738.13,-189.62"/>
</a>
</g>
</g>
<!-- Node15&#45;&gt;Node5 -->
<g id="edge27_Node000015_Node000005" class="edge">
<title>Node15&#45;&gt;Node5</title>
<g id="a_edge27_Node000015_Node000005"><a xlink:title=" ">
<path fill="none" stroke="#63b8ff" d="M1839.07,-230.98C1850.78,-215.81 1871.25,-183.95 1854,-165 1839.19,-148.73 1521.07,-128.74 1414.47,-122.47"/>
<polygon fill="#63b8ff" stroke="#63b8ff" points="1414.44,-118.97 1404.25,-121.88 1414.03,-125.95 1414.44,-118.97"/>
</a>
</g>
</g>
<!-- Node15&#45;&gt;Node10 -->
<g id="edge29_Node000015_Node000010" class="edge">
<title>Node15&#45;&gt;Node10</title>
<g id="a_edge29_Node000015_Node000010"><a xlink:title=" ">
<path fill="none" stroke="#63b8ff" d="M1805.63,-230.85C1778.93,-222.04 1736.49,-207.87 1700,-195 1698.16,-194.35 1696.27,-193.68 1694.37,-192.99"/>
<polygon fill="#63b8ff" stroke="#63b8ff" points="1695.46,-189.67 1684.87,-189.54 1693.07,-196.25 1695.46,-189.67"/>
</a>
</g>
</g>
<!-- Node16 -->
<g id="Node000016" class="node">
<title>Node16</title>
<g id="a_Node000016"><a xlink:title=" ">
<polygon fill="#e0e0e0" stroke="#999999" points="2012.5,-189.5 1901.5,-189.5 1901.5,-170.5 2012.5,-170.5 2012.5,-189.5"/>
<text text-anchor="middle" x="1957" y="-177.5" font-family="Helvetica,sans-Serif" font-size="10.00">Adafruit_BMP3XX.h</text>
</a>
</g>
</g>
<!-- Node15&#45;&gt;Node16 -->
<g id="edge28_Node000015_Node000016" class="edge">
<title>Node15&#45;&gt;Node16</title>
<g id="a_edge28_Node000015_Node000016"><a xlink:title=" ">
<path fill="none" stroke="#63b8ff" d="M1850.18,-230.99C1871.01,-221.25 1905.37,-205.16 1929.48,-193.88"/>
<polygon fill="#63b8ff" stroke="#63b8ff" points="1931.23,-196.93 1938.8,-189.52 1928.26,-190.59 1931.23,-196.93"/>
</a>
</g>
</g>
<!-- Node17&#45;&gt;Node4 -->
<g id="edge32_Node000017_Node000004" class="edge">
<title>Node17&#45;&gt;Node4</title>
<g id="a_edge32_Node000017_Node000004"><a xlink:title=" ">
<path fill="none" stroke="#63b8ff" d="M1218.89,-230.87C1229.28,-221.8 1245.84,-207.34 1258.45,-196.32"/>
<polygon fill="#63b8ff" stroke="#63b8ff" points="1260.84,-198.88 1266.07,-189.67 1256.24,-193.61 1260.84,-198.88"/>
</a>
</g>
</g>
<!-- Node17&#45;&gt;Node5 -->
<g id="edge31_Node000017_Node000005" class="edge">
<title>Node17&#45;&gt;Node5</title>
<g id="a_edge31_Node000017_Node000005"><a xlink:title=" ">
<path fill="none" stroke="#63b8ff" d="M1169.45,-230.94C1124.77,-219.5 1061.6,-196.91 1089,-165 1121.78,-126.83 1276.27,-121.05 1345.87,-120.42"/>
<polygon fill="#63b8ff" stroke="#63b8ff" points="1345.91,-123.92 1355.89,-120.36 1345.86,-116.92 1345.91,-123.92"/>
</a>
</g>
</g>
<!-- Node17&#45;&gt;Node10 -->
<g id="edge33_Node000017_Node000010" class="edge">
<title>Node17&#45;&gt;Node10</title>
<g id="a_edge33_Node000017_Node000010"><a xlink:title=" ">
<path fill="none" stroke="#63b8ff" d="M1256.72,-235.05C1358.18,-225.49 1588.94,-203.2 1624,-195 1626.52,-194.41 1629.09,-193.7 1631.66,-192.92"/>
<polygon fill="#63b8ff" stroke="#63b8ff" points="1633.02,-196.16 1641.38,-189.64 1630.78,-189.52 1633.02,-196.16"/>
</a>
</g>
</g>
<!-- Node18 -->
<g id="Node000018" class="node">
<title>Node18</title>
<g id="a_Node000018"><a xlink:title=" ">
<polygon fill="#e0e0e0" stroke="#999999" points="1210.5,-189.5 1097.5,-189.5 1097.5,-170.5 1210.5,-170.5 1210.5,-189.5"/>
<text text-anchor="middle" x="1154" y="-177.5" font-family="Helvetica,sans-Serif" font-size="10.00">SparkFun_ENS160.h</text>
</a>
</g>
</g>
<!-- Node17&#45;&gt;Node18 -->
<g id="edge34_Node000017_Node000018" class="edge">
<title>Node17&#45;&gt;Node18</title>
<g id="a_edge34_Node000017_Node000018"><a xlink:title=" ">
<path fill="none" stroke="#63b8ff" d="M1200.88,-230.87C1192.6,-222.05 1179.53,-208.16 1169.3,-197.27"/>
<polygon fill="#63b8ff" stroke="#63b8ff" points="1171.55,-194.56 1162.15,-189.67 1166.45,-199.35 1171.55,-194.56"/>
</a>
</g>
</g>
<!-- Node19&#45;&gt;Node4 -->
<g id="edge40_Node000019_Node000004" class="edge">
<title>Node19&#45;&gt;Node4</title>
<g id="a_edge40_Node000019_Node000004"><a xlink:title=" ">
<path fill="none" stroke="#63b8ff" d="M872.52,-235.86C949.71,-230.09 1096.59,-217.17 1220,-195 1224.99,-194.1 1230.19,-193.02 1235.33,-191.85"/>
<polygon fill="#63b8ff" stroke="#63b8ff" points="1236.14,-195.25 1245.06,-189.52 1234.52,-188.44 1236.14,-195.25"/>
</a>
</g>
</g>
<!-- Node19&#45;&gt;Node10 -->
<g id="edge41_Node000019_Node000010" class="edge">
<title>Node19&#45;&gt;Node10</title>
<g id="a_edge41_Node000019_Node000010"><a xlink:title=" ">
<path fill="none" stroke="#63b8ff" d="M872.71,-236.97C1046.93,-228.71 1587.25,-202.61 1624,-195 1626.84,-194.41 1629.75,-193.65 1632.64,-192.79"/>
<polygon fill="#63b8ff" stroke="#63b8ff" points="1633.86,-196.07 1642.21,-189.55 1631.62,-189.44 1633.86,-196.07"/>
</a>
</g>
</g>
<!-- Node19&#45;&gt;Node14 -->
<g id="edge39_Node000019_Node000014" class="edge">
<title>Node19&#45;&gt;Node14</title>
<g id="a_edge39_Node000019_Node000014"><a xlink:title=" ">
<path fill="none" stroke="#63b8ff" d="M802.62,-230.87C784.42,-221.28 754.8,-205.67 733.55,-194.47"/>
<polygon fill="#63b8ff" stroke="#63b8ff" points="734.92,-191.23 724.45,-189.67 731.66,-197.43 734.92,-191.23"/>
</a>
</g>
</g>
<!-- Node20 -->
<g id="Node000020" class="node">
<title>Node20</title>
<g id="a_Node000020"><a xlink:title=" ">
<polygon fill="#e0e0e0" stroke="#999999" points="871.5,-189.5 752.5,-189.5 752.5,-170.5 871.5,-170.5 871.5,-189.5"/>
<text text-anchor="middle" x="812" y="-177.5" font-family="Helvetica,sans-Serif" font-size="10.00">Adafruit_ICM20948.h</text>
</a>
</g>
</g>
<!-- Node19&#45;&gt;Node20 -->
<g id="edge36_Node000019_Node000020" class="edge">
<title>Node19&#45;&gt;Node20</title>
<g id="a_edge36_Node000019_Node000020"><a xlink:title=" ">
<path fill="none" stroke="#63b8ff" d="M817.97,-230.87C817,-222.75 815.51,-210.31 814.26,-199.89"/>
<polygon fill="#63b8ff" stroke="#63b8ff" points="817.7,-199.18 813.04,-189.67 810.75,-200.01 817.7,-199.18"/>
</a>
</g>
</g>
<!-- Node21 -->
<g id="Node000021" class="node">
<title>Node21</title>
<g id="a_Node000021"><a xlink:title=" ">
<polygon fill="#e0e0e0" stroke="#999999" points="542.5,-189.5 435.5,-189.5 435.5,-170.5 542.5,-170.5 542.5,-189.5"/>
<text text-anchor="middle" x="489" y="-177.5" font-family="Helvetica,sans-Serif" font-size="10.00">Adafruit_ICM20X.h</text>
</a>
</g>
</g>
<!-- Node19&#45;&gt;Node21 -->
<g id="edge37_Node000019_Node000021" class="edge">
<title>Node19&#45;&gt;Node21</title>
<g id="a_edge37_Node000019_Node000021"><a xlink:title=" ">
<path fill="none" stroke="#63b8ff" d="M765.4,-231.43C711.39,-223.1 625.69,-209.32 552,-195 546.71,-193.97 541.18,-192.84 535.69,-191.67"/>
<polygon fill="#63b8ff" stroke="#63b8ff" points="536.42,-188.25 525.91,-189.55 534.94,-195.09 536.42,-188.25"/>
</a>
</g>
</g>
<!-- Node22 -->
<g id="Node000022" class="node">
<title>Node22</title>
<g id="a_Node000022"><a xlink:title=" ">
<polygon fill="#e0e0e0" stroke="#999999" points="663,-189.5 561,-189.5 561,-170.5 663,-170.5 663,-189.5"/>
<text text-anchor="middle" x="612" y="-177.5" font-family="Helvetica,sans-Serif" font-size="10.00">Adafruit_Sensor.h</text>
</a>
</g>
</g>
<!-- Node19&#45;&gt;Node22 -->
<g id="edge38_Node000019_Node000022" class="edge">
<title>Node19&#45;&gt;Node22</title>
<g id="a_edge38_Node000019_Node000022"><a xlink:title=" ">
<path fill="none" stroke="#63b8ff" d="M788.9,-230.99C752.72,-220.77 691.89,-203.58 651.84,-192.26"/>
<polygon fill="#63b8ff" stroke="#63b8ff" points="652.71,-188.87 642.14,-189.52 650.81,-195.6 652.71,-188.87"/>
</a>
</g>
</g>
<!-- Node23&#45;&gt;Node2 -->
<g id="edge43_Node000023_Node000002" class="edge">
<title>Node23&#45;&gt;Node2</title>
<g id="a_edge43_Node000023_Node000002"><a xlink:title=" ">
<path fill="none" stroke="#63b8ff" d="M654.14,-237.69C554.13,-233.34 327,-220.72 304,-195 295.11,-185.06 295.16,-174.98 304,-165 387.7,-70.5 1323.66,-22.06 1533.44,-12.34"/>
<polygon fill="#63b8ff" stroke="#63b8ff" points="1533.61,-15.84 1543.44,-11.88 1533.29,-8.85 1533.61,-15.84"/>
</a>
</g>
</g>
<!-- Node23&#45;&gt;Node10 -->
<g id="edge46_Node000023_Node000010" class="edge">
<title>Node23&#45;&gt;Node10</title>
<g id="a_edge46_Node000023_Node000010"><a xlink:title=" ">
<path fill="none" stroke="#63b8ff" d="M747.7,-232.02C750.85,-231.64 753.97,-231.29 757,-231 1140.89,-194.01 1245.81,-270.58 1624,-195 1626.84,-194.43 1629.76,-193.68 1632.65,-192.83"/>
<polygon fill="#63b8ff" stroke="#63b8ff" points="1633.86,-196.11 1642.22,-189.61 1631.63,-189.48 1633.86,-196.11"/>
</a>
</g>
</g>
<!-- Node23&#45;&gt;Node14 -->
<g id="edge44_Node000023_Node000014" class="edge">
<title>Node23&#45;&gt;Node14</title>
<g id="a_edge44_Node000023_Node000014"><a xlink:title=" ">
<path fill="none" stroke="#63b8ff" d="M702.03,-230.87C703,-222.75 704.49,-210.31 705.74,-199.89"/>
<polygon fill="#63b8ff" stroke="#63b8ff" points="709.25,-200.01 706.96,-189.67 702.3,-199.18 709.25,-200.01"/>
</a>
</g>
</g>
<!-- Node24 -->
<g id="Node000024" class="node">
<title>Node24</title>
<g id="a_Node000024"><a xlink:title=" ">
<polygon fill="#e0e0e0" stroke="#999999" points="417.5,-189.5 312.5,-189.5 312.5,-170.5 417.5,-170.5 417.5,-189.5"/>
<text text-anchor="middle" x="365" y="-177.5" font-family="Helvetica,sans-Serif" font-size="10.00">Adafruit_INA260.h</text>
</a>
</g>
</g>
<!-- Node23&#45;&gt;Node24 -->
<g id="edge45_Node000023_Node000024" class="edge">
<title>Node23&#45;&gt;Node24</title>
<g id="a_edge45_Node000023_Node000024"><a xlink:title=" ">
<path fill="none" stroke="#63b8ff" d="M654.3,-232.8C599.65,-224.76 506.48,-210.41 427,-195 421.85,-194 416.48,-192.89 411.14,-191.74"/>
<polygon fill="#63b8ff" stroke="#63b8ff" points="411.5,-188.24 400.98,-189.52 410,-195.08 411.5,-188.24"/>
</a>
</g>
</g>
<!-- Node25&#45;&gt;Node2 -->
<g id="edge48_Node000025_Node000002" class="edge">
<title>Node25&#45;&gt;Node2</title>
<g id="a_edge48_Node000025_Node000002"><a xlink:title=" ">
<path fill="none" stroke="#63b8ff" d="M2003.16,-232.21C2076.36,-221.73 2201.42,-202.82 2208,-195 2216.59,-184.8 2216.23,-175.49 2208,-165 2133.76,-70.46 1746.52,-26.41 1617.14,-14.17"/>
<polygon fill="#63b8ff" stroke="#63b8ff" points="1617.14,-10.66 1606.86,-13.22 1616.49,-17.63 1617.14,-10.66"/>
</a>
</g>
</g>
<!-- Node25&#45;&gt;Node4 -->
<g id="edge51_Node000025_Node000004" class="edge">
<title>Node25&#45;&gt;Node4</title>
<g id="a_edge51_Node000025_Node000004"><a xlink:title=" ">
<path fill="none" stroke="#63b8ff" d="M1898.79,-231.97C1895.82,-231.62 1892.87,-231.29 1890,-231 1643.2,-205.86 1578.19,-232.73 1333,-195 1327.59,-194.17 1321.93,-193.07 1316.38,-191.85"/>
<polygon fill="#63b8ff" stroke="#63b8ff" points="1317.1,-188.42 1306.57,-189.56 1315.51,-195.24 1317.1,-188.42"/>
</a>
</g>
</g>
<!-- Node25&#45;&gt;Node5 -->
<g id="edge50_Node000025_Node000005" class="edge">
<title>Node25&#45;&gt;Node5</title>
<g id="a_edge50_Node000025_Node000005"><a xlink:title=" ">
<path fill="none" stroke="#63b8ff" d="M1976.51,-230.9C1992.69,-223.96 2012.35,-212.44 2022,-195 2028.46,-183.33 2031.1,-174.75 2022,-165 2011.54,-153.79 1546.71,-129.07 1414.65,-122.27"/>
<polygon fill="#63b8ff" stroke="#63b8ff" points="1414.49,-118.75 1404.32,-121.73 1414.13,-125.74 1414.49,-118.75"/>
</a>
</g>
</g>
<!-- Node25&#45;&gt;Node10 -->
<g id="edge52_Node000025_Node000010" class="edge">
<title>Node25&#45;&gt;Node10</title>
<g id="a_edge52_Node000025_Node000010"><a xlink:title=" ">
<path fill="none" stroke="#63b8ff" d="M1898.99,-231.4C1836.83,-221.51 1736.63,-204.91 1700,-195 1697.57,-194.34 1695.07,-193.59 1692.57,-192.79"/>
<polygon fill="#63b8ff" stroke="#63b8ff" points="1693.68,-189.47 1683.09,-189.52 1691.4,-196.09 1693.68,-189.47"/>
</a>
</g>
</g>
<!-- Node26 -->
<g id="Node000026" class="node">
<title>Node26</title>
<g id="a_Node000026"><a xlink:title=" ">
<polygon fill="#e0e0e0" stroke="#999999" points="2199,-195 2069,-195 2069,-165 2199,-165 2199,-195"/>
<text text-anchor="start" x="2077" y="-183" font-family="Helvetica,sans-Serif" font-size="10.00">SparkFun_u&#45;blox_GNSS</text>
<text text-anchor="middle" x="2134" y="-172" font-family="Helvetica,sans-Serif" font-size="10.00">_Arduino_Library.h</text>
</a>
</g>
</g>
<!-- Node25&#45;&gt;Node26 -->
<g id="edge49_Node000025_Node000026" class="edge">
<title>Node25&#45;&gt;Node26</title>
<g id="a_edge49_Node000025_Node000026"><a xlink:title=" ">
<path fill="none" stroke="#63b8ff" d="M1977.61,-230.99C2004.41,-222.43 2046.5,-208.97 2080.27,-198.18"/>
<polygon fill="#63b8ff" stroke="#63b8ff" points="2081.54,-201.44 2090,-195.06 2079.41,-194.78 2081.54,-201.44"/>
</a>
</g>
</g>
<!-- Node27&#45;&gt;Node4 -->
<g id="edge55_Node000027_Node000004" class="edge">
<title>Node27&#45;&gt;Node4</title>
<g id="a_edge55_Node000027_Node000004"><a xlink:title=" ">
<path fill="none" stroke="#63b8ff" d="M1535.21,-232.3C1485.6,-224.12 1403.32,-209.96 1333,-195 1328.56,-194.06 1323.95,-193.02 1319.34,-191.95"/>
<polygon fill="#63b8ff" stroke="#63b8ff" points="1319.91,-188.48 1309.38,-189.57 1318.29,-195.29 1319.91,-188.48"/>
</a>
</g>
</g>
<!-- Node27&#45;&gt;Node10 -->
<g id="edge56_Node000027_Node000010" class="edge">
<title>Node27&#45;&gt;Node10</title>
<g id="a_edge56_Node000027_Node000010"><a xlink:title=" ">
<path fill="none" stroke="#63b8ff" d="M1592.1,-230.87C1605.06,-221.62 1625.86,-206.78 1641.4,-195.69"/>
<polygon fill="#63b8ff" stroke="#63b8ff" points="1643.74,-198.32 1649.85,-189.67 1639.68,-192.63 1643.74,-198.32"/>
</a>
</g>
</g>
<!-- Node28 -->
<g id="Node000028" class="node">
<title>Node28</title>
<g id="a_Node000028"><a xlink:title=" ">
<polygon fill="#e0e0e0" stroke="#999999" points="1845,-189.5 1709,-189.5 1709,-170.5 1845,-170.5 1845,-189.5"/>
<text text-anchor="middle" x="1777" y="-177.5" font-family="Helvetica,sans-Serif" font-size="10.00">DFRobot_OzoneSensor.h</text>
</a>
</g>
</g>
<!-- Node27&#45;&gt;Node28 -->
<g id="edge54_Node000027_Node000028" class="edge">
<title>Node27&#45;&gt;Node28</title>
<g id="a_edge54_Node000027_Node000028"><a xlink:title=" ">
<path fill="none" stroke="#63b8ff" d="M1608.65,-230.99C1642.93,-220.81 1700.48,-203.72 1738.6,-192.4"/>
<polygon fill="#63b8ff" stroke="#63b8ff" points="1739.73,-195.72 1748.32,-189.52 1737.74,-189.01 1739.73,-195.72"/>
</a>
</g>
</g>
<!-- Node29&#45;&gt;Node10 -->
<g id="edge59_Node000029_Node000010" class="edge">
<title>Node29&#45;&gt;Node10</title>
<g id="a_edge59_Node000029_Node000010"><a xlink:title=" ">
<path fill="none" stroke="#63b8ff" d="M2021.27,-232.22C2018.14,-231.8 2015.03,-231.39 2012,-231 1873.55,-213.21 1835.78,-227.36 1700,-195 1697.49,-194.4 1694.91,-193.69 1692.34,-192.9"/>
<polygon fill="#63b8ff" stroke="#63b8ff" points="1693.23,-189.5 1682.63,-189.61 1690.98,-196.13 1693.23,-189.5"/>
</a>
</g>
</g>
<!-- Node30 -->
<g id="Node000030" class="node">
<title>Node30</title>
<g id="a_Node000030"><a xlink:title=" ">
<polygon fill="#e0e0e0" stroke="#999999" points="2311,-189.5 2255,-189.5 2255,-170.5 2311,-170.5 2311,-189.5"/>
<text text-anchor="middle" x="2283" y="-177.5" font-family="Helvetica,sans-Serif" font-size="10.00">RTClib.h</text>
</a>
</g>
</g>
<!-- Node29&#45;&gt;Node30 -->
<g id="edge58_Node000029_Node000030" class="edge">
<title>Node29&#45;&gt;Node30</title>
<g id="a_edge58_Node000029_Node000030"><a xlink:title=" ">
<path fill="none" stroke="#63b8ff" d="M2107.14,-230.95C2141.45,-222.43 2195.06,-208.69 2241,-195 2243.45,-194.27 2245.97,-193.49 2248.5,-192.7"/>
<polygon fill="#63b8ff" stroke="#63b8ff" points="2249.77,-195.96 2258.21,-189.56 2247.62,-189.3 2249.77,-195.96"/>
</a>
</g>
</g>
<!-- Node31&#45;&gt;Node4 -->
<g id="edge62_Node000031_Node000004" class="edge">
<title>Node31&#45;&gt;Node4</title>
<g id="a_edge62_Node000031_Node000004"><a xlink:title=" ">
<path fill="none" stroke="#63b8ff" d="M1444.35,-230.99C1410.07,-220.81 1352.52,-203.72 1314.4,-192.4"/>
<polygon fill="#63b8ff" stroke="#63b8ff" points="1315.26,-189.01 1304.68,-189.52 1313.27,-195.72 1315.26,-189.01"/>
</a>
</g>
</g>
<!-- Node31&#45;&gt;Node10 -->
<g id="edge63_Node000031_Node000010" class="edge">
<title>Node31&#45;&gt;Node10</title>
<g id="a_edge63_Node000031_Node000010"><a xlink:title=" ">
<path fill="none" stroke="#63b8ff" d="M1504.13,-230.98C1534.79,-222.43 1582.88,-208.62 1624,-195 1625.9,-194.37 1627.85,-193.71 1629.81,-193.03"/>
<polygon fill="#63b8ff" stroke="#63b8ff" points="1631.34,-196.2 1639.58,-189.54 1628.99,-189.6 1631.34,-196.2"/>
</a>
</g>
</g>
<!-- Node32 -->
<g id="Node000032" class="node">
<title>Node32</title>
<g id="a_Node000032"><a xlink:title=" ">
<polygon fill="#e0e0e0" stroke="#999999" points="1614.5,-189.5 1513.5,-189.5 1513.5,-170.5 1614.5,-170.5 1614.5,-189.5"/>
<text text-anchor="middle" x="1564" y="-177.5" font-family="Helvetica,sans-Serif" font-size="10.00">Adafruit_SHTC3.h</text>
</a>
</g>
</g>
<!-- Node31&#45;&gt;Node32 -->
<g id="edge61_Node000031_Node000032" class="edge">
<title>Node31&#45;&gt;Node32</title>
<g id="a_edge61_Node000031_Node000032"><a xlink:title=" ">
<path fill="none" stroke="#63b8ff" d="M1486.43,-230.87C1501.08,-221.45 1524.76,-206.23 1542.1,-195.08"/>
<polygon fill="#63b8ff" stroke="#63b8ff" points="1544,-198.02 1550.52,-189.67 1540.21,-192.13 1544,-198.02"/>
</a>
</g>
</g>
<!-- Node33&#45;&gt;Node4 -->
<g id="edge67_Node000033_Node000004" class="edge">
<title>Node33&#45;&gt;Node4</title>
<g id="a_edge67_Node000033_Node000004"><a xlink:title=" ">
<path fill="none" stroke="#63b8ff" d="M1349.31,-230.87C1335.59,-221.54 1313.5,-206.51 1297.15,-195.38"/>
<polygon fill="#63b8ff" stroke="#63b8ff" points="1298.98,-192.4 1288.74,-189.67 1295.04,-198.19 1298.98,-192.4"/>
</a>
</g>
</g>
<!-- Node33&#45;&gt;Node5 -->
<g id="edge66_Node000033_Node000005" class="edge">
<title>Node33&#45;&gt;Node5</title>
<g id="a_edge66_Node000033_Node000005"><a xlink:title=" ">
<path fill="none" stroke="#63b8ff" d="M1410.57,-231.03C1431.31,-224.75 1453.56,-213.85 1466,-195 1473.34,-183.87 1472.93,-176.39 1466,-165 1454.67,-146.37 1432.74,-135.2 1413.87,-128.71"/>
<polygon fill="#63b8ff" stroke="#63b8ff" points="1414.66,-125.29 1404.07,-125.64 1412.57,-131.97 1414.66,-125.29"/>
</a>
</g>
</g>
<!-- Node33&#45;&gt;Node10 -->
<g id="edge68_Node000033_Node000010" class="edge">
<title>Node33&#45;&gt;Node10</title>
<g id="a_edge68_Node000033_Node000010"><a xlink:title=" ">
<path fill="none" stroke="#63b8ff" d="M1410.73,-232.33C1475.02,-222.67 1584.66,-205.49 1624,-195 1626.44,-194.35 1628.94,-193.61 1631.44,-192.81"/>
<polygon fill="#63b8ff" stroke="#63b8ff" points="1632.6,-196.11 1640.92,-189.55 1630.32,-189.49 1632.6,-196.11"/>
</a>
</g>
</g>
<!-- Node34 -->
<g id="Node000034" class="node">
<title>Node34</title>
<g id="a_Node000034"><a xlink:title=" ">
<polygon fill="#e0e0e0" stroke="#999999" points="1456.5,-189.5 1341.5,-189.5 1341.5,-170.5 1456.5,-170.5 1456.5,-189.5"/>
<text text-anchor="middle" x="1399" y="-177.5" font-family="Helvetica,sans-Serif" font-size="10.00">SparkFun_TMP117.h</text>
</a>
</g>
</g>
<!-- Node33&#45;&gt;Node34 -->
<g id="edge65_Node000033_Node000034" class="edge">
<title>Node33&#45;&gt;Node34</title>
<g id="a_edge65_Node000033_Node000034"><a xlink:title=" ">
<path fill="none" stroke="#63b8ff" d="M1367.46,-230.87C1372.87,-222.31 1381.31,-208.97 1388.1,-198.24"/>
<polygon fill="#63b8ff" stroke="#63b8ff" points="1391.13,-199.99 1393.52,-189.67 1385.21,-196.25 1391.13,-199.99"/>
</a>
</g>
</g>
<!-- Node35&#45;&gt;Node10 -->
<g id="edge70_Node000035_Node000010" class="edge">
<title>Node35&#45;&gt;Node10</title>
<g id="a_edge70_Node000035_Node000010"><a xlink:title=" ">
<path fill="none" stroke="#63b8ff" d="M1714,-230.87C1704.63,-221.88 1689.75,-207.61 1678.3,-196.64"/>
<polygon fill="#63b8ff" stroke="#63b8ff" points="1680.68,-194.06 1671.04,-189.67 1675.83,-199.12 1680.68,-194.06"/>
</a>
</g>
</g>
</g>
</svg>

<g id="navigator" transform="translate(0 0)" fill="#404254">
  <rect fill="#f2f5e9" fill-opacity="0.5" stroke="#606060" stroke-width=".5" x="0" y="0" width="60" height="60"/>
  <use id="zoomplus" xlink:href="#zoomPlus" x="17" y="9" onmousedown="handleZoom(evt,'in')"/>
  <use id="zoomminus" xlink:href="#zoomMin" x="42" y="9" onmousedown="handleZoom(evt,'out')"/>
  <use id="reset" xlink:href="#resetDef" x="30" y="36" onmousedown="handleReset()"/>
   <use id="arrowup" xlink:href="#arrowUp" x="0" y="0" onmousedown="handlePan(0,-1)"/>
  <use id="arrowright" xlink:href="#arrowRight" x="0" y="0" onmousedown="handlePan(1,0)"/>
  <use id="arrowdown" xlink:href="#arrowDown" x="0" y="0" onmousedown="handlePan(0,1)"/>
  <use id="arrowleft" xlink:href="#arrowLeft" x="0" y="0" onmousedown="handlePan(-1,0)"/>
</g>
<svg viewBox="0 0 15 15" width="100%" height="30px" preserveAspectRatio="xMaxYMin meet">
 <g id="arrow_out" transform="scale(0.3 0.3)">
  <a xlink:href="main_8cpp__incl_org.svg" target="_base">
   <rect id="button" ry="5" rx="5" y="6" x="6" height="38" width="38"
        fill="#f2f5e9" fill-opacity="0.5" stroke="#606060" stroke-width="1.0"/>
   <path id="arrow"
     d="M 11.500037,31.436501 C 11.940474,20.09759 22.043105,11.32322 32.158766,21.979434 L 37.068811,17.246167 C 37.068811,17.246167 37.088388,32 37.088388,32 L 22.160133,31.978069 C 22.160133,31.978069 26.997745,27.140456 26.997745,27.140456 C 18.528582,18.264221 13.291696,25.230495 11.500037,31.436501 z"
     style="fill:#404040;"/>
  </a>
 </g>
</svg>

<style type='text/css'>
<![CDATA[
[data-mouse-over-selected='false'] { opacity: 0.7; }
[data-mouse-over-selected='true']  { opacity: 1.0; }
]]>
</style>
<script type="application/ecmascript"><![CDATA[
document.addEventListener('DOMContentLoaded', (event) => {
  highlightEdges();
  highlightAdjacentNodes();
});
]]></script>
</svg>
