<?xml version="1.0" encoding="UTF-8" standalone="no"?>
<!DOCTYPE svg PUBLIC "-//W3C//DTD SVG 1.1//EN"
 "http://www.w3.org/Graphics/SVG/1.1/DTD/svg11.dtd">
<!-- Generated by graphviz version 12.1.2 (20240928.0832)
 -->
<!-- Title: decodePacket Pages: 1 -->
<svg width="397pt" height="66pt"
 viewBox="0.00 0.00 397.25 66.00" xmlns="http://www.w3.org/2000/svg" xmlns:xlink="http://www.w3.org/1999/xlink">
<g id="graph0" class="graph" transform="scale(1 1) rotate(0) translate(4 62)">
<title>decodePacket</title>
<!-- Node1 -->
<g id="Node000001" class="node">
<title>Node1</title>
<g id="a_Node000001"><a xlink:title="Decodes the packet to a CSV row.">
<polygon fill="#999999" stroke="#666666" points="78.25,-39 0,-39 0,-19 78.25,-19 78.25,-39"/>
<text text-anchor="middle" x="39.12" y="-25.5" font-family="Helvetica,sans-Serif" font-size="10.00">decodePacket</text>
</a>
</g>
</g>
<!-- Node2 -->
<g id="Node000002" class="node">
<title>Node2</title>
<g id="a_Node000002"><a xlink:href="classSensor.html#ab344e7fbc9acdc5dcc7ae59d0a3fb5f6" target="_top" xlink:title="Used for onboard decoding of packets.">
<polygon fill="white" stroke="#666666" points="230,-58 114.25,-58 114.25,-38 230,-38 230,-58"/>
<text text-anchor="middle" x="172.12" y="-44.5" font-family="Helvetica,sans-Serif" font-size="10.00">Sensor::decodeToCSV</text>
</a>
</g>
</g>
<!-- Node1&#45;&gt;Node2 -->
<g id="edge1_Node000001_Node000002" class="edge">
<title>Node1&#45;&gt;Node2</title>
<g id="a_edge1_Node000001_Node000002"><a xlink:title=" ">
<path fill="none" stroke="#63b8ff" d="M78.72,-34.6C86.3,-35.7 94.45,-36.88 102.67,-38.07"/>
<polygon fill="#63b8ff" stroke="#63b8ff" points="101.97,-41.51 112.37,-39.48 102.98,-34.58 101.97,-41.51"/>
</a>
</g>
</g>
<!-- Node4 -->
<g id="Node000004" class="node">
<title>Node4</title>
<g id="a_Node000004"><a xlink:href="classSensor.html#a62d72a2f81422ac2d2fa8ae86ba08571" target="_top" xlink:title="Returns CSV line in the same format as readData() but with &quot;&#45;&quot; instead of data.">
<polygon fill="white" stroke="#666666" points="222.12,-20 122.12,-20 122.12,0 222.12,0 222.12,-20"/>
<text text-anchor="middle" x="172.12" y="-6.5" font-family="Helvetica,sans-Serif" font-size="10.00">Sensor::readEmpty</text>
</a>
</g>
</g>
<!-- Node1&#45;&gt;Node4 -->
<g id="edge3_Node000001_Node000004" class="edge">
<title>Node1&#45;&gt;Node4</title>
<g id="a_edge3_Node000001_Node000004"><a xlink:title=" ">
<path fill="none" stroke="#63b8ff" d="M78.72,-23.4C88.8,-21.94 99.92,-20.33 110.83,-18.74"/>
<polygon fill="#63b8ff" stroke="#63b8ff" points="111.2,-22.23 120.59,-17.33 110.19,-15.3 111.2,-22.23"/>
</a>
</g>
</g>
<!-- Node3 -->
<g id="Node000003" class="node">
<title>Node3</title>
<g id="a_Node000003"><a xlink:href="classDevice.html#abbc7184e7fb286208c3b30357cf53f88" target="_top" xlink:title=" ">
<polygon fill="white" stroke="#666666" points="389.25,-58 266,-58 266,-38 389.25,-38 389.25,-58"/>
<text text-anchor="middle" x="327.62" y="-44.5" font-family="Helvetica,sans-Serif" font-size="10.00">Device::getDeviceName</text>
</a>
</g>
</g>
<!-- Node2&#45;&gt;Node3 -->
<g id="edge2_Node000002_Node000003" class="edge">
<title>Node2&#45;&gt;Node3</title>
<g id="a_edge2_Node000002_Node000003"><a xlink:title=" ">
<path fill="none" stroke="#63b8ff" d="M230.28,-48C238.1,-48 246.22,-48 254.26,-48"/>
<polygon fill="#63b8ff" stroke="#63b8ff" points="254.05,-51.5 264.05,-48 254.05,-44.5 254.05,-51.5"/>
</a>
</g>
</g>
</g>
</svg>
