<?xml version="1.0" encoding="UTF-8" standalone="no"?>
<!DOCTYPE svg PUBLIC "-//W3C//DTD SVG 1.1//EN"
 "http://www.w3.org/Graphics/SVG/1.1/DTD/svg11.dtd">
<!-- Generated by graphviz version 2.43.0 (0)
 -->
<!-- Title: real_loop1 Pages: 1 -->
<!--zoomable 288 -->

<svg id="main" version="1.1" xmlns="http://www.w3.org/2000/svg" xmlns:xlink="http://www.w3.org/1999/xlink" xml:space="preserve" onload="init(evt)">
<style type="text/css"><![CDATA[
.node, .edge {opacity: 0.7;}
.node.selected, .edge.selected {opacity: 1;}
.edge:hover path { stroke: red; }
.edge:hover polygon { stroke: red; fill: red; }
]]></style>

<defs>
  <circle id="rim" cx="0" cy="0" r="7"/>
  <circle id="rim2" cx="0" cy="0" r="3.5"/>
  <g id="zoomPlus">
    <use xlink:href="#rim" fill="#404040"><set attributeName="fill" to="#808080" begin="zoomplus.mouseover" end="zoomplus.mouseout"/></use>
    <path d="M-4,0h8M0,-4v8" fill="none" stroke="white" stroke-width="1.5" pointer-events="none"/>
  </g>
  <g id="zoomMin">
    <use xlink:href="#rim" fill="#404040"><set attributeName="fill" to="#808080" begin="zoomminus.mouseover" end="zoomminus.mouseout"/></use>
    <path d="M-4,0h8" fill="none" stroke="white" stroke-width="1.5" pointer-events="none"/>
  </g>
  <g id="arrowUp" transform="translate(30 24)">
    <use xlink:href="#rim"/>
    <path pointer-events="none" fill="none" stroke="white" stroke-width="1.5" d="M0,-3.0v7 M-2.5,-0.5L0,-3.0L2.5,-0.5"/>
  </g>
  <g id="arrowRight" transform="rotate(90) translate(36 -43)">
    <use xlink:href="#rim"/>
    <path pointer-events="none" fill="none" stroke="white" stroke-width="1.5" d="M0,-3.0v7 M-2.5,-0.5L0,-3.0L2.5,-0.5"/>
  </g>
  <g id="arrowDown" transform="rotate(180) translate(-30 -48)">
    <use xlink:href="#rim"/>
    <path pointer-events="none" fill="none" stroke="white" stroke-width="1.5" d="M0,-3.0v7 M-2.5,-0.5L0,-3.0L2.5,-0.5"/>
  </g>
  <g id="arrowLeft" transform="rotate(270) translate(-36 17)">
    <use xlink:href="#rim"/>
    <path pointer-events="none" fill="none" stroke="white" stroke-width="1.5" d="M0,-3.0v7 M-2.5,-0.5L0,-3.0L2.5,-0.5"/>
  </g>
  <g id="resetDef">
    <use xlink:href="#rim2" fill="#404040"><set attributeName="fill" to="#808080" begin="reset.mouseover" end="reset.mouseout"/></use>
  </g>
</defs>
<script type="application/ecmascript">
var viewWidth = 813;
var viewHeight = 288;
var sectionId = 'dynsection-9';
</script>
<script type="application/ecmascript" xlink:href="svg.min.js"/>
<svg id="graph" class="graph">
<g id="viewport">
<title>real_loop1</title>
<!-- Node1 -->
<g id="Node000001" class="node">
<title>Node1</title>
<g id="a_Node000001"><a xlink:title="Loop for core 1.">
<polygon fill="#999999" stroke="#666666" points="68,-150 0,-150 0,-131 68,-131 68,-150"/>
<text text-anchor="middle" x="34" y="-138" font-family="Helvetica,sans-Serif" font-size="10.00">real_loop1</text>
</a>
</g>
</g>
<!-- Node2 -->
<g id="Node000002" class="node">
<title>Node2</title>
<g id="a_Node000002"><a xlink:href="classFlashStorage.html#ad96a663c3434d8783b30c12ec706ad81" target="_top" xlink:title="Downloads data from flash memory with progress tracking.">
<polygon fill="white" stroke="#666666" points="255,-280 104,-280 104,-261 255,-261 255,-280"/>
<text text-anchor="middle" x="179.5" y="-268" font-family="Helvetica,sans-Serif" font-size="10.00">FlashStorage::downloadFile</text>
</a>
</g>
</g>
<!-- Node1&#45;&gt;Node2 -->
<g id="edge1_Node000001_Node000002" class="edge">
<title>Node1&#45;&gt;Node2</title>
<g id="a_edge1_Node000001_Node000002"><a xlink:title=" ">
<path fill="none" stroke="#63b8ff" d="M38.04,-150.05C45.5,-171.87 66.85,-225.53 104,-252.5 106.07,-254 108.26,-255.38 110.52,-256.65"/>
<polygon fill="#63b8ff" stroke="#63b8ff" points="109.06,-259.83 119.59,-260.99 112.08,-253.52 109.06,-259.83"/>
</a>
</g>
</g>
<!-- Node3 -->
<g id="Node000003" class="node">
<title>Node3</title>
<g id="a_Node000003"><a xlink:href="classFlashStorage.html#ac2dd4e8b7b4a85d5820f4277d0fb6727" target="_top" xlink:title="Erases all data stored in flash memory.">
<polygon fill="white" stroke="#666666" points="236,-243 123,-243 123,-224 236,-224 236,-243"/>
<text text-anchor="middle" x="179.5" y="-231" font-family="Helvetica,sans-Serif" font-size="10.00">FlashStorage::erase</text>
</a>
</g>
</g>
<!-- Node1&#45;&gt;Node3 -->
<g id="edge2_Node000001_Node000003" class="edge">
<title>Node1&#45;&gt;Node3</title>
<g id="a_edge2_Node000001_Node000003"><a xlink:title=" ">
<path fill="none" stroke="#63b8ff" d="M41.12,-150.25C51.81,-166.43 75.49,-198.72 104,-215.5 107.02,-217.28 110.2,-218.88 113.48,-220.32"/>
<polygon fill="#63b8ff" stroke="#63b8ff" points="112.35,-223.64 122.94,-223.98 114.88,-217.11 112.35,-223.64"/>
</a>
</g>
</g>
<!-- Node4 -->
<g id="Node000004" class="node">
<title>Node4</title>
<g id="a_Node000004"><a xlink:href="CommandMessage_8cpp.html#a614e558f381a8d26db49eed9b12fd14f" target="_top" xlink:title=" ">
<polygon fill="white" stroke="#666666" points="218.5,-206 140.5,-206 140.5,-187 218.5,-187 218.5,-206"/>
<text text-anchor="middle" x="179.5" y="-194" font-family="Helvetica,sans-Serif" font-size="10.00">getCmdData</text>
</a>
</g>
</g>
<!-- Node1&#45;&gt;Node4 -->
<g id="edge3_Node000001_Node000004" class="edge">
<title>Node1&#45;&gt;Node4</title>
<g id="a_edge3_Node000001_Node000004"><a xlink:title=" ">
<path fill="none" stroke="#63b8ff" d="M49.78,-150.16C63.38,-158.68 84.37,-170.88 104,-178.5 112.38,-181.75 121.53,-184.54 130.45,-186.89"/>
<polygon fill="#63b8ff" stroke="#63b8ff" points="129.84,-190.34 140.38,-189.35 131.52,-183.55 129.84,-190.34"/>
</a>
</g>
</g>
<!-- Node5 -->
<g id="Node000005" class="node">
<title>Node5</title>
<g id="a_Node000005"><a xlink:href="classFlashStorage.html#a318825f36239ed4e7c5bf345c6f95366" target="_top" xlink:title="Prints the current status of the flash storage.">
<polygon fill="white" stroke="#666666" points="246,-169 113,-169 113,-150 246,-150 246,-169"/>
<text text-anchor="middle" x="179.5" y="-157" font-family="Helvetica,sans-Serif" font-size="10.00">FlashStorage::getStatus</text>
</a>
</g>
</g>
<!-- Node1&#45;&gt;Node5 -->
<g id="edge4_Node000001_Node000005" class="edge">
<title>Node1&#45;&gt;Node5</title>
<g id="a_edge4_Node000001_Node000005"><a xlink:title=" ">
<path fill="none" stroke="#63b8ff" d="M68.28,-144.91C78.7,-146.29 90.65,-147.87 102.75,-149.47"/>
<polygon fill="#63b8ff" stroke="#63b8ff" points="102.55,-152.97 112.92,-150.82 103.46,-146.03 102.55,-152.97"/>
</a>
</g>
</g>
<!-- Node6 -->
<g id="Node000006" class="node">
<title>Node6</title>
<g id="a_Node000006"><a xlink:href="classFlashStorage.html#ad024a499e7eb8774a26f46369f50ad05" target="_top" xlink:title=" ">
<polygon fill="white" stroke="#666666" points="429,-112 291,-112 291,-93 429,-93 429,-112"/>
<text text-anchor="middle" x="360" y="-100" font-family="Helvetica,sans-Serif" font-size="10.00">FlashStorage::reinitFlash</text>
</a>
</g>
</g>
<!-- Node1&#45;&gt;Node6 -->
<g id="edge5_Node000001_Node000006" class="edge">
<title>Node1&#45;&gt;Node6</title>
<g id="a_edge5_Node000001_Node000006"><a xlink:title=" ">
<path fill="none" stroke="#63b8ff" d="M68.15,-136.61C117.78,-130.79 212.8,-119.65 280.74,-111.68"/>
<polygon fill="#63b8ff" stroke="#63b8ff" points="281.45,-115.12 290.98,-110.48 280.64,-108.17 281.45,-115.12"/>
</a>
</g>
</g>
<!-- Node11 -->
<g id="Node000011" class="node">
<title>Node11</title>
<g id="a_Node000011"><a xlink:href="classFlashStorage.html#ad8daa31feba03cb7d02efb3124962f20" target="_top" xlink:title="Deletes a file by erasing the sectors it occupies.">
<polygon fill="white" stroke="#666666" points="250,-93 109,-93 109,-74 250,-74 250,-93"/>
<text text-anchor="middle" x="179.5" y="-81" font-family="Helvetica,sans-Serif" font-size="10.00">FlashStorage::removeFile</text>
</a>
</g>
</g>
<!-- Node1&#45;&gt;Node11 -->
<g id="edge10_Node000001_Node000011" class="edge">
<title>Node1&#45;&gt;Node11</title>
<g id="a_edge10_Node000001_Node000011"><a xlink:title=" ">
<path fill="none" stroke="#63b8ff" d="M53.15,-130.99C66.9,-124 86.36,-114.52 104,-107.5 114.14,-103.46 125.25,-99.6 135.73,-96.19"/>
<polygon fill="#63b8ff" stroke="#63b8ff" points="137.06,-99.44 145.52,-93.08 134.93,-92.77 137.06,-99.44"/>
</a>
</g>
</g>
<!-- Node12 -->
<g id="Node000012" class="node">
<title>Node12</title>
<g id="a_Node000012"><a xlink:href="CommandMessage_8cpp.html#ad408818d8c69721c19d63006e8ef4d22" target="_top" xlink:title=" ">
<polygon fill="white" stroke="#666666" points="218,-56 141,-56 141,-37 218,-37 218,-56"/>
<text text-anchor="middle" x="179.5" y="-44" font-family="Helvetica,sans-Serif" font-size="10.00">setCmdData</text>
</a>
</g>
</g>
<!-- Node1&#45;&gt;Node12 -->
<g id="edge12_Node000001_Node000012" class="edge">
<title>Node1&#45;&gt;Node12</title>
<g id="a_edge12_Node000001_Node000012"><a xlink:title=" ">
<path fill="none" stroke="#63b8ff" d="M41.15,-130.79C51.87,-114.66 75.59,-82.46 104,-65.5 112.25,-60.57 121.75,-56.91 131.15,-54.2"/>
<polygon fill="#63b8ff" stroke="#63b8ff" points="132.04,-57.59 140.85,-51.7 130.29,-50.81 132.04,-57.59"/>
</a>
</g>
</g>
<!-- Node13 -->
<g id="Node000013" class="node">
<title>Node13</title>
<g id="a_Node000013"><a xlink:href="main1_8cpp.html#a5ea9df4efc2cfe37ef8d6fcfb3157a43" target="_top" xlink:title="Sends data to each storage device.">
<polygon fill="white" stroke="#666666" points="227.5,-19 131.5,-19 131.5,0 227.5,0 227.5,-19"/>
<text text-anchor="middle" x="179.5" y="-7" font-family="Helvetica,sans-Serif" font-size="10.00">storeDataPacket</text>
</a>
</g>
</g>
<!-- Node1&#45;&gt;Node13 -->
<g id="edge13_Node000001_Node000013" class="edge">
<title>Node1&#45;&gt;Node13</title>
<g id="a_edge13_Node000001_Node000013"><a xlink:title=" ">
<path fill="none" stroke="#63b8ff" d="M38.02,-130.86C45.42,-108.85 66.66,-54.71 104,-27.5 109.22,-23.69 115.14,-20.68 121.31,-18.31"/>
<polygon fill="#63b8ff" stroke="#63b8ff" points="122.74,-21.52 131.14,-15.06 120.55,-14.87 122.74,-21.52"/>
</a>
</g>
</g>
<!-- Node7 -->
<g id="Node000007" class="node">
<title>Node7</title>
<g id="a_Node000007"><a xlink:href="classFlashStorage.html#a959ed7240cf70430f05686720e1ead5a" target="_top" xlink:title="Locates the next available file block &amp; tracks existing files.">
<polygon fill="white" stroke="#666666" points="605,-112 465,-112 465,-93 605,-93 605,-112"/>
<text text-anchor="middle" x="535" y="-100" font-family="Helvetica,sans-Serif" font-size="10.00">FlashStorage::indexFlash</text>
</a>
</g>
</g>
<!-- Node6&#45;&gt;Node7 -->
<g id="edge6_Node000006_Node000007" class="edge">
<title>Node6&#45;&gt;Node7</title>
<g id="a_edge6_Node000006_Node000007"><a xlink:title=" ">
<path fill="none" stroke="#63b8ff" d="M429.37,-102.5C437.7,-102.5 446.26,-102.5 454.73,-102.5"/>
<polygon fill="#63b8ff" stroke="#63b8ff" points="454.99,-106 464.99,-102.5 454.99,-99 454.99,-106"/>
</a>
</g>
</g>
<!-- Node8 -->
<g id="Node000008" class="node">
<title>Node8</title>
<g id="a_Node000008"><a xlink:href="classFlashStorage.html#a97b10db97f42549e197feeff3f3f9abb" target="_top" xlink:title="Determines if the current sector is empty.">
<polygon fill="white" stroke="#666666" points="801.5,-149 644.5,-149 644.5,-130 801.5,-130 801.5,-149"/>
<text text-anchor="middle" x="723" y="-137" font-family="Helvetica,sans-Serif" font-size="10.00">FlashStorage::isSectorEmpty</text>
</a>
</g>
</g>
<!-- Node7&#45;&gt;Node8 -->
<g id="edge7_Node000007_Node000008" class="edge">
<title>Node7&#45;&gt;Node8</title>
<g id="a_edge7_Node000007_Node000008"><a xlink:title=" ">
<path fill="none" stroke="#63b8ff" d="M583.9,-112.03C608.32,-116.89 638.22,-122.83 663.94,-127.95"/>
<polygon fill="#63b8ff" stroke="#63b8ff" points="663.45,-131.42 673.94,-129.94 664.81,-124.56 663.45,-131.42"/>
</a>
</g>
</g>
<!-- Node9 -->
<g id="Node000009" class="node">
<title>Node9</title>
<g id="a_Node000009"><a xlink:href="classFlashStorage.html#aa64883a0b4aa2c9124d0be9b4722d729" target="_top" xlink:title="Determines if the first 4 bytes of a sector are a file header.">
<polygon fill="white" stroke="#666666" points="803.5,-112 642.5,-112 642.5,-93 803.5,-93 803.5,-112"/>
<text text-anchor="middle" x="723" y="-100" font-family="Helvetica,sans-Serif" font-size="10.00">FlashStorage::readFileHeader</text>
</a>
</g>
</g>
<!-- Node7&#45;&gt;Node9 -->
<g id="edge8_Node000007_Node000009" class="edge">
<title>Node7&#45;&gt;Node9</title>
<g id="a_edge8_Node000007_Node000009"><a xlink:title=" ">
<path fill="none" stroke="#63b8ff" d="M605.26,-102.5C614.04,-102.5 623.12,-102.5 632.17,-102.5"/>
<polygon fill="#63b8ff" stroke="#63b8ff" points="632.34,-106 642.34,-102.5 632.34,-99 632.34,-106"/>
</a>
</g>
</g>
<!-- Node10 -->
<g id="Node000010" class="node">
<title>Node10</title>
<g id="a_Node000010"><a xlink:href="classFlashStorage.html#a3f4de49bad97284528ebd5279abf3985" target="_top" xlink:title="Writes the file header to the start of a new sector.">
<polygon fill="white" stroke="#666666" points="805,-75 641,-75 641,-56 805,-56 805,-75"/>
<text text-anchor="middle" x="723" y="-63" font-family="Helvetica,sans-Serif" font-size="10.00">FlashStorage::writeFileHeader</text>
</a>
</g>
</g>
<!-- Node7&#45;&gt;Node10 -->
<g id="edge9_Node000007_Node000010" class="edge">
<title>Node7&#45;&gt;Node10</title>
<g id="a_edge9_Node000007_Node000010"><a xlink:title=" ">
<path fill="none" stroke="#63b8ff" d="M583.9,-92.97C608.32,-88.11 638.22,-82.17 663.94,-77.05"/>
<polygon fill="#63b8ff" stroke="#63b8ff" points="664.81,-80.44 673.94,-75.06 663.45,-73.58 664.81,-80.44"/>
</a>
</g>
</g>
<!-- Node11&#45;&gt;Node6 -->
<g id="edge11_Node000011_Node000006" class="edge">
<title>Node11&#45;&gt;Node6</title>
<g id="a_edge11_Node000011_Node000006"><a xlink:title=" ">
<path fill="none" stroke="#63b8ff" d="M250.02,-90.9C260.08,-91.97 270.49,-93.08 280.71,-94.17"/>
<polygon fill="#63b8ff" stroke="#63b8ff" points="280.52,-97.67 290.84,-95.24 281.27,-90.71 280.52,-97.67"/>
</a>
</g>
</g>
<!-- Node14 -->
<g id="Node000014" class="node">
<title>Node14</title>
<g id="a_Node000014"><a xlink:href="classStorage.html#a6ee18f7841fdd0f70091764a59110db2" target="_top" xlink:title="Send packet data to storage device.">
<polygon fill="white" stroke="#666666" points="418,-19 302,-19 302,0 418,0 418,-19"/>
<text text-anchor="middle" x="360" y="-7" font-family="Helvetica,sans-Serif" font-size="10.00">Storage::storePacket</text>
</a>
</g>
</g>
<!-- Node13&#45;&gt;Node14 -->
<g id="edge14_Node000013_Node000014" class="edge">
<title>Node13&#45;&gt;Node14</title>
<g id="a_edge14_Node000013_Node000014"><a xlink:title=" ">
<path fill="none" stroke="#63b8ff" d="M227.87,-9.5C247.39,-9.5 270.38,-9.5 291.61,-9.5"/>
<polygon fill="#63b8ff" stroke="#63b8ff" points="291.87,-13 301.87,-9.5 291.87,-6 291.87,-13"/>
</a>
</g>
</g>
</g>
</svg>

<g id="navigator" transform="translate(0 0)" fill="#404254">
  <rect fill="#f2f5e9" fill-opacity="0.5" stroke="#606060" stroke-width=".5" x="0" y="0" width="60" height="60"/>
  <use id="zoomplus" xlink:href="#zoomPlus" x="17" y="9" onmousedown="handleZoom(evt,'in')"/>
  <use id="zoomminus" xlink:href="#zoomMin" x="42" y="9" onmousedown="handleZoom(evt,'out')"/>
  <use id="reset" xlink:href="#resetDef" x="30" y="36" onmousedown="handleReset()"/>
   <use id="arrowup" xlink:href="#arrowUp" x="0" y="0" onmousedown="handlePan(0,-1)"/>
  <use id="arrowright" xlink:href="#arrowRight" x="0" y="0" onmousedown="handlePan(1,0)"/>
  <use id="arrowdown" xlink:href="#arrowDown" x="0" y="0" onmousedown="handlePan(0,1)"/>
  <use id="arrowleft" xlink:href="#arrowLeft" x="0" y="0" onmousedown="handlePan(-1,0)"/>
</g>
<svg viewBox="0 0 15 15" width="100%" height="30px" preserveAspectRatio="xMaxYMin meet">
 <g id="arrow_out" transform="scale(0.3 0.3)">
  <a xlink:href="main_8cpp_a5d5c43a90af6e8b0e11c818a7e1681e7_cgraph_org.svg" target="_base">
   <rect id="button" ry="5" rx="5" y="6" x="6" height="38" width="38"
        fill="#f2f5e9" fill-opacity="0.5" stroke="#606060" stroke-width="1.0"/>
   <path id="arrow"
     d="M 11.500037,31.436501 C 11.940474,20.09759 22.043105,11.32322 32.158766,21.979434 L 37.068811,17.246167 C 37.068811,17.246167 37.088388,32 37.088388,32 L 22.160133,31.978069 C 22.160133,31.978069 26.997745,27.140456 26.997745,27.140456 C 18.528582,18.264221 13.291696,25.230495 11.500037,31.436501 z"
     style="fill:#404040;"/>
  </a>
 </g>
</svg>

<style type='text/css'>
<![CDATA[
[data-mouse-over-selected='false'] { opacity: 0.7; }
[data-mouse-over-selected='true']  { opacity: 1.0; }
]]>
</style>
<script type="application/ecmascript"><![CDATA[
document.addEventListener('DOMContentLoaded', (event) => {
  highlightEdges();
  highlightAdjacentNodes();
});
]]></script>
</svg>
