<?xml version="1.0" encoding="UTF-8" standalone="no"?>
<!DOCTYPE svg PUBLIC "-//W3C//DTD SVG 1.1//EN"
 "http://www.w3.org/Graphics/SVG/1.1/DTD/svg11.dtd">
<!-- Generated by graphviz version 12.1.2 (20240928.0832)
 -->
<!-- Title: real_setup1 Pages: 1 -->
<svg width="390pt" height="142pt"
 viewBox="0.00 0.00 389.75 142.00" xmlns="http://www.w3.org/2000/svg" xmlns:xlink="http://www.w3.org/1999/xlink">
<g id="graph0" class="graph" transform="scale(1 1) rotate(0) translate(4 138)">
<title>real_setup1</title>
<!-- Node1 -->
<g id="Node000001" class="node">
<title>Node1</title>
<g id="a_Node000001"><a xlink:title="Setup for core 1.">
<polygon fill="#999999" stroke="#666666" points="66.25,-77 0,-77 0,-57 66.25,-57 66.25,-77"/>
<text text-anchor="middle" x="33.12" y="-63.5" font-family="Helvetica,sans-Serif" font-size="10.00">real_setup1</text>
</a>
</g>
</g>
<!-- Node2 -->
<g id="Node000002" class="node">
<title>Node2</title>
<g id="a_Node000002"><a xlink:href="classErrorDisplay.html#a25018c85cd6b4055a5e796153b997d13" target="_top" xlink:title="Sets the error code to the given value if the given error is of a higher priority then the current er...">
<polygon fill="white" stroke="#666666" points="219.12,-134 104.12,-134 104.12,-114 219.12,-114 219.12,-134"/>
<text text-anchor="middle" x="161.62" y="-120.5" font-family="Helvetica,sans-Serif" font-size="10.00">ErrorDisplay::addCode</text>
</a>
</g>
</g>
<!-- Node1&#45;&gt;Node2 -->
<g id="edge1_Node000001_Node000002" class="edge">
<title>Node1&#45;&gt;Node2</title>
<g id="a_edge1_Node000001_Node000002"><a xlink:title=" ">
<path fill="none" stroke="#63b8ff" d="M50.74,-77.47C64.25,-85.69 84.01,-97.03 102.25,-105 106.04,-106.65 110.02,-108.24 114.04,-109.75"/>
<polygon fill="#63b8ff" stroke="#63b8ff" points="112.69,-112.98 123.29,-113.02 115.03,-106.38 112.69,-112.98"/>
</a>
</g>
</g>
<!-- Node3 -->
<g id="Node000003" class="node">
<title>Node3</title>
<g id="a_Node000003"><a xlink:href="classErrorDisplay.html#a4f9e7e64ffc64711653b539bf3d8d24f" target="_top" xlink:title="Accesses the only instance of ErrorDisplay (Singleton)">
<polygon fill="white" stroke="#666666" points="218,-96 105.25,-96 105.25,-76 218,-76 218,-96"/>
<text text-anchor="middle" x="161.62" y="-82.5" font-family="Helvetica,sans-Serif" font-size="10.00">ErrorDisplay::instance</text>
</a>
</g>
</g>
<!-- Node1&#45;&gt;Node3 -->
<g id="edge2_Node000001_Node000003" class="edge">
<title>Node1&#45;&gt;Node3</title>
<g id="a_edge2_Node000001_Node000003"><a xlink:title=" ">
<path fill="none" stroke="#63b8ff" d="M66.7,-71.89C75.12,-73.16 84.5,-74.57 93.97,-75.99"/>
<polygon fill="#63b8ff" stroke="#63b8ff" points="93.19,-79.41 103.6,-77.43 94.23,-72.49 93.19,-79.41"/>
</a>
</g>
</g>
<!-- Node4 -->
<g id="Node000004" class="node">
<title>Node4</title>
<g id="a_Node000004"><a xlink:href="classDevice.html#af64c14c9b8d2c9001f81c1ce6776a565" target="_top" xlink:title="Set recovery config (used keep default constructor)">
<polygon fill="white" stroke="#666666" points="221,-58 102.25,-58 102.25,-38 221,-38 221,-58"/>
<text text-anchor="middle" x="161.62" y="-44.5" font-family="Helvetica,sans-Serif" font-size="10.00">Device::recoveryConfig</text>
</a>
</g>
</g>
<!-- Node1&#45;&gt;Node4 -->
<g id="edge3_Node000001_Node000004" class="edge">
<title>Node1&#45;&gt;Node4</title>
<g id="a_edge3_Node000001_Node000004"><a xlink:title=" ">
<path fill="none" stroke="#63b8ff" d="M66.7,-62.11C74.24,-60.98 82.53,-59.73 90.99,-58.46"/>
<polygon fill="#63b8ff" stroke="#63b8ff" points="91.27,-61.96 100.64,-57.01 90.23,-55.03 91.27,-61.96"/>
</a>
</g>
</g>
<!-- Node7 -->
<g id="Node000007" class="node">
<title>Node7</title>
<g id="a_Node000007"><a xlink:href="main1_8cpp.html#ae906e774900a66757cd10a72cdfc458d" target="_top" xlink:title="Verifies the connection with each storage device, and defines the header_condensed field,...">
<polygon fill="white" stroke="#666666" points="219.5,-20 103.75,-20 103.75,0 219.5,0 219.5,-20"/>
<text text-anchor="middle" x="161.62" y="-6.5" font-family="Helvetica,sans-Serif" font-size="10.00">verifyStorageRecovery</text>
</a>
</g>
</g>
<!-- Node1&#45;&gt;Node7 -->
<g id="edge6_Node000001_Node000007" class="edge">
<title>Node1&#45;&gt;Node7</title>
<g id="a_edge6_Node000001_Node000007"><a xlink:title=" ">
<path fill="none" stroke="#63b8ff" d="M50.74,-56.53C64.25,-48.31 84.01,-36.97 102.25,-29 106.04,-27.35 110.02,-25.76 114.04,-24.25"/>
<polygon fill="#63b8ff" stroke="#63b8ff" points="115.03,-27.62 123.29,-20.98 112.69,-21.02 115.03,-27.62"/>
</a>
</g>
</g>
<!-- Node5 -->
<g id="Node000005" class="node">
<title>Node5</title>
<g id="a_Node000005"><a xlink:href="classDevice.html#a55cbddb95f3d79876d10e8d5bc85ba5d" target="_top" xlink:title="Set max_attempts.">
<polygon fill="white" stroke="#666666" points="381.75,-77 257,-77 257,-57 381.75,-57 381.75,-77"/>
<text text-anchor="middle" x="319.38" y="-63.5" font-family="Helvetica,sans-Serif" font-size="10.00">Device::setMaxAttempts</text>
</a>
</g>
</g>
<!-- Node4&#45;&gt;Node5 -->
<g id="edge4_Node000004_Node000005" class="edge">
<title>Node4&#45;&gt;Node5</title>
<g id="a_edge4_Node000004_Node000005"><a xlink:title=" ">
<path fill="none" stroke="#63b8ff" d="M221.06,-55.13C228.98,-56.1 237.19,-57.1 245.33,-58.09"/>
<polygon fill="#63b8ff" stroke="#63b8ff" points="244.89,-61.56 255.24,-59.3 245.74,-54.61 244.89,-61.56"/>
</a>
</g>
</g>
<!-- Node6 -->
<g id="Node000006" class="node">
<title>Node6</title>
<g id="a_Node000006"><a xlink:href="classDevice.html#ae71d2f19c89f1ebfcd756c030458f3b5" target="_top" xlink:title="Set wait_factor.">
<polygon fill="white" stroke="#666666" points="376.12,-39 262.62,-39 262.62,-19 376.12,-19 376.12,-39"/>
<text text-anchor="middle" x="319.38" y="-25.5" font-family="Helvetica,sans-Serif" font-size="10.00">Device::setWaitFactor</text>
</a>
</g>
</g>
<!-- Node4&#45;&gt;Node6 -->
<g id="edge5_Node000004_Node000006" class="edge">
<title>Node4&#45;&gt;Node6</title>
<g id="a_edge5_Node000004_Node000006"><a xlink:title=" ">
<path fill="none" stroke="#63b8ff" d="M221.06,-40.87C230.85,-39.68 241.07,-38.43 251.05,-37.21"/>
<polygon fill="#63b8ff" stroke="#63b8ff" points="251.19,-40.72 260.69,-36.04 250.34,-33.77 251.19,-40.72"/>
</a>
</g>
</g>
</g>
</svg>
