<?xml version="1.0" encoding="UTF-8" standalone="no"?>
<!DOCTYPE svg PUBLIC "-//W3C//DTD SVG 1.1//EN"
 "http://www.w3.org/Graphics/SVG/1.1/DTD/svg11.dtd">
<!-- Generated by graphviz version 12.1.2 (20240928.0832)
 -->
<!-- Title: setup1 Pages: 1 -->
<svg width="471pt" height="142pt"
 viewBox="0.00 0.00 471.00 142.00" xmlns="http://www.w3.org/2000/svg" xmlns:xlink="http://www.w3.org/1999/xlink">

<svg id="main" version="1.1" xmlns="http://www.w3.org/2000/svg" xmlns:xlink="http://www.w3.org/1999/xlink" xml:space="preserve">

<style type="text/css"><![CDATA[
.node, .edge {opacity: 0.7;}
.node.selected, .edge.selected {opacity: 1;}
.edge:hover path { stroke: red; }
.edge:hover polygon { stroke: red; fill: red; }
]]></style>
<script type="application/ecmascript" xlink:href="svg.min.js"/>
<svg id="graph" class="graph">
<g id="graph0" class="graph" transform="scale(1 1) rotate(0) translate(4 138)">
<title>setup1</title>
<!-- Node1 -->
<g id="Node000001" class="node">
<title>Node1</title>
<g id="a_Node000001"><a xlink:title=" ">
<polygon fill="#999999" stroke="#666666" points="45.25,-77 0,-77 0,-57 45.25,-57 45.25,-77"/>
<text text-anchor="middle" x="22.62" y="-63.5" font-family="Helvetica,sans-Serif" font-size="10.00">setup1</text>
</a>
</g>
</g>
<!-- Node2 -->
<g id="Node000002" class="node">
<title>Node2</title>
<g id="a_Node000002"><a xlink:href="main1_8cpp.html#a335f1df8d0b267769cb9842c12616214" target="_top" xlink:title="Setup for core 1.">
<polygon fill="white" stroke="#666666" points="147.5,-77 81.25,-77 81.25,-57 147.5,-57 147.5,-77"/>
<text text-anchor="middle" x="114.38" y="-63.5" font-family="Helvetica,sans-Serif" font-size="10.00">real_setup1</text>
</a>
</g>
</g>
<!-- Node1&#45;&gt;Node2 -->
<g id="edge1_Node000001_Node000002" class="edge">
<title>Node1&#45;&gt;Node2</title>
<g id="a_edge1_Node000001_Node000002"><a xlink:title=" ">
<path fill="none" stroke="#63b8ff" d="M45.35,-67C52.7,-67 61.19,-67 69.62,-67"/>
<polygon fill="#63b8ff" stroke="#63b8ff" points="69.46,-70.5 79.46,-67 69.46,-63.5 69.46,-70.5"/>
</a>
</g>
</g>
<!-- Node3 -->
<g id="Node000003" class="node">
<title>Node3</title>
<g id="a_Node000003"><a xlink:href="classErrorDisplay.html#a25018c85cd6b4055a5e796153b997d13" target="_top" xlink:title="Sets the error code to the given value if the given error is of a higher priority then the current er...">
<polygon fill="white" stroke="#666666" points="300.38,-134 185.38,-134 185.38,-114 300.38,-114 300.38,-134"/>
<text text-anchor="middle" x="242.88" y="-120.5" font-family="Helvetica,sans-Serif" font-size="10.00">ErrorDisplay::addCode</text>
</a>
</g>
</g>
<!-- Node2&#45;&gt;Node3 -->
<g id="edge2_Node000002_Node000003" class="edge">
<title>Node2&#45;&gt;Node3</title>
<g id="a_edge2_Node000002_Node000003"><a xlink:title=" ">
<path fill="none" stroke="#63b8ff" d="M131.99,-77.47C145.5,-85.69 165.26,-97.03 183.5,-105 187.29,-106.65 191.27,-108.24 195.29,-109.75"/>
<polygon fill="#63b8ff" stroke="#63b8ff" points="193.94,-112.98 204.54,-113.02 196.28,-106.38 193.94,-112.98"/>
</a>
</g>
</g>
<!-- Node4 -->
<g id="Node000004" class="node">
<title>Node4</title>
<g id="a_Node000004"><a xlink:href="classErrorDisplay.html#a4f9e7e64ffc64711653b539bf3d8d24f" target="_top" xlink:title="Accesses the only instance of ErrorDisplay (Singleton)">
<polygon fill="white" stroke="#666666" points="299.25,-96 186.5,-96 186.5,-76 299.25,-76 299.25,-96"/>
<text text-anchor="middle" x="242.88" y="-82.5" font-family="Helvetica,sans-Serif" font-size="10.00">ErrorDisplay::instance</text>
</a>
</g>
</g>
<!-- Node2&#45;&gt;Node4 -->
<g id="edge3_Node000002_Node000004" class="edge">
<title>Node2&#45;&gt;Node4</title>
<g id="a_edge3_Node000002_Node000004"><a xlink:title=" ">
<path fill="none" stroke="#63b8ff" d="M147.95,-71.89C156.37,-73.16 165.75,-74.57 175.22,-75.99"/>
<polygon fill="#63b8ff" stroke="#63b8ff" points="174.44,-79.41 184.85,-77.43 175.48,-72.49 174.44,-79.41"/>
</a>
</g>
</g>
<!-- Node5 -->
<g id="Node000005" class="node">
<title>Node5</title>
<g id="a_Node000005"><a xlink:href="classDevice.html#af64c14c9b8d2c9001f81c1ce6776a565" target="_top" xlink:title="Set recovery config (used keep default constructor)">
<polygon fill="white" stroke="#666666" points="302.25,-58 183.5,-58 183.5,-38 302.25,-38 302.25,-58"/>
<text text-anchor="middle" x="242.88" y="-44.5" font-family="Helvetica,sans-Serif" font-size="10.00">Device::recoveryConfig</text>
</a>
</g>
</g>
<!-- Node2&#45;&gt;Node5 -->
<g id="edge4_Node000002_Node000005" class="edge">
<title>Node2&#45;&gt;Node5</title>
<g id="a_edge4_Node000002_Node000005"><a xlink:title=" ">
<path fill="none" stroke="#63b8ff" d="M147.95,-62.11C155.49,-60.98 163.78,-59.73 172.24,-58.46"/>
<polygon fill="#63b8ff" stroke="#63b8ff" points="172.52,-61.96 181.89,-57.01 171.48,-55.03 172.52,-61.96"/>
</a>
</g>
</g>
<!-- Node8 -->
<g id="Node000008" class="node">
<title>Node8</title>
<g id="a_Node000008"><a xlink:href="main1_8cpp.html#ae906e774900a66757cd10a72cdfc458d" target="_top" xlink:title="Verifies the connection with each storage device, and defines the header_condensed field,...">
<polygon fill="white" stroke="#666666" points="300.75,-20 185,-20 185,0 300.75,0 300.75,-20"/>
<text text-anchor="middle" x="242.88" y="-6.5" font-family="Helvetica,sans-Serif" font-size="10.00">verifyStorageRecovery</text>
</a>
</g>
</g>
<!-- Node2&#45;&gt;Node8 -->
<g id="edge7_Node000002_Node000008" class="edge">
<title>Node2&#45;&gt;Node8</title>
<g id="a_edge7_Node000002_Node000008"><a xlink:title=" ">
<path fill="none" stroke="#63b8ff" d="M131.99,-56.53C145.5,-48.31 165.26,-36.97 183.5,-29 187.29,-27.35 191.27,-25.76 195.29,-24.25"/>
<polygon fill="#63b8ff" stroke="#63b8ff" points="196.28,-27.62 204.54,-20.98 193.94,-21.02 196.28,-27.62"/>
</a>
</g>
</g>
<!-- Node6 -->
<g id="Node000006" class="node">
<title>Node6</title>
<g id="a_Node000006"><a xlink:href="classDevice.html#a55cbddb95f3d79876d10e8d5bc85ba5d" target="_top" xlink:title="Set max_attempts.">
<polygon fill="white" stroke="#666666" points="463,-77 338.25,-77 338.25,-57 463,-57 463,-77"/>
<text text-anchor="middle" x="400.62" y="-63.5" font-family="Helvetica,sans-Serif" font-size="10.00">Device::setMaxAttempts</text>
</a>
</g>
</g>
<!-- Node5&#45;&gt;Node6 -->
<g id="edge5_Node000005_Node000006" class="edge">
<title>Node5&#45;&gt;Node6</title>
<g id="a_edge5_Node000005_Node000006"><a xlink:title=" ">
<path fill="none" stroke="#63b8ff" d="M302.31,-55.13C310.23,-56.1 318.44,-57.1 326.58,-58.09"/>
<polygon fill="#63b8ff" stroke="#63b8ff" points="326.14,-61.56 336.49,-59.3 326.99,-54.61 326.14,-61.56"/>
</a>
</g>
</g>
<!-- Node7 -->
<g id="Node000007" class="node">
<title>Node7</title>
<g id="a_Node000007"><a xlink:href="classDevice.html#ae71d2f19c89f1ebfcd756c030458f3b5" target="_top" xlink:title="Set wait_factor.">
<polygon fill="white" stroke="#666666" points="457.38,-39 343.88,-39 343.88,-19 457.38,-19 457.38,-39"/>
<text text-anchor="middle" x="400.62" y="-25.5" font-family="Helvetica,sans-Serif" font-size="10.00">Device::setWaitFactor</text>
</a>
</g>
</g>
<!-- Node5&#45;&gt;Node7 -->
<g id="edge6_Node000005_Node000007" class="edge">
<title>Node5&#45;&gt;Node7</title>
<g id="a_edge6_Node000005_Node000007"><a xlink:title=" ">
<path fill="none" stroke="#63b8ff" d="M302.31,-40.87C312.1,-39.68 322.32,-38.43 332.3,-37.21"/>
<polygon fill="#63b8ff" stroke="#63b8ff" points="332.44,-40.72 341.94,-36.04 331.59,-33.77 332.44,-40.72"/>
</a>
</g>
</g>
</g>
</svg>
</svg>

<style type='text/css'>
<![CDATA[
[data-mouse-over-selected='false'] { opacity: 0.7; }
[data-mouse-over-selected='true']  { opacity: 1.0; }
]]>
</style>
<script type="application/ecmascript"><![CDATA[
document.addEventListener('DOMContentLoaded', (event) => {
  highlightEdges();
  highlightAdjacentNodes();
});
]]></script>
</svg>
