<?xml version="1.0" encoding="UTF-8" standalone="no"?>
<!DOCTYPE svg PUBLIC "-//W3C//DTD SVG 1.1//EN"
 "http://www.w3.org/Graphics/SVG/1.1/DTD/svg11.dtd">
<!-- Generated by graphviz version 2.43.0 (0)
 -->
<!-- Title: setup Pages: 1 -->
<svg width="391pt" height="175pt"
 viewBox="0.00 0.00 391.00 175.00" xmlns="http://www.w3.org/2000/svg" xmlns:xlink="http://www.w3.org/1999/xlink">
<g id="graph0" class="graph" transform="scale(1 1) rotate(0) translate(4 171)">
<title>setup</title>
<!-- Node1 -->
<g id="Node000001" class="node">
<title>Node1</title>
<g id="a_Node000001"><a xlink:title="Setup for core 0.">
<polygon fill="#999999" stroke="#666666" points="44,-93 0,-93 0,-74 44,-74 44,-93"/>
<text text-anchor="middle" x="22" y="-81" font-family="Helvetica,sans-Serif" font-size="10.00">setup</text>
</a>
</g>
</g>
<!-- Node2 -->
<g id="Node000002" class="node">
<title>Node2</title>
<g id="a_Node000002"><a xlink:href="classErrorDisplay.html#a25018c85cd6b4055a5e796153b997d13" target="_top" xlink:title="Sets the error code to the given value if the given error is of a higher priority then the current er...">
<polygon fill="white" stroke="#666666" points="207.5,-167 82.5,-167 82.5,-148 207.5,-148 207.5,-167"/>
<text text-anchor="middle" x="145" y="-155" font-family="Helvetica,sans-Serif" font-size="10.00">ErrorDisplay::addCode</text>
</a>
</g>
</g>
<!-- Node1&#45;&gt;Node2 -->
<g id="edge1_Node000001_Node000002" class="edge">
<title>Node1&#45;&gt;Node2</title>
<g id="a_edge1_Node000001_Node000002"><a xlink:title=" ">
<path fill="none" stroke="#63b8ff" d="M30.37,-93.33C40.29,-105.87 59.12,-127.39 80,-139.5 83.04,-141.26 86.26,-142.86 89.57,-144.3"/>
<polygon fill="#63b8ff" stroke="#63b8ff" points="88.51,-147.65 99.1,-147.99 91.04,-141.12 88.51,-147.65"/>
</a>
</g>
</g>
<!-- Node3 -->
<g id="Node000003" class="node">
<title>Node3</title>
<g id="a_Node000003"><a xlink:href="classErrorDisplay.html#a4f9e7e64ffc64711653b539bf3d8d24f" target="_top" xlink:title="Accesses the only instance of ErrorDisplay (Singleton)">
<polygon fill="white" stroke="#666666" points="206.5,-130 83.5,-130 83.5,-111 206.5,-111 206.5,-130"/>
<text text-anchor="middle" x="145" y="-118" font-family="Helvetica,sans-Serif" font-size="10.00">ErrorDisplay::instance</text>
</a>
</g>
</g>
<!-- Node1&#45;&gt;Node3 -->
<g id="edge2_Node000001_Node000003" class="edge">
<title>Node1&#45;&gt;Node3</title>
<g id="a_edge2_Node000001_Node000003"><a xlink:title=" ">
<path fill="none" stroke="#63b8ff" d="M44.04,-90.78C54.76,-94.42 68.03,-98.83 80,-102.5 86.15,-104.39 92.67,-106.31 99.09,-108.16"/>
<polygon fill="#63b8ff" stroke="#63b8ff" points="98.46,-111.62 109.04,-110.99 100.37,-104.89 98.46,-111.62"/>
</a>
</g>
</g>
<!-- Node4 -->
<g id="Node000004" class="node">
<title>Node4</title>
<g id="a_Node000004"><a xlink:href="classDevice.html#af64c14c9b8d2c9001f81c1ce6776a565" target="_top" xlink:title="Set recovery config (used keep default constructor)">
<polygon fill="white" stroke="#666666" points="210,-93 80,-93 80,-74 210,-74 210,-93"/>
<text text-anchor="middle" x="145" y="-81" font-family="Helvetica,sans-Serif" font-size="10.00">Device::recoveryConfig</text>
</a>
</g>
</g>
<!-- Node1&#45;&gt;Node4 -->
<g id="edge3_Node000001_Node000004" class="edge">
<title>Node1&#45;&gt;Node4</title>
<g id="a_edge3_Node000001_Node000004"><a xlink:title=" ">
<path fill="none" stroke="#63b8ff" d="M44.08,-83.5C51.49,-83.5 60.29,-83.5 69.56,-83.5"/>
<polygon fill="#63b8ff" stroke="#63b8ff" points="69.75,-87 79.75,-83.5 69.75,-80 69.75,-87"/>
</a>
</g>
</g>
<!-- Node7 -->
<g id="Node000007" class="node">
<title>Node7</title>
<g id="a_Node000007"><a xlink:href="classErrorDisplay.html#a493bde338b369414abffe90e0d49e93b" target="_top" xlink:title="Toggles the level of the error display.">
<polygon fill="white" stroke="#666666" points="201.5,-56 88.5,-56 88.5,-37 201.5,-37 201.5,-56"/>
<text text-anchor="middle" x="145" y="-44" font-family="Helvetica,sans-Serif" font-size="10.00">ErrorDisplay::toggle</text>
</a>
</g>
</g>
<!-- Node1&#45;&gt;Node7 -->
<g id="edge6_Node000001_Node000007" class="edge">
<title>Node1&#45;&gt;Node7</title>
<g id="a_edge6_Node000001_Node000007"><a xlink:title=" ">
<path fill="none" stroke="#63b8ff" d="M44.09,-76.75C54.82,-73.33 68.09,-69.15 80,-65.5 87.01,-63.35 94.46,-61.11 101.71,-58.94"/>
<polygon fill="#63b8ff" stroke="#63b8ff" points="102.82,-62.26 111.41,-56.06 100.83,-55.55 102.82,-62.26"/>
</a>
</g>
</g>
<!-- Node8 -->
<g id="Node000008" class="node">
<title>Node8</title>
<g id="a_Node000008"><a xlink:href="main_8cpp.html#aa425d367210d5186b9622823077556fb" target="_top" xlink:title="Uses Device abstraction to verify sensors Incompatible with initial header generation.">
<polygon fill="white" stroke="#666666" points="206.5,-19 83.5,-19 83.5,0 206.5,0 206.5,-19"/>
<text text-anchor="middle" x="145" y="-7" font-family="Helvetica,sans-Serif" font-size="10.00">verifySensorRecovery</text>
</a>
</g>
</g>
<!-- Node1&#45;&gt;Node8 -->
<g id="edge7_Node000001_Node000008" class="edge">
<title>Node1&#45;&gt;Node8</title>
<g id="a_edge7_Node000001_Node000008"><a xlink:title=" ">
<path fill="none" stroke="#63b8ff" d="M30.44,-73.9C40.43,-61.63 59.33,-40.56 80,-28.5 83.66,-26.36 87.58,-24.45 91.61,-22.74"/>
<polygon fill="#63b8ff" stroke="#63b8ff" points="93.05,-25.94 101.15,-19.11 90.56,-19.4 93.05,-25.94"/>
</a>
</g>
</g>
<!-- Node5 -->
<g id="Node000005" class="node">
<title>Node5</title>
<g id="a_Node000005"><a xlink:href="classDevice.html#a55cbddb95f3d79876d10e8d5bc85ba5d" target="_top" xlink:title="Set max_attempts.">
<polygon fill="white" stroke="#666666" points="383,-111 246,-111 246,-92 383,-92 383,-111"/>
<text text-anchor="middle" x="314.5" y="-99" font-family="Helvetica,sans-Serif" font-size="10.00">Device::setMaxAttempts</text>
</a>
</g>
</g>
<!-- Node4&#45;&gt;Node5 -->
<g id="edge4_Node000004_Node000005" class="edge">
<title>Node4&#45;&gt;Node5</title>
<g id="a_edge4_Node000004_Node000005"><a xlink:title=" ">
<path fill="none" stroke="#63b8ff" d="M210.28,-90.41C218.64,-91.31 227.26,-92.23 235.81,-93.15"/>
<polygon fill="#63b8ff" stroke="#63b8ff" points="235.46,-96.63 245.78,-94.22 236.21,-89.67 235.46,-96.63"/>
</a>
</g>
</g>
<!-- Node6 -->
<g id="Node000006" class="node">
<title>Node6</title>
<g id="a_Node000006"><a xlink:href="classDevice.html#ae71d2f19c89f1ebfcd756c030458f3b5" target="_top" xlink:title="Set wait_factor.">
<polygon fill="white" stroke="#666666" points="375.5,-74 253.5,-74 253.5,-55 375.5,-55 375.5,-74"/>
<text text-anchor="middle" x="314.5" y="-62" font-family="Helvetica,sans-Serif" font-size="10.00">Device::setWaitFactor</text>
</a>
</g>
</g>
<!-- Node4&#45;&gt;Node6 -->
<g id="edge5_Node000004_Node000006" class="edge">
<title>Node4&#45;&gt;Node6</title>
<g id="a_edge5_Node000004_Node000006"><a xlink:title=" ">
<path fill="none" stroke="#63b8ff" d="M210.28,-76.21C221.09,-74.98 232.35,-73.7 243.3,-72.46"/>
<polygon fill="#63b8ff" stroke="#63b8ff" points="243.7,-75.94 253.24,-71.34 242.91,-68.98 243.7,-75.94"/>
</a>
</g>
</g>
</g>
</svg>
