<?xml version="1.0" encoding="UTF-8" standalone="no"?>
<!DOCTYPE svg PUBLIC "-//W3C//DTD SVG 1.1//EN"
 "http://www.w3.org/Graphics/SVG/1.1/DTD/svg11.dtd">
<!-- Generated by graphviz version 2.43.0 (0)
 -->
<!-- Title: main.cpp Pages: 1 -->
<!--zoomable 313 -->

<svg id="main" version="1.1" xmlns="http://www.w3.org/2000/svg" xmlns:xlink="http://www.w3.org/1999/xlink" xml:space="preserve" onload="init(evt)">
<style type="text/css"><![CDATA[
.node, .edge {opacity: 0.7;}
.node.selected, .edge.selected {opacity: 1;}
.edge:hover path { stroke: red; }
.edge:hover polygon { stroke: red; fill: red; }
]]></style>

<defs>
  <circle id="rim" cx="0" cy="0" r="7"/>
  <circle id="rim2" cx="0" cy="0" r="3.5"/>
  <g id="zoomPlus">
    <use xlink:href="#rim" fill="#404040"><set attributeName="fill" to="#808080" begin="zoomplus.mouseover" end="zoomplus.mouseout"/></use>
    <path d="M-4,0h8M0,-4v8" fill="none" stroke="white" stroke-width="1.5" pointer-events="none"/>
  </g>
  <g id="zoomMin">
    <use xlink:href="#rim" fill="#404040"><set attributeName="fill" to="#808080" begin="zoomminus.mouseover" end="zoomminus.mouseout"/></use>
    <path d="M-4,0h8" fill="none" stroke="white" stroke-width="1.5" pointer-events="none"/>
  </g>
  <g id="arrowUp" transform="translate(30 24)">
    <use xlink:href="#rim"/>
    <path pointer-events="none" fill="none" stroke="white" stroke-width="1.5" d="M0,-3.0v7 M-2.5,-0.5L0,-3.0L2.5,-0.5"/>
  </g>
  <g id="arrowRight" transform="rotate(90) translate(36 -43)">
    <use xlink:href="#rim"/>
    <path pointer-events="none" fill="none" stroke="white" stroke-width="1.5" d="M0,-3.0v7 M-2.5,-0.5L0,-3.0L2.5,-0.5"/>
  </g>
  <g id="arrowDown" transform="rotate(180) translate(-30 -48)">
    <use xlink:href="#rim"/>
    <path pointer-events="none" fill="none" stroke="white" stroke-width="1.5" d="M0,-3.0v7 M-2.5,-0.5L0,-3.0L2.5,-0.5"/>
  </g>
  <g id="arrowLeft" transform="rotate(270) translate(-36 17)">
    <use xlink:href="#rim"/>
    <path pointer-events="none" fill="none" stroke="white" stroke-width="1.5" d="M0,-3.0v7 M-2.5,-0.5L0,-3.0L2.5,-0.5"/>
  </g>
  <g id="resetDef">
    <use xlink:href="#rim2" fill="#404040"><set attributeName="fill" to="#808080" begin="reset.mouseover" end="reset.mouseout"/></use>
  </g>
</defs>
<script type="application/ecmascript">
var viewWidth = 2235;
var viewHeight = 313;
var sectionId = 'dynsection-0';
</script>
<script type="application/ecmascript" xlink:href="svg.min.js"/>
<svg id="graph" class="graph">
<g id="viewport">
<title>main.cpp</title>
<!-- Node1 -->
<g id="Node000001" class="node">
<title>Node1</title>
<g id="a_Node000001"><a xlink:title="Main functions for Core 0, responsible for reading data from sensor peripherals.">
<polygon fill="#999999" stroke="#666666" points="1022,-305 960,-305 960,-286 1022,-286 1022,-305"/>
<text text-anchor="middle" x="991" y="-293" font-family="Helvetica,sans-Serif" font-size="10.00">main.cpp</text>
</a>
</g>
</g>
<!-- Node2 -->
<g id="Node000002" class="node">
<title>Node2</title>
<g id="a_Node000002"><a xlink:title=" ">
<polygon fill="#e0e0e0" stroke="#999999" points="675.5,-19 612.5,-19 612.5,0 675.5,0 675.5,-19"/>
<text text-anchor="middle" x="644" y="-7" font-family="Helvetica,sans-Serif" font-size="10.00">Arduino.h</text>
</a>
</g>
</g>
<!-- Node1&#45;&gt;Node2 -->
<g id="edge1_Node000001_Node000002" class="edge">
<title>Node1&#45;&gt;Node2</title>
<g id="a_edge1_Node000001_Node000002"><a xlink:title=" ">
<path fill="none" stroke="#63b8ff" d="M959.63,-294.08C809.82,-291.92 171,-280.97 88,-250 41.44,-232.63 0,-230.7 0,-181 0,-181 0,-181 0,-118.5 0,-57.26 458.86,-22.45 601.93,-13.09"/>
<polygon fill="#63b8ff" stroke="#63b8ff" points="602.31,-16.57 612.06,-12.44 601.86,-9.59 602.31,-16.57"/>
</a>
</g>
</g>
<!-- Node3 -->
<g id="Node000003" class="node">
<title>Node3</title>
<g id="a_Node000003"><a xlink:href="ErrorDisplay_8h.html" target="_top" xlink:title=" ">
<polygon fill="white" stroke="#666666" points="2024,-250 1940,-250 1940,-231 2024,-231 2024,-250"/>
<text text-anchor="middle" x="1982" y="-238" font-family="Helvetica,sans-Serif" font-size="10.00">ErrorDisplay.h</text>
</a>
</g>
</g>
<!-- Node1&#45;&gt;Node3 -->
<g id="edge2_Node000001_Node000003" class="edge">
<title>Node1&#45;&gt;Node3</title>
<g id="a_edge2_Node000001_Node000003"><a xlink:title=" ">
<path fill="none" stroke="#63b8ff" d="M1022.02,-292.84C1163.7,-285.26 1750.09,-253.9 1929.56,-244.3"/>
<polygon fill="#63b8ff" stroke="#63b8ff" points="1930,-247.79 1939.8,-243.76 1929.62,-240.8 1930,-247.79"/>
</a>
</g>
</g>
<!-- Node4 -->
<g id="Node000004" class="node">
<title>Node4</title>
<g id="a_Node000004"><a xlink:href="PayloadConfig_8h.html" target="_top" xlink:title="Central location for pinout and config defines.">
<polygon fill="white" stroke="#666666" points="1478.5,-189.5 1383.5,-189.5 1383.5,-170.5 1478.5,-170.5 1478.5,-189.5"/>
<text text-anchor="middle" x="1431" y="-177.5" font-family="Helvetica,sans-Serif" font-size="10.00">PayloadConfig.h</text>
</a>
</g>
</g>
<!-- Node1&#45;&gt;Node4 -->
<g id="edge9_Node000001_Node000004" class="edge">
<title>Node1&#45;&gt;Node4</title>
<g id="a_edge9_Node000001_Node000004"><a xlink:title=" ">
<path fill="none" stroke="#63b8ff" d="M1022.26,-292.96C1098.54,-288.84 1292.28,-276.04 1351,-250 1378.13,-237.97 1402.92,-213.59 1417.49,-197.27"/>
<polygon fill="#63b8ff" stroke="#63b8ff" points="1420.25,-199.43 1424.14,-189.58 1414.95,-194.85 1420.25,-199.43"/>
</a>
</g>
</g>
<!-- Node7 -->
<g id="Node000007" class="node">
<title>Node7</title>
<g id="a_Node000007"><a xlink:href="Logger_8h.html" target="_top" xlink:title=" ">
<polygon fill="white" stroke="#666666" points="673,-74 615,-74 615,-55 673,-55 673,-74"/>
<text text-anchor="middle" x="644" y="-62" font-family="Helvetica,sans-Serif" font-size="10.00">Logger.h</text>
</a>
</g>
</g>
<!-- Node1&#45;&gt;Node7 -->
<g id="edge7_Node000001_Node000007" class="edge">
<title>Node1&#45;&gt;Node7</title>
<g id="a_edge7_Node000001_Node000007"><a xlink:title=" ">
<path fill="none" stroke="#63b8ff" d="M959.89,-294.44C871.97,-293.79 614.48,-288.48 405,-250 320.21,-234.43 270.59,-264.06 219,-195 211.02,-184.32 210.72,-175.45 219,-165 267.05,-104.4 508.62,-77.19 604.6,-68.64"/>
<polygon fill="#63b8ff" stroke="#63b8ff" points="605.1,-72.11 614.76,-67.76 604.5,-65.13 605.1,-72.11"/>
</a>
</g>
</g>
<!-- Node8 -->
<g id="Node000008" class="node">
<title>Node8</title>
<g id="a_Node000008"><a xlink:href="CommandMessage_8h.html" target="_top" xlink:title=" ">
<polygon fill="white" stroke="#666666" points="2161.5,-250 2042.5,-250 2042.5,-231 2161.5,-231 2161.5,-250"/>
<text text-anchor="middle" x="2102" y="-238" font-family="Helvetica,sans-Serif" font-size="10.00">CommandMessage.h</text>
</a>
</g>
</g>
<!-- Node1&#45;&gt;Node8 -->
<g id="edge10_Node000001_Node000008" class="edge">
<title>Node1&#45;&gt;Node8</title>
<g id="a_edge10_Node000001_Node000008"><a xlink:title=" ">
<path fill="none" stroke="#63b8ff" d="M1022.17,-294.08C1147.45,-292.19 1626.61,-283.14 2032.03,-250"/>
<polygon fill="#63b8ff" stroke="#63b8ff" points="2032.51,-253.47 2042.19,-249.16 2031.94,-246.5 2032.51,-253.47"/>
</a>
</g>
</g>
<!-- Node9 -->
<g id="Node000009" class="node">
<title>Node9</title>
<g id="a_Node000009"><a xlink:href="Sensor_8h.html" target="_top" xlink:title=" ">
<polygon fill="white" stroke="#666666" points="1003,-189.5 945,-189.5 945,-170.5 1003,-170.5 1003,-189.5"/>
<text text-anchor="middle" x="974" y="-177.5" font-family="Helvetica,sans-Serif" font-size="10.00">Sensor.h</text>
</a>
</g>
</g>
<!-- Node1&#45;&gt;Node9 -->
<g id="edge13_Node000001_Node000009" class="edge">
<title>Node1&#45;&gt;Node9</title>
<g id="a_edge13_Node000001_Node000009"><a xlink:title=" ">
<path fill="none" stroke="#63b8ff" d="M989.72,-285.97C986.99,-267.73 980.53,-224.57 976.79,-199.64"/>
<polygon fill="#63b8ff" stroke="#63b8ff" points="980.24,-199 975.29,-189.63 973.31,-200.04 980.24,-199"/>
</a>
</g>
</g>
<!-- Node11 -->
<g id="Node000011" class="node">
<title>Node11</title>
<g id="a_Node000011"><a xlink:href="AS7331Sensor_8h.html" target="_top" xlink:title=" ">
<polygon fill="white" stroke="#666666" points="860.5,-250 765.5,-250 765.5,-231 860.5,-231 860.5,-250"/>
<text text-anchor="middle" x="813" y="-238" font-family="Helvetica,sans-Serif" font-size="10.00">AS7331Sensor.h</text>
</a>
</g>
</g>
<!-- Node1&#45;&gt;Node11 -->
<g id="edge19_Node000001_Node000011" class="edge">
<title>Node1&#45;&gt;Node11</title>
<g id="a_edge19_Node000001_Node000011"><a xlink:title=" ">
<path fill="none" stroke="#63b8ff" d="M962.4,-285.98C932.39,-277.05 885.02,-262.94 851.68,-253.02"/>
<polygon fill="#63b8ff" stroke="#63b8ff" points="852.41,-249.58 841.82,-250.08 850.41,-256.29 852.41,-249.58"/>
</a>
</g>
</g>
<!-- Node15 -->
<g id="Node000015" class="node">
<title>Node15</title>
<g id="a_Node000015"><a xlink:href="BMP390Sensor_8h.html" target="_top" xlink:title=" ">
<polygon fill="white" stroke="#666666" points="512,-250 414,-250 414,-231 512,-231 512,-250"/>
<text text-anchor="middle" x="463" y="-238" font-family="Helvetica,sans-Serif" font-size="10.00">BMP390Sensor.h</text>
</a>
</g>
</g>
<!-- Node1&#45;&gt;Node15 -->
<g id="edge25_Node000001_Node000015" class="edge">
<title>Node1&#45;&gt;Node15</title>
<g id="a_edge25_Node000001_Node000015"><a xlink:title=" ">
<path fill="none" stroke="#63b8ff" d="M959.87,-292.11C885.88,-286.3 693.5,-270.5 521.99,-250.06"/>
<polygon fill="#63b8ff" stroke="#63b8ff" points="522.37,-246.58 512.02,-248.86 521.54,-253.53 522.37,-246.58"/>
</a>
</g>
</g>
<!-- Node17 -->
<g id="Node000017" class="node">
<title>Node17</title>
<g id="a_Node000017"><a xlink:href="ENS160Sensor_8h.html" target="_top" xlink:title=" ">
<polygon fill="white" stroke="#666666" points="747.5,-250 652.5,-250 652.5,-231 747.5,-231 747.5,-250"/>
<text text-anchor="middle" x="700" y="-238" font-family="Helvetica,sans-Serif" font-size="10.00">ENS160Sensor.h</text>
</a>
</g>
</g>
<!-- Node1&#45;&gt;Node17 -->
<g id="edge29_Node000001_Node000017" class="edge">
<title>Node1&#45;&gt;Node17</title>
<g id="a_edge29_Node000001_Node000017"><a xlink:title=" ">
<path fill="none" stroke="#63b8ff" d="M959.86,-288.83C911.49,-280.02 817.56,-262.91 756.87,-251.86"/>
<polygon fill="#63b8ff" stroke="#63b8ff" points="757.15,-248.35 746.68,-250 755.89,-255.24 757.15,-248.35"/>
</a>
</g>
</g>
<!-- Node19 -->
<g id="Node000019" class="node">
<title>Node19</title>
<g id="a_Node000019"><a xlink:href="ICM20948Sensor_8h.html" target="_top" xlink:title=" ">
<polygon fill="white" stroke="#666666" points="1506.5,-250 1399.5,-250 1399.5,-231 1506.5,-231 1506.5,-250"/>
<text text-anchor="middle" x="1453" y="-238" font-family="Helvetica,sans-Serif" font-size="10.00">ICM20948Sensor.h</text>
</a>
</g>
</g>
<!-- Node1&#45;&gt;Node19 -->
<g id="edge34_Node000001_Node000019" class="edge">
<title>Node1&#45;&gt;Node19</title>
<g id="a_edge34_Node000001_Node000019"><a xlink:title=" ">
<path fill="none" stroke="#63b8ff" d="M1022.17,-291.11C1088.8,-283.83 1250,-266.06 1385,-250 1386.3,-249.85 1387.61,-249.69 1388.93,-249.53"/>
<polygon fill="#63b8ff" stroke="#63b8ff" points="1389.68,-252.97 1399.19,-248.29 1388.84,-246.02 1389.68,-252.97"/>
</a>
</g>
</g>
<!-- Node23 -->
<g id="Node000023" class="node">
<title>Node23</title>
<g id="a_Node000023"><a xlink:href="INA260Sensor_8h.html" target="_top" xlink:title=" ">
<polygon fill="white" stroke="#666666" points="190.5,-250 97.5,-250 97.5,-231 190.5,-231 190.5,-250"/>
<text text-anchor="middle" x="144" y="-238" font-family="Helvetica,sans-Serif" font-size="10.00">INA260Sensor.h</text>
</a>
</g>
</g>
<!-- Node1&#45;&gt;Node23 -->
<g id="edge41_Node000001_Node000023" class="edge">
<title>Node1&#45;&gt;Node23</title>
<g id="a_edge41_Node000001_Node000023"><a xlink:title=" ">
<path fill="none" stroke="#63b8ff" d="M959.85,-293.65C853.9,-290.58 497.8,-278.64 205,-250 203.54,-249.86 202.05,-249.7 200.56,-249.54"/>
<polygon fill="#63b8ff" stroke="#63b8ff" points="200.92,-246.06 190.58,-248.39 200.11,-253.02 200.92,-246.06"/>
</a>
</g>
</g>
<!-- Node25 -->
<g id="Node000025" class="node">
<title>Node25</title>
<g id="a_Node000025"><a xlink:href="MTK3339Sensor_8h.html" target="_top" xlink:title=" ">
<polygon fill="white" stroke="#666666" points="634,-250 530,-250 530,-231 634,-231 634,-250"/>
<text text-anchor="middle" x="582" y="-238" font-family="Helvetica,sans-Serif" font-size="10.00">MTK3339Sensor.h</text>
</a>
</g>
</g>
<!-- Node1&#45;&gt;Node25 -->
<g id="edge46_Node000001_Node000025" class="edge">
<title>Node1&#45;&gt;Node25</title>
<g id="a_edge46_Node000001_Node000025"><a xlink:title=" ">
<path fill="none" stroke="#63b8ff" d="M959.79,-290.63C900.47,-283.24 767.1,-266.52 644.2,-250.15"/>
<polygon fill="#63b8ff" stroke="#63b8ff" points="644.61,-246.67 634.24,-248.82 643.69,-253.61 644.61,-246.67"/>
</a>
</g>
</g>
<!-- Node27 -->
<g id="Node000027" class="node">
<title>Node27</title>
<g id="a_Node000027"><a xlink:href="OzoneSensor_8h.html" target="_top" xlink:title=" ">
<polygon fill="white" stroke="#666666" points="1342.5,-250 1253.5,-250 1253.5,-231 1342.5,-231 1342.5,-250"/>
<text text-anchor="middle" x="1298" y="-238" font-family="Helvetica,sans-Serif" font-size="10.00">OzoneSensor.h</text>
</a>
</g>
</g>
<!-- Node1&#45;&gt;Node27 -->
<g id="edge52_Node000001_Node000027" class="edge">
<title>Node1&#45;&gt;Node27</title>
<g id="a_edge52_Node000001_Node000027"><a xlink:title=" ">
<path fill="none" stroke="#63b8ff" d="M1022.13,-289.13C1074.07,-280.16 1179.08,-262.03 1243.5,-250.91"/>
<polygon fill="#63b8ff" stroke="#63b8ff" points="1244.22,-254.34 1253.48,-249.19 1243.03,-247.44 1244.22,-254.34"/>
</a>
</g>
</g>
<!-- Node29 -->
<g id="Node000029" class="node">
<title>Node29</title>
<g id="a_Node000029"><a xlink:href="PCF8523Sensor_8h.html" target="_top" xlink:title=" ">
<polygon fill="white" stroke="#666666" points="1235.5,-250 1134.5,-250 1134.5,-231 1235.5,-231 1235.5,-250"/>
<text text-anchor="middle" x="1185" y="-238" font-family="Helvetica,sans-Serif" font-size="10.00">PCF8523Sensor.h</text>
</a>
</g>
</g>
<!-- Node1&#45;&gt;Node29 -->
<g id="edge56_Node000001_Node000029" class="edge">
<title>Node1&#45;&gt;Node29</title>
<g id="a_edge56_Node000001_Node000029"><a xlink:title=" ">
<path fill="none" stroke="#63b8ff" d="M1022.17,-285.98C1055.16,-276.97 1107.4,-262.7 1143.77,-252.76"/>
<polygon fill="#63b8ff" stroke="#63b8ff" points="1144.86,-256.09 1153.59,-250.08 1143.02,-249.34 1144.86,-256.09"/>
</a>
</g>
</g>
<!-- Node31 -->
<g id="Node000031" class="node">
<title>Node31</title>
<g id="a_Node000031"><a xlink:href="SHTC3Sensor_8h.html" target="_top" xlink:title=" ">
<polygon fill="white" stroke="#666666" points="1613.5,-250 1524.5,-250 1524.5,-231 1613.5,-231 1613.5,-250"/>
<text text-anchor="middle" x="1569" y="-238" font-family="Helvetica,sans-Serif" font-size="10.00">SHTC3Sensor.h</text>
</a>
</g>
</g>
<!-- Node1&#45;&gt;Node31 -->
<g id="edge59_Node000001_Node000031" class="edge">
<title>Node1&#45;&gt;Node31</title>
<g id="a_edge59_Node000001_Node000031"><a xlink:title=" ">
<path fill="none" stroke="#63b8ff" d="M1022.09,-292.64C1101.92,-287.69 1320.86,-273.08 1514.19,-250.01"/>
<polygon fill="#63b8ff" stroke="#63b8ff" points="1514.74,-253.47 1524.25,-248.8 1513.9,-246.52 1514.74,-253.47"/>
</a>
</g>
</g>
<!-- Node33 -->
<g id="Node000033" class="node">
<title>Node33</title>
<g id="a_Node000033"><a xlink:href="TMP11xSensor_8h.html" target="_top" xlink:title=" ">
<polygon fill="white" stroke="#666666" points="1116.5,-250 1019.5,-250 1019.5,-231 1116.5,-231 1116.5,-250"/>
<text text-anchor="middle" x="1068" y="-238" font-family="Helvetica,sans-Serif" font-size="10.00">TMP11xSensor.h</text>
</a>
</g>
</g>
<!-- Node1&#45;&gt;Node33 -->
<g id="edge63_Node000001_Node000033" class="edge">
<title>Node1&#45;&gt;Node33</title>
<g id="a_edge63_Node000001_Node000033"><a xlink:title=" ">
<path fill="none" stroke="#63b8ff" d="M1003.37,-285.98C1015.09,-277.92 1032.92,-265.65 1046.89,-256.03"/>
<polygon fill="#63b8ff" stroke="#63b8ff" points="1049.15,-258.72 1055.4,-250.17 1045.18,-252.96 1049.15,-258.72"/>
</a>
</g>
</g>
<!-- Node35 -->
<g id="Node000035" class="node">
<title>Node35</title>
<g id="a_Node000035"><a xlink:href="TempSensor_8h.html" target="_top" xlink:title=" ">
<polygon fill="white" stroke="#666666" points="963,-250 879,-250 879,-231 963,-231 963,-250"/>
<text text-anchor="middle" x="921" y="-238" font-family="Helvetica,sans-Serif" font-size="10.00">TempSensor.h</text>
</a>
</g>
</g>
<!-- Node1&#45;&gt;Node35 -->
<g id="edge68_Node000001_Node000035" class="edge">
<title>Node1&#45;&gt;Node35</title>
<g id="a_edge68_Node000001_Node000035"><a xlink:title=" ">
<path fill="none" stroke="#63b8ff" d="M979.75,-285.98C969.2,-278 953.2,-265.88 940.56,-256.31"/>
<polygon fill="#63b8ff" stroke="#63b8ff" points="942.54,-253.42 932.45,-250.17 938.31,-259 942.54,-253.42"/>
</a>
</g>
</g>
<!-- Node3&#45;&gt;Node2 -->
<g id="edge3_Node000003_Node000002" class="edge">
<title>Node3&#45;&gt;Node2</title>
<g id="a_edge3_Node000003_Node000002"><a xlink:title=" ">
<path fill="none" stroke="#63b8ff" d="M1986.43,-230.87C1993.61,-215.54 2005.43,-183.42 1989,-165 1899.88,-65.05 903.56,-20.62 685.86,-12.06"/>
<polygon fill="#63b8ff" stroke="#63b8ff" points="685.92,-8.56 675.8,-11.67 685.65,-15.56 685.92,-8.56"/>
</a>
</g>
</g>
<!-- Node3&#45;&gt;Node4 -->
<g id="edge4_Node000003_Node000004" class="edge">
<title>Node3&#45;&gt;Node4</title>
<g id="a_edge4_Node000003_Node000004"><a xlink:title=" ">
<path fill="none" stroke="#63b8ff" d="M1940,-237.93C1854.3,-234.23 1653.33,-223.09 1487,-195 1481.94,-194.15 1476.67,-193.07 1471.47,-191.9"/>
<polygon fill="#63b8ff" stroke="#63b8ff" points="1472.17,-188.47 1461.63,-189.57 1470.55,-195.28 1472.17,-188.47"/>
</a>
</g>
</g>
<!-- Node5 -->
<g id="Node000005" class="node">
<title>Node5</title>
<g id="a_Node000005"><a xlink:title=" ">
<polygon fill="#e0e0e0" stroke="#999999" points="2226.5,-189.5 2131.5,-189.5 2131.5,-170.5 2226.5,-170.5 2226.5,-189.5"/>
<text text-anchor="middle" x="2179" y="-177.5" font-family="Helvetica,sans-Serif" font-size="10.00">pico/multicore.h</text>
</a>
</g>
</g>
<!-- Node3&#45;&gt;Node5 -->
<g id="edge5_Node000003_Node000005" class="edge">
<title>Node3&#45;&gt;Node5</title>
<g id="a_edge5_Node000003_Node000005"><a xlink:title=" ">
<path fill="none" stroke="#63b8ff" d="M2010.65,-230.99C2044.93,-220.81 2102.48,-203.72 2140.6,-192.4"/>
<polygon fill="#63b8ff" stroke="#63b8ff" points="2141.73,-195.72 2150.32,-189.52 2139.74,-189.01 2141.73,-195.72"/>
</a>
</g>
</g>
<!-- Node6 -->
<g id="Node000006" class="node">
<title>Node6</title>
<g id="a_Node000006"><a xlink:title=" ">
<polygon fill="#e0e0e0" stroke="#999999" points="2113,-189.5 2037,-189.5 2037,-170.5 2113,-170.5 2113,-189.5"/>
<text text-anchor="middle" x="2075" y="-177.5" font-family="Helvetica,sans-Serif" font-size="10.00">pico/stdlib.h</text>
</a>
</g>
</g>
<!-- Node3&#45;&gt;Node6 -->
<g id="edge6_Node000003_Node000006" class="edge">
<title>Node3&#45;&gt;Node6</title>
<g id="a_edge6_Node000003_Node000006"><a xlink:title=" ">
<path fill="none" stroke="#63b8ff" d="M1995.72,-230.87C2010.7,-221.45 2034.89,-206.23 2052.62,-195.08"/>
<polygon fill="#63b8ff" stroke="#63b8ff" points="2054.62,-197.95 2061.22,-189.67 2050.89,-192.03 2054.62,-197.95"/>
</a>
</g>
</g>
<!-- Node7&#45;&gt;Node2 -->
<g id="edge8_Node000007_Node000002" class="edge">
<title>Node7&#45;&gt;Node2</title>
<g id="a_edge8_Node000007_Node000002"><a xlink:title=" ">
<path fill="none" stroke="#63b8ff" d="M644,-54.75C644,-47.8 644,-37.85 644,-29.13"/>
<polygon fill="#63b8ff" stroke="#63b8ff" points="647.5,-29.09 644,-19.09 640.5,-29.09 647.5,-29.09"/>
</a>
</g>
</g>
<!-- Node8&#45;&gt;Node5 -->
<g id="edge11_Node000008_Node000005" class="edge">
<title>Node8&#45;&gt;Node5</title>
<g id="a_edge11_Node000008_Node000005"><a xlink:title=" ">
<path fill="none" stroke="#63b8ff" d="M2113.36,-230.87C2125.42,-221.71 2144.7,-207.06 2159.25,-196.01"/>
<polygon fill="#63b8ff" stroke="#63b8ff" points="2161.75,-198.5 2167.59,-189.67 2157.51,-192.93 2161.75,-198.5"/>
</a>
</g>
</g>
<!-- Node8&#45;&gt;Node6 -->
<g id="edge12_Node000008_Node000006" class="edge">
<title>Node8&#45;&gt;Node6</title>
<g id="a_edge12_Node000008_Node000006"><a xlink:title=" ">
<path fill="none" stroke="#63b8ff" d="M2098.02,-230.87C2094.15,-222.49 2088.16,-209.51 2083.26,-198.89"/>
<polygon fill="#63b8ff" stroke="#63b8ff" points="2086.37,-197.28 2079,-189.67 2080.01,-200.21 2086.37,-197.28"/>
</a>
</g>
</g>
<!-- Node9&#45;&gt;Node2 -->
<g id="edge14_Node000009_Node000002" class="edge">
<title>Node9&#45;&gt;Node2</title>
<g id="a_edge14_Node000009_Node000002"><a xlink:title=" ">
<path fill="none" stroke="#63b8ff" d="M957.18,-170.41C903.34,-142.92 734.93,-56.93 669.95,-23.75"/>
<polygon fill="#63b8ff" stroke="#63b8ff" points="671.28,-20.5 660.78,-19.07 668.1,-26.74 671.28,-20.5"/>
</a>
</g>
</g>
<!-- Node9&#45;&gt;Node7 -->
<g id="edge18_Node000009_Node000007" class="edge">
<title>Node9&#45;&gt;Node7</title>
<g id="a_edge18_Node000009_Node000007"><a xlink:title=" ">
<path fill="none" stroke="#63b8ff" d="M952.79,-170.46C947.09,-168.42 940.87,-166.43 935,-165 875.75,-150.62 709.4,-168.55 663,-129 650.15,-118.04 645.79,-98.78 644.41,-84.33"/>
<polygon fill="#63b8ff" stroke="#63b8ff" points="647.88,-83.82 643.83,-74.03 640.89,-84.21 647.88,-83.82"/>
</a>
</g>
</g>
<!-- Node10 -->
<g id="Node000010" class="node">
<title>Node10</title>
<g id="a_Node000010"><a xlink:href="Device_8h.html" target="_top" xlink:title=" ">
<polygon fill="white" stroke="#666666" points="731.5,-129 672.5,-129 672.5,-110 731.5,-110 731.5,-129"/>
<text text-anchor="middle" x="702" y="-117" font-family="Helvetica,sans-Serif" font-size="10.00">Device.h</text>
</a>
</g>
</g>
<!-- Node9&#45;&gt;Node10 -->
<g id="edge15_Node000009_Node000010" class="edge">
<title>Node9&#45;&gt;Node10</title>
<g id="a_edge15_Node000009_Node000010"><a xlink:title=" ">
<path fill="none" stroke="#63b8ff" d="M951.92,-170.4C946.44,-168.45 940.55,-166.52 935,-165 868.15,-146.74 788.51,-133.26 741.78,-126.16"/>
<polygon fill="#63b8ff" stroke="#63b8ff" points="742.17,-122.68 731.76,-124.66 741.13,-129.6 742.17,-122.68"/>
</a>
</g>
</g>
<!-- Node10&#45;&gt;Node2 -->
<g id="edge16_Node000010_Node000002" class="edge">
<title>Node10&#45;&gt;Node2</title>
<g id="a_edge16_Node000010_Node000002"><a xlink:title=" ">
<path fill="none" stroke="#63b8ff" d="M700.42,-109.84C697.87,-97.2 692.08,-73.2 682,-55 676.24,-44.6 667.81,-34.41 660.35,-26.42"/>
<polygon fill="#63b8ff" stroke="#63b8ff" points="662.83,-23.95 653.35,-19.22 657.81,-28.83 662.83,-23.95"/>
</a>
</g>
</g>
<!-- Node10&#45;&gt;Node7 -->
<g id="edge17_Node000010_Node000007" class="edge">
<title>Node10&#45;&gt;Node7</title>
<g id="a_edge17_Node000010_Node000007"><a xlink:title=" ">
<path fill="none" stroke="#63b8ff" d="M692.68,-109.98C684.19,-102.23 671.44,-90.58 661.12,-81.14"/>
<polygon fill="#63b8ff" stroke="#63b8ff" points="663.23,-78.33 653.49,-74.17 658.51,-83.5 663.23,-78.33"/>
</a>
</g>
</g>
<!-- Node11&#45;&gt;Node4 -->
<g id="edge23_Node000011_Node000004" class="edge">
<title>Node11&#45;&gt;Node4</title>
<g id="a_edge23_Node000011_Node000004"><a xlink:title=" ">
<path fill="none" stroke="#63b8ff" d="M860.55,-232.13C863.74,-231.72 866.92,-231.34 870,-231 1093.22,-206.42 1152.16,-229.91 1374,-195 1379.41,-194.15 1385.06,-193.04 1390.61,-191.81"/>
<polygon fill="#63b8ff" stroke="#63b8ff" points="1391.49,-195.2 1400.43,-189.52 1389.89,-188.39 1391.49,-195.2"/>
</a>
</g>
</g>
<!-- Node11&#45;&gt;Node9 -->
<g id="edge24_Node000011_Node000009" class="edge">
<title>Node11&#45;&gt;Node9</title>
<g id="a_edge24_Node000011_Node000009"><a xlink:title=" ">
<path fill="none" stroke="#63b8ff" d="M836.41,-230.99C863.95,-220.99 909.87,-204.3 941.01,-192.99"/>
<polygon fill="#63b8ff" stroke="#63b8ff" points="942.36,-196.22 950.56,-189.52 939.97,-189.64 942.36,-196.22"/>
</a>
</g>
</g>
<!-- Node12 -->
<g id="Node000012" class="node">
<title>Node12</title>
<g id="a_Node000012"><a xlink:title=" ">
<polygon fill="#e0e0e0" stroke="#999999" points="926.5,-189.5 813.5,-189.5 813.5,-170.5 926.5,-170.5 926.5,-189.5"/>
<text text-anchor="middle" x="870" y="-177.5" font-family="Helvetica,sans-Serif" font-size="10.00">SparkFun_AS7331.h</text>
</a>
</g>
</g>
<!-- Node11&#45;&gt;Node12 -->
<g id="edge20_Node000011_Node000012" class="edge">
<title>Node11&#45;&gt;Node12</title>
<g id="a_edge20_Node000011_Node000012"><a xlink:title=" ">
<path fill="none" stroke="#63b8ff" d="M821.41,-230.87C830.08,-221.97 843.8,-207.89 854.46,-196.95"/>
<polygon fill="#63b8ff" stroke="#63b8ff" points="857.08,-199.27 861.55,-189.67 852.07,-194.39 857.08,-199.27"/>
</a>
</g>
</g>
<!-- Node13 -->
<g id="Node000013" class="node">
<title>Node13</title>
<g id="a_Node000013"><a xlink:title=" ">
<polygon fill="#e0e0e0" stroke="#999999" points="724,-189.5 676,-189.5 676,-170.5 724,-170.5 724,-189.5"/>
<text text-anchor="middle" x="700" y="-177.5" font-family="Helvetica,sans-Serif" font-size="10.00">Wire.h</text>
</a>
</g>
</g>
<!-- Node11&#45;&gt;Node13 -->
<g id="edge21_Node000011_Node000013" class="edge">
<title>Node11&#45;&gt;Node13</title>
<g id="a_edge21_Node000011_Node000013"><a xlink:title=" ">
<path fill="none" stroke="#63b8ff" d="M796.33,-230.87C777.72,-221.23 747.38,-205.53 725.72,-194.31"/>
<polygon fill="#63b8ff" stroke="#63b8ff" points="727.23,-191.16 716.74,-189.67 724.01,-197.37 727.23,-191.16"/>
</a>
</g>
</g>
<!-- Node14 -->
<g id="Node000014" class="node">
<title>Node14</title>
<g id="a_Node000014"><a xlink:title=" ">
<polygon fill="#e0e0e0" stroke="#999999" points="795.5,-189.5 742.5,-189.5 742.5,-170.5 795.5,-170.5 795.5,-189.5"/>
<text text-anchor="middle" x="769" y="-177.5" font-family="Helvetica,sans-Serif" font-size="10.00">string.h</text>
</a>
</g>
</g>
<!-- Node11&#45;&gt;Node14 -->
<g id="edge22_Node000011_Node000014" class="edge">
<title>Node11&#45;&gt;Node14</title>
<g id="a_edge22_Node000011_Node000014"><a xlink:title=" ">
<path fill="none" stroke="#63b8ff" d="M806.51,-230.87C800.01,-222.23 789.84,-208.7 781.72,-197.92"/>
<polygon fill="#63b8ff" stroke="#63b8ff" points="784.33,-195.56 775.52,-189.67 778.73,-199.76 784.33,-195.56"/>
</a>
</g>
</g>
<!-- Node15&#45;&gt;Node9 -->
<g id="edge28_Node000015_Node000009" class="edge">
<title>Node15&#45;&gt;Node9</title>
<g id="a_edge28_Node000015_Node000009"><a xlink:title=" ">
<path fill="none" stroke="#63b8ff" d="M512.02,-232.11C515.06,-231.72 518.07,-231.34 521,-231 704.45,-209.6 754.59,-234.53 935,-195 937.83,-194.38 940.74,-193.61 943.63,-192.75"/>
<polygon fill="#63b8ff" stroke="#63b8ff" points="944.84,-196.03 953.24,-189.57 942.65,-189.38 944.84,-196.03"/>
</a>
</g>
</g>
<!-- Node15&#45;&gt;Node13 -->
<g id="edge26_Node000015_Node000013" class="edge">
<title>Node15&#45;&gt;Node13</title>
<g id="a_edge26_Node000015_Node000013"><a xlink:title=" ">
<path fill="none" stroke="#63b8ff" d="M512.02,-231.24C553.53,-223.66 614.35,-211.16 666,-195 667.68,-194.48 669.38,-193.9 671.1,-193.3"/>
<polygon fill="#63b8ff" stroke="#63b8ff" points="672.7,-196.43 680.8,-189.59 670.21,-189.89 672.7,-196.43"/>
</a>
</g>
</g>
<!-- Node16 -->
<g id="Node000016" class="node">
<title>Node16</title>
<g id="a_Node000016"><a xlink:title=" ">
<polygon fill="#e0e0e0" stroke="#999999" points="339.5,-189.5 228.5,-189.5 228.5,-170.5 339.5,-170.5 339.5,-189.5"/>
<text text-anchor="middle" x="284" y="-177.5" font-family="Helvetica,sans-Serif" font-size="10.00">Adafruit_BMP3XX.h</text>
</a>
</g>
</g>
<!-- Node15&#45;&gt;Node16 -->
<g id="edge27_Node000015_Node000016" class="edge">
<title>Node15&#45;&gt;Node16</title>
<g id="a_edge27_Node000015_Node000016"><a xlink:title=" ">
<path fill="none" stroke="#63b8ff" d="M436.97,-230.99C406.08,-220.9 354.42,-204.01 319.78,-192.69"/>
<polygon fill="#63b8ff" stroke="#63b8ff" points="320.65,-189.3 310.06,-189.52 318.48,-195.95 320.65,-189.3"/>
</a>
</g>
</g>
<!-- Node17&#45;&gt;Node4 -->
<g id="edge31_Node000017_Node000004" class="edge">
<title>Node17&#45;&gt;Node4</title>
<g id="a_edge31_Node000017_Node000004"><a xlink:title=" ">
<path fill="none" stroke="#63b8ff" d="M747.62,-231.97C750.45,-231.61 753.26,-231.29 756,-231 1029.63,-202.33 1101.94,-235.98 1374,-195 1379.48,-194.17 1385.2,-193.07 1390.82,-191.84"/>
<polygon fill="#63b8ff" stroke="#63b8ff" points="1391.79,-195.2 1400.74,-189.52 1390.2,-188.39 1391.79,-195.2"/>
</a>
</g>
</g>
<!-- Node17&#45;&gt;Node9 -->
<g id="edge32_Node000017_Node000009" class="edge">
<title>Node17&#45;&gt;Node9</title>
<g id="a_edge32_Node000017_Node000009"><a xlink:title=" ">
<path fill="none" stroke="#63b8ff" d="M747.67,-231.39C805.76,-221.34 900.44,-204.41 935,-195 937.43,-194.34 939.92,-193.6 942.42,-192.81"/>
<polygon fill="#63b8ff" stroke="#63b8ff" points="943.56,-196.12 951.92,-189.61 941.33,-189.48 943.56,-196.12"/>
</a>
</g>
</g>
<!-- Node17&#45;&gt;Node13 -->
<g id="edge30_Node000017_Node000013" class="edge">
<title>Node17&#45;&gt;Node13</title>
<g id="a_edge30_Node000017_Node000013"><a xlink:title=" ">
<path fill="none" stroke="#63b8ff" d="M700,-230.87C700,-222.75 700,-210.31 700,-199.89"/>
<polygon fill="#63b8ff" stroke="#63b8ff" points="703.5,-199.67 700,-189.67 696.5,-199.67 703.5,-199.67"/>
</a>
</g>
</g>
<!-- Node18 -->
<g id="Node000018" class="node">
<title>Node18</title>
<g id="a_Node000018"><a xlink:title=" ">
<polygon fill="#e0e0e0" stroke="#999999" points="657.5,-189.5 544.5,-189.5 544.5,-170.5 657.5,-170.5 657.5,-189.5"/>
<text text-anchor="middle" x="601" y="-177.5" font-family="Helvetica,sans-Serif" font-size="10.00">SparkFun_ENS160.h</text>
</a>
</g>
</g>
<!-- Node17&#45;&gt;Node18 -->
<g id="edge33_Node000017_Node000018" class="edge">
<title>Node17&#45;&gt;Node18</title>
<g id="a_edge33_Node000017_Node000018"><a xlink:title=" ">
<path fill="none" stroke="#63b8ff" d="M685.39,-230.87C669.31,-221.36 643.22,-205.95 624.3,-194.77"/>
<polygon fill="#63b8ff" stroke="#63b8ff" points="626.06,-191.74 615.67,-189.67 622.5,-197.77 626.06,-191.74"/>
</a>
</g>
</g>
<!-- Node19&#45;&gt;Node4 -->
<g id="edge39_Node000019_Node000004" class="edge">
<title>Node19&#45;&gt;Node4</title>
<g id="a_edge39_Node000019_Node000004"><a xlink:title=" ">
<path fill="none" stroke="#63b8ff" d="M1449.75,-230.87C1446.63,-222.57 1441.82,-209.78 1437.85,-199.22"/>
<polygon fill="#63b8ff" stroke="#63b8ff" points="1441.06,-197.8 1434.26,-189.67 1434.5,-200.26 1441.06,-197.8"/>
</a>
</g>
</g>
<!-- Node19&#45;&gt;Node9 -->
<g id="edge40_Node000019_Node000009" class="edge">
<title>Node19&#45;&gt;Node9</title>
<g id="a_edge40_Node000019_Node000009"><a xlink:title=" ">
<path fill="none" stroke="#63b8ff" d="M1399.41,-234.86C1290.17,-225.28 1048.93,-203.52 1012,-195 1009.33,-194.38 1006.59,-193.63 1003.87,-192.8"/>
<polygon fill="#63b8ff" stroke="#63b8ff" points="1004.82,-189.42 994.22,-189.52 1002.57,-196.05 1004.82,-189.42"/>
</a>
</g>
</g>
<!-- Node19&#45;&gt;Node14 -->
<g id="edge38_Node000019_Node000014" class="edge">
<title>Node19&#45;&gt;Node14</title>
<g id="a_edge38_Node000019_Node000014"><a xlink:title=" ">
<path fill="none" stroke="#63b8ff" d="M1399.28,-234.85C1383.71,-233.55 1366.68,-232.17 1351,-231 1108.04,-212.88 1041.6,-248.91 804,-195 801.63,-194.46 799.21,-193.79 796.81,-193.02"/>
<polygon fill="#63b8ff" stroke="#63b8ff" points="797.77,-189.65 787.18,-189.53 795.39,-196.23 797.77,-189.65"/>
</a>
</g>
</g>
<!-- Node20 -->
<g id="Node000020" class="node">
<title>Node20</title>
<g id="a_Node000020"><a xlink:title=" ">
<polygon fill="#e0e0e0" stroke="#999999" points="1615.5,-189.5 1496.5,-189.5 1496.5,-170.5 1615.5,-170.5 1615.5,-189.5"/>
<text text-anchor="middle" x="1556" y="-177.5" font-family="Helvetica,sans-Serif" font-size="10.00">Adafruit_ICM20948.h</text>
</a>
</g>
</g>
<!-- Node19&#45;&gt;Node20 -->
<g id="edge35_Node000019_Node000020" class="edge">
<title>Node19&#45;&gt;Node20</title>
<g id="a_edge35_Node000019_Node000020"><a xlink:title=" ">
<path fill="none" stroke="#63b8ff" d="M1468.2,-230.87C1485.01,-221.32 1512.32,-205.81 1532.02,-194.62"/>
<polygon fill="#63b8ff" stroke="#63b8ff" points="1533.77,-197.65 1540.74,-189.67 1530.32,-191.56 1533.77,-197.65"/>
</a>
</g>
</g>
<!-- Node21 -->
<g id="Node000021" class="node">
<title>Node21</title>
<g id="a_Node000021"><a xlink:title=" ">
<polygon fill="#e0e0e0" stroke="#999999" points="1740.5,-189.5 1633.5,-189.5 1633.5,-170.5 1740.5,-170.5 1740.5,-189.5"/>
<text text-anchor="middle" x="1687" y="-177.5" font-family="Helvetica,sans-Serif" font-size="10.00">Adafruit_ICM20X.h</text>
</a>
</g>
</g>
<!-- Node19&#45;&gt;Node21 -->
<g id="edge36_Node000019_Node000021" class="edge">
<title>Node19&#45;&gt;Node21</title>
<g id="a_edge36_Node000019_Node000021"><a xlink:title=" ">
<path fill="none" stroke="#63b8ff" d="M1487.03,-230.99C1528.27,-220.68 1597.86,-203.28 1643.11,-191.97"/>
<polygon fill="#63b8ff" stroke="#63b8ff" points="1644.08,-195.34 1652.93,-189.52 1642.38,-188.55 1644.08,-195.34"/>
</a>
</g>
</g>
<!-- Node22 -->
<g id="Node000022" class="node">
<title>Node22</title>
<g id="a_Node000022"><a xlink:title=" ">
<polygon fill="#e0e0e0" stroke="#999999" points="1861,-189.5 1759,-189.5 1759,-170.5 1861,-170.5 1861,-189.5"/>
<text text-anchor="middle" x="1810" y="-177.5" font-family="Helvetica,sans-Serif" font-size="10.00">Adafruit_Sensor.h</text>
</a>
</g>
</g>
<!-- Node19&#45;&gt;Node22 -->
<g id="edge37_Node000019_Node000022" class="edge">
<title>Node19&#45;&gt;Node22</title>
<g id="a_edge37_Node000019_Node000022"><a xlink:title=" ">
<path fill="none" stroke="#63b8ff" d="M1506.65,-231.94C1578.91,-221.66 1703.69,-203.59 1749,-195 1754.14,-194.03 1759.5,-192.92 1764.82,-191.77"/>
<polygon fill="#63b8ff" stroke="#63b8ff" points="1765.93,-195.11 1774.94,-189.53 1764.42,-188.28 1765.93,-195.11"/>
</a>
</g>
</g>
<!-- Node23&#45;&gt;Node2 -->
<g id="edge42_Node000023_Node000002" class="edge">
<title>Node23&#45;&gt;Node2</title>
<g id="a_edge42_Node000023_Node000002"><a xlink:title=" ">
<path fill="none" stroke="#63b8ff" d="M150.04,-230.76C167.03,-206.9 217.98,-140.43 278,-110 387.49,-54.49 531.61,-27.06 601.86,-16.25"/>
<polygon fill="#63b8ff" stroke="#63b8ff" points="602.71,-19.66 612.08,-14.72 601.67,-12.74 602.71,-19.66"/>
</a>
</g>
</g>
<!-- Node23&#45;&gt;Node9 -->
<g id="edge45_Node000023_Node000009" class="edge">
<title>Node23&#45;&gt;Node9</title>
<g id="a_edge45_Node000023_Node000009"><a xlink:title=" ">
<path fill="none" stroke="#63b8ff" d="M190.57,-237.66C349.13,-231.3 862.21,-209.79 935,-195 938.01,-194.39 941.09,-193.59 944.15,-192.69"/>
<polygon fill="#63b8ff" stroke="#63b8ff" points="945.27,-196.01 953.67,-189.55 943.08,-189.36 945.27,-196.01"/>
</a>
</g>
</g>
<!-- Node23&#45;&gt;Node14 -->
<g id="edge43_Node000023_Node000014" class="edge">
<title>Node23&#45;&gt;Node14</title>
<g id="a_edge43_Node000023_Node000014"><a xlink:title=" ">
<path fill="none" stroke="#63b8ff" d="M190.84,-237.75C311.37,-232.95 629.99,-218.38 733,-195 735.37,-194.46 737.8,-193.79 740.21,-193.05"/>
<polygon fill="#63b8ff" stroke="#63b8ff" points="741.63,-196.26 749.9,-189.63 739.3,-189.65 741.63,-196.26"/>
</a>
</g>
</g>
<!-- Node24 -->
<g id="Node000024" class="node">
<title>Node24</title>
<g id="a_Node000024"><a xlink:title=" ">
<polygon fill="#e0e0e0" stroke="#999999" points="133.5,-189.5 28.5,-189.5 28.5,-170.5 133.5,-170.5 133.5,-189.5"/>
<text text-anchor="middle" x="81" y="-177.5" font-family="Helvetica,sans-Serif" font-size="10.00">Adafruit_INA260.h</text>
</a>
</g>
</g>
<!-- Node23&#45;&gt;Node24 -->
<g id="edge44_Node000023_Node000024" class="edge">
<title>Node23&#45;&gt;Node24</title>
<g id="a_edge44_Node000023_Node000024"><a xlink:title=" ">
<path fill="none" stroke="#63b8ff" d="M134.7,-230.87C125.03,-221.88 109.66,-207.61 97.84,-196.64"/>
<polygon fill="#63b8ff" stroke="#63b8ff" points="100.04,-193.91 90.33,-189.67 95.28,-199.04 100.04,-193.91"/>
</a>
</g>
</g>
<!-- Node25&#45;&gt;Node2 -->
<g id="edge47_Node000025_Node000002" class="edge">
<title>Node25&#45;&gt;Node2</title>
<g id="a_edge47_Node000025_Node000002"><a xlink:title=" ">
<path fill="none" stroke="#63b8ff" d="M567.93,-230.89C556.65,-223.1 541.66,-210.48 535,-195 529.73,-182.75 531.23,-177.79 535,-165 552.16,-106.79 601.38,-52.08 627.41,-26.17"/>
<polygon fill="#63b8ff" stroke="#63b8ff" points="629.96,-28.57 634.68,-19.08 625.07,-23.56 629.96,-28.57"/>
</a>
</g>
</g>
<!-- Node25&#45;&gt;Node4 -->
<g id="edge50_Node000025_Node000004" class="edge">
<title>Node25&#45;&gt;Node4</title>
<g id="a_edge50_Node000025_Node000004"><a xlink:title=" ">
<path fill="none" stroke="#63b8ff" d="M634.21,-231.91C637.18,-231.58 640.13,-231.27 643,-231 966.85,-200.52 1052.13,-242.01 1374,-195 1379.55,-194.19 1385.34,-193.08 1391.02,-191.84"/>
<polygon fill="#63b8ff" stroke="#63b8ff" points="1392.1,-195.18 1401.04,-189.5 1390.51,-188.37 1392.1,-195.18"/>
</a>
</g>
</g>
<!-- Node25&#45;&gt;Node9 -->
<g id="edge51_Node000025_Node000009" class="edge">
<title>Node25&#45;&gt;Node9</title>
<g id="a_edge51_Node000025_Node000009"><a xlink:title=" ">
<path fill="none" stroke="#63b8ff" d="M634.24,-232.17C637.2,-231.77 640.14,-231.38 643,-231 772.65,-213.98 807.79,-225.28 935,-195 937.66,-194.37 940.4,-193.61 943.12,-192.79"/>
<polygon fill="#63b8ff" stroke="#63b8ff" points="944.41,-196.04 952.8,-189.57 942.21,-189.4 944.41,-196.04"/>
</a>
</g>
</g>
<!-- Node25&#45;&gt;Node13 -->
<g id="edge49_Node000025_Node000013" class="edge">
<title>Node25&#45;&gt;Node13</title>
<g id="a_edge49_Node000025_Node000013"><a xlink:title=" ">
<path fill="none" stroke="#63b8ff" d="M599.16,-230.99C618.73,-221.29 650.97,-205.31 673.72,-194.03"/>
<polygon fill="#63b8ff" stroke="#63b8ff" points="675.42,-197.09 682.82,-189.52 672.31,-190.82 675.42,-197.09"/>
</a>
</g>
</g>
<!-- Node26 -->
<g id="Node000026" class="node">
<title>Node26</title>
<g id="a_Node000026"><a xlink:title=" ">
<polygon fill="#e0e0e0" stroke="#999999" points="488,-195 358,-195 358,-165 488,-165 488,-195"/>
<text text-anchor="start" x="366" y="-183" font-family="Helvetica,sans-Serif" font-size="10.00">SparkFun_u&#45;blox_GNSS</text>
<text text-anchor="middle" x="423" y="-172" font-family="Helvetica,sans-Serif" font-size="10.00">_Arduino_Library.h</text>
</a>
</g>
</g>
<!-- Node25&#45;&gt;Node26 -->
<g id="edge48_Node000025_Node000026" class="edge">
<title>Node25&#45;&gt;Node26</title>
<g id="a_edge48_Node000025_Node000026"><a xlink:title=" ">
<path fill="none" stroke="#63b8ff" d="M558.88,-230.99C535.9,-222.54 499.96,-209.32 470.82,-198.59"/>
<polygon fill="#63b8ff" stroke="#63b8ff" points="471.82,-195.23 461.23,-195.06 469.4,-201.8 471.82,-195.23"/>
</a>
</g>
</g>
<!-- Node27&#45;&gt;Node4 -->
<g id="edge54_Node000027_Node000004" class="edge">
<title>Node27&#45;&gt;Node4</title>
<g id="a_edge54_Node000027_Node000004"><a xlink:title=" ">
<path fill="none" stroke="#63b8ff" d="M1317.34,-230.99C1339.7,-221.16 1376.71,-204.88 1402.4,-193.58"/>
<polygon fill="#63b8ff" stroke="#63b8ff" points="1403.89,-196.75 1411.64,-189.52 1401.07,-190.34 1403.89,-196.75"/>
</a>
</g>
</g>
<!-- Node27&#45;&gt;Node9 -->
<g id="edge55_Node000027_Node000009" class="edge">
<title>Node27&#45;&gt;Node9</title>
<g id="a_edge55_Node000027_Node000009"><a xlink:title=" ">
<path fill="none" stroke="#63b8ff" d="M1253.21,-232.44C1250.09,-231.95 1247,-231.47 1244,-231 1140.91,-214.89 1113.01,-221.17 1012,-195 1009.56,-194.37 1007.05,-193.64 1004.55,-192.85"/>
<polygon fill="#63b8ff" stroke="#63b8ff" points="1005.66,-189.53 995.07,-189.61 1003.4,-196.15 1005.66,-189.53"/>
</a>
</g>
</g>
<!-- Node28 -->
<g id="Node000028" class="node">
<title>Node28</title>
<g id="a_Node000028"><a xlink:title=" ">
<polygon fill="#e0e0e0" stroke="#999999" points="1365,-189.5 1229,-189.5 1229,-170.5 1365,-170.5 1365,-189.5"/>
<text text-anchor="middle" x="1297" y="-177.5" font-family="Helvetica,sans-Serif" font-size="10.00">DFRobot_OzoneSensor.h</text>
</a>
</g>
</g>
<!-- Node27&#45;&gt;Node28 -->
<g id="edge53_Node000027_Node000028" class="edge">
<title>Node27&#45;&gt;Node28</title>
<g id="a_edge53_Node000027_Node000028"><a xlink:title=" ">
<path fill="none" stroke="#63b8ff" d="M1297.85,-230.87C1297.71,-222.75 1297.5,-210.31 1297.32,-199.89"/>
<polygon fill="#63b8ff" stroke="#63b8ff" points="1300.82,-199.61 1297.15,-189.67 1293.82,-199.73 1300.82,-199.61"/>
</a>
</g>
</g>
<!-- Node29&#45;&gt;Node9 -->
<g id="edge58_Node000029_Node000009" class="edge">
<title>Node29&#45;&gt;Node9</title>
<g id="a_edge58_Node000029_Node000009"><a xlink:title=" ">
<path fill="none" stroke="#63b8ff" d="M1147.23,-230.95C1111.98,-222.69 1058.04,-209.36 1012,-195 1009.87,-194.34 1007.69,-193.62 1005.5,-192.88"/>
<polygon fill="#63b8ff" stroke="#63b8ff" points="1006.57,-189.55 995.97,-189.52 1004.24,-196.15 1006.57,-189.55"/>
</a>
</g>
</g>
<!-- Node30 -->
<g id="Node000030" class="node">
<title>Node30</title>
<g id="a_Node000030"><a xlink:title=" ">
<polygon fill="#e0e0e0" stroke="#999999" points="1211,-189.5 1155,-189.5 1155,-170.5 1211,-170.5 1211,-189.5"/>
<text text-anchor="middle" x="1183" y="-177.5" font-family="Helvetica,sans-Serif" font-size="10.00">RTClib.h</text>
</a>
</g>
</g>
<!-- Node29&#45;&gt;Node30 -->
<g id="edge57_Node000029_Node000030" class="edge">
<title>Node29&#45;&gt;Node30</title>
<g id="a_edge57_Node000029_Node000030"><a xlink:title=" ">
<path fill="none" stroke="#63b8ff" d="M1184.7,-230.87C1184.43,-222.75 1184,-210.31 1183.65,-199.89"/>
<polygon fill="#63b8ff" stroke="#63b8ff" points="1187.14,-199.54 1183.3,-189.67 1180.14,-199.78 1187.14,-199.54"/>
</a>
</g>
</g>
<!-- Node31&#45;&gt;Node4 -->
<g id="edge61_Node000031_Node000004" class="edge">
<title>Node31&#45;&gt;Node4</title>
<g id="a_edge61_Node000031_Node000004"><a xlink:title=" ">
<path fill="none" stroke="#63b8ff" d="M1548.93,-230.99C1525.63,-221.12 1486.99,-204.73 1460.32,-193.43"/>
<polygon fill="#63b8ff" stroke="#63b8ff" points="1461.66,-190.2 1451.09,-189.52 1458.93,-196.64 1461.66,-190.2"/>
</a>
</g>
</g>
<!-- Node31&#45;&gt;Node9 -->
<g id="edge62_Node000031_Node000009" class="edge">
<title>Node31&#45;&gt;Node9</title>
<g id="a_edge62_Node000031_Node000009"><a xlink:title=" ">
<path fill="none" stroke="#63b8ff" d="M1524.25,-232.16C1521.12,-231.74 1518.02,-231.34 1515,-231 1292.32,-205.55 1231.1,-242.21 1012,-195 1009.32,-194.42 1006.58,-193.7 1003.85,-192.88"/>
<polygon fill="#63b8ff" stroke="#63b8ff" points="1004.79,-189.5 994.2,-189.64 1002.56,-196.14 1004.79,-189.5"/>
</a>
</g>
</g>
<!-- Node32 -->
<g id="Node000032" class="node">
<title>Node32</title>
<g id="a_Node000032"><a xlink:title=" ">
<polygon fill="#e0e0e0" stroke="#999999" points="1980.5,-189.5 1879.5,-189.5 1879.5,-170.5 1980.5,-170.5 1980.5,-189.5"/>
<text text-anchor="middle" x="1930" y="-177.5" font-family="Helvetica,sans-Serif" font-size="10.00">Adafruit_SHTC3.h</text>
</a>
</g>
</g>
<!-- Node31&#45;&gt;Node32 -->
<g id="edge60_Node000031_Node000032" class="edge">
<title>Node31&#45;&gt;Node32</title>
<g id="a_edge60_Node000031_Node000032"><a xlink:title=" ">
<path fill="none" stroke="#63b8ff" d="M1613.56,-234.08C1672.49,-226.65 1779.44,-212.23 1870,-195 1875.06,-194.04 1880.34,-192.94 1885.57,-191.8"/>
<polygon fill="#63b8ff" stroke="#63b8ff" points="1886.53,-195.17 1895.52,-189.56 1885,-188.34 1886.53,-195.17"/>
</a>
</g>
</g>
<!-- Node33&#45;&gt;Node4 -->
<g id="edge66_Node000033_Node000004" class="edge">
<title>Node33&#45;&gt;Node4</title>
<g id="a_edge66_Node000033_Node000004"><a xlink:title=" ">
<path fill="none" stroke="#63b8ff" d="M1116.51,-232.25C1119.38,-231.83 1122.23,-231.41 1125,-231 1235.63,-214.75 1264.24,-216.36 1374,-195 1378.75,-194.08 1383.7,-193.01 1388.61,-191.89"/>
<polygon fill="#63b8ff" stroke="#63b8ff" points="1389.64,-195.25 1398.57,-189.54 1388.03,-188.43 1389.64,-195.25"/>
</a>
</g>
</g>
<!-- Node33&#45;&gt;Node9 -->
<g id="edge67_Node000033_Node000009" class="edge">
<title>Node33&#45;&gt;Node9</title>
<g id="a_edge67_Node000033_Node000009"><a xlink:title=" ">
<path fill="none" stroke="#63b8ff" d="M1054.13,-230.87C1039,-221.45 1014.54,-206.23 996.62,-195.08"/>
<polygon fill="#63b8ff" stroke="#63b8ff" points="998.27,-191.98 987.93,-189.67 994.57,-197.92 998.27,-191.98"/>
</a>
</g>
</g>
<!-- Node33&#45;&gt;Node13 -->
<g id="edge65_Node000033_Node000013" class="edge">
<title>Node33&#45;&gt;Node13</title>
<g id="a_edge65_Node000033_Node000013"><a xlink:title=" ">
<path fill="none" stroke="#63b8ff" d="M1019.32,-234.66C939.86,-226.49 785.85,-209.44 733,-195 731.11,-194.48 729.18,-193.88 727.26,-193.22"/>
<polygon fill="#63b8ff" stroke="#63b8ff" points="728.43,-189.93 717.84,-189.6 725.92,-196.46 728.43,-189.93"/>
</a>
</g>
</g>
<!-- Node34 -->
<g id="Node000034" class="node">
<title>Node34</title>
<g id="a_Node000034"><a xlink:title=" ">
<polygon fill="#e0e0e0" stroke="#999999" points="1136.5,-189.5 1021.5,-189.5 1021.5,-170.5 1136.5,-170.5 1136.5,-189.5"/>
<text text-anchor="middle" x="1079" y="-177.5" font-family="Helvetica,sans-Serif" font-size="10.00">SparkFun_TMP117.h</text>
</a>
</g>
</g>
<!-- Node33&#45;&gt;Node34 -->
<g id="edge64_Node000033_Node000034" class="edge">
<title>Node33&#45;&gt;Node34</title>
<g id="a_edge64_Node000033_Node000034"><a xlink:title=" ">
<path fill="none" stroke="#63b8ff" d="M1069.62,-230.87C1071.17,-222.66 1073.54,-210.04 1075.51,-199.55"/>
<polygon fill="#63b8ff" stroke="#63b8ff" points="1078.96,-200.14 1077.37,-189.67 1072.08,-198.85 1078.96,-200.14"/>
</a>
</g>
</g>
<!-- Node35&#45;&gt;Node9 -->
<g id="edge69_Node000035_Node000009" class="edge">
<title>Node35&#45;&gt;Node9</title>
<g id="a_edge69_Node000035_Node000009"><a xlink:title=" ">
<path fill="none" stroke="#63b8ff" d="M928.82,-230.87C936.81,-222.05 949.39,-208.16 959.26,-197.27"/>
<polygon fill="#63b8ff" stroke="#63b8ff" points="962.03,-199.43 966.15,-189.67 956.84,-194.73 962.03,-199.43"/>
</a>
</g>
</g>
</g>
</svg>

<g id="navigator" transform="translate(0 0)" fill="#404254">
  <rect fill="#f2f5e9" fill-opacity="0.5" stroke="#606060" stroke-width=".5" x="0" y="0" width="60" height="60"/>
  <use id="zoomplus" xlink:href="#zoomPlus" x="17" y="9" onmousedown="handleZoom(evt,'in')"/>
  <use id="zoomminus" xlink:href="#zoomMin" x="42" y="9" onmousedown="handleZoom(evt,'out')"/>
  <use id="reset" xlink:href="#resetDef" x="30" y="36" onmousedown="handleReset()"/>
   <use id="arrowup" xlink:href="#arrowUp" x="0" y="0" onmousedown="handlePan(0,-1)"/>
  <use id="arrowright" xlink:href="#arrowRight" x="0" y="0" onmousedown="handlePan(1,0)"/>
  <use id="arrowdown" xlink:href="#arrowDown" x="0" y="0" onmousedown="handlePan(0,1)"/>
  <use id="arrowleft" xlink:href="#arrowLeft" x="0" y="0" onmousedown="handlePan(-1,0)"/>
</g>
<svg viewBox="0 0 15 15" width="100%" height="30px" preserveAspectRatio="xMaxYMin meet">
 <g id="arrow_out" transform="scale(0.3 0.3)">
  <a xlink:href="main_8cpp__incl_org.svg" target="_base">
   <rect id="button" ry="5" rx="5" y="6" x="6" height="38" width="38"
        fill="#f2f5e9" fill-opacity="0.5" stroke="#606060" stroke-width="1.0"/>
   <path id="arrow"
     d="M 11.500037,31.436501 C 11.940474,20.09759 22.043105,11.32322 32.158766,21.979434 L 37.068811,17.246167 C 37.068811,17.246167 37.088388,32 37.088388,32 L 22.160133,31.978069 C 22.160133,31.978069 26.997745,27.140456 26.997745,27.140456 C 18.528582,18.264221 13.291696,25.230495 11.500037,31.436501 z"
     style="fill:#404040;"/>
  </a>
 </g>
</svg>

<style type='text/css'>
<![CDATA[
[data-mouse-over-selected='false'] { opacity: 0.7; }
[data-mouse-over-selected='true']  { opacity: 1.0; }
]]>
</style>
<script type="application/ecmascript"><![CDATA[
document.addEventListener('DOMContentLoaded', (event) => {
  highlightEdges();
  highlightAdjacentNodes();
});
]]></script>
</svg>
