<?xml version="1.0" encoding="UTF-8" standalone="no"?>
<!DOCTYPE svg PUBLIC "-//W3C//DTD SVG 1.1//EN"
 "http://www.w3.org/Graphics/SVG/1.1/DTD/svg11.dtd">
<!-- Generated by graphviz version 12.1.2 (20240928.0832)
 -->
<!-- Title: setup Pages: 1 -->
<svg width="394pt" height="256pt"
 viewBox="0.00 0.00 394.25 256.00" xmlns="http://www.w3.org/2000/svg" xmlns:xlink="http://www.w3.org/1999/xlink">
<g id="graph0" class="graph" transform="scale(1 1) rotate(0) translate(4 252)">
<title>setup</title>
<!-- Node1 -->
<g id="Node000001" class="node">
<title>Node1</title>
<g id="a_Node000001"><a xlink:title="Setup for core 0.">
<polygon fill="#999999" stroke="#666666" points="40,-134 0,-134 0,-114 40,-114 40,-134"/>
<text text-anchor="middle" x="20" y="-120.5" font-family="Helvetica,sans-Serif" font-size="10.00">setup</text>
</a>
</g>
</g>
<!-- Node2 -->
<g id="Node000002" class="node">
<title>Node2</title>
<g id="a_Node000002"><a xlink:href="classErrorDisplay.html#a25018c85cd6b4055a5e796153b997d13" target="_top" xlink:title="Sets the error code to the given value if the given error is of a higher priority then the current er...">
<polygon fill="white" stroke="#666666" points="208.25,-248 93.25,-248 93.25,-228 208.25,-228 208.25,-248"/>
<text text-anchor="middle" x="150.75" y="-234.5" font-family="Helvetica,sans-Serif" font-size="10.00">ErrorDisplay::addCode</text>
</a>
</g>
</g>
<!-- Node1&#45;&gt;Node2 -->
<g id="edge1_Node000001_Node000002" class="edge">
<title>Node1&#45;&gt;Node2</title>
<g id="a_edge1_Node000001_Node000002"><a xlink:title=" ">
<path fill="none" stroke="#63b8ff" d="M24.03,-134.39C30.32,-154.06 46.7,-196.77 76,-219 78.05,-220.56 80.22,-221.99 82.48,-223.3"/>
<polygon fill="#63b8ff" stroke="#63b8ff" points="80.94,-226.45 91.46,-227.69 84.01,-220.16 80.94,-226.45"/>
</a>
</g>
</g>
<!-- Node3 -->
<g id="Node000003" class="node">
<title>Node3</title>
<g id="a_Node000003"><a xlink:href="classSensor.html#a7a1b80d366c585dd9c85992f0ca96d39" target="_top" xlink:title="Get the csv header string associated with this sensor.">
<polygon fill="white" stroke="#666666" points="225.5,-210 76,-210 76,-190 225.5,-190 225.5,-210"/>
<text text-anchor="middle" x="150.75" y="-196.5" font-family="Helvetica,sans-Serif" font-size="10.00">Sensor::getSensorCSVHeader</text>
</a>
</g>
</g>
<!-- Node1&#45;&gt;Node3 -->
<g id="edge2_Node000001_Node000003" class="edge">
<title>Node1&#45;&gt;Node3</title>
<g id="a_edge2_Node000001_Node000003"><a xlink:title=" ">
<path fill="none" stroke="#63b8ff" d="M27.95,-134.09C37.35,-146.95 55.33,-168.95 76,-181 78.78,-182.62 81.71,-184.11 84.72,-185.47"/>
<polygon fill="#63b8ff" stroke="#63b8ff" points="83.22,-188.64 93.8,-189.07 85.8,-182.13 83.22,-188.64"/>
</a>
</g>
</g>
<!-- Node4 -->
<g id="Node000004" class="node">
<title>Node4</title>
<g id="a_Node000004"><a xlink:href="classErrorDisplay.html#a4f9e7e64ffc64711653b539bf3d8d24f" target="_top" xlink:title="Accesses the only instance of ErrorDisplay (Singleton)">
<polygon fill="white" stroke="#666666" points="207.12,-172 94.38,-172 94.38,-152 207.12,-152 207.12,-172"/>
<text text-anchor="middle" x="150.75" y="-158.5" font-family="Helvetica,sans-Serif" font-size="10.00">ErrorDisplay::instance</text>
</a>
</g>
</g>
<!-- Node1&#45;&gt;Node4 -->
<g id="edge3_Node000001_Node000004" class="edge">
<title>Node1&#45;&gt;Node4</title>
<g id="a_edge3_Node000001_Node000004"><a xlink:title=" ">
<path fill="none" stroke="#63b8ff" d="M40.48,-131.16C50.94,-134.89 64.1,-139.42 76,-143 82.33,-144.9 88.99,-146.79 95.63,-148.59"/>
<polygon fill="#63b8ff" stroke="#63b8ff" points="94.66,-151.96 105.23,-151.14 96.46,-145.19 94.66,-151.96"/>
</a>
</g>
</g>
<!-- Node5 -->
<g id="Node000005" class="node">
<title>Node5</title>
<g id="a_Node000005"><a xlink:href="classDevice.html#af64c14c9b8d2c9001f81c1ce6776a565" target="_top" xlink:title="Set recovery config (used keep default constructor)">
<polygon fill="white" stroke="#666666" points="210.12,-134 91.38,-134 91.38,-114 210.12,-114 210.12,-134"/>
<text text-anchor="middle" x="150.75" y="-120.5" font-family="Helvetica,sans-Serif" font-size="10.00">Device::recoveryConfig</text>
</a>
</g>
</g>
<!-- Node1&#45;&gt;Node5 -->
<g id="edge4_Node000001_Node000005" class="edge">
<title>Node1&#45;&gt;Node5</title>
<g id="a_edge4_Node000001_Node000005"><a xlink:title=" ">
<path fill="none" stroke="#63b8ff" d="M40.28,-124C51.06,-124 65.25,-124 79.82,-124"/>
<polygon fill="#63b8ff" stroke="#63b8ff" points="79.47,-127.5 89.47,-124 79.47,-120.5 79.47,-127.5"/>
</a>
</g>
</g>
<!-- Node8 -->
<g id="Node000008" class="node">
<title>Node8</title>
<g id="a_Node000008"><a xlink:href="classFlashStorage.html#a4890571487bb855dd72c050dc37a73f1" target="_top" xlink:title="Stores a string in flash memory, appending a newline at the end.">
<polygon fill="white" stroke="#666666" points="201.5,-96 100,-96 100,-76 201.5,-76 201.5,-96"/>
<text text-anchor="middle" x="150.75" y="-82.5" font-family="Helvetica,sans-Serif" font-size="10.00">FlashStorage::store</text>
</a>
</g>
</g>
<!-- Node1&#45;&gt;Node8 -->
<g id="edge7_Node000001_Node000008" class="edge">
<title>Node1&#45;&gt;Node8</title>
<g id="a_edge7_Node000001_Node000008"><a xlink:title=" ">
<path fill="none" stroke="#63b8ff" d="M40.48,-116.84C50.94,-113.11 64.1,-108.58 76,-105 82.33,-103.1 88.99,-101.21 95.63,-99.41"/>
<polygon fill="#63b8ff" stroke="#63b8ff" points="96.46,-102.81 105.23,-96.86 94.66,-96.04 96.46,-102.81"/>
</a>
</g>
</g>
<!-- Node9 -->
<g id="Node000009" class="node">
<title>Node9</title>
<g id="a_Node000009"><a xlink:href="classErrorDisplay.html#a493bde338b369414abffe90e0d49e93b" target="_top" xlink:title="Toggles the level of the error display.">
<polygon fill="white" stroke="#666666" points="201.88,-58 99.62,-58 99.62,-38 201.88,-38 201.88,-58"/>
<text text-anchor="middle" x="150.75" y="-44.5" font-family="Helvetica,sans-Serif" font-size="10.00">ErrorDisplay::toggle</text>
</a>
</g>
</g>
<!-- Node1&#45;&gt;Node9 -->
<g id="edge8_Node000001_Node000009" class="edge">
<title>Node1&#45;&gt;Node9</title>
<g id="a_edge8_Node000001_Node000009"><a xlink:title=" ">
<path fill="none" stroke="#63b8ff" d="M27.95,-113.91C37.35,-101.05 55.33,-79.05 76,-67 80.05,-64.64 84.39,-62.57 88.86,-60.75"/>
<polygon fill="#63b8ff" stroke="#63b8ff" points="89.81,-64.13 98.05,-57.47 87.45,-57.54 89.81,-64.13"/>
</a>
</g>
</g>
<!-- Node10 -->
<g id="Node000010" class="node">
<title>Node10</title>
<g id="a_Node000010"><a xlink:href="main_8cpp.html#aa425d367210d5186b9622823077556fb" target="_top" xlink:title="Uses Device abstraction to verify sensors Incompatible with initial header generation.">
<polygon fill="white" stroke="#666666" points="207.12,-20 94.38,-20 94.38,0 207.12,0 207.12,-20"/>
<text text-anchor="middle" x="150.75" y="-6.5" font-family="Helvetica,sans-Serif" font-size="10.00">verifySensorRecovery</text>
</a>
</g>
</g>
<!-- Node1&#45;&gt;Node10 -->
<g id="edge9_Node000001_Node000010" class="edge">
<title>Node1&#45;&gt;Node10</title>
<g id="a_edge9_Node000001_Node000010"><a xlink:title=" ">
<path fill="none" stroke="#63b8ff" d="M24.03,-113.61C30.32,-93.94 46.7,-51.23 76,-29 78.43,-27.15 81.03,-25.48 83.74,-23.98"/>
<polygon fill="#63b8ff" stroke="#63b8ff" points="85.01,-27.25 92.58,-19.84 82.04,-20.91 85.01,-27.25"/>
</a>
</g>
</g>
<!-- Node6 -->
<g id="Node000006" class="node">
<title>Node6</title>
<g id="a_Node000006"><a xlink:href="classDevice.html#a55cbddb95f3d79876d10e8d5bc85ba5d" target="_top" xlink:title="Set max_attempts.">
<polygon fill="white" stroke="#666666" points="386.25,-153 261.5,-153 261.5,-133 386.25,-133 386.25,-153"/>
<text text-anchor="middle" x="323.88" y="-139.5" font-family="Helvetica,sans-Serif" font-size="10.00">Device::setMaxAttempts</text>
</a>
</g>
</g>
<!-- Node5&#45;&gt;Node6 -->
<g id="edge5_Node000005_Node000006" class="edge">
<title>Node5&#45;&gt;Node6</title>
<g id="a_edge5_Node000005_Node000006"><a xlink:title=" ">
<path fill="none" stroke="#63b8ff" d="M210.16,-130.49C223.02,-131.91 236.79,-133.44 250.14,-134.92"/>
<polygon fill="#63b8ff" stroke="#63b8ff" points="249.39,-138.36 259.72,-135.99 250.16,-131.41 249.39,-138.36"/>
</a>
</g>
</g>
<!-- Node7 -->
<g id="Node000007" class="node">
<title>Node7</title>
<g id="a_Node000007"><a xlink:href="classDevice.html#ae71d2f19c89f1ebfcd756c030458f3b5" target="_top" xlink:title="Set wait_factor.">
<polygon fill="white" stroke="#666666" points="380.62,-115 267.12,-115 267.12,-95 380.62,-95 380.62,-115"/>
<text text-anchor="middle" x="323.88" y="-101.5" font-family="Helvetica,sans-Serif" font-size="10.00">Device::setWaitFactor</text>
</a>
</g>
</g>
<!-- Node5&#45;&gt;Node7 -->
<g id="edge6_Node000005_Node000007" class="edge">
<title>Node5&#45;&gt;Node7</title>
<g id="a_edge6_Node000005_Node000007"><a xlink:title=" ">
<path fill="none" stroke="#63b8ff" d="M210.16,-117.51C224.75,-115.9 240.5,-114.15 255.48,-112.48"/>
<polygon fill="#63b8ff" stroke="#63b8ff" points="255.69,-115.98 265.24,-111.4 254.92,-109.02 255.69,-115.98"/>
</a>
</g>
</g>
</g>
</svg>
