<?xml version="1.0" encoding="UTF-8" standalone="no"?>
<!DOCTYPE svg PUBLIC "-//W3C//DTD SVG 1.1//EN"
 "http://www.w3.org/Graphics/SVG/1.1/DTD/svg11.dtd">
<!-- Generated by graphviz version 12.1.2 (20240928.0832)
 -->
<!-- Title: main.cpp Pages: 1 -->
<svg width="2234pt" height="320pt"
 viewBox="0.00 0.00 2233.50 320.00" xmlns="http://www.w3.org/2000/svg" xmlns:xlink="http://www.w3.org/1999/xlink">
<g id="graph0" class="graph" transform="scale(1 1) rotate(0) translate(4 316)">
<title>main.cpp</title>
<!-- Node1 -->
<g id="Node000001" class="node">
<title>Node1</title>
<g id="a_Node000001"><a xlink:title="Main functions for Core 0, responsible for reading data from sensor peripherals.">
<polygon fill="#999999" stroke="#666666" points="1132.88,-312 1077.12,-312 1077.12,-292 1132.88,-292 1132.88,-312"/>
<text text-anchor="middle" x="1105" y="-298.5" font-family="Helvetica,sans-Serif" font-size="10.00">main.cpp</text>
</a>
</g>
</g>
<!-- Node2 -->
<g id="Node000002" class="node">
<title>Node2</title>
<g id="a_Node000002"><a xlink:title=" ">
<polygon fill="#e0e0e0" stroke="#999999" points="986.62,-20 929.38,-20 929.38,0 986.62,0 986.62,-20"/>
<text text-anchor="middle" x="958" y="-6.5" font-family="Helvetica,sans-Serif" font-size="10.00">Arduino.h</text>
</a>
</g>
</g>
<!-- Node1&#45;&gt;Node2 -->
<g id="edge1_Node000001_Node000002" class="edge">
<title>Node1&#45;&gt;Node2</title>
<g id="a_edge1_Node000001_Node000002"><a xlink:title=" ">
<path fill="none" stroke="#63b8ff" d="M1076.85,-301.08C904.59,-301.23 0,-296.7 0,-185 0,-185 0,-185 0,-121 0,-27.11 735.66,-13.3 917.65,-11.32"/>
<polygon fill="#63b8ff" stroke="#63b8ff" points="917.59,-14.82 927.55,-11.22 917.52,-7.82 917.59,-14.82"/>
</a>
</g>
</g>
<!-- Node3 -->
<g id="Node000003" class="node">
<title>Node3</title>
<g id="a_Node000003"><a xlink:href="ErrorDisplay_8h.html" target="_top" xlink:title=" ">
<polygon fill="white" stroke="#666666" points="2039.75,-256 1962.25,-256 1962.25,-236 2039.75,-236 2039.75,-256"/>
<text text-anchor="middle" x="2001" y="-242.5" font-family="Helvetica,sans-Serif" font-size="10.00">ErrorDisplay.h</text>
</a>
</g>
</g>
<!-- Node1&#45;&gt;Node3 -->
<g id="edge2_Node000001_Node000003" class="edge">
<title>Node1&#45;&gt;Node3</title>
<g id="a_edge2_Node000001_Node000003"><a xlink:title=" ">
<path fill="none" stroke="#63b8ff" d="M1133.3,-299.29C1261.04,-291.6 1784.93,-260.02 1950.56,-250.04"/>
<polygon fill="#63b8ff" stroke="#63b8ff" points="1950.57,-253.55 1960.34,-249.45 1950.15,-246.56 1950.57,-253.55"/>
</a>
</g>
</g>
<!-- Node4 -->
<g id="Node000004" class="node">
<title>Node4</title>
<g id="a_Node000004"><a xlink:href="PayloadConfig_8h.html" target="_top" xlink:title="Central location for pinout and config defines.">
<polygon fill="white" stroke="#666666" points="1612,-194 1524,-194 1524,-174 1612,-174 1612,-194"/>
<text text-anchor="middle" x="1568" y="-180.5" font-family="Helvetica,sans-Serif" font-size="10.00">PayloadConfig.h</text>
</a>
</g>
</g>
<!-- Node1&#45;&gt;Node4 -->
<g id="edge9_Node000001_Node000004" class="edge">
<title>Node1&#45;&gt;Node4</title>
<g id="a_edge9_Node000001_Node000004"><a xlink:title=" ">
<path fill="none" stroke="#63b8ff" d="M1133.26,-299.84C1225.06,-295.82 1510.8,-281.37 1543,-256 1558.38,-243.88 1564.32,-221.63 1566.6,-205.26"/>
<polygon fill="#63b8ff" stroke="#63b8ff" points="1570.05,-205.96 1567.58,-195.65 1563.08,-205.25 1570.05,-205.96"/>
</a>
</g>
</g>
<!-- Node7 -->
<g id="Node000007" class="node">
<title>Node7</title>
<g id="a_Node000007"><a xlink:href="Logger_8h.html" target="_top" xlink:title=" ">
<polygon fill="white" stroke="#666666" points="929.75,-76 876.25,-76 876.25,-56 929.75,-56 929.75,-76"/>
<text text-anchor="middle" x="903" y="-62.5" font-family="Helvetica,sans-Serif" font-size="10.00">Logger.h</text>
</a>
</g>
</g>
<!-- Node1&#45;&gt;Node7 -->
<g id="edge7_Node000001_Node000007" class="edge">
<title>Node1&#45;&gt;Node7</title>
<g id="a_edge7_Node000001_Node000007"><a xlink:title=" ">
<path fill="none" stroke="#63b8ff" d="M1076.86,-300.47C920.18,-297.21 160,-277.45 95,-200 -7.58,-77.78 691,-67.64 864.6,-66.99"/>
<polygon fill="#63b8ff" stroke="#63b8ff" points="864.44,-70.49 874.43,-66.97 864.42,-63.49 864.44,-70.49"/>
</a>
</g>
</g>
<!-- Node8 -->
<g id="Node000008" class="node">
<title>Node8</title>
<g id="a_Node000008"><a xlink:href="CommandMessage_8h.html" target="_top" xlink:title=" ">
<polygon fill="white" stroke="#666666" points="2166.5,-256 2057.5,-256 2057.5,-236 2166.5,-236 2166.5,-256"/>
<text text-anchor="middle" x="2112" y="-242.5" font-family="Helvetica,sans-Serif" font-size="10.00">CommandMessage.h</text>
</a>
</g>
</g>
<!-- Node1&#45;&gt;Node8 -->
<g id="edge10_Node000001_Node000008" class="edge">
<title>Node1&#45;&gt;Node8</title>
<g id="a_edge10_Node000001_Node000008"><a xlink:title=" ">
<path fill="none" stroke="#63b8ff" d="M1133.26,-300.62C1246.6,-298.92 1679.43,-290.45 2045.7,-256.23"/>
<polygon fill="#63b8ff" stroke="#63b8ff" points="2045.93,-259.73 2055.55,-255.3 2045.27,-252.76 2045.93,-259.73"/>
</a>
</g>
</g>
<!-- Node9 -->
<g id="Node000009" class="node">
<title>Node9</title>
<g id="a_Node000009"><a xlink:href="Sensor_8h.html" target="_top" xlink:title=" ">
<polygon fill="white" stroke="#666666" points="1013.5,-194 958.5,-194 958.5,-174 1013.5,-174 1013.5,-194"/>
<text text-anchor="middle" x="986" y="-180.5" font-family="Helvetica,sans-Serif" font-size="10.00">Sensor.h</text>
</a>
</g>
</g>
<!-- Node1&#45;&gt;Node9 -->
<g id="edge13_Node000001_Node000009" class="edge">
<title>Node1&#45;&gt;Node9</title>
<g id="a_edge13_Node000001_Node000009"><a xlink:title=" ">
<path fill="none" stroke="#63b8ff" d="M1076.72,-295.05C1054.45,-288.93 1024.2,-277.2 1006,-256 993.89,-241.89 989.08,-220.95 987.19,-205.46"/>
<polygon fill="#63b8ff" stroke="#63b8ff" points="990.72,-205.61 986.35,-195.95 983.74,-206.22 990.72,-205.61"/>
</a>
</g>
</g>
<!-- Node11 -->
<g id="Node000011" class="node">
<title>Node11</title>
<g id="a_Node000011"><a xlink:href="AS7331Sensor_8h.html" target="_top" xlink:title=" ">
<polygon fill="white" stroke="#666666" points="1200.75,-256 1111.25,-256 1111.25,-236 1200.75,-236 1200.75,-256"/>
<text text-anchor="middle" x="1156" y="-242.5" font-family="Helvetica,sans-Serif" font-size="10.00">AS7331Sensor.h</text>
</a>
</g>
</g>
<!-- Node1&#45;&gt;Node11 -->
<g id="edge19_Node000001_Node000011" class="edge">
<title>Node1&#45;&gt;Node11</title>
<g id="a_edge19_Node000001_Node000011"><a xlink:title=" ">
<path fill="none" stroke="#63b8ff" d="M1113.88,-291.59C1120.9,-284.16 1130.9,-273.58 1139.39,-264.58"/>
<polygon fill="#63b8ff" stroke="#63b8ff" points="1141.86,-267.07 1146.18,-257.4 1136.77,-262.27 1141.86,-267.07"/>
</a>
</g>
</g>
<!-- Node15 -->
<g id="Node000015" class="node">
<title>Node15</title>
<g id="a_Node000015"><a xlink:href="BMP390Sensor_8h.html" target="_top" xlink:title=" ">
<polygon fill="white" stroke="#666666" points="620.25,-256 527.75,-256 527.75,-236 620.25,-236 620.25,-256"/>
<text text-anchor="middle" x="574" y="-242.5" font-family="Helvetica,sans-Serif" font-size="10.00">BMP390Sensor.h</text>
</a>
</g>
</g>
<!-- Node1&#45;&gt;Node15 -->
<g id="edge25_Node000001_Node000015" class="edge">
<title>Node1&#45;&gt;Node15</title>
<g id="a_edge25_Node000001_Node000015"><a xlink:title=" ">
<path fill="none" stroke="#63b8ff" d="M1076.76,-299C1004.52,-293.75 806.92,-278.5 631.72,-256.27"/>
<polygon fill="#63b8ff" stroke="#63b8ff" points="632.34,-252.82 621.98,-255.03 631.45,-259.77 632.34,-252.82"/>
</a>
</g>
</g>
<!-- Node17 -->
<g id="Node000017" class="node">
<title>Node17</title>
<g id="a_Node000017"><a xlink:href="ENS160Sensor_8h.html" target="_top" xlink:title=" ">
<polygon fill="white" stroke="#666666" points="1424.88,-256 1333.12,-256 1333.12,-236 1424.88,-236 1424.88,-256"/>
<text text-anchor="middle" x="1379" y="-242.5" font-family="Helvetica,sans-Serif" font-size="10.00">ENS160Sensor.h</text>
</a>
</g>
</g>
<!-- Node1&#45;&gt;Node17 -->
<g id="edge28_Node000001_Node000017" class="edge">
<title>Node1&#45;&gt;Node17</title>
<g id="a_edge28_Node000001_Node000017"><a xlink:title=" ">
<path fill="none" stroke="#63b8ff" d="M1133.29,-295.42C1177.51,-286.71 1263.92,-269.68 1321.56,-258.32"/>
<polygon fill="#63b8ff" stroke="#63b8ff" points="1322.07,-261.79 1331.2,-256.42 1320.71,-254.92 1322.07,-261.79"/>
</a>
</g>
</g>
<!-- Node19 -->
<g id="Node000019" class="node">
<title>Node19</title>
<g id="a_Node000019"><a xlink:href="ICM20948Sensor_8h.html" target="_top" xlink:title=" ">
<polygon fill="white" stroke="#666666" points="738,-256 638,-256 638,-236 738,-236 738,-256"/>
<text text-anchor="middle" x="688" y="-242.5" font-family="Helvetica,sans-Serif" font-size="10.00">ICM20948Sensor.h</text>
</a>
</g>
</g>
<!-- Node1&#45;&gt;Node19 -->
<g id="edge33_Node000001_Node000019" class="edge">
<title>Node1&#45;&gt;Node19</title>
<g id="a_edge33_Node000001_Node000019"><a xlink:title=" ">
<path fill="none" stroke="#63b8ff" d="M1076.66,-297.69C1017.8,-290.78 877.77,-274.03 749.39,-256.3"/>
<polygon fill="#63b8ff" stroke="#63b8ff" points="750.08,-252.86 739.7,-254.96 749.12,-259.8 750.08,-252.86"/>
</a>
</g>
</g>
<!-- Node23 -->
<g id="Node000023" class="node">
<title>Node23</title>
<g id="a_Node000023"><a xlink:href="INA260Sensor_8h.html" target="_top" xlink:title=" ">
<polygon fill="white" stroke="#666666" points="510,-256 422,-256 422,-236 510,-236 510,-256"/>
<text text-anchor="middle" x="466" y="-242.5" font-family="Helvetica,sans-Serif" font-size="10.00">INA260Sensor.h</text>
</a>
</g>
</g>
<!-- Node1&#45;&gt;Node23 -->
<g id="edge40_Node000001_Node000023" class="edge">
<title>Node1&#45;&gt;Node23</title>
<g id="a_edge40_Node000001_Node000023"><a xlink:title=" ">
<path fill="none" stroke="#63b8ff" d="M1076.85,-299.75C993.66,-295.88 741.5,-282.75 521.91,-256.25"/>
<polygon fill="#63b8ff" stroke="#63b8ff" points="522.34,-252.78 511.99,-255.04 521.49,-259.73 522.34,-252.78"/>
</a>
</g>
</g>
<!-- Node25 -->
<g id="Node000025" class="node">
<title>Node25</title>
<g id="a_Node000025"><a xlink:href="MTK3339Sensor_8h.html" target="_top" xlink:title=" ">
<polygon fill="white" stroke="#666666" points="1315.5,-256 1218.5,-256 1218.5,-236 1315.5,-236 1315.5,-256"/>
<text text-anchor="middle" x="1267" y="-242.5" font-family="Helvetica,sans-Serif" font-size="10.00">MTK3339Sensor.h</text>
</a>
</g>
</g>
<!-- Node1&#45;&gt;Node25 -->
<g id="edge45_Node000001_Node000025" class="edge">
<title>Node1&#45;&gt;Node25</title>
<g id="a_edge45_Node000001_Node000025"><a xlink:title=" ">
<path fill="none" stroke="#63b8ff" d="M1133.22,-291.59C1159.42,-282.86 1198.68,-269.77 1227.9,-260.03"/>
<polygon fill="#63b8ff" stroke="#63b8ff" points="1228.75,-263.44 1237.13,-256.96 1226.53,-256.8 1228.75,-263.44"/>
</a>
</g>
</g>
<!-- Node27 -->
<g id="Node000027" class="node">
<title>Node27</title>
<g id="a_Node000027"><a xlink:href="OzoneSensor_8h.html" target="_top" xlink:title=" ">
<polygon fill="white" stroke="#666666" points="1673.75,-256 1590.25,-256 1590.25,-236 1673.75,-236 1673.75,-256"/>
<text text-anchor="middle" x="1632" y="-242.5" font-family="Helvetica,sans-Serif" font-size="10.00">OzoneSensor.h</text>
</a>
</g>
</g>
<!-- Node1&#45;&gt;Node27 -->
<g id="edge51_Node000001_Node000027" class="edge">
<title>Node1&#45;&gt;Node27</title>
<g id="a_edge51_Node000001_Node000027"><a xlink:title=" ">
<path fill="none" stroke="#63b8ff" d="M1133.21,-298.94C1206.44,-293.45 1408.56,-277.43 1576,-256 1576.84,-255.89 1577.69,-255.78 1578.55,-255.67"/>
<polygon fill="#63b8ff" stroke="#63b8ff" points="1578.93,-259.15 1588.35,-254.28 1577.95,-252.22 1578.93,-259.15"/>
</a>
</g>
</g>
<!-- Node29 -->
<g id="Node000029" class="node">
<title>Node29</title>
<g id="a_Node000029"><a xlink:href="PCF8523Sensor_8h.html" target="_top" xlink:title=" ">
<polygon fill="white" stroke="#666666" points="958.12,-256 861.88,-256 861.88,-236 958.12,-236 958.12,-256"/>
<text text-anchor="middle" x="910" y="-242.5" font-family="Helvetica,sans-Serif" font-size="10.00">PCF8523Sensor.h</text>
</a>
</g>
</g>
<!-- Node1&#45;&gt;Node29 -->
<g id="edge55_Node000001_Node000029" class="edge">
<title>Node1&#45;&gt;Node29</title>
<g id="a_edge55_Node000001_Node000029"><a xlink:title=" ">
<path fill="none" stroke="#63b8ff" d="M1076.65,-293.15C1044.73,-284.31 992.44,-269.83 954.94,-259.45"/>
<polygon fill="#63b8ff" stroke="#63b8ff" points="956.33,-256.2 945.76,-256.9 954.47,-262.95 956.33,-256.2"/>
</a>
</g>
</g>
<!-- Node31 -->
<g id="Node000031" class="node">
<title>Node31</title>
<g id="a_Node000031"><a xlink:href="SCD40Sensor_8h.html" target="_top" xlink:title=" ">
<polygon fill="white" stroke="#666666" points="843.62,-256 756.38,-256 756.38,-236 843.62,-236 843.62,-256"/>
<text text-anchor="middle" x="800" y="-242.5" font-family="Helvetica,sans-Serif" font-size="10.00">SCD40Sensor.h</text>
</a>
</g>
</g>
<!-- Node1&#45;&gt;Node31 -->
<g id="edge58_Node000001_Node000031" class="edge">
<title>Node1&#45;&gt;Node31</title>
<g id="a_edge58_Node000001_Node000031"><a xlink:title=" ">
<path fill="none" stroke="#63b8ff" d="M1076.85,-296.02C1026.56,-287.11 920.44,-268.32 855.18,-256.77"/>
<polygon fill="#63b8ff" stroke="#63b8ff" points="855.83,-253.33 845.37,-255.03 854.61,-260.22 855.83,-253.33"/>
</a>
</g>
</g>
<!-- Node33 -->
<g id="Node000033" class="node">
<title>Node33</title>
<g id="a_Node000033"><a xlink:href="SHTC3Sensor_8h.html" target="_top" xlink:title=" ">
<polygon fill="white" stroke="#666666" points="1780,-256 1692,-256 1692,-236 1780,-236 1780,-256"/>
<text text-anchor="middle" x="1736" y="-242.5" font-family="Helvetica,sans-Serif" font-size="10.00">SHTC3Sensor.h</text>
</a>
</g>
</g>
<!-- Node1&#45;&gt;Node33 -->
<g id="edge65_Node000001_Node000033" class="edge">
<title>Node1&#45;&gt;Node33</title>
<g id="a_edge65_Node000001_Node000033"><a xlink:title=" ">
<path fill="none" stroke="#63b8ff" d="M1133.36,-299.7C1216.02,-295.73 1464.05,-282.45 1680.26,-256.23"/>
<polygon fill="#63b8ff" stroke="#63b8ff" points="1680.51,-259.73 1690.01,-255.04 1679.66,-252.78 1680.51,-259.73"/>
</a>
</g>
</g>
<!-- Node35 -->
<g id="Node000035" class="node">
<title>Node35</title>
<g id="a_Node000035"><a xlink:href="TMP117Sensor_8h.html" target="_top" xlink:title=" ">
<polygon fill="white" stroke="#666666" points="1533.5,-256 1442.5,-256 1442.5,-236 1533.5,-236 1533.5,-256"/>
<text text-anchor="middle" x="1488" y="-242.5" font-family="Helvetica,sans-Serif" font-size="10.00">TMP117Sensor.h</text>
</a>
</g>
</g>
<!-- Node1&#45;&gt;Node35 -->
<g id="edge69_Node000001_Node000035" class="edge">
<title>Node1&#45;&gt;Node35</title>
<g id="a_edge69_Node000001_Node000035"><a xlink:title=" ">
<path fill="none" stroke="#63b8ff" d="M1133.21,-297.42C1188.36,-290.37 1314.63,-273.93 1430.85,-256.45"/>
<polygon fill="#63b8ff" stroke="#63b8ff" points="1431.2,-259.93 1440.56,-254.98 1430.15,-253.01 1431.2,-259.93"/>
</a>
</g>
</g>
<!-- Node37 -->
<g id="Node000037" class="node">
<title>Node37</title>
<g id="a_Node000037"><a xlink:href="TempSensor_8h.html" target="_top" xlink:title=" ">
<polygon fill="white" stroke="#666666" points="1093.5,-256 1014.5,-256 1014.5,-236 1093.5,-236 1093.5,-256"/>
<text text-anchor="middle" x="1054" y="-242.5" font-family="Helvetica,sans-Serif" font-size="10.00">TempSensor.h</text>
</a>
</g>
</g>
<!-- Node1&#45;&gt;Node37 -->
<g id="edge74_Node000001_Node000037" class="edge">
<title>Node1&#45;&gt;Node37</title>
<g id="a_edge74_Node000001_Node000037"><a xlink:title=" ">
<path fill="none" stroke="#63b8ff" d="M1096.12,-291.59C1089.1,-284.16 1079.1,-273.58 1070.61,-264.58"/>
<polygon fill="#63b8ff" stroke="#63b8ff" points="1073.23,-262.27 1063.82,-257.4 1068.14,-267.07 1073.23,-262.27"/>
</a>
</g>
</g>
<!-- Node3&#45;&gt;Node2 -->
<g id="edge3_Node000003_Node000002" class="edge">
<title>Node3&#45;&gt;Node2</title>
<g id="a_edge3_Node000003_Node000002"><a xlink:title=" ">
<path fill="none" stroke="#63b8ff" d="M2005.53,-235.63C2012.5,-219.67 2023.45,-187.1 2007,-168 1872.77,-12.18 1174.17,-8.75 998.25,-10.41"/>
<polygon fill="#63b8ff" stroke="#63b8ff" points="998.44,-6.91 988.47,-10.51 998.51,-13.9 998.44,-6.91"/>
</a>
</g>
</g>
<!-- Node3&#45;&gt;Node4 -->
<g id="edge4_Node000003_Node000004" class="edge">
<title>Node3&#45;&gt;Node4</title>
<g id="a_edge4_Node000003_Node000004"><a xlink:title=" ">
<path fill="none" stroke="#63b8ff" d="M1961.84,-242.41C1892.58,-237.38 1744.13,-224.56 1621,-200 1617.18,-199.24 1613.23,-198.34 1609.3,-197.37"/>
<polygon fill="#63b8ff" stroke="#63b8ff" points="1610.37,-194.03 1599.81,-194.86 1608.59,-200.8 1610.37,-194.03"/>
</a>
</g>
</g>
<!-- Node5 -->
<g id="Node000005" class="node">
<title>Node5</title>
<g id="a_Node000005"><a xlink:title=" ">
<polygon fill="#e0e0e0" stroke="#999999" points="2225.5,-194 2140.5,-194 2140.5,-174 2225.5,-174 2225.5,-194"/>
<text text-anchor="middle" x="2183" y="-180.5" font-family="Helvetica,sans-Serif" font-size="10.00">pico/multicore.h</text>
</a>
</g>
</g>
<!-- Node3&#45;&gt;Node5 -->
<g id="edge5_Node000003_Node000005" class="edge">
<title>Node3&#45;&gt;Node5</title>
<g id="a_edge5_Node000003_Node000005"><a xlink:title=" ">
<path fill="none" stroke="#63b8ff" d="M2029.44,-235.62C2060.2,-225.48 2109.45,-209.25 2143.86,-197.9"/>
<polygon fill="#63b8ff" stroke="#63b8ff" points="2144.62,-201.34 2153.03,-194.88 2142.43,-194.69 2144.62,-201.34"/>
</a>
</g>
</g>
<!-- Node6 -->
<g id="Node000006" class="node">
<title>Node6</title>
<g id="a_Node000006"><a xlink:title=" ">
<polygon fill="#e0e0e0" stroke="#999999" points="2122.25,-194 2053.75,-194 2053.75,-174 2122.25,-174 2122.25,-194"/>
<text text-anchor="middle" x="2088" y="-180.5" font-family="Helvetica,sans-Serif" font-size="10.00">pico/stdlib.h</text>
</a>
</g>
</g>
<!-- Node3&#45;&gt;Node6 -->
<g id="edge6_Node000003_Node000006" class="edge">
<title>Node3&#45;&gt;Node6</title>
<g id="a_edge6_Node000003_Node000006"><a xlink:title=" ">
<path fill="none" stroke="#63b8ff" d="M2014.59,-235.62C2028.13,-226.29 2049.15,-211.79 2065.24,-200.7"/>
<polygon fill="#63b8ff" stroke="#63b8ff" points="2067.01,-203.73 2073.26,-195.17 2063.04,-197.96 2067.01,-203.73"/>
</a>
</g>
</g>
<!-- Node7&#45;&gt;Node2 -->
<g id="edge8_Node000007_Node000002" class="edge">
<title>Node7&#45;&gt;Node2</title>
<g id="a_edge8_Node000007_Node000002"><a xlink:title=" ">
<path fill="none" stroke="#63b8ff" d="M912.58,-55.59C920.23,-48.08 931.16,-37.35 940.38,-28.3"/>
<polygon fill="#63b8ff" stroke="#63b8ff" points="942.77,-30.86 947.45,-21.36 937.86,-25.87 942.77,-30.86"/>
</a>
</g>
</g>
<!-- Node8&#45;&gt;Node5 -->
<g id="edge11_Node000008_Node000005" class="edge">
<title>Node8&#45;&gt;Node5</title>
<g id="a_edge11_Node000008_Node000005"><a xlink:title=" ">
<path fill="none" stroke="#63b8ff" d="M2123.09,-235.62C2133.89,-226.5 2150.52,-212.45 2163.53,-201.46"/>
<polygon fill="#63b8ff" stroke="#63b8ff" points="2165.68,-204.22 2171.06,-195.09 2161.16,-198.87 2165.68,-204.22"/>
</a>
</g>
</g>
<!-- Node8&#45;&gt;Node6 -->
<g id="edge12_Node000008_Node000006" class="edge">
<title>Node8&#45;&gt;Node6</title>
<g id="a_edge12_Node000008_Node000006"><a xlink:title=" ">
<path fill="none" stroke="#63b8ff" d="M2108.25,-235.62C2104.95,-227.39 2100.05,-215.13 2095.89,-204.74"/>
<polygon fill="#63b8ff" stroke="#63b8ff" points="2099.17,-203.5 2092.21,-195.52 2092.67,-206.1 2099.17,-203.5"/>
</a>
</g>
</g>
<!-- Node9&#45;&gt;Node2 -->
<g id="edge14_Node000009_Node000002" class="edge">
<title>Node9&#45;&gt;Node2</title>
<g id="a_edge14_Node000009_Node000002"><a xlink:title=" ">
<path fill="none" stroke="#63b8ff" d="M988.15,-173.67C990.38,-163.49 993.71,-146.69 995,-132 995.78,-123.14 996.55,-120.75 995,-112 989.79,-82.64 976.69,-50.62 967.56,-30.67"/>
<polygon fill="#63b8ff" stroke="#63b8ff" points="970.81,-29.36 963.38,-21.8 964.48,-32.34 970.81,-29.36"/>
</a>
</g>
</g>
<!-- Node9&#45;&gt;Node7 -->
<g id="edge18_Node000009_Node000007" class="edge">
<title>Node9&#45;&gt;Node7</title>
<g id="a_edge18_Node000009_Node000007"><a xlink:title=" ">
<path fill="none" stroke="#63b8ff" d="M969.14,-173.64C954.61,-164.74 934.12,-150.05 922,-132 912.97,-118.55 908.16,-100.74 905.64,-87.17"/>
<polygon fill="#63b8ff" stroke="#63b8ff" points="909.15,-86.97 904.14,-77.63 902.23,-88.06 909.15,-86.97"/>
</a>
</g>
</g>
<!-- Node10 -->
<g id="Node000010" class="node">
<title>Node10</title>
<g id="a_Node000010"><a xlink:href="Device_8h.html" target="_top" xlink:title=" ">
<polygon fill="white" stroke="#666666" points="985.5,-132 930.5,-132 930.5,-112 985.5,-112 985.5,-132"/>
<text text-anchor="middle" x="958" y="-118.5" font-family="Helvetica,sans-Serif" font-size="10.00">Device.h</text>
</a>
</g>
</g>
<!-- Node9&#45;&gt;Node10 -->
<g id="edge15_Node000009_Node000010" class="edge">
<title>Node9&#45;&gt;Node10</title>
<g id="a_edge15_Node000009_Node000010"><a xlink:title=" ">
<path fill="none" stroke="#63b8ff" d="M981.62,-173.62C977.74,-165.3 971.94,-152.86 967.05,-142.4"/>
<polygon fill="#63b8ff" stroke="#63b8ff" points="970.29,-141.07 962.89,-133.48 963.95,-144.03 970.29,-141.07"/>
</a>
</g>
</g>
<!-- Node10&#45;&gt;Node2 -->
<g id="edge16_Node000010_Node000002" class="edge">
<title>Node10&#45;&gt;Node2</title>
<g id="a_edge16_Node000010_Node000002"><a xlink:title=" ">
<path fill="none" stroke="#63b8ff" d="M958,-111.62C958,-94.01 958,-55.59 958,-31.65"/>
<polygon fill="#63b8ff" stroke="#63b8ff" points="961.5,-31.87 958,-21.87 954.5,-31.87 961.5,-31.87"/>
</a>
</g>
</g>
<!-- Node10&#45;&gt;Node7 -->
<g id="edge17_Node000010_Node000007" class="edge">
<title>Node10&#45;&gt;Node7</title>
<g id="a_edge17_Node000010_Node000007"><a xlink:title=" ">
<path fill="none" stroke="#63b8ff" d="M948.42,-111.59C940.77,-104.08 929.84,-93.35 920.62,-84.3"/>
<polygon fill="#63b8ff" stroke="#63b8ff" points="923.14,-81.87 913.55,-77.36 918.23,-86.86 923.14,-81.87"/>
</a>
</g>
</g>
<!-- Node11&#45;&gt;Node4 -->
<g id="edge23_Node000011_Node000004" class="edge">
<title>Node11&#45;&gt;Node4</title>
<g id="a_edge23_Node000011_Node000004"><a xlink:title=" ">
<path fill="none" stroke="#63b8ff" d="M1201.06,-237.33C1204.08,-236.86 1207.08,-236.41 1210,-236 1345.14,-216.77 1381.13,-226.67 1515,-200 1518.82,-199.24 1522.77,-198.34 1526.7,-197.37"/>
<polygon fill="#63b8ff" stroke="#63b8ff" points="1527.41,-200.8 1536.19,-194.87 1525.63,-194.03 1527.41,-200.8"/>
</a>
</g>
</g>
<!-- Node11&#45;&gt;Node9 -->
<g id="edge24_Node000011_Node000009" class="edge">
<title>Node11&#45;&gt;Node9</title>
<g id="a_edge24_Node000011_Node000009"><a xlink:title=" ">
<path fill="none" stroke="#63b8ff" d="M1126.51,-235.57C1099.44,-226.79 1058.3,-213.12 1023,-200 1021.68,-199.51 1020.35,-199.01 1018.99,-198.49"/>
<polygon fill="#63b8ff" stroke="#63b8ff" points="1020.61,-195.36 1010.02,-194.97 1018.05,-201.88 1020.61,-195.36"/>
</a>
</g>
</g>
<!-- Node12 -->
<g id="Node000012" class="node">
<title>Node12</title>
<g id="a_Node000012"><a xlink:title=" ">
<polygon fill="#e0e0e0" stroke="#999999" points="1138,-194 1032,-194 1032,-174 1138,-174 1138,-194"/>
<text text-anchor="middle" x="1085" y="-180.5" font-family="Helvetica,sans-Serif" font-size="10.00">SparkFun_AS7331.h</text>
</a>
</g>
</g>
<!-- Node11&#45;&gt;Node12 -->
<g id="edge20_Node000011_Node000012" class="edge">
<title>Node11&#45;&gt;Node12</title>
<g id="a_edge20_Node000011_Node000012"><a xlink:title=" ">
<path fill="none" stroke="#63b8ff" d="M1144.91,-235.62C1134.11,-226.5 1117.48,-212.45 1104.47,-201.46"/>
<polygon fill="#63b8ff" stroke="#63b8ff" points="1106.84,-198.87 1096.94,-195.09 1102.32,-204.22 1106.84,-198.87"/>
</a>
</g>
</g>
<!-- Node13 -->
<g id="Node000013" class="node">
<title>Node13</title>
<g id="a_Node000013"><a xlink:title=" ">
<polygon fill="#e0e0e0" stroke="#999999" points="1200.25,-194 1155.75,-194 1155.75,-174 1200.25,-174 1200.25,-194"/>
<text text-anchor="middle" x="1178" y="-180.5" font-family="Helvetica,sans-Serif" font-size="10.00">Wire.h</text>
</a>
</g>
</g>
<!-- Node11&#45;&gt;Node13 -->
<g id="edge21_Node000011_Node000013" class="edge">
<title>Node11&#45;&gt;Node13</title>
<g id="a_edge21_Node000011_Node000013"><a xlink:title=" ">
<path fill="none" stroke="#63b8ff" d="M1159.44,-235.62C1162.46,-227.39 1166.95,-215.13 1170.76,-204.74"/>
<polygon fill="#63b8ff" stroke="#63b8ff" points="1173.98,-206.13 1174.14,-195.53 1167.41,-203.72 1173.98,-206.13"/>
</a>
</g>
</g>
<!-- Node14 -->
<g id="Node000014" class="node">
<title>Node14</title>
<g id="a_Node000014"><a xlink:title=" ">
<polygon fill="#e0e0e0" stroke="#999999" points="632.12,-194 583.88,-194 583.88,-174 632.12,-174 632.12,-194"/>
<text text-anchor="middle" x="608" y="-180.5" font-family="Helvetica,sans-Serif" font-size="10.00">string.h</text>
</a>
</g>
</g>
<!-- Node11&#45;&gt;Node14 -->
<g id="edge22_Node000011_Node000014" class="edge">
<title>Node11&#45;&gt;Node14</title>
<g id="a_edge22_Node000011_Node000014"><a xlink:title=" ">
<path fill="none" stroke="#63b8ff" d="M1110.94,-237.06C1108.25,-236.68 1105.59,-236.32 1103,-236 898.6,-210.73 840.44,-251.39 641,-200 639.4,-199.59 637.78,-199.1 636.16,-198.56"/>
<polygon fill="#63b8ff" stroke="#63b8ff" points="637.73,-195.42 627.15,-194.99 635.15,-201.93 637.73,-195.42"/>
</a>
</g>
</g>
<!-- Node15&#45;&gt;Node9 -->
<g id="edge27_Node000015_Node000009" class="edge">
<title>Node15&#45;&gt;Node9</title>
<g id="a_edge27_Node000015_Node000009"><a xlink:title=" ">
<path fill="none" stroke="#63b8ff" d="M620.49,-237.22C623.36,-236.8 626.22,-236.38 629,-236 770.78,-216.44 810.28,-235.21 949,-200 950.98,-199.5 952.99,-198.91 955.01,-198.27"/>
<polygon fill="#63b8ff" stroke="#63b8ff" points="955.96,-201.65 964.17,-194.95 953.57,-195.07 955.96,-201.65"/>
</a>
</g>
</g>
<!-- Node16 -->
<g id="Node000016" class="node">
<title>Node16</title>
<g id="a_Node000016"><a xlink:title=" ">
<polygon fill="#e0e0e0" stroke="#999999" points="321.88,-194 218.12,-194 218.12,-174 321.88,-174 321.88,-194"/>
<text text-anchor="middle" x="270" y="-180.5" font-family="Helvetica,sans-Serif" font-size="10.00">Adafruit_BMP3XX.h</text>
</a>
</g>
</g>
<!-- Node15&#45;&gt;Node16 -->
<g id="edge26_Node000015_Node000016" class="edge">
<title>Node15&#45;&gt;Node16</title>
<g id="a_edge26_Node000015_Node000016"><a xlink:title=" ">
<path fill="none" stroke="#63b8ff" d="M527.26,-237.17C478.21,-228.77 398.95,-214.63 331,-200 326.74,-199.08 322.33,-198.09 317.92,-197.06"/>
<polygon fill="#63b8ff" stroke="#63b8ff" points="319.03,-193.73 308.49,-194.82 317.41,-200.54 319.03,-193.73"/>
</a>
</g>
</g>
<!-- Node17&#45;&gt;Node4 -->
<g id="edge30_Node000017_Node000004" class="edge">
<title>Node17&#45;&gt;Node4</title>
<g id="a_edge30_Node000017_Node000004"><a xlink:title=" ">
<path fill="none" stroke="#63b8ff" d="M1408.53,-235.62C1440.62,-225.44 1492.06,-209.11 1527.81,-197.76"/>
<polygon fill="#63b8ff" stroke="#63b8ff" points="1528.45,-201.23 1536.92,-194.87 1526.33,-194.56 1528.45,-201.23"/>
</a>
</g>
</g>
<!-- Node17&#45;&gt;Node9 -->
<g id="edge31_Node000017_Node000009" class="edge">
<title>Node17&#45;&gt;Node9</title>
<g id="a_edge31_Node000017_Node000009"><a xlink:title=" ">
<path fill="none" stroke="#63b8ff" d="M1332.77,-237.15C1330.15,-236.75 1327.54,-236.36 1325,-236 1191.19,-216.88 1153.91,-233.69 1023,-200 1021.02,-199.49 1019.01,-198.9 1017,-198.25"/>
<polygon fill="#63b8ff" stroke="#63b8ff" points="1018.43,-195.05 1007.84,-194.92 1016.04,-201.63 1018.43,-195.05"/>
</a>
</g>
</g>
<!-- Node17&#45;&gt;Node13 -->
<g id="edge29_Node000017_Node000013" class="edge">
<title>Node17&#45;&gt;Node13</title>
<g id="a_edge29_Node000017_Node000013"><a xlink:title=" ">
<path fill="none" stroke="#63b8ff" d="M1347.59,-235.62C1310.57,-224.57 1249.3,-206.28 1211.42,-194.98"/>
<polygon fill="#63b8ff" stroke="#63b8ff" points="1212.51,-191.65 1201.92,-192.14 1210.5,-198.36 1212.51,-191.65"/>
</a>
</g>
</g>
<!-- Node18 -->
<g id="Node000018" class="node">
<title>Node18</title>
<g id="a_Node000018"><a xlink:title=" ">
<polygon fill="#e0e0e0" stroke="#999999" points="1506.12,-194 1397.88,-194 1397.88,-174 1506.12,-174 1506.12,-194"/>
<text text-anchor="middle" x="1452" y="-180.5" font-family="Helvetica,sans-Serif" font-size="10.00">SparkFun_ENS160.h</text>
</a>
</g>
</g>
<!-- Node17&#45;&gt;Node18 -->
<g id="edge32_Node000017_Node000018" class="edge">
<title>Node17&#45;&gt;Node18</title>
<g id="a_edge32_Node000017_Node000018"><a xlink:title=" ">
<path fill="none" stroke="#63b8ff" d="M1390.41,-235.62C1401.61,-226.41 1418.94,-212.17 1432.37,-201.14"/>
<polygon fill="#63b8ff" stroke="#63b8ff" points="1434.24,-204.13 1439.74,-195.07 1429.8,-198.72 1434.24,-204.13"/>
</a>
</g>
</g>
<!-- Node19&#45;&gt;Node4 -->
<g id="edge38_Node000019_Node000004" class="edge">
<title>Node19&#45;&gt;Node4</title>
<g id="a_edge38_Node000019_Node000004"><a xlink:title=" ">
<path fill="none" stroke="#63b8ff" d="M738.49,-236.94C741.36,-236.6 744.22,-236.28 747,-236 1087.03,-202.19 1177.73,-254.89 1515,-200 1519.34,-199.29 1523.82,-198.36 1528.27,-197.3"/>
<polygon fill="#63b8ff" stroke="#63b8ff" points="1528.86,-200.76 1537.65,-194.85 1527.09,-193.99 1528.86,-200.76"/>
</a>
</g>
</g>
<!-- Node19&#45;&gt;Node9 -->
<g id="edge39_Node000019_Node000009" class="edge">
<title>Node19&#45;&gt;Node9</title>
<g id="a_edge39_Node000019_Node000009"><a xlink:title=" ">
<path fill="none" stroke="#63b8ff" d="M738.38,-236.91C808.49,-225.56 929.13,-205.67 949,-200 950.83,-199.48 952.7,-198.89 954.57,-198.27"/>
<polygon fill="#63b8ff" stroke="#63b8ff" points="955.55,-201.64 963.72,-194.89 953.13,-195.07 955.55,-201.64"/>
</a>
</g>
</g>
<!-- Node19&#45;&gt;Node14 -->
<g id="edge37_Node000019_Node000014" class="edge">
<title>Node19&#45;&gt;Node14</title>
<g id="a_edge37_Node000019_Node000014"><a xlink:title=" ">
<path fill="none" stroke="#63b8ff" d="M675.5,-235.62C663.17,-226.38 644.09,-212.07 629.35,-201.01"/>
<polygon fill="#63b8ff" stroke="#63b8ff" points="631.72,-198.42 621.62,-195.22 627.52,-204.02 631.72,-198.42"/>
</a>
</g>
</g>
<!-- Node20 -->
<g id="Node000020" class="node">
<title>Node20</title>
<g id="a_Node000020"><a xlink:title=" ">
<polygon fill="#e0e0e0" stroke="#999999" points="566.12,-194 457.88,-194 457.88,-174 566.12,-174 566.12,-194"/>
<text text-anchor="middle" x="512" y="-180.5" font-family="Helvetica,sans-Serif" font-size="10.00">Adafruit_ICM20948.h</text>
</a>
</g>
</g>
<!-- Node19&#45;&gt;Node20 -->
<g id="edge34_Node000019_Node000020" class="edge">
<title>Node19&#45;&gt;Node20</title>
<g id="a_edge34_Node000019_Node000020"><a xlink:title=" ">
<path fill="none" stroke="#63b8ff" d="M660.5,-235.62C630.88,-225.53 583.54,-209.39 550.29,-198.05"/>
<polygon fill="#63b8ff" stroke="#63b8ff" points="551.62,-194.81 541.03,-194.9 549.37,-201.44 551.62,-194.81"/>
</a>
</g>
</g>
<!-- Node21 -->
<g id="Node000021" class="node">
<title>Node21</title>
<g id="a_Node000021"><a xlink:title=" ">
<polygon fill="#e0e0e0" stroke="#999999" points="439.62,-194 340.38,-194 340.38,-174 439.62,-174 439.62,-194"/>
<text text-anchor="middle" x="390" y="-180.5" font-family="Helvetica,sans-Serif" font-size="10.00">Adafruit_ICM20X.h</text>
</a>
</g>
</g>
<!-- Node19&#45;&gt;Node21 -->
<g id="edge35_Node000019_Node000021" class="edge">
<title>Node19&#45;&gt;Node21</title>
<g id="a_edge35_Node000019_Node000021"><a xlink:title=" ">
<path fill="none" stroke="#63b8ff" d="M637.92,-236.51C589.43,-228.08 513.93,-214.35 449,-200 445,-199.12 440.85,-198.15 436.7,-197.16"/>
<polygon fill="#63b8ff" stroke="#63b8ff" points="437.81,-193.83 427.26,-194.84 436.14,-200.63 437.81,-193.83"/>
</a>
</g>
</g>
<!-- Node22 -->
<g id="Node000022" class="node">
<title>Node22</title>
<g id="a_Node000022"><a xlink:title=" ">
<polygon fill="#e0e0e0" stroke="#999999" points="744,-194 650,-194 650,-174 744,-174 744,-194"/>
<text text-anchor="middle" x="697" y="-180.5" font-family="Helvetica,sans-Serif" font-size="10.00">Adafruit_Sensor.h</text>
</a>
</g>
</g>
<!-- Node19&#45;&gt;Node22 -->
<g id="edge36_Node000019_Node000022" class="edge">
<title>Node19&#45;&gt;Node22</title>
<g id="a_edge36_Node000019_Node000022"><a xlink:title=" ">
<path fill="none" stroke="#63b8ff" d="M689.41,-235.62C690.62,-227.56 692.4,-215.65 693.94,-205.41"/>
<polygon fill="#63b8ff" stroke="#63b8ff" points="697.39,-206.02 695.41,-195.61 690.46,-204.98 697.39,-206.02"/>
</a>
</g>
</g>
<!-- Node23&#45;&gt;Node2 -->
<g id="edge41_Node000023_Node000002" class="edge">
<title>Node23&#45;&gt;Node2</title>
<g id="a_edge41_Node000023_Node000002"><a xlink:title=" ">
<path fill="none" stroke="#63b8ff" d="M421.84,-242.88C328.18,-237.92 116.38,-224.13 95,-200 85.57,-189.36 85.89,-178.92 95,-168 202.34,-39.37 762.63,-15.87 918.01,-11.81"/>
<polygon fill="#63b8ff" stroke="#63b8ff" points="917.89,-15.31 927.8,-11.57 917.71,-8.32 917.89,-15.31"/>
</a>
</g>
</g>
<!-- Node23&#45;&gt;Node9 -->
<g id="edge44_Node000023_Node000009" class="edge">
<title>Node23&#45;&gt;Node9</title>
<g id="a_edge44_Node000023_Node000009"><a xlink:title=" ">
<path fill="none" stroke="#63b8ff" d="M510.49,-237.16C513.37,-236.74 516.22,-236.35 519,-236 709.26,-211.93 762.46,-244.53 949,-200 951.12,-199.49 953.28,-198.88 955.44,-198.2"/>
<polygon fill="#63b8ff" stroke="#63b8ff" points="956.37,-201.59 964.58,-194.9 953.99,-195.01 956.37,-201.59"/>
</a>
</g>
</g>
<!-- Node23&#45;&gt;Node14 -->
<g id="edge42_Node000023_Node000014" class="edge">
<title>Node23&#45;&gt;Node14</title>
<g id="a_edge42_Node000023_Node000014"><a xlink:title=" ">
<path fill="none" stroke="#63b8ff" d="M489.49,-235.58C511.63,-226.63 545.7,-212.7 575,-200 575.76,-199.67 576.52,-199.34 577.3,-199"/>
<polygon fill="#63b8ff" stroke="#63b8ff" points="578.36,-202.36 586.07,-195.09 575.51,-195.96 578.36,-202.36"/>
</a>
</g>
</g>
<!-- Node24 -->
<g id="Node000024" class="node">
<title>Node24</title>
<g id="a_Node000024"><a xlink:title=" ">
<polygon fill="#e0e0e0" stroke="#999999" points="200.12,-194 103.88,-194 103.88,-174 200.12,-174 200.12,-194"/>
<text text-anchor="middle" x="152" y="-180.5" font-family="Helvetica,sans-Serif" font-size="10.00">Adafruit_INA260.h</text>
</a>
</g>
</g>
<!-- Node23&#45;&gt;Node24 -->
<g id="edge43_Node000023_Node000024" class="edge">
<title>Node23&#45;&gt;Node24</title>
<g id="a_edge43_Node000023_Node000024"><a xlink:title=" ">
<path fill="none" stroke="#63b8ff" d="M421.67,-238.4C370.27,-230.47 283.12,-216.21 209,-200 205.02,-199.13 200.89,-198.17 196.77,-197.16"/>
<polygon fill="#63b8ff" stroke="#63b8ff" points="197.97,-193.85 187.41,-194.8 196.26,-200.64 197.97,-193.85"/>
</a>
</g>
</g>
<!-- Node25&#45;&gt;Node2 -->
<g id="edge46_Node000025_Node000002" class="edge">
<title>Node25&#45;&gt;Node2</title>
<g id="a_edge46_Node000025_Node000002"><a xlink:title=" ">
<path fill="none" stroke="#63b8ff" d="M1261.51,-235.6C1252.17,-220.15 1231.94,-189.04 1209,-168 1138.59,-103.44 1038.11,-49.87 988.34,-25.36"/>
<polygon fill="#63b8ff" stroke="#63b8ff" points="990.12,-22.33 979.6,-21.1 987.06,-28.63 990.12,-22.33"/>
</a>
</g>
</g>
<!-- Node25&#45;&gt;Node4 -->
<g id="edge49_Node000025_Node000004" class="edge">
<title>Node25&#45;&gt;Node4</title>
<g id="a_edge49_Node000025_Node000004"><a xlink:title=" ">
<path fill="none" stroke="#63b8ff" d="M1315.88,-236.71C1376.96,-226.24 1477.97,-208.58 1515,-200 1518.38,-199.22 1521.88,-198.35 1525.37,-197.45"/>
<polygon fill="#63b8ff" stroke="#63b8ff" points="1526.25,-200.84 1535,-194.86 1524.43,-194.08 1526.25,-200.84"/>
</a>
</g>
</g>
<!-- Node25&#45;&gt;Node9 -->
<g id="edge50_Node000025_Node000009" class="edge">
<title>Node25&#45;&gt;Node9</title>
<g id="a_edge50_Node000025_Node000009"><a xlink:title=" ">
<path fill="none" stroke="#63b8ff" d="M1218.23,-237.21C1157.91,-227.36 1058.82,-210.45 1023,-200 1021.22,-199.48 1019.4,-198.9 1017.58,-198.29"/>
<polygon fill="#63b8ff" stroke="#63b8ff" points="1019.27,-195.19 1008.68,-195 1016.85,-201.75 1019.27,-195.19"/>
</a>
</g>
</g>
<!-- Node25&#45;&gt;Node13 -->
<g id="edge48_Node000025_Node000013" class="edge">
<title>Node25&#45;&gt;Node13</title>
<g id="a_edge48_Node000025_Node000013"><a xlink:title=" ">
<path fill="none" stroke="#63b8ff" d="M1253.09,-235.62C1239.25,-226.29 1217.74,-211.79 1201.29,-200.7"/>
<polygon fill="#63b8ff" stroke="#63b8ff" points="1203.31,-197.84 1193.06,-195.16 1199.4,-203.65 1203.31,-197.84"/>
</a>
</g>
</g>
<!-- Node26 -->
<g id="Node000026" class="node">
<title>Node26</title>
<g id="a_Node000026"><a xlink:title=" ">
<polygon fill="#e0e0e0" stroke="#999999" points="1379.62,-200 1256.38,-200 1256.38,-168 1379.62,-168 1379.62,-200"/>
<text text-anchor="start" x="1264.38" y="-186.5" font-family="Helvetica,sans-Serif" font-size="10.00">SparkFun_u&#45;blox_GNSS</text>
<text text-anchor="middle" x="1318" y="-174.5" font-family="Helvetica,sans-Serif" font-size="10.00">_Arduino_Library.h</text>
</a>
</g>
</g>
<!-- Node25&#45;&gt;Node26 -->
<g id="edge47_Node000025_Node000026" class="edge">
<title>Node25&#45;&gt;Node26</title>
<g id="a_edge47_Node000025_Node000026"><a xlink:title=" ">
<path fill="none" stroke="#63b8ff" d="M1274.97,-235.62C1281.08,-228.43 1289.8,-218.17 1297.8,-208.77"/>
<polygon fill="#63b8ff" stroke="#63b8ff" points="1300.34,-211.18 1304.15,-201.29 1295.01,-206.65 1300.34,-211.18"/>
</a>
</g>
</g>
<!-- Node27&#45;&gt;Node4 -->
<g id="edge53_Node000027_Node000004" class="edge">
<title>Node27&#45;&gt;Node4</title>
<g id="a_edge53_Node000027_Node000004"><a xlink:title=" ">
<path fill="none" stroke="#63b8ff" d="M1622,-235.62C1612.36,-226.59 1597.57,-212.72 1585.9,-201.78"/>
<polygon fill="#63b8ff" stroke="#63b8ff" points="1588.51,-199.43 1578.82,-195.15 1583.73,-204.54 1588.51,-199.43"/>
</a>
</g>
</g>
<!-- Node27&#45;&gt;Node9 -->
<g id="edge54_Node000027_Node000009" class="edge">
<title>Node27&#45;&gt;Node9</title>
<g id="a_edge54_Node000027_Node000009"><a xlink:title=" ">
<path fill="none" stroke="#63b8ff" d="M1589.92,-240.47C1575.1,-238.95 1558.32,-237.3 1543,-236 1312.17,-216.34 1248.71,-252.17 1023,-200 1020.96,-199.53 1018.89,-198.96 1016.82,-198.32"/>
<polygon fill="#63b8ff" stroke="#63b8ff" points="1018,-195.03 1007.41,-194.95 1015.64,-201.62 1018,-195.03"/>
</a>
</g>
</g>
<!-- Node28 -->
<g id="Node000028" class="node">
<title>Node28</title>
<g id="a_Node000028"><a xlink:title=" ">
<polygon fill="#e0e0e0" stroke="#999999" points="1884.25,-194 1755.75,-194 1755.75,-174 1884.25,-174 1884.25,-194"/>
<text text-anchor="middle" x="1820" y="-180.5" font-family="Helvetica,sans-Serif" font-size="10.00">DFRobot_OzoneSensor.h</text>
</a>
</g>
</g>
<!-- Node27&#45;&gt;Node28 -->
<g id="edge52_Node000027_Node000028" class="edge">
<title>Node27&#45;&gt;Node28</title>
<g id="a_edge52_Node000027_Node000028"><a xlink:title=" ">
<path fill="none" stroke="#63b8ff" d="M1661.38,-235.62C1693.15,-225.48 1744.03,-209.25 1779.57,-197.9"/>
<polygon fill="#63b8ff" stroke="#63b8ff" points="1780.62,-201.24 1789.08,-194.87 1778.49,-194.57 1780.62,-201.24"/>
</a>
</g>
</g>
<!-- Node29&#45;&gt;Node9 -->
<g id="edge57_Node000029_Node000009" class="edge">
<title>Node29&#45;&gt;Node9</title>
<g id="a_edge57_Node000029_Node000009"><a xlink:title=" ">
<path fill="none" stroke="#63b8ff" d="M921.88,-235.62C933.54,-226.41 951.58,-212.17 965.56,-201.14"/>
<polygon fill="#63b8ff" stroke="#63b8ff" points="967.59,-203.99 973.27,-195.05 963.25,-198.5 967.59,-203.99"/>
</a>
</g>
</g>
<!-- Node30 -->
<g id="Node000030" class="node">
<title>Node30</title>
<g id="a_Node000030"><a xlink:title=" ">
<polygon fill="#e0e0e0" stroke="#999999" points="940.12,-194 885.88,-194 885.88,-174 940.12,-174 940.12,-194"/>
<text text-anchor="middle" x="913" y="-180.5" font-family="Helvetica,sans-Serif" font-size="10.00">RTClib.h</text>
</a>
</g>
</g>
<!-- Node29&#45;&gt;Node30 -->
<g id="edge56_Node000029_Node000030" class="edge">
<title>Node29&#45;&gt;Node30</title>
<g id="a_edge56_Node000029_Node000030"><a xlink:title=" ">
<path fill="none" stroke="#63b8ff" d="M910.47,-235.62C910.87,-227.56 911.47,-215.65 911.98,-205.41"/>
<polygon fill="#63b8ff" stroke="#63b8ff" points="915.46,-205.79 912.47,-195.62 908.47,-205.44 915.46,-205.79"/>
</a>
</g>
</g>
<!-- Node31&#45;&gt;Node4 -->
<g id="edge63_Node000031_Node000004" class="edge">
<title>Node31&#45;&gt;Node4</title>
<g id="a_edge63_Node000031_Node000004"><a xlink:title=" ">
<path fill="none" stroke="#63b8ff" d="M843.91,-237.15C846.98,-236.72 850.03,-236.33 853,-236 1145.83,-203.28 1224.35,-248.42 1515,-200 1519.33,-199.28 1523.82,-198.33 1528.26,-197.27"/>
<polygon fill="#63b8ff" stroke="#63b8ff" points="1528.85,-200.73 1537.64,-194.81 1527.08,-193.96 1528.85,-200.73"/>
</a>
</g>
</g>
<!-- Node31&#45;&gt;Node9 -->
<g id="edge64_Node000031_Node000009" class="edge">
<title>Node31&#45;&gt;Node9</title>
<g id="a_edge64_Node000031_Node000009"><a xlink:title=" ">
<path fill="none" stroke="#63b8ff" d="M834.62,-235.52C865,-226.97 910.27,-213.67 949,-200 950.36,-199.52 951.74,-199.02 953.14,-198.5"/>
<polygon fill="#63b8ff" stroke="#63b8ff" points="954.34,-201.79 962.41,-194.92 951.82,-195.26 954.34,-201.79"/>
</a>
</g>
</g>
<!-- Node31&#45;&gt;Node13 -->
<g id="edge61_Node000031_Node000013" class="edge">
<title>Node31&#45;&gt;Node13</title>
<g id="a_edge61_Node000031_Node000013"><a xlink:title=" ">
<path fill="none" stroke="#63b8ff" d="M843.93,-237.38C847,-236.9 850.04,-236.43 853,-236 983.26,-216.98 1020.71,-237.17 1147,-200 1148.18,-199.65 1149.36,-199.27 1150.55,-198.85"/>
<polygon fill="#63b8ff" stroke="#63b8ff" points="1151.76,-202.14 1159.63,-195.04 1149.05,-195.68 1151.76,-202.14"/>
</a>
</g>
</g>
<!-- Node31&#45;&gt;Node14 -->
<g id="edge62_Node000031_Node000014" class="edge">
<title>Node31&#45;&gt;Node14</title>
<g id="a_edge62_Node000031_Node000014"><a xlink:title=" ">
<path fill="none" stroke="#63b8ff" d="M760.27,-235.53C727.78,-227.37 680.87,-214.61 641,-200 639.88,-199.59 638.74,-199.16 637.59,-198.71"/>
<polygon fill="#63b8ff" stroke="#63b8ff" points="639.31,-195.63 628.74,-194.97 636.59,-202.08 639.31,-195.63"/>
</a>
</g>
</g>
<!-- Node31&#45;&gt;Node22 -->
<g id="edge59_Node000031_Node000022" class="edge">
<title>Node31&#45;&gt;Node22</title>
<g id="a_edge59_Node000031_Node000022"><a xlink:title=" ">
<path fill="none" stroke="#63b8ff" d="M783.91,-235.62C767.58,-226.11 742.05,-211.24 722.88,-200.08"/>
<polygon fill="#63b8ff" stroke="#63b8ff" points="724.69,-197.08 714.29,-195.07 721.17,-203.13 724.69,-197.08"/>
</a>
</g>
</g>
<!-- Node32 -->
<g id="Node000032" class="node">
<title>Node32</title>
<g id="a_Node000032"><a xlink:title=" ">
<polygon fill="#e0e0e0" stroke="#999999" points="868,-194 762,-194 762,-174 868,-174 868,-194"/>
<text text-anchor="middle" x="815" y="-180.5" font-family="Helvetica,sans-Serif" font-size="10.00">SensirionI2cScd4x.h</text>
</a>
</g>
</g>
<!-- Node31&#45;&gt;Node32 -->
<g id="edge60_Node000031_Node000032" class="edge">
<title>Node31&#45;&gt;Node32</title>
<g id="a_edge60_Node000031_Node000032"><a xlink:title=" ">
<path fill="none" stroke="#63b8ff" d="M802.34,-235.62C804.38,-227.48 807.4,-215.39 809.98,-205.07"/>
<polygon fill="#63b8ff" stroke="#63b8ff" points="813.32,-206.13 812.35,-195.58 806.53,-204.43 813.32,-206.13"/>
</a>
</g>
</g>
<!-- Node33&#45;&gt;Node4 -->
<g id="edge67_Node000033_Node000004" class="edge">
<title>Node33&#45;&gt;Node4</title>
<g id="a_edge67_Node000033_Node000004"><a xlink:title=" ">
<path fill="none" stroke="#63b8ff" d="M1709.75,-235.62C1681.6,-225.57 1636.68,-209.53 1604.96,-198.2"/>
<polygon fill="#63b8ff" stroke="#63b8ff" points="1606.36,-194.98 1595.77,-194.92 1604.01,-201.58 1606.36,-194.98"/>
</a>
</g>
</g>
<!-- Node33&#45;&gt;Node9 -->
<g id="edge68_Node000033_Node000009" class="edge">
<title>Node33&#45;&gt;Node9</title>
<g id="a_edge68_Node000033_Node000009"><a xlink:title=" ">
<path fill="none" stroke="#63b8ff" d="M1691.52,-237.07C1688.64,-236.67 1685.78,-236.31 1683,-236 1391.05,-203.36 1309.7,-264.06 1023,-200 1020.96,-199.54 1018.88,-198.99 1016.81,-198.36"/>
<polygon fill="#63b8ff" stroke="#63b8ff" points="1017.99,-195.06 1007.39,-195 1015.64,-201.66 1017.99,-195.06"/>
</a>
</g>
</g>
<!-- Node34 -->
<g id="Node000034" class="node">
<title>Node34</title>
<g id="a_Node000034"><a xlink:title=" ">
<polygon fill="#e0e0e0" stroke="#999999" points="1998.12,-194 1901.88,-194 1901.88,-174 1998.12,-174 1998.12,-194"/>
<text text-anchor="middle" x="1950" y="-180.5" font-family="Helvetica,sans-Serif" font-size="10.00">Adafruit_SHTC3.h</text>
</a>
</g>
</g>
<!-- Node33&#45;&gt;Node34 -->
<g id="edge66_Node000033_Node000034" class="edge">
<title>Node33&#45;&gt;Node34</title>
<g id="a_edge66_Node000033_Node000034"><a xlink:title=" ">
<path fill="none" stroke="#63b8ff" d="M1769.44,-235.62C1806.08,-225.35 1865.03,-208.82 1905.54,-197.47"/>
<polygon fill="#63b8ff" stroke="#63b8ff" points="1906.3,-200.89 1914.99,-194.82 1904.41,-194.15 1906.3,-200.89"/>
</a>
</g>
</g>
<!-- Node35&#45;&gt;Node4 -->
<g id="edge72_Node000035_Node000004" class="edge">
<title>Node35&#45;&gt;Node4</title>
<g id="a_edge72_Node000035_Node000004"><a xlink:title=" ">
<path fill="none" stroke="#63b8ff" d="M1500.5,-235.62C1512.83,-226.38 1531.91,-212.07 1546.65,-201.01"/>
<polygon fill="#63b8ff" stroke="#63b8ff" points="1548.48,-204.02 1554.38,-195.22 1544.28,-198.42 1548.48,-204.02"/>
</a>
</g>
</g>
<!-- Node35&#45;&gt;Node9 -->
<g id="edge73_Node000035_Node000009" class="edge">
<title>Node35&#45;&gt;Node9</title>
<g id="a_edge73_Node000035_Node000009"><a xlink:title=" ">
<path fill="none" stroke="#63b8ff" d="M1442.08,-237.1C1439.35,-236.7 1436.64,-236.34 1434,-236 1252.09,-212.91 1201.27,-242.92 1023,-200 1020.88,-199.49 1018.72,-198.88 1016.56,-198.2"/>
<polygon fill="#63b8ff" stroke="#63b8ff" points="1018.01,-195 1007.42,-194.88 1015.63,-201.58 1018.01,-195"/>
</a>
</g>
</g>
<!-- Node35&#45;&gt;Node13 -->
<g id="edge71_Node000035_Node000013" class="edge">
<title>Node35&#45;&gt;Node13</title>
<g id="a_edge71_Node000035_Node000013"><a xlink:title=" ">
<path fill="none" stroke="#63b8ff" d="M1442.17,-236.86C1393.63,-228.14 1314.8,-213.7 1247,-200 1235.5,-197.68 1222.94,-194.99 1211.74,-192.54"/>
<polygon fill="#63b8ff" stroke="#63b8ff" points="1212.65,-189.16 1202.13,-190.43 1211.14,-196 1212.65,-189.16"/>
</a>
</g>
</g>
<!-- Node36 -->
<g id="Node000036" class="node">
<title>Node36</title>
<g id="a_Node000036"><a xlink:title=" ">
<polygon fill="#e0e0e0" stroke="#999999" points="1737.75,-194 1630.25,-194 1630.25,-174 1737.75,-174 1737.75,-194"/>
<text text-anchor="middle" x="1684" y="-180.5" font-family="Helvetica,sans-Serif" font-size="10.00">SparkFun_TMP117.h</text>
</a>
</g>
</g>
<!-- Node35&#45;&gt;Node36 -->
<g id="edge70_Node000035_Node000036" class="edge">
<title>Node35&#45;&gt;Node36</title>
<g id="a_edge70_Node000035_Node000036"><a xlink:title=" ">
<path fill="none" stroke="#63b8ff" d="M1518.62,-235.62C1551.9,-225.44 1605.25,-209.11 1642.32,-197.76"/>
<polygon fill="#63b8ff" stroke="#63b8ff" points="1643.28,-201.12 1651.82,-194.85 1641.23,-194.43 1643.28,-201.12"/>
</a>
</g>
</g>
<!-- Node37&#45;&gt;Node9 -->
<g id="edge75_Node000037_Node000009" class="edge">
<title>Node37&#45;&gt;Node9</title>
<g id="a_edge75_Node000037_Node000009"><a xlink:title=" ">
<path fill="none" stroke="#63b8ff" d="M1043.38,-235.62C1033.04,-226.5 1017.1,-212.45 1004.65,-201.46"/>
<polygon fill="#63b8ff" stroke="#63b8ff" points="1007.28,-199.11 997.46,-195.11 1002.65,-204.35 1007.28,-199.11"/>
</a>
</g>
</g>
</g>
</svg>
