<?xml version="1.0" encoding="UTF-8" standalone="no"?>
<!DOCTYPE svg PUBLIC "-//W3C//DTD SVG 1.1//EN"
 "http://www.w3.org/Graphics/SVG/1.1/DTD/svg11.dtd">
<!-- Generated by graphviz version 2.43.0 (0)
 -->
<!-- Title: main.cpp Pages: 1 -->
<svg width="2357pt" height="313pt"
 viewBox="0.00 0.00 2357.00 313.00" xmlns="http://www.w3.org/2000/svg" xmlns:xlink="http://www.w3.org/1999/xlink">
<g id="graph0" class="graph" transform="scale(1 1) rotate(0) translate(4 309)">
<title>main.cpp</title>
<!-- Node1 -->
<g id="Node000001" class="node">
<title>Node1</title>
<g id="a_Node000001"><a xlink:title="Main functions for Core 0, responsible for reading data from sensor peripherals.">
<polygon fill="#999999" stroke="#666666" points="887,-305 825,-305 825,-286 887,-286 887,-305"/>
<text text-anchor="middle" x="856" y="-293" font-family="Helvetica,sans-Serif" font-size="10.00">main.cpp</text>
</a>
</g>
</g>
<!-- Node2 -->
<g id="Node000002" class="node">
<title>Node2</title>
<g id="a_Node000002"><a xlink:title=" ">
<polygon fill="#e0e0e0" stroke="#999999" points="655.5,-19 592.5,-19 592.5,0 655.5,0 655.5,-19"/>
<text text-anchor="middle" x="624" y="-7" font-family="Helvetica,sans-Serif" font-size="10.00">Arduino.h</text>
</a>
</g>
</g>
<!-- Node1&#45;&gt;Node2 -->
<g id="edge1_Node000001_Node000002" class="edge">
<title>Node1&#45;&gt;Node2</title>
<g id="a_edge1_Node000001_Node000002"><a xlink:title=" ">
<path fill="none" stroke="#63b8ff" d="M824.74,-293.72C690.13,-290.22 163.51,-275.04 94,-250 45.24,-232.44 0,-232.82 0,-181 0,-181 0,-181 0,-118.5 0,-59.3 441.72,-23.26 581.87,-13.32"/>
<polygon fill="#63b8ff" stroke="#63b8ff" points="582.47,-16.79 592.2,-12.6 581.98,-9.81 582.47,-16.79"/>
</a>
</g>
</g>
<!-- Node3 -->
<g id="Node000003" class="node">
<title>Node3</title>
<g id="a_Node000003"><a xlink:href="ErrorDisplay_8h.html" target="_top" xlink:title=" ">
<polygon fill="white" stroke="#666666" points="2151,-250 2067,-250 2067,-231 2151,-231 2151,-250"/>
<text text-anchor="middle" x="2109" y="-238" font-family="Helvetica,sans-Serif" font-size="10.00">ErrorDisplay.h</text>
</a>
</g>
</g>
<!-- Node1&#45;&gt;Node3 -->
<g id="edge2_Node000001_Node000003" class="edge">
<title>Node1&#45;&gt;Node3</title>
<g id="a_edge2_Node000001_Node000003"><a xlink:title=" ">
<path fill="none" stroke="#63b8ff" d="M887.29,-293.18C1054.65,-286.1 1844.52,-252.69 2056.52,-243.72"/>
<polygon fill="#63b8ff" stroke="#63b8ff" points="2056.92,-247.21 2066.76,-243.29 2056.62,-240.21 2056.92,-247.21"/>
</a>
</g>
</g>
<!-- Node4 -->
<g id="Node000004" class="node">
<title>Node4</title>
<g id="a_Node000004"><a xlink:href="PayloadConfig_8h.html" target="_top" xlink:title="Central location for pinout and config defines.">
<polygon fill="white" stroke="#666666" points="1307.5,-189.5 1212.5,-189.5 1212.5,-170.5 1307.5,-170.5 1307.5,-189.5"/>
<text text-anchor="middle" x="1260" y="-177.5" font-family="Helvetica,sans-Serif" font-size="10.00">PayloadConfig.h</text>
</a>
</g>
</g>
<!-- Node1&#45;&gt;Node4 -->
<g id="edge10_Node000001_Node000004" class="edge">
<title>Node1&#45;&gt;Node4</title>
<g id="a_edge10_Node000001_Node000004"><a xlink:title=" ">
<path fill="none" stroke="#63b8ff" d="M887.19,-292.55C958.18,-287.75 1129.75,-273.96 1182,-250 1208.59,-237.81 1232.73,-213.46 1246.89,-197.2"/>
<polygon fill="#63b8ff" stroke="#63b8ff" points="1249.58,-199.44 1253.35,-189.54 1244.23,-194.93 1249.58,-199.44"/>
</a>
</g>
</g>
<!-- Node8 -->
<g id="Node000008" class="node">
<title>Node8</title>
<g id="a_Node000008"><a xlink:href="Logger_8h.html" target="_top" xlink:title=" ">
<polygon fill="white" stroke="#666666" points="653,-74 595,-74 595,-55 653,-55 653,-74"/>
<text text-anchor="middle" x="624" y="-62" font-family="Helvetica,sans-Serif" font-size="10.00">Logger.h</text>
</a>
</g>
</g>
<!-- Node1&#45;&gt;Node8 -->
<g id="edge8_Node000001_Node000008" class="edge">
<title>Node1&#45;&gt;Node8</title>
<g id="a_edge8_Node000001_Node000008"><a xlink:title=" ">
<path fill="none" stroke="#63b8ff" d="M824.59,-294.29C691.75,-293.19 180.2,-286.58 119,-250 94.33,-235.26 92.85,-222.64 85,-195 81.36,-182.17 76.47,-175.25 85,-165 148.98,-88.12 471.34,-70.41 584.59,-66.53"/>
<polygon fill="#63b8ff" stroke="#63b8ff" points="585,-70.02 594.88,-66.2 584.77,-63.02 585,-70.02"/>
</a>
</g>
</g>
<!-- Node9 -->
<g id="Node000009" class="node">
<title>Node9</title>
<g id="a_Node000009"><a xlink:href="CommandMessage_8h.html" target="_top" xlink:title=" ">
<polygon fill="white" stroke="#666666" points="2288.5,-250 2169.5,-250 2169.5,-231 2288.5,-231 2288.5,-250"/>
<text text-anchor="middle" x="2229" y="-238" font-family="Helvetica,sans-Serif" font-size="10.00">CommandMessage.h</text>
</a>
</g>
</g>
<!-- Node1&#45;&gt;Node9 -->
<g id="edge11_Node000001_Node000009" class="edge">
<title>Node1&#45;&gt;Node9</title>
<g id="a_edge11_Node000001_Node000009"><a xlink:title=" ">
<path fill="none" stroke="#63b8ff" d="M887.34,-294.45C1031.44,-294.02 1644.86,-289.85 2158.97,-249.99"/>
<polygon fill="#63b8ff" stroke="#63b8ff" points="2159.5,-253.46 2169.19,-249.2 2158.95,-246.49 2159.5,-253.46"/>
</a>
</g>
</g>
<!-- Node10 -->
<g id="Node000010" class="node">
<title>Node10</title>
<g id="a_Node000010"><a xlink:href="Sensor_8h.html" target="_top" xlink:title=" ">
<polygon fill="white" stroke="#666666" points="681,-189.5 623,-189.5 623,-170.5 681,-170.5 681,-189.5"/>
<text text-anchor="middle" x="652" y="-177.5" font-family="Helvetica,sans-Serif" font-size="10.00">Sensor.h</text>
</a>
</g>
</g>
<!-- Node1&#45;&gt;Node10 -->
<g id="edge14_Node000001_Node000010" class="edge">
<title>Node1&#45;&gt;Node10</title>
<g id="a_edge14_Node000001_Node000010"><a xlink:title=" ">
<path fill="none" stroke="#63b8ff" d="M850.7,-285.77C842,-272.14 823.37,-245.83 801,-231 757.77,-202.35 739.01,-211.97 690,-195 688.16,-194.36 686.27,-193.7 684.36,-193.02"/>
<polygon fill="#63b8ff" stroke="#63b8ff" points="685.45,-189.69 674.86,-189.59 683.07,-196.28 685.45,-189.69"/>
</a>
</g>
</g>
<!-- Node12 -->
<g id="Node000012" class="node">
<title>Node12</title>
<g id="a_Node000012"><a xlink:href="AS7331Sensor_8h.html" target="_top" xlink:title=" ">
<polygon fill="white" stroke="#666666" points="1462.5,-250 1367.5,-250 1367.5,-231 1462.5,-231 1462.5,-250"/>
<text text-anchor="middle" x="1415" y="-238" font-family="Helvetica,sans-Serif" font-size="10.00">AS7331Sensor.h</text>
</a>
</g>
</g>
<!-- Node1&#45;&gt;Node12 -->
<g id="edge20_Node000001_Node000012" class="edge">
<title>Node1&#45;&gt;Node12</title>
<g id="a_edge20_Node000001_Node000012"><a xlink:title=" ">
<path fill="none" stroke="#63b8ff" d="M887.12,-291.75C963.45,-284.98 1166.09,-266.82 1335,-250 1342.17,-249.29 1349.69,-248.52 1357.14,-247.74"/>
<polygon fill="#63b8ff" stroke="#63b8ff" points="1357.63,-251.21 1367.21,-246.68 1356.9,-244.25 1357.63,-251.21"/>
</a>
</g>
</g>
<!-- Node15 -->
<g id="Node000015" class="node">
<title>Node15</title>
<g id="a_Node000015"><a xlink:href="AnalogTemp_8h.html" target="_top" xlink:title=" ">
<polygon fill="white" stroke="#666666" points="583,-250 497,-250 497,-231 583,-231 583,-250"/>
<text text-anchor="middle" x="540" y="-238" font-family="Helvetica,sans-Serif" font-size="10.00">AnalogTemp.h</text>
</a>
</g>
</g>
<!-- Node1&#45;&gt;Node15 -->
<g id="edge26_Node000001_Node000015" class="edge">
<title>Node1&#45;&gt;Node15</title>
<g id="a_edge26_Node000001_Node000015"><a xlink:title=" ">
<path fill="none" stroke="#63b8ff" d="M824.84,-289.27C770.96,-280.24 659.83,-261.6 593.42,-250.46"/>
<polygon fill="#63b8ff" stroke="#63b8ff" points="593.61,-246.94 583.17,-248.74 592.45,-253.85 593.61,-246.94"/>
</a>
</g>
</g>
<!-- Node16 -->
<g id="Node000016" class="node">
<title>Node16</title>
<g id="a_Node000016"><a xlink:href="BMP390Sensor_8h.html" target="_top" xlink:title=" ">
<polygon fill="white" stroke="#666666" points="226,-250 128,-250 128,-231 226,-231 226,-250"/>
<text text-anchor="middle" x="177" y="-238" font-family="Helvetica,sans-Serif" font-size="10.00">BMP390Sensor.h</text>
</a>
</g>
</g>
<!-- Node1&#45;&gt;Node16 -->
<g id="edge28_Node000001_Node000016" class="edge">
<title>Node1&#45;&gt;Node16</title>
<g id="a_edge28_Node000001_Node000016"><a xlink:title=" ">
<path fill="none" stroke="#63b8ff" d="M824.79,-292.53C735.95,-286.85 474.06,-269.59 257,-250 250.27,-249.39 243.23,-248.71 236.23,-248.01"/>
<polygon fill="#63b8ff" stroke="#63b8ff" points="236.36,-244.5 226.05,-246.96 235.64,-251.46 236.36,-244.5"/>
</a>
</g>
</g>
<!-- Node18 -->
<g id="Node000018" class="node">
<title>Node18</title>
<g id="a_Node000018"><a xlink:href="ENS160Sensor_8h.html" target="_top" xlink:title=" ">
<polygon fill="white" stroke="#666666" points="1050.5,-250 955.5,-250 955.5,-231 1050.5,-231 1050.5,-250"/>
<text text-anchor="middle" x="1003" y="-238" font-family="Helvetica,sans-Serif" font-size="10.00">ENS160Sensor.h</text>
</a>
</g>
</g>
<!-- Node1&#45;&gt;Node18 -->
<g id="edge32_Node000001_Node000018" class="edge">
<title>Node1&#45;&gt;Node18</title>
<g id="a_edge32_Node000001_Node000018"><a xlink:title=" ">
<path fill="none" stroke="#63b8ff" d="M879.62,-285.98C903.9,-277.23 941.95,-263.51 969.37,-253.62"/>
<polygon fill="#63b8ff" stroke="#63b8ff" points="970.73,-256.85 978.95,-250.17 968.36,-250.27 970.73,-256.85"/>
</a>
</g>
</g>
<!-- Node20 -->
<g id="Node000020" class="node">
<title>Node20</title>
<g id="a_Node000020"><a xlink:href="ICM20948Sensor_8h.html" target="_top" xlink:title=" ">
<polygon fill="white" stroke="#666666" points="1615.5,-250 1508.5,-250 1508.5,-231 1615.5,-231 1615.5,-250"/>
<text text-anchor="middle" x="1562" y="-238" font-family="Helvetica,sans-Serif" font-size="10.00">ICM20948Sensor.h</text>
</a>
</g>
</g>
<!-- Node1&#45;&gt;Node20 -->
<g id="edge37_Node000001_Node000020" class="edge">
<title>Node1&#45;&gt;Node20</title>
<g id="a_edge37_Node000001_Node000020"><a xlink:title=" ">
<path fill="none" stroke="#63b8ff" d="M887.06,-292.48C977.29,-286.57 1247.23,-268.54 1471,-250 1479.73,-249.28 1488.93,-248.47 1497.99,-247.65"/>
<polygon fill="#63b8ff" stroke="#63b8ff" points="1498.48,-251.12 1508.12,-246.72 1497.85,-244.15 1498.48,-251.12"/>
</a>
</g>
</g>
<!-- Node24 -->
<g id="Node000024" class="node">
<title>Node24</title>
<g id="a_Node000024"><a xlink:href="INA260Sensor_8h.html" target="_top" xlink:title=" ">
<polygon fill="white" stroke="#666666" points="359.5,-250 266.5,-250 266.5,-231 359.5,-231 359.5,-250"/>
<text text-anchor="middle" x="313" y="-238" font-family="Helvetica,sans-Serif" font-size="10.00">INA260Sensor.h</text>
</a>
</g>
</g>
<!-- Node1&#45;&gt;Node24 -->
<g id="edge44_Node000001_Node000024" class="edge">
<title>Node1&#45;&gt;Node24</title>
<g id="a_edge44_Node000001_Node000024"><a xlink:title=" ">
<path fill="none" stroke="#63b8ff" d="M824.81,-292.33C748.79,-286.91 547.69,-271.7 369.84,-250.16"/>
<polygon fill="#63b8ff" stroke="#63b8ff" points="370.13,-246.67 359.78,-248.93 369.28,-253.62 370.13,-246.67"/>
</a>
</g>
</g>
<!-- Node26 -->
<g id="Node000026" class="node">
<title>Node26</title>
<g id="a_Node000026"><a xlink:href="MTK3339Sensor_8h.html" target="_top" xlink:title=" ">
<polygon fill="white" stroke="#666666" points="1173,-250 1069,-250 1069,-231 1173,-231 1173,-250"/>
<text text-anchor="middle" x="1121" y="-238" font-family="Helvetica,sans-Serif" font-size="10.00">MTK3339Sensor.h</text>
</a>
</g>
</g>
<!-- Node1&#45;&gt;Node26 -->
<g id="edge49_Node000001_Node000026" class="edge">
<title>Node1&#45;&gt;Node26</title>
<g id="a_edge49_Node000001_Node000026"><a xlink:title=" ">
<path fill="none" stroke="#63b8ff" d="M887.18,-288.26C931.65,-279.37 1013.9,-262.92 1068.03,-252.09"/>
<polygon fill="#63b8ff" stroke="#63b8ff" points="1069.01,-255.47 1078.13,-250.07 1067.64,-248.6 1069.01,-255.47"/>
</a>
</g>
</g>
<!-- Node28 -->
<g id="Node000028" class="node">
<title>Node28</title>
<g id="a_Node000028"><a xlink:href="OzoneSensor_8h.html" target="_top" xlink:title=" ">
<polygon fill="white" stroke="#666666" points="690.5,-250 601.5,-250 601.5,-231 690.5,-231 690.5,-250"/>
<text text-anchor="middle" x="646" y="-238" font-family="Helvetica,sans-Serif" font-size="10.00">OzoneSensor.h</text>
</a>
</g>
</g>
<!-- Node1&#45;&gt;Node28 -->
<g id="edge55_Node000001_Node000028" class="edge">
<title>Node1&#45;&gt;Node28</title>
<g id="a_edge55_Node000001_Node000028"><a xlink:title=" ">
<path fill="none" stroke="#63b8ff" d="M824.56,-286.57C788.7,-277.51 729.83,-262.66 689.56,-252.49"/>
<polygon fill="#63b8ff" stroke="#63b8ff" points="690.3,-249.07 679.74,-250.02 688.58,-255.86 690.3,-249.07"/>
</a>
</g>
</g>
<!-- Node30 -->
<g id="Node000030" class="node">
<title>Node30</title>
<g id="a_Node000030"><a xlink:href="PCF8523Sensor_8h.html" target="_top" xlink:title=" ">
<polygon fill="white" stroke="#666666" points="478.5,-250 377.5,-250 377.5,-231 478.5,-231 478.5,-250"/>
<text text-anchor="middle" x="428" y="-238" font-family="Helvetica,sans-Serif" font-size="10.00">PCF8523Sensor.h</text>
</a>
</g>
</g>
<!-- Node1&#45;&gt;Node30 -->
<g id="edge59_Node000001_Node000030" class="edge">
<title>Node1&#45;&gt;Node30</title>
<g id="a_edge59_Node000001_Node000030"><a xlink:title=" ">
<path fill="none" stroke="#63b8ff" d="M824.96,-290.96C763.19,-283.88 620.25,-267.25 488.96,-250.1"/>
<polygon fill="#63b8ff" stroke="#63b8ff" points="489.1,-246.59 478.73,-248.76 488.19,-253.53 489.1,-246.59"/>
</a>
</g>
</g>
<!-- Node32 -->
<g id="Node000032" class="node">
<title>Node32</title>
<g id="a_Node000032"><a xlink:href="SHTC3Sensor_8h.html" target="_top" xlink:title=" ">
<polygon fill="white" stroke="#666666" points="937.5,-250 848.5,-250 848.5,-231 937.5,-231 937.5,-250"/>
<text text-anchor="middle" x="893" y="-238" font-family="Helvetica,sans-Serif" font-size="10.00">SHTC3Sensor.h</text>
</a>
</g>
</g>
<!-- Node1&#45;&gt;Node32 -->
<g id="edge62_Node000001_Node000032" class="edge">
<title>Node1&#45;&gt;Node32</title>
<g id="a_edge62_Node000001_Node000032"><a xlink:title=" ">
<path fill="none" stroke="#63b8ff" d="M862.11,-285.75C867.28,-278.34 874.85,-267.5 881.19,-258.41"/>
<polygon fill="#63b8ff" stroke="#63b8ff" points="884.15,-260.29 887,-250.09 878.41,-256.29 884.15,-260.29"/>
</a>
</g>
</g>
<!-- Node34 -->
<g id="Node000034" class="node">
<title>Node34</title>
<g id="a_Node000034"><a xlink:href="TMP11xSensor_8h.html" target="_top" xlink:title=" ">
<polygon fill="white" stroke="#666666" points="1326.5,-250 1229.5,-250 1229.5,-231 1326.5,-231 1326.5,-250"/>
<text text-anchor="middle" x="1278" y="-238" font-family="Helvetica,sans-Serif" font-size="10.00">TMP11xSensor.h</text>
</a>
</g>
</g>
<!-- Node1&#45;&gt;Node34 -->
<g id="edge66_Node000001_Node000034" class="edge">
<title>Node1&#45;&gt;Node34</title>
<g id="a_edge66_Node000001_Node000034"><a xlink:title=" ">
<path fill="none" stroke="#63b8ff" d="M887.23,-290.74C949.56,-283.22 1093.86,-265.68 1215,-250 1216.29,-249.83 1217.6,-249.66 1218.92,-249.49"/>
<polygon fill="#63b8ff" stroke="#63b8ff" points="1219.71,-252.92 1229.17,-248.14 1218.8,-245.98 1219.71,-252.92"/>
</a>
</g>
</g>
<!-- Node36 -->
<g id="Node000036" class="node">
<title>Node36</title>
<g id="a_Node000036"><a xlink:href="TempSensor_8h.html" target="_top" xlink:title=" ">
<polygon fill="white" stroke="#666666" points="792,-250 708,-250 708,-231 792,-231 792,-250"/>
<text text-anchor="middle" x="750" y="-238" font-family="Helvetica,sans-Serif" font-size="10.00">TempSensor.h</text>
</a>
</g>
</g>
<!-- Node1&#45;&gt;Node36 -->
<g id="edge71_Node000001_Node000036" class="edge">
<title>Node1&#45;&gt;Node36</title>
<g id="a_edge71_Node000001_Node000036"><a xlink:title=" ">
<path fill="none" stroke="#63b8ff" d="M838.97,-285.98C822.07,-277.54 795.94,-264.47 776.36,-254.68"/>
<polygon fill="#63b8ff" stroke="#63b8ff" points="777.85,-251.51 767.34,-250.17 774.72,-257.77 777.85,-251.51"/>
</a>
</g>
</g>
<!-- Node3&#45;&gt;Node2 -->
<g id="edge3_Node000003_Node000002" class="edge">
<title>Node3&#45;&gt;Node2</title>
<g id="a_edge3_Node000003_Node000002"><a xlink:title=" ">
<path fill="none" stroke="#63b8ff" d="M2112.61,-230.84C2118.39,-215.45 2127.46,-183.26 2111,-165 2011.35,-54.47 896.74,-17.98 665.75,-11.58"/>
<polygon fill="#63b8ff" stroke="#63b8ff" points="665.82,-8.08 655.73,-11.31 665.63,-15.08 665.82,-8.08"/>
</a>
</g>
</g>
<!-- Node3&#45;&gt;Node4 -->
<g id="edge4_Node000003_Node000004" class="edge">
<title>Node3&#45;&gt;Node4</title>
<g id="a_edge4_Node000003_Node000004"><a xlink:title=" ">
<path fill="none" stroke="#63b8ff" d="M2066.59,-239.93C1947.51,-240.52 1600.25,-238.11 1316,-195 1310.61,-194.18 1304.99,-193.08 1299.47,-191.85"/>
<polygon fill="#63b8ff" stroke="#63b8ff" points="1300.26,-188.44 1289.72,-189.54 1298.64,-195.25 1300.26,-188.44"/>
</a>
</g>
</g>
<!-- Node6 -->
<g id="Node000006" class="node">
<title>Node6</title>
<g id="a_Node000006"><a xlink:title=" ">
<polygon fill="#e0e0e0" stroke="#999999" points="2254.5,-189.5 2159.5,-189.5 2159.5,-170.5 2254.5,-170.5 2254.5,-189.5"/>
<text text-anchor="middle" x="2207" y="-177.5" font-family="Helvetica,sans-Serif" font-size="10.00">pico/multicore.h</text>
</a>
</g>
</g>
<!-- Node3&#45;&gt;Node6 -->
<g id="edge6_Node000003_Node000006" class="edge">
<title>Node3&#45;&gt;Node6</title>
<g id="a_edge6_Node000003_Node000006"><a xlink:title=" ">
<path fill="none" stroke="#63b8ff" d="M2123.46,-230.87C2139.31,-221.41 2164.97,-206.09 2183.68,-194.92"/>
<polygon fill="#63b8ff" stroke="#63b8ff" points="2185.69,-197.8 2192.48,-189.67 2182.1,-191.79 2185.69,-197.8"/>
</a>
</g>
</g>
<!-- Node7 -->
<g id="Node000007" class="node">
<title>Node7</title>
<g id="a_Node000007"><a xlink:title=" ">
<polygon fill="#e0e0e0" stroke="#999999" points="2349,-189.5 2273,-189.5 2273,-170.5 2349,-170.5 2349,-189.5"/>
<text text-anchor="middle" x="2311" y="-177.5" font-family="Helvetica,sans-Serif" font-size="10.00">pico/stdlib.h</text>
</a>
</g>
</g>
<!-- Node3&#45;&gt;Node7 -->
<g id="edge7_Node000003_Node000007" class="edge">
<title>Node3&#45;&gt;Node7</title>
<g id="a_edge7_Node000003_Node000007"><a xlink:title=" ">
<path fill="none" stroke="#63b8ff" d="M2139.03,-230.97C2170.27,-222.08 2220.6,-207.69 2264,-195 2266.76,-194.19 2269.61,-193.36 2272.47,-192.51"/>
<polygon fill="#63b8ff" stroke="#63b8ff" points="2273.59,-195.83 2282.18,-189.63 2271.6,-189.12 2273.59,-195.83"/>
</a>
</g>
</g>
<!-- Node5 -->
<g id="Node000005" class="node">
<title>Node5</title>
<g id="a_Node000005"><a xlink:title=" ">
<polygon fill="#e0e0e0" stroke="#999999" points="1246,-129 1198,-129 1198,-110 1246,-110 1246,-129"/>
<text text-anchor="middle" x="1222" y="-117" font-family="Helvetica,sans-Serif" font-size="10.00">Wire.h</text>
</a>
</g>
</g>
<!-- Node4&#45;&gt;Node5 -->
<g id="edge5_Node000004_Node000005" class="edge">
<title>Node4&#45;&gt;Node5</title>
<g id="a_edge5_Node000004_Node000005"><a xlink:title=" ">
<path fill="none" stroke="#63b8ff" d="M1254.39,-170.37C1248.84,-161.81 1240.17,-148.47 1233.2,-137.74"/>
<polygon fill="#63b8ff" stroke="#63b8ff" points="1236.01,-135.65 1227.63,-129.17 1230.14,-139.46 1236.01,-135.65"/>
</a>
</g>
</g>
<!-- Node8&#45;&gt;Node2 -->
<g id="edge9_Node000008_Node000002" class="edge">
<title>Node8&#45;&gt;Node2</title>
<g id="a_edge9_Node000008_Node000002"><a xlink:title=" ">
<path fill="none" stroke="#63b8ff" d="M624,-54.75C624,-47.8 624,-37.85 624,-29.13"/>
<polygon fill="#63b8ff" stroke="#63b8ff" points="627.5,-29.09 624,-19.09 620.5,-29.09 627.5,-29.09"/>
</a>
</g>
</g>
<!-- Node9&#45;&gt;Node6 -->
<g id="edge12_Node000009_Node000006" class="edge">
<title>Node9&#45;&gt;Node6</title>
<g id="a_edge12_Node000009_Node000006"><a xlink:title=" ">
<path fill="none" stroke="#63b8ff" d="M2225.75,-230.87C2222.63,-222.57 2217.82,-209.78 2213.85,-199.22"/>
<polygon fill="#63b8ff" stroke="#63b8ff" points="2217.06,-197.8 2210.26,-189.67 2210.5,-200.26 2217.06,-197.8"/>
</a>
</g>
</g>
<!-- Node9&#45;&gt;Node7 -->
<g id="edge13_Node000009_Node000007" class="edge">
<title>Node9&#45;&gt;Node7</title>
<g id="a_edge13_Node000009_Node000007"><a xlink:title=" ">
<path fill="none" stroke="#63b8ff" d="M2241.1,-230.87C2254.06,-221.62 2274.86,-206.78 2290.4,-195.69"/>
<polygon fill="#63b8ff" stroke="#63b8ff" points="2292.74,-198.32 2298.85,-189.67 2288.68,-192.63 2292.74,-198.32"/>
</a>
</g>
</g>
<!-- Node10&#45;&gt;Node2 -->
<g id="edge15_Node000010_Node000002" class="edge">
<title>Node10&#45;&gt;Node2</title>
<g id="a_edge15_Node000010_Node000002"><a xlink:title=" ">
<path fill="none" stroke="#63b8ff" d="M644.07,-170.31C629.18,-153.33 597.51,-113.93 586,-74 583.66,-65.89 583.08,-62.92 586,-55 590.06,-43.99 598.19,-33.86 605.9,-26.05"/>
<polygon fill="#63b8ff" stroke="#63b8ff" points="608.42,-28.48 613.29,-19.07 603.61,-23.39 608.42,-28.48"/>
</a>
</g>
</g>
<!-- Node10&#45;&gt;Node8 -->
<g id="edge19_Node000010_Node000008" class="edge">
<title>Node10&#45;&gt;Node8</title>
<g id="a_edge19_Node000010_Node000008"><a xlink:title=" ">
<path fill="none" stroke="#63b8ff" d="M649.9,-170.47C645.4,-152.23 634.75,-109.07 628.6,-84.14"/>
<polygon fill="#63b8ff" stroke="#63b8ff" points="631.92,-83 626.13,-74.13 625.13,-84.68 631.92,-83"/>
</a>
</g>
</g>
<!-- Node11 -->
<g id="Node000011" class="node">
<title>Node11</title>
<g id="a_Node000011"><a xlink:href="Device_8h.html" target="_top" xlink:title=" ">
<polygon fill="white" stroke="#666666" points="710.5,-129 651.5,-129 651.5,-110 710.5,-110 710.5,-129"/>
<text text-anchor="middle" x="681" y="-117" font-family="Helvetica,sans-Serif" font-size="10.00">Device.h</text>
</a>
</g>
</g>
<!-- Node10&#45;&gt;Node11 -->
<g id="edge16_Node000010_Node000011" class="edge">
<title>Node10&#45;&gt;Node11</title>
<g id="a_edge16_Node000010_Node000011"><a xlink:title=" ">
<path fill="none" stroke="#63b8ff" d="M656.28,-170.37C660.43,-161.99 666.87,-149.01 672.13,-138.39"/>
<polygon fill="#63b8ff" stroke="#63b8ff" points="675.4,-139.68 676.7,-129.17 669.13,-136.57 675.4,-139.68"/>
</a>
</g>
</g>
<!-- Node11&#45;&gt;Node2 -->
<g id="edge17_Node000011_Node000002" class="edge">
<title>Node11&#45;&gt;Node2</title>
<g id="a_edge17_Node000011_Node000002"><a xlink:title=" ">
<path fill="none" stroke="#63b8ff" d="M679.59,-109.84C677.28,-97.19 671.91,-73.19 662,-55 656.31,-44.56 647.89,-34.37 640.41,-26.38"/>
<polygon fill="#63b8ff" stroke="#63b8ff" points="642.89,-23.9 633.39,-19.19 637.88,-28.79 642.89,-23.9"/>
</a>
</g>
</g>
<!-- Node11&#45;&gt;Node8 -->
<g id="edge18_Node000011_Node000008" class="edge">
<title>Node11&#45;&gt;Node8</title>
<g id="a_edge18_Node000011_Node000008"><a xlink:title=" ">
<path fill="none" stroke="#63b8ff" d="M671.84,-109.98C663.5,-102.23 650.97,-90.58 640.82,-81.14"/>
<polygon fill="#63b8ff" stroke="#63b8ff" points="643.03,-78.42 633.32,-74.17 638.26,-83.54 643.03,-78.42"/>
</a>
</g>
</g>
<!-- Node12&#45;&gt;Node4 -->
<g id="edge24_Node000012_Node000004" class="edge">
<title>Node12&#45;&gt;Node4</title>
<g id="a_edge24_Node000012_Node000004"><a xlink:title=" ">
<path fill="none" stroke="#63b8ff" d="M1392.46,-230.99C1366.06,-221.03 1322.12,-204.45 1292.15,-193.13"/>
<polygon fill="#63b8ff" stroke="#63b8ff" points="1293.16,-189.77 1282.57,-189.52 1290.69,-196.32 1293.16,-189.77"/>
</a>
</g>
</g>
<!-- Node12&#45;&gt;Node5 -->
<g id="edge22_Node000012_Node000005" class="edge">
<title>Node12&#45;&gt;Node5</title>
<g id="a_edge22_Node000012_Node000005"><a xlink:title=" ">
<path fill="none" stroke="#63b8ff" d="M1431.58,-230.87C1444.17,-223.3 1460.54,-211.01 1468,-195 1473.63,-182.92 1476.55,-175.23 1468,-165 1441.42,-133.18 1317.53,-124.07 1256.36,-121.5"/>
<polygon fill="#63b8ff" stroke="#63b8ff" points="1256.18,-117.99 1246.05,-121.1 1255.91,-124.98 1256.18,-117.99"/>
</a>
</g>
</g>
<!-- Node12&#45;&gt;Node10 -->
<g id="edge25_Node000012_Node000010" class="edge">
<title>Node12&#45;&gt;Node10</title>
<g id="a_edge25_Node000012_Node000010"><a xlink:title=" ">
<path fill="none" stroke="#63b8ff" d="M1367.23,-234.03C1356.63,-232.93 1345.44,-231.85 1335,-231 1048.82,-207.83 971.14,-253.27 690,-195 687.16,-194.41 684.25,-193.65 681.36,-192.78"/>
<polygon fill="#63b8ff" stroke="#63b8ff" points="682.38,-189.43 671.79,-189.55 680.14,-196.07 682.38,-189.43"/>
</a>
</g>
</g>
<!-- Node13 -->
<g id="Node000013" class="node">
<title>Node13</title>
<g id="a_Node000013"><a xlink:title=" ">
<polygon fill="#e0e0e0" stroke="#999999" points="1719.5,-189.5 1606.5,-189.5 1606.5,-170.5 1719.5,-170.5 1719.5,-189.5"/>
<text text-anchor="middle" x="1663" y="-177.5" font-family="Helvetica,sans-Serif" font-size="10.00">SparkFun_AS7331.h</text>
</a>
</g>
</g>
<!-- Node12&#45;&gt;Node13 -->
<g id="edge21_Node000012_Node000013" class="edge">
<title>Node12&#45;&gt;Node13</title>
<g id="a_edge21_Node000012_Node000013"><a xlink:title=" ">
<path fill="none" stroke="#63b8ff" d="M1451.06,-230.99C1494.96,-220.64 1569.15,-203.14 1617.08,-191.83"/>
<polygon fill="#63b8ff" stroke="#63b8ff" points="1617.97,-195.22 1626.9,-189.52 1616.36,-188.41 1617.97,-195.22"/>
</a>
</g>
</g>
<!-- Node14 -->
<g id="Node000014" class="node">
<title>Node14</title>
<g id="a_Node000014"><a xlink:title=" ">
<polygon fill="#e0e0e0" stroke="#999999" points="1588.5,-189.5 1535.5,-189.5 1535.5,-170.5 1588.5,-170.5 1588.5,-189.5"/>
<text text-anchor="middle" x="1562" y="-177.5" font-family="Helvetica,sans-Serif" font-size="10.00">string.h</text>
</a>
</g>
</g>
<!-- Node12&#45;&gt;Node14 -->
<g id="edge23_Node000012_Node000014" class="edge">
<title>Node12&#45;&gt;Node14</title>
<g id="a_edge23_Node000012_Node000014"><a xlink:title=" ">
<path fill="none" stroke="#63b8ff" d="M1436.38,-230.99C1461.31,-221.07 1502.72,-204.59 1531.14,-193.28"/>
<polygon fill="#63b8ff" stroke="#63b8ff" points="1532.6,-196.47 1540.6,-189.52 1530.01,-189.96 1532.6,-196.47"/>
</a>
</g>
</g>
<!-- Node15&#45;&gt;Node10 -->
<g id="edge27_Node000015_Node000010" class="edge">
<title>Node15&#45;&gt;Node10</title>
<g id="a_edge27_Node000015_Node000010"><a xlink:title=" ">
<path fill="none" stroke="#63b8ff" d="M556.53,-230.87C574.97,-221.23 605.04,-205.53 626.51,-194.31"/>
<polygon fill="#63b8ff" stroke="#63b8ff" points="628.16,-197.4 635.41,-189.67 624.92,-191.19 628.16,-197.4"/>
</a>
</g>
</g>
<!-- Node16&#45;&gt;Node5 -->
<g id="edge29_Node000016_Node000005" class="edge">
<title>Node16&#45;&gt;Node5</title>
<g id="a_edge29_Node000016_Node000005"><a xlink:title=" ">
<path fill="none" stroke="#63b8ff" d="M144.79,-230.92C126.75,-224.29 105.77,-213.09 95,-195 88.18,-183.54 85.76,-174.61 95,-165 114.43,-144.79 1001.32,-125.12 1187.81,-121.2"/>
<polygon fill="#63b8ff" stroke="#63b8ff" points="1187.95,-124.7 1197.87,-120.99 1187.8,-117.7 1187.95,-124.7"/>
</a>
</g>
</g>
<!-- Node16&#45;&gt;Node10 -->
<g id="edge31_Node000016_Node000010" class="edge">
<title>Node16&#45;&gt;Node10</title>
<g id="a_edge31_Node000016_Node000010"><a xlink:title=" ">
<path fill="none" stroke="#63b8ff" d="M226.07,-234.24C236.29,-233.16 247,-232.04 257,-231 415.62,-214.58 458.61,-230.85 614,-195 616.67,-194.38 619.41,-193.63 622.13,-192.8"/>
<polygon fill="#63b8ff" stroke="#63b8ff" points="623.43,-196.05 631.78,-189.52 621.18,-189.42 623.43,-196.05"/>
</a>
</g>
</g>
<!-- Node17 -->
<g id="Node000017" class="node">
<title>Node17</title>
<g id="a_Node000017"><a xlink:title=" ">
<polygon fill="#e0e0e0" stroke="#999999" points="215.5,-189.5 104.5,-189.5 104.5,-170.5 215.5,-170.5 215.5,-189.5"/>
<text text-anchor="middle" x="160" y="-177.5" font-family="Helvetica,sans-Serif" font-size="10.00">Adafruit_BMP3XX.h</text>
</a>
</g>
</g>
<!-- Node16&#45;&gt;Node17 -->
<g id="edge30_Node000016_Node000017" class="edge">
<title>Node16&#45;&gt;Node17</title>
<g id="a_edge30_Node000016_Node000017"><a xlink:title=" ">
<path fill="none" stroke="#63b8ff" d="M174.49,-230.87C172.11,-222.66 168.44,-210.04 165.39,-199.55"/>
<polygon fill="#63b8ff" stroke="#63b8ff" points="168.67,-198.29 162.52,-189.67 161.95,-200.25 168.67,-198.29"/>
</a>
</g>
</g>
<!-- Node18&#45;&gt;Node4 -->
<g id="edge34_Node000018_Node000004" class="edge">
<title>Node18&#45;&gt;Node4</title>
<g id="a_edge34_Node000018_Node000004"><a xlink:title=" ">
<path fill="none" stroke="#63b8ff" d="M1040.37,-230.99C1085.95,-220.62 1163.06,-203.07 1212.73,-191.76"/>
<polygon fill="#63b8ff" stroke="#63b8ff" points="1213.61,-195.15 1222.58,-189.52 1212.06,-188.32 1213.61,-195.15"/>
</a>
</g>
</g>
<!-- Node18&#45;&gt;Node5 -->
<g id="edge33_Node000018_Node000005" class="edge">
<title>Node18&#45;&gt;Node5</title>
<g id="a_edge33_Node000018_Node000005"><a xlink:title=" ">
<path fill="none" stroke="#63b8ff" d="M1001.84,-230.77C1000.3,-215.28 999.57,-182.93 1017,-165 1040.34,-141 1135.87,-128.52 1187.88,-123.39"/>
<polygon fill="#63b8ff" stroke="#63b8ff" points="1188.34,-126.87 1197.97,-122.44 1187.68,-119.9 1188.34,-126.87"/>
</a>
</g>
</g>
<!-- Node18&#45;&gt;Node10 -->
<g id="edge35_Node000018_Node000010" class="edge">
<title>Node18&#45;&gt;Node10</title>
<g id="a_edge35_Node000018_Node000010"><a xlink:title=" ">
<path fill="none" stroke="#63b8ff" d="M955.42,-232.37C952.23,-231.91 949.07,-231.44 946,-231 832.29,-214.53 801.43,-223.02 690,-195 687.49,-194.37 684.92,-193.63 682.36,-192.83"/>
<polygon fill="#63b8ff" stroke="#63b8ff" points="683.25,-189.44 672.65,-189.52 680.99,-196.06 683.25,-189.44"/>
</a>
</g>
</g>
<!-- Node19 -->
<g id="Node000019" class="node">
<title>Node19</title>
<g id="a_Node000019"><a xlink:title=" ">
<polygon fill="#e0e0e0" stroke="#999999" points="931.5,-189.5 818.5,-189.5 818.5,-170.5 931.5,-170.5 931.5,-189.5"/>
<text text-anchor="middle" x="875" y="-177.5" font-family="Helvetica,sans-Serif" font-size="10.00">SparkFun_ENS160.h</text>
</a>
</g>
</g>
<!-- Node18&#45;&gt;Node19 -->
<g id="edge36_Node000018_Node000019" class="edge">
<title>Node18&#45;&gt;Node19</title>
<g id="a_edge36_Node000018_Node000019"><a xlink:title=" ">
<path fill="none" stroke="#63b8ff" d="M984.39,-230.99C962.96,-221.2 927.56,-205.02 902.85,-193.73"/>
<polygon fill="#63b8ff" stroke="#63b8ff" points="904.18,-190.49 893.63,-189.52 901.28,-196.86 904.18,-190.49"/>
</a>
</g>
</g>
<!-- Node20&#45;&gt;Node4 -->
<g id="edge42_Node000020_Node000004" class="edge">
<title>Node20&#45;&gt;Node4</title>
<g id="a_edge42_Node000020_Node000004"><a xlink:title=" ">
<path fill="none" stroke="#63b8ff" d="M1509.02,-230.95C1459.06,-222.65 1382.19,-209.24 1316,-195 1311.58,-194.05 1306.98,-193 1302.4,-191.91"/>
<polygon fill="#63b8ff" stroke="#63b8ff" points="1303.03,-188.46 1292.49,-189.51 1301.38,-195.27 1303.03,-188.46"/>
</a>
</g>
</g>
<!-- Node20&#45;&gt;Node10 -->
<g id="edge43_Node000020_Node000010" class="edge">
<title>Node20&#45;&gt;Node10</title>
<g id="a_edge43_Node000020_Node000010"><a xlink:title=" ">
<path fill="none" stroke="#63b8ff" d="M1508.14,-234.05C1495.94,-232.93 1483.03,-231.84 1471,-231 1124.36,-206.84 1030.59,-263.87 690,-195 687.16,-194.43 684.24,-193.67 681.36,-192.81"/>
<polygon fill="#63b8ff" stroke="#63b8ff" points="682.38,-189.46 671.78,-189.59 680.14,-196.1 682.38,-189.46"/>
</a>
</g>
</g>
<!-- Node20&#45;&gt;Node14 -->
<g id="edge41_Node000020_Node000014" class="edge">
<title>Node20&#45;&gt;Node14</title>
<g id="a_edge41_Node000020_Node000014"><a xlink:title=" ">
<path fill="none" stroke="#63b8ff" d="M1562,-230.87C1562,-222.75 1562,-210.31 1562,-199.89"/>
<polygon fill="#63b8ff" stroke="#63b8ff" points="1565.5,-199.67 1562,-189.67 1558.5,-199.67 1565.5,-199.67"/>
</a>
</g>
</g>
<!-- Node21 -->
<g id="Node000021" class="node">
<title>Node21</title>
<g id="a_Node000021"><a xlink:title=" ">
<polygon fill="#e0e0e0" stroke="#999999" points="2102.5,-189.5 1983.5,-189.5 1983.5,-170.5 2102.5,-170.5 2102.5,-189.5"/>
<text text-anchor="middle" x="2043" y="-177.5" font-family="Helvetica,sans-Serif" font-size="10.00">Adafruit_ICM20948.h</text>
</a>
</g>
</g>
<!-- Node20&#45;&gt;Node21 -->
<g id="edge38_Node000020_Node000021" class="edge">
<title>Node20&#45;&gt;Node21</title>
<g id="a_edge38_Node000020_Node000021"><a xlink:title=" ">
<path fill="none" stroke="#63b8ff" d="M1615.54,-235.31C1694.33,-228.79 1846.03,-214.85 1974,-195 1980.42,-194 1987.15,-192.82 1993.78,-191.56"/>
<polygon fill="#63b8ff" stroke="#63b8ff" points="1994.92,-194.91 2004.07,-189.55 1993.58,-188.04 1994.92,-194.91"/>
</a>
</g>
</g>
<!-- Node22 -->
<g id="Node000022" class="node">
<title>Node22</title>
<g id="a_Node000022"><a xlink:title=" ">
<polygon fill="#e0e0e0" stroke="#999999" points="1844.5,-189.5 1737.5,-189.5 1737.5,-170.5 1844.5,-170.5 1844.5,-189.5"/>
<text text-anchor="middle" x="1791" y="-177.5" font-family="Helvetica,sans-Serif" font-size="10.00">Adafruit_ICM20X.h</text>
</a>
</g>
</g>
<!-- Node20&#45;&gt;Node22 -->
<g id="edge39_Node000020_Node000022" class="edge">
<title>Node20&#45;&gt;Node22</title>
<g id="a_edge39_Node000020_Node000022"><a xlink:title=" ">
<path fill="none" stroke="#63b8ff" d="M1595.3,-230.99C1635.58,-220.7 1703.48,-203.36 1747.77,-192.04"/>
<polygon fill="#63b8ff" stroke="#63b8ff" points="1748.84,-195.38 1757.66,-189.52 1747.11,-188.6 1748.84,-195.38"/>
</a>
</g>
</g>
<!-- Node23 -->
<g id="Node000023" class="node">
<title>Node23</title>
<g id="a_Node000023"><a xlink:title=" ">
<polygon fill="#e0e0e0" stroke="#999999" points="1965,-189.5 1863,-189.5 1863,-170.5 1965,-170.5 1965,-189.5"/>
<text text-anchor="middle" x="1914" y="-177.5" font-family="Helvetica,sans-Serif" font-size="10.00">Adafruit_Sensor.h</text>
</a>
</g>
</g>
<!-- Node20&#45;&gt;Node23 -->
<g id="edge40_Node000020_Node000023" class="edge">
<title>Node20&#45;&gt;Node23</title>
<g id="a_edge40_Node000020_Node000023"><a xlink:title=" ">
<path fill="none" stroke="#63b8ff" d="M1615.57,-232.52C1674.11,-224.6 1770.54,-210.74 1853,-195 1858.14,-194.02 1863.5,-192.91 1868.82,-191.76"/>
<polygon fill="#63b8ff" stroke="#63b8ff" points="1869.93,-195.1 1878.93,-189.51 1868.41,-188.27 1869.93,-195.1"/>
</a>
</g>
</g>
<!-- Node24&#45;&gt;Node2 -->
<g id="edge45_Node000024_Node000002" class="edge">
<title>Node24&#45;&gt;Node2</title>
<g id="a_edge45_Node000024_Node000002"><a xlink:title=" ">
<path fill="none" stroke="#63b8ff" d="M320.54,-230.62C333.21,-215.99 359.93,-186.33 386,-165 458.47,-105.72 554.51,-49.3 599.18,-24.17"/>
<polygon fill="#63b8ff" stroke="#63b8ff" points="601.14,-27.09 608.16,-19.16 597.72,-20.98 601.14,-27.09"/>
</a>
</g>
</g>
<!-- Node24&#45;&gt;Node10 -->
<g id="edge48_Node000024_Node000010" class="edge">
<title>Node24&#45;&gt;Node10</title>
<g id="a_edge48_Node000024_Node000010"><a xlink:title=" ">
<path fill="none" stroke="#63b8ff" d="M359.51,-232.29C362.38,-231.85 365.23,-231.42 368,-231 477.27,-214.56 506.91,-222.25 614,-195 616.44,-194.38 618.95,-193.66 621.45,-192.87"/>
<polygon fill="#63b8ff" stroke="#63b8ff" points="622.6,-196.18 630.94,-189.64 620.35,-189.55 622.6,-196.18"/>
</a>
</g>
</g>
<!-- Node24&#45;&gt;Node14 -->
<g id="edge46_Node000024_Node000014" class="edge">
<title>Node24&#45;&gt;Node14</title>
<g id="a_edge46_Node000024_Node000014"><a xlink:title=" ">
<path fill="none" stroke="#63b8ff" d="M359.76,-231.88C362.54,-231.55 365.31,-231.25 368,-231 846.62,-186.21 969.76,-232.59 1449,-195 1474.52,-193 1503.13,-189.44 1525.18,-186.41"/>
<polygon fill="#63b8ff" stroke="#63b8ff" points="1525.71,-189.87 1535.13,-185.02 1524.74,-182.94 1525.71,-189.87"/>
</a>
</g>
</g>
<!-- Node25 -->
<g id="Node000025" class="node">
<title>Node25</title>
<g id="a_Node000025"><a xlink:title=" ">
<polygon fill="#e0e0e0" stroke="#999999" points="338.5,-189.5 233.5,-189.5 233.5,-170.5 338.5,-170.5 338.5,-189.5"/>
<text text-anchor="middle" x="286" y="-177.5" font-family="Helvetica,sans-Serif" font-size="10.00">Adafruit_INA260.h</text>
</a>
</g>
</g>
<!-- Node24&#45;&gt;Node25 -->
<g id="edge47_Node000024_Node000025" class="edge">
<title>Node24&#45;&gt;Node25</title>
<g id="a_edge47_Node000024_Node000025"><a xlink:title=" ">
<path fill="none" stroke="#63b8ff" d="M309.02,-230.87C305.15,-222.49 299.16,-209.51 294.26,-198.89"/>
<polygon fill="#63b8ff" stroke="#63b8ff" points="297.37,-197.28 290,-189.67 291.01,-200.21 297.37,-197.28"/>
</a>
</g>
</g>
<!-- Node26&#45;&gt;Node2 -->
<g id="edge50_Node000026_Node000002" class="edge">
<title>Node26&#45;&gt;Node2</title>
<g id="a_edge50_Node000026_Node000002"><a xlink:title=" ">
<path fill="none" stroke="#63b8ff" d="M1100.19,-230.84C1079.13,-222.03 1045.67,-207.86 1017,-195 878.6,-132.93 714.95,-54.44 651.26,-23.7"/>
<polygon fill="#63b8ff" stroke="#63b8ff" points="652.44,-20.38 641.92,-19.18 649.4,-26.68 652.44,-20.38"/>
</a>
</g>
</g>
<!-- Node26&#45;&gt;Node4 -->
<g id="edge53_Node000026_Node000004" class="edge">
<title>Node26&#45;&gt;Node4</title>
<g id="a_edge53_Node000026_Node000004"><a xlink:title=" ">
<path fill="none" stroke="#63b8ff" d="M1141.21,-230.99C1164.68,-221.12 1203.61,-204.73 1230.46,-193.43"/>
<polygon fill="#63b8ff" stroke="#63b8ff" points="1231.9,-196.62 1239.76,-189.52 1229.19,-190.17 1231.9,-196.62"/>
</a>
</g>
</g>
<!-- Node26&#45;&gt;Node5 -->
<g id="edge52_Node000026_Node000005" class="edge">
<title>Node26&#45;&gt;Node5</title>
<g id="a_edge52_Node000026_Node000005"><a xlink:title=" ">
<path fill="none" stroke="#63b8ff" d="M1130.11,-230.95C1139.25,-222.22 1153.58,-208.11 1165,-195 1181.47,-176.08 1198.76,-152.96 1209.91,-137.54"/>
<polygon fill="#63b8ff" stroke="#63b8ff" points="1213.03,-139.21 1216.01,-129.04 1207.34,-135.13 1213.03,-139.21"/>
</a>
</g>
</g>
<!-- Node26&#45;&gt;Node10 -->
<g id="edge54_Node000026_Node000010" class="edge">
<title>Node26&#45;&gt;Node10</title>
<g id="a_edge54_Node000026_Node000010"><a xlink:title=" ">
<path fill="none" stroke="#63b8ff" d="M1068.92,-232.21C1065.57,-231.79 1062.24,-231.38 1059,-231 895.34,-211.81 850.62,-231.78 690,-195 687.33,-194.39 684.59,-193.64 681.87,-192.81"/>
<polygon fill="#63b8ff" stroke="#63b8ff" points="682.81,-189.43 672.22,-189.54 680.57,-196.06 682.81,-189.43"/>
</a>
</g>
</g>
<!-- Node27 -->
<g id="Node000027" class="node">
<title>Node27</title>
<g id="a_Node000027"><a xlink:title=" ">
<polygon fill="#e0e0e0" stroke="#999999" points="1156,-195 1026,-195 1026,-165 1156,-165 1156,-195"/>
<text text-anchor="start" x="1034" y="-183" font-family="Helvetica,sans-Serif" font-size="10.00">SparkFun_u&#45;blox_GNSS</text>
<text text-anchor="middle" x="1091" y="-172" font-family="Helvetica,sans-Serif" font-size="10.00">_Arduino_Library.h</text>
</a>
</g>
</g>
<!-- Node26&#45;&gt;Node27 -->
<g id="edge51_Node000026_Node000027" class="edge">
<title>Node26&#45;&gt;Node27</title>
<g id="a_edge51_Node000026_Node000027"><a xlink:title=" ">
<path fill="none" stroke="#63b8ff" d="M1116.57,-230.87C1112.96,-223.81 1107.67,-213.5 1102.84,-204.08"/>
<polygon fill="#63b8ff" stroke="#63b8ff" points="1105.92,-202.42 1098.24,-195.11 1099.69,-205.61 1105.92,-202.42"/>
</a>
</g>
</g>
<!-- Node28&#45;&gt;Node4 -->
<g id="edge57_Node000028_Node000004" class="edge">
<title>Node28&#45;&gt;Node4</title>
<g id="a_edge57_Node000028_Node000004"><a xlink:title=" ">
<path fill="none" stroke="#63b8ff" d="M690.78,-232.05C693.56,-231.67 696.32,-231.32 699,-231 905.28,-206.53 958.57,-218.16 1165,-195 1177.04,-193.65 1189.89,-191.94 1202.14,-190.18"/>
<polygon fill="#63b8ff" stroke="#63b8ff" points="1202.86,-193.61 1212.24,-188.7 1201.84,-186.69 1202.86,-193.61"/>
</a>
</g>
</g>
<!-- Node28&#45;&gt;Node10 -->
<g id="edge58_Node000028_Node000010" class="edge">
<title>Node28&#45;&gt;Node10</title>
<g id="a_edge58_Node000028_Node000010"><a xlink:title=" ">
<path fill="none" stroke="#63b8ff" d="M646.89,-230.87C647.72,-222.75 648.99,-210.31 650.06,-199.89"/>
<polygon fill="#63b8ff" stroke="#63b8ff" points="653.57,-199.97 651.11,-189.67 646.61,-199.26 653.57,-199.97"/>
</a>
</g>
</g>
<!-- Node29 -->
<g id="Node000029" class="node">
<title>Node29</title>
<g id="a_Node000029"><a xlink:title=" ">
<polygon fill="#e0e0e0" stroke="#999999" points="605,-189.5 469,-189.5 469,-170.5 605,-170.5 605,-189.5"/>
<text text-anchor="middle" x="537" y="-177.5" font-family="Helvetica,sans-Serif" font-size="10.00">DFRobot_OzoneSensor.h</text>
</a>
</g>
</g>
<!-- Node28&#45;&gt;Node29 -->
<g id="edge56_Node000028_Node000029" class="edge">
<title>Node28&#45;&gt;Node29</title>
<g id="a_edge56_Node000028_Node000029"><a xlink:title=" ">
<path fill="none" stroke="#63b8ff" d="M629.92,-230.87C612.05,-221.28 582.96,-205.67 562.09,-194.47"/>
<polygon fill="#63b8ff" stroke="#63b8ff" points="563.62,-191.31 553.15,-189.67 560.31,-197.48 563.62,-191.31"/>
</a>
</g>
</g>
<!-- Node30&#45;&gt;Node10 -->
<g id="edge61_Node000030_Node000010" class="edge">
<title>Node30&#45;&gt;Node10</title>
<g id="a_edge61_Node000030_Node000010"><a xlink:title=" ">
<path fill="none" stroke="#63b8ff" d="M469.75,-230.99C507.69,-222.91 565.06,-209.81 614,-195 616.13,-194.35 618.32,-193.65 620.51,-192.92"/>
<polygon fill="#63b8ff" stroke="#63b8ff" points="621.76,-196.19 630.05,-189.59 619.45,-189.59 621.76,-196.19"/>
</a>
</g>
</g>
<!-- Node31 -->
<g id="Node000031" class="node">
<title>Node31</title>
<g id="a_Node000031"><a xlink:title=" ">
<polygon fill="#e0e0e0" stroke="#999999" points="451,-189.5 395,-189.5 395,-170.5 451,-170.5 451,-189.5"/>
<text text-anchor="middle" x="423" y="-177.5" font-family="Helvetica,sans-Serif" font-size="10.00">RTClib.h</text>
</a>
</g>
</g>
<!-- Node30&#45;&gt;Node31 -->
<g id="edge60_Node000030_Node000031" class="edge">
<title>Node30&#45;&gt;Node31</title>
<g id="a_edge60_Node000030_Node000031"><a xlink:title=" ">
<path fill="none" stroke="#63b8ff" d="M427.26,-230.87C426.57,-222.75 425.5,-210.31 424.61,-199.89"/>
<polygon fill="#63b8ff" stroke="#63b8ff" points="428.08,-199.33 423.74,-189.67 421.11,-199.93 428.08,-199.33"/>
</a>
</g>
</g>
<!-- Node32&#45;&gt;Node4 -->
<g id="edge64_Node000032_Node000004" class="edge">
<title>Node32&#45;&gt;Node4</title>
<g id="a_edge64_Node000032_Node000004"><a xlink:title=" ">
<path fill="none" stroke="#63b8ff" d="M937.53,-232.35C940.4,-231.9 943.24,-231.44 946,-231 1035.46,-216.7 1139.26,-200.19 1202.26,-190.18"/>
<polygon fill="#63b8ff" stroke="#63b8ff" points="1203.06,-193.59 1212.39,-188.56 1201.96,-186.68 1203.06,-193.59"/>
</a>
</g>
</g>
<!-- Node32&#45;&gt;Node10 -->
<g id="edge65_Node000032_Node000010" class="edge">
<title>Node32&#45;&gt;Node10</title>
<g id="a_edge65_Node000032_Node000010"><a xlink:title=" ">
<path fill="none" stroke="#63b8ff" d="M848.2,-231.51C806.77,-223.69 743.68,-210.69 690,-195 687.72,-194.33 685.38,-193.6 683.04,-192.83"/>
<polygon fill="#63b8ff" stroke="#63b8ff" points="684.13,-189.5 673.53,-189.52 681.82,-196.11 684.13,-189.5"/>
</a>
</g>
</g>
<!-- Node33 -->
<g id="Node000033" class="node">
<title>Node33</title>
<g id="a_Node000033"><a xlink:title=" ">
<polygon fill="#e0e0e0" stroke="#999999" points="800.5,-189.5 699.5,-189.5 699.5,-170.5 800.5,-170.5 800.5,-189.5"/>
<text text-anchor="middle" x="750" y="-177.5" font-family="Helvetica,sans-Serif" font-size="10.00">Adafruit_SHTC3.h</text>
</a>
</g>
</g>
<!-- Node32&#45;&gt;Node33 -->
<g id="edge63_Node000032_Node000033" class="edge">
<title>Node32&#45;&gt;Node33</title>
<g id="a_edge63_Node000032_Node000033"><a xlink:title=" ">
<path fill="none" stroke="#63b8ff" d="M872.21,-230.99C848.06,-221.12 808.02,-204.73 780.38,-193.43"/>
<polygon fill="#63b8ff" stroke="#63b8ff" points="781.4,-190.06 770.82,-189.52 778.75,-196.54 781.4,-190.06"/>
</a>
</g>
</g>
<!-- Node34&#45;&gt;Node4 -->
<g id="edge69_Node000034_Node000004" class="edge">
<title>Node34&#45;&gt;Node4</title>
<g id="a_edge69_Node000034_Node000004"><a xlink:title=" ">
<path fill="none" stroke="#63b8ff" d="M1275.34,-230.87C1272.82,-222.66 1268.94,-210.04 1265.71,-199.55"/>
<polygon fill="#63b8ff" stroke="#63b8ff" points="1268.95,-198.2 1262.67,-189.67 1262.26,-200.25 1268.95,-198.2"/>
</a>
</g>
</g>
<!-- Node34&#45;&gt;Node5 -->
<g id="edge68_Node000034_Node000005" class="edge">
<title>Node34&#45;&gt;Node5</title>
<g id="a_edge68_Node000034_Node000005"><a xlink:title=" ">
<path fill="none" stroke="#63b8ff" d="M1326.68,-235.3C1389.19,-228.03 1485.53,-209.38 1449,-165 1424.98,-135.81 1313.5,-125.49 1256.21,-122.07"/>
<polygon fill="#63b8ff" stroke="#63b8ff" points="1256.35,-118.57 1246.17,-121.51 1255.96,-125.56 1256.35,-118.57"/>
</a>
</g>
</g>
<!-- Node34&#45;&gt;Node10 -->
<g id="edge70_Node000034_Node000010" class="edge">
<title>Node34&#45;&gt;Node10</title>
<g id="a_edge70_Node000034_Node000010"><a xlink:title=" ">
<path fill="none" stroke="#63b8ff" d="M1229.17,-235.03C1214.06,-233.69 1197.34,-232.24 1182,-231 963.46,-213.33 904.3,-241.35 690,-195 687.32,-194.42 684.58,-193.69 681.85,-192.88"/>
<polygon fill="#63b8ff" stroke="#63b8ff" points="682.79,-189.5 672.2,-189.63 680.56,-196.14 682.79,-189.5"/>
</a>
</g>
</g>
<!-- Node35 -->
<g id="Node000035" class="node">
<title>Node35</title>
<g id="a_Node000035"><a xlink:title=" ">
<polygon fill="#e0e0e0" stroke="#999999" points="1440.5,-189.5 1325.5,-189.5 1325.5,-170.5 1440.5,-170.5 1440.5,-189.5"/>
<text text-anchor="middle" x="1383" y="-177.5" font-family="Helvetica,sans-Serif" font-size="10.00">SparkFun_TMP117.h</text>
</a>
</g>
</g>
<!-- Node34&#45;&gt;Node35 -->
<g id="edge67_Node000034_Node000035" class="edge">
<title>Node34&#45;&gt;Node35</title>
<g id="a_edge67_Node000034_Node000035"><a xlink:title=" ">
<path fill="none" stroke="#63b8ff" d="M1293.49,-230.87C1310.63,-221.32 1338.47,-205.81 1358.56,-194.62"/>
<polygon fill="#63b8ff" stroke="#63b8ff" points="1360.41,-197.59 1367.44,-189.67 1357,-191.48 1360.41,-197.59"/>
</a>
</g>
</g>
<!-- Node36&#45;&gt;Node10 -->
<g id="edge72_Node000036_Node000010" class="edge">
<title>Node36&#45;&gt;Node10</title>
<g id="a_edge72_Node000036_Node000010"><a xlink:title=" ">
<path fill="none" stroke="#63b8ff" d="M735.54,-230.87C719.69,-221.41 694.03,-206.09 675.32,-194.92"/>
<polygon fill="#63b8ff" stroke="#63b8ff" points="676.9,-191.79 666.52,-189.67 673.31,-197.8 676.9,-191.79"/>
</a>
</g>
</g>
</g>
</svg>
