<?xml version="1.0" encoding="UTF-8" standalone="no"?>
<!DOCTYPE svg PUBLIC "-//W3C//DTD SVG 1.1//EN"
 "http://www.w3.org/Graphics/SVG/1.1/DTD/svg11.dtd">
<!-- Generated by graphviz version 2.43.0 (0)
 -->
<!-- Title: main1.cpp Pages: 1 -->
<svg width="1004pt" height="302pt"
 viewBox="0.00 0.00 1003.50 302.00" xmlns="http://www.w3.org/2000/svg" xmlns:xlink="http://www.w3.org/1999/xlink">
<g id="graph0" class="graph" transform="scale(1 1) rotate(0) translate(4 298)">
<title>main1.cpp</title>
<!-- Node1 -->
<g id="Node000001" class="node">
<title>Node1</title>
<g id="a_Node000001"><a xlink:title="Main functions for Core 1, responsible for sending data to storage peripherals.">
<polygon fill="#999999" stroke="#666666" points="354,-294 286,-294 286,-275 354,-275 354,-294"/>
<text text-anchor="middle" x="320" y="-282" font-family="Helvetica,sans-Serif" font-size="10.00">main1.cpp</text>
</a>
</g>
</g>
<!-- Node2 -->
<g id="Node000002" class="node">
<title>Node2</title>
<g id="a_Node000002"><a xlink:title=" ">
<polygon fill="#e0e0e0" stroke="#999999" points="204.5,-19 141.5,-19 141.5,0 204.5,0 204.5,-19"/>
<text text-anchor="middle" x="173" y="-7" font-family="Helvetica,sans-Serif" font-size="10.00">Arduino.h</text>
</a>
</g>
</g>
<!-- Node1&#45;&gt;Node2 -->
<g id="edge1_Node000001_Node000002" class="edge">
<title>Node1&#45;&gt;Node2</title>
<g id="a_edge1_Node000001_Node000002"><a xlink:title=" ">
<path fill="none" stroke="#63b8ff" d="M285.75,-279.34C203.2,-268.38 0,-235.31 0,-175.5 0,-175.5 0,-175.5 0,-118.5 0,-56.76 80.27,-29.02 131.45,-17.61"/>
<polygon fill="#63b8ff" stroke="#63b8ff" points="132.21,-21.02 141.27,-15.54 130.76,-14.18 132.21,-21.02"/>
</a>
</g>
</g>
<!-- Node3 -->
<g id="Node000003" class="node">
<title>Node3</title>
<g id="a_Node000003"><a xlink:href="ErrorDisplay_8h.html" target="_top" xlink:title=" ">
<polygon fill="white" stroke="#666666" points="566,-184 482,-184 482,-165 566,-165 566,-184"/>
<text text-anchor="middle" x="524" y="-172" font-family="Helvetica,sans-Serif" font-size="10.00">ErrorDisplay.h</text>
</a>
</g>
</g>
<!-- Node1&#45;&gt;Node3 -->
<g id="edge2_Node000001_Node000003" class="edge">
<title>Node1&#45;&gt;Node3</title>
<g id="a_edge2_Node000001_Node000003"><a xlink:title=" ">
<path fill="none" stroke="#63b8ff" d="M347.54,-274.85C371.16,-266.94 405.74,-254.19 434,-239 460.25,-224.89 487.89,-204.43 505.5,-190.58"/>
<polygon fill="#63b8ff" stroke="#63b8ff" points="508.1,-192.98 513.74,-184 503.74,-187.51 508.1,-192.98"/>
</a>
</g>
</g>
<!-- Node4 -->
<g id="Node000004" class="node">
<title>Node4</title>
<g id="a_Node000004"><a xlink:href="PayloadConfig_8h.html" target="_top" xlink:title="Central location for pinout and config defines.">
<polygon fill="white" stroke="#666666" points="463.5,-129 368.5,-129 368.5,-110 463.5,-110 463.5,-129"/>
<text text-anchor="middle" x="416" y="-117" font-family="Helvetica,sans-Serif" font-size="10.00">PayloadConfig.h</text>
</a>
</g>
</g>
<!-- Node1&#45;&gt;Node4 -->
<g id="edge9_Node000001_Node000004" class="edge">
<title>Node1&#45;&gt;Node4</title>
<g id="a_edge9_Node000001_Node000004"><a xlink:title=" ">
<path fill="none" stroke="#63b8ff" d="M319.02,-274.85C317.12,-253.94 315.02,-199.84 339,-165 348.84,-150.71 364.88,-140.39 379.78,-133.31"/>
<polygon fill="#63b8ff" stroke="#63b8ff" points="381.58,-136.34 389.33,-129.11 378.77,-129.93 381.58,-136.34"/>
</a>
</g>
</g>
<!-- Node7 -->
<g id="Node000007" class="node">
<title>Node7</title>
<g id="a_Node000007"><a xlink:href="Logger_8h.html" target="_top" xlink:title=" ">
<polygon fill="white" stroke="#666666" points="173,-74 115,-74 115,-55 173,-55 173,-74"/>
<text text-anchor="middle" x="144" y="-62" font-family="Helvetica,sans-Serif" font-size="10.00">Logger.h</text>
</a>
</g>
</g>
<!-- Node1&#45;&gt;Node7 -->
<g id="edge7_Node000001_Node000007" class="edge">
<title>Node1&#45;&gt;Node7</title>
<g id="a_edge7_Node000001_Node000007"><a xlink:title=" ">
<path fill="none" stroke="#63b8ff" d="M285.61,-281.91C230.01,-277.15 123.72,-258.3 95,-184 80.76,-147.18 109.77,-104.5 128.93,-81.76"/>
<polygon fill="#63b8ff" stroke="#63b8ff" points="131.72,-83.89 135.69,-74.07 126.46,-79.27 131.72,-83.89"/>
</a>
</g>
</g>
<!-- Node8 -->
<g id="Node000008" class="node">
<title>Node8</title>
<g id="a_Node000008"><a xlink:href="Storage_8h.html" target="_top" xlink:title=" ">
<polygon fill="white" stroke="#666666" points="291.5,-184 228.5,-184 228.5,-165 291.5,-165 291.5,-184"/>
<text text-anchor="middle" x="260" y="-172" font-family="Helvetica,sans-Serif" font-size="10.00">Storage.h</text>
</a>
</g>
</g>
<!-- Node1&#45;&gt;Node8 -->
<g id="edge10_Node000001_Node000008" class="edge">
<title>Node1&#45;&gt;Node8</title>
<g id="a_edge10_Node000001_Node000008"><a xlink:title=" ">
<path fill="none" stroke="#63b8ff" d="M315.09,-274.66C305.2,-256.85 282.7,-216.37 269.73,-193.01"/>
<polygon fill="#63b8ff" stroke="#63b8ff" points="272.73,-191.2 264.81,-184.16 266.61,-194.6 272.73,-191.2"/>
</a>
</g>
</g>
<!-- Node10 -->
<g id="Node000010" class="node">
<title>Node10</title>
<g id="a_Node000010"><a xlink:href="CommandMessage_8h.html" target="_top" xlink:title=" ">
<polygon fill="white" stroke="#666666" points="995.5,-184 876.5,-184 876.5,-165 995.5,-165 995.5,-184"/>
<text text-anchor="middle" x="936" y="-172" font-family="Helvetica,sans-Serif" font-size="10.00">CommandMessage.h</text>
</a>
</g>
</g>
<!-- Node1&#45;&gt;Node10 -->
<g id="edge16_Node000001_Node000010" class="edge">
<title>Node1&#45;&gt;Node10</title>
<g id="a_edge16_Node000001_Node000010"><a xlink:title=" ">
<path fill="none" stroke="#63b8ff" d="M354.26,-279.46C412.38,-272.43 533.97,-256.96 636,-239 726.27,-223.11 830.8,-199.87 889.59,-186.36"/>
<polygon fill="#63b8ff" stroke="#63b8ff" points="890.72,-189.69 899.67,-184.03 889.14,-182.87 890.72,-189.69"/>
</a>
</g>
</g>
<!-- Node11 -->
<g id="Node000011" class="node">
<title>Node11</title>
<g id="a_Node000011"><a xlink:href="FlashStorage_8h.html" target="_top" xlink:title=" ">
<polygon fill="white" stroke="#666666" points="627.5,-239 538.5,-239 538.5,-220 627.5,-220 627.5,-239"/>
<text text-anchor="middle" x="583" y="-227" font-family="Helvetica,sans-Serif" font-size="10.00">FlashStorage.h</text>
</a>
</g>
</g>
<!-- Node1&#45;&gt;Node11 -->
<g id="edge19_Node000001_Node000011" class="edge">
<title>Node1&#45;&gt;Node11</title>
<g id="a_edge19_Node000001_Node000011"><a xlink:title=" ">
<path fill="none" stroke="#63b8ff" d="M354.11,-276.63C398.94,-267.59 478.1,-251.64 530.57,-241.07"/>
<polygon fill="#63b8ff" stroke="#63b8ff" points="531.57,-244.43 540.69,-239.03 530.19,-237.57 531.57,-244.43"/>
</a>
</g>
</g>
<!-- Node15 -->
<g id="Node000015" class="node">
<title>Node15</title>
<g id="a_Node000015"><a xlink:href="RadioStorage_8h.html" target="_top" xlink:title=" ">
<polygon fill="white" stroke="#666666" points="245.5,-239 154.5,-239 154.5,-220 245.5,-220 245.5,-239"/>
<text text-anchor="middle" x="200" y="-227" font-family="Helvetica,sans-Serif" font-size="10.00">RadioStorage.h</text>
</a>
</g>
</g>
<!-- Node1&#45;&gt;Node15 -->
<g id="edge25_Node000001_Node000015" class="edge">
<title>Node1&#45;&gt;Node15</title>
<g id="a_edge25_Node000001_Node000015"><a xlink:title=" ">
<path fill="none" stroke="#63b8ff" d="M300.72,-274.98C281.33,-266.42 251.19,-253.11 228.93,-243.28"/>
<polygon fill="#63b8ff" stroke="#63b8ff" points="230.19,-240.01 219.63,-239.17 227.36,-246.41 230.19,-240.01"/>
</a>
</g>
</g>
<!-- Node17 -->
<g id="Node000017" class="node">
<title>Node17</title>
<g id="a_Node000017"><a xlink:href="SDStorage_8h.html" target="_top" xlink:title=" ">
<polygon fill="white" stroke="#666666" points="425.5,-239 348.5,-239 348.5,-220 425.5,-220 425.5,-239"/>
<text text-anchor="middle" x="387" y="-227" font-family="Helvetica,sans-Serif" font-size="10.00">SDStorage.h</text>
</a>
</g>
</g>
<!-- Node1&#45;&gt;Node17 -->
<g id="edge30_Node000001_Node000017" class="edge">
<title>Node1&#45;&gt;Node17</title>
<g id="a_edge30_Node000001_Node000017"><a xlink:title=" ">
<path fill="none" stroke="#63b8ff" d="M330.76,-274.98C340.77,-267.07 355.89,-255.11 367.93,-245.58"/>
<polygon fill="#63b8ff" stroke="#63b8ff" points="370.37,-248.12 376.04,-239.17 366.03,-242.63 370.37,-248.12"/>
</a>
</g>
</g>
<!-- Node3&#45;&gt;Node2 -->
<g id="edge3_Node000003_Node000002" class="edge">
<title>Node3&#45;&gt;Node2</title>
<g id="a_edge3_Node000003_Node000002"><a xlink:title=" ">
<path fill="none" stroke="#63b8ff" d="M519.1,-164.78C511.01,-151.17 493.6,-124.87 472,-110 390.85,-54.13 275.91,-27.63 214.88,-16.82"/>
<polygon fill="#63b8ff" stroke="#63b8ff" points="215.29,-13.34 204.85,-15.1 214.11,-20.24 215.29,-13.34"/>
</a>
</g>
</g>
<!-- Node3&#45;&gt;Node4 -->
<g id="edge4_Node000003_Node000004" class="edge">
<title>Node3&#45;&gt;Node4</title>
<g id="a_edge4_Node000003_Node000004"><a xlink:title=" ">
<path fill="none" stroke="#63b8ff" d="M506.65,-164.98C489.43,-156.54 462.8,-143.47 442.85,-133.68"/>
<polygon fill="#63b8ff" stroke="#63b8ff" points="444.19,-130.43 433.67,-129.17 441.1,-136.72 444.19,-130.43"/>
</a>
</g>
</g>
<!-- Node5 -->
<g id="Node000005" class="node">
<title>Node5</title>
<g id="a_Node000005"><a xlink:title=" ">
<polygon fill="#e0e0e0" stroke="#999999" points="755.5,-129 660.5,-129 660.5,-110 755.5,-110 755.5,-129"/>
<text text-anchor="middle" x="708" y="-117" font-family="Helvetica,sans-Serif" font-size="10.00">pico/multicore.h</text>
</a>
</g>
</g>
<!-- Node3&#45;&gt;Node5 -->
<g id="edge5_Node000003_Node000005" class="edge">
<title>Node3&#45;&gt;Node5</title>
<g id="a_edge5_Node000003_Node000005"><a xlink:title=" ">
<path fill="none" stroke="#63b8ff" d="M553.56,-164.98C584.72,-156.01 633.97,-141.82 668.46,-131.89"/>
<polygon fill="#63b8ff" stroke="#63b8ff" points="669.57,-135.21 678.21,-129.08 667.63,-128.49 669.57,-135.21"/>
</a>
</g>
</g>
<!-- Node6 -->
<g id="Node000006" class="node">
<title>Node6</title>
<g id="a_Node000006"><a xlink:title=" ">
<polygon fill="#e0e0e0" stroke="#999999" points="912,-129 836,-129 836,-110 912,-110 912,-129"/>
<text text-anchor="middle" x="874" y="-117" font-family="Helvetica,sans-Serif" font-size="10.00">pico/stdlib.h</text>
</a>
</g>
</g>
<!-- Node3&#45;&gt;Node6 -->
<g id="edge6_Node000003_Node000006" class="edge">
<title>Node3&#45;&gt;Node6</title>
<g id="a_edge6_Node000003_Node000006"><a xlink:title=" ">
<path fill="none" stroke="#63b8ff" d="M566.02,-166.44C569.05,-165.95 572.07,-165.46 575,-165 663.27,-151.08 766.4,-135.99 825.57,-127.44"/>
<polygon fill="#63b8ff" stroke="#63b8ff" points="826.34,-130.87 835.74,-125.98 825.34,-123.94 826.34,-130.87"/>
</a>
</g>
</g>
<!-- Node7&#45;&gt;Node2 -->
<g id="edge8_Node000007_Node000002" class="edge">
<title>Node7&#45;&gt;Node2</title>
<g id="a_edge8_Node000007_Node000002"><a xlink:title=" ">
<path fill="none" stroke="#63b8ff" d="M148.79,-54.75C152.76,-47.49 158.53,-36.95 163.43,-27.98"/>
<polygon fill="#63b8ff" stroke="#63b8ff" points="166.57,-29.54 168.3,-19.09 160.43,-26.18 166.57,-29.54"/>
</a>
</g>
</g>
<!-- Node8&#45;&gt;Node2 -->
<g id="edge11_Node000008_Node000002" class="edge">
<title>Node8&#45;&gt;Node2</title>
<g id="a_edge11_Node000008_Node000002"><a xlink:title=" ">
<path fill="none" stroke="#63b8ff" d="M258.15,-164.99C255.25,-152.52 249.03,-128.74 240,-110 224.94,-78.74 201.1,-46.02 186.29,-26.99"/>
<polygon fill="#63b8ff" stroke="#63b8ff" points="188.95,-24.71 180.01,-19.03 183.46,-29.05 188.95,-24.71"/>
</a>
</g>
</g>
<!-- Node8&#45;&gt;Node7 -->
<g id="edge15_Node000008_Node000007" class="edge">
<title>Node8&#45;&gt;Node7</title>
<g id="a_edge15_Node000008_Node000007"><a xlink:title=" ">
<path fill="none" stroke="#63b8ff" d="M228.33,-166.29C207.04,-159.88 179.9,-148.43 163,-129 152.26,-116.65 147.59,-98.43 145.56,-84.67"/>
<polygon fill="#63b8ff" stroke="#63b8ff" points="149,-83.93 144.4,-74.39 142.04,-84.72 149,-83.93"/>
</a>
</g>
</g>
<!-- Node9 -->
<g id="Node000009" class="node">
<title>Node9</title>
<g id="a_Node000009"><a xlink:href="Device_8h.html" target="_top" xlink:title=" ">
<polygon fill="white" stroke="#666666" points="231.5,-129 172.5,-129 172.5,-110 231.5,-110 231.5,-129"/>
<text text-anchor="middle" x="202" y="-117" font-family="Helvetica,sans-Serif" font-size="10.00">Device.h</text>
</a>
</g>
</g>
<!-- Node8&#45;&gt;Node9 -->
<g id="edge12_Node000008_Node000009" class="edge">
<title>Node8&#45;&gt;Node9</title>
<g id="a_edge12_Node000008_Node000009"><a xlink:title=" ">
<path fill="none" stroke="#63b8ff" d="M250.68,-164.98C242.19,-157.23 229.44,-145.58 219.12,-136.14"/>
<polygon fill="#63b8ff" stroke="#63b8ff" points="221.23,-133.33 211.49,-129.17 216.51,-138.5 221.23,-133.33"/>
</a>
</g>
</g>
<!-- Node9&#45;&gt;Node2 -->
<g id="edge13_Node000009_Node000002" class="edge">
<title>Node9&#45;&gt;Node2</title>
<g id="a_edge13_Node000009_Node000002"><a xlink:title=" ">
<path fill="none" stroke="#63b8ff" d="M199.63,-109.66C194.91,-92.09 184.26,-52.45 177.96,-28.95"/>
<polygon fill="#63b8ff" stroke="#63b8ff" points="181.3,-27.91 175.32,-19.16 174.54,-29.72 181.3,-27.91"/>
</a>
</g>
</g>
<!-- Node9&#45;&gt;Node7 -->
<g id="edge14_Node000009_Node000007" class="edge">
<title>Node9&#45;&gt;Node7</title>
<g id="a_edge14_Node000009_Node000007"><a xlink:title=" ">
<path fill="none" stroke="#63b8ff" d="M192.68,-109.98C184.19,-102.23 171.44,-90.58 161.12,-81.14"/>
<polygon fill="#63b8ff" stroke="#63b8ff" points="163.23,-78.33 153.49,-74.17 158.51,-83.5 163.23,-78.33"/>
</a>
</g>
</g>
<!-- Node10&#45;&gt;Node5 -->
<g id="edge17_Node000010_Node000005" class="edge">
<title>Node10&#45;&gt;Node5</title>
<g id="a_edge17_Node000010_Node000005"><a xlink:title=" ">
<path fill="none" stroke="#63b8ff" d="M899.37,-164.98C860.09,-155.86 797.63,-141.33 754.81,-131.38"/>
<polygon fill="#63b8ff" stroke="#63b8ff" points="755.45,-127.94 744.92,-129.08 753.87,-134.76 755.45,-127.94"/>
</a>
</g>
</g>
<!-- Node10&#45;&gt;Node6 -->
<g id="edge18_Node000010_Node000006" class="edge">
<title>Node10&#45;&gt;Node6</title>
<g id="a_edge18_Node000010_Node000006"><a xlink:title=" ">
<path fill="none" stroke="#63b8ff" d="M926.04,-164.98C916.87,-157.15 903.06,-145.34 891.97,-135.86"/>
<polygon fill="#63b8ff" stroke="#63b8ff" points="894.02,-133.01 884.14,-129.17 889.47,-138.33 894.02,-133.01"/>
</a>
</g>
</g>
<!-- Node11&#45;&gt;Node4 -->
<g id="edge22_Node000011_Node000004" class="edge">
<title>Node11&#45;&gt;Node4</title>
<g id="a_edge22_Node000011_Node000004"><a xlink:title=" ">
<path fill="none" stroke="#63b8ff" d="M551.23,-219.88C528.17,-212.66 496.95,-200.8 473,-184 454.7,-171.16 438.16,-151.38 427.67,-137.32"/>
<polygon fill="#63b8ff" stroke="#63b8ff" points="430.38,-135.09 421.7,-129.03 424.71,-139.19 430.38,-135.09"/>
</a>
</g>
</g>
<!-- Node11&#45;&gt;Node8 -->
<g id="edge24_Node000011_Node000008" class="edge">
<title>Node11&#45;&gt;Node8</title>
<g id="a_edge24_Node000011_Node000008"><a xlink:title=" ">
<path fill="none" stroke="#63b8ff" d="M538.43,-221.19C475.93,-210.93 363.09,-192.42 302.01,-182.39"/>
<polygon fill="#63b8ff" stroke="#63b8ff" points="302.38,-178.91 291.95,-180.74 301.25,-185.82 302.38,-178.91"/>
</a>
</g>
</g>
<!-- Node12 -->
<g id="Node000012" class="node">
<title>Node12</title>
<g id="a_Node000012"><a xlink:title=" ">
<polygon fill="#e0e0e0" stroke="#999999" points="625.5,-184 584.5,-184 584.5,-165 625.5,-165 625.5,-184"/>
<text text-anchor="middle" x="605" y="-172" font-family="Helvetica,sans-Serif" font-size="10.00">SPI.h</text>
</a>
</g>
</g>
<!-- Node11&#45;&gt;Node12 -->
<g id="edge20_Node000011_Node000012" class="edge">
<title>Node11&#45;&gt;Node12</title>
<g id="a_edge20_Node000011_Node000012"><a xlink:title=" ">
<path fill="none" stroke="#63b8ff" d="M586.63,-219.75C589.58,-212.65 593.83,-202.4 597.51,-193.56"/>
<polygon fill="#63b8ff" stroke="#63b8ff" points="600.83,-194.67 601.43,-184.09 594.37,-191.98 600.83,-194.67"/>
</a>
</g>
</g>
<!-- Node13 -->
<g id="Node000013" class="node">
<title>Node13</title>
<g id="a_Node000013"><a xlink:title=" ">
<polygon fill="#e0e0e0" stroke="#999999" points="690.5,-184 643.5,-184 643.5,-165 690.5,-165 690.5,-184"/>
<text text-anchor="middle" x="667" y="-172" font-family="Helvetica,sans-Serif" font-size="10.00">vector</text>
</a>
</g>
</g>
<!-- Node11&#45;&gt;Node13 -->
<g id="edge21_Node000011_Node000013" class="edge">
<title>Node11&#45;&gt;Node13</title>
<g id="a_edge21_Node000011_Node000013"><a xlink:title=" ">
<path fill="none" stroke="#63b8ff" d="M596.5,-219.98C609.4,-211.84 629.1,-199.41 644.4,-189.76"/>
<polygon fill="#63b8ff" stroke="#63b8ff" points="646.67,-192.47 653.26,-184.17 642.93,-186.55 646.67,-192.47"/>
</a>
</g>
</g>
<!-- Node14 -->
<g id="Node000014" class="node">
<title>Node14</title>
<g id="a_Node000014"><a xlink:title=" ">
<polygon fill="#e0e0e0" stroke="#999999" points="858,-184 708,-184 708,-165 858,-165 858,-184"/>
<text text-anchor="middle" x="783" y="-172" font-family="Helvetica,sans-Serif" font-size="10.00">SparkFun_SPI_SerialFlash.h</text>
</a>
</g>
</g>
<!-- Node11&#45;&gt;Node14 -->
<g id="edge23_Node000011_Node000014" class="edge">
<title>Node11&#45;&gt;Node14</title>
<g id="a_edge23_Node000011_Node000014"><a xlink:title=" ">
<path fill="none" stroke="#63b8ff" d="M615.13,-219.98C649.15,-210.97 703,-196.7 740.5,-186.76"/>
<polygon fill="#63b8ff" stroke="#63b8ff" points="741.84,-190.03 750.61,-184.08 740.05,-183.26 741.84,-190.03"/>
</a>
</g>
</g>
<!-- Node15&#45;&gt;Node2 -->
<g id="edge26_Node000015_Node000002" class="edge">
<title>Node15&#45;&gt;Node2</title>
<g id="a_edge26_Node000015_Node000002"><a xlink:title=" ">
<path fill="none" stroke="#63b8ff" d="M154.23,-221.09C132.41,-215.01 108.23,-203.97 95,-184 78.52,-159.12 25.63,-188.44 106,-55 114.31,-41.2 128.74,-30.8 142.08,-23.54"/>
<polygon fill="#63b8ff" stroke="#63b8ff" points="143.71,-26.64 151.06,-19.01 140.56,-20.39 143.71,-26.64"/>
</a>
</g>
</g>
<!-- Node15&#45;&gt;Node4 -->
<g id="edge28_Node000015_Node000004" class="edge">
<title>Node15&#45;&gt;Node4</title>
<g id="a_edge28_Node000015_Node000004"><a xlink:title=" ">
<path fill="none" stroke="#63b8ff" d="M199.99,-219.69C200.48,-205.93 203.52,-179.45 219,-165 238.96,-146.36 307.57,-133.93 358.23,-127.05"/>
<polygon fill="#63b8ff" stroke="#63b8ff" points="358.97,-130.49 368.42,-125.71 358.05,-123.55 358.97,-130.49"/>
</a>
</g>
</g>
<!-- Node15&#45;&gt;Node8 -->
<g id="edge29_Node000015_Node000008" class="edge">
<title>Node15&#45;&gt;Node8</title>
<g id="a_edge29_Node000015_Node000008"><a xlink:title=" ">
<path fill="none" stroke="#63b8ff" d="M209.64,-219.98C218.51,-212.15 231.87,-200.34 242.61,-190.86"/>
<polygon fill="#63b8ff" stroke="#63b8ff" points="245.01,-193.41 250.18,-184.17 240.37,-188.17 245.01,-193.41"/>
</a>
</g>
</g>
<!-- Node16 -->
<g id="Node000016" class="node">
<title>Node16</title>
<g id="a_Node000016"><a xlink:title=" ">
<polygon fill="#e0e0e0" stroke="#999999" points="172,-184 104,-184 104,-165 172,-165 172,-184"/>
<text text-anchor="middle" x="138" y="-172" font-family="Helvetica,sans-Serif" font-size="10.00">RadioLib.h</text>
</a>
</g>
</g>
<!-- Node15&#45;&gt;Node16 -->
<g id="edge27_Node000015_Node000016" class="edge">
<title>Node15&#45;&gt;Node16</title>
<g id="a_edge27_Node000015_Node000016"><a xlink:title=" ">
<path fill="none" stroke="#63b8ff" d="M190.04,-219.98C180.87,-212.15 167.06,-200.34 155.97,-190.86"/>
<polygon fill="#63b8ff" stroke="#63b8ff" points="158.02,-188.01 148.14,-184.17 153.47,-193.33 158.02,-188.01"/>
</a>
</g>
</g>
<!-- Node17&#45;&gt;Node3 -->
<g id="edge31_Node000017_Node000003" class="edge">
<title>Node17&#45;&gt;Node3</title>
<g id="a_edge31_Node000017_Node000003"><a xlink:title=" ">
<path fill="none" stroke="#63b8ff" d="M409.01,-219.98C431.45,-211.3 466.48,-197.75 491.99,-187.88"/>
<polygon fill="#63b8ff" stroke="#63b8ff" points="493.52,-191.04 501.59,-184.17 491,-184.51 493.52,-191.04"/>
</a>
</g>
</g>
<!-- Node17&#45;&gt;Node4 -->
<g id="edge32_Node000017_Node000004" class="edge">
<title>Node17&#45;&gt;Node4</title>
<g id="a_edge32_Node000017_Node000004"><a xlink:title=" ">
<path fill="none" stroke="#63b8ff" d="M389.37,-219.66C394.09,-202.09 404.74,-162.45 411.04,-138.95"/>
<polygon fill="#63b8ff" stroke="#63b8ff" points="414.46,-139.72 413.68,-129.16 407.7,-137.91 414.46,-139.72"/>
</a>
</g>
</g>
<!-- Node17&#45;&gt;Node8 -->
<g id="edge34_Node000017_Node000008" class="edge">
<title>Node17&#45;&gt;Node8</title>
<g id="a_edge34_Node000017_Node000008"><a xlink:title=" ">
<path fill="none" stroke="#63b8ff" d="M366.6,-219.98C345.98,-211.38 313.89,-197.99 290.31,-188.15"/>
<polygon fill="#63b8ff" stroke="#63b8ff" points="291.35,-184.79 280.78,-184.17 288.66,-191.25 291.35,-184.79"/>
</a>
</g>
</g>
<!-- Node18 -->
<g id="Node000018" class="node">
<title>Node18</title>
<g id="a_Node000018"><a xlink:title=" ">
<polygon fill="#e0e0e0" stroke="#999999" points="387.5,-184 348.5,-184 348.5,-165 387.5,-165 387.5,-184"/>
<text text-anchor="middle" x="368" y="-172" font-family="Helvetica,sans-Serif" font-size="10.00">SD.h</text>
</a>
</g>
</g>
<!-- Node17&#45;&gt;Node18 -->
<g id="edge33_Node000017_Node000018" class="edge">
<title>Node17&#45;&gt;Node18</title>
<g id="a_edge33_Node000017_Node000018"><a xlink:title=" ">
<path fill="none" stroke="#63b8ff" d="M383.86,-219.75C381.32,-212.65 377.64,-202.4 374.47,-193.56"/>
<polygon fill="#63b8ff" stroke="#63b8ff" points="377.75,-192.32 371.08,-184.09 371.16,-194.68 377.75,-192.32"/>
</a>
</g>
</g>
</g>
</svg>
