<?xml version="1.0" encoding="UTF-8" standalone="no"?>
<!DOCTYPE svg PUBLIC "-//W3C//DTD SVG 1.1//EN"
 "http://www.w3.org/Graphics/SVG/1.1/DTD/svg11.dtd">
<!-- Generated by graphviz version 2.43.0 (0)
 -->
<!-- Title: main1.cpp Pages: 1 -->
<svg width="1003pt" height="302pt"
 viewBox="0.00 0.00 1002.50 302.00" xmlns="http://www.w3.org/2000/svg" xmlns:xlink="http://www.w3.org/1999/xlink">
<g id="graph0" class="graph" transform="scale(1 1) rotate(0) translate(4 298)">
<title>main1.cpp</title>
<!-- Node1 -->
<g id="Node000001" class="node">
<title>Node1</title>
<g id="a_Node000001"><a xlink:title="Main functions for Core 1, responsible for sending data to storage peripherals.">
<polygon fill="#999999" stroke="#666666" points="633.5,-294 565.5,-294 565.5,-275 633.5,-275 633.5,-294"/>
<text text-anchor="middle" x="599.5" y="-282" font-family="Helvetica,sans-Serif" font-size="10.00">main1.cpp</text>
</a>
</g>
</g>
<!-- Node2 -->
<g id="Node000002" class="node">
<title>Node2</title>
<g id="a_Node000002"><a xlink:title=" ">
<polygon fill="#e0e0e0" stroke="#999999" points="795,-19 732,-19 732,0 795,0 795,-19"/>
<text text-anchor="middle" x="763.5" y="-7" font-family="Helvetica,sans-Serif" font-size="10.00">Arduino.h</text>
</a>
</g>
</g>
<!-- Node1&#45;&gt;Node2 -->
<g id="edge1_Node000001_Node000002" class="edge">
<title>Node1&#45;&gt;Node2</title>
<g id="a_edge1_Node000001_Node000002"><a xlink:title=" ">
<path fill="none" stroke="#63b8ff" d="M633.52,-281.5C729.33,-274.94 994.5,-250.06 994.5,-175.5 994.5,-175.5 994.5,-175.5 994.5,-118.5 994.5,-35.93 871.87,-16.35 805.31,-11.8"/>
<polygon fill="#63b8ff" stroke="#63b8ff" points="805.33,-8.3 795.14,-11.19 804.91,-15.28 805.33,-8.3"/>
</a>
</g>
</g>
<!-- Node3 -->
<g id="Node000003" class="node">
<title>Node3</title>
<g id="a_Node000003"><a xlink:href="ErrorDisplay_8h.html" target="_top" xlink:title=" ">
<polygon fill="white" stroke="#666666" points="221.5,-184 137.5,-184 137.5,-165 221.5,-165 221.5,-184"/>
<text text-anchor="middle" x="179.5" y="-172" font-family="Helvetica,sans-Serif" font-size="10.00">ErrorDisplay.h</text>
</a>
</g>
</g>
<!-- Node1&#45;&gt;Node3 -->
<g id="edge2_Node000001_Node000003" class="edge">
<title>Node1&#45;&gt;Node3</title>
<g id="a_edge2_Node000001_Node000003"><a xlink:title=" ">
<path fill="none" stroke="#63b8ff" d="M565.34,-282.4C486.13,-279.35 292.39,-268.97 235.5,-239 215.66,-228.55 199.58,-208 189.82,-193.1"/>
<polygon fill="#63b8ff" stroke="#63b8ff" points="192.6,-190.94 184.35,-184.29 186.65,-194.63 192.6,-190.94"/>
</a>
</g>
</g>
<!-- Node4 -->
<g id="Node000004" class="node">
<title>Node4</title>
<g id="a_Node000004"><a xlink:href="PayloadConfig_8h.html" target="_top" xlink:title="Central location for pinout and config defines.">
<polygon fill="white" stroke="#666666" points="353,-129 258,-129 258,-110 353,-110 353,-129"/>
<text text-anchor="middle" x="305.5" y="-117" font-family="Helvetica,sans-Serif" font-size="10.00">PayloadConfig.h</text>
</a>
</g>
</g>
<!-- Node1&#45;&gt;Node4 -->
<g id="edge10_Node000001_Node000004" class="edge">
<title>Node1&#45;&gt;Node4</title>
<g id="a_edge10_Node000001_Node000004"><a xlink:title=" ">
<path fill="none" stroke="#63b8ff" d="M565.4,-283.96C492.26,-284.15 324.05,-280 288.5,-239 263.98,-210.72 282.37,-163.58 295.44,-138.12"/>
<polygon fill="#63b8ff" stroke="#63b8ff" points="298.57,-139.68 300.24,-129.22 292.41,-136.35 298.57,-139.68"/>
</a>
</g>
</g>
<!-- Node8 -->
<g id="Node000008" class="node">
<title>Node8</title>
<g id="a_Node000008"><a xlink:href="Logger_8h.html" target="_top" xlink:title=" ">
<polygon fill="white" stroke="#666666" points="821.5,-74 763.5,-74 763.5,-55 821.5,-55 821.5,-74"/>
<text text-anchor="middle" x="792.5" y="-62" font-family="Helvetica,sans-Serif" font-size="10.00">Logger.h</text>
</a>
</g>
</g>
<!-- Node1&#45;&gt;Node8 -->
<g id="edge8_Node000001_Node000008" class="edge">
<title>Node1&#45;&gt;Node8</title>
<g id="a_edge8_Node000001_Node000008"><a xlink:title=" ">
<path fill="none" stroke="#63b8ff" d="M633.76,-281.54C682.97,-277.81 775.85,-267.34 849.5,-239 892.54,-222.43 915.14,-224.34 937.5,-184 965.78,-132.98 883.18,-95.26 831.24,-77.27"/>
<polygon fill="#63b8ff" stroke="#63b8ff" points="832.21,-73.9 821.62,-74.03 829.98,-80.54 832.21,-73.9"/>
</a>
</g>
</g>
<!-- Node9 -->
<g id="Node000009" class="node">
<title>Node9</title>
<g id="a_Node000009"><a xlink:href="Storage_8h.html" target="_top" xlink:title=" ">
<polygon fill="white" stroke="#666666" points="766,-184 703,-184 703,-165 766,-165 766,-184"/>
<text text-anchor="middle" x="734.5" y="-172" font-family="Helvetica,sans-Serif" font-size="10.00">Storage.h</text>
</a>
</g>
</g>
<!-- Node1&#45;&gt;Node9 -->
<g id="edge11_Node000001_Node000009" class="edge">
<title>Node1&#45;&gt;Node9</title>
<g id="a_edge11_Node000001_Node000009"><a xlink:title=" ">
<path fill="none" stroke="#63b8ff" d="M610.55,-274.66C633.6,-256.22 687.07,-213.45 715.66,-190.57"/>
<polygon fill="#63b8ff" stroke="#63b8ff" points="718.05,-193.14 723.68,-184.16 713.68,-187.67 718.05,-193.14"/>
</a>
</g>
</g>
<!-- Node11 -->
<g id="Node000011" class="node">
<title>Node11</title>
<g id="a_Node000011"><a xlink:href="CommandMessage_8h.html" target="_top" xlink:title=" ">
<polygon fill="white" stroke="#666666" points="119,-184 0,-184 0,-165 119,-165 119,-184"/>
<text text-anchor="middle" x="59.5" y="-172" font-family="Helvetica,sans-Serif" font-size="10.00">CommandMessage.h</text>
</a>
</g>
</g>
<!-- Node1&#45;&gt;Node11 -->
<g id="edge17_Node000001_Node000011" class="edge">
<title>Node1&#45;&gt;Node11</title>
<g id="a_edge17_Node000001_Node000011"><a xlink:title=" ">
<path fill="none" stroke="#63b8ff" d="M565.33,-282.95C496.47,-281.13 336.6,-273.23 207.5,-239 162.34,-227.03 113.07,-203.63 84.3,-188.82"/>
<polygon fill="#63b8ff" stroke="#63b8ff" points="85.85,-185.68 75.37,-184.16 82.62,-191.89 85.85,-185.68"/>
</a>
</g>
</g>
<!-- Node12 -->
<g id="Node000012" class="node">
<title>Node12</title>
<g id="a_Node000012"><a xlink:href="FlashStorage_8h.html" target="_top" xlink:title=" ">
<polygon fill="white" stroke="#666666" points="644,-239 555,-239 555,-220 644,-220 644,-239"/>
<text text-anchor="middle" x="599.5" y="-227" font-family="Helvetica,sans-Serif" font-size="10.00">FlashStorage.h</text>
</a>
</g>
</g>
<!-- Node1&#45;&gt;Node12 -->
<g id="edge20_Node000001_Node000012" class="edge">
<title>Node1&#45;&gt;Node12</title>
<g id="a_edge20_Node000001_Node000012"><a xlink:title=" ">
<path fill="none" stroke="#63b8ff" d="M599.5,-274.75C599.5,-267.8 599.5,-257.85 599.5,-249.13"/>
<polygon fill="#63b8ff" stroke="#63b8ff" points="603,-249.09 599.5,-239.09 596,-249.09 603,-249.09"/>
</a>
</g>
</g>
<!-- Node16 -->
<g id="Node000016" class="node">
<title>Node16</title>
<g id="a_Node000016"><a xlink:href="RadioStorage_8h.html" target="_top" xlink:title=" ">
<polygon fill="white" stroke="#666666" points="840,-239 749,-239 749,-220 840,-220 840,-239"/>
<text text-anchor="middle" x="794.5" y="-227" font-family="Helvetica,sans-Serif" font-size="10.00">RadioStorage.h</text>
</a>
</g>
</g>
<!-- Node1&#45;&gt;Node16 -->
<g id="edge26_Node000001_Node000016" class="edge">
<title>Node1&#45;&gt;Node16</title>
<g id="a_edge26_Node000001_Node000016"><a xlink:title=" ">
<path fill="none" stroke="#63b8ff" d="M630.83,-274.98C663.99,-265.97 716.5,-251.7 753.06,-241.76"/>
<polygon fill="#63b8ff" stroke="#63b8ff" points="754.19,-245.08 762.92,-239.08 752.36,-238.33 754.19,-245.08"/>
</a>
</g>
</g>
<!-- Node18 -->
<g id="Node000018" class="node">
<title>Node18</title>
<g id="a_Node000018"><a xlink:href="SDStorage_8h.html" target="_top" xlink:title=" ">
<polygon fill="white" stroke="#666666" points="374,-239 297,-239 297,-220 374,-220 374,-239"/>
<text text-anchor="middle" x="335.5" y="-227" font-family="Helvetica,sans-Serif" font-size="10.00">SDStorage.h</text>
</a>
</g>
</g>
<!-- Node1&#45;&gt;Node18 -->
<g id="edge31_Node000001_Node000018" class="edge">
<title>Node1&#45;&gt;Node18</title>
<g id="a_edge31_Node000001_Node000018"><a xlink:title=" ">
<path fill="none" stroke="#63b8ff" d="M565.26,-276.63C519.22,-267.38 437.08,-250.89 384.5,-240.34"/>
<polygon fill="#63b8ff" stroke="#63b8ff" points="384.89,-236.85 374.4,-238.31 383.52,-243.71 384.89,-236.85"/>
</a>
</g>
</g>
<!-- Node3&#45;&gt;Node2 -->
<g id="edge3_Node000003_Node000002" class="edge">
<title>Node3&#45;&gt;Node2</title>
<g id="a_edge3_Node000003_Node000002"><a xlink:title=" ">
<path fill="none" stroke="#63b8ff" d="M185.72,-164.79C204.54,-138.54 260.32,-61.62 272.5,-55 349.48,-13.16 617.33,-9.78 721.55,-10.1"/>
<polygon fill="#63b8ff" stroke="#63b8ff" points="721.68,-13.61 731.7,-10.15 721.71,-6.61 721.68,-13.61"/>
</a>
</g>
</g>
<!-- Node3&#45;&gt;Node4 -->
<g id="edge4_Node000003_Node000004" class="edge">
<title>Node3&#45;&gt;Node4</title>
<g id="a_edge4_Node000003_Node000004"><a xlink:title=" ">
<path fill="none" stroke="#63b8ff" d="M199.74,-164.98C220.2,-156.38 252.03,-142.99 275.43,-133.15"/>
<polygon fill="#63b8ff" stroke="#63b8ff" points="277.03,-136.27 284.89,-129.17 274.31,-129.82 277.03,-136.27"/>
</a>
</g>
</g>
<!-- Node6 -->
<g id="Node000006" class="node">
<title>Node6</title>
<g id="a_Node000006"><a xlink:title=" ">
<polygon fill="#e0e0e0" stroke="#999999" points="107,-129 12,-129 12,-110 107,-110 107,-129"/>
<text text-anchor="middle" x="59.5" y="-117" font-family="Helvetica,sans-Serif" font-size="10.00">pico/multicore.h</text>
</a>
</g>
</g>
<!-- Node3&#45;&gt;Node6 -->
<g id="edge6_Node000003_Node000006" class="edge">
<title>Node3&#45;&gt;Node6</title>
<g id="a_edge6_Node000003_Node000006"><a xlink:title=" ">
<path fill="none" stroke="#63b8ff" d="M160.22,-164.98C140.83,-156.42 110.69,-143.11 88.43,-133.28"/>
<polygon fill="#63b8ff" stroke="#63b8ff" points="89.69,-130.01 79.13,-129.17 86.86,-136.41 89.69,-130.01"/>
</a>
</g>
</g>
<!-- Node7 -->
<g id="Node000007" class="node">
<title>Node7</title>
<g id="a_Node000007"><a xlink:title=" ">
<polygon fill="#e0e0e0" stroke="#999999" points="201.5,-129 125.5,-129 125.5,-110 201.5,-110 201.5,-129"/>
<text text-anchor="middle" x="163.5" y="-117" font-family="Helvetica,sans-Serif" font-size="10.00">pico/stdlib.h</text>
</a>
</g>
</g>
<!-- Node3&#45;&gt;Node7 -->
<g id="edge7_Node000003_Node000007" class="edge">
<title>Node3&#45;&gt;Node7</title>
<g id="a_edge7_Node000003_Node000007"><a xlink:title=" ">
<path fill="none" stroke="#63b8ff" d="M176.86,-164.75C174.74,-157.72 171.69,-147.62 169.04,-138.84"/>
<polygon fill="#63b8ff" stroke="#63b8ff" points="172.33,-137.65 166.09,-129.09 165.63,-139.67 172.33,-137.65"/>
</a>
</g>
</g>
<!-- Node5 -->
<g id="Node000005" class="node">
<title>Node5</title>
<g id="a_Node000005"><a xlink:title=" ">
<polygon fill="#e0e0e0" stroke="#999999" points="329.5,-74 281.5,-74 281.5,-55 329.5,-55 329.5,-74"/>
<text text-anchor="middle" x="305.5" y="-62" font-family="Helvetica,sans-Serif" font-size="10.00">Wire.h</text>
</a>
</g>
</g>
<!-- Node4&#45;&gt;Node5 -->
<g id="edge5_Node000004_Node000005" class="edge">
<title>Node4&#45;&gt;Node5</title>
<g id="a_edge5_Node000004_Node000005"><a xlink:title=" ">
<path fill="none" stroke="#63b8ff" d="M305.5,-109.75C305.5,-102.8 305.5,-92.85 305.5,-84.13"/>
<polygon fill="#63b8ff" stroke="#63b8ff" points="309,-84.09 305.5,-74.09 302,-84.09 309,-84.09"/>
</a>
</g>
</g>
<!-- Node8&#45;&gt;Node2 -->
<g id="edge9_Node000008_Node000002" class="edge">
<title>Node8&#45;&gt;Node2</title>
<g id="a_edge9_Node000008_Node000002"><a xlink:title=" ">
<path fill="none" stroke="#63b8ff" d="M787.71,-54.75C783.74,-47.49 777.97,-36.95 773.07,-27.98"/>
<polygon fill="#63b8ff" stroke="#63b8ff" points="776.07,-26.18 768.2,-19.09 769.93,-29.54 776.07,-26.18"/>
</a>
</g>
</g>
<!-- Node9&#45;&gt;Node2 -->
<g id="edge12_Node000009_Node000002" class="edge">
<title>Node9&#45;&gt;Node2</title>
<g id="a_edge12_Node000009_Node000002"><a xlink:title=" ">
<path fill="none" stroke="#63b8ff" d="M723.79,-164.93C714.57,-156.8 701.91,-143.68 696.5,-129 693.58,-121.08 694.03,-118.08 696.5,-110 706.57,-77.01 731.66,-45.06 748.11,-26.61"/>
<polygon fill="#63b8ff" stroke="#63b8ff" points="750.8,-28.86 754.98,-19.13 745.64,-24.13 750.8,-28.86"/>
</a>
</g>
</g>
<!-- Node9&#45;&gt;Node8 -->
<g id="edge16_Node000009_Node000008" class="edge">
<title>Node9&#45;&gt;Node8</title>
<g id="a_edge16_Node000009_Node000008"><a xlink:title=" ">
<path fill="none" stroke="#63b8ff" d="M744.15,-164.85C752.96,-156.48 765.74,-143.02 773.5,-129 781.25,-114.98 786.19,-97.43 789.09,-84.33"/>
<polygon fill="#63b8ff" stroke="#63b8ff" points="792.59,-84.67 791.12,-74.17 785.73,-83.29 792.59,-84.67"/>
</a>
</g>
</g>
<!-- Node10 -->
<g id="Node000010" class="node">
<title>Node10</title>
<g id="a_Node000010"><a xlink:href="Device_8h.html" target="_top" xlink:title=" ">
<polygon fill="white" stroke="#666666" points="764,-129 705,-129 705,-110 764,-110 764,-129"/>
<text text-anchor="middle" x="734.5" y="-117" font-family="Helvetica,sans-Serif" font-size="10.00">Device.h</text>
</a>
</g>
</g>
<!-- Node9&#45;&gt;Node10 -->
<g id="edge13_Node000009_Node000010" class="edge">
<title>Node9&#45;&gt;Node10</title>
<g id="a_edge13_Node000009_Node000010"><a xlink:title=" ">
<path fill="none" stroke="#63b8ff" d="M734.5,-164.75C734.5,-157.8 734.5,-147.85 734.5,-139.13"/>
<polygon fill="#63b8ff" stroke="#63b8ff" points="738,-139.09 734.5,-129.09 731,-139.09 738,-139.09"/>
</a>
</g>
</g>
<!-- Node10&#45;&gt;Node2 -->
<g id="edge14_Node000010_Node000002" class="edge">
<title>Node10&#45;&gt;Node2</title>
<g id="a_edge14_Node000010_Node000002"><a xlink:title=" ">
<path fill="none" stroke="#63b8ff" d="M736.87,-109.66C741.59,-92.09 752.24,-52.45 758.54,-28.95"/>
<polygon fill="#63b8ff" stroke="#63b8ff" points="761.96,-29.72 761.18,-19.16 755.2,-27.91 761.96,-29.72"/>
</a>
</g>
</g>
<!-- Node10&#45;&gt;Node8 -->
<g id="edge15_Node000010_Node000008" class="edge">
<title>Node10&#45;&gt;Node8</title>
<g id="a_edge15_Node000010_Node000008"><a xlink:title=" ">
<path fill="none" stroke="#63b8ff" d="M743.82,-109.98C752.31,-102.23 765.06,-90.58 775.38,-81.14"/>
<polygon fill="#63b8ff" stroke="#63b8ff" points="777.99,-83.5 783.01,-74.17 773.27,-78.33 777.99,-83.5"/>
</a>
</g>
</g>
<!-- Node11&#45;&gt;Node6 -->
<g id="edge18_Node000011_Node000006" class="edge">
<title>Node11&#45;&gt;Node6</title>
<g id="a_edge18_Node000011_Node000006"><a xlink:title=" ">
<path fill="none" stroke="#63b8ff" d="M59.5,-164.75C59.5,-157.8 59.5,-147.85 59.5,-139.13"/>
<polygon fill="#63b8ff" stroke="#63b8ff" points="63,-139.09 59.5,-129.09 56,-139.09 63,-139.09"/>
</a>
</g>
</g>
<!-- Node11&#45;&gt;Node7 -->
<g id="edge19_Node000011_Node000007" class="edge">
<title>Node11&#45;&gt;Node7</title>
<g id="a_edge19_Node000011_Node000007"><a xlink:title=" ">
<path fill="none" stroke="#63b8ff" d="M76.21,-164.98C92.71,-156.57 118.2,-143.59 137.38,-133.81"/>
<polygon fill="#63b8ff" stroke="#63b8ff" points="139.17,-136.83 146.49,-129.17 135.99,-130.59 139.17,-136.83"/>
</a>
</g>
</g>
<!-- Node12&#45;&gt;Node4 -->
<g id="edge23_Node000012_Node000004" class="edge">
<title>Node12&#45;&gt;Node4</title>
<g id="a_edge23_Node000012_Node000004"><a xlink:title=" ">
<path fill="none" stroke="#63b8ff" d="M593.03,-219.92C582.02,-206 558.25,-178.68 531.5,-165 478.6,-137.94 410.96,-127.3 363.52,-123.14"/>
<polygon fill="#63b8ff" stroke="#63b8ff" points="363.67,-119.64 353.42,-122.32 363.11,-126.61 363.67,-119.64"/>
</a>
</g>
</g>
<!-- Node12&#45;&gt;Node9 -->
<g id="edge25_Node000012_Node000009" class="edge">
<title>Node12&#45;&gt;Node9</title>
<g id="a_edge25_Node000012_Node000009"><a xlink:title=" ">
<path fill="none" stroke="#63b8ff" d="M621.19,-219.98C643.3,-211.3 677.82,-197.75 702.95,-187.88"/>
<polygon fill="#63b8ff" stroke="#63b8ff" points="704.39,-191.08 712.42,-184.17 701.83,-184.57 704.39,-191.08"/>
</a>
</g>
</g>
<!-- Node13 -->
<g id="Node000013" class="node">
<title>Node13</title>
<g id="a_Node000013"><a xlink:title=" ">
<polygon fill="#e0e0e0" stroke="#999999" points="620,-184 579,-184 579,-165 620,-165 620,-184"/>
<text text-anchor="middle" x="599.5" y="-172" font-family="Helvetica,sans-Serif" font-size="10.00">SPI.h</text>
</a>
</g>
</g>
<!-- Node12&#45;&gt;Node13 -->
<g id="edge21_Node000012_Node000013" class="edge">
<title>Node12&#45;&gt;Node13</title>
<g id="a_edge21_Node000012_Node000013"><a xlink:title=" ">
<path fill="none" stroke="#63b8ff" d="M599.5,-219.75C599.5,-212.8 599.5,-202.85 599.5,-194.13"/>
<polygon fill="#63b8ff" stroke="#63b8ff" points="603,-194.09 599.5,-184.09 596,-194.09 603,-194.09"/>
</a>
</g>
</g>
<!-- Node14 -->
<g id="Node000014" class="node">
<title>Node14</title>
<g id="a_Node000014"><a xlink:title=" ">
<polygon fill="#e0e0e0" stroke="#999999" points="685,-184 638,-184 638,-165 685,-165 685,-184"/>
<text text-anchor="middle" x="661.5" y="-172" font-family="Helvetica,sans-Serif" font-size="10.00">vector</text>
</a>
</g>
</g>
<!-- Node12&#45;&gt;Node14 -->
<g id="edge22_Node000012_Node000014" class="edge">
<title>Node12&#45;&gt;Node14</title>
<g id="a_edge22_Node000012_Node000014"><a xlink:title=" ">
<path fill="none" stroke="#63b8ff" d="M609.46,-219.98C618.63,-212.15 632.44,-200.34 643.53,-190.86"/>
<polygon fill="#63b8ff" stroke="#63b8ff" points="646.03,-193.33 651.36,-184.17 641.48,-188.01 646.03,-193.33"/>
</a>
</g>
</g>
<!-- Node15 -->
<g id="Node000015" class="node">
<title>Node15</title>
<g id="a_Node000015"><a xlink:title=" ">
<polygon fill="#e0e0e0" stroke="#999999" points="522.5,-184 372.5,-184 372.5,-165 522.5,-165 522.5,-184"/>
<text text-anchor="middle" x="447.5" y="-172" font-family="Helvetica,sans-Serif" font-size="10.00">SparkFun_SPI_SerialFlash.h</text>
</a>
</g>
</g>
<!-- Node12&#45;&gt;Node15 -->
<g id="edge24_Node000012_Node000015" class="edge">
<title>Node12&#45;&gt;Node15</title>
<g id="a_edge24_Node000012_Node000015"><a xlink:title=" ">
<path fill="none" stroke="#63b8ff" d="M575.08,-219.98C549.78,-211.16 510.05,-197.31 481.64,-187.41"/>
<polygon fill="#63b8ff" stroke="#63b8ff" points="482.71,-184.07 472.11,-184.08 480.4,-190.68 482.71,-184.07"/>
</a>
</g>
</g>
<!-- Node16&#45;&gt;Node2 -->
<g id="edge27_Node000016_Node000002" class="edge">
<title>Node16&#45;&gt;Node2</title>
<g id="a_edge27_Node000016_Node000002"><a xlink:title=" ">
<path fill="none" stroke="#63b8ff" d="M800.06,-219.98C816.41,-193.74 861.32,-112.47 830.5,-55 822.99,-41 808.93,-30.66 795.62,-23.48"/>
<polygon fill="#63b8ff" stroke="#63b8ff" points="797.13,-20.33 786.61,-19.02 794.02,-26.6 797.13,-20.33"/>
</a>
</g>
</g>
<!-- Node16&#45;&gt;Node4 -->
<g id="edge29_Node000016_Node000004" class="edge">
<title>Node16&#45;&gt;Node4</title>
<g id="a_edge29_Node000016_Node000004"><a xlink:title=" ">
<path fill="none" stroke="#63b8ff" d="M794.73,-219.9C794.58,-205.95 792.04,-178.58 775.5,-165 744.25,-139.35 482.01,-126.81 363.38,-122.4"/>
<polygon fill="#63b8ff" stroke="#63b8ff" points="363.16,-118.89 353.04,-122.02 362.91,-125.89 363.16,-118.89"/>
</a>
</g>
</g>
<!-- Node16&#45;&gt;Node9 -->
<g id="edge30_Node000016_Node000009" class="edge">
<title>Node16&#45;&gt;Node9</title>
<g id="a_edge30_Node000016_Node000009"><a xlink:title=" ">
<path fill="none" stroke="#63b8ff" d="M784.86,-219.98C775.99,-212.15 762.63,-200.34 751.89,-190.86"/>
<polygon fill="#63b8ff" stroke="#63b8ff" points="754.13,-188.17 744.32,-184.17 749.49,-193.41 754.13,-188.17"/>
</a>
</g>
</g>
<!-- Node17 -->
<g id="Node000017" class="node">
<title>Node17</title>
<g id="a_Node000017"><a xlink:title=" ">
<polygon fill="#e0e0e0" stroke="#999999" points="928.5,-184 860.5,-184 860.5,-165 928.5,-165 928.5,-184"/>
<text text-anchor="middle" x="894.5" y="-172" font-family="Helvetica,sans-Serif" font-size="10.00">RadioLib.h</text>
</a>
</g>
</g>
<!-- Node16&#45;&gt;Node17 -->
<g id="edge28_Node000016_Node000017" class="edge">
<title>Node16&#45;&gt;Node17</title>
<g id="a_edge28_Node000016_Node000017"><a xlink:title=" ">
<path fill="none" stroke="#63b8ff" d="M810.57,-219.98C826.36,-211.61 850.72,-198.7 869.13,-188.95"/>
<polygon fill="#63b8ff" stroke="#63b8ff" points="870.94,-191.95 878.14,-184.17 867.67,-185.76 870.94,-191.95"/>
</a>
</g>
</g>
<!-- Node18&#45;&gt;Node3 -->
<g id="edge32_Node000018_Node000003" class="edge">
<title>Node18&#45;&gt;Node3</title>
<g id="a_edge32_Node000018_Node000003"><a xlink:title=" ">
<path fill="none" stroke="#63b8ff" d="M310.44,-219.98C284.47,-211.16 243.69,-197.31 214.54,-187.41"/>
<polygon fill="#63b8ff" stroke="#63b8ff" points="215.35,-183.99 204.76,-184.08 213.1,-190.61 215.35,-183.99"/>
</a>
</g>
</g>
<!-- Node18&#45;&gt;Node4 -->
<g id="edge33_Node000018_Node000004" class="edge">
<title>Node18&#45;&gt;Node4</title>
<g id="a_edge33_Node000018_Node000004"><a xlink:title=" ">
<path fill="none" stroke="#63b8ff" d="M328.18,-219.99C321.39,-211.51 311.71,-197.79 307.5,-184 303.06,-169.48 302.82,-152.21 303.54,-139.35"/>
<polygon fill="#63b8ff" stroke="#63b8ff" points="307.03,-139.61 304.35,-129.36 300.06,-139.05 307.03,-139.61"/>
</a>
</g>
</g>
<!-- Node18&#45;&gt;Node9 -->
<g id="edge35_Node000018_Node000009" class="edge">
<title>Node18&#45;&gt;Node9</title>
<g id="a_edge35_Node000018_Node000009"><a xlink:title=" ">
<path fill="none" stroke="#63b8ff" d="M374.18,-224.81C438.34,-218.45 571.01,-204.28 692.46,-184.23"/>
<polygon fill="#63b8ff" stroke="#63b8ff" points="693.38,-187.62 702.67,-182.52 692.23,-180.72 693.38,-187.62"/>
</a>
</g>
</g>
<!-- Node19 -->
<g id="Node000019" class="node">
<title>Node19</title>
<g id="a_Node000019"><a xlink:title=" ">
<polygon fill="#e0e0e0" stroke="#999999" points="355,-184 316,-184 316,-165 355,-165 355,-184"/>
<text text-anchor="middle" x="335.5" y="-172" font-family="Helvetica,sans-Serif" font-size="10.00">SD.h</text>
</a>
</g>
</g>
<!-- Node18&#45;&gt;Node19 -->
<g id="edge34_Node000018_Node000019" class="edge">
<title>Node18&#45;&gt;Node19</title>
<g id="a_edge34_Node000018_Node000019"><a xlink:title=" ">
<path fill="none" stroke="#63b8ff" d="M335.5,-219.75C335.5,-212.8 335.5,-202.85 335.5,-194.13"/>
<polygon fill="#63b8ff" stroke="#63b8ff" points="339,-194.09 335.5,-184.09 332,-194.09 339,-194.09"/>
</a>
</g>
</g>
</g>
</svg>
