<?xml version="1.0" encoding="UTF-8" standalone="no"?>
<!DOCTYPE svg PUBLIC "-//W3C//DTD SVG 1.1//EN"
 "http://www.w3.org/Graphics/SVG/1.1/DTD/svg11.dtd">
<!-- Generated by graphviz version 2.43.0 (0)
 -->
<!-- Title: loop Pages: 1 -->
<svg width="538pt" height="207pt"
 viewBox="0.00 0.00 538.00 207.00" xmlns="http://www.w3.org/2000/svg" xmlns:xlink="http://www.w3.org/1999/xlink">
<g id="graph0" class="graph" transform="scale(1 1) rotate(0) translate(4 203)">
<title>loop</title>
<!-- Node1 -->
<g id="Node000001" class="node">
<title>Node1</title>
<g id="a_Node000001"><a xlink:title="Loop for core 0, handling sensor reads.">
<polygon fill="#999999" stroke="#666666" points="38,-112 0,-112 0,-93 38,-93 38,-112"/>
<text text-anchor="middle" x="19" y="-100" font-family="Helvetica,sans-Serif" font-size="10.00">loop</text>
</a>
</g>
</g>
<!-- Node2 -->
<g id="Node000002" class="node">
<title>Node2</title>
<g id="a_Node000002"><a xlink:href="CommandMessage_8cpp.html#a614e558f381a8d26db49eed9b12fd14f" target="_top" xlink:title=" ">
<polygon fill="white" stroke="#666666" points="338,-188 260,-188 260,-169 338,-169 338,-188"/>
<text text-anchor="middle" x="299" y="-176" font-family="Helvetica,sans-Serif" font-size="10.00">getCmdData</text>
</a>
</g>
</g>
<!-- Node1&#45;&gt;Node2 -->
<g id="edge1_Node000001_Node000002" class="edge">
<title>Node1&#45;&gt;Node2</title>
<g id="a_edge1_Node000001_Node000002"><a xlink:title=" ">
<path fill="none" stroke="#63b8ff" d="M23.47,-112.24C30.16,-129.36 46.67,-164.39 74,-178.5 130.02,-207.42 204.91,-199.71 252.31,-190.17"/>
<polygon fill="#63b8ff" stroke="#63b8ff" points="253.23,-193.55 262.28,-188.05 251.77,-186.71 253.23,-193.55"/>
</a>
</g>
</g>
<!-- Node3 -->
<g id="Node000003" class="node">
<title>Node3</title>
<g id="a_Node000003"><a xlink:href="main_8cpp.html#a76a2f3ef1d3b3d36284ea02246512daa" target="_top" xlink:title="Handle commands read from serial input.">
<polygon fill="white" stroke="#666666" points="187,-169 87,-169 87,-150 187,-150 187,-169"/>
<text text-anchor="middle" x="137" y="-157" font-family="Helvetica,sans-Serif" font-size="10.00">handleCommand</text>
</a>
</g>
</g>
<!-- Node1&#45;&gt;Node3 -->
<g id="edge2_Node000001_Node000003" class="edge">
<title>Node1&#45;&gt;Node3</title>
<g id="a_edge2_Node000001_Node000003"><a xlink:title=" ">
<path fill="none" stroke="#63b8ff" d="M34.27,-112.19C44.93,-119.19 60.01,-128.59 74,-135.5 81.81,-139.36 90.4,-143.03 98.64,-146.28"/>
<polygon fill="#63b8ff" stroke="#63b8ff" points="97.48,-149.59 108.08,-149.9 99.99,-143.05 97.48,-149.59"/>
</a>
</g>
</g>
<!-- Node4 -->
<g id="Node000004" class="node">
<title>Node4</title>
<g id="a_Node000004"><a xlink:href="CommandMessage_8cpp.html#ad408818d8c69721c19d63006e8ef4d22" target="_top" xlink:title=" ">
<polygon fill="white" stroke="#666666" points="337.5,-141 260.5,-141 260.5,-122 337.5,-122 337.5,-141"/>
<text text-anchor="middle" x="299" y="-129" font-family="Helvetica,sans-Serif" font-size="10.00">setCmdData</text>
</a>
</g>
</g>
<!-- Node1&#45;&gt;Node4 -->
<g id="edge9_Node000001_Node000004" class="edge">
<title>Node1&#45;&gt;Node4</title>
<g id="a_edge9_Node000001_Node000004"><a xlink:title=" ">
<path fill="none" stroke="#63b8ff" d="M38.24,-104.4C80.81,-108.84 187.82,-120.01 250.41,-126.54"/>
<polygon fill="#63b8ff" stroke="#63b8ff" points="250.13,-130.02 260.44,-127.58 250.85,-123.06 250.13,-130.02"/>
</a>
</g>
</g>
<!-- Node5 -->
<g id="Node000005" class="node">
<title>Node5</title>
<g id="a_Node000005"><a xlink:href="classErrorDisplay.html#a4f9e7e64ffc64711653b539bf3d8d24f" target="_top" xlink:title="Accesses the only instance of ErrorDisplay (Singleton)">
<polygon fill="white" stroke="#666666" points="198.5,-93 75.5,-93 75.5,-74 198.5,-74 198.5,-93"/>
<text text-anchor="middle" x="137" y="-81" font-family="Helvetica,sans-Serif" font-size="10.00">ErrorDisplay::instance</text>
</a>
</g>
</g>
<!-- Node1&#45;&gt;Node5 -->
<g id="edge5_Node000001_Node000005" class="edge">
<title>Node1&#45;&gt;Node5</title>
<g id="a_edge5_Node000001_Node000005"><a xlink:title=" ">
<path fill="none" stroke="#63b8ff" d="M38.12,-99.53C46.42,-98.17 56.82,-96.47 67.72,-94.68"/>
<polygon fill="#63b8ff" stroke="#63b8ff" points="68.53,-98.1 77.83,-93.03 67.4,-91.19 68.53,-98.1"/>
</a>
</g>
</g>
<!-- Node6 -->
<g id="Node000006" class="node">
<title>Node6</title>
<g id="a_Node000006"><a xlink:href="main_8cpp.html#a35aec64ebd5600523486586642a4fe23" target="_top" xlink:title="Reads sensor data into a packet byte array.">
<polygon fill="white" stroke="#666666" points="200,-56 74,-56 74,-37 200,-37 200,-56"/>
<text text-anchor="middle" x="137" y="-44" font-family="Helvetica,sans-Serif" font-size="10.00">readSensorDataPacket</text>
</a>
</g>
</g>
<!-- Node1&#45;&gt;Node6 -->
<g id="edge6_Node000001_Node000006" class="edge">
<title>Node1&#45;&gt;Node6</title>
<g id="a_edge6_Node000001_Node000006"><a xlink:title=" ">
<path fill="none" stroke="#63b8ff" d="M31.31,-92.85C41.78,-84.34 58.09,-72.15 74,-64.5 77.86,-62.64 81.96,-60.94 86.13,-59.38"/>
<polygon fill="#63b8ff" stroke="#63b8ff" points="87.59,-62.58 95.91,-56.02 85.32,-55.96 87.59,-62.58"/>
</a>
</g>
</g>
<!-- Node9 -->
<g id="Node000009" class="node">
<title>Node9</title>
<g id="a_Node000009"><a xlink:href="classErrorDisplay.html#a493bde338b369414abffe90e0d49e93b" target="_top" xlink:title="Toggles the level of the error display.">
<polygon fill="white" stroke="#666666" points="193.5,-19 80.5,-19 80.5,0 193.5,0 193.5,-19"/>
<text text-anchor="middle" x="137" y="-7" font-family="Helvetica,sans-Serif" font-size="10.00">ErrorDisplay::toggle</text>
</a>
</g>
</g>
<!-- Node1&#45;&gt;Node9 -->
<g id="edge10_Node000001_Node000009" class="edge">
<title>Node1&#45;&gt;Node9</title>
<g id="a_edge10_Node000001_Node000009"><a xlink:title=" ">
<path fill="none" stroke="#63b8ff" d="M24.31,-92.86C31.97,-76.85 49.49,-44.8 74,-27.5 76.12,-26 78.37,-24.63 80.7,-23.37"/>
<polygon fill="#63b8ff" stroke="#63b8ff" points="82.43,-26.42 90.03,-19.04 79.48,-20.07 82.43,-26.42"/>
</a>
</g>
</g>
<!-- Node3&#45;&gt;Node2 -->
<g id="edge3_Node000003_Node000002" class="edge">
<title>Node3&#45;&gt;Node2</title>
<g id="a_edge3_Node000003_Node000002"><a xlink:title=" ">
<path fill="none" stroke="#63b8ff" d="M187.31,-165.36C207.17,-167.71 230.01,-170.43 249.76,-172.77"/>
<polygon fill="#63b8ff" stroke="#63b8ff" points="249.43,-176.26 259.77,-173.96 250.26,-169.31 249.43,-176.26"/>
</a>
</g>
</g>
<!-- Node3&#45;&gt;Node4 -->
<g id="edge4_Node000003_Node000004" class="edge">
<title>Node3&#45;&gt;Node4</title>
<g id="a_edge4_Node000003_Node000004"><a xlink:title=" ">
<path fill="none" stroke="#63b8ff" d="M187.31,-150.87C207.33,-147.37 230.37,-143.34 250.22,-139.86"/>
<polygon fill="#63b8ff" stroke="#63b8ff" points="251.04,-143.27 260.28,-138.1 249.83,-136.38 251.04,-143.27"/>
</a>
</g>
</g>
<!-- Node7 -->
<g id="Node000007" class="node">
<title>Node7</title>
<g id="a_Node000007"><a xlink:href="classSensor.html#a1d128dc295e634de6506da5cbb716b64" target="_top" xlink:title="Append the data from a sensor to the packet if the minium period is satisfied.">
<polygon fill="white" stroke="#666666" points="362,-56 236,-56 236,-37 362,-37 362,-56"/>
<text text-anchor="middle" x="299" y="-44" font-family="Helvetica,sans-Serif" font-size="10.00">Sensor::getDataPacket</text>
</a>
</g>
</g>
<!-- Node6&#45;&gt;Node7 -->
<g id="edge7_Node000006_Node000007" class="edge">
<title>Node6&#45;&gt;Node7</title>
<g id="a_edge7_Node000006_Node000007"><a xlink:title=" ">
<path fill="none" stroke="#63b8ff" d="M200.32,-46.5C208.62,-46.5 217.18,-46.5 225.63,-46.5"/>
<polygon fill="#63b8ff" stroke="#63b8ff" points="225.85,-50 235.85,-46.5 225.85,-43 225.85,-50"/>
</a>
</g>
</g>
<!-- Node8 -->
<g id="Node000008" class="node">
<title>Node8</title>
<g id="a_Node000008"><a xlink:href="classSensor.html#ae835436cbb1fd60580e72a4ee7014c48" target="_top" xlink:title="Used for creating packets, reads data from the sensor and appends it to the passed uint8_t array poin...">
<polygon fill="white" stroke="#666666" points="530,-56 398,-56 398,-37 530,-37 530,-56"/>
<text text-anchor="middle" x="464" y="-44" font-family="Helvetica,sans-Serif" font-size="10.00">Sensor::readDataPacket</text>
</a>
</g>
</g>
<!-- Node7&#45;&gt;Node8 -->
<g id="edge8_Node000007_Node000008" class="edge">
<title>Node7&#45;&gt;Node8</title>
<g id="a_edge8_Node000007_Node000008"><a xlink:title=" ">
<path fill="none" stroke="#63b8ff" d="M362.09,-46.5C370.49,-46.5 379.19,-46.5 387.8,-46.5"/>
<polygon fill="#63b8ff" stroke="#63b8ff" points="387.83,-50 397.83,-46.5 387.83,-43 387.83,-50"/>
</a>
</g>
</g>
</g>
</svg>
