<?xml version="1.0" encoding="UTF-8" standalone="no"?>
<!DOCTYPE svg PUBLIC "-//W3C//DTD SVG 1.1//EN"
 "http://www.w3.org/Graphics/SVG/1.1/DTD/svg11.dtd">
<!-- Generated by graphviz version 12.1.2 (20240928.0832)
 -->
<!-- Title: storeData Pages: 1 -->
<svg width="238pt" height="28pt"
 viewBox="0.00 0.00 238.25 28.00" xmlns="http://www.w3.org/2000/svg" xmlns:xlink="http://www.w3.org/1999/xlink">
<g id="graph0" class="graph" transform="scale(1 1) rotate(0) translate(4 24)">
<title>storeData</title>
<!-- Node1 -->
<g id="Node000001" class="node">
<title>Node1</title>
<g id="a_Node000001"><a xlink:title="Sends data to each storage device, assumes storage devices take care of newline/data end themselves.">
<polygon fill="#999999" stroke="#666666" points="230.25,-20 171.5,-20 171.5,0 230.25,0 230.25,-20"/>
<text text-anchor="middle" x="200.88" y="-6.5" font-family="Helvetica,sans-Serif" font-size="10.00">storeData</text>
</a>
</g>
</g>
<!-- Node2 -->
<g id="Node000002" class="node">
<title>Node2</title>
<g id="a_Node000002"><a xlink:href="main1_8cpp.html#a5d5c43a90af6e8b0e11c818a7e1681e7" target="_top" xlink:title="Loop for core 1.">
<polygon fill="white" stroke="#666666" points="135.5,-20 75.25,-20 75.25,0 135.5,0 135.5,-20"/>
<text text-anchor="middle" x="105.38" y="-6.5" font-family="Helvetica,sans-Serif" font-size="10.00">real_loop1</text>
</a>
</g>
</g>
<!-- Node1&#45;&gt;Node2 -->
<g id="edge1_Node000001_Node000002" class="edge">
<title>Node1&#45;&gt;Node2</title>
<g id="a_edge1_Node000001_Node000002"><a xlink:title=" ">
<path fill="none" stroke="#63b8ff" d="M159.66,-10C151.69,-10 143.45,-10 135.9,-10"/>
<polygon fill="#63b8ff" stroke="#63b8ff" points="159.55,-13.5 169.55,-10 159.55,-6.5 159.55,-13.5"/>
</a>
</g>
</g>
<!-- Node3 -->
<g id="Node000003" class="node">
<title>Node3</title>
<g id="a_Node000003"><a xlink:href="main_8cpp.html#a39ceba300a80e348e278539f57e0ca79" target="_top" xlink:title=" ">
<polygon fill="white" stroke="#666666" points="39.25,-20 0,-20 0,0 39.25,0 39.25,-20"/>
<text text-anchor="middle" x="19.62" y="-6.5" font-family="Helvetica,sans-Serif" font-size="10.00">loop1</text>
</a>
</g>
</g>
<!-- Node2&#45;&gt;Node3 -->
<g id="edge2_Node000002_Node000003" class="edge">
<title>Node2&#45;&gt;Node3</title>
<g id="a_edge2_Node000002_Node000003"><a xlink:title=" ">
<path fill="none" stroke="#63b8ff" d="M63.73,-10C55.27,-10 46.75,-10 39.55,-10"/>
<polygon fill="#63b8ff" stroke="#63b8ff" points="63.57,-13.5 73.57,-10 63.57,-6.5 63.57,-13.5"/>
</a>
</g>
</g>
</g>
</svg>
