<?xml version="1.0" encoding="UTF-8" standalone="no"?>
<!DOCTYPE svg PUBLIC "-//W3C//DTD SVG 1.1//EN"
 "http://www.w3.org/Graphics/SVG/1.1/DTD/svg11.dtd">
<!-- Generated by graphviz version 12.1.2 (20240928.0832)
 -->
<!-- Title: verifyStorageRecovery Pages: 1 -->
<svg width="307pt" height="28pt"
 viewBox="0.00 0.00 307.25 28.00" xmlns="http://www.w3.org/2000/svg" xmlns:xlink="http://www.w3.org/1999/xlink">
<g id="graph0" class="graph" transform="scale(1 1) rotate(0) translate(4 24)">
<title>verifyStorageRecovery</title>
<!-- Node1 -->
<g id="Node000001" class="node">
<title>Node1</title>
<g id="a_Node000001"><a xlink:title="Verifies the connection with each storage device, and defines the header_condensed field,...">
<polygon fill="#999999" stroke="#666666" points="299.25,-20 183.5,-20 183.5,0 299.25,0 299.25,-20"/>
<text text-anchor="middle" x="241.38" y="-6.5" font-family="Helvetica,sans-Serif" font-size="10.00">verifyStorageRecovery</text>
</a>
</g>
</g>
<!-- Node2 -->
<g id="Node000002" class="node">
<title>Node2</title>
<g id="a_Node000002"><a xlink:href="main1_8cpp.html#a335f1df8d0b267769cb9842c12616214" target="_top" xlink:title="Setup for core 1.">
<polygon fill="white" stroke="#666666" points="147.5,-20 81.25,-20 81.25,0 147.5,0 147.5,-20"/>
<text text-anchor="middle" x="114.38" y="-6.5" font-family="Helvetica,sans-Serif" font-size="10.00">real_setup1</text>
</a>
</g>
</g>
<!-- Node1&#45;&gt;Node2 -->
<g id="edge1_Node000001_Node000002" class="edge">
<title>Node1&#45;&gt;Node2</title>
<g id="a_edge1_Node000001_Node000002"><a xlink:title=" ">
<path fill="none" stroke="#63b8ff" d="M171.87,-10C163.46,-10 155.2,-10 147.71,-10"/>
<polygon fill="#63b8ff" stroke="#63b8ff" points="171.85,-13.5 181.85,-10 171.85,-6.5 171.85,-13.5"/>
</a>
</g>
</g>
<!-- Node3 -->
<g id="Node000003" class="node">
<title>Node3</title>
<g id="a_Node000003"><a xlink:href="main_8cpp.html#ac764ee28e2916a7de10b22927e02d1a4" target="_top" xlink:title=" ">
<polygon fill="white" stroke="#666666" points="45.25,-20 0,-20 0,0 45.25,0 45.25,-20"/>
<text text-anchor="middle" x="22.62" y="-6.5" font-family="Helvetica,sans-Serif" font-size="10.00">setup1</text>
</a>
</g>
</g>
<!-- Node2&#45;&gt;Node3 -->
<g id="edge2_Node000002_Node000003" class="edge">
<title>Node2&#45;&gt;Node3</title>
<g id="a_edge2_Node000002_Node000003"><a xlink:title=" ">
<path fill="none" stroke="#63b8ff" d="M69.7,-10C61.34,-10 52.91,-10 45.59,-10"/>
<polygon fill="#63b8ff" stroke="#63b8ff" points="69.46,-13.5 79.46,-10 69.46,-6.5 69.46,-13.5"/>
</a>
</g>
</g>
</g>
</svg>
