<?xml version="1.0" encoding="UTF-8" standalone="no"?>
<!DOCTYPE svg PUBLIC "-//W3C//DTD SVG 1.1//EN"
 "http://www.w3.org/Graphics/SVG/1.1/DTD/svg11.dtd">
<!-- Generated by graphviz version 12.1.2 (20240928.0832)
 -->
<!-- Title: readSensorDataPacket Pages: 1 -->
<svg width="439pt" height="28pt"
 viewBox="0.00 0.00 438.50 28.00" xmlns="http://www.w3.org/2000/svg" xmlns:xlink="http://www.w3.org/1999/xlink">
<g id="graph0" class="graph" transform="scale(1 1) rotate(0) translate(4 24)">
<title>readSensorDataPacket</title>
<!-- Node1 -->
<g id="Node000001" class="node">
<title>Node1</title>
<g id="a_Node000001"><a xlink:title="Reads sensor data into a packet byte array.">
<polygon fill="#999999" stroke="#666666" points="117.25,-20 0,-20 0,0 117.25,0 117.25,-20"/>
<text text-anchor="middle" x="58.62" y="-6.5" font-family="Helvetica,sans-Serif" font-size="10.00">readSensorDataPacket</text>
</a>
</g>
</g>
<!-- Node2 -->
<g id="Node000002" class="node">
<title>Node2</title>
<g id="a_Node000002"><a xlink:href="classSensor.html#a1d128dc295e634de6506da5cbb716b64" target="_top" xlink:title="Append the data from a sensor to the packet if the minium period is satisfied.">
<polygon fill="white" stroke="#666666" points="271.25,-20 153.25,-20 153.25,0 271.25,0 271.25,-20"/>
<text text-anchor="middle" x="212.25" y="-6.5" font-family="Helvetica,sans-Serif" font-size="10.00">Sensor::getDataPacket</text>
</a>
</g>
</g>
<!-- Node1&#45;&gt;Node2 -->
<g id="edge1_Node000001_Node000002" class="edge">
<title>Node1&#45;&gt;Node2</title>
<g id="a_edge1_Node000001_Node000002"><a xlink:title=" ">
<path fill="none" stroke="#63b8ff" d="M117.38,-10C125.29,-10 133.47,-10 141.56,-10"/>
<polygon fill="#63b8ff" stroke="#63b8ff" points="141.39,-13.5 151.39,-10 141.39,-6.5 141.39,-13.5"/>
</a>
</g>
</g>
<!-- Node3 -->
<g id="Node000003" class="node">
<title>Node3</title>
<g id="a_Node000003"><a xlink:href="classSensor.html#ae835436cbb1fd60580e72a4ee7014c48" target="_top" xlink:title="Used for creating packets, reads data from the sensor and appends it to the passed uint8_t array poin...">
<polygon fill="white" stroke="#666666" points="430.5,-20 307.25,-20 307.25,0 430.5,0 430.5,-20"/>
<text text-anchor="middle" x="368.88" y="-6.5" font-family="Helvetica,sans-Serif" font-size="10.00">Sensor::readDataPacket</text>
</a>
</g>
</g>
<!-- Node2&#45;&gt;Node3 -->
<g id="edge2_Node000002_Node000003" class="edge">
<title>Node2&#45;&gt;Node3</title>
<g id="a_edge2_Node000002_Node000003"><a xlink:title=" ">
<path fill="none" stroke="#63b8ff" d="M271.71,-10C279.41,-10 287.37,-10 295.27,-10"/>
<polygon fill="#63b8ff" stroke="#63b8ff" points="295.25,-13.5 305.25,-10 295.25,-6.5 295.25,-13.5"/>
</a>
</g>
</g>
</g>
</svg>
