<?xml version="1.0" encoding="UTF-8" standalone="no"?>
<!DOCTYPE svg PUBLIC "-//W3C//DTD SVG 1.1//EN"
 "http://www.w3.org/Graphics/SVG/1.1/DTD/svg11.dtd">
<!-- Generated by graphviz version 12.1.2 (20240928.0832)
 -->
<!-- Title: real_loop1 Pages: 1 -->
<!--zoomable 332 -->

<svg id="main" version="1.1" xmlns="http://www.w3.org/2000/svg" xmlns:xlink="http://www.w3.org/1999/xlink" xml:space="preserve" onload="init(evt)">

<style type="text/css"><![CDATA[
.node, .edge {opacity: 0.7;}
.node.selected, .edge.selected {opacity: 1;}
.edge:hover path { stroke: red; }
.edge:hover polygon { stroke: red; fill: red; }
]]></style>

<defs>
  <circle id="rim" cx="0" cy="0" r="7"/>
  <circle id="rim2" cx="0" cy="0" r="3.5"/>
  <g id="zoomPlus">
    <use xlink:href="#rim" fill="#404040"><set attributeName="fill" to="#808080" begin="zoomplus.mouseover" end="zoomplus.mouseout"/></use>
    <path d="M-4,0h8M0,-4v8" fill="none" stroke="white" stroke-width="1.5" pointer-events="none"/>
  </g>
  <g id="zoomMin">
    <use xlink:href="#rim" fill="#404040"><set attributeName="fill" to="#808080" begin="zoomminus.mouseover" end="zoomminus.mouseout"/></use>
    <path d="M-4,0h8" fill="none" stroke="white" stroke-width="1.5" pointer-events="none"/>
  </g>
  <g id="arrowUp" transform="translate(30 24)">
    <use xlink:href="#rim"/>
    <path pointer-events="none" fill="none" stroke="white" stroke-width="1.5" d="M0,-3.0v7 M-2.5,-0.5L0,-3.0L2.5,-0.5"/>
  </g>
  <g id="arrowRight" transform="rotate(90) translate(36 -43)">
    <use xlink:href="#rim"/>
    <path pointer-events="none" fill="none" stroke="white" stroke-width="1.5" d="M0,-3.0v7 M-2.5,-0.5L0,-3.0L2.5,-0.5"/>
  </g>
  <g id="arrowDown" transform="rotate(180) translate(-30 -48)">
    <use xlink:href="#rim"/>
    <path pointer-events="none" fill="none" stroke="white" stroke-width="1.5" d="M0,-3.0v7 M-2.5,-0.5L0,-3.0L2.5,-0.5"/>
  </g>
  <g id="arrowLeft" transform="rotate(270) translate(-36 17)">
    <use xlink:href="#rim"/>
    <path pointer-events="none" fill="none" stroke="white" stroke-width="1.5" d="M0,-3.0v7 M-2.5,-0.5L0,-3.0L2.5,-0.5"/>
  </g>
  <g id="resetDef">
    <use xlink:href="#rim2" fill="#404040"><set attributeName="fill" to="#808080" begin="reset.mouseover" end="reset.mouseout"/></use>
  </g>
</defs>
<script type="application/ecmascript">
var viewWidth = 749;
var viewHeight = 332;
var sectionId = 'dynsection-10';
</script>
<script type="application/ecmascript" xlink:href="svg.min.js"/>
<svg id="graph" class="graph">
<g id="viewport">
<title>real_loop1</title>
<!-- Node1 -->
<g id="Node000001" class="node">
<title>Node1</title>
<g id="a_Node000001"><a xlink:title="Loop for core 1.">
<polygon fill="#999999" stroke="#666666" points="60.25,-172 0,-172 0,-152 60.25,-152 60.25,-172"/>
<text text-anchor="middle" x="30.12" y="-158.5" font-family="Helvetica,sans-Serif" font-size="10.00">real_loop1</text>
</a>
</g>
</g>
<!-- Node2 -->
<g id="Node000002" class="node">
<title>Node2</title>
<g id="a_Node000002"><a xlink:href="classFlashStorage.html#ad96a663c3434d8783b30c12ec706ad81" target="_top" xlink:title="Downloads data from flash memory with progress tracking.">
<polygon fill="white" stroke="#666666" points="233,-324 96.25,-324 96.25,-304 233,-304 233,-324"/>
<text text-anchor="middle" x="164.62" y="-310.5" font-family="Helvetica,sans-Serif" font-size="10.00">FlashStorage::downloadFile</text>
</a>
</g>
</g>
<!-- Node1&#45;&gt;Node2 -->
<g id="edge1_Node000001_Node000002" class="edge">
<title>Node1&#45;&gt;Node2</title>
<g id="a_edge1_Node000001_Node000002"><a xlink:title=" ">
<path fill="none" stroke="#63b8ff" d="M33.19,-172.44C38.7,-197.53 56.17,-261.57 96.25,-295 97.53,-296.07 98.87,-297.08 100.26,-298.03"/>
<polygon fill="#63b8ff" stroke="#63b8ff" points="98.24,-300.91 108.67,-302.79 101.69,-294.82 98.24,-300.91"/>
</a>
</g>
</g>
<!-- Node3 -->
<g id="Node000003" class="node">
<title>Node3</title>
<g id="a_Node000003"><a xlink:href="classFlashStorage.html#ac2dd4e8b7b4a85d5820f4277d0fb6727" target="_top" xlink:title="Erases all data stored in flash memory.">
<polygon fill="white" stroke="#666666" points="216.5,-286 112.75,-286 112.75,-266 216.5,-266 216.5,-286"/>
<text text-anchor="middle" x="164.62" y="-272.5" font-family="Helvetica,sans-Serif" font-size="10.00">FlashStorage::erase</text>
</a>
</g>
</g>
<!-- Node1&#45;&gt;Node3 -->
<g id="edge2_Node000001_Node000003" class="edge">
<title>Node1&#45;&gt;Node3</title>
<g id="a_edge2_Node000001_Node000003"><a xlink:title=" ">
<path fill="none" stroke="#63b8ff" d="M35.32,-172.34C43.8,-191.93 64.89,-234.5 96.25,-257 98.18,-258.38 100.21,-259.67 102.3,-260.86"/>
<polygon fill="#63b8ff" stroke="#63b8ff" points="100.65,-263.95 111.18,-265.12 103.68,-257.64 100.65,-263.95"/>
</a>
</g>
</g>
<!-- Node4 -->
<g id="Node000004" class="node">
<title>Node4</title>
<g id="a_Node000004"><a xlink:href="CommandMessage_8cpp.html#a614e558f381a8d26db49eed9b12fd14f" target="_top" xlink:title=" ">
<polygon fill="white" stroke="#666666" points="200.38,-248 128.88,-248 128.88,-228 200.38,-228 200.38,-248"/>
<text text-anchor="middle" x="164.62" y="-234.5" font-family="Helvetica,sans-Serif" font-size="10.00">getCmdData</text>
</a>
</g>
</g>
<!-- Node1&#45;&gt;Node4 -->
<g id="edge3_Node000001_Node000004" class="edge">
<title>Node1&#45;&gt;Node4</title>
<g id="a_edge3_Node000001_Node000004"><a xlink:title=" ">
<path fill="none" stroke="#63b8ff" d="M40.22,-172.4C51.94,-185.18 73.53,-206.68 96.25,-219 102.85,-222.58 110.18,-225.54 117.52,-227.96"/>
<polygon fill="#63b8ff" stroke="#63b8ff" points="116.52,-231.32 127.1,-230.82 118.52,-224.61 116.52,-231.32"/>
</a>
</g>
</g>
<!-- Node5 -->
<g id="Node000005" class="node">
<title>Node5</title>
<g id="a_Node000005"><a xlink:href="classFlashStorage.html#a318825f36239ed4e7c5bf345c6f95366" target="_top" xlink:title="Prints the current status of the flash storage.">
<polygon fill="white" stroke="#666666" points="225.5,-210 103.75,-210 103.75,-190 225.5,-190 225.5,-210"/>
<text text-anchor="middle" x="164.62" y="-196.5" font-family="Helvetica,sans-Serif" font-size="10.00">FlashStorage::getStatus</text>
</a>
</g>
</g>
<!-- Node1&#45;&gt;Node5 -->
<g id="edge4_Node000001_Node000005" class="edge">
<title>Node1&#45;&gt;Node5</title>
<g id="a_edge4_Node000001_Node000005"><a xlink:title=" ">
<path fill="none" stroke="#63b8ff" d="M60.53,-170.43C76.9,-175.13 97.66,-181.08 116.26,-186.42"/>
<polygon fill="#63b8ff" stroke="#63b8ff" points="115.17,-189.75 125.75,-189.14 117.1,-183.02 115.17,-189.75"/>
</a>
</g>
</g>
<!-- Node6 -->
<g id="Node000006" class="node">
<title>Node6</title>
<g id="a_Node000006"><a xlink:href="classFlashStorage.html#ad024a499e7eb8774a26f46369f50ad05" target="_top" xlink:title=" ">
<polygon fill="white" stroke="#666666" points="393.75,-153 269,-153 269,-133 393.75,-133 393.75,-153"/>
<text text-anchor="middle" x="331.38" y="-139.5" font-family="Helvetica,sans-Serif" font-size="10.00">FlashStorage::reinitFlash</text>
</a>
</g>
</g>
<!-- Node1&#45;&gt;Node6 -->
<g id="edge5_Node000001_Node000006" class="edge">
<title>Node1&#45;&gt;Node6</title>
<g id="a_edge5_Node000001_Node000006"><a xlink:title=" ">
<path fill="none" stroke="#63b8ff" d="M60.64,-160.13C106.05,-157.24 194.44,-151.63 257.67,-147.62"/>
<polygon fill="#63b8ff" stroke="#63b8ff" points="257.5,-151.13 267.26,-147.01 257.06,-144.15 257.5,-151.13"/>
</a>
</g>
</g>
<!-- Node11 -->
<g id="Node000011" class="node">
<title>Node11</title>
<g id="a_Node000011"><a xlink:href="classFlashStorage.html#ad8daa31feba03cb7d02efb3124962f20" target="_top" xlink:title="Deletes a file by erasing the sectors it occupies.">
<polygon fill="white" stroke="#666666" points="228.5,-134 100.75,-134 100.75,-114 228.5,-114 228.5,-134"/>
<text text-anchor="middle" x="164.62" y="-120.5" font-family="Helvetica,sans-Serif" font-size="10.00">FlashStorage::removeFile</text>
</a>
</g>
</g>
<!-- Node1&#45;&gt;Node11 -->
<g id="edge10_Node000001_Node000011" class="edge">
<title>Node1&#45;&gt;Node11</title>
<g id="a_edge10_Node000001_Node000011"><a xlink:title=" ">
<path fill="none" stroke="#63b8ff" d="M60.53,-153.57C76.9,-148.87 97.66,-142.92 116.26,-137.58"/>
<polygon fill="#63b8ff" stroke="#63b8ff" points="117.1,-140.98 125.75,-134.86 115.17,-134.25 117.1,-140.98"/>
</a>
</g>
</g>
<!-- Node12 -->
<g id="Node000012" class="node">
<title>Node12</title>
<g id="a_Node000012"><a xlink:href="CommandMessage_8cpp.html#ad408818d8c69721c19d63006e8ef4d22" target="_top" xlink:title=" ">
<polygon fill="white" stroke="#666666" points="200.38,-96 128.88,-96 128.88,-76 200.38,-76 200.38,-96"/>
<text text-anchor="middle" x="164.62" y="-82.5" font-family="Helvetica,sans-Serif" font-size="10.00">setCmdData</text>
</a>
</g>
</g>
<!-- Node1&#45;&gt;Node12 -->
<g id="edge12_Node000001_Node000012" class="edge">
<title>Node1&#45;&gt;Node12</title>
<g id="a_edge12_Node000001_Node000012"><a xlink:title=" ">
<path fill="none" stroke="#63b8ff" d="M40.22,-151.6C51.94,-138.82 73.53,-117.32 96.25,-105 102.85,-101.42 110.18,-98.46 117.52,-96.04"/>
<polygon fill="#63b8ff" stroke="#63b8ff" points="118.52,-99.39 127.1,-93.18 116.52,-92.68 118.52,-99.39"/>
</a>
</g>
</g>
<!-- Node13 -->
<g id="Node000013" class="node">
<title>Node13</title>
<g id="a_Node000013"><a xlink:href="main1_8cpp.html#a0f14b13edaa51207f1ff6752e4696ee7" target="_top" xlink:title="Sends data to each storage device, assumes storage devices take care of newline/data end themselves.">
<polygon fill="white" stroke="#666666" points="194,-58 135.25,-58 135.25,-38 194,-38 194,-58"/>
<text text-anchor="middle" x="164.62" y="-44.5" font-family="Helvetica,sans-Serif" font-size="10.00">storeData</text>
</a>
</g>
</g>
<!-- Node1&#45;&gt;Node13 -->
<g id="edge13_Node000001_Node000013" class="edge">
<title>Node1&#45;&gt;Node13</title>
<g id="a_edge13_Node000001_Node000013"><a xlink:title=" ">
<path fill="none" stroke="#63b8ff" d="M35.32,-151.66C43.8,-132.07 64.89,-89.5 96.25,-67 104.34,-61.19 114.15,-57.16 123.76,-54.36"/>
<polygon fill="#63b8ff" stroke="#63b8ff" points="124.5,-57.78 133.35,-51.96 122.81,-50.99 124.5,-57.78"/>
</a>
</g>
</g>
<!-- Node15 -->
<g id="Node000015" class="node">
<title>Node15</title>
<g id="a_Node000015"><a xlink:href="main1_8cpp.html#a5ea9df4efc2cfe37ef8d6fcfb3157a43" target="_top" xlink:title="Sends data to each storage device.">
<polygon fill="white" stroke="#666666" points="209.38,-20 119.88,-20 119.88,0 209.38,0 209.38,-20"/>
<text text-anchor="middle" x="164.62" y="-6.5" font-family="Helvetica,sans-Serif" font-size="10.00">storeDataPacket</text>
</a>
</g>
</g>
<!-- Node1&#45;&gt;Node15 -->
<g id="edge15_Node000001_Node000015" class="edge">
<title>Node1&#45;&gt;Node15</title>
<g id="a_edge15_Node000001_Node000015"><a xlink:title=" ">
<path fill="none" stroke="#63b8ff" d="M33.19,-151.56C38.7,-126.47 56.17,-62.43 96.25,-29 100.13,-25.76 104.54,-23.07 109.19,-20.84"/>
<polygon fill="#63b8ff" stroke="#63b8ff" points="110.27,-24.18 118.25,-17.21 107.67,-17.68 110.27,-24.18"/>
</a>
</g>
</g>
<!-- Node7 -->
<g id="Node000007" class="node">
<title>Node7</title>
<g id="a_Node000007"><a xlink:href="classFlashStorage.html#a959ed7240cf70430f05686720e1ead5a" target="_top" xlink:title="Locates the next available file block &amp; tracks existing files.">
<polygon fill="white" stroke="#666666" points="556.75,-153 429.75,-153 429.75,-133 556.75,-133 556.75,-153"/>
<text text-anchor="middle" x="493.25" y="-139.5" font-family="Helvetica,sans-Serif" font-size="10.00">FlashStorage::indexFlash</text>
</a>
</g>
</g>
<!-- Node6&#45;&gt;Node7 -->
<g id="edge6_Node000006_Node000007" class="edge">
<title>Node6&#45;&gt;Node7</title>
<g id="a_edge6_Node000006_Node000007"><a xlink:title=" ">
<path fill="none" stroke="#63b8ff" d="M394.19,-143C401.92,-143 409.89,-143 417.79,-143"/>
<polygon fill="#63b8ff" stroke="#63b8ff" points="417.77,-146.5 427.77,-143 417.77,-139.5 417.77,-146.5"/>
</a>
</g>
</g>
<!-- Node8 -->
<g id="Node000008" class="node">
<title>Node8</title>
<g id="a_Node000008"><a xlink:href="classFlashStorage.html#a97b10db97f42549e197feeff3f3f9abb" target="_top" xlink:title="Determines if the current sector is empty.">
<polygon fill="white" stroke="#666666" points="738.88,-191 594.62,-191 594.62,-171 738.88,-171 738.88,-191"/>
<text text-anchor="middle" x="666.75" y="-177.5" font-family="Helvetica,sans-Serif" font-size="10.00">FlashStorage::isSectorEmpty</text>
</a>
</g>
</g>
<!-- Node7&#45;&gt;Node8 -->
<g id="edge7_Node000007_Node000008" class="edge">
<title>Node7&#45;&gt;Node8</title>
<g id="a_edge7_Node000007_Node000008"><a xlink:title=" ">
<path fill="none" stroke="#63b8ff" d="M541.57,-153.48C562,-158.01 586.1,-163.35 607.61,-168.12"/>
<polygon fill="#63b8ff" stroke="#63b8ff" points="606.59,-171.48 617.11,-170.22 608.1,-164.64 606.59,-171.48"/>
</a>
</g>
</g>
<!-- Node9 -->
<g id="Node000009" class="node">
<title>Node9</title>
<g id="a_Node000009"><a xlink:href="classFlashStorage.html#aa64883a0b4aa2c9124d0be9b4722d729" target="_top" xlink:title="Determines if the first 4 bytes of a sector are a file header.">
<polygon fill="white" stroke="#666666" points="739.62,-153 593.88,-153 593.88,-133 739.62,-133 739.62,-153"/>
<text text-anchor="middle" x="666.75" y="-139.5" font-family="Helvetica,sans-Serif" font-size="10.00">FlashStorage::readFileHeader</text>
</a>
</g>
</g>
<!-- Node7&#45;&gt;Node9 -->
<g id="edge8_Node000007_Node000009" class="edge">
<title>Node7&#45;&gt;Node9</title>
<g id="a_edge8_Node000007_Node000009"><a xlink:title=" ">
<path fill="none" stroke="#63b8ff" d="M557.14,-143C565.29,-143 573.73,-143 582.15,-143"/>
<polygon fill="#63b8ff" stroke="#63b8ff" points="582.07,-146.5 592.07,-143 582.07,-139.5 582.07,-146.5"/>
</a>
</g>
</g>
<!-- Node10 -->
<g id="Node000010" class="node">
<title>Node10</title>
<g id="a_Node000010"><a xlink:href="classFlashStorage.html#a3f4de49bad97284528ebd5279abf3985" target="_top" xlink:title="Writes the file header to the start of a new sector.">
<polygon fill="white" stroke="#666666" points="740.75,-115 592.75,-115 592.75,-95 740.75,-95 740.75,-115"/>
<text text-anchor="middle" x="666.75" y="-101.5" font-family="Helvetica,sans-Serif" font-size="10.00">FlashStorage::writeFileHeader</text>
</a>
</g>
</g>
<!-- Node7&#45;&gt;Node10 -->
<g id="edge9_Node000007_Node000010" class="edge">
<title>Node7&#45;&gt;Node10</title>
<g id="a_edge9_Node000007_Node000010"><a xlink:title=" ">
<path fill="none" stroke="#63b8ff" d="M541.57,-132.52C562,-127.99 586.1,-122.65 607.61,-117.88"/>
<polygon fill="#63b8ff" stroke="#63b8ff" points="608.1,-121.36 617.11,-115.78 606.59,-114.52 608.1,-121.36"/>
</a>
</g>
</g>
<!-- Node11&#45;&gt;Node6 -->
<g id="edge11_Node000011_Node000006" class="edge">
<title>Node11&#45;&gt;Node6</title>
<g id="a_edge11_Node000011_Node000006"><a xlink:title=" ">
<path fill="none" stroke="#63b8ff" d="M228.85,-131.29C238.14,-132.36 247.77,-133.47 257.24,-134.57"/>
<polygon fill="#63b8ff" stroke="#63b8ff" points="256.84,-138.04 267.17,-135.71 257.64,-131.09 256.84,-138.04"/>
</a>
</g>
</g>
<!-- Node14 -->
<g id="Node000014" class="node">
<title>Node14</title>
<g id="a_Node000014"><a xlink:href="classStorage.html#a08674ceb4404690065b1cf39963eb5a3" target="_top" xlink:title="Send string data to storage device.">
<polygon fill="white" stroke="#666666" points="370.12,-58 292.62,-58 292.62,-38 370.12,-38 370.12,-58"/>
<text text-anchor="middle" x="331.38" y="-44.5" font-family="Helvetica,sans-Serif" font-size="10.00">Storage::store</text>
</a>
</g>
</g>
<!-- Node13&#45;&gt;Node14 -->
<g id="edge14_Node000013_Node000014" class="edge">
<title>Node13&#45;&gt;Node14</title>
<g id="a_edge14_Node000013_Node000014"><a xlink:title=" ">
<path fill="none" stroke="#63b8ff" d="M194.32,-48C218.14,-48 252.57,-48 280.84,-48"/>
<polygon fill="#63b8ff" stroke="#63b8ff" points="280.61,-51.5 290.61,-48 280.61,-44.5 280.61,-51.5"/>
</a>
</g>
</g>
<!-- Node16 -->
<g id="Node000016" class="node">
<title>Node16</title>
<g id="a_Node000016"><a xlink:href="classStorage.html#a6ee18f7841fdd0f70091764a59110db2" target="_top" xlink:title="Send packet data to storage device.">
<polygon fill="white" stroke="#666666" points="385.5,-20 277.25,-20 277.25,0 385.5,0 385.5,-20"/>
<text text-anchor="middle" x="331.38" y="-6.5" font-family="Helvetica,sans-Serif" font-size="10.00">Storage::storePacket</text>
</a>
</g>
</g>
<!-- Node15&#45;&gt;Node16 -->
<g id="edge16_Node000015_Node000016" class="edge">
<title>Node15&#45;&gt;Node16</title>
<g id="a_edge16_Node000015_Node000016"><a xlink:title=" ">
<path fill="none" stroke="#63b8ff" d="M209.77,-10C226.9,-10 246.86,-10 265.56,-10"/>
<polygon fill="#63b8ff" stroke="#63b8ff" points="265.49,-13.5 275.49,-10 265.49,-6.5 265.49,-13.5"/>
</a>
</g>
</g>
</g>
</svg>

<g id="navigator" transform="translate(0 0)" fill="#404254">
  <rect fill="#f2f5e9" fill-opacity="0.5" stroke="#606060" stroke-width=".5" x="0" y="0" width="60" height="60"/>
  <use id="zoomplus" xlink:href="#zoomPlus" x="17" y="9" onmousedown="handleZoom(evt,'in')"/>
  <use id="zoomminus" xlink:href="#zoomMin" x="42" y="9" onmousedown="handleZoom(evt,'out')"/>
  <use id="reset" xlink:href="#resetDef" x="30" y="36" onmousedown="handleReset()"/>
   <use id="arrowup" xlink:href="#arrowUp" x="0" y="0" onmousedown="handlePan(0,-1)"/>
  <use id="arrowright" xlink:href="#arrowRight" x="0" y="0" onmousedown="handlePan(1,0)"/>
  <use id="arrowdown" xlink:href="#arrowDown" x="0" y="0" onmousedown="handlePan(0,1)"/>
  <use id="arrowleft" xlink:href="#arrowLeft" x="0" y="0" onmousedown="handlePan(-1,0)"/>
</g>
<svg viewBox="0 0 15 15" width="100%" height="30px" preserveAspectRatio="xMaxYMin meet">
 <g id="arrow_out" transform="scale(0.3 0.3)">
  <a xlink:href="main_8cpp_a5d5c43a90af6e8b0e11c818a7e1681e7_cgraph_org.svg" target="_base">
   <rect id="button" ry="5" rx="5" y="6" x="6" height="38" width="38"
        fill="#f2f5e9" fill-opacity="0.5" stroke="#606060" stroke-width="1.0"/>
   <path id="arrow"
     d="M 11.500037,31.436501 C 11.940474,20.09759 22.043105,11.32322 32.158766,21.979434 L 37.068811,17.246167 C 37.068811,17.246167 37.088388,32 37.088388,32 L 22.160133,31.978069 C 22.160133,31.978069 26.997745,27.140456 26.997745,27.140456 C 18.528582,18.264221 13.291696,25.230495 11.500037,31.436501 z"
     style="fill:#404040;"/>
  </a>
 </g>
</svg>

<style type='text/css'>
<![CDATA[
[data-mouse-over-selected='false'] { opacity: 0.7; }
[data-mouse-over-selected='true']  { opacity: 1.0; }
]]>
</style>
<script type="application/ecmascript"><![CDATA[
document.addEventListener('DOMContentLoaded', (event) => {
  highlightEdges();
  highlightAdjacentNodes();
});
]]></script>
</svg>
