<?xml version="1.0" encoding="UTF-8" standalone="no"?>
<!DOCTYPE svg PUBLIC "-//W3C//DTD SVG 1.1//EN"
 "http://www.w3.org/Graphics/SVG/1.1/DTD/svg11.dtd">
<!-- Generated by graphviz version 2.43.0 (0)
 -->
<!-- Title: loop1 Pages: 1 -->
<!--zoomable 288 -->

<svg id="main" version="1.1" xmlns="http://www.w3.org/2000/svg" xmlns:xlink="http://www.w3.org/1999/xlink" xml:space="preserve" onload="init(evt)">
<style type="text/css"><![CDATA[
.node, .edge {opacity: 0.7;}
.node.selected, .edge.selected {opacity: 1;}
.edge:hover path { stroke: red; }
.edge:hover polygon { stroke: red; fill: red; }
]]></style>

<defs>
  <circle id="rim" cx="0" cy="0" r="7"/>
  <circle id="rim2" cx="0" cy="0" r="3.5"/>
  <g id="zoomPlus">
    <use xlink:href="#rim" fill="#404040"><set attributeName="fill" to="#808080" begin="zoomplus.mouseover" end="zoomplus.mouseout"/></use>
    <path d="M-4,0h8M0,-4v8" fill="none" stroke="white" stroke-width="1.5" pointer-events="none"/>
  </g>
  <g id="zoomMin">
    <use xlink:href="#rim" fill="#404040"><set attributeName="fill" to="#808080" begin="zoomminus.mouseover" end="zoomminus.mouseout"/></use>
    <path d="M-4,0h8" fill="none" stroke="white" stroke-width="1.5" pointer-events="none"/>
  </g>
  <g id="arrowUp" transform="translate(30 24)">
    <use xlink:href="#rim"/>
    <path pointer-events="none" fill="none" stroke="white" stroke-width="1.5" d="M0,-3.0v7 M-2.5,-0.5L0,-3.0L2.5,-0.5"/>
  </g>
  <g id="arrowRight" transform="rotate(90) translate(36 -43)">
    <use xlink:href="#rim"/>
    <path pointer-events="none" fill="none" stroke="white" stroke-width="1.5" d="M0,-3.0v7 M-2.5,-0.5L0,-3.0L2.5,-0.5"/>
  </g>
  <g id="arrowDown" transform="rotate(180) translate(-30 -48)">
    <use xlink:href="#rim"/>
    <path pointer-events="none" fill="none" stroke="white" stroke-width="1.5" d="M0,-3.0v7 M-2.5,-0.5L0,-3.0L2.5,-0.5"/>
  </g>
  <g id="arrowLeft" transform="rotate(270) translate(-36 17)">
    <use xlink:href="#rim"/>
    <path pointer-events="none" fill="none" stroke="white" stroke-width="1.5" d="M0,-3.0v7 M-2.5,-0.5L0,-3.0L2.5,-0.5"/>
  </g>
  <g id="resetDef">
    <use xlink:href="#rim2" fill="#404040"><set attributeName="fill" to="#808080" begin="reset.mouseover" end="reset.mouseout"/></use>
  </g>
</defs>
<script type="application/ecmascript">
var viewWidth = 893;
var viewHeight = 288;
var sectionId = 'dynsection-6';
</script>
<script type="application/ecmascript" xlink:href="svg.min.js"/>
<svg id="graph" class="graph">
<g id="viewport">
<title>loop1</title>
<!-- Node1 -->
<g id="Node000001" class="node">
<title>Node1</title>
<g id="a_Node000001"><a xlink:title=" ">
<polygon fill="#999999" stroke="#666666" points="44,-150 0,-150 0,-131 44,-131 44,-150"/>
<text text-anchor="middle" x="22" y="-138" font-family="Helvetica,sans-Serif" font-size="10.00">loop1</text>
</a>
</g>
</g>
<!-- Node2 -->
<g id="Node000002" class="node">
<title>Node2</title>
<g id="a_Node000002"><a xlink:href="main1_8cpp.html#a5d5c43a90af6e8b0e11c818a7e1681e7" target="_top" xlink:title="Loop for core 1.">
<polygon fill="white" stroke="#666666" points="148,-150 80,-150 80,-131 148,-131 148,-150"/>
<text text-anchor="middle" x="114" y="-138" font-family="Helvetica,sans-Serif" font-size="10.00">real_loop1</text>
</a>
</g>
</g>
<!-- Node1&#45;&gt;Node2 -->
<g id="edge1_Node000001_Node000002" class="edge">
<title>Node1&#45;&gt;Node2</title>
<g id="a_edge1_Node000001_Node000002"><a xlink:title=" ">
<path fill="none" stroke="#63b8ff" d="M44.33,-140.5C51.95,-140.5 60.84,-140.5 69.64,-140.5"/>
<polygon fill="#63b8ff" stroke="#63b8ff" points="69.86,-144 79.86,-140.5 69.86,-137 69.86,-144"/>
</a>
</g>
</g>
<!-- Node3 -->
<g id="Node000003" class="node">
<title>Node3</title>
<g id="a_Node000003"><a xlink:href="classFlashStorage.html#ad96a663c3434d8783b30c12ec706ad81" target="_top" xlink:title="Downloads data from flash memory with progress tracking.">
<polygon fill="white" stroke="#666666" points="335,-280 184,-280 184,-261 335,-261 335,-280"/>
<text text-anchor="middle" x="259.5" y="-268" font-family="Helvetica,sans-Serif" font-size="10.00">FlashStorage::downloadFile</text>
</a>
</g>
</g>
<!-- Node2&#45;&gt;Node3 -->
<g id="edge2_Node000002_Node000003" class="edge">
<title>Node2&#45;&gt;Node3</title>
<g id="a_edge2_Node000002_Node000003"><a xlink:title=" ">
<path fill="none" stroke="#63b8ff" d="M118.04,-150.05C125.5,-171.87 146.85,-225.53 184,-252.5 186.07,-254 188.26,-255.38 190.52,-256.65"/>
<polygon fill="#63b8ff" stroke="#63b8ff" points="189.06,-259.83 199.59,-260.99 192.08,-253.52 189.06,-259.83"/>
</a>
</g>
</g>
<!-- Node4 -->
<g id="Node000004" class="node">
<title>Node4</title>
<g id="a_Node000004"><a xlink:href="classFlashStorage.html#ac2dd4e8b7b4a85d5820f4277d0fb6727" target="_top" xlink:title="Erases all data stored in flash memory.">
<polygon fill="white" stroke="#666666" points="316,-243 203,-243 203,-224 316,-224 316,-243"/>
<text text-anchor="middle" x="259.5" y="-231" font-family="Helvetica,sans-Serif" font-size="10.00">FlashStorage::erase</text>
</a>
</g>
</g>
<!-- Node2&#45;&gt;Node4 -->
<g id="edge3_Node000002_Node000004" class="edge">
<title>Node2&#45;&gt;Node4</title>
<g id="a_edge3_Node000002_Node000004"><a xlink:title=" ">
<path fill="none" stroke="#63b8ff" d="M121.12,-150.25C131.81,-166.43 155.49,-198.72 184,-215.5 187.02,-217.28 190.2,-218.88 193.48,-220.32"/>
<polygon fill="#63b8ff" stroke="#63b8ff" points="192.35,-223.64 202.94,-223.98 194.88,-217.11 192.35,-223.64"/>
</a>
</g>
</g>
<!-- Node5 -->
<g id="Node000005" class="node">
<title>Node5</title>
<g id="a_Node000005"><a xlink:href="CommandMessage_8cpp.html#a614e558f381a8d26db49eed9b12fd14f" target="_top" xlink:title=" ">
<polygon fill="white" stroke="#666666" points="298.5,-206 220.5,-206 220.5,-187 298.5,-187 298.5,-206"/>
<text text-anchor="middle" x="259.5" y="-194" font-family="Helvetica,sans-Serif" font-size="10.00">getCmdData</text>
</a>
</g>
</g>
<!-- Node2&#45;&gt;Node5 -->
<g id="edge4_Node000002_Node000005" class="edge">
<title>Node2&#45;&gt;Node5</title>
<g id="a_edge4_Node000002_Node000005"><a xlink:title=" ">
<path fill="none" stroke="#63b8ff" d="M129.78,-150.16C143.38,-158.68 164.37,-170.88 184,-178.5 192.38,-181.75 201.53,-184.54 210.45,-186.89"/>
<polygon fill="#63b8ff" stroke="#63b8ff" points="209.84,-190.34 220.38,-189.35 211.52,-183.55 209.84,-190.34"/>
</a>
</g>
</g>
<!-- Node6 -->
<g id="Node000006" class="node">
<title>Node6</title>
<g id="a_Node000006"><a xlink:href="classFlashStorage.html#a318825f36239ed4e7c5bf345c6f95366" target="_top" xlink:title="Prints the current status of the flash storage.">
<polygon fill="white" stroke="#666666" points="326,-169 193,-169 193,-150 326,-150 326,-169"/>
<text text-anchor="middle" x="259.5" y="-157" font-family="Helvetica,sans-Serif" font-size="10.00">FlashStorage::getStatus</text>
</a>
</g>
</g>
<!-- Node2&#45;&gt;Node6 -->
<g id="edge5_Node000002_Node000006" class="edge">
<title>Node2&#45;&gt;Node6</title>
<g id="a_edge5_Node000002_Node000006"><a xlink:title=" ">
<path fill="none" stroke="#63b8ff" d="M148.28,-144.91C158.7,-146.29 170.65,-147.87 182.75,-149.47"/>
<polygon fill="#63b8ff" stroke="#63b8ff" points="182.55,-152.97 192.92,-150.82 183.46,-146.03 182.55,-152.97"/>
</a>
</g>
</g>
<!-- Node7 -->
<g id="Node000007" class="node">
<title>Node7</title>
<g id="a_Node000007"><a xlink:href="classFlashStorage.html#ad024a499e7eb8774a26f46369f50ad05" target="_top" xlink:title=" ">
<polygon fill="white" stroke="#666666" points="509,-112 371,-112 371,-93 509,-93 509,-112"/>
<text text-anchor="middle" x="440" y="-100" font-family="Helvetica,sans-Serif" font-size="10.00">FlashStorage::reinitFlash</text>
</a>
</g>
</g>
<!-- Node2&#45;&gt;Node7 -->
<g id="edge6_Node000002_Node000007" class="edge">
<title>Node2&#45;&gt;Node7</title>
<g id="a_edge6_Node000002_Node000007"><a xlink:title=" ">
<path fill="none" stroke="#63b8ff" d="M148.15,-136.61C197.78,-130.79 292.8,-119.65 360.74,-111.68"/>
<polygon fill="#63b8ff" stroke="#63b8ff" points="361.45,-115.12 370.98,-110.48 360.64,-108.17 361.45,-115.12"/>
</a>
</g>
</g>
<!-- Node12 -->
<g id="Node000012" class="node">
<title>Node12</title>
<g id="a_Node000012"><a xlink:href="classFlashStorage.html#ad8daa31feba03cb7d02efb3124962f20" target="_top" xlink:title="Deletes a file by erasing the sectors it occupies.">
<polygon fill="white" stroke="#666666" points="330,-93 189,-93 189,-74 330,-74 330,-93"/>
<text text-anchor="middle" x="259.5" y="-81" font-family="Helvetica,sans-Serif" font-size="10.00">FlashStorage::removeFile</text>
</a>
</g>
</g>
<!-- Node2&#45;&gt;Node12 -->
<g id="edge11_Node000002_Node000012" class="edge">
<title>Node2&#45;&gt;Node12</title>
<g id="a_edge11_Node000002_Node000012"><a xlink:title=" ">
<path fill="none" stroke="#63b8ff" d="M133.15,-130.99C146.9,-124 166.36,-114.52 184,-107.5 194.14,-103.46 205.25,-99.6 215.73,-96.19"/>
<polygon fill="#63b8ff" stroke="#63b8ff" points="217.06,-99.44 225.52,-93.08 214.93,-92.77 217.06,-99.44"/>
</a>
</g>
</g>
<!-- Node13 -->
<g id="Node000013" class="node">
<title>Node13</title>
<g id="a_Node000013"><a xlink:href="CommandMessage_8cpp.html#ad408818d8c69721c19d63006e8ef4d22" target="_top" xlink:title=" ">
<polygon fill="white" stroke="#666666" points="298,-56 221,-56 221,-37 298,-37 298,-56"/>
<text text-anchor="middle" x="259.5" y="-44" font-family="Helvetica,sans-Serif" font-size="10.00">setCmdData</text>
</a>
</g>
</g>
<!-- Node2&#45;&gt;Node13 -->
<g id="edge13_Node000002_Node000013" class="edge">
<title>Node2&#45;&gt;Node13</title>
<g id="a_edge13_Node000002_Node000013"><a xlink:title=" ">
<path fill="none" stroke="#63b8ff" d="M121.15,-130.79C131.87,-114.66 155.59,-82.46 184,-65.5 192.25,-60.57 201.75,-56.91 211.15,-54.2"/>
<polygon fill="#63b8ff" stroke="#63b8ff" points="212.04,-57.59 220.85,-51.7 210.29,-50.81 212.04,-57.59"/>
</a>
</g>
</g>
<!-- Node14 -->
<g id="Node000014" class="node">
<title>Node14</title>
<g id="a_Node000014"><a xlink:href="main1_8cpp.html#a5ea9df4efc2cfe37ef8d6fcfb3157a43" target="_top" xlink:title="Sends data to each storage device.">
<polygon fill="white" stroke="#666666" points="307.5,-19 211.5,-19 211.5,0 307.5,0 307.5,-19"/>
<text text-anchor="middle" x="259.5" y="-7" font-family="Helvetica,sans-Serif" font-size="10.00">storeDataPacket</text>
</a>
</g>
</g>
<!-- Node2&#45;&gt;Node14 -->
<g id="edge14_Node000002_Node000014" class="edge">
<title>Node2&#45;&gt;Node14</title>
<g id="a_edge14_Node000002_Node000014"><a xlink:title=" ">
<path fill="none" stroke="#63b8ff" d="M118.02,-130.86C125.42,-108.85 146.66,-54.71 184,-27.5 189.22,-23.69 195.14,-20.68 201.31,-18.31"/>
<polygon fill="#63b8ff" stroke="#63b8ff" points="202.74,-21.52 211.14,-15.06 200.55,-14.87 202.74,-21.52"/>
</a>
</g>
</g>
<!-- Node8 -->
<g id="Node000008" class="node">
<title>Node8</title>
<g id="a_Node000008"><a xlink:href="classFlashStorage.html#a959ed7240cf70430f05686720e1ead5a" target="_top" xlink:title="Locates the next available file block &amp; tracks existing files.">
<polygon fill="white" stroke="#666666" points="685,-112 545,-112 545,-93 685,-93 685,-112"/>
<text text-anchor="middle" x="615" y="-100" font-family="Helvetica,sans-Serif" font-size="10.00">FlashStorage::indexFlash</text>
</a>
</g>
</g>
<!-- Node7&#45;&gt;Node8 -->
<g id="edge7_Node000007_Node000008" class="edge">
<title>Node7&#45;&gt;Node8</title>
<g id="a_edge7_Node000007_Node000008"><a xlink:title=" ">
<path fill="none" stroke="#63b8ff" d="M509.37,-102.5C517.7,-102.5 526.26,-102.5 534.73,-102.5"/>
<polygon fill="#63b8ff" stroke="#63b8ff" points="534.99,-106 544.99,-102.5 534.99,-99 534.99,-106"/>
</a>
</g>
</g>
<!-- Node9 -->
<g id="Node000009" class="node">
<title>Node9</title>
<g id="a_Node000009"><a xlink:href="classFlashStorage.html#a97b10db97f42549e197feeff3f3f9abb" target="_top" xlink:title="Determines if the current sector is empty.">
<polygon fill="white" stroke="#666666" points="881.5,-149 724.5,-149 724.5,-130 881.5,-130 881.5,-149"/>
<text text-anchor="middle" x="803" y="-137" font-family="Helvetica,sans-Serif" font-size="10.00">FlashStorage::isSectorEmpty</text>
</a>
</g>
</g>
<!-- Node8&#45;&gt;Node9 -->
<g id="edge8_Node000008_Node000009" class="edge">
<title>Node8&#45;&gt;Node9</title>
<g id="a_edge8_Node000008_Node000009"><a xlink:title=" ">
<path fill="none" stroke="#63b8ff" d="M663.9,-112.03C688.32,-116.89 718.22,-122.83 743.94,-127.95"/>
<polygon fill="#63b8ff" stroke="#63b8ff" points="743.45,-131.42 753.94,-129.94 744.81,-124.56 743.45,-131.42"/>
</a>
</g>
</g>
<!-- Node10 -->
<g id="Node000010" class="node">
<title>Node10</title>
<g id="a_Node000010"><a xlink:href="classFlashStorage.html#aa64883a0b4aa2c9124d0be9b4722d729" target="_top" xlink:title="Determines if the first 4 bytes of a sector are a file header.">
<polygon fill="white" stroke="#666666" points="883.5,-112 722.5,-112 722.5,-93 883.5,-93 883.5,-112"/>
<text text-anchor="middle" x="803" y="-100" font-family="Helvetica,sans-Serif" font-size="10.00">FlashStorage::readFileHeader</text>
</a>
</g>
</g>
<!-- Node8&#45;&gt;Node10 -->
<g id="edge9_Node000008_Node000010" class="edge">
<title>Node8&#45;&gt;Node10</title>
<g id="a_edge9_Node000008_Node000010"><a xlink:title=" ">
<path fill="none" stroke="#63b8ff" d="M685.26,-102.5C694.04,-102.5 703.12,-102.5 712.17,-102.5"/>
<polygon fill="#63b8ff" stroke="#63b8ff" points="712.34,-106 722.34,-102.5 712.34,-99 712.34,-106"/>
</a>
</g>
</g>
<!-- Node11 -->
<g id="Node000011" class="node">
<title>Node11</title>
<g id="a_Node000011"><a xlink:href="classFlashStorage.html#a3f4de49bad97284528ebd5279abf3985" target="_top" xlink:title="Writes the file header to the start of a new sector.">
<polygon fill="white" stroke="#666666" points="885,-75 721,-75 721,-56 885,-56 885,-75"/>
<text text-anchor="middle" x="803" y="-63" font-family="Helvetica,sans-Serif" font-size="10.00">FlashStorage::writeFileHeader</text>
</a>
</g>
</g>
<!-- Node8&#45;&gt;Node11 -->
<g id="edge10_Node000008_Node000011" class="edge">
<title>Node8&#45;&gt;Node11</title>
<g id="a_edge10_Node000008_Node000011"><a xlink:title=" ">
<path fill="none" stroke="#63b8ff" d="M663.9,-92.97C688.32,-88.11 718.22,-82.17 743.94,-77.05"/>
<polygon fill="#63b8ff" stroke="#63b8ff" points="744.81,-80.44 753.94,-75.06 743.45,-73.58 744.81,-80.44"/>
</a>
</g>
</g>
<!-- Node12&#45;&gt;Node7 -->
<g id="edge12_Node000012_Node000007" class="edge">
<title>Node12&#45;&gt;Node7</title>
<g id="a_edge12_Node000012_Node000007"><a xlink:title=" ">
<path fill="none" stroke="#63b8ff" d="M330.02,-90.9C340.08,-91.97 350.49,-93.08 360.71,-94.17"/>
<polygon fill="#63b8ff" stroke="#63b8ff" points="360.52,-97.67 370.84,-95.24 361.27,-90.71 360.52,-97.67"/>
</a>
</g>
</g>
<!-- Node15 -->
<g id="Node000015" class="node">
<title>Node15</title>
<g id="a_Node000015"><a xlink:href="classStorage.html#a6ee18f7841fdd0f70091764a59110db2" target="_top" xlink:title="Send packet data to storage device.">
<polygon fill="white" stroke="#666666" points="498,-19 382,-19 382,0 498,0 498,-19"/>
<text text-anchor="middle" x="440" y="-7" font-family="Helvetica,sans-Serif" font-size="10.00">Storage::storePacket</text>
</a>
</g>
</g>
<!-- Node14&#45;&gt;Node15 -->
<g id="edge15_Node000014_Node000015" class="edge">
<title>Node14&#45;&gt;Node15</title>
<g id="a_edge15_Node000014_Node000015"><a xlink:title=" ">
<path fill="none" stroke="#63b8ff" d="M307.87,-9.5C327.39,-9.5 350.38,-9.5 371.61,-9.5"/>
<polygon fill="#63b8ff" stroke="#63b8ff" points="371.87,-13 381.87,-9.5 371.87,-6 371.87,-13"/>
</a>
</g>
</g>
</g>
</svg>

<g id="navigator" transform="translate(0 0)" fill="#404254">
  <rect fill="#f2f5e9" fill-opacity="0.5" stroke="#606060" stroke-width=".5" x="0" y="0" width="60" height="60"/>
  <use id="zoomplus" xlink:href="#zoomPlus" x="17" y="9" onmousedown="handleZoom(evt,'in')"/>
  <use id="zoomminus" xlink:href="#zoomMin" x="42" y="9" onmousedown="handleZoom(evt,'out')"/>
  <use id="reset" xlink:href="#resetDef" x="30" y="36" onmousedown="handleReset()"/>
   <use id="arrowup" xlink:href="#arrowUp" x="0" y="0" onmousedown="handlePan(0,-1)"/>
  <use id="arrowright" xlink:href="#arrowRight" x="0" y="0" onmousedown="handlePan(1,0)"/>
  <use id="arrowdown" xlink:href="#arrowDown" x="0" y="0" onmousedown="handlePan(0,1)"/>
  <use id="arrowleft" xlink:href="#arrowLeft" x="0" y="0" onmousedown="handlePan(-1,0)"/>
</g>
<svg viewBox="0 0 15 15" width="100%" height="30px" preserveAspectRatio="xMaxYMin meet">
 <g id="arrow_out" transform="scale(0.3 0.3)">
  <a xlink:href="main_8cpp_a39ceba300a80e348e278539f57e0ca79_cgraph_org.svg" target="_base">
   <rect id="button" ry="5" rx="5" y="6" x="6" height="38" width="38"
        fill="#f2f5e9" fill-opacity="0.5" stroke="#606060" stroke-width="1.0"/>
   <path id="arrow"
     d="M 11.500037,31.436501 C 11.940474,20.09759 22.043105,11.32322 32.158766,21.979434 L 37.068811,17.246167 C 37.068811,17.246167 37.088388,32 37.088388,32 L 22.160133,31.978069 C 22.160133,31.978069 26.997745,27.140456 26.997745,27.140456 C 18.528582,18.264221 13.291696,25.230495 11.500037,31.436501 z"
     style="fill:#404040;"/>
  </a>
 </g>
</svg>

<style type='text/css'>
<![CDATA[
[data-mouse-over-selected='false'] { opacity: 0.7; }
[data-mouse-over-selected='true']  { opacity: 1.0; }
]]>
</style>
<script type="application/ecmascript"><![CDATA[
document.addEventListener('DOMContentLoaded', (event) => {
  highlightEdges();
  highlightAdjacentNodes();
});
]]></script>
</svg>
