<?xml version="1.0" encoding="UTF-8" standalone="no"?>
<!DOCTYPE svg PUBLIC "-//W3C//DTD SVG 1.1//EN"
 "http://www.w3.org/Graphics/SVG/1.1/DTD/svg11.dtd">
<!-- Generated by graphviz version 12.1.2 (20240928.0832)
 -->
<!-- Title: main1.cpp Pages: 1 -->
<svg width="882pt" height="308pt"
 viewBox="0.00 0.00 881.50 308.00" xmlns="http://www.w3.org/2000/svg" xmlns:xlink="http://www.w3.org/1999/xlink">
<g id="graph0" class="graph" transform="scale(1 1) rotate(0) translate(4 304)">
<title>main1.cpp</title>
<!-- Node1 -->
<g id="Node000001" class="node">
<title>Node1</title>
<g id="a_Node000001"><a xlink:title="Main functions for Core 1, responsible for sending data to storage peripherals.">
<polygon fill="#999999" stroke="#666666" points="286.5,-300 225.5,-300 225.5,-280 286.5,-280 286.5,-300"/>
<text text-anchor="middle" x="256" y="-286.5" font-family="Helvetica,sans-Serif" font-size="10.00">main1.cpp</text>
</a>
</g>
</g>
<!-- Node2 -->
<g id="Node000002" class="node">
<title>Node2</title>
<g id="a_Node000002"><a xlink:title=" ">
<polygon fill="#e0e0e0" stroke="#999999" points="186.62,-20 129.38,-20 129.38,0 186.62,0 186.62,-20"/>
<text text-anchor="middle" x="158" y="-6.5" font-family="Helvetica,sans-Serif" font-size="10.00">Arduino.h</text>
</a>
</g>
</g>
<!-- Node1&#45;&gt;Node2 -->
<g id="edge1_Node000001_Node000002" class="edge">
<title>Node1&#45;&gt;Node2</title>
<g id="a_edge1_Node000001_Node000002"><a xlink:title=" ">
<path fill="none" stroke="#63b8ff" d="M225.12,-289.41C157.03,-288.53 0,-275.99 0,-179 0,-179 0,-179 0,-121 0,-63.57 71.18,-33.68 117.99,-20.23"/>
<polygon fill="#63b8ff" stroke="#63b8ff" points="118.83,-23.63 127.56,-17.63 116.99,-16.87 118.83,-23.63"/>
</a>
</g>
</g>
<!-- Node3 -->
<g id="Node000003" class="node">
<title>Node3</title>
<g id="a_Node000003"><a xlink:href="ErrorDisplay_8h.html" target="_top" xlink:title=" ">
<polygon fill="white" stroke="#666666" points="465.75,-188 388.25,-188 388.25,-168 465.75,-168 465.75,-188"/>
<text text-anchor="middle" x="427" y="-174.5" font-family="Helvetica,sans-Serif" font-size="10.00">ErrorDisplay.h</text>
</a>
</g>
</g>
<!-- Node1&#45;&gt;Node3 -->
<g id="edge2_Node000001_Node000003" class="edge">
<title>Node1&#45;&gt;Node3</title>
<g id="a_edge2_Node000001_Node000003"><a xlink:title=" ">
<path fill="none" stroke="#63b8ff" d="M274.12,-279.53C290.55,-270.78 315.29,-257.17 336,-244 360.47,-228.44 387.36,-208.92 405.52,-195.35"/>
<polygon fill="#63b8ff" stroke="#63b8ff" points="407.54,-198.2 413.43,-189.39 403.33,-192.61 407.54,-198.2"/>
</a>
</g>
</g>
<!-- Node4 -->
<g id="Node000004" class="node">
<title>Node4</title>
<g id="a_Node000004"><a xlink:href="PayloadConfig_8h.html" target="_top" xlink:title="Central location for pinout and config defines.">
<polygon fill="white" stroke="#666666" points="366,-132 278,-132 278,-112 366,-112 366,-132"/>
<text text-anchor="middle" x="322" y="-118.5" font-family="Helvetica,sans-Serif" font-size="10.00">PayloadConfig.h</text>
</a>
</g>
</g>
<!-- Node1&#45;&gt;Node4 -->
<g id="edge9_Node000001_Node000004" class="edge">
<title>Node1&#45;&gt;Node4</title>
<g id="a_edge9_Node000001_Node000004"><a xlink:title=" ">
<path fill="none" stroke="#63b8ff" d="M268.83,-279.81C279.23,-271.63 293.37,-258.71 301,-244 317.72,-211.77 321.49,-168.87 322.14,-143.76"/>
<polygon fill="#63b8ff" stroke="#63b8ff" points="325.64,-143.95 322.23,-133.92 318.64,-143.88 325.64,-143.95"/>
</a>
</g>
</g>
<!-- Node7 -->
<g id="Node000007" class="node">
<title>Node7</title>
<g id="a_Node000007"><a xlink:href="Logger_8h.html" target="_top" xlink:title=" ">
<polygon fill="white" stroke="#666666" points="157.75,-76 104.25,-76 104.25,-56 157.75,-56 157.75,-76"/>
<text text-anchor="middle" x="131" y="-62.5" font-family="Helvetica,sans-Serif" font-size="10.00">Logger.h</text>
</a>
</g>
</g>
<!-- Node1&#45;&gt;Node7 -->
<g id="edge7_Node000001_Node000007" class="edge">
<title>Node1&#45;&gt;Node7</title>
<g id="a_edge7_Node000001_Node000007"><a xlink:title=" ">
<path fill="none" stroke="#63b8ff" d="M225.22,-286.34C176.17,-281.4 83.78,-268.95 64,-244 24.47,-194.13 83.11,-118.4 114,-84.49"/>
<polygon fill="#63b8ff" stroke="#63b8ff" points="116.21,-87.25 120.49,-77.55 111.1,-82.46 116.21,-87.25"/>
</a>
</g>
</g>
<!-- Node8 -->
<g id="Node000008" class="node">
<title>Node8</title>
<g id="a_Node000008"><a xlink:href="Storage_8h.html" target="_top" xlink:title=" ">
<polygon fill="white" stroke="#666666" points="200,-188 142,-188 142,-168 200,-168 200,-188"/>
<text text-anchor="middle" x="171" y="-174.5" font-family="Helvetica,sans-Serif" font-size="10.00">Storage.h</text>
</a>
</g>
</g>
<!-- Node1&#45;&gt;Node8 -->
<g id="edge10_Node000001_Node000008" class="edge">
<title>Node1&#45;&gt;Node8</title>
<g id="a_edge10_Node000001_Node000008"><a xlink:title=" ">
<path fill="none" stroke="#63b8ff" d="M245.28,-279.62C235.69,-270.92 221.55,-257.35 211,-244 199.58,-229.54 188.76,-211.61 181.26,-198.25"/>
<polygon fill="#63b8ff" stroke="#63b8ff" points="184.4,-196.69 176.53,-189.6 178.26,-200.05 184.4,-196.69"/>
</a>
</g>
</g>
<!-- Node10 -->
<g id="Node000010" class="node">
<title>Node10</title>
<g id="a_Node000010"><a xlink:href="CommandMessage_8h.html" target="_top" xlink:title=" ">
<polygon fill="white" stroke="#666666" points="873.5,-188 764.5,-188 764.5,-168 873.5,-168 873.5,-188"/>
<text text-anchor="middle" x="819" y="-174.5" font-family="Helvetica,sans-Serif" font-size="10.00">CommandMessage.h</text>
</a>
</g>
</g>
<!-- Node1&#45;&gt;Node10 -->
<g id="edge16_Node000001_Node000010" class="edge">
<title>Node1&#45;&gt;Node10</title>
<g id="a_edge16_Node000001_Node000010"><a xlink:title=" ">
<path fill="none" stroke="#63b8ff" d="M286.85,-284.63C338.13,-277.22 444.05,-261.32 533,-244 616.47,-227.75 712.74,-205.04 769.59,-191.22"/>
<polygon fill="#63b8ff" stroke="#63b8ff" points="770.41,-194.62 779.3,-188.85 768.75,-187.82 770.41,-194.62"/>
</a>
</g>
</g>
<!-- Node11 -->
<g id="Node000011" class="node">
<title>Node11</title>
<g id="a_Node000011"><a xlink:href="FlashStorage_8h.html" target="_top" xlink:title=" ">
<polygon fill="white" stroke="#666666" points="524,-244 442,-244 442,-224 524,-224 524,-244"/>
<text text-anchor="middle" x="483" y="-230.5" font-family="Helvetica,sans-Serif" font-size="10.00">FlashStorage.h</text>
</a>
</g>
</g>
<!-- Node1&#45;&gt;Node11 -->
<g id="edge19_Node000001_Node000011" class="edge">
<title>Node1&#45;&gt;Node11</title>
<g id="a_edge19_Node000001_Node000011"><a xlink:title=" ">
<path fill="none" stroke="#63b8ff" d="M286.61,-281.72C323.99,-272.83 387.73,-257.66 432.43,-247.03"/>
<polygon fill="#63b8ff" stroke="#63b8ff" points="432.96,-250.5 441.88,-244.78 431.34,-243.69 432.96,-250.5"/>
</a>
</g>
</g>
<!-- Node15 -->
<g id="Node000015" class="node">
<title>Node15</title>
<g id="a_Node000015"><a xlink:href="RadioStorage_8h.html" target="_top" xlink:title=" ">
<polygon fill="white" stroke="#666666" points="156.75,-244 73.25,-244 73.25,-224 156.75,-224 156.75,-244"/>
<text text-anchor="middle" x="115" y="-230.5" font-family="Helvetica,sans-Serif" font-size="10.00">RadioStorage.h</text>
</a>
</g>
</g>
<!-- Node1&#45;&gt;Node15 -->
<g id="edge25_Node000001_Node000015" class="edge">
<title>Node1&#45;&gt;Node15</title>
<g id="a_edge25_Node000001_Node000015"><a xlink:title=" ">
<path fill="none" stroke="#63b8ff" d="M231.44,-279.59C209.03,-271.01 175.66,-258.23 150.38,-248.55"/>
<polygon fill="#63b8ff" stroke="#63b8ff" points="151.76,-245.33 141.17,-245.02 149.25,-251.87 151.76,-245.33"/>
</a>
</g>
</g>
<!-- Node16 -->
<g id="Node000016" class="node">
<title>Node16</title>
<g id="a_Node000016"><a xlink:href="SDStorage_8h.html" target="_top" xlink:title=" ">
<polygon fill="white" stroke="#666666" points="292.12,-244 219.88,-244 219.88,-224 292.12,-224 292.12,-244"/>
<text text-anchor="middle" x="256" y="-230.5" font-family="Helvetica,sans-Serif" font-size="10.00">SDStorage.h</text>
</a>
</g>
</g>
<!-- Node1&#45;&gt;Node16 -->
<g id="edge29_Node000001_Node000016" class="edge">
<title>Node1&#45;&gt;Node16</title>
<g id="a_edge29_Node000001_Node000016"><a xlink:title=" ">
<path fill="none" stroke="#63b8ff" d="M256,-279.59C256,-273.01 256,-263.96 256,-255.73"/>
<polygon fill="#63b8ff" stroke="#63b8ff" points="259.5,-255.81 256,-245.81 252.5,-255.81 259.5,-255.81"/>
</a>
</g>
</g>
<!-- Node3&#45;&gt;Node2 -->
<g id="edge3_Node000003_Node000002" class="edge">
<title>Node3&#45;&gt;Node2</title>
<g id="a_edge3_Node000003_Node000002"><a xlink:title=" ">
<path fill="none" stroke="#63b8ff" d="M421.66,-167.92C413.24,-154.25 395.68,-128.25 375,-112 320.06,-68.84 243.68,-38.81 197.72,-23.27"/>
<polygon fill="#63b8ff" stroke="#63b8ff" points="199.03,-20.02 188.44,-20.2 196.84,-26.67 199.03,-20.02"/>
</a>
</g>
</g>
<!-- Node3&#45;&gt;Node4 -->
<g id="edge4_Node000003_Node000004" class="edge">
<title>Node3&#45;&gt;Node4</title>
<g id="a_edge4_Node000003_Node000004"><a xlink:title=" ">
<path fill="none" stroke="#63b8ff" d="M408.71,-167.59C392.7,-159.36 369.17,-147.26 350.66,-137.74"/>
<polygon fill="#63b8ff" stroke="#63b8ff" points="352.27,-134.63 341.78,-133.17 349.07,-140.86 352.27,-134.63"/>
</a>
</g>
</g>
<!-- Node5 -->
<g id="Node000005" class="node">
<title>Node5</title>
<g id="a_Node000005"><a xlink:title=" ">
<polygon fill="#e0e0e0" stroke="#999999" points="798.5,-132 713.5,-132 713.5,-112 798.5,-112 798.5,-132"/>
<text text-anchor="middle" x="756" y="-118.5" font-family="Helvetica,sans-Serif" font-size="10.00">pico/multicore.h</text>
</a>
</g>
</g>
<!-- Node3&#45;&gt;Node5 -->
<g id="edge5_Node000003_Node000005" class="edge">
<title>Node3&#45;&gt;Node5</title>
<g id="a_edge5_Node000003_Node000005"><a xlink:title=" ">
<path fill="none" stroke="#63b8ff" d="M466.02,-169.59C469.05,-169.05 472.08,-168.51 475,-168 553.78,-154.31 645.27,-139.94 701.9,-131.23"/>
<polygon fill="#63b8ff" stroke="#63b8ff" points="702.25,-134.72 711.6,-129.74 701.18,-127.8 702.25,-134.72"/>
</a>
</g>
</g>
<!-- Node6 -->
<g id="Node000006" class="node">
<title>Node6</title>
<g id="a_Node000006"><a xlink:title=" ">
<polygon fill="#e0e0e0" stroke="#999999" points="632.25,-132 563.75,-132 563.75,-112 632.25,-112 632.25,-132"/>
<text text-anchor="middle" x="598" y="-118.5" font-family="Helvetica,sans-Serif" font-size="10.00">pico/stdlib.h</text>
</a>
</g>
</g>
<!-- Node3&#45;&gt;Node6 -->
<g id="edge6_Node000003_Node000006" class="edge">
<title>Node3&#45;&gt;Node6</title>
<g id="a_edge6_Node000003_Node000006"><a xlink:title=" ">
<path fill="none" stroke="#63b8ff" d="M456.79,-167.59C484.57,-158.82 526.25,-145.66 557.14,-135.9"/>
<polygon fill="#63b8ff" stroke="#63b8ff" points="558.06,-139.28 566.54,-132.94 555.95,-132.61 558.06,-139.28"/>
</a>
</g>
</g>
<!-- Node7&#45;&gt;Node2 -->
<g id="edge8_Node000007_Node000002" class="edge">
<title>Node7&#45;&gt;Node2</title>
<g id="a_edge8_Node000007_Node000002"><a xlink:title=" ">
<path fill="none" stroke="#63b8ff" d="M135.7,-55.59C139.15,-48.7 143.95,-39.1 148.21,-30.57"/>
<polygon fill="#63b8ff" stroke="#63b8ff" points="151.33,-32.16 152.67,-21.65 145.07,-29.03 151.33,-32.16"/>
</a>
</g>
</g>
<!-- Node8&#45;&gt;Node2 -->
<g id="edge11_Node000008_Node000002" class="edge">
<title>Node8&#45;&gt;Node2</title>
<g id="a_edge11_Node000008_Node000002"><a xlink:title=" ">
<path fill="none" stroke="#63b8ff" d="M182.15,-167.59C191.06,-159.28 202.88,-146.28 208,-132 211,-123.63 209.92,-120.68 208,-112 201.24,-81.37 183.34,-49.5 170.9,-29.95"/>
<polygon fill="#63b8ff" stroke="#63b8ff" points="173.9,-28.14 165.49,-21.7 168.05,-31.99 173.9,-28.14"/>
</a>
</g>
</g>
<!-- Node8&#45;&gt;Node7 -->
<g id="edge15_Node000008_Node000007" class="edge">
<title>Node8&#45;&gt;Node7</title>
<g id="a_edge15_Node000008_Node000007"><a xlink:title=" ">
<path fill="none" stroke="#63b8ff" d="M160.71,-167.78C152.14,-159.39 140.47,-146.19 135,-132 129.51,-117.77 128.7,-100.49 129.15,-87.32"/>
<polygon fill="#63b8ff" stroke="#63b8ff" points="132.62,-87.91 129.77,-77.71 125.64,-87.46 132.62,-87.91"/>
</a>
</g>
</g>
<!-- Node9 -->
<g id="Node000009" class="node">
<title>Node9</title>
<g id="a_Node000009"><a xlink:href="Device_8h.html" target="_top" xlink:title=" ">
<polygon fill="white" stroke="#666666" points="198.5,-132 143.5,-132 143.5,-112 198.5,-112 198.5,-132"/>
<text text-anchor="middle" x="171" y="-118.5" font-family="Helvetica,sans-Serif" font-size="10.00">Device.h</text>
</a>
</g>
</g>
<!-- Node8&#45;&gt;Node9 -->
<g id="edge12_Node000008_Node000009" class="edge">
<title>Node8&#45;&gt;Node9</title>
<g id="a_edge12_Node000008_Node000009"><a xlink:title=" ">
<path fill="none" stroke="#63b8ff" d="M171,-167.59C171,-161.01 171,-151.96 171,-143.73"/>
<polygon fill="#63b8ff" stroke="#63b8ff" points="174.5,-143.81 171,-133.81 167.5,-143.81 174.5,-143.81"/>
</a>
</g>
</g>
<!-- Node9&#45;&gt;Node2 -->
<g id="edge13_Node000009_Node000002" class="edge">
<title>Node9&#45;&gt;Node2</title>
<g id="a_edge13_Node000009_Node000002"><a xlink:title=" ">
<path fill="none" stroke="#63b8ff" d="M170.82,-111.71C170.5,-99.06 169.57,-75.73 167,-56 165.95,-47.91 164.29,-39.08 162.69,-31.41"/>
<polygon fill="#63b8ff" stroke="#63b8ff" points="166.13,-30.74 160.56,-21.72 159.29,-32.24 166.13,-30.74"/>
</a>
</g>
</g>
<!-- Node9&#45;&gt;Node7 -->
<g id="edge14_Node000009_Node000007" class="edge">
<title>Node9&#45;&gt;Node7</title>
<g id="a_edge14_Node000009_Node000007"><a xlink:title=" ">
<path fill="none" stroke="#63b8ff" d="M164.03,-111.59C158.7,-104.39 151.17,-94.23 144.65,-85.43"/>
<polygon fill="#63b8ff" stroke="#63b8ff" points="147.55,-83.47 138.79,-77.51 141.93,-87.63 147.55,-83.47"/>
</a>
</g>
</g>
<!-- Node10&#45;&gt;Node5 -->
<g id="edge17_Node000010_Node000005" class="edge">
<title>Node10&#45;&gt;Node5</title>
<g id="a_edge17_Node000010_Node000005"><a xlink:title=" ">
<path fill="none" stroke="#63b8ff" d="M808.03,-167.59C799.08,-159.93 786.23,-148.91 775.54,-139.75"/>
<polygon fill="#63b8ff" stroke="#63b8ff" points="777.87,-137.13 768,-133.28 773.31,-142.45 777.87,-137.13"/>
</a>
</g>
</g>
<!-- Node10&#45;&gt;Node6 -->
<g id="edge18_Node000010_Node000006" class="edge">
<title>Node10&#45;&gt;Node6</title>
<g id="a_edge18_Node000010_Node000006"><a xlink:title=" ">
<path fill="none" stroke="#63b8ff" d="M780.25,-167.53C742.2,-158.23 684.15,-144.05 643.83,-134.2"/>
<polygon fill="#63b8ff" stroke="#63b8ff" points="644.71,-130.81 634.17,-131.84 643.05,-137.61 644.71,-130.81"/>
</a>
</g>
</g>
<!-- Node11&#45;&gt;Node4 -->
<g id="edge22_Node000011_Node000004" class="edge">
<title>Node11&#45;&gt;Node4</title>
<g id="a_edge22_Node000011_Node000004"><a xlink:title=" ">
<path fill="none" stroke="#63b8ff" d="M452,-223.64C430.28,-216.16 401.26,-204.22 379,-188 361.23,-175.06 345.14,-155.65 334.62,-141.41"/>
<polygon fill="#63b8ff" stroke="#63b8ff" points="337.53,-139.47 328.88,-133.35 331.83,-143.53 337.53,-139.47"/>
</a>
</g>
</g>
<!-- Node11&#45;&gt;Node8 -->
<g id="edge24_Node000011_Node000008" class="edge">
<title>Node11&#45;&gt;Node8</title>
<g id="a_edge24_Node000011_Node000008"><a xlink:title=" ">
<path fill="none" stroke="#63b8ff" d="M441.57,-225.83C381.58,-215.45 271.23,-196.35 211.67,-186.04"/>
<polygon fill="#63b8ff" stroke="#63b8ff" points="212.41,-182.62 201.96,-184.36 211.22,-189.51 212.41,-182.62"/>
</a>
</g>
</g>
<!-- Node12 -->
<g id="Node000012" class="node">
<title>Node12</title>
<g id="a_Node000012"><a xlink:title=" ">
<polygon fill="#e0e0e0" stroke="#999999" points="524.38,-188 483.62,-188 483.62,-168 524.38,-168 524.38,-188"/>
<text text-anchor="middle" x="504" y="-174.5" font-family="Helvetica,sans-Serif" font-size="10.00">SPI.h</text>
</a>
</g>
</g>
<!-- Node11&#45;&gt;Node12 -->
<g id="edge20_Node000011_Node000012" class="edge">
<title>Node11&#45;&gt;Node12</title>
<g id="a_edge20_Node000011_Node000012"><a xlink:title=" ">
<path fill="none" stroke="#63b8ff" d="M486.66,-223.59C489.31,-216.78 492.99,-207.32 496.28,-198.86"/>
<polygon fill="#63b8ff" stroke="#63b8ff" points="499.47,-200.3 499.84,-189.71 492.95,-197.76 499.47,-200.3"/>
</a>
</g>
</g>
<!-- Node13 -->
<g id="Node000013" class="node">
<title>Node13</title>
<g id="a_Node000013"><a xlink:title=" ">
<polygon fill="#e0e0e0" stroke="#999999" points="585.5,-188 542.5,-188 542.5,-168 585.5,-168 585.5,-188"/>
<text text-anchor="middle" x="564" y="-174.5" font-family="Helvetica,sans-Serif" font-size="10.00">vector</text>
</a>
</g>
</g>
<!-- Node11&#45;&gt;Node13 -->
<g id="edge21_Node000011_Node000013" class="edge">
<title>Node11&#45;&gt;Node13</title>
<g id="a_edge21_Node000011_Node000013"><a xlink:title=" ">
<path fill="none" stroke="#63b8ff" d="M497.11,-223.59C509,-215.67 526.27,-204.16 540.28,-194.82"/>
<polygon fill="#63b8ff" stroke="#63b8ff" points="542.14,-197.78 548.52,-189.32 538.26,-191.95 542.14,-197.78"/>
</a>
</g>
</g>
<!-- Node14 -->
<g id="Node000014" class="node">
<title>Node14</title>
<g id="a_Node000014"><a xlink:title=" ">
<polygon fill="#e0e0e0" stroke="#999999" points="746,-188 604,-188 604,-168 746,-168 746,-188"/>
<text text-anchor="middle" x="675" y="-174.5" font-family="Helvetica,sans-Serif" font-size="10.00">SparkFun_SPI_SerialFlash.h</text>
</a>
</g>
</g>
<!-- Node11&#45;&gt;Node14 -->
<g id="edge23_Node000011_Node000014" class="edge">
<title>Node11&#45;&gt;Node14</title>
<g id="a_edge23_Node000011_Node000014"><a xlink:title=" ">
<path fill="none" stroke="#63b8ff" d="M516.44,-223.59C548.05,-214.71 595.68,-201.31 630.48,-191.52"/>
<polygon fill="#63b8ff" stroke="#63b8ff" points="631.16,-194.97 639.84,-188.89 629.26,-188.23 631.16,-194.97"/>
</a>
</g>
</g>
<!-- Node15&#45;&gt;Node2 -->
<g id="edge26_Node000015_Node000002" class="edge">
<title>Node15&#45;&gt;Node2</title>
<g id="a_edge26_Node000015_Node000002"><a xlink:title=" ">
<path fill="none" stroke="#63b8ff" d="M110.42,-223.5C97.78,-195.86 65.28,-113.74 95,-56 101.63,-43.11 113.85,-33.1 125.78,-25.83"/>
<polygon fill="#63b8ff" stroke="#63b8ff" points="127.24,-29.02 134.27,-21.09 123.83,-22.9 127.24,-29.02"/>
</a>
</g>
</g>
<!-- Node15&#45;&gt;Node4 -->
<g id="edge27_Node000015_Node000004" class="edge">
<title>Node15&#45;&gt;Node4</title>
<g id="a_edge27_Node000015_Node000004"><a xlink:title=" ">
<path fill="none" stroke="#63b8ff" d="M114.8,-223.55C115.03,-209.4 117.66,-182.79 133,-168 151.88,-149.79 217.58,-137.1 266.24,-129.94"/>
<polygon fill="#63b8ff" stroke="#63b8ff" points="266.68,-133.41 276.09,-128.54 265.69,-126.48 266.68,-133.41"/>
</a>
</g>
</g>
<!-- Node15&#45;&gt;Node8 -->
<g id="edge28_Node000015_Node000008" class="edge">
<title>Node15&#45;&gt;Node8</title>
<g id="a_edge28_Node000015_Node000008"><a xlink:title=" ">
<path fill="none" stroke="#63b8ff" d="M124.75,-223.59C132.62,-216.01 143.9,-205.13 153.35,-196.02"/>
<polygon fill="#63b8ff" stroke="#63b8ff" points="155.5,-198.81 160.27,-189.35 150.64,-193.77 155.5,-198.81"/>
</a>
</g>
</g>
<!-- Node16&#45;&gt;Node3 -->
<g id="edge30_Node000016_Node000003" class="edge">
<title>Node16&#45;&gt;Node3</title>
<g id="a_edge30_Node000016_Node000003"><a xlink:title=" ">
<path fill="none" stroke="#63b8ff" d="M285.79,-223.59C313.57,-214.82 355.25,-201.66 386.14,-191.9"/>
<polygon fill="#63b8ff" stroke="#63b8ff" points="387.06,-195.28 395.54,-188.94 384.95,-188.61 387.06,-195.28"/>
</a>
</g>
</g>
<!-- Node16&#45;&gt;Node4 -->
<g id="edge31_Node000016_Node000004" class="edge">
<title>Node16&#45;&gt;Node4</title>
<g id="a_edge31_Node000016_Node000004"><a xlink:title=" ">
<path fill="none" stroke="#63b8ff" d="M251.42,-223.93C245.45,-210.73 236.9,-185.84 247,-168 254.75,-154.31 268.51,-144.33 282.15,-137.3"/>
<polygon fill="#63b8ff" stroke="#63b8ff" points="283.5,-140.53 291.08,-133.13 280.53,-134.19 283.5,-140.53"/>
</a>
</g>
</g>
<!-- Node16&#45;&gt;Node8 -->
<g id="edge33_Node000016_Node000008" class="edge">
<title>Node16&#45;&gt;Node8</title>
<g id="a_edge33_Node000016_Node000008"><a xlink:title=" ">
<path fill="none" stroke="#63b8ff" d="M241.19,-223.59C228.6,-215.59 210.25,-203.93 195.47,-194.54"/>
<polygon fill="#63b8ff" stroke="#63b8ff" points="197.52,-191.7 187.2,-189.29 193.76,-197.61 197.52,-191.7"/>
</a>
</g>
</g>
<!-- Node17 -->
<g id="Node000017" class="node">
<title>Node17</title>
<g id="a_Node000017"><a xlink:title=" ">
<polygon fill="#e0e0e0" stroke="#999999" points="294.25,-188 255.75,-188 255.75,-168 294.25,-168 294.25,-188"/>
<text text-anchor="middle" x="275" y="-174.5" font-family="Helvetica,sans-Serif" font-size="10.00">SD.h</text>
</a>
</g>
</g>
<!-- Node16&#45;&gt;Node17 -->
<g id="edge32_Node000016_Node000017" class="edge">
<title>Node16&#45;&gt;Node17</title>
<g id="a_edge32_Node000016_Node000017"><a xlink:title=" ">
<path fill="none" stroke="#63b8ff" d="M259.31,-223.59C261.68,-216.86 264.96,-207.53 267.91,-199.15"/>
<polygon fill="#63b8ff" stroke="#63b8ff" points="271.21,-200.32 271.23,-189.73 264.61,-198 271.21,-200.32"/>
</a>
</g>
</g>
</g>
</svg>
