<?xml version="1.0" encoding="UTF-8" standalone="no"?>
<!DOCTYPE svg PUBLIC "-//W3C//DTD SVG 1.1//EN"
 "http://www.w3.org/Graphics/SVG/1.1/DTD/svg11.dtd">
<!-- Generated by graphviz version 2.43.0 (0)
 -->
<!-- Title: MTK3339Sensor.cpp Pages: 1 -->
<svg width="388pt" height="313pt"
 viewBox="0.00 0.00 388.48 313.00" xmlns="http://www.w3.org/2000/svg" xmlns:xlink="http://www.w3.org/1999/xlink">

<svg id="main" version="1.1" xmlns="http://www.w3.org/2000/svg" xmlns:xlink="http://www.w3.org/1999/xlink" xml:space="preserve" onload="init(evt)">
<style type="text/css"><![CDATA[
.node, .edge {opacity: 0.7;}
.node.selected, .edge.selected {opacity: 1;}
.edge:hover path { stroke: red; }
.edge:hover polygon { stroke: red; fill: red; }
]]></style>
<script type="application/ecmascript" xlink:href="svg.min.js"/>
<svg id="graph" class="graph">
<g id="graph0" class="graph" transform="scale(1 1) rotate(0) translate(4 309)">
<title>MTK3339Sensor.cpp</title>
<!-- Node1 -->
<g id="Node000001" class="node">
<title>Node1</title>
<g id="a_Node000001"><a xlink:title=" ">
<polygon fill="#999999" stroke="#666666" points="229.98,-305 114.98,-305 114.98,-286 229.98,-286 229.98,-305"/>
<text text-anchor="middle" x="172.48" y="-293" font-family="Helvetica,sans-Serif" font-size="10.00">MTK3339Sensor.cpp</text>
</a>
</g>
</g>
<!-- Node2 -->
<g id="Node000002" class="node">
<title>Node2</title>
<g id="a_Node000002"><a xlink:href="MTK3339Sensor_8h.html" target="_top" xlink:title=" ">
<polygon fill="white" stroke="#666666" points="224.48,-250 120.48,-250 120.48,-231 224.48,-231 224.48,-250"/>
<text text-anchor="middle" x="172.48" y="-238" font-family="Helvetica,sans-Serif" font-size="10.00">MTK3339Sensor.h</text>
</a>
</g>
</g>
<!-- Node1&#45;&gt;Node2 -->
<g id="edge1_Node000001_Node000002" class="edge">
<title>Node1&#45;&gt;Node2</title>
<g id="a_edge1_Node000001_Node000002"><a xlink:title=" ">
<path fill="none" stroke="#63b8ff" d="M172.48,-285.75C172.48,-278.8 172.48,-268.85 172.48,-260.13"/>
<polygon fill="#63b8ff" stroke="#63b8ff" points="175.98,-260.09 172.48,-250.09 168.98,-260.09 175.98,-260.09"/>
</a>
</g>
</g>
<!-- Node3 -->
<g id="Node000003" class="node">
<title>Node3</title>
<g id="a_Node000003"><a xlink:title=" ">
<polygon fill="#e0e0e0" stroke="#999999" points="306.98,-19 243.98,-19 243.98,0 306.98,0 306.98,-19"/>
<text text-anchor="middle" x="275.48" y="-7" font-family="Helvetica,sans-Serif" font-size="10.00">Arduino.h</text>
</a>
</g>
</g>
<!-- Node2&#45;&gt;Node3 -->
<g id="edge2_Node000002_Node000003" class="edge">
<title>Node2&#45;&gt;Node3</title>
<g id="a_edge2_Node000002_Node000003"><a xlink:title=" ">
<path fill="none" stroke="#63b8ff" d="M120.47,-235.85C61.91,-229.43 -21.75,-211.96 5.48,-165 55.02,-79.59 171.51,-37.37 234.05,-20.22"/>
<polygon fill="#63b8ff" stroke="#63b8ff" points="235.21,-23.53 243.98,-17.58 233.41,-16.77 235.21,-23.53"/>
</a>
</g>
</g>
<!-- Node4 -->
<g id="Node000004" class="node">
<title>Node4</title>
<g id="a_Node000004"><a xlink:title=" ">
<polygon fill="#e0e0e0" stroke="#999999" points="144.48,-195 14.48,-195 14.48,-165 144.48,-165 144.48,-195"/>
<text text-anchor="start" x="22.48" y="-183" font-family="Helvetica,sans-Serif" font-size="10.00">SparkFun_u&#45;blox_GNSS</text>
<text text-anchor="middle" x="79.48" y="-172" font-family="Helvetica,sans-Serif" font-size="10.00">_Arduino_Library.h</text>
</a>
</g>
</g>
<!-- Node2&#45;&gt;Node4 -->
<g id="edge3_Node000002_Node000004" class="edge">
<title>Node2&#45;&gt;Node4</title>
<g id="a_edge3_Node000002_Node000004"><a xlink:title=" ">
<path fill="none" stroke="#63b8ff" d="M158.76,-230.87C146.14,-222.93 126.97,-210.87 110.64,-200.6"/>
<polygon fill="#63b8ff" stroke="#63b8ff" points="112.25,-197.48 101.92,-195.11 108.52,-203.4 112.25,-197.48"/>
</a>
</g>
</g>
<!-- Node5 -->
<g id="Node000005" class="node">
<title>Node5</title>
<g id="a_Node000005"><a xlink:title=" ">
<polygon fill="#e0e0e0" stroke="#999999" points="212.48,-129 164.48,-129 164.48,-110 212.48,-110 212.48,-129"/>
<text text-anchor="middle" x="188.48" y="-117" font-family="Helvetica,sans-Serif" font-size="10.00">Wire.h</text>
</a>
</g>
</g>
<!-- Node2&#45;&gt;Node5 -->
<g id="edge4_Node000002_Node000005" class="edge">
<title>Node2&#45;&gt;Node5</title>
<g id="a_edge4_Node000002_Node000005"><a xlink:title=" ">
<path fill="none" stroke="#63b8ff" d="M173.64,-230.94C176.19,-211.91 182.41,-165.69 185.93,-139.47"/>
<polygon fill="#63b8ff" stroke="#63b8ff" points="189.44,-139.68 187.3,-129.3 182.5,-138.75 189.44,-139.68"/>
</a>
</g>
</g>
<!-- Node6 -->
<g id="Node000006" class="node">
<title>Node6</title>
<g id="a_Node000006"><a xlink:href="PayloadConfig_8h.html" target="_top" xlink:title="Central location for pinout and config defines.">
<polygon fill="white" stroke="#666666" points="295.98,-189.5 200.98,-189.5 200.98,-170.5 295.98,-170.5 295.98,-189.5"/>
<text text-anchor="middle" x="248.48" y="-177.5" font-family="Helvetica,sans-Serif" font-size="10.00">PayloadConfig.h</text>
</a>
</g>
</g>
<!-- Node2&#45;&gt;Node6 -->
<g id="edge5_Node000002_Node000006" class="edge">
<title>Node2&#45;&gt;Node6</title>
<g id="a_edge5_Node000002_Node000006"><a xlink:title=" ">
<path fill="none" stroke="#63b8ff" d="M183.7,-230.87C195.6,-221.71 214.63,-207.06 228.99,-196.01"/>
<polygon fill="#63b8ff" stroke="#63b8ff" points="231.44,-198.54 237.22,-189.67 227.17,-192.99 231.44,-198.54"/>
</a>
</g>
</g>
<!-- Node7 -->
<g id="Node000007" class="node">
<title>Node7</title>
<g id="a_Node000007"><a xlink:href="Sensor_8h.html" target="_top" xlink:title=" ">
<polygon fill="white" stroke="#666666" points="372.48,-189.5 314.48,-189.5 314.48,-170.5 372.48,-170.5 372.48,-189.5"/>
<text text-anchor="middle" x="343.48" y="-177.5" font-family="Helvetica,sans-Serif" font-size="10.00">Sensor.h</text>
</a>
</g>
</g>
<!-- Node2&#45;&gt;Node7 -->
<g id="edge7_Node000002_Node000007" class="edge">
<title>Node2&#45;&gt;Node7</title>
<g id="a_edge7_Node000002_Node000007"><a xlink:title=" ">
<path fill="none" stroke="#63b8ff" d="M199.06,-230.87C225.97,-222.07 268.73,-207.92 305.48,-195 307.33,-194.35 309.21,-193.68 311.12,-193"/>
<polygon fill="#63b8ff" stroke="#63b8ff" points="312.41,-196.25 320.62,-189.55 310.02,-189.67 312.41,-196.25"/>
</a>
</g>
</g>
<!-- Node6&#45;&gt;Node5 -->
<g id="edge6_Node000006_Node000005" class="edge">
<title>Node6&#45;&gt;Node5</title>
<g id="a_edge6_Node000006_Node000005"><a xlink:title=" ">
<path fill="none" stroke="#63b8ff" d="M239.63,-170.37C230.5,-161.47 216.06,-147.39 204.85,-136.45"/>
<polygon fill="#63b8ff" stroke="#63b8ff" points="206.98,-133.64 197.37,-129.17 202.09,-138.65 206.98,-133.64"/>
</a>
</g>
</g>
<!-- Node7&#45;&gt;Node3 -->
<g id="edge8_Node000007_Node000003" class="edge">
<title>Node7&#45;&gt;Node3</title>
<g id="a_edge8_Node000007_Node000003"><a xlink:title=" ">
<path fill="none" stroke="#63b8ff" d="M323.6,-170.37C307.64,-162.25 286.33,-148.42 276.48,-129 260.27,-97 265.68,-53.61 270.78,-29.2"/>
<polygon fill="#63b8ff" stroke="#63b8ff" points="274.26,-29.68 273.09,-19.15 267.44,-28.11 274.26,-29.68"/>
</a>
</g>
</g>
<!-- Node8 -->
<g id="Node000008" class="node">
<title>Node8</title>
<g id="a_Node000008"><a xlink:href="Device_8h.html" target="_top" xlink:title=" ">
<polygon fill="white" stroke="#666666" points="343.98,-129 284.98,-129 284.98,-110 343.98,-110 343.98,-129"/>
<text text-anchor="middle" x="314.48" y="-117" font-family="Helvetica,sans-Serif" font-size="10.00">Device.h</text>
</a>
</g>
</g>
<!-- Node7&#45;&gt;Node8 -->
<g id="edge9_Node000007_Node000008" class="edge">
<title>Node7&#45;&gt;Node8</title>
<g id="a_edge9_Node000007_Node000008"><a xlink:title=" ">
<path fill="none" stroke="#63b8ff" d="M339.21,-170.37C335.05,-161.99 328.62,-149.01 323.36,-138.39"/>
<polygon fill="#63b8ff" stroke="#63b8ff" points="326.36,-136.57 318.78,-129.17 320.09,-139.68 326.36,-136.57"/>
</a>
</g>
</g>
<!-- Node9 -->
<g id="Node000009" class="node">
<title>Node9</title>
<g id="a_Node000009"><a xlink:href="Logger_8h.html" target="_top" xlink:title=" ">
<polygon fill="white" stroke="#666666" points="380.48,-74 322.48,-74 322.48,-55 380.48,-55 380.48,-74"/>
<text text-anchor="middle" x="351.48" y="-62" font-family="Helvetica,sans-Serif" font-size="10.00">Logger.h</text>
</a>
</g>
</g>
<!-- Node7&#45;&gt;Node9 -->
<g id="edge13_Node000007_Node000009" class="edge">
<title>Node7&#45;&gt;Node9</title>
<g id="a_edge13_Node000007_Node000009"><a xlink:title=" ">
<path fill="none" stroke="#63b8ff" d="M345.79,-170.23C348.26,-160.31 352.04,-143.62 353.48,-129 354.32,-120.6 353.67,-118.44 353.48,-110 353.29,-101.49 352.9,-92.06 352.51,-84.09"/>
<polygon fill="#63b8ff" stroke="#63b8ff" points="356,-83.83 351.98,-74.03 349.01,-84.2 356,-83.83"/>
</a>
</g>
</g>
<!-- Node8&#45;&gt;Node3 -->
<g id="edge10_Node000008_Node000003" class="edge">
<title>Node8&#45;&gt;Node3</title>
<g id="a_edge10_Node000008_Node000003"><a xlink:title=" ">
<path fill="none" stroke="#63b8ff" d="M311.29,-109.66C304.92,-92.01 290.5,-52.09 282.03,-28.64"/>
<polygon fill="#63b8ff" stroke="#63b8ff" points="285.3,-27.38 278.61,-19.16 278.72,-29.75 285.3,-27.38"/>
</a>
</g>
</g>
<!-- Node8&#45;&gt;Node9 -->
<g id="edge11_Node000008_Node000009" class="edge">
<title>Node8&#45;&gt;Node9</title>
<g id="a_edge11_Node000008_Node000009"><a xlink:title=" ">
<path fill="none" stroke="#63b8ff" d="M320.59,-109.75C325.77,-102.34 333.33,-91.5 339.68,-82.41"/>
<polygon fill="#63b8ff" stroke="#63b8ff" points="342.63,-84.29 345.49,-74.09 336.89,-80.29 342.63,-84.29"/>
</a>
</g>
</g>
<!-- Node9&#45;&gt;Node3 -->
<g id="edge12_Node000009_Node000003" class="edge">
<title>Node9&#45;&gt;Node3</title>
<g id="a_edge12_Node000009_Node000003"><a xlink:title=" ">
<path fill="none" stroke="#63b8ff" d="M339.27,-54.98C327.71,-46.92 310.11,-34.65 296.32,-25.03"/>
<polygon fill="#63b8ff" stroke="#63b8ff" points="298.12,-22.02 287.92,-19.17 294.12,-27.76 298.12,-22.02"/>
</a>
</g>
</g>
</g>
</svg>
</svg>

<style type='text/css'>
<![CDATA[
[data-mouse-over-selected='false'] { opacity: 0.7; }
[data-mouse-over-selected='true']  { opacity: 1.0; }
]]>
</style>
<script type="application/ecmascript"><![CDATA[
document.addEventListener('DOMContentLoaded', (event) => {
  highlightEdges();
  highlightAdjacentNodes();
});
]]></script>
</svg>
