<?xml version="1.0" encoding="UTF-8" standalone="no"?>
<!DOCTYPE svg PUBLIC "-//W3C//DTD SVG 1.1//EN"
 "http://www.w3.org/Graphics/SVG/1.1/DTD/svg11.dtd">
<!-- Generated by graphviz version 12.1.2 (20240928.0832)
 -->
<!-- Title: MTK3339Sensor.h Pages: 1 -->
<svg width="396pt" height="264pt"
 viewBox="0.00 0.00 396.48 264.00" xmlns="http://www.w3.org/2000/svg" xmlns:xlink="http://www.w3.org/1999/xlink">

<svg id="main" version="1.1" xmlns="http://www.w3.org/2000/svg" xmlns:xlink="http://www.w3.org/1999/xlink" xml:space="preserve">

<style type="text/css"><![CDATA[
.node, .edge {opacity: 0.7;}
.node.selected, .edge.selected {opacity: 1;}
.edge:hover path { stroke: red; }
.edge:hover polygon { stroke: red; fill: red; }
]]></style>
<script type="application/ecmascript" xlink:href="svg.min.js"/>
<svg id="graph" class="graph">
<g id="graph0" class="graph" transform="scale(1 1) rotate(0) translate(4 260)">
<title>MTK3339Sensor.h</title>
<!-- Node1 -->
<g id="Node000001" class="node">
<title>Node1</title>
<g id="a_Node000001"><a xlink:title=" ">
<polygon fill="#999999" stroke="#666666" points="227.23,-256 130.23,-256 130.23,-236 227.23,-236 227.23,-256"/>
<text text-anchor="middle" x="178.73" y="-242.5" font-family="Helvetica,sans-Serif" font-size="10.00">MTK3339Sensor.h</text>
</a>
</g>
</g>
<!-- Node2 -->
<g id="Node000002" class="node">
<title>Node2</title>
<g id="a_Node000002"><a xlink:title=" ">
<polygon fill="#e0e0e0" stroke="#999999" points="316.35,-20 259.1,-20 259.1,0 316.35,0 316.35,-20"/>
<text text-anchor="middle" x="287.73" y="-6.5" font-family="Helvetica,sans-Serif" font-size="10.00">Arduino.h</text>
</a>
</g>
</g>
<!-- Node1&#45;&gt;Node2 -->
<g id="edge1_Node000001_Node000002" class="edge">
<title>Node1&#45;&gt;Node2</title>
<g id="a_edge1_Node000001_Node000002"><a xlink:title=" ">
<path fill="none" stroke="#63b8ff" d="M129.75,-241.73C68.91,-235.52 -23.55,-217.81 5.73,-168 58.5,-78.22 183.26,-36.05 247.69,-19.68"/>
<polygon fill="#63b8ff" stroke="#63b8ff" points="248.26,-23.15 257.14,-17.37 246.59,-16.35 248.26,-23.15"/>
</a>
</g>
</g>
<!-- Node3 -->
<g id="Node000003" class="node">
<title>Node3</title>
<g id="a_Node000003"><a xlink:title=" ">
<polygon fill="#e0e0e0" stroke="#999999" points="138.35,-200 15.1,-200 15.1,-168 138.35,-168 138.35,-200"/>
<text text-anchor="start" x="23.1" y="-186.5" font-family="Helvetica,sans-Serif" font-size="10.00">SparkFun_u&#45;blox_GNSS</text>
<text text-anchor="middle" x="76.73" y="-174.5" font-family="Helvetica,sans-Serif" font-size="10.00">_Arduino_Library.h</text>
</a>
</g>
</g>
<!-- Node1&#45;&gt;Node3 -->
<g id="edge2_Node000001_Node000003" class="edge">
<title>Node1&#45;&gt;Node3</title>
<g id="a_edge2_Node000001_Node000003"><a xlink:title=" ">
<path fill="none" stroke="#63b8ff" d="M162.79,-235.62C149.39,-227.75 129.74,-216.19 112.6,-206.1"/>
<polygon fill="#63b8ff" stroke="#63b8ff" points="114.56,-203.19 104.17,-201.14 111.01,-209.23 114.56,-203.19"/>
</a>
</g>
</g>
<!-- Node4 -->
<g id="Node000004" class="node">
<title>Node4</title>
<g id="a_Node000004"><a xlink:title=" ">
<polygon fill="#e0e0e0" stroke="#999999" points="200.98,-194 156.48,-194 156.48,-174 200.98,-174 200.98,-194"/>
<text text-anchor="middle" x="178.73" y="-180.5" font-family="Helvetica,sans-Serif" font-size="10.00">Wire.h</text>
</a>
</g>
</g>
<!-- Node1&#45;&gt;Node4 -->
<g id="edge3_Node000001_Node000004" class="edge">
<title>Node1&#45;&gt;Node4</title>
<g id="a_edge3_Node000001_Node000004"><a xlink:title=" ">
<path fill="none" stroke="#63b8ff" d="M178.73,-235.62C178.73,-227.56 178.73,-215.65 178.73,-205.41"/>
<polygon fill="#63b8ff" stroke="#63b8ff" points="182.23,-205.63 178.73,-195.63 175.23,-205.63 182.23,-205.63"/>
</a>
</g>
</g>
<!-- Node5 -->
<g id="Node000005" class="node">
<title>Node5</title>
<g id="a_Node000005"><a xlink:href="PayloadConfig_8h.html" target="_top" xlink:title="Central location for pinout and config defines.">
<polygon fill="white" stroke="#666666" points="306.73,-194 218.73,-194 218.73,-174 306.73,-174 306.73,-194"/>
<text text-anchor="middle" x="262.73" y="-180.5" font-family="Helvetica,sans-Serif" font-size="10.00">PayloadConfig.h</text>
</a>
</g>
</g>
<!-- Node1&#45;&gt;Node5 -->
<g id="edge4_Node000001_Node000005" class="edge">
<title>Node1&#45;&gt;Node5</title>
<g id="a_edge4_Node000001_Node000005"><a xlink:title=" ">
<path fill="none" stroke="#63b8ff" d="M191.85,-235.62C204.92,-226.29 225.22,-211.79 240.75,-200.7"/>
<polygon fill="#63b8ff" stroke="#63b8ff" points="242.36,-203.85 248.46,-195.19 238.29,-198.15 242.36,-203.85"/>
</a>
</g>
</g>
<!-- Node6 -->
<g id="Node000006" class="node">
<title>Node6</title>
<g id="a_Node000006"><a xlink:href="Sensor_8h.html" target="_top" xlink:title=" ">
<polygon fill="white" stroke="#666666" points="380.23,-194 325.23,-194 325.23,-174 380.23,-174 380.23,-194"/>
<text text-anchor="middle" x="352.73" y="-180.5" font-family="Helvetica,sans-Serif" font-size="10.00">Sensor.h</text>
</a>
</g>
</g>
<!-- Node1&#45;&gt;Node6 -->
<g id="edge5_Node000001_Node000006" class="edge">
<title>Node1&#45;&gt;Node6</title>
<g id="a_edge5_Node000001_Node000006"><a xlink:title=" ">
<path fill="none" stroke="#63b8ff" d="M209.4,-235.58C237.3,-226.86 279.53,-213.27 315.73,-200 317.05,-199.52 318.39,-199.02 319.74,-198.5"/>
<polygon fill="#63b8ff" stroke="#63b8ff" points="320.67,-201.9 328.71,-195 318.13,-195.38 320.67,-201.9"/>
</a>
</g>
</g>
<!-- Node6&#45;&gt;Node2 -->
<g id="edge6_Node000006_Node000002" class="edge">
<title>Node6&#45;&gt;Node2</title>
<g id="a_edge6_Node000006_Node000002"><a xlink:title=" ">
<path fill="none" stroke="#63b8ff" d="M333.08,-173.52C317.88,-165 297.93,-150.91 288.73,-132 272.99,-99.68 277.84,-56.52 282.79,-31.44"/>
<polygon fill="#63b8ff" stroke="#63b8ff" points="286.16,-32.41 284.89,-21.89 279.32,-30.91 286.16,-32.41"/>
</a>
</g>
</g>
<!-- Node7 -->
<g id="Node000007" class="node">
<title>Node7</title>
<g id="a_Node000007"><a xlink:href="Device_8h.html" target="_top" xlink:title=" ">
<polygon fill="white" stroke="#666666" points="352.23,-132 297.23,-132 297.23,-112 352.23,-112 352.23,-132"/>
<text text-anchor="middle" x="324.73" y="-118.5" font-family="Helvetica,sans-Serif" font-size="10.00">Device.h</text>
</a>
</g>
</g>
<!-- Node6&#45;&gt;Node7 -->
<g id="edge7_Node000006_Node000007" class="edge">
<title>Node6&#45;&gt;Node7</title>
<g id="a_edge7_Node000006_Node000007"><a xlink:title=" ">
<path fill="none" stroke="#63b8ff" d="M348.35,-173.62C344.47,-165.3 338.66,-152.86 333.78,-142.4"/>
<polygon fill="#63b8ff" stroke="#63b8ff" points="337.02,-141.07 329.62,-133.48 330.68,-144.03 337.02,-141.07"/>
</a>
</g>
</g>
<!-- Node8 -->
<g id="Node000008" class="node">
<title>Node8</title>
<g id="a_Node000008"><a xlink:href="Logger_8h.html" target="_top" xlink:title=" ">
<polygon fill="white" stroke="#666666" points="388.48,-76 334.98,-76 334.98,-56 388.48,-56 388.48,-76"/>
<text text-anchor="middle" x="361.73" y="-62.5" font-family="Helvetica,sans-Serif" font-size="10.00">Logger.h</text>
</a>
</g>
</g>
<!-- Node6&#45;&gt;Node8 -->
<g id="edge11_Node000006_Node000008" class="edge">
<title>Node6&#45;&gt;Node8</title>
<g id="a_edge11_Node000006_Node000008"><a xlink:title=" ">
<path fill="none" stroke="#63b8ff" d="M354.88,-173.67C357.11,-163.49 360.44,-146.69 361.73,-132 363.03,-117.16 362.99,-100.34 362.64,-87.53"/>
<polygon fill="#63b8ff" stroke="#63b8ff" points="366.15,-87.66 362.29,-77.79 359.15,-87.91 366.15,-87.66"/>
</a>
</g>
</g>
<!-- Node7&#45;&gt;Node2 -->
<g id="edge8_Node000007_Node000002" class="edge">
<title>Node7&#45;&gt;Node2</title>
<g id="a_edge8_Node000007_Node000002"><a xlink:title=" ">
<path fill="none" stroke="#63b8ff" d="M321.57,-111.62C315.59,-93.84 302.49,-54.88 294.45,-31"/>
<polygon fill="#63b8ff" stroke="#63b8ff" points="297.86,-30.15 291.36,-21.79 291.23,-32.38 297.86,-30.15"/>
</a>
</g>
</g>
<!-- Node7&#45;&gt;Node8 -->
<g id="edge9_Node000007_Node000008" class="edge">
<title>Node7&#45;&gt;Node8</title>
<g id="a_edge9_Node000007_Node000008"><a xlink:title=" ">
<path fill="none" stroke="#63b8ff" d="M331.17,-111.59C336.05,-104.47 342.92,-94.45 348.9,-85.72"/>
<polygon fill="#63b8ff" stroke="#63b8ff" points="351.74,-87.77 354.5,-77.55 345.96,-83.82 351.74,-87.77"/>
</a>
</g>
</g>
<!-- Node8&#45;&gt;Node2 -->
<g id="edge10_Node000008_Node000002" class="edge">
<title>Node8&#45;&gt;Node2</title>
<g id="a_edge10_Node000008_Node000002"><a xlink:title=" ">
<path fill="none" stroke="#63b8ff" d="M348.84,-55.59C338.01,-47.7 322.32,-36.24 309.54,-26.92"/>
<polygon fill="#63b8ff" stroke="#63b8ff" points="311.83,-24.26 301.69,-21.19 307.71,-29.91 311.83,-24.26"/>
</a>
</g>
</g>
</g>
</svg>
</svg>

<style type='text/css'>
<![CDATA[
[data-mouse-over-selected='false'] { opacity: 0.7; }
[data-mouse-over-selected='true']  { opacity: 1.0; }
]]>
</style>
<script type="application/ecmascript"><![CDATA[
document.addEventListener('DOMContentLoaded', (event) => {
  highlightEdges();
  highlightAdjacentNodes();
});
]]></script>
</svg>
