<?xml version="1.0" encoding="UTF-8" standalone="no"?>
<!DOCTYPE svg PUBLIC "-//W3C//DTD SVG 1.1//EN"
 "http://www.w3.org/Graphics/SVG/1.1/DTD/svg11.dtd">
<!-- Generated by graphviz version 12.1.2 (20240928.0832)
 -->
<!-- Title: OzoneSensor.h Pages: 1 -->
<svg width="361pt" height="252pt"
 viewBox="0.00 0.00 361.00 252.00" xmlns="http://www.w3.org/2000/svg" xmlns:xlink="http://www.w3.org/1999/xlink">

<svg id="main" version="1.1" xmlns="http://www.w3.org/2000/svg" xmlns:xlink="http://www.w3.org/1999/xlink" xml:space="preserve">

<style type="text/css"><![CDATA[
.node, .edge {opacity: 0.7;}
.node.selected, .edge.selected {opacity: 1;}
.edge:hover path { stroke: red; }
.edge:hover polygon { stroke: red; fill: red; }
]]></style>
<script type="application/ecmascript" xlink:href="svg.min.js"/>
<svg id="graph" class="graph">
<g id="graph0" class="graph" transform="scale(1 1) rotate(0) translate(4 248)">
<title>OzoneSensor.h</title>
<!-- Node1 -->
<g id="Node000001" class="node">
<title>Node1</title>
<g id="a_Node000001"><a xlink:title=" ">
<polygon fill="#999999" stroke="#666666" points="232,-244 148.5,-244 148.5,-224 232,-224 232,-244"/>
<text text-anchor="middle" x="190.25" y="-230.5" font-family="Helvetica,sans-Serif" font-size="10.00">OzoneSensor.h</text>
</a>
</g>
</g>
<!-- Node2 -->
<g id="Node000002" class="node">
<title>Node2</title>
<g id="a_Node000002"><a xlink:title=" ">
<polygon fill="#e0e0e0" stroke="#999999" points="128.5,-188 0,-188 0,-168 128.5,-168 128.5,-188"/>
<text text-anchor="middle" x="64.25" y="-174.5" font-family="Helvetica,sans-Serif" font-size="10.00">DFRobot_OzoneSensor.h</text>
</a>
</g>
</g>
<!-- Node1&#45;&gt;Node2 -->
<g id="edge1_Node000001_Node000002" class="edge">
<title>Node1&#45;&gt;Node2</title>
<g id="a_edge1_Node000001_Node000002"><a xlink:title=" ">
<path fill="none" stroke="#63b8ff" d="M168.3,-223.59C148.55,-215.13 119.26,-202.58 96.78,-192.94"/>
<polygon fill="#63b8ff" stroke="#63b8ff" points="98.33,-189.8 87.76,-189.08 95.57,-196.23 98.33,-189.8"/>
</a>
</g>
</g>
<!-- Node3 -->
<g id="Node000003" class="node">
<title>Node3</title>
<g id="a_Node000003"><a xlink:href="PayloadConfig_8h.html" target="_top" xlink:title="Central location for pinout and config defines.">
<polygon fill="white" stroke="#666666" points="234.25,-188 146.25,-188 146.25,-168 234.25,-168 234.25,-188"/>
<text text-anchor="middle" x="190.25" y="-174.5" font-family="Helvetica,sans-Serif" font-size="10.00">PayloadConfig.h</text>
</a>
</g>
</g>
<!-- Node1&#45;&gt;Node3 -->
<g id="edge2_Node000001_Node000003" class="edge">
<title>Node1&#45;&gt;Node3</title>
<g id="a_edge2_Node000001_Node000003"><a xlink:title=" ">
<path fill="none" stroke="#63b8ff" d="M190.25,-223.59C190.25,-217.01 190.25,-207.96 190.25,-199.73"/>
<polygon fill="#63b8ff" stroke="#63b8ff" points="193.75,-199.81 190.25,-189.81 186.75,-199.81 193.75,-199.81"/>
</a>
</g>
</g>
<!-- Node4 -->
<g id="Node000004" class="node">
<title>Node4</title>
<g id="a_Node000004"><a xlink:href="Sensor_8h.html" target="_top" xlink:title=" ">
<polygon fill="white" stroke="#666666" points="307.75,-188 252.75,-188 252.75,-168 307.75,-168 307.75,-188"/>
<text text-anchor="middle" x="280.25" y="-174.5" font-family="Helvetica,sans-Serif" font-size="10.00">Sensor.h</text>
</a>
</g>
</g>
<!-- Node1&#45;&gt;Node4 -->
<g id="edge3_Node000001_Node000004" class="edge">
<title>Node1&#45;&gt;Node4</title>
<g id="a_edge3_Node000001_Node000004"><a xlink:title=" ">
<path fill="none" stroke="#63b8ff" d="M205.93,-223.59C219.39,-215.51 239.07,-203.71 254.79,-194.27"/>
<polygon fill="#63b8ff" stroke="#63b8ff" points="256.38,-197.4 263.15,-189.26 252.78,-191.4 256.38,-197.4"/>
</a>
</g>
</g>
<!-- Node5 -->
<g id="Node000005" class="node">
<title>Node5</title>
<g id="a_Node000005"><a xlink:title=" ">
<polygon fill="#e0e0e0" stroke="#999999" points="299.88,-20 242.62,-20 242.62,0 299.88,0 299.88,-20"/>
<text text-anchor="middle" x="271.25" y="-6.5" font-family="Helvetica,sans-Serif" font-size="10.00">Arduino.h</text>
</a>
</g>
</g>
<!-- Node4&#45;&gt;Node5 -->
<g id="edge4_Node000004_Node000005" class="edge">
<title>Node4&#45;&gt;Node5</title>
<g id="a_edge4_Node000004_Node000005"><a xlink:title=" ">
<path fill="none" stroke="#63b8ff" d="M269.4,-167.53C260.72,-159.18 249.22,-146.16 244.25,-132 232.01,-97.11 248.36,-54.56 260.44,-30.34"/>
<polygon fill="#63b8ff" stroke="#63b8ff" points="263.45,-32.13 265.02,-21.65 257.25,-28.86 263.45,-32.13"/>
</a>
</g>
</g>
<!-- Node6 -->
<g id="Node000006" class="node">
<title>Node6</title>
<g id="a_Node000006"><a xlink:href="Device_8h.html" target="_top" xlink:title=" ">
<polygon fill="white" stroke="#666666" points="307.75,-132 252.75,-132 252.75,-112 307.75,-112 307.75,-132"/>
<text text-anchor="middle" x="280.25" y="-118.5" font-family="Helvetica,sans-Serif" font-size="10.00">Device.h</text>
</a>
</g>
</g>
<!-- Node4&#45;&gt;Node6 -->
<g id="edge5_Node000004_Node000006" class="edge">
<title>Node4&#45;&gt;Node6</title>
<g id="a_edge5_Node000004_Node000006"><a xlink:title=" ">
<path fill="none" stroke="#63b8ff" d="M280.25,-167.59C280.25,-161.01 280.25,-151.96 280.25,-143.73"/>
<polygon fill="#63b8ff" stroke="#63b8ff" points="283.75,-143.81 280.25,-133.81 276.75,-143.81 283.75,-143.81"/>
</a>
</g>
</g>
<!-- Node7 -->
<g id="Node000007" class="node">
<title>Node7</title>
<g id="a_Node000007"><a xlink:href="Logger_8h.html" target="_top" xlink:title=" ">
<polygon fill="white" stroke="#666666" points="353,-76 299.5,-76 299.5,-56 353,-56 353,-76"/>
<text text-anchor="middle" x="326.25" y="-62.5" font-family="Helvetica,sans-Serif" font-size="10.00">Logger.h</text>
</a>
</g>
</g>
<!-- Node4&#45;&gt;Node7 -->
<g id="edge9_Node000004_Node000007" class="edge">
<title>Node4&#45;&gt;Node7</title>
<g id="a_edge9_Node000004_Node000007"><a xlink:title=" ">
<path fill="none" stroke="#63b8ff" d="M290.55,-167.73C299.19,-159.31 311.08,-146.08 317.25,-132 323.42,-117.92 325.58,-100.64 326.25,-87.43"/>
<polygon fill="#63b8ff" stroke="#63b8ff" points="329.74,-87.85 326.48,-77.77 322.75,-87.68 329.74,-87.85"/>
</a>
</g>
</g>
<!-- Node6&#45;&gt;Node5 -->
<g id="edge6_Node000006_Node000005" class="edge">
<title>Node6&#45;&gt;Node5</title>
<g id="a_edge6_Node000006_Node000005"><a xlink:title=" ">
<path fill="none" stroke="#63b8ff" d="M279.48,-111.62C278.04,-94.01 274.9,-55.59 272.94,-31.65"/>
<polygon fill="#63b8ff" stroke="#63b8ff" points="276.44,-31.54 272.14,-21.86 269.47,-32.12 276.44,-31.54"/>
</a>
</g>
</g>
<!-- Node6&#45;&gt;Node7 -->
<g id="edge7_Node000006_Node000007" class="edge">
<title>Node6&#45;&gt;Node7</title>
<g id="a_edge7_Node000006_Node000007"><a xlink:title=" ">
<path fill="none" stroke="#63b8ff" d="M288.26,-111.59C294.53,-104.24 303.42,-93.8 311.03,-84.87"/>
<polygon fill="#63b8ff" stroke="#63b8ff" points="313.53,-87.33 317.35,-77.45 308.2,-82.79 313.53,-87.33"/>
</a>
</g>
</g>
<!-- Node7&#45;&gt;Node5 -->
<g id="edge8_Node000007_Node000005" class="edge">
<title>Node7&#45;&gt;Node5</title>
<g id="a_edge8_Node000007_Node000005"><a xlink:title=" ">
<path fill="none" stroke="#63b8ff" d="M316.67,-55.59C309.02,-48.08 298.09,-37.35 288.87,-28.3"/>
<polygon fill="#63b8ff" stroke="#63b8ff" points="291.39,-25.87 281.8,-21.36 286.48,-30.86 291.39,-25.87"/>
</a>
</g>
</g>
</g>
</svg>
</svg>

<style type='text/css'>
<![CDATA[
[data-mouse-over-selected='false'] { opacity: 0.7; }
[data-mouse-over-selected='true']  { opacity: 1.0; }
]]>
</style>
<script type="application/ecmascript"><![CDATA[
document.addEventListener('DOMContentLoaded', (event) => {
  highlightEdges();
  highlightAdjacentNodes();
});
]]></script>
</svg>
