<?xml version="1.0" encoding="UTF-8" standalone="no"?>
<!DOCTYPE svg PUBLIC "-//W3C//DTD SVG 1.1//EN"
 "http://www.w3.org/Graphics/SVG/1.1/DTD/svg11.dtd">
<!-- Generated by graphviz version 12.1.2 (20240928.0832)
 -->
<!-- Title: PayloadConfig.h Pages: 1 -->
<svg width="1734pt" height="196pt"
 viewBox="0.00 0.00 1734.25 196.00" xmlns="http://www.w3.org/2000/svg" xmlns:xlink="http://www.w3.org/1999/xlink">
<g id="graph0" class="graph" transform="scale(1 1) rotate(0) translate(4 192)">
<title>PayloadConfig.h</title>
<!-- Node1 -->
<g id="Node000001" class="node">
<title>Node1</title>
<g id="a_Node000001"><a xlink:title="Central location for pinout and config defines.">
<polygon fill="#999999" stroke="#666666" points="933,-188 845,-188 845,-168 933,-168 933,-188"/>
<text text-anchor="middle" x="889" y="-174.5" font-family="Helvetica,sans-Serif" font-size="10.00">PayloadConfig.h</text>
</a>
</g>
</g>
<!-- Node2 -->
<g id="Node000002" class="node">
<title>Node2</title>
<g id="a_Node000002"><a xlink:href="AS7331Sensor_8h.html" target="_top" xlink:title=" ">
<polygon fill="white" stroke="#666666" points="181.75,-132 92.25,-132 92.25,-112 181.75,-112 181.75,-132"/>
<text text-anchor="middle" x="137" y="-118.5" font-family="Helvetica,sans-Serif" font-size="10.00">AS7331Sensor.h</text>
</a>
</g>
</g>
<!-- Node1&#45;&gt;Node2 -->
<g id="edge1_Node000001_Node000002" class="edge">
<title>Node1&#45;&gt;Node2</title>
<g id="a_edge1_Node000001_Node000002"><a xlink:title=" ">
<path fill="none" stroke="#63b8ff" d="M833.5,-175.32C715.11,-171.33 429.16,-159.45 191,-132 188.07,-131.66 185.06,-131.27 182.03,-130.85"/>
<polygon fill="#63b8ff" stroke="#63b8ff" points="833.14,-178.81 843.25,-175.65 833.37,-171.82 833.14,-178.81"/>
</a>
</g>
</g>
<!-- Node4 -->
<g id="Node000004" class="node">
<title>Node4</title>
<g id="a_Node000004"><a xlink:href="main_8cpp.html" target="_top" xlink:title="Main functions for Core 0, responsible for reading data from sensor peripherals.">
<polygon fill="white" stroke="#666666" points="529.88,-76 474.12,-76 474.12,-56 529.88,-56 529.88,-76"/>
<text text-anchor="middle" x="502" y="-62.5" font-family="Helvetica,sans-Serif" font-size="10.00">main.cpp</text>
</a>
</g>
</g>
<!-- Node1&#45;&gt;Node4 -->
<g id="edge44_Node000001_Node000004" class="edge">
<title>Node1&#45;&gt;Node4</title>
<g id="a_edge44_Node000001_Node000004"><a xlink:title=" ">
<path fill="none" stroke="#63b8ff" d="M833.18,-174.5C750.57,-169.97 600.54,-158.33 554,-132 530.86,-118.91 514.12,-91.06 506.53,-76.43"/>
<polygon fill="#63b8ff" stroke="#63b8ff" points="832.93,-177.99 843.1,-175.03 833.3,-171 832.93,-177.99"/>
</a>
</g>
</g>
<!-- Node5 -->
<g id="Node000005" class="node">
<title>Node5</title>
<g id="a_Node000005"><a xlink:href="BME680Sensor_8h.html" target="_top" xlink:title=" ">
<polygon fill="white" stroke="#666666" points="1589.25,-132 1496.75,-132 1496.75,-112 1589.25,-112 1589.25,-132"/>
<text text-anchor="middle" x="1543" y="-118.5" font-family="Helvetica,sans-Serif" font-size="10.00">BME680Sensor.h</text>
</a>
</g>
</g>
<!-- Node1&#45;&gt;Node5 -->
<g id="edge4_Node000001_Node000005" class="edge">
<title>Node1&#45;&gt;Node5</title>
<g id="a_edge4_Node000001_Node000005"><a xlink:title=" ">
<path fill="none" stroke="#63b8ff" d="M944.44,-174C1049.24,-168.06 1283.55,-153.49 1480,-132 1485.27,-131.42 1490.78,-130.75 1496.25,-130.03"/>
<polygon fill="#63b8ff" stroke="#63b8ff" points="944.5,-170.49 934.72,-174.55 944.9,-177.48 944.5,-170.49"/>
</a>
</g>
</g>
<!-- Node7 -->
<g id="Node000007" class="node">
<title>Node7</title>
<g id="a_Node000007"><a xlink:href="ENS160Sensor_8h.html" target="_top" xlink:title=" ">
<polygon fill="white" stroke="#666666" points="397.88,-132 306.12,-132 306.12,-112 397.88,-112 397.88,-132"/>
<text text-anchor="middle" x="352" y="-118.5" font-family="Helvetica,sans-Serif" font-size="10.00">ENS160Sensor.h</text>
</a>
</g>
</g>
<!-- Node1&#45;&gt;Node7 -->
<g id="edge6_Node000001_Node000007" class="edge">
<title>Node1&#45;&gt;Node7</title>
<g id="a_edge6_Node000001_Node000007"><a xlink:title=" ">
<path fill="none" stroke="#63b8ff" d="M833.43,-173.07C743.58,-166.42 560.93,-151.76 407,-132 404.12,-131.63 401.16,-131.22 398.18,-130.79"/>
<polygon fill="#63b8ff" stroke="#63b8ff" points="832.96,-176.54 843.19,-173.78 833.47,-169.56 832.96,-176.54"/>
</a>
</g>
</g>
<!-- Node9 -->
<g id="Node000009" class="node">
<title>Node9</title>
<g id="a_Node000009"><a xlink:href="ErrorDisplay_8h.html" target="_top" xlink:title=" ">
<polygon fill="white" stroke="#666666" points="1118.75,-132 1041.25,-132 1041.25,-112 1118.75,-112 1118.75,-132"/>
<text text-anchor="middle" x="1080" y="-118.5" font-family="Helvetica,sans-Serif" font-size="10.00">ErrorDisplay.h</text>
</a>
</g>
</g>
<!-- Node1&#45;&gt;Node9 -->
<g id="edge9_Node000001_Node000009" class="edge">
<title>Node1&#45;&gt;Node9</title>
<g id="a_edge9_Node000001_Node000009"><a xlink:title=" ">
<path fill="none" stroke="#63b8ff" d="M933,-164.56C967.56,-154.79 1014.94,-141.39 1046.47,-132.48"/>
<polygon fill="#63b8ff" stroke="#63b8ff" points="932.4,-161.09 923.73,-167.18 934.3,-167.83 932.4,-161.09"/>
</a>
</g>
</g>
<!-- Node10 -->
<g id="Node000010" class="node">
<title>Node10</title>
<g id="a_Node000010"><a xlink:href="SDStorage_8h.html" target="_top" xlink:title=" ">
<polygon fill="white" stroke="#666666" points="1102.12,-76 1029.88,-76 1029.88,-56 1102.12,-56 1102.12,-76"/>
<text text-anchor="middle" x="1066" y="-62.5" font-family="Helvetica,sans-Serif" font-size="10.00">SDStorage.h</text>
</a>
</g>
</g>
<!-- Node1&#45;&gt;Node10 -->
<g id="edge35_Node000001_Node000010" class="edge">
<title>Node1&#45;&gt;Node10</title>
<g id="a_edge35_Node000001_Node000010"><a xlink:title=" ">
<path fill="none" stroke="#63b8ff" d="M928.69,-163.55C949.03,-155.79 973.71,-145 994,-132 1019.53,-115.65 1044.75,-90.16 1057.48,-76.46"/>
<polygon fill="#63b8ff" stroke="#63b8ff" points="927.48,-160.26 919.32,-167.02 929.91,-166.83 927.48,-160.26"/>
</a>
</g>
</g>
<!-- Node12 -->
<g id="Node000012" class="node">
<title>Node12</title>
<g id="a_Node000012"><a xlink:href="main1_8cpp.html" target="_top" xlink:title="Main functions for Core 1, responsible for sending data to storage peripherals.">
<polygon fill="white" stroke="#666666" points="1198.5,-20 1137.5,-20 1137.5,0 1198.5,0 1198.5,-20"/>
<text text-anchor="middle" x="1168" y="-6.5" font-family="Helvetica,sans-Serif" font-size="10.00">main1.cpp</text>
</a>
</g>
</g>
<!-- Node1&#45;&gt;Node12 -->
<g id="edge45_Node000001_Node000012" class="edge">
<title>Node1&#45;&gt;Node12</title>
<g id="a_edge45_Node000001_Node000012"><a xlink:title=" ">
<path fill="none" stroke="#63b8ff" d="M944.79,-175.37C1053.94,-171.59 1291.68,-160.3 1368,-132 1408.35,-117.03 1427.24,-114.23 1447,-76 1451.08,-68.1 1452.76,-62.77 1447,-56 1415.35,-18.83 1264.32,-12.26 1198.63,-11.17"/>
<polygon fill="#63b8ff" stroke="#63b8ff" points="944.78,-171.87 934.9,-175.7 945.01,-178.86 944.78,-171.87"/>
</a>
</g>
</g>
<!-- Node13 -->
<g id="Node000013" class="node">
<title>Node13</title>
<g id="a_Node000013"><a xlink:href="FlashStorage_8h.html" target="_top" xlink:title=" ">
<polygon fill="white" stroke="#666666" points="1359,-132 1277,-132 1277,-112 1359,-112 1359,-132"/>
<text text-anchor="middle" x="1318" y="-118.5" font-family="Helvetica,sans-Serif" font-size="10.00">FlashStorage.h</text>
</a>
</g>
</g>
<!-- Node1&#45;&gt;Node13 -->
<g id="edge15_Node000001_Node000013" class="edge">
<title>Node1&#45;&gt;Node13</title>
<g id="a_edge15_Node000001_Node000013"><a xlink:title=" ">
<path fill="none" stroke="#63b8ff" d="M944.56,-170.01C1031.89,-159.01 1199.31,-137.94 1276.79,-128.19"/>
<polygon fill="#63b8ff" stroke="#63b8ff" points="944.28,-166.51 934.8,-171.24 945.16,-173.46 944.28,-166.51"/>
</a>
</g>
</g>
<!-- Node15 -->
<g id="Node000015" class="node">
<title>Node15</title>
<g id="a_Node000015"><a xlink:href="ICM20948Sensor_8h.html" target="_top" xlink:title=" ">
<polygon fill="white" stroke="#666666" points="663,-132 563,-132 563,-112 663,-112 663,-132"/>
<text text-anchor="middle" x="613" y="-118.5" font-family="Helvetica,sans-Serif" font-size="10.00">ICM20948Sensor.h</text>
</a>
</g>
</g>
<!-- Node1&#45;&gt;Node15 -->
<g id="edge18_Node000001_Node000015" class="edge">
<title>Node1&#45;&gt;Node15</title>
<g id="a_edge18_Node000001_Node000015"><a xlink:title=" ">
<path fill="none" stroke="#63b8ff" d="M833.64,-166.17C783.23,-156.31 709.53,-141.89 661.41,-132.47"/>
<polygon fill="#63b8ff" stroke="#63b8ff" points="832.68,-169.55 843.17,-168.03 834.03,-162.68 832.68,-169.55"/>
</a>
</g>
</g>
<!-- Node17 -->
<g id="Node000017" class="node">
<title>Node17</title>
<g id="a_Node000017"><a xlink:href="LSM9DS1Sensor_8h.html" target="_top" xlink:title=" ">
<polygon fill="white" stroke="#666666" points="1714,-132 1614,-132 1614,-112 1714,-112 1714,-132"/>
<text text-anchor="middle" x="1664" y="-118.5" font-family="Helvetica,sans-Serif" font-size="10.00">LSM9DS1Sensor.h</text>
</a>
</g>
</g>
<!-- Node1&#45;&gt;Node17 -->
<g id="edge21_Node000001_Node000017" class="edge">
<title>Node1&#45;&gt;Node17</title>
<g id="a_edge21_Node000001_Node000017"><a xlink:title=" ">
<path fill="none" stroke="#63b8ff" d="M944.87,-174.83C1064.74,-169.86 1355.41,-156.21 1598,-132 1603.06,-131.49 1608.34,-130.9 1613.6,-130.25"/>
<polygon fill="#63b8ff" stroke="#63b8ff" points="944.83,-171.32 934.99,-175.23 945.12,-178.32 944.83,-171.32"/>
</a>
</g>
</g>
<!-- Node19 -->
<g id="Node000019" class="node">
<title>Node19</title>
<g id="a_Node000019"><a xlink:href="MTK3339Sensor_8h.html" target="_top" xlink:title=" ">
<polygon fill="white" stroke="#666666" points="778.5,-132 681.5,-132 681.5,-112 778.5,-112 778.5,-132"/>
<text text-anchor="middle" x="730" y="-118.5" font-family="Helvetica,sans-Serif" font-size="10.00">MTK3339Sensor.h</text>
</a>
</g>
</g>
<!-- Node1&#45;&gt;Node19 -->
<g id="edge23_Node000001_Node000019" class="edge">
<title>Node1&#45;&gt;Node19</title>
<g id="a_edge23_Node000001_Node000019"><a xlink:title=" ">
<path fill="none" stroke="#63b8ff" d="M850.49,-163.92C821.9,-154.21 783.59,-141.2 757.91,-132.48"/>
<polygon fill="#63b8ff" stroke="#63b8ff" points="849.28,-167.21 859.87,-167.11 851.53,-160.58 849.28,-167.21"/>
</a>
</g>
</g>
<!-- Node21 -->
<g id="Node000021" class="node">
<title>Node21</title>
<g id="a_Node000021"><a xlink:href="OzoneSensor_8h.html" target="_top" xlink:title=" ">
<polygon fill="white" stroke="#666666" points="879.75,-132 796.25,-132 796.25,-112 879.75,-112 879.75,-132"/>
<text text-anchor="middle" x="838" y="-118.5" font-family="Helvetica,sans-Serif" font-size="10.00">OzoneSensor.h</text>
</a>
</g>
</g>
<!-- Node1&#45;&gt;Node21 -->
<g id="edge26_Node000001_Node000021" class="edge">
<title>Node1&#45;&gt;Node21</title>
<g id="a_edge26_Node000001_Node000021"><a xlink:title=" ">
<path fill="none" stroke="#63b8ff" d="M872.27,-159.29C863.76,-150.28 853.77,-139.7 846.78,-132.3"/>
<polygon fill="#63b8ff" stroke="#63b8ff" points="869.67,-161.63 879.08,-166.49 874.76,-156.82 869.67,-161.63"/>
</a>
</g>
</g>
<!-- Node23 -->
<g id="Node000023" class="node">
<title>Node23</title>
<g id="a_Node000023"><a xlink:href="RadioStorage_8h.html" target="_top" xlink:title=" ">
<polygon fill="white" stroke="#666666" points="1220.75,-132 1137.25,-132 1137.25,-112 1220.75,-112 1220.75,-132"/>
<text text-anchor="middle" x="1179" y="-118.5" font-family="Helvetica,sans-Serif" font-size="10.00">RadioStorage.h</text>
</a>
</g>
</g>
<!-- Node1&#45;&gt;Node23 -->
<g id="edge29_Node000001_Node000023" class="edge">
<title>Node1&#45;&gt;Node23</title>
<g id="a_edge29_Node000001_Node000023"><a xlink:title=" ">
<path fill="none" stroke="#63b8ff" d="M944.53,-166.66C1000.69,-156.2 1086.25,-140.27 1137,-130.82"/>
<polygon fill="#63b8ff" stroke="#63b8ff" points="944.04,-163.19 934.85,-168.46 945.32,-170.07 944.04,-163.19"/>
</a>
</g>
</g>
<!-- Node25 -->
<g id="Node000025" class="node">
<title>Node25</title>
<g id="a_Node000025"><a xlink:href="SCD40Sensor_8h.html" target="_top" xlink:title=" ">
<polygon fill="white" stroke="#666666" points="984.62,-132 897.38,-132 897.38,-112 984.62,-112 984.62,-132"/>
<text text-anchor="middle" x="941" y="-118.5" font-family="Helvetica,sans-Serif" font-size="10.00">SCD40Sensor.h</text>
</a>
</g>
</g>
<!-- Node1&#45;&gt;Node25 -->
<g id="edge32_Node000001_Node000025" class="edge">
<title>Node1&#45;&gt;Node25</title>
<g id="a_edge32_Node000001_Node000025"><a xlink:title=" ">
<path fill="none" stroke="#63b8ff" d="M905.79,-159.57C914.52,-150.5 924.84,-139.78 932.05,-132.3"/>
<polygon fill="#63b8ff" stroke="#63b8ff" points="903.52,-156.87 899.11,-166.5 908.57,-161.73 903.52,-156.87"/>
</a>
</g>
</g>
<!-- Node27 -->
<g id="Node000027" class="node">
<title>Node27</title>
<g id="a_Node000027"><a xlink:href="SHTC3Sensor_8h.html" target="_top" xlink:title=" ">
<polygon fill="white" stroke="#666666" points="288,-132 200,-132 200,-112 288,-112 288,-132"/>
<text text-anchor="middle" x="244" y="-118.5" font-family="Helvetica,sans-Serif" font-size="10.00">SHTC3Sensor.h</text>
</a>
</g>
</g>
<!-- Node1&#45;&gt;Node27 -->
<g id="edge36_Node000001_Node000027" class="edge">
<title>Node1&#45;&gt;Node27</title>
<g id="a_edge36_Node000001_Node000027"><a xlink:title=" ">
<path fill="none" stroke="#63b8ff" d="M833.41,-174.49C728.34,-169.37 493.48,-156.1 297,-132 294.22,-131.66 291.37,-131.27 288.49,-130.86"/>
<polygon fill="#63b8ff" stroke="#63b8ff" points="833.01,-177.97 843.16,-174.96 833.34,-170.98 833.01,-177.97"/>
</a>
</g>
</g>
<!-- Node29 -->
<g id="Node000029" class="node">
<title>Node29</title>
<g id="a_Node000029"><a xlink:href="TMP117Sensor_8h.html" target="_top" xlink:title=" ">
<polygon fill="white" stroke="#666666" points="506.5,-132 415.5,-132 415.5,-112 506.5,-112 506.5,-132"/>
<text text-anchor="middle" x="461" y="-118.5" font-family="Helvetica,sans-Serif" font-size="10.00">TMP117Sensor.h</text>
</a>
</g>
</g>
<!-- Node1&#45;&gt;Node29 -->
<g id="edge40_Node000001_Node000029" class="edge">
<title>Node1&#45;&gt;Node29</title>
<g id="a_edge40_Node000001_Node000029"><a xlink:title=" ">
<path fill="none" stroke="#63b8ff" d="M833.71,-170.71C761.66,-162.41 631.78,-147.08 521,-132 516.41,-131.37 511.62,-130.7 506.84,-130.01"/>
<polygon fill="#63b8ff" stroke="#63b8ff" points="832.93,-174.15 843.26,-171.81 833.73,-167.19 832.93,-174.15"/>
</a>
</g>
</g>
<!-- Node3 -->
<g id="Node000003" class="node">
<title>Node3</title>
<g id="a_Node000003"><a xlink:href="AS7331Sensor_8cpp.html" target="_top" xlink:title=" ">
<polygon fill="white" stroke="#666666" points="100,-76 0,-76 0,-56 100,-56 100,-76"/>
<text text-anchor="middle" x="50" y="-62.5" font-family="Helvetica,sans-Serif" font-size="10.00">AS7331Sensor.cpp</text>
</a>
</g>
</g>
<!-- Node2&#45;&gt;Node3 -->
<g id="edge2_Node000002_Node000003" class="edge">
<title>Node2&#45;&gt;Node3</title>
<g id="a_edge2_Node000002_Node000003"><a xlink:title=" ">
<path fill="none" stroke="#63b8ff" d="M112.1,-105.54C96.99,-96.17 78.2,-84.51 65.27,-76.48"/>
<polygon fill="#63b8ff" stroke="#63b8ff" points="110.22,-108.5 120.56,-110.8 113.91,-102.55 110.22,-108.5"/>
</a>
</g>
</g>
<!-- Node2&#45;&gt;Node4 -->
<g id="edge3_Node000002_Node000004" class="edge">
<title>Node2&#45;&gt;Node4</title>
<g id="a_edge3_Node000002_Node000004"><a xlink:title=" ">
<path fill="none" stroke="#63b8ff" d="M193.28,-111.72C314.42,-94.15 347.8,-97.89 465,-76 467.86,-75.47 470.83,-74.85 473.79,-74.2"/>
<polygon fill="#63b8ff" stroke="#63b8ff" points="192.94,-108.23 183.56,-113.15 193.96,-115.16 192.94,-108.23"/>
</a>
</g>
</g>
<!-- Node6 -->
<g id="Node000006" class="node">
<title>Node6</title>
<g id="a_Node000006"><a xlink:href="BME680Sensor_8cpp.html" target="_top" xlink:title=" ">
<polygon fill="white" stroke="#666666" points="1597.5,-76 1494.5,-76 1494.5,-56 1597.5,-56 1597.5,-76"/>
<text text-anchor="middle" x="1546" y="-62.5" font-family="Helvetica,sans-Serif" font-size="10.00">BME680Sensor.cpp</text>
</a>
</g>
</g>
<!-- Node5&#45;&gt;Node6 -->
<g id="edge5_Node000005_Node000006" class="edge">
<title>Node5&#45;&gt;Node6</title>
<g id="a_edge5_Node000005_Node000006"><a xlink:title=" ">
<path fill="none" stroke="#63b8ff" d="M1544.16,-100.13C1544.62,-91.9 1545.12,-82.85 1545.48,-76.3"/>
<polygon fill="#63b8ff" stroke="#63b8ff" points="1540.67,-99.9 1543.61,-110.08 1547.66,-100.29 1540.67,-99.9"/>
</a>
</g>
</g>
<!-- Node7&#45;&gt;Node4 -->
<g id="edge8_Node000007_Node000004" class="edge">
<title>Node7&#45;&gt;Node4</title>
<g id="a_edge8_Node000007_Node000004"><a xlink:title=" ">
<path fill="none" stroke="#63b8ff" d="M388.69,-107.79C415.62,-98.1 451.55,-85.16 475.67,-76.48"/>
<polygon fill="#63b8ff" stroke="#63b8ff" points="387.78,-104.4 379.55,-111.08 390.15,-110.99 387.78,-104.4"/>
</a>
</g>
</g>
<!-- Node8 -->
<g id="Node000008" class="node">
<title>Node8</title>
<g id="a_Node000008"><a xlink:href="ENS160Sensor_8cpp.html" target="_top" xlink:title=" ">
<polygon fill="white" stroke="#666666" points="336.12,-76 233.88,-76 233.88,-56 336.12,-56 336.12,-76"/>
<text text-anchor="middle" x="285" y="-62.5" font-family="Helvetica,sans-Serif" font-size="10.00">ENS160Sensor.cpp</text>
</a>
</g>
</g>
<!-- Node7&#45;&gt;Node8 -->
<g id="edge7_Node000007_Node000008" class="edge">
<title>Node7&#45;&gt;Node8</title>
<g id="a_edge7_Node000007_Node000008"><a xlink:title=" ">
<path fill="none" stroke="#63b8ff" d="M331.41,-104.4C319.95,-95.17 306.1,-84.01 296.54,-76.3"/>
<polygon fill="#63b8ff" stroke="#63b8ff" points="329.17,-107.09 339.15,-110.64 333.56,-101.64 329.17,-107.09"/>
</a>
</g>
</g>
<!-- Node9&#45;&gt;Node4 -->
<g id="edge13_Node000009_Node000004" class="edge">
<title>Node9&#45;&gt;Node4</title>
<g id="a_edge13_Node000009_Node000004"><a xlink:title=" ">
<path fill="none" stroke="#63b8ff" d="M1029.66,-115.52C1017.96,-114.3 1005.55,-113.06 994,-112 792,-93.44 739.3,-108.07 539,-76 536.13,-75.54 533.15,-74.97 530.19,-74.35"/>
<polygon fill="#63b8ff" stroke="#63b8ff" points="1029.25,-118.99 1039.56,-116.56 1029.98,-112.03 1029.25,-118.99"/>
</a>
</g>
</g>
<!-- Node9&#45;&gt;Node10 -->
<g id="edge10_Node000009_Node000010" class="edge">
<title>Node9&#45;&gt;Node10</title>
<g id="a_edge10_Node000009_Node000010"><a xlink:title=" ">
<path fill="none" stroke="#63b8ff" d="M1074.74,-100.71C1072.57,-92.32 1070.15,-83.01 1068.41,-76.3"/>
<polygon fill="#63b8ff" stroke="#63b8ff" points="1071.28,-101.33 1077.18,-110.13 1078.06,-99.57 1071.28,-101.33"/>
</a>
</g>
</g>
<!-- Node9&#45;&gt;Node12 -->
<g id="edge14_Node000009_Node000012" class="edge">
<title>Node9&#45;&gt;Node12</title>
<g id="a_edge14_Node000009_Node000012"><a xlink:title=" ">
<path fill="none" stroke="#63b8ff" d="M1094.48,-102.9C1113.42,-79.22 1145.92,-38.6 1160.52,-20.35"/>
<polygon fill="#63b8ff" stroke="#63b8ff" points="1091.96,-100.44 1088.45,-110.44 1097.43,-104.82 1091.96,-100.44"/>
</a>
</g>
</g>
<!-- Node11 -->
<g id="Node000011" class="node">
<title>Node11</title>
<g id="a_Node000011"><a xlink:href="SDStorage_8cpp.html" target="_top" xlink:title=" ">
<polygon fill="white" stroke="#666666" points="1107.38,-20 1024.62,-20 1024.62,0 1107.38,0 1107.38,-20"/>
<text text-anchor="middle" x="1066" y="-6.5" font-family="Helvetica,sans-Serif" font-size="10.00">SDStorage.cpp</text>
</a>
</g>
</g>
<!-- Node10&#45;&gt;Node11 -->
<g id="edge11_Node000010_Node000011" class="edge">
<title>Node10&#45;&gt;Node11</title>
<g id="a_edge11_Node000010_Node000011"><a xlink:title=" ">
<path fill="none" stroke="#63b8ff" d="M1066,-44.13C1066,-35.9 1066,-26.85 1066,-20.3"/>
<polygon fill="#63b8ff" stroke="#63b8ff" points="1062.5,-44.08 1066,-54.08 1069.5,-44.08 1062.5,-44.08"/>
</a>
</g>
</g>
<!-- Node10&#45;&gt;Node12 -->
<g id="edge12_Node000010_Node000012" class="edge">
<title>Node10&#45;&gt;Node12</title>
<g id="a_edge12_Node000010_Node000012"><a xlink:title=" ">
<path fill="none" stroke="#63b8ff" d="M1093.93,-50.21C1111.84,-40.73 1134.57,-28.7 1150.09,-20.48"/>
<polygon fill="#63b8ff" stroke="#63b8ff" points="1092.3,-47.11 1085.1,-54.89 1095.58,-53.3 1092.3,-47.11"/>
</a>
</g>
</g>
<!-- Node13&#45;&gt;Node12 -->
<g id="edge17_Node000013_Node000012" class="edge">
<title>Node13&#45;&gt;Node12</title>
<g id="a_edge17_Node000013_Node000012"><a xlink:title=" ">
<path fill="none" stroke="#63b8ff" d="M1316.86,-100.62C1315.03,-86.43 1310.43,-67.97 1299,-56 1272.6,-28.34 1228.46,-17.68 1198.8,-13.57"/>
<polygon fill="#63b8ff" stroke="#63b8ff" points="1313.34,-100.57 1317.72,-110.22 1320.32,-99.95 1313.34,-100.57"/>
</a>
</g>
</g>
<!-- Node14 -->
<g id="Node000014" class="node">
<title>Node14</title>
<g id="a_Node000014"><a xlink:href="FlashStorage_8cpp.html" target="_top" xlink:title=" ">
<polygon fill="white" stroke="#666666" points="1438.25,-76 1345.75,-76 1345.75,-56 1438.25,-56 1438.25,-76"/>
<text text-anchor="middle" x="1392" y="-62.5" font-family="Helvetica,sans-Serif" font-size="10.00">FlashStorage.cpp</text>
</a>
</g>
</g>
<!-- Node13&#45;&gt;Node14 -->
<g id="edge16_Node000013_Node000014" class="edge">
<title>Node13&#45;&gt;Node14</title>
<g id="a_edge16_Node000013_Node000014"><a xlink:title=" ">
<path fill="none" stroke="#63b8ff" d="M1339.99,-104.95C1352.79,-95.61 1368.48,-84.16 1379.26,-76.3"/>
<polygon fill="#63b8ff" stroke="#63b8ff" points="1338.13,-101.98 1332.11,-110.7 1342.25,-107.63 1338.13,-101.98"/>
</a>
</g>
</g>
<!-- Node15&#45;&gt;Node4 -->
<g id="edge20_Node000015_Node000004" class="edge">
<title>Node15&#45;&gt;Node4</title>
<g id="a_edge20_Node000015_Node000004"><a xlink:title=" ">
<path fill="none" stroke="#63b8ff" d="M583.43,-106.61C563.81,-97.07 538.62,-84.81 521.49,-76.48"/>
<polygon fill="#63b8ff" stroke="#63b8ff" points="581.78,-109.7 592.3,-110.93 584.84,-103.41 581.78,-109.7"/>
</a>
</g>
</g>
<!-- Node16 -->
<g id="Node000016" class="node">
<title>Node16</title>
<g id="a_Node000016"><a xlink:href="ICM20948Sensor_8cpp.html" target="_top" xlink:title=" ">
<polygon fill="white" stroke="#666666" points="658.25,-76 547.75,-76 547.75,-56 658.25,-56 658.25,-76"/>
<text text-anchor="middle" x="603" y="-62.5" font-family="Helvetica,sans-Serif" font-size="10.00">ICM20948Sensor.cpp</text>
</a>
</g>
</g>
<!-- Node15&#45;&gt;Node16 -->
<g id="edge19_Node000015_Node000016" class="edge">
<title>Node15&#45;&gt;Node16</title>
<g id="a_edge19_Node000015_Node000016"><a xlink:title=" ">
<path fill="none" stroke="#63b8ff" d="M609.19,-100.43C607.65,-92.11 605.95,-82.93 604.72,-76.3"/>
<polygon fill="#63b8ff" stroke="#63b8ff" points="605.72,-100.91 610.98,-110.11 612.6,-99.64 605.72,-100.91"/>
</a>
</g>
</g>
<!-- Node18 -->
<g id="Node000018" class="node">
<title>Node18</title>
<g id="a_Node000018"><a xlink:href="LSM9DS1Sensor_8cpp.html" target="_top" xlink:title=" ">
<polygon fill="white" stroke="#666666" points="1726.25,-76 1615.75,-76 1615.75,-56 1726.25,-56 1726.25,-76"/>
<text text-anchor="middle" x="1671" y="-62.5" font-family="Helvetica,sans-Serif" font-size="10.00">LSM9DS1Sensor.cpp</text>
</a>
</g>
</g>
<!-- Node17&#45;&gt;Node18 -->
<g id="edge22_Node000017_Node000018" class="edge">
<title>Node17&#45;&gt;Node18</title>
<g id="a_edge22_Node000017_Node000018"><a xlink:title=" ">
<path fill="none" stroke="#63b8ff" d="M1666.67,-100.43C1667.75,-92.11 1668.93,-82.93 1669.79,-76.3"/>
<polygon fill="#63b8ff" stroke="#63b8ff" points="1663.23,-99.73 1665.41,-110.09 1670.17,-100.63 1663.23,-99.73"/>
</a>
</g>
</g>
<!-- Node19&#45;&gt;Node4 -->
<g id="edge25_Node000019_Node000004" class="edge">
<title>Node19&#45;&gt;Node4</title>
<g id="a_edge25_Node000019_Node000004"><a xlink:title=" ">
<path fill="none" stroke="#63b8ff" d="M678.45,-108.96C640,-99.96 586.19,-87.3 539,-76 536.17,-75.32 533.22,-74.61 530.28,-73.9"/>
<polygon fill="#63b8ff" stroke="#63b8ff" points="677.36,-112.3 687.89,-111.17 678.95,-105.48 677.36,-112.3"/>
</a>
</g>
</g>
<!-- Node20 -->
<g id="Node000020" class="node">
<title>Node20</title>
<g id="a_Node000020"><a xlink:href="MTK3339Sensor_8cpp.html" target="_top" xlink:title=" ">
<polygon fill="white" stroke="#666666" points="783.75,-76 676.25,-76 676.25,-56 783.75,-56 783.75,-76"/>
<text text-anchor="middle" x="730" y="-62.5" font-family="Helvetica,sans-Serif" font-size="10.00">MTK3339Sensor.cpp</text>
</a>
</g>
</g>
<!-- Node19&#45;&gt;Node20 -->
<g id="edge24_Node000019_Node000020" class="edge">
<title>Node19&#45;&gt;Node20</title>
<g id="a_edge24_Node000019_Node000020"><a xlink:title=" ">
<path fill="none" stroke="#63b8ff" d="M730,-100.13C730,-91.9 730,-82.85 730,-76.3"/>
<polygon fill="#63b8ff" stroke="#63b8ff" points="726.5,-100.08 730,-110.08 733.5,-100.08 726.5,-100.08"/>
</a>
</g>
</g>
<!-- Node21&#45;&gt;Node4 -->
<g id="edge28_Node000021_Node000004" class="edge">
<title>Node21&#45;&gt;Node4</title>
<g id="a_edge28_Node000021_Node000004"><a xlink:title=" ">
<path fill="none" stroke="#63b8ff" d="M784.83,-111.54C675.68,-94.27 645.24,-96.55 539,-76 536.14,-75.45 533.18,-74.82 530.22,-74.16"/>
<polygon fill="#63b8ff" stroke="#63b8ff" points="784.08,-114.96 794.51,-113.09 785.19,-108.05 784.08,-114.96"/>
</a>
</g>
</g>
<!-- Node22 -->
<g id="Node000022" class="node">
<title>Node22</title>
<g id="a_Node000022"><a xlink:href="OzoneSensor_8cpp.html" target="_top" xlink:title=" ">
<polygon fill="white" stroke="#666666" points="896,-76 802,-76 802,-56 896,-56 896,-76"/>
<text text-anchor="middle" x="849" y="-62.5" font-family="Helvetica,sans-Serif" font-size="10.00">OzoneSensor.cpp</text>
</a>
</g>
</g>
<!-- Node21&#45;&gt;Node22 -->
<g id="edge27_Node000021_Node000022" class="edge">
<title>Node21&#45;&gt;Node22</title>
<g id="a_edge27_Node000021_Node000022"><a xlink:title=" ">
<path fill="none" stroke="#63b8ff" d="M842.19,-100.43C843.89,-92.11 845.75,-82.93 847.11,-76.3"/>
<polygon fill="#63b8ff" stroke="#63b8ff" points="838.78,-99.61 840.22,-110.11 845.64,-101.01 838.78,-99.61"/>
</a>
</g>
</g>
<!-- Node23&#45;&gt;Node12 -->
<g id="edge31_Node000023_Node000012" class="edge">
<title>Node23&#45;&gt;Node12</title>
<g id="a_edge31_Node000023_Node000012"><a xlink:title=" ">
<path fill="none" stroke="#63b8ff" d="M1176.93,-100.31C1174.54,-76.36 1170.7,-37.95 1168.94,-20.35"/>
<polygon fill="#63b8ff" stroke="#63b8ff" points="1173.43,-100.51 1177.91,-110.12 1180.4,-99.82 1173.43,-100.51"/>
</a>
</g>
</g>
<!-- Node24 -->
<g id="Node000024" class="node">
<title>Node24</title>
<g id="a_Node000024"><a xlink:href="RadioStorage_8cpp.html" target="_top" xlink:title=" ">
<polygon fill="white" stroke="#666666" points="1290,-76 1196,-76 1196,-56 1290,-56 1290,-76"/>
<text text-anchor="middle" x="1243" y="-62.5" font-family="Helvetica,sans-Serif" font-size="10.00">RadioStorage.cpp</text>
</a>
</g>
</g>
<!-- Node23&#45;&gt;Node24 -->
<g id="edge30_Node000023_Node000024" class="edge">
<title>Node23&#45;&gt;Node24</title>
<g id="a_edge30_Node000023_Node000024"><a xlink:title=" ">
<path fill="none" stroke="#63b8ff" d="M1198.67,-104.4C1209.62,-95.17 1222.84,-84.01 1231.98,-76.3"/>
<polygon fill="#63b8ff" stroke="#63b8ff" points="1196.69,-101.49 1191.3,-110.62 1201.2,-106.84 1196.69,-101.49"/>
</a>
</g>
</g>
<!-- Node25&#45;&gt;Node4 -->
<g id="edge34_Node000025_Node000004" class="edge">
<title>Node25&#45;&gt;Node4</title>
<g id="a_edge34_Node000025_Node000004"><a xlink:title=" ">
<path fill="none" stroke="#63b8ff" d="M885.8,-111.65C732.1,-91.19 689.5,-101.92 539,-76 536.13,-75.51 533.16,-74.92 530.2,-74.28"/>
<polygon fill="#63b8ff" stroke="#63b8ff" points="885.18,-115.1 895.56,-112.97 886.12,-108.16 885.18,-115.1"/>
</a>
</g>
</g>
<!-- Node26 -->
<g id="Node000026" class="node">
<title>Node26</title>
<g id="a_Node000026"><a xlink:href="SCD40Sensor_8cpp.html" target="_top" xlink:title=" ">
<polygon fill="white" stroke="#666666" points="1011.88,-76 914.12,-76 914.12,-56 1011.88,-56 1011.88,-76"/>
<text text-anchor="middle" x="963" y="-62.5" font-family="Helvetica,sans-Serif" font-size="10.00">SCD40Sensor.cpp</text>
</a>
</g>
</g>
<!-- Node25&#45;&gt;Node26 -->
<g id="edge33_Node000025_Node000026" class="edge">
<title>Node25&#45;&gt;Node26</title>
<g id="a_edge33_Node000025_Node000026"><a xlink:title=" ">
<path fill="none" stroke="#63b8ff" d="M949.15,-101C952.6,-92.54 956.45,-83.08 959.21,-76.3"/>
<polygon fill="#63b8ff" stroke="#63b8ff" points="945.93,-99.61 945.4,-110.19 952.42,-102.25 945.93,-99.61"/>
</a>
</g>
</g>
<!-- Node27&#45;&gt;Node4 -->
<g id="edge39_Node000027_Node000004" class="edge">
<title>Node27&#45;&gt;Node4</title>
<g id="a_edge39_Node000027_Node000004"><a xlink:title=" ">
<path fill="none" stroke="#63b8ff" d="M299.35,-110.33C344.13,-101.55 408.75,-88.56 465,-76 467.84,-75.37 470.79,-74.68 473.74,-73.99"/>
<polygon fill="#63b8ff" stroke="#63b8ff" points="298.76,-106.88 289.62,-112.23 300.1,-113.75 298.76,-106.88"/>
</a>
</g>
</g>
<!-- Node27&#45;&gt;Node8 -->
<g id="edge37_Node000027_Node000008" class="edge">
<title>Node27&#45;&gt;Node8</title>
<g id="a_edge37_Node000027_Node000008"><a xlink:title=" ">
<path fill="none" stroke="#63b8ff" d="M258.09,-102.44C264.79,-93.62 272.5,-83.47 277.94,-76.3"/>
<polygon fill="#63b8ff" stroke="#63b8ff" points="255.32,-100.31 252.06,-110.39 260.89,-104.54 255.32,-100.31"/>
</a>
</g>
</g>
<!-- Node28 -->
<g id="Node000028" class="node">
<title>Node28</title>
<g id="a_Node000028"><a xlink:href="SHTC3Sensor_8cpp.html" target="_top" xlink:title=" ">
<polygon fill="white" stroke="#666666" points="216.25,-76 117.75,-76 117.75,-56 216.25,-56 216.25,-76"/>
<text text-anchor="middle" x="167" y="-62.5" font-family="Helvetica,sans-Serif" font-size="10.00">SHTC3Sensor.cpp</text>
</a>
</g>
</g>
<!-- Node27&#45;&gt;Node28 -->
<g id="edge38_Node000027_Node000028" class="edge">
<title>Node27&#45;&gt;Node28</title>
<g id="a_edge38_Node000027_Node000028"><a xlink:title=" ">
<path fill="none" stroke="#63b8ff" d="M221.18,-105C207.95,-95.72 191.74,-84.35 180.52,-76.48"/>
<polygon fill="#63b8ff" stroke="#63b8ff" points="219.15,-107.85 229.35,-110.72 223.17,-102.12 219.15,-107.85"/>
</a>
</g>
</g>
<!-- Node29&#45;&gt;Node4 -->
<g id="edge43_Node000029_Node000004" class="edge">
<title>Node29&#45;&gt;Node4</title>
<g id="a_edge43_Node000029_Node000004"><a xlink:title=" ">
<path fill="none" stroke="#63b8ff" d="M475.09,-102.44C481.79,-93.62 489.5,-83.47 494.94,-76.3"/>
<polygon fill="#63b8ff" stroke="#63b8ff" points="472.32,-100.31 469.06,-110.39 477.89,-104.54 472.32,-100.31"/>
</a>
</g>
</g>
<!-- Node29&#45;&gt;Node8 -->
<g id="edge41_Node000029_Node000008" class="edge">
<title>Node29&#45;&gt;Node8</title>
<g id="a_edge41_Node000029_Node000008"><a xlink:title=" ">
<path fill="none" stroke="#63b8ff" d="M419.62,-108.31C387.86,-98.56 344.7,-85.32 315.9,-76.48"/>
<polygon fill="#63b8ff" stroke="#63b8ff" points="418.31,-111.56 428.9,-111.15 420.36,-104.87 418.31,-111.56"/>
</a>
</g>
</g>
<!-- Node30 -->
<g id="Node000030" class="node">
<title>Node30</title>
<g id="a_Node000030"><a xlink:href="TMP117Sensor_8cpp.html" target="_top" xlink:title=" ">
<polygon fill="white" stroke="#666666" points="455.75,-76 354.25,-76 354.25,-56 455.75,-56 455.75,-76"/>
<text text-anchor="middle" x="405" y="-62.5" font-family="Helvetica,sans-Serif" font-size="10.00">TMP117Sensor.cpp</text>
</a>
</g>
</g>
<!-- Node29&#45;&gt;Node30 -->
<g id="edge42_Node000029_Node000030" class="edge">
<title>Node29&#45;&gt;Node30</title>
<g id="a_edge42_Node000029_Node000030"><a xlink:title=" ">
<path fill="none" stroke="#63b8ff" d="M443.21,-103.85C433.75,-94.72 422.48,-83.86 414.64,-76.3"/>
<polygon fill="#63b8ff" stroke="#63b8ff" points="440.53,-106.12 450.16,-110.54 445.39,-101.08 440.53,-106.12"/>
</a>
</g>
</g>
</g>
</svg>
