<?xml version="1.0" encoding="UTF-8" standalone="no"?>
<!DOCTYPE svg PUBLIC "-//W3C//DTD SVG 1.1//EN"
 "http://www.w3.org/Graphics/SVG/1.1/DTD/svg11.dtd">
<!-- Generated by graphviz version 2.43.0 (0)
 -->
<!-- Title: PayloadConfig.h Pages: 1 -->
<svg width="1417pt" height="192pt"
 viewBox="0.00 0.00 1416.86 192.00" xmlns="http://www.w3.org/2000/svg" xmlns:xlink="http://www.w3.org/1999/xlink">
<g id="graph0" class="graph" transform="scale(1 1) rotate(0) translate(4 188)">
<title>PayloadConfig.h</title>
<!-- Node1 -->
<g id="Node000001" class="node">
<title>Node1</title>
<g id="a_Node000001"><a xlink:title="Central location for pinout and config defines.">
<polygon fill="#999999" stroke="#666666" points="810.5,-184 715.5,-184 715.5,-165 810.5,-165 810.5,-184"/>
<text text-anchor="middle" x="763" y="-172" font-family="Helvetica,sans-Serif" font-size="10.00">PayloadConfig.h</text>
</a>
</g>
</g>
<!-- Node2 -->
<g id="Node000002" class="node">
<title>Node2</title>
<g id="a_Node000002"><a xlink:href="AS7331Sensor_8h.html" target="_top" xlink:title=" ">
<polygon fill="white" stroke="#666666" points="193.5,-129 98.5,-129 98.5,-110 193.5,-110 193.5,-129"/>
<text text-anchor="middle" x="146" y="-117" font-family="Helvetica,sans-Serif" font-size="10.00">AS7331Sensor.h</text>
</a>
</g>
</g>
<!-- Node1&#45;&gt;Node2 -->
<g id="edge1_Node000001_Node000002" class="edge">
<title>Node1&#45;&gt;Node2</title>
<g id="a_edge1_Node000001_Node000002"><a xlink:title=" ">
<path fill="none" stroke="#63b8ff" d="M705.15,-170.28C603.26,-164.3 385.21,-150.14 202,-129 199.26,-128.68 196.46,-128.34 193.63,-127.97"/>
<polygon fill="#63b8ff" stroke="#63b8ff" points="705.05,-173.78 715.23,-170.87 705.45,-166.79 705.05,-173.78"/>
</a>
</g>
</g>
<!-- Node4 -->
<g id="Node000004" class="node">
<title>Node4</title>
<g id="a_Node000004"><a xlink:href="main_8cpp.html" target="_top" xlink:title="Main functions for Core 0, responsible for reading data from sensor peripherals.">
<polygon fill="white" stroke="#666666" points="557,-74 495,-74 495,-55 557,-55 557,-74"/>
<text text-anchor="middle" x="526" y="-62" font-family="Helvetica,sans-Serif" font-size="10.00">main.cpp</text>
</a>
</g>
</g>
<!-- Node1&#45;&gt;Node4 -->
<g id="edge37_Node000001_Node000004" class="edge">
<title>Node1&#45;&gt;Node4</title>
<g id="a_edge37_Node000001_Node000004"><a xlink:title=" ">
<path fill="none" stroke="#63b8ff" d="M705.29,-169.44C666.51,-164.48 615.63,-153.46 577,-129 555.02,-115.08 538.29,-88.37 530.62,-74.44"/>
<polygon fill="#63b8ff" stroke="#63b8ff" points="705.04,-172.94 715.38,-170.63 705.86,-165.99 705.04,-172.94"/>
</a>
</g>
</g>
<!-- Node5 -->
<g id="Node000005" class="node">
<title>Node5</title>
<g id="a_Node000005"><a xlink:href="ENS160Sensor_8h.html" target="_top" xlink:title=" ">
<polygon fill="white" stroke="#666666" points="413.5,-129 318.5,-129 318.5,-110 413.5,-110 413.5,-129"/>
<text text-anchor="middle" x="366" y="-117" font-family="Helvetica,sans-Serif" font-size="10.00">ENS160Sensor.h</text>
</a>
</g>
</g>
<!-- Node1&#45;&gt;Node5 -->
<g id="edge4_Node000001_Node000005" class="edge">
<title>Node1&#45;&gt;Node5</title>
<g id="a_edge4_Node000001_Node000005"><a xlink:title=" ">
<path fill="none" stroke="#63b8ff" d="M705.17,-166.33C637.3,-157.82 521.39,-143.03 422,-129 419.27,-128.62 416.47,-128.21 413.65,-127.8"/>
<polygon fill="#63b8ff" stroke="#63b8ff" points="704.88,-169.82 715.24,-167.59 705.75,-162.87 704.88,-169.82"/>
</a>
</g>
</g>
<!-- Node7 -->
<g id="Node000007" class="node">
<title>Node7</title>
<g id="a_Node000007"><a xlink:href="ErrorDisplay_8h.html" target="_top" xlink:title=" ">
<polygon fill="white" stroke="#666666" points="1063,-129 979,-129 979,-110 1063,-110 1063,-129"/>
<text text-anchor="middle" x="1021" y="-117" font-family="Helvetica,sans-Serif" font-size="10.00">ErrorDisplay.h</text>
</a>
</g>
</g>
<!-- Node1&#45;&gt;Node7 -->
<g id="edge7_Node000001_Node000007" class="edge">
<title>Node1&#45;&gt;Node7</title>
<g id="a_edge7_Node000001_Node000007"><a xlink:title=" ">
<path fill="none" stroke="#63b8ff" d="M814.4,-162.94C862.76,-153.01 934.28,-138.31 979.22,-129.08"/>
<polygon fill="#63b8ff" stroke="#63b8ff" points="813.54,-159.54 804.45,-164.98 814.95,-166.4 813.54,-159.54"/>
</a>
</g>
</g>
<!-- Node8 -->
<g id="Node000008" class="node">
<title>Node8</title>
<g id="a_Node000008"><a xlink:href="SDStorage_8h.html" target="_top" xlink:title=" ">
<polygon fill="white" stroke="#666666" points="1040.5,-74 963.5,-74 963.5,-55 1040.5,-55 1040.5,-74"/>
<text text-anchor="middle" x="1002" y="-62" font-family="Helvetica,sans-Serif" font-size="10.00">SDStorage.h</text>
</a>
</g>
</g>
<!-- Node1&#45;&gt;Node8 -->
<g id="edge28_Node000001_Node000008" class="edge">
<title>Node1&#45;&gt;Node8</title>
<g id="a_edge28_Node000001_Node000008"><a xlink:title=" ">
<path fill="none" stroke="#63b8ff" d="M821,-165.31C854.86,-158.84 897.56,-147.69 932,-129 958.54,-114.6 983.09,-88.1 994.8,-74.33"/>
<polygon fill="#63b8ff" stroke="#63b8ff" points="820,-161.94 810.79,-167.17 821.26,-168.82 820,-161.94"/>
</a>
</g>
</g>
<!-- Node10 -->
<g id="Node000010" class="node">
<title>Node10</title>
<g id="a_Node000010"><a xlink:href="main1_8cpp.html" target="_top" xlink:title="Main functions for Core 1, responsible for sending data to storage peripherals.">
<polygon fill="white" stroke="#666666" points="1141,-19 1073,-19 1073,0 1141,0 1141,-19"/>
<text text-anchor="middle" x="1107" y="-7" font-family="Helvetica,sans-Serif" font-size="10.00">main1.cpp</text>
</a>
</g>
</g>
<!-- Node1&#45;&gt;Node10 -->
<g id="edge38_Node000001_Node000010" class="edge">
<title>Node1&#45;&gt;Node10</title>
<g id="a_edge38_Node000001_Node000010"><a xlink:title=" ">
<path fill="none" stroke="#63b8ff" d="M820.77,-172.44C899.64,-169.8 1035.42,-160.65 1072,-129 1105.25,-100.22 1107.69,-41.55 1107.35,-19.31"/>
<polygon fill="#63b8ff" stroke="#63b8ff" points="820.39,-168.95 810.51,-172.75 820.61,-175.94 820.39,-168.95"/>
</a>
</g>
</g>
<!-- Node11 -->
<g id="Node000011" class="node">
<title>Node11</title>
<g id="a_Node000011"><a xlink:href="FlashStorage_8h.html" target="_top" xlink:title=" ">
<polygon fill="white" stroke="#666666" points="1388.5,-129 1299.5,-129 1299.5,-110 1388.5,-110 1388.5,-129"/>
<text text-anchor="middle" x="1344" y="-117" font-family="Helvetica,sans-Serif" font-size="10.00">FlashStorage.h</text>
</a>
</g>
</g>
<!-- Node1&#45;&gt;Node11 -->
<g id="edge13_Node000001_Node000011" class="edge">
<title>Node1&#45;&gt;Node11</title>
<g id="a_edge13_Node000001_Node000011"><a xlink:title=" ">
<path fill="none" stroke="#63b8ff" d="M820.64,-168.24C936.48,-157.67 1195.35,-134.06 1299.42,-124.57"/>
<polygon fill="#63b8ff" stroke="#63b8ff" points="820.19,-164.77 810.55,-169.16 820.82,-171.74 820.19,-164.77"/>
</a>
</g>
</g>
<!-- Node13 -->
<g id="Node000013" class="node">
<title>Node13</title>
<g id="a_Node000013"><a xlink:href="ICM20948Sensor_8h.html" target="_top" xlink:title=" ">
<polygon fill="white" stroke="#666666" points="692.5,-129 585.5,-129 585.5,-110 692.5,-110 692.5,-129"/>
<text text-anchor="middle" x="639" y="-117" font-family="Helvetica,sans-Serif" font-size="10.00">ICM20948Sensor.h</text>
</a>
</g>
</g>
<!-- Node1&#45;&gt;Node13 -->
<g id="edge16_Node000001_Node000013" class="edge">
<title>Node1&#45;&gt;Node13</title>
<g id="a_edge16_Node000001_Node000013"><a xlink:title=" ">
<path fill="none" stroke="#63b8ff" d="M733.82,-161.03C710.89,-151.23 679.55,-137.83 659.29,-129.17"/>
<polygon fill="#63b8ff" stroke="#63b8ff" points="732.51,-164.27 743.08,-164.98 735.26,-157.84 732.51,-164.27"/>
</a>
</g>
</g>
<!-- Node15 -->
<g id="Node000015" class="node">
<title>Node15</title>
<g id="a_Node000015"><a xlink:href="MTK3339Sensor_8h.html" target="_top" xlink:title=" ">
<polygon fill="white" stroke="#666666" points="815,-129 711,-129 711,-110 815,-110 815,-129"/>
<text text-anchor="middle" x="763" y="-117" font-family="Helvetica,sans-Serif" font-size="10.00">MTK3339Sensor.h</text>
</a>
</g>
</g>
<!-- Node1&#45;&gt;Node15 -->
<g id="edge19_Node000001_Node000015" class="edge">
<title>Node1&#45;&gt;Node15</title>
<g id="a_edge19_Node000001_Node000015"><a xlink:title=" ">
<path fill="none" stroke="#63b8ff" d="M763,-154.66C763,-145.93 763,-135.99 763,-129.09"/>
<polygon fill="#63b8ff" stroke="#63b8ff" points="759.5,-154.75 763,-164.75 766.5,-154.75 759.5,-154.75"/>
</a>
</g>
</g>
<!-- Node17 -->
<g id="Node000017" class="node">
<title>Node17</title>
<g id="a_Node000017"><a xlink:href="OzoneSensor_8h.html" target="_top" xlink:title=" ">
<polygon fill="white" stroke="#666666" points="922.5,-129 833.5,-129 833.5,-110 922.5,-110 922.5,-129"/>
<text text-anchor="middle" x="878" y="-117" font-family="Helvetica,sans-Serif" font-size="10.00">OzoneSensor.h</text>
</a>
</g>
</g>
<!-- Node1&#45;&gt;Node17 -->
<g id="edge22_Node000001_Node000017" class="edge">
<title>Node1&#45;&gt;Node17</title>
<g id="a_edge22_Node000001_Node000017"><a xlink:title=" ">
<path fill="none" stroke="#63b8ff" d="M790.63,-160.77C811.84,-150.99 840.56,-137.75 859.19,-129.17"/>
<polygon fill="#63b8ff" stroke="#63b8ff" points="789.09,-157.62 781.48,-164.98 792.02,-163.98 789.09,-157.62"/>
</a>
</g>
</g>
<!-- Node19 -->
<g id="Node000019" class="node">
<title>Node19</title>
<g id="a_Node000019"><a xlink:href="RadioStorage_8h.html" target="_top" xlink:title=" ">
<polygon fill="white" stroke="#666666" points="1231.5,-129 1140.5,-129 1140.5,-110 1231.5,-110 1231.5,-129"/>
<text text-anchor="middle" x="1186" y="-117" font-family="Helvetica,sans-Serif" font-size="10.00">RadioStorage.h</text>
</a>
</g>
</g>
<!-- Node1&#45;&gt;Node19 -->
<g id="edge25_Node000001_Node000019" class="edge">
<title>Node1&#45;&gt;Node19</title>
<g id="a_edge25_Node000001_Node000019"><a xlink:title=" ">
<path fill="none" stroke="#63b8ff" d="M820.84,-166.43C891.63,-157.74 1015.15,-142.5 1121,-129 1127.21,-128.21 1133.75,-127.36 1140.19,-126.53"/>
<polygon fill="#63b8ff" stroke="#63b8ff" points="820.28,-162.97 810.79,-167.66 821.14,-169.91 820.28,-162.97"/>
</a>
</g>
</g>
<!-- Node21 -->
<g id="Node000021" class="node">
<title>Node21</title>
<g id="a_Node000021"><a xlink:href="SHTC3Sensor_8h.html" target="_top" xlink:title=" ">
<polygon fill="white" stroke="#666666" points="300.5,-129 211.5,-129 211.5,-110 300.5,-110 300.5,-129"/>
<text text-anchor="middle" x="256" y="-117" font-family="Helvetica,sans-Serif" font-size="10.00">SHTC3Sensor.h</text>
</a>
</g>
</g>
<!-- Node1&#45;&gt;Node21 -->
<g id="edge29_Node000001_Node000021" class="edge">
<title>Node1&#45;&gt;Node21</title>
<g id="a_edge29_Node000001_Node000021"><a xlink:title=" ">
<path fill="none" stroke="#63b8ff" d="M705.05,-168.96C618.61,-161.94 450.9,-147.32 309,-129 306.23,-128.64 303.38,-128.25 300.5,-127.84"/>
<polygon fill="#63b8ff" stroke="#63b8ff" points="704.93,-172.47 715.18,-169.78 705.49,-165.49 704.93,-172.47"/>
</a>
</g>
</g>
<!-- Node23 -->
<g id="Node000023" class="node">
<title>Node23</title>
<g id="a_Node000023"><a xlink:href="TMP11xSensor_8h.html" target="_top" xlink:title=" ">
<polygon fill="white" stroke="#666666" points="528.5,-129 431.5,-129 431.5,-110 528.5,-110 528.5,-129"/>
<text text-anchor="middle" x="480" y="-117" font-family="Helvetica,sans-Serif" font-size="10.00">TMP11xSensor.h</text>
</a>
</g>
</g>
<!-- Node1&#45;&gt;Node23 -->
<g id="edge33_Node000001_Node000023" class="edge">
<title>Node1&#45;&gt;Node23</title>
<g id="a_edge33_Node000001_Node000023"><a xlink:title=" ">
<path fill="none" stroke="#63b8ff" d="M707.61,-163.13C654.56,-153.19 575.43,-138.37 525.83,-129.08"/>
<polygon fill="#63b8ff" stroke="#63b8ff" points="707.06,-166.58 717.53,-164.98 708.35,-159.7 707.06,-166.58"/>
</a>
</g>
</g>
<!-- Node3 -->
<g id="Node000003" class="node">
<title>Node3</title>
<g id="a_Node000003"><a xlink:href="AS7331Sensor_8cpp.html" target="_top" xlink:title=" ">
<polygon fill="white" stroke="#666666" points="106,-74 0,-74 0,-55 106,-55 106,-74"/>
<text text-anchor="middle" x="53" y="-62" font-family="Helvetica,sans-Serif" font-size="10.00">AS7331Sensor.cpp</text>
</a>
</g>
</g>
<!-- Node2&#45;&gt;Node3 -->
<g id="edge2_Node000002_Node000003" class="edge">
<title>Node2&#45;&gt;Node3</title>
<g id="a_edge2_Node000002_Node000003"><a xlink:title=" ">
<path fill="none" stroke="#63b8ff" d="M122.25,-104.97C105.25,-95.28 82.87,-82.52 68.21,-74.17"/>
<polygon fill="#63b8ff" stroke="#63b8ff" points="120.64,-108.07 131.06,-109.98 124.1,-101.99 120.64,-108.07"/>
</a>
</g>
</g>
<!-- Node2&#45;&gt;Node4 -->
<g id="edge3_Node000002_Node000004" class="edge">
<title>Node2&#45;&gt;Node4</title>
<g id="a_edge3_Node000002_Node000004"><a xlink:title=" ">
<path fill="none" stroke="#63b8ff" d="M203.69,-109.8C329.73,-92.58 363.74,-94.7 486,-74 488.8,-73.53 491.7,-72.99 494.6,-72.43"/>
<polygon fill="#63b8ff" stroke="#63b8ff" points="203.07,-106.35 193.65,-111.19 204.03,-113.29 203.07,-106.35"/>
</a>
</g>
</g>
<!-- Node5&#45;&gt;Node4 -->
<g id="edge6_Node000005_Node000004" class="edge">
<title>Node5&#45;&gt;Node4</title>
<g id="a_edge6_Node000005_Node000004"><a xlink:title=" ">
<path fill="none" stroke="#63b8ff" d="M401.33,-106.8C431.19,-96.91 473.27,-82.97 500.09,-74.08"/>
<polygon fill="#63b8ff" stroke="#63b8ff" points="400.1,-103.52 391.71,-109.98 402.3,-110.16 400.1,-103.52"/>
</a>
</g>
</g>
<!-- Node6 -->
<g id="Node000006" class="node">
<title>Node6</title>
<g id="a_Node000006"><a xlink:href="ENS160Sensor_8cpp.html" target="_top" xlink:title=" ">
<polygon fill="white" stroke="#666666" points="350.5,-74 243.5,-74 243.5,-55 350.5,-55 350.5,-74"/>
<text text-anchor="middle" x="297" y="-62" font-family="Helvetica,sans-Serif" font-size="10.00">ENS160Sensor.cpp</text>
</a>
</g>
</g>
<!-- Node5&#45;&gt;Node6 -->
<g id="edge5_Node000005_Node000006" class="edge">
<title>Node5&#45;&gt;Node6</title>
<g id="a_edge5_Node000005_Node000006"><a xlink:title=" ">
<path fill="none" stroke="#63b8ff" d="M346.96,-103.88C334.54,-94.34 318.76,-82.21 308.29,-74.17"/>
<polygon fill="#63b8ff" stroke="#63b8ff" points="344.85,-106.67 354.91,-109.98 349.12,-101.12 344.85,-106.67"/>
</a>
</g>
</g>
<!-- Node7&#45;&gt;Node4 -->
<g id="edge11_Node000007_Node000004" class="edge">
<title>Node7&#45;&gt;Node4</title>
<g id="a_edge11_Node000007_Node000004"><a xlink:title=" ">
<path fill="none" stroke="#63b8ff" d="M968.7,-113.46C851.22,-102.13 575.86,-75.53 566,-74 563.19,-73.57 560.29,-73.06 557.38,-72.52"/>
<polygon fill="#63b8ff" stroke="#63b8ff" points="968.6,-116.97 978.89,-114.44 969.27,-110 968.6,-116.97"/>
</a>
</g>
</g>
<!-- Node7&#45;&gt;Node8 -->
<g id="edge8_Node000007_Node000008" class="edge">
<title>Node7&#45;&gt;Node8</title>
<g id="a_edge8_Node000007_Node000008"><a xlink:title=" ">
<path fill="none" stroke="#63b8ff" d="M1014.45,-100.24C1011.28,-91.37 1007.61,-81.14 1005.08,-74.09"/>
<polygon fill="#63b8ff" stroke="#63b8ff" points="1011.19,-101.52 1017.86,-109.75 1017.78,-99.15 1011.19,-101.52"/>
</a>
</g>
</g>
<!-- Node7&#45;&gt;Node10 -->
<g id="edge12_Node000007_Node000010" class="edge">
<title>Node7&#45;&gt;Node10</title>
<g id="a_edge12_Node000007_Node000010"><a xlink:title=" ">
<path fill="none" stroke="#63b8ff" d="M1034.38,-101.69C1052.96,-78.37 1085.86,-37.05 1100.11,-19.16"/>
<polygon fill="#63b8ff" stroke="#63b8ff" points="1031.53,-99.66 1028.04,-109.66 1037.01,-104.02 1031.53,-99.66"/>
</a>
</g>
</g>
<!-- Node9 -->
<g id="Node000009" class="node">
<title>Node9</title>
<g id="a_Node000009"><a xlink:href="SDStorage_8cpp.html" target="_top" xlink:title=" ">
<polygon fill="white" stroke="#666666" points="1046,-19 958,-19 958,0 1046,0 1046,-19"/>
<text text-anchor="middle" x="1002" y="-7" font-family="Helvetica,sans-Serif" font-size="10.00">SDStorage.cpp</text>
</a>
</g>
</g>
<!-- Node8&#45;&gt;Node9 -->
<g id="edge9_Node000008_Node000009" class="edge">
<title>Node8&#45;&gt;Node9</title>
<g id="a_edge9_Node000008_Node000009"><a xlink:title=" ">
<path fill="none" stroke="#63b8ff" d="M1002,-44.66C1002,-35.93 1002,-25.99 1002,-19.09"/>
<polygon fill="#63b8ff" stroke="#63b8ff" points="998.5,-44.75 1002,-54.75 1005.5,-44.75 998.5,-44.75"/>
</a>
</g>
</g>
<!-- Node8&#45;&gt;Node10 -->
<g id="edge10_Node000008_Node000010" class="edge">
<title>Node8&#45;&gt;Node10</title>
<g id="a_edge10_Node000008_Node000010"><a xlink:title=" ">
<path fill="none" stroke="#63b8ff" d="M1028.02,-50.37C1047.3,-40.63 1073.05,-27.64 1089.82,-19.17"/>
<polygon fill="#63b8ff" stroke="#63b8ff" points="1026.22,-47.35 1018.87,-54.98 1029.37,-53.6 1026.22,-47.35"/>
</a>
</g>
</g>
<!-- Node11&#45;&gt;Node10 -->
<g id="edge15_Node000011_Node000010" class="edge">
<title>Node11&#45;&gt;Node10</title>
<g id="a_edge15_Node000011_Node000010"><a xlink:title=" ">
<path fill="none" stroke="#63b8ff" d="M1371.57,-105.1C1393.93,-92.48 1419.4,-72.88 1404,-55 1370.4,-15.99 1211.87,-10.69 1141.18,-10.3"/>
<polygon fill="#63b8ff" stroke="#63b8ff" points="1369.78,-102.09 1362.62,-109.9 1373.09,-108.26 1369.78,-102.09"/>
</a>
</g>
</g>
<!-- Node12 -->
<g id="Node000012" class="node">
<title>Node12</title>
<g id="a_Node000012"><a xlink:href="FlashStorage_8cpp.html" target="_top" xlink:title=" ">
<polygon fill="white" stroke="#666666" points="1394.5,-74 1293.5,-74 1293.5,-55 1394.5,-55 1394.5,-74"/>
<text text-anchor="middle" x="1344" y="-62" font-family="Helvetica,sans-Serif" font-size="10.00">FlashStorage.cpp</text>
</a>
</g>
</g>
<!-- Node11&#45;&gt;Node12 -->
<g id="edge14_Node000011_Node000012" class="edge">
<title>Node11&#45;&gt;Node12</title>
<g id="a_edge14_Node000011_Node000012"><a xlink:title=" ">
<path fill="none" stroke="#63b8ff" d="M1344,-99.66C1344,-90.93 1344,-80.99 1344,-74.09"/>
<polygon fill="#63b8ff" stroke="#63b8ff" points="1340.5,-99.75 1344,-109.75 1347.5,-99.75 1340.5,-99.75"/>
</a>
</g>
</g>
<!-- Node13&#45;&gt;Node4 -->
<g id="edge18_Node000013_Node000004" class="edge">
<title>Node13&#45;&gt;Node4</title>
<g id="a_edge18_Node000013_Node000004"><a xlink:title=" ">
<path fill="none" stroke="#63b8ff" d="M611.57,-105.63C590.75,-95.87 562.7,-82.71 544.49,-74.17"/>
<polygon fill="#63b8ff" stroke="#63b8ff" points="610.3,-108.91 620.84,-109.98 613.28,-102.57 610.3,-108.91"/>
</a>
</g>
</g>
<!-- Node14 -->
<g id="Node000014" class="node">
<title>Node14</title>
<g id="a_Node000014"><a xlink:href="ICM20948Sensor_8cpp.html" target="_top" xlink:title=" ">
<polygon fill="white" stroke="#666666" points="693,-74 575,-74 575,-55 693,-55 693,-74"/>
<text text-anchor="middle" x="634" y="-62" font-family="Helvetica,sans-Serif" font-size="10.00">ICM20948Sensor.cpp</text>
</a>
</g>
</g>
<!-- Node13&#45;&gt;Node14 -->
<g id="edge17_Node000013_Node000014" class="edge">
<title>Node13&#45;&gt;Node14</title>
<g id="a_edge17_Node000013_Node000014"><a xlink:title=" ">
<path fill="none" stroke="#63b8ff" d="M637.22,-99.66C636.4,-90.93 635.46,-80.99 634.81,-74.09"/>
<polygon fill="#63b8ff" stroke="#63b8ff" points="633.75,-100.12 638.17,-109.75 640.72,-99.46 633.75,-100.12"/>
</a>
</g>
</g>
<!-- Node15&#45;&gt;Node4 -->
<g id="edge21_Node000015_Node000004" class="edge">
<title>Node15&#45;&gt;Node4</title>
<g id="a_edge21_Node000015_Node000004"><a xlink:title=" ">
<path fill="none" stroke="#63b8ff" d="M714.95,-107.75C667.84,-97.22 597.41,-81.47 557.17,-72.47"/>
<polygon fill="#63b8ff" stroke="#63b8ff" points="714.4,-111.22 724.92,-109.98 715.93,-104.39 714.4,-111.22"/>
</a>
</g>
</g>
<!-- Node16 -->
<g id="Node000016" class="node">
<title>Node16</title>
<g id="a_Node000016"><a xlink:href="MTK3339Sensor_8cpp.html" target="_top" xlink:title=" ">
<polygon fill="white" stroke="#666666" points="826.5,-74 711.5,-74 711.5,-55 826.5,-55 826.5,-74"/>
<text text-anchor="middle" x="769" y="-62" font-family="Helvetica,sans-Serif" font-size="10.00">MTK3339Sensor.cpp</text>
</a>
</g>
</g>
<!-- Node15&#45;&gt;Node16 -->
<g id="edge20_Node000015_Node000016" class="edge">
<title>Node15&#45;&gt;Node16</title>
<g id="a_edge20_Node000015_Node000016"><a xlink:title=" ">
<path fill="none" stroke="#63b8ff" d="M765.13,-99.66C766.12,-90.93 767.25,-80.99 768.03,-74.09"/>
<polygon fill="#63b8ff" stroke="#63b8ff" points="761.64,-99.42 763.99,-109.75 768.59,-100.21 761.64,-99.42"/>
</a>
</g>
</g>
<!-- Node17&#45;&gt;Node4 -->
<g id="edge24_Node000017_Node000004" class="edge">
<title>Node17&#45;&gt;Node4</title>
<g id="a_edge24_Node000017_Node000004"><a xlink:title=" ">
<path fill="none" stroke="#63b8ff" d="M823.28,-109.92C707.8,-93.04 676.91,-93.5 566,-74 563.2,-73.51 560.3,-72.96 557.4,-72.39"/>
<polygon fill="#63b8ff" stroke="#63b8ff" points="822.82,-113.39 833.22,-111.39 823.84,-106.47 822.82,-113.39"/>
</a>
</g>
</g>
<!-- Node18 -->
<g id="Node000018" class="node">
<title>Node18</title>
<g id="a_Node000018"><a xlink:href="OzoneSensor_8cpp.html" target="_top" xlink:title=" ">
<polygon fill="white" stroke="#666666" points="945,-74 845,-74 845,-55 945,-55 945,-74"/>
<text text-anchor="middle" x="895" y="-62" font-family="Helvetica,sans-Serif" font-size="10.00">OzoneSensor.cpp</text>
</a>
</g>
</g>
<!-- Node17&#45;&gt;Node18 -->
<g id="edge23_Node000017_Node000018" class="edge">
<title>Node17&#45;&gt;Node18</title>
<g id="a_edge23_Node000017_Node000018"><a xlink:title=" ">
<path fill="none" stroke="#63b8ff" d="M883.95,-99.95C886.77,-91.15 890.01,-81.06 892.25,-74.09"/>
<polygon fill="#63b8ff" stroke="#63b8ff" points="880.53,-99.16 880.81,-109.75 887.19,-101.29 880.53,-99.16"/>
</a>
</g>
</g>
<!-- Node19&#45;&gt;Node10 -->
<g id="edge27_Node000019_Node000010" class="edge">
<title>Node19&#45;&gt;Node10</title>
<g id="a_edge27_Node000019_Node000010"><a xlink:title=" ">
<path fill="none" stroke="#63b8ff" d="M1213.91,-105.07C1235.54,-92.8 1259.69,-73.76 1246,-55 1222.17,-22.36 1174.08,-13.11 1141.21,-10.79"/>
<polygon fill="#63b8ff" stroke="#63b8ff" points="1212.08,-102.08 1204.92,-109.89 1215.39,-108.25 1212.08,-102.08"/>
</a>
</g>
</g>
<!-- Node20 -->
<g id="Node000020" class="node">
<title>Node20</title>
<g id="a_Node000020"><a xlink:href="RadioStorage_8cpp.html" target="_top" xlink:title=" ">
<polygon fill="white" stroke="#666666" points="1237,-74 1135,-74 1135,-55 1237,-55 1237,-74"/>
<text text-anchor="middle" x="1186" y="-62" font-family="Helvetica,sans-Serif" font-size="10.00">RadioStorage.cpp</text>
</a>
</g>
</g>
<!-- Node19&#45;&gt;Node20 -->
<g id="edge26_Node000019_Node000020" class="edge">
<title>Node19&#45;&gt;Node20</title>
<g id="a_edge26_Node000019_Node000020"><a xlink:title=" ">
<path fill="none" stroke="#63b8ff" d="M1186,-99.66C1186,-90.93 1186,-80.99 1186,-74.09"/>
<polygon fill="#63b8ff" stroke="#63b8ff" points="1182.5,-99.75 1186,-109.75 1189.5,-99.75 1182.5,-99.75"/>
</a>
</g>
</g>
<!-- Node21&#45;&gt;Node4 -->
<g id="edge32_Node000021_Node000004" class="edge">
<title>Node21&#45;&gt;Node4</title>
<g id="a_edge32_Node000021_Node000004"><a xlink:title=" ">
<path fill="none" stroke="#63b8ff" d="M310.46,-108.25C357.1,-99.41 426.03,-86.17 486,-74 488.78,-73.44 491.67,-72.84 494.57,-72.24"/>
<polygon fill="#63b8ff" stroke="#63b8ff" points="309.74,-104.83 300.57,-110.13 311.05,-111.7 309.74,-104.83"/>
</a>
</g>
</g>
<!-- Node21&#45;&gt;Node6 -->
<g id="edge30_Node000021_Node000006" class="edge">
<title>Node21&#45;&gt;Node6</title>
<g id="a_edge30_Node000021_Node000006"><a xlink:title=" ">
<path fill="none" stroke="#63b8ff" d="M269.02,-101.67C276.12,-92.5 284.6,-81.52 290.36,-74.09"/>
<polygon fill="#63b8ff" stroke="#63b8ff" points="266.12,-99.7 262.77,-109.75 271.66,-103.98 266.12,-99.7"/>
</a>
</g>
</g>
<!-- Node22 -->
<g id="Node000022" class="node">
<title>Node22</title>
<g id="a_Node000022"><a xlink:href="SHTC3Sensor_8cpp.html" target="_top" xlink:title=" ">
<polygon fill="white" stroke="#666666" points="225.5,-74 124.5,-74 124.5,-55 225.5,-55 225.5,-74"/>
<text text-anchor="middle" x="175" y="-62" font-family="Helvetica,sans-Serif" font-size="10.00">SHTC3Sensor.cpp</text>
</a>
</g>
</g>
<!-- Node21&#45;&gt;Node22 -->
<g id="edge31_Node000021_Node000022" class="edge">
<title>Node21&#45;&gt;Node22</title>
<g id="a_edge31_Node000021_Node000022"><a xlink:title=" ">
<path fill="none" stroke="#63b8ff" d="M234.49,-104.42C219.79,-94.81 200.78,-82.37 188.25,-74.17"/>
<polygon fill="#63b8ff" stroke="#63b8ff" points="232.7,-107.44 242.99,-109.98 236.53,-101.58 232.7,-107.44"/>
</a>
</g>
</g>
<!-- Node23&#45;&gt;Node4 -->
<g id="edge36_Node000023_Node000004" class="edge">
<title>Node23&#45;&gt;Node4</title>
<g id="a_edge36_Node000023_Node000004"><a xlink:title=" ">
<path fill="none" stroke="#63b8ff" d="M494.36,-101.96C502.37,-92.72 512.03,-81.6 518.55,-74.09"/>
<polygon fill="#63b8ff" stroke="#63b8ff" points="491.51,-99.9 487.6,-109.75 496.79,-104.49 491.51,-99.9"/>
</a>
</g>
</g>
<!-- Node23&#45;&gt;Node6 -->
<g id="edge34_Node000023_Node000006" class="edge">
<title>Node23&#45;&gt;Node6</title>
<g id="a_edge34_Node000023_Node000006"><a xlink:title=" ">
<path fill="none" stroke="#63b8ff" d="M440.93,-107.18C406.7,-97.27 357.71,-83.08 326.63,-74.08"/>
<polygon fill="#63b8ff" stroke="#63b8ff" points="440.02,-110.56 450.6,-109.98 441.97,-103.84 440.02,-110.56"/>
</a>
</g>
</g>
<!-- Node24 -->
<g id="Node000024" class="node">
<title>Node24</title>
<g id="a_Node000024"><a xlink:href="TMP11xSensor_8cpp.html" target="_top" xlink:title=" ">
<polygon fill="white" stroke="#666666" points="477,-74 369,-74 369,-55 477,-55 477,-74"/>
<text text-anchor="middle" x="423" y="-62" font-family="Helvetica,sans-Serif" font-size="10.00">TMP11xSensor.cpp</text>
</a>
</g>
</g>
<!-- Node23&#45;&gt;Node24 -->
<g id="edge35_Node000023_Node000024" class="edge">
<title>Node23&#45;&gt;Node24</title>
<g id="a_edge35_Node000023_Node000024"><a xlink:title=" ">
<path fill="none" stroke="#63b8ff" d="M463.38,-103.04C453.27,-93.64 440.72,-81.98 432.32,-74.17"/>
<polygon fill="#63b8ff" stroke="#63b8ff" points="461.14,-105.74 470.84,-109.98 465.9,-100.61 461.14,-105.74"/>
</a>
</g>
</g>
</g>
</svg>
