<?xml version="1.0" encoding="UTF-8" standalone="no"?>
<!DOCTYPE svg PUBLIC "-//W3C//DTD SVG 1.1//EN"
 "http://www.w3.org/Graphics/SVG/1.1/DTD/svg11.dtd">
<!-- Generated by graphviz version 2.43.0 (0)
 -->
<!-- Title: PayloadConfig.h Pages: 1 -->
<svg width="1487pt" height="192pt"
 viewBox="0.00 0.00 1486.50 192.00" xmlns="http://www.w3.org/2000/svg" xmlns:xlink="http://www.w3.org/1999/xlink">
<g id="graph0" class="graph" transform="scale(1 1) rotate(0) translate(4 188)">
<title>PayloadConfig.h</title>
<!-- Node1 -->
<g id="Node000001" class="node">
<title>Node1</title>
<g id="a_Node000001"><a xlink:title="Central location for pinout and config defines.">
<polygon fill="#999999" stroke="#666666" points="883.5,-184 788.5,-184 788.5,-165 883.5,-165 883.5,-184"/>
<text text-anchor="middle" x="836" y="-172" font-family="Helvetica,sans-Serif" font-size="10.00">PayloadConfig.h</text>
</a>
</g>
</g>
<!-- Node2 -->
<g id="Node000002" class="node">
<title>Node2</title>
<g id="a_Node000002"><a xlink:href="AS7331Sensor_8h.html" target="_top" xlink:title=" ">
<polygon fill="white" stroke="#666666" points="209.5,-129 114.5,-129 114.5,-110 209.5,-110 209.5,-129"/>
<text text-anchor="middle" x="162" y="-117" font-family="Helvetica,sans-Serif" font-size="10.00">AS7331Sensor.h</text>
</a>
</g>
</g>
<!-- Node1&#45;&gt;Node2 -->
<g id="edge1_Node000001_Node000002" class="edge">
<title>Node1&#45;&gt;Node2</title>
<g id="a_edge1_Node000001_Node000002"><a xlink:title=" ">
<path fill="none" stroke="#63b8ff" d="M778.02,-170.85C668.39,-165.5 423.31,-151.94 218,-129 215.26,-128.69 212.46,-128.35 209.63,-127.99"/>
<polygon fill="#63b8ff" stroke="#63b8ff" points="778.04,-174.36 788.2,-171.34 778.38,-167.36 778.04,-174.36"/>
</a>
</g>
</g>
<!-- Node4 -->
<g id="Node000004" class="node">
<title>Node4</title>
<g id="a_Node000004"><a xlink:href="main_8cpp.html" target="_top" xlink:title="Main functions for Core 0, responsible for reading data from sensor peripherals.">
<polygon fill="white" stroke="#666666" points="557,-74 495,-74 495,-55 557,-55 557,-74"/>
<text text-anchor="middle" x="526" y="-62" font-family="Helvetica,sans-Serif" font-size="10.00">main.cpp</text>
</a>
</g>
</g>
<!-- Node1&#45;&gt;Node4 -->
<g id="edge38_Node000001_Node000004" class="edge">
<title>Node1&#45;&gt;Node4</title>
<g id="a_edge38_Node000001_Node000004"><a xlink:title=" ">
<path fill="none" stroke="#63b8ff" d="M778.02,-172.11C726.84,-168.8 651.49,-158.7 593,-129 566.42,-115.5 543.1,-88.1 532.33,-74.12"/>
<polygon fill="#63b8ff" stroke="#63b8ff" points="778.05,-175.62 788.24,-172.7 778.46,-168.63 778.05,-175.62"/>
</a>
</g>
</g>
<!-- Node5 -->
<g id="Node000005" class="node">
<title>Node5</title>
<g id="a_Node000005"><a xlink:href="AnalogTemp_8cpp.html" target="_top" xlink:title=" ">
<polygon fill="white" stroke="#666666" points="1478.5,-129 1381.5,-129 1381.5,-110 1478.5,-110 1478.5,-129"/>
<text text-anchor="middle" x="1430" y="-117" font-family="Helvetica,sans-Serif" font-size="10.00">AnalogTemp.cpp</text>
</a>
</g>
</g>
<!-- Node1&#45;&gt;Node5 -->
<g id="edge4_Node000001_Node000005" class="edge">
<title>Node1&#45;&gt;Node5</title>
<g id="a_edge4_Node000001_Node000005"><a xlink:title=" ">
<path fill="none" stroke="#63b8ff" d="M893.55,-169.97C991.98,-163.66 1198.88,-149.17 1373,-129 1375.68,-128.69 1378.43,-128.35 1381.21,-127.99"/>
<polygon fill="#63b8ff" stroke="#63b8ff" points="893.27,-166.48 883.51,-170.61 893.72,-173.47 893.27,-166.48"/>
</a>
</g>
</g>
<!-- Node6 -->
<g id="Node000006" class="node">
<title>Node6</title>
<g id="a_Node000006"><a xlink:href="ENS160Sensor_8h.html" target="_top" xlink:title=" ">
<polygon fill="white" stroke="#666666" points="544.5,-129 449.5,-129 449.5,-110 544.5,-110 544.5,-129"/>
<text text-anchor="middle" x="497" y="-117" font-family="Helvetica,sans-Serif" font-size="10.00">ENS160Sensor.h</text>
</a>
</g>
</g>
<!-- Node1&#45;&gt;Node6 -->
<g id="edge5_Node000001_Node000006" class="edge">
<title>Node1&#45;&gt;Node6</title>
<g id="a_edge5_Node000001_Node000006"><a xlink:title=" ">
<path fill="none" stroke="#63b8ff" d="M777.93,-164.42C712.04,-154.12 605.82,-137.51 544.61,-127.94"/>
<polygon fill="#63b8ff" stroke="#63b8ff" points="777.73,-167.93 788.15,-166.02 778.81,-161.02 777.73,-167.93"/>
</a>
</g>
</g>
<!-- Node8 -->
<g id="Node000008" class="node">
<title>Node8</title>
<g id="a_Node000008"><a xlink:href="ErrorDisplay_8h.html" target="_top" xlink:title=" ">
<polygon fill="white" stroke="#666666" points="1079,-129 995,-129 995,-110 1079,-110 1079,-129"/>
<text text-anchor="middle" x="1037" y="-117" font-family="Helvetica,sans-Serif" font-size="10.00">ErrorDisplay.h</text>
</a>
</g>
</g>
<!-- Node1&#45;&gt;Node8 -->
<g id="edge8_Node000001_Node000008" class="edge">
<title>Node1&#45;&gt;Node8</title>
<g id="a_edge8_Node000001_Node000008"><a xlink:title=" ">
<path fill="none" stroke="#63b8ff" d="M878.43,-162.31C916.04,-152.39 970.17,-138.12 1004.45,-129.08"/>
<polygon fill="#63b8ff" stroke="#63b8ff" points="877.07,-159.05 868.29,-164.98 878.86,-165.82 877.07,-159.05"/>
</a>
</g>
</g>
<!-- Node9 -->
<g id="Node000009" class="node">
<title>Node9</title>
<g id="a_Node000009"><a xlink:href="SDStorage_8h.html" target="_top" xlink:title=" ">
<polygon fill="white" stroke="#666666" points="1040.5,-74 963.5,-74 963.5,-55 1040.5,-55 1040.5,-74"/>
<text text-anchor="middle" x="1002" y="-62" font-family="Helvetica,sans-Serif" font-size="10.00">SDStorage.h</text>
</a>
</g>
</g>
<!-- Node1&#45;&gt;Node9 -->
<g id="edge29_Node000001_Node000009" class="edge">
<title>Node1&#45;&gt;Node9</title>
<g id="a_edge29_Node000001_Node000009"><a xlink:title=" ">
<path fill="none" stroke="#63b8ff" d="M879.21,-161.81C901.1,-154.57 927.36,-143.8 948,-129 969.64,-113.48 988.07,-87.47 996.72,-74.06"/>
<polygon fill="#63b8ff" stroke="#63b8ff" points="877.96,-158.53 869.49,-164.88 880.08,-165.2 877.96,-158.53"/>
</a>
</g>
</g>
<!-- Node11 -->
<g id="Node000011" class="node">
<title>Node11</title>
<g id="a_Node000011"><a xlink:href="main1_8cpp.html" target="_top" xlink:title="Main functions for Core 1, responsible for sending data to storage peripherals.">
<polygon fill="white" stroke="#666666" points="1141,-19 1073,-19 1073,0 1141,0 1141,-19"/>
<text text-anchor="middle" x="1107" y="-7" font-family="Helvetica,sans-Serif" font-size="10.00">main1.cpp</text>
</a>
</g>
</g>
<!-- Node1&#45;&gt;Node11 -->
<g id="edge39_Node000001_Node000011" class="edge">
<title>Node1&#45;&gt;Node11</title>
<g id="a_edge39_Node000001_Node000011"><a xlink:title=" ">
<path fill="none" stroke="#63b8ff" d="M893.9,-170.88C959.75,-166.63 1061.6,-155.82 1088,-129 1117.96,-98.56 1112.12,-40.88 1108.61,-19.11"/>
<polygon fill="#63b8ff" stroke="#63b8ff" points="893.42,-167.4 883.65,-171.5 893.85,-174.39 893.42,-167.4"/>
</a>
</g>
</g>
<!-- Node12 -->
<g id="Node000012" class="node">
<title>Node12</title>
<g id="a_Node000012"><a xlink:href="FlashStorage_8h.html" target="_top" xlink:title=" ">
<polygon fill="white" stroke="#666666" points="1363.5,-129 1274.5,-129 1274.5,-110 1363.5,-110 1363.5,-129"/>
<text text-anchor="middle" x="1319" y="-117" font-family="Helvetica,sans-Serif" font-size="10.00">FlashStorage.h</text>
</a>
</g>
</g>
<!-- Node1&#45;&gt;Node12 -->
<g id="edge14_Node000001_Node000012" class="edge">
<title>Node1&#45;&gt;Node12</title>
<g id="a_edge14_Node000001_Node000012"><a xlink:title=" ">
<path fill="none" stroke="#63b8ff" d="M893.6,-167.18C991,-156.49 1186.21,-135.07 1274.19,-125.42"/>
<polygon fill="#63b8ff" stroke="#63b8ff" points="893.19,-163.7 883.63,-168.27 893.96,-170.66 893.19,-163.7"/>
</a>
</g>
</g>
<!-- Node14 -->
<g id="Node000014" class="node">
<title>Node14</title>
<g id="a_Node000014"><a xlink:href="ICM20948Sensor_8h.html" target="_top" xlink:title=" ">
<polygon fill="white" stroke="#666666" points="708.5,-129 601.5,-129 601.5,-110 708.5,-110 708.5,-129"/>
<text text-anchor="middle" x="655" y="-117" font-family="Helvetica,sans-Serif" font-size="10.00">ICM20948Sensor.h</text>
</a>
</g>
</g>
<!-- Node1&#45;&gt;Node14 -->
<g id="edge17_Node000001_Node000014" class="edge">
<title>Node1&#45;&gt;Node14</title>
<g id="a_edge17_Node000001_Node000014"><a xlink:title=" ">
<path fill="none" stroke="#63b8ff" d="M796.92,-162.06C763.09,-152.15 714.92,-138.04 684.31,-129.08"/>
<polygon fill="#63b8ff" stroke="#63b8ff" points="796.34,-165.53 806.92,-164.98 798.31,-158.82 796.34,-165.53"/>
</a>
</g>
</g>
<!-- Node16 -->
<g id="Node000016" class="node">
<title>Node16</title>
<g id="a_Node000016"><a xlink:href="MTK3339Sensor_8h.html" target="_top" xlink:title=" ">
<polygon fill="white" stroke="#666666" points="831,-129 727,-129 727,-110 831,-110 831,-129"/>
<text text-anchor="middle" x="779" y="-117" font-family="Helvetica,sans-Serif" font-size="10.00">MTK3339Sensor.h</text>
</a>
</g>
</g>
<!-- Node1&#45;&gt;Node16 -->
<g id="edge20_Node000001_Node000016" class="edge">
<title>Node1&#45;&gt;Node16</title>
<g id="a_edge20_Node000001_Node000016"><a xlink:title=" ">
<path fill="none" stroke="#63b8ff" d="M819.38,-158.04C809.27,-148.64 796.72,-136.98 788.32,-129.17"/>
<polygon fill="#63b8ff" stroke="#63b8ff" points="817.14,-160.74 826.84,-164.98 821.9,-155.61 817.14,-160.74"/>
</a>
</g>
</g>
<!-- Node18 -->
<g id="Node000018" class="node">
<title>Node18</title>
<g id="a_Node000018"><a xlink:href="OzoneSensor_8h.html" target="_top" xlink:title=" ">
<polygon fill="white" stroke="#666666" points="938.5,-129 849.5,-129 849.5,-110 938.5,-110 938.5,-129"/>
<text text-anchor="middle" x="894" y="-117" font-family="Helvetica,sans-Serif" font-size="10.00">OzoneSensor.h</text>
</a>
</g>
</g>
<!-- Node1&#45;&gt;Node18 -->
<g id="edge23_Node000001_Node000018" class="edge">
<title>Node1&#45;&gt;Node18</title>
<g id="a_edge23_Node000001_Node000018"><a xlink:title=" ">
<path fill="none" stroke="#63b8ff" d="M852.91,-158.04C863.2,-148.64 875.97,-136.98 884.51,-129.17"/>
<polygon fill="#63b8ff" stroke="#63b8ff" points="850.34,-155.66 845.32,-164.98 855.06,-160.82 850.34,-155.66"/>
</a>
</g>
</g>
<!-- Node20 -->
<g id="Node000020" class="node">
<title>Node20</title>
<g id="a_Node000020"><a xlink:href="RadioStorage_8h.html" target="_top" xlink:title=" ">
<polygon fill="white" stroke="#666666" points="1231.5,-129 1140.5,-129 1140.5,-110 1231.5,-110 1231.5,-129"/>
<text text-anchor="middle" x="1186" y="-117" font-family="Helvetica,sans-Serif" font-size="10.00">RadioStorage.h</text>
</a>
</g>
</g>
<!-- Node1&#45;&gt;Node20 -->
<g id="edge26_Node000001_Node000020" class="edge">
<title>Node1&#45;&gt;Node20</title>
<g id="a_edge26_Node000001_Node000020"><a xlink:title=" ">
<path fill="none" stroke="#63b8ff" d="M893.85,-164.74C963,-154.27 1077.3,-136.96 1140.48,-127.39"/>
<polygon fill="#63b8ff" stroke="#63b8ff" points="892.93,-161.34 883.57,-166.3 893.98,-168.26 892.93,-161.34"/>
</a>
</g>
</g>
<!-- Node22 -->
<g id="Node000022" class="node">
<title>Node22</title>
<g id="a_Node000022"><a xlink:href="SHTC3Sensor_8h.html" target="_top" xlink:title=" ">
<polygon fill="white" stroke="#666666" points="316.5,-129 227.5,-129 227.5,-110 316.5,-110 316.5,-129"/>
<text text-anchor="middle" x="272" y="-117" font-family="Helvetica,sans-Serif" font-size="10.00">SHTC3Sensor.h</text>
</a>
</g>
</g>
<!-- Node1&#45;&gt;Node22 -->
<g id="edge30_Node000001_Node000022" class="edge">
<title>Node1&#45;&gt;Node22</title>
<g id="a_edge30_Node000001_Node000022"><a xlink:title=" ">
<path fill="none" stroke="#63b8ff" d="M778.08,-169.82C683.19,-163.49 488.77,-149.24 325,-129 322.32,-128.67 319.56,-128.3 316.79,-127.92"/>
<polygon fill="#63b8ff" stroke="#63b8ff" points="778.12,-173.33 788.33,-170.5 778.58,-166.35 778.12,-173.33"/>
</a>
</g>
</g>
<!-- Node24 -->
<g id="Node000024" class="node">
<title>Node24</title>
<g id="a_Node000024"><a xlink:href="TMP11xSensor_8h.html" target="_top" xlink:title=" ">
<polygon fill="white" stroke="#666666" points="431.5,-129 334.5,-129 334.5,-110 431.5,-110 431.5,-129"/>
<text text-anchor="middle" x="383" y="-117" font-family="Helvetica,sans-Serif" font-size="10.00">TMP11xSensor.h</text>
</a>
</g>
</g>
<!-- Node1&#45;&gt;Node24 -->
<g id="edge34_Node000001_Node000024" class="edge">
<title>Node1&#45;&gt;Node24</title>
<g id="a_edge34_Node000001_Node000024"><a xlink:title=" ">
<path fill="none" stroke="#63b8ff" d="M778.39,-167.69C701.24,-159.75 560.14,-144.7 440,-129 437.32,-128.65 434.57,-128.28 431.8,-127.9"/>
<polygon fill="#63b8ff" stroke="#63b8ff" points="778.08,-171.17 788.39,-168.71 778.8,-164.21 778.08,-171.17"/>
</a>
</g>
</g>
<!-- Node3 -->
<g id="Node000003" class="node">
<title>Node3</title>
<g id="a_Node000003"><a xlink:href="AS7331Sensor_8cpp.html" target="_top" xlink:title=" ">
<polygon fill="white" stroke="#666666" points="106,-74 0,-74 0,-55 106,-55 106,-74"/>
<text text-anchor="middle" x="53" y="-62" font-family="Helvetica,sans-Serif" font-size="10.00">AS7331Sensor.cpp</text>
</a>
</g>
</g>
<!-- Node2&#45;&gt;Node3 -->
<g id="edge2_Node000002_Node000003" class="edge">
<title>Node2&#45;&gt;Node3</title>
<g id="a_edge2_Node000002_Node000003"><a xlink:title=" ">
<path fill="none" stroke="#63b8ff" d="M135.27,-105.5C115.21,-95.75 88.32,-82.68 70.83,-74.17"/>
<polygon fill="#63b8ff" stroke="#63b8ff" points="133.96,-108.76 144.49,-109.98 137.02,-102.46 133.96,-108.76"/>
</a>
</g>
</g>
<!-- Node2&#45;&gt;Node4 -->
<g id="edge3_Node000002_Node000004" class="edge">
<title>Node2&#45;&gt;Node4</title>
<g id="a_edge3_Node000002_Node000004"><a xlink:title=" ">
<path fill="none" stroke="#63b8ff" d="M219.88,-109.76C338.71,-93.05 370.82,-93.94 486,-74 488.8,-73.52 491.7,-72.97 494.6,-72.41"/>
<polygon fill="#63b8ff" stroke="#63b8ff" points="219.06,-106.34 209.65,-111.21 220.04,-113.27 219.06,-106.34"/>
</a>
</g>
</g>
<!-- Node6&#45;&gt;Node4 -->
<g id="edge7_Node000006_Node000004" class="edge">
<title>Node6&#45;&gt;Node4</title>
<g id="a_edge7_Node000006_Node000004"><a xlink:title=" ">
<path fill="none" stroke="#63b8ff" d="M506.68,-100.82C511.6,-91.82 517.36,-81.29 521.3,-74.09"/>
<polygon fill="#63b8ff" stroke="#63b8ff" points="503.52,-99.3 501.79,-109.75 509.66,-102.66 503.52,-99.3"/>
</a>
</g>
</g>
<!-- Node7 -->
<g id="Node000007" class="node">
<title>Node7</title>
<g id="a_Node000007"><a xlink:href="ENS160Sensor_8cpp.html" target="_top" xlink:title=" ">
<polygon fill="white" stroke="#666666" points="350.5,-74 243.5,-74 243.5,-55 350.5,-55 350.5,-74"/>
<text text-anchor="middle" x="297" y="-62" font-family="Helvetica,sans-Serif" font-size="10.00">ENS160Sensor.cpp</text>
</a>
</g>
</g>
<!-- Node6&#45;&gt;Node7 -->
<g id="edge6_Node000006_Node000007" class="edge">
<title>Node6&#45;&gt;Node7</title>
<g id="a_edge6_Node000006_Node000007"><a xlink:title=" ">
<path fill="none" stroke="#63b8ff" d="M454.78,-107.31C417.35,-97.39 363.5,-83.12 329.39,-74.08"/>
<polygon fill="#63b8ff" stroke="#63b8ff" points="454.3,-110.81 464.87,-109.98 456.1,-104.04 454.3,-110.81"/>
</a>
</g>
</g>
<!-- Node8&#45;&gt;Node4 -->
<g id="edge12_Node000008_Node000004" class="edge">
<title>Node8&#45;&gt;Node4</title>
<g id="a_edge12_Node000008_Node000004"><a xlink:title=" ">
<path fill="none" stroke="#63b8ff" d="M984.92,-113.52C972.81,-112.36 959.95,-111.13 948,-110 778.23,-93.89 734.57,-99.77 566,-74 563.19,-73.57 560.29,-73.07 557.38,-72.53"/>
<polygon fill="#63b8ff" stroke="#63b8ff" points="984.61,-117 994.9,-114.47 985.27,-110.03 984.61,-117"/>
</a>
</g>
</g>
<!-- Node8&#45;&gt;Node9 -->
<g id="edge9_Node000008_Node000009" class="edge">
<title>Node8&#45;&gt;Node9</title>
<g id="a_edge9_Node000008_Node000009"><a xlink:title=" ">
<path fill="none" stroke="#63b8ff" d="M1025.7,-101.39C1019.68,-92.27 1012.53,-81.45 1007.67,-74.09"/>
<polygon fill="#63b8ff" stroke="#63b8ff" points="1022.79,-103.33 1031.22,-109.75 1028.63,-99.47 1022.79,-103.33"/>
</a>
</g>
</g>
<!-- Node8&#45;&gt;Node11 -->
<g id="edge13_Node000008_Node000011" class="edge">
<title>Node8&#45;&gt;Node11</title>
<g id="a_edge13_Node000008_Node000011"><a xlink:title=" ">
<path fill="none" stroke="#63b8ff" d="M1048.3,-101.07C1063.48,-77.64 1089.89,-36.89 1101.39,-19.16"/>
<polygon fill="#63b8ff" stroke="#63b8ff" points="1045.23,-99.37 1042.73,-109.66 1051.1,-103.17 1045.23,-99.37"/>
</a>
</g>
</g>
<!-- Node10 -->
<g id="Node000010" class="node">
<title>Node10</title>
<g id="a_Node000010"><a xlink:href="SDStorage_8cpp.html" target="_top" xlink:title=" ">
<polygon fill="white" stroke="#666666" points="1046,-19 958,-19 958,0 1046,0 1046,-19"/>
<text text-anchor="middle" x="1002" y="-7" font-family="Helvetica,sans-Serif" font-size="10.00">SDStorage.cpp</text>
</a>
</g>
</g>
<!-- Node9&#45;&gt;Node10 -->
<g id="edge10_Node000009_Node000010" class="edge">
<title>Node9&#45;&gt;Node10</title>
<g id="a_edge10_Node000009_Node000010"><a xlink:title=" ">
<path fill="none" stroke="#63b8ff" d="M1002,-44.66C1002,-35.93 1002,-25.99 1002,-19.09"/>
<polygon fill="#63b8ff" stroke="#63b8ff" points="998.5,-44.75 1002,-54.75 1005.5,-44.75 998.5,-44.75"/>
</a>
</g>
</g>
<!-- Node9&#45;&gt;Node11 -->
<g id="edge11_Node000009_Node000011" class="edge">
<title>Node9&#45;&gt;Node11</title>
<g id="a_edge11_Node000009_Node000011"><a xlink:title=" ">
<path fill="none" stroke="#63b8ff" d="M1028.02,-50.37C1047.3,-40.63 1073.05,-27.64 1089.82,-19.17"/>
<polygon fill="#63b8ff" stroke="#63b8ff" points="1026.22,-47.35 1018.87,-54.98 1029.37,-53.6 1026.22,-47.35"/>
</a>
</g>
</g>
<!-- Node12&#45;&gt;Node11 -->
<g id="edge16_Node000012_Node000011" class="edge">
<title>Node12&#45;&gt;Node11</title>
<g id="a_edge16_Node000012_Node000011"><a xlink:title=" ">
<path fill="none" stroke="#63b8ff" d="M1357.63,-106.49C1388.06,-95.07 1422.49,-76.47 1404,-55 1370.4,-15.99 1211.87,-10.69 1141.18,-10.3"/>
<polygon fill="#63b8ff" stroke="#63b8ff" points="1356.21,-103.29 1347.97,-109.94 1358.56,-109.88 1356.21,-103.29"/>
</a>
</g>
</g>
<!-- Node13 -->
<g id="Node000013" class="node">
<title>Node13</title>
<g id="a_Node000013"><a xlink:href="FlashStorage_8cpp.html" target="_top" xlink:title=" ">
<polygon fill="white" stroke="#666666" points="1394.5,-74 1293.5,-74 1293.5,-55 1394.5,-55 1394.5,-74"/>
<text text-anchor="middle" x="1344" y="-62" font-family="Helvetica,sans-Serif" font-size="10.00">FlashStorage.cpp</text>
</a>
</g>
</g>
<!-- Node12&#45;&gt;Node13 -->
<g id="edge15_Node000012_Node000013" class="edge">
<title>Node12&#45;&gt;Node13</title>
<g id="a_edge15_Node000012_Node000013"><a xlink:title=" ">
<path fill="none" stroke="#63b8ff" d="M1327.48,-100.53C1331.69,-91.6 1336.59,-81.22 1339.95,-74.09"/>
<polygon fill="#63b8ff" stroke="#63b8ff" points="1324.23,-99.21 1323.13,-109.75 1330.56,-102.2 1324.23,-99.21"/>
</a>
</g>
</g>
<!-- Node14&#45;&gt;Node4 -->
<g id="edge19_Node000014_Node000004" class="edge">
<title>Node14&#45;&gt;Node4</title>
<g id="a_edge19_Node000014_Node000004"><a xlink:title=" ">
<path fill="none" stroke="#63b8ff" d="M624.96,-106.16C601.08,-96.35 568.28,-82.87 547.1,-74.17"/>
<polygon fill="#63b8ff" stroke="#63b8ff" points="623.69,-109.42 634.27,-109.98 626.35,-102.95 623.69,-109.42"/>
</a>
</g>
</g>
<!-- Node15 -->
<g id="Node000015" class="node">
<title>Node15</title>
<g id="a_Node000015"><a xlink:href="ICM20948Sensor_8cpp.html" target="_top" xlink:title=" ">
<polygon fill="white" stroke="#666666" points="693,-74 575,-74 575,-55 693,-55 693,-74"/>
<text text-anchor="middle" x="634" y="-62" font-family="Helvetica,sans-Serif" font-size="10.00">ICM20948Sensor.cpp</text>
</a>
</g>
</g>
<!-- Node14&#45;&gt;Node15 -->
<g id="edge18_Node000014_Node000015" class="edge">
<title>Node14&#45;&gt;Node15</title>
<g id="a_edge18_Node000014_Node000015"><a xlink:title=" ">
<path fill="none" stroke="#63b8ff" d="M647.76,-100.24C644.25,-91.37 640.2,-81.14 637.4,-74.09"/>
<polygon fill="#63b8ff" stroke="#63b8ff" points="644.59,-101.74 651.53,-109.75 651.1,-99.16 644.59,-101.74"/>
</a>
</g>
</g>
<!-- Node16&#45;&gt;Node4 -->
<g id="edge22_Node000016_Node000004" class="edge">
<title>Node16&#45;&gt;Node4</title>
<g id="a_edge22_Node000016_Node000004"><a xlink:title=" ">
<path fill="none" stroke="#63b8ff" d="M727.79,-107.85C684.63,-98.87 621.27,-85.65 566,-74 563.08,-73.39 560.05,-72.74 557.01,-72.1"/>
<polygon fill="#63b8ff" stroke="#63b8ff" points="727.26,-111.32 737.76,-109.93 728.68,-104.46 727.26,-111.32"/>
</a>
</g>
</g>
<!-- Node17 -->
<g id="Node000017" class="node">
<title>Node17</title>
<g id="a_Node000017"><a xlink:href="MTK3339Sensor_8cpp.html" target="_top" xlink:title=" ">
<polygon fill="white" stroke="#666666" points="826.5,-74 711.5,-74 711.5,-55 826.5,-55 826.5,-74"/>
<text text-anchor="middle" x="769" y="-62" font-family="Helvetica,sans-Serif" font-size="10.00">MTK3339Sensor.cpp</text>
</a>
</g>
</g>
<!-- Node16&#45;&gt;Node17 -->
<g id="edge21_Node000016_Node000017" class="edge">
<title>Node16&#45;&gt;Node17</title>
<g id="a_edge21_Node000016_Node000017"><a xlink:title=" ">
<path fill="none" stroke="#63b8ff" d="M775.45,-99.66C773.8,-90.93 771.92,-80.99 770.62,-74.09"/>
<polygon fill="#63b8ff" stroke="#63b8ff" points="772.06,-100.57 777.35,-109.75 778.93,-99.27 772.06,-100.57"/>
</a>
</g>
</g>
<!-- Node18&#45;&gt;Node4 -->
<g id="edge25_Node000018_Node000004" class="edge">
<title>Node18&#45;&gt;Node4</title>
<g id="a_edge25_Node000018_Node000004"><a xlink:title=" ">
<path fill="none" stroke="#63b8ff" d="M839.08,-109.91C716.72,-92.56 683.86,-94.23 566,-74 563.2,-73.52 560.3,-72.98 557.4,-72.42"/>
<polygon fill="#63b8ff" stroke="#63b8ff" points="838.83,-113.41 849.22,-111.36 839.82,-106.48 838.83,-113.41"/>
</a>
</g>
</g>
<!-- Node19 -->
<g id="Node000019" class="node">
<title>Node19</title>
<g id="a_Node000019"><a xlink:href="OzoneSensor_8cpp.html" target="_top" xlink:title=" ">
<polygon fill="white" stroke="#666666" points="945,-74 845,-74 845,-55 945,-55 945,-74"/>
<text text-anchor="middle" x="895" y="-62" font-family="Helvetica,sans-Serif" font-size="10.00">OzoneSensor.cpp</text>
</a>
</g>
</g>
<!-- Node18&#45;&gt;Node19 -->
<g id="edge24_Node000018_Node000019" class="edge">
<title>Node18&#45;&gt;Node19</title>
<g id="a_edge24_Node000018_Node000019"><a xlink:title=" ">
<path fill="none" stroke="#63b8ff" d="M894.36,-99.66C894.52,-90.93 894.71,-80.99 894.84,-74.09"/>
<polygon fill="#63b8ff" stroke="#63b8ff" points="890.85,-99.68 894.17,-109.75 897.85,-99.82 890.85,-99.68"/>
</a>
</g>
</g>
<!-- Node20&#45;&gt;Node11 -->
<g id="edge28_Node000020_Node000011" class="edge">
<title>Node20&#45;&gt;Node11</title>
<g id="a_edge28_Node000020_Node000011"><a xlink:title=" ">
<path fill="none" stroke="#63b8ff" d="M1213.91,-105.07C1235.54,-92.8 1259.69,-73.76 1246,-55 1222.17,-22.36 1174.08,-13.11 1141.21,-10.79"/>
<polygon fill="#63b8ff" stroke="#63b8ff" points="1212.08,-102.08 1204.92,-109.89 1215.39,-108.25 1212.08,-102.08"/>
</a>
</g>
</g>
<!-- Node21 -->
<g id="Node000021" class="node">
<title>Node21</title>
<g id="a_Node000021"><a xlink:href="RadioStorage_8cpp.html" target="_top" xlink:title=" ">
<polygon fill="white" stroke="#666666" points="1237,-74 1135,-74 1135,-55 1237,-55 1237,-74"/>
<text text-anchor="middle" x="1186" y="-62" font-family="Helvetica,sans-Serif" font-size="10.00">RadioStorage.cpp</text>
</a>
</g>
</g>
<!-- Node20&#45;&gt;Node21 -->
<g id="edge27_Node000020_Node000021" class="edge">
<title>Node20&#45;&gt;Node21</title>
<g id="a_edge27_Node000020_Node000021"><a xlink:title=" ">
<path fill="none" stroke="#63b8ff" d="M1186,-99.66C1186,-90.93 1186,-80.99 1186,-74.09"/>
<polygon fill="#63b8ff" stroke="#63b8ff" points="1182.5,-99.75 1186,-109.75 1189.5,-99.75 1182.5,-99.75"/>
</a>
</g>
</g>
<!-- Node22&#45;&gt;Node4 -->
<g id="edge33_Node000022_Node000004" class="edge">
<title>Node22&#45;&gt;Node4</title>
<g id="a_edge33_Node000022_Node000004"><a xlink:title=" ">
<path fill="none" stroke="#63b8ff" d="M323.46,-107.87C366.81,-98.89 430.48,-85.67 486,-74 488.92,-73.39 491.96,-72.75 494.99,-72.1"/>
<polygon fill="#63b8ff" stroke="#63b8ff" points="322.52,-104.49 313.44,-109.94 323.94,-111.34 322.52,-104.49"/>
</a>
</g>
</g>
<!-- Node22&#45;&gt;Node7 -->
<g id="edge31_Node000022_Node000007" class="edge">
<title>Node22&#45;&gt;Node7</title>
<g id="a_edge31_Node000022_Node000007"><a xlink:title=" ">
<path fill="none" stroke="#63b8ff" d="M280.48,-100.53C284.69,-91.6 289.59,-81.22 292.95,-74.09"/>
<polygon fill="#63b8ff" stroke="#63b8ff" points="277.23,-99.21 276.13,-109.75 283.56,-102.2 277.23,-99.21"/>
</a>
</g>
</g>
<!-- Node23 -->
<g id="Node000023" class="node">
<title>Node23</title>
<g id="a_Node000023"><a xlink:href="SHTC3Sensor_8cpp.html" target="_top" xlink:title=" ">
<polygon fill="white" stroke="#666666" points="225.5,-74 124.5,-74 124.5,-55 225.5,-55 225.5,-74"/>
<text text-anchor="middle" x="175" y="-62" font-family="Helvetica,sans-Serif" font-size="10.00">SHTC3Sensor.cpp</text>
</a>
</g>
</g>
<!-- Node22&#45;&gt;Node23 -->
<g id="edge32_Node000022_Node000023" class="edge">
<title>Node22&#45;&gt;Node23</title>
<g id="a_edge32_Node000022_Node000023"><a xlink:title=" ">
<path fill="none" stroke="#63b8ff" d="M247.23,-104.97C229.5,-95.28 206.15,-82.52 190.87,-74.17"/>
<polygon fill="#63b8ff" stroke="#63b8ff" points="245.96,-108.26 256.42,-109.98 249.32,-102.12 245.96,-108.26"/>
</a>
</g>
</g>
<!-- Node24&#45;&gt;Node4 -->
<g id="edge37_Node000024_Node000004" class="edge">
<title>Node24&#45;&gt;Node4</title>
<g id="a_edge37_Node000024_Node000004"><a xlink:title=" ">
<path fill="none" stroke="#63b8ff" d="M415.59,-106.42C442.12,-96.59 478.93,-82.95 502.61,-74.17"/>
<polygon fill="#63b8ff" stroke="#63b8ff" points="414.14,-103.23 405.98,-109.98 416.57,-109.79 414.14,-103.23"/>
</a>
</g>
</g>
<!-- Node24&#45;&gt;Node7 -->
<g id="edge35_Node000024_Node000007" class="edge">
<title>Node24&#45;&gt;Node7</title>
<g id="a_edge35_Node000024_Node000007"><a xlink:title=" ">
<path fill="none" stroke="#63b8ff" d="M360.6,-104.7C344.93,-95.04 324.49,-82.44 311.07,-74.17"/>
<polygon fill="#63b8ff" stroke="#63b8ff" points="358.83,-107.72 369.18,-109.98 362.51,-101.76 358.83,-107.72"/>
</a>
</g>
</g>
<!-- Node25 -->
<g id="Node000025" class="node">
<title>Node25</title>
<g id="a_Node000025"><a xlink:href="TMP11xSensor_8cpp.html" target="_top" xlink:title=" ">
<polygon fill="white" stroke="#666666" points="477,-74 369,-74 369,-55 477,-55 477,-74"/>
<text text-anchor="middle" x="423" y="-62" font-family="Helvetica,sans-Serif" font-size="10.00">TMP11xSensor.cpp</text>
</a>
</g>
</g>
<!-- Node24&#45;&gt;Node25 -->
<g id="edge36_Node000024_Node000025" class="edge">
<title>Node24&#45;&gt;Node25</title>
<g id="a_edge36_Node000024_Node000025"><a xlink:title=" ">
<path fill="none" stroke="#63b8ff" d="M395.7,-101.67C402.63,-92.5 410.91,-81.52 416.52,-74.09"/>
<polygon fill="#63b8ff" stroke="#63b8ff" points="392.84,-99.66 389.61,-109.75 398.42,-103.87 392.84,-99.66"/>
</a>
</g>
</g>
</g>
</svg>
