<?xml version="1.0" encoding="UTF-8" standalone="no"?>
<!DOCTYPE svg PUBLIC "-//W3C//DTD SVG 1.1//EN"
 "http://www.w3.org/Graphics/SVG/1.1/DTD/svg11.dtd">
<!-- Generated by graphviz version 12.1.2 (20240928.0832)
 -->
<!-- Title: PCF8523Sensor.h Pages: 1 -->
<svg width="181pt" height="252pt"
 viewBox="0.00 0.00 180.88 252.00" xmlns="http://www.w3.org/2000/svg" xmlns:xlink="http://www.w3.org/1999/xlink">
<g id="graph0" class="graph" transform="scale(1 1) rotate(0) translate(4 248)">
<title>PCF8523Sensor.h</title>
<!-- Node1 -->
<g id="Node000001" class="node">
<title>Node1</title>
<g id="a_Node000001"><a xlink:title=" ">
<polygon fill="#999999" stroke="#666666" points="111.25,-244 15,-244 15,-224 111.25,-224 111.25,-244"/>
<text text-anchor="middle" x="63.12" y="-230.5" font-family="Helvetica,sans-Serif" font-size="10.00">PCF8523Sensor.h</text>
</a>
</g>
</g>
<!-- Node2 -->
<g id="Node000002" class="node">
<title>Node2</title>
<g id="a_Node000002"><a xlink:title=" ">
<polygon fill="#e0e0e0" stroke="#999999" points="54.25,-188 0,-188 0,-168 54.25,-168 54.25,-188"/>
<text text-anchor="middle" x="27.12" y="-174.5" font-family="Helvetica,sans-Serif" font-size="10.00">RTClib.h</text>
</a>
</g>
</g>
<!-- Node1&#45;&gt;Node2 -->
<g id="edge1_Node000001_Node000002" class="edge">
<title>Node1&#45;&gt;Node2</title>
<g id="a_edge1_Node000001_Node000002"><a xlink:title=" ">
<path fill="none" stroke="#63b8ff" d="M56.85,-223.59C52.11,-216.47 45.43,-206.45 39.6,-197.72"/>
<polygon fill="#63b8ff" stroke="#63b8ff" points="42.62,-195.94 34.16,-189.56 36.8,-199.82 42.62,-195.94"/>
</a>
</g>
</g>
<!-- Node3 -->
<g id="Node000003" class="node">
<title>Node3</title>
<g id="a_Node000003"><a xlink:href="Sensor_8h.html" target="_top" xlink:title=" ">
<polygon fill="white" stroke="#666666" points="127.62,-188 72.62,-188 72.62,-168 127.62,-168 127.62,-188"/>
<text text-anchor="middle" x="100.12" y="-174.5" font-family="Helvetica,sans-Serif" font-size="10.00">Sensor.h</text>
</a>
</g>
</g>
<!-- Node1&#45;&gt;Node3 -->
<g id="edge2_Node000001_Node000003" class="edge">
<title>Node1&#45;&gt;Node3</title>
<g id="a_edge2_Node000001_Node000003"><a xlink:title=" ">
<path fill="none" stroke="#63b8ff" d="M69.57,-223.59C74.45,-216.47 81.32,-206.45 87.3,-197.72"/>
<polygon fill="#63b8ff" stroke="#63b8ff" points="90.13,-199.77 92.9,-189.55 84.36,-195.82 90.13,-199.77"/>
</a>
</g>
</g>
<!-- Node4 -->
<g id="Node000004" class="node">
<title>Node4</title>
<g id="a_Node000004"><a xlink:title=" ">
<polygon fill="#e0e0e0" stroke="#999999" points="119.75,-20 62.5,-20 62.5,0 119.75,0 119.75,-20"/>
<text text-anchor="middle" x="91.12" y="-6.5" font-family="Helvetica,sans-Serif" font-size="10.00">Arduino.h</text>
</a>
</g>
</g>
<!-- Node3&#45;&gt;Node4 -->
<g id="edge3_Node000003_Node000004" class="edge">
<title>Node3&#45;&gt;Node4</title>
<g id="a_edge3_Node000003_Node000004"><a xlink:title=" ">
<path fill="none" stroke="#63b8ff" d="M89.27,-167.53C80.6,-159.18 69.09,-146.16 64.12,-132 51.89,-97.11 68.23,-54.56 80.31,-30.34"/>
<polygon fill="#63b8ff" stroke="#63b8ff" points="83.32,-32.13 84.89,-21.65 77.13,-28.86 83.32,-32.13"/>
</a>
</g>
</g>
<!-- Node5 -->
<g id="Node000005" class="node">
<title>Node5</title>
<g id="a_Node000005"><a xlink:href="Device_8h.html" target="_top" xlink:title=" ">
<polygon fill="white" stroke="#666666" points="127.62,-132 72.62,-132 72.62,-112 127.62,-112 127.62,-132"/>
<text text-anchor="middle" x="100.12" y="-118.5" font-family="Helvetica,sans-Serif" font-size="10.00">Device.h</text>
</a>
</g>
</g>
<!-- Node3&#45;&gt;Node5 -->
<g id="edge4_Node000003_Node000005" class="edge">
<title>Node3&#45;&gt;Node5</title>
<g id="a_edge4_Node000003_Node000005"><a xlink:title=" ">
<path fill="none" stroke="#63b8ff" d="M100.12,-167.59C100.12,-161.01 100.12,-151.96 100.12,-143.73"/>
<polygon fill="#63b8ff" stroke="#63b8ff" points="103.63,-143.81 100.13,-133.81 96.63,-143.81 103.63,-143.81"/>
</a>
</g>
</g>
<!-- Node6 -->
<g id="Node000006" class="node">
<title>Node6</title>
<g id="a_Node000006"><a xlink:href="Logger_8h.html" target="_top" xlink:title=" ">
<polygon fill="white" stroke="#666666" points="172.88,-76 119.38,-76 119.38,-56 172.88,-56 172.88,-76"/>
<text text-anchor="middle" x="146.12" y="-62.5" font-family="Helvetica,sans-Serif" font-size="10.00">Logger.h</text>
</a>
</g>
</g>
<!-- Node3&#45;&gt;Node6 -->
<g id="edge8_Node000003_Node000006" class="edge">
<title>Node3&#45;&gt;Node6</title>
<g id="a_edge8_Node000003_Node000006"><a xlink:title=" ">
<path fill="none" stroke="#63b8ff" d="M110.43,-167.73C119.07,-159.31 130.96,-146.08 137.12,-132 143.29,-117.92 145.46,-100.64 146.13,-87.43"/>
<polygon fill="#63b8ff" stroke="#63b8ff" points="149.62,-87.85 146.36,-77.77 142.62,-87.68 149.62,-87.85"/>
</a>
</g>
</g>
<!-- Node5&#45;&gt;Node4 -->
<g id="edge5_Node000005_Node000004" class="edge">
<title>Node5&#45;&gt;Node4</title>
<g id="a_edge5_Node000005_Node000004"><a xlink:title=" ">
<path fill="none" stroke="#63b8ff" d="M99.36,-111.62C97.92,-94.01 94.77,-55.59 92.81,-31.65"/>
<polygon fill="#63b8ff" stroke="#63b8ff" points="96.32,-31.54 92.01,-21.86 89.34,-32.12 96.32,-31.54"/>
</a>
</g>
</g>
<!-- Node5&#45;&gt;Node6 -->
<g id="edge6_Node000005_Node000006" class="edge">
<title>Node5&#45;&gt;Node6</title>
<g id="a_edge6_Node000005_Node000006"><a xlink:title=" ">
<path fill="none" stroke="#63b8ff" d="M108.14,-111.59C114.4,-104.24 123.3,-93.8 130.91,-84.87"/>
<polygon fill="#63b8ff" stroke="#63b8ff" points="133.4,-87.33 137.22,-77.45 128.07,-82.79 133.4,-87.33"/>
</a>
</g>
</g>
<!-- Node6&#45;&gt;Node4 -->
<g id="edge7_Node000006_Node000004" class="edge">
<title>Node6&#45;&gt;Node4</title>
<g id="a_edge7_Node000006_Node000004"><a xlink:title=" ">
<path fill="none" stroke="#63b8ff" d="M136.54,-55.59C128.89,-48.08 117.97,-37.35 108.75,-28.3"/>
<polygon fill="#63b8ff" stroke="#63b8ff" points="111.26,-25.87 101.68,-21.36 106.36,-30.86 111.26,-25.87"/>
</a>
</g>
</g>
</g>
</svg>
