<?xml version="1.0" encoding="UTF-8" standalone="no"?>
<!DOCTYPE svg PUBLIC "-//W3C//DTD SVG 1.1//EN"
 "http://www.w3.org/Graphics/SVG/1.1/DTD/svg11.dtd">
<!-- Generated by graphviz version 2.43.0 (0)
 -->
<!-- Title: RadioStorage.cpp Pages: 1 -->
<svg width="296pt" height="302pt"
 viewBox="0.00 0.00 296.28 302.00" xmlns="http://www.w3.org/2000/svg" xmlns:xlink="http://www.w3.org/1999/xlink">

<svg id="main" version="1.1" xmlns="http://www.w3.org/2000/svg" xmlns:xlink="http://www.w3.org/1999/xlink" xml:space="preserve" onload="init(evt)">
<style type="text/css"><![CDATA[
.node, .edge {opacity: 0.7;}
.node.selected, .edge.selected {opacity: 1;}
.edge:hover path { stroke: red; }
.edge:hover polygon { stroke: red; fill: red; }
]]></style>
<script type="application/ecmascript" xlink:href="svg.min.js"/>
<svg id="graph" class="graph">
<g id="graph0" class="graph" transform="scale(1 1) rotate(0) translate(4 298)">
<title>RadioStorage.cpp</title>
<!-- Node1 -->
<g id="Node000001" class="node">
<title>Node1</title>
<g id="a_Node000001"><a xlink:title=" ">
<polygon fill="#999999" stroke="#666666" points="275.28,-294 173.28,-294 173.28,-275 275.28,-275 275.28,-294"/>
<text text-anchor="middle" x="224.28" y="-282" font-family="Helvetica,sans-Serif" font-size="10.00">RadioStorage.cpp</text>
</a>
</g>
</g>
<!-- Node2 -->
<g id="Node000002" class="node">
<title>Node2</title>
<g id="a_Node000002"><a xlink:href="RadioStorage_8h.html" target="_top" xlink:title=" ">
<polygon fill="white" stroke="#666666" points="191.78,-239 100.78,-239 100.78,-220 191.78,-220 191.78,-239"/>
<text text-anchor="middle" x="146.28" y="-227" font-family="Helvetica,sans-Serif" font-size="10.00">RadioStorage.h</text>
</a>
</g>
</g>
<!-- Node1&#45;&gt;Node2 -->
<g id="edge1_Node000001_Node000002" class="edge">
<title>Node1&#45;&gt;Node2</title>
<g id="a_edge1_Node000001_Node000002"><a xlink:title=" ">
<path fill="none" stroke="#63b8ff" d="M211.74,-274.98C199.87,-266.92 181.81,-254.65 167.66,-245.03"/>
<polygon fill="#63b8ff" stroke="#63b8ff" points="169.27,-241.9 159.04,-239.17 165.34,-247.69 169.27,-241.9"/>
</a>
</g>
</g>
<!-- Node8 -->
<g id="Node000008" class="node">
<title>Node8</title>
<g id="a_Node000008"><a xlink:href="Logger_8h.html" target="_top" xlink:title=" ">
<polygon fill="white" stroke="#666666" points="288.28,-74 230.28,-74 230.28,-55 288.28,-55 288.28,-74"/>
<text text-anchor="middle" x="259.28" y="-62" font-family="Helvetica,sans-Serif" font-size="10.00">Logger.h</text>
</a>
</g>
</g>
<!-- Node1&#45;&gt;Node8 -->
<g id="edge12_Node000001_Node000008" class="edge">
<title>Node1&#45;&gt;Node8</title>
<g id="a_edge12_Node000001_Node000008"><a xlink:title=" ">
<path fill="none" stroke="#63b8ff" d="M231.7,-274.95C245.34,-258.63 273.9,-221.31 284.28,-184 294.09,-148.71 278.97,-106.57 268.3,-83.25"/>
<polygon fill="#63b8ff" stroke="#63b8ff" points="271.45,-81.71 263.96,-74.21 265.14,-84.74 271.45,-81.71"/>
</a>
</g>
</g>
<!-- Node3 -->
<g id="Node000003" class="node">
<title>Node3</title>
<g id="a_Node000003"><a xlink:title=" ">
<polygon fill="#e0e0e0" stroke="#999999" points="204.78,-19 141.78,-19 141.78,0 204.78,0 204.78,-19"/>
<text text-anchor="middle" x="173.28" y="-7" font-family="Helvetica,sans-Serif" font-size="10.00">Arduino.h</text>
</a>
</g>
</g>
<!-- Node2&#45;&gt;Node3 -->
<g id="edge2_Node000002_Node000003" class="edge">
<title>Node2&#45;&gt;Node3</title>
<g id="a_edge2_Node000002_Node000003"><a xlink:title=" ">
<path fill="none" stroke="#63b8ff" d="M100.65,-225.94C52.17,-221.04 -15.19,-206.73 3.28,-165 33.08,-97.64 108.36,-47.06 147.99,-24.1"/>
<polygon fill="#63b8ff" stroke="#63b8ff" points="149.81,-27.09 156.79,-19.12 146.37,-21 149.81,-27.09"/>
</a>
</g>
</g>
<!-- Node4 -->
<g id="Node000004" class="node">
<title>Node4</title>
<g id="a_Node000004"><a xlink:title=" ">
<polygon fill="#e0e0e0" stroke="#999999" points="80.28,-184 12.28,-184 12.28,-165 80.28,-165 80.28,-184"/>
<text text-anchor="middle" x="46.28" y="-172" font-family="Helvetica,sans-Serif" font-size="10.00">RadioLib.h</text>
</a>
</g>
</g>
<!-- Node2&#45;&gt;Node4 -->
<g id="edge3_Node000002_Node000004" class="edge">
<title>Node2&#45;&gt;Node4</title>
<g id="a_edge3_Node000002_Node000004"><a xlink:title=" ">
<path fill="none" stroke="#63b8ff" d="M130.21,-219.98C114.41,-211.61 90.06,-198.7 71.65,-188.95"/>
<polygon fill="#63b8ff" stroke="#63b8ff" points="73.11,-185.76 62.63,-184.17 69.83,-191.95 73.11,-185.76"/>
</a>
</g>
</g>
<!-- Node5 -->
<g id="Node000005" class="node">
<title>Node5</title>
<g id="a_Node000005"><a xlink:href="PayloadConfig_8h.html" target="_top" xlink:title="Central location for pinout and config defines.">
<polygon fill="white" stroke="#666666" points="193.78,-184 98.78,-184 98.78,-165 193.78,-165 193.78,-184"/>
<text text-anchor="middle" x="146.28" y="-172" font-family="Helvetica,sans-Serif" font-size="10.00">PayloadConfig.h</text>
</a>
</g>
</g>
<!-- Node2&#45;&gt;Node5 -->
<g id="edge4_Node000002_Node000005" class="edge">
<title>Node2&#45;&gt;Node5</title>
<g id="a_edge4_Node000002_Node000005"><a xlink:title=" ">
<path fill="none" stroke="#63b8ff" d="M146.28,-219.75C146.28,-212.8 146.28,-202.85 146.28,-194.13"/>
<polygon fill="#63b8ff" stroke="#63b8ff" points="149.78,-194.09 146.28,-184.09 142.78,-194.09 149.78,-194.09"/>
</a>
</g>
</g>
<!-- Node6 -->
<g id="Node000006" class="node">
<title>Node6</title>
<g id="a_Node000006"><a xlink:href="Storage_8h.html" target="_top" xlink:title=" ">
<polygon fill="white" stroke="#666666" points="274.78,-184 211.78,-184 211.78,-165 274.78,-165 274.78,-184"/>
<text text-anchor="middle" x="243.28" y="-172" font-family="Helvetica,sans-Serif" font-size="10.00">Storage.h</text>
</a>
</g>
</g>
<!-- Node2&#45;&gt;Node6 -->
<g id="edge5_Node000002_Node000006" class="edge">
<title>Node2&#45;&gt;Node6</title>
<g id="a_edge5_Node000002_Node000006"><a xlink:title=" ">
<path fill="none" stroke="#63b8ff" d="M161.86,-219.98C177.04,-211.69 200.37,-198.94 218.17,-189.22"/>
<polygon fill="#63b8ff" stroke="#63b8ff" points="220.31,-192.04 227.41,-184.17 216.95,-185.89 220.31,-192.04"/>
</a>
</g>
</g>
<!-- Node6&#45;&gt;Node3 -->
<g id="edge6_Node000006_Node000003" class="edge">
<title>Node6&#45;&gt;Node3</title>
<g id="a_edge6_Node000006_Node000003"><a xlink:title=" ">
<path fill="none" stroke="#63b8ff" d="M215.63,-164.98C198.69,-158.17 178.39,-146.76 168.28,-129 150.43,-97.66 159.35,-53.72 166.76,-29.11"/>
<polygon fill="#63b8ff" stroke="#63b8ff" points="170.19,-29.86 169.95,-19.27 163.53,-27.7 170.19,-29.86"/>
</a>
</g>
</g>
<!-- Node7 -->
<g id="Node000007" class="node">
<title>Node7</title>
<g id="a_Node000007"><a xlink:href="Device_8h.html" target="_top" xlink:title=" ">
<polygon fill="white" stroke="#666666" points="236.78,-129 177.78,-129 177.78,-110 236.78,-110 236.78,-129"/>
<text text-anchor="middle" x="207.28" y="-117" font-family="Helvetica,sans-Serif" font-size="10.00">Device.h</text>
</a>
</g>
</g>
<!-- Node6&#45;&gt;Node7 -->
<g id="edge7_Node000006_Node000007" class="edge">
<title>Node6&#45;&gt;Node7</title>
<g id="a_edge7_Node000006_Node000007"><a xlink:title=" ">
<path fill="none" stroke="#63b8ff" d="M237.33,-164.75C232.3,-157.34 224.94,-146.5 218.76,-137.41"/>
<polygon fill="#63b8ff" stroke="#63b8ff" points="221.62,-135.39 213.11,-129.09 215.83,-139.33 221.62,-135.39"/>
</a>
</g>
</g>
<!-- Node6&#45;&gt;Node8 -->
<g id="edge11_Node000006_Node000008" class="edge">
<title>Node6&#45;&gt;Node8</title>
<g id="a_edge11_Node000006_Node000008"><a xlink:title=" ">
<path fill="none" stroke="#63b8ff" d="M244.58,-164.66C247.18,-147.17 253.01,-107.8 256.49,-84.27"/>
<polygon fill="#63b8ff" stroke="#63b8ff" points="259.99,-84.56 257.99,-74.16 253.06,-83.54 259.99,-84.56"/>
</a>
</g>
</g>
<!-- Node7&#45;&gt;Node3 -->
<g id="edge8_Node000007_Node000003" class="edge">
<title>Node7&#45;&gt;Node3</title>
<g id="a_edge8_Node000007_Node000003"><a xlink:title=" ">
<path fill="none" stroke="#63b8ff" d="M204.49,-109.66C198.96,-92.09 186.48,-52.45 179.08,-28.95"/>
<polygon fill="#63b8ff" stroke="#63b8ff" points="182.34,-27.65 176,-19.16 175.67,-29.75 182.34,-27.65"/>
</a>
</g>
</g>
<!-- Node7&#45;&gt;Node8 -->
<g id="edge9_Node000007_Node000008" class="edge">
<title>Node7&#45;&gt;Node8</title>
<g id="a_edge9_Node000007_Node000008"><a xlink:title=" ">
<path fill="none" stroke="#63b8ff" d="M215.86,-109.75C223.43,-102.03 234.65,-90.6 243.79,-81.28"/>
<polygon fill="#63b8ff" stroke="#63b8ff" points="246.34,-83.68 250.85,-74.09 241.35,-78.78 246.34,-83.68"/>
</a>
</g>
</g>
<!-- Node8&#45;&gt;Node3 -->
<g id="edge10_Node000008_Node000003" class="edge">
<title>Node8&#45;&gt;Node3</title>
<g id="a_edge10_Node000008_Node000003"><a xlink:title=" ">
<path fill="none" stroke="#63b8ff" d="M245.46,-54.98C232.12,-46.77 211.69,-34.18 195.97,-24.49"/>
<polygon fill="#63b8ff" stroke="#63b8ff" points="197.69,-21.44 187.34,-19.17 194.02,-27.4 197.69,-21.44"/>
</a>
</g>
</g>
</g>
</svg>
</svg>

<style type='text/css'>
<![CDATA[
[data-mouse-over-selected='false'] { opacity: 0.7; }
[data-mouse-over-selected='true']  { opacity: 1.0; }
]]>
</style>
<script type="application/ecmascript"><![CDATA[
document.addEventListener('DOMContentLoaded', (event) => {
  highlightEdges();
  highlightAdjacentNodes();
});
]]></script>
</svg>
