<?xml version="1.0" encoding="UTF-8" standalone="no"?>
<!DOCTYPE svg PUBLIC "-//W3C//DTD SVG 1.1//EN"
 "http://www.w3.org/Graphics/SVG/1.1/DTD/svg11.dtd">
<!-- Generated by graphviz version 12.1.2 (20240928.0832)
 -->
<!-- Title: RadioStorage.h Pages: 1 -->
<svg width="190pt" height="252pt"
 viewBox="0.00 0.00 190.13 252.00" xmlns="http://www.w3.org/2000/svg" xmlns:xlink="http://www.w3.org/1999/xlink">
<g id="graph0" class="graph" transform="scale(1 1) rotate(0) translate(4 248)">
<title>RadioStorage.h</title>
<!-- Node1 -->
<g id="Node000001" class="node">
<title>Node1</title>
<g id="a_Node000001"><a xlink:title=" ">
<polygon fill="#999999" stroke="#666666" points="97.13,-244 13.63,-244 13.63,-224 97.13,-224 97.13,-244"/>
<text text-anchor="middle" x="55.38" y="-230.5" font-family="Helvetica,sans-Serif" font-size="10.00">RadioStorage.h</text>
</a>
</g>
</g>
<!-- Node2 -->
<g id="Node000002" class="node">
<title>Node2</title>
<g id="a_Node000002"><a xlink:title=" ">
<polygon fill="#e0e0e0" stroke="#999999" points="110,-20 52.75,-20 52.75,0 110,0 110,-20"/>
<text text-anchor="middle" x="81.38" y="-6.5" font-family="Helvetica,sans-Serif" font-size="10.00">Arduino.h</text>
</a>
</g>
</g>
<!-- Node1&#45;&gt;Node2 -->
<g id="edge1_Node000001_Node000002" class="edge">
<title>Node1&#45;&gt;Node2</title>
<g id="a_edge1_Node000001_Node000002"><a xlink:title=" ">
<path fill="none" stroke="#63b8ff" d="M37.75,-223.59C25.32,-215.87 9.63,-203.66 2.38,-188 -1.35,-179.93 0.33,-176.65 2.38,-168 15.13,-114.3 49.31,-58.1 68.26,-29.75"/>
<polygon fill="#63b8ff" stroke="#63b8ff" points="71.11,-31.79 73.85,-21.56 65.32,-27.84 71.11,-31.79"/>
</a>
</g>
</g>
<!-- Node3 -->
<g id="Node000003" class="node">
<title>Node3</title>
<g id="a_Node000003"><a xlink:href="PayloadConfig_8h.html" target="_top" xlink:title="Central location for pinout and config defines.">
<polygon fill="white" stroke="#666666" points="99.38,-188 11.38,-188 11.38,-168 99.38,-168 99.38,-188"/>
<text text-anchor="middle" x="55.38" y="-174.5" font-family="Helvetica,sans-Serif" font-size="10.00">PayloadConfig.h</text>
</a>
</g>
</g>
<!-- Node1&#45;&gt;Node3 -->
<g id="edge2_Node000001_Node000003" class="edge">
<title>Node1&#45;&gt;Node3</title>
<g id="a_edge2_Node000001_Node000003"><a xlink:title=" ">
<path fill="none" stroke="#63b8ff" d="M55.38,-223.59C55.38,-217.01 55.38,-207.96 55.38,-199.73"/>
<polygon fill="#63b8ff" stroke="#63b8ff" points="58.88,-199.81 55.38,-189.81 51.88,-199.81 58.88,-199.81"/>
</a>
</g>
</g>
<!-- Node4 -->
<g id="Node000004" class="node">
<title>Node4</title>
<g id="a_Node000004"><a xlink:href="Storage_8h.html" target="_top" xlink:title=" ">
<polygon fill="white" stroke="#666666" points="175.38,-188 117.38,-188 117.38,-168 175.38,-168 175.38,-188"/>
<text text-anchor="middle" x="146.38" y="-174.5" font-family="Helvetica,sans-Serif" font-size="10.00">Storage.h</text>
</a>
</g>
</g>
<!-- Node1&#45;&gt;Node4 -->
<g id="edge3_Node000001_Node000004" class="edge">
<title>Node1&#45;&gt;Node4</title>
<g id="a_edge3_Node000001_Node000004"><a xlink:title=" ">
<path fill="none" stroke="#63b8ff" d="M71.23,-223.59C84.85,-215.51 104.74,-203.71 120.64,-194.27"/>
<polygon fill="#63b8ff" stroke="#63b8ff" points="122.29,-197.37 129.1,-189.25 118.72,-191.35 122.29,-197.37"/>
</a>
</g>
</g>
<!-- Node4&#45;&gt;Node2 -->
<g id="edge4_Node000004_Node000002" class="edge">
<title>Node4&#45;&gt;Node2</title>
<g id="a_edge4_Node000004_Node000002"><a xlink:title=" ">
<path fill="none" stroke="#63b8ff" d="M123.35,-167.55C108.75,-160.21 91.02,-148.48 82.38,-132 65.68,-100.17 70.86,-56.84 76.13,-31.6"/>
<polygon fill="#63b8ff" stroke="#63b8ff" points="79.51,-32.5 78.36,-21.97 72.69,-30.92 79.51,-32.5"/>
</a>
</g>
</g>
<!-- Node5 -->
<g id="Node000005" class="node">
<title>Node5</title>
<g id="a_Node000005"><a xlink:href="Device_8h.html" target="_top" xlink:title=" ">
<polygon fill="white" stroke="#666666" points="145.88,-132 90.88,-132 90.88,-112 145.88,-112 145.88,-132"/>
<text text-anchor="middle" x="118.38" y="-118.5" font-family="Helvetica,sans-Serif" font-size="10.00">Device.h</text>
</a>
</g>
</g>
<!-- Node4&#45;&gt;Node5 -->
<g id="edge5_Node000004_Node000005" class="edge">
<title>Node4&#45;&gt;Node5</title>
<g id="a_edge5_Node000004_Node000005"><a xlink:title=" ">
<path fill="none" stroke="#63b8ff" d="M141.5,-167.59C137.89,-160.63 132.84,-150.89 128.38,-142.29"/>
<polygon fill="#63b8ff" stroke="#63b8ff" points="131.61,-140.91 123.9,-133.64 125.39,-144.13 131.61,-140.91"/>
</a>
</g>
</g>
<!-- Node6 -->
<g id="Node000006" class="node">
<title>Node6</title>
<g id="a_Node000006"><a xlink:href="Logger_8h.html" target="_top" xlink:title=" ">
<polygon fill="white" stroke="#666666" points="182.13,-76 128.63,-76 128.63,-56 182.13,-56 182.13,-76"/>
<text text-anchor="middle" x="155.38" y="-62.5" font-family="Helvetica,sans-Serif" font-size="10.00">Logger.h</text>
</a>
</g>
</g>
<!-- Node4&#45;&gt;Node6 -->
<g id="edge9_Node000004_Node000006" class="edge">
<title>Node4&#45;&gt;Node6</title>
<g id="a_edge9_Node000004_Node000006"><a xlink:title=" ">
<path fill="none" stroke="#63b8ff" d="M148.78,-167.77C151,-158.73 154.14,-144.53 155.38,-132 156.85,-117.18 156.8,-100.36 156.41,-87.54"/>
<polygon fill="#63b8ff" stroke="#63b8ff" points="159.92,-87.65 156.02,-77.8 152.93,-87.93 159.92,-87.65"/>
</a>
</g>
</g>
<!-- Node5&#45;&gt;Node2 -->
<g id="edge6_Node000005_Node000002" class="edge">
<title>Node5&#45;&gt;Node2</title>
<g id="a_edge6_Node000005_Node000002"><a xlink:title=" ">
<path fill="none" stroke="#63b8ff" d="M115.23,-111.62C109.25,-93.84 96.14,-54.88 88.11,-31"/>
<polygon fill="#63b8ff" stroke="#63b8ff" points="91.51,-30.15 85.01,-21.79 84.88,-32.38 91.51,-30.15"/>
</a>
</g>
</g>
<!-- Node5&#45;&gt;Node6 -->
<g id="edge7_Node000005_Node000006" class="edge">
<title>Node5&#45;&gt;Node6</title>
<g id="a_edge7_Node000005_Node000006"><a xlink:title=" ">
<path fill="none" stroke="#63b8ff" d="M124.82,-111.59C129.71,-104.47 136.57,-94.45 142.56,-85.72"/>
<polygon fill="#63b8ff" stroke="#63b8ff" points="145.39,-87.77 148.15,-77.55 139.61,-83.82 145.39,-87.77"/>
</a>
</g>
</g>
<!-- Node6&#45;&gt;Node2 -->
<g id="edge8_Node000006_Node000002" class="edge">
<title>Node6&#45;&gt;Node2</title>
<g id="a_edge8_Node000006_Node000002"><a xlink:title=" ">
<path fill="none" stroke="#63b8ff" d="M142.49,-55.59C131.67,-47.7 115.97,-36.24 103.19,-26.92"/>
<polygon fill="#63b8ff" stroke="#63b8ff" points="105.49,-24.26 95.34,-21.19 101.36,-29.91 105.49,-24.26"/>
</a>
</g>
</g>
</g>
</svg>
