<?xml version="1.0" encoding="UTF-8" standalone="no"?>
<!DOCTYPE svg PUBLIC "-//W3C//DTD SVG 1.1//EN"
 "http://www.w3.org/Graphics/SVG/1.1/DTD/svg11.dtd">
<!-- Generated by graphviz version 2.43.0 (0)
 -->
<!-- Title: RadioStorage.cpp Pages: 1 -->
<svg width="315pt" height="302pt"
 viewBox="0.00 0.00 314.52 302.00" xmlns="http://www.w3.org/2000/svg" xmlns:xlink="http://www.w3.org/1999/xlink">

<svg id="main" version="1.1" xmlns="http://www.w3.org/2000/svg" xmlns:xlink="http://www.w3.org/1999/xlink" xml:space="preserve" onload="init(evt)">
<style type="text/css"><![CDATA[
.node, .edge {opacity: 0.7;}
.node.selected, .edge.selected {opacity: 1;}
.edge:hover path { stroke: red; }
.edge:hover polygon { stroke: red; fill: red; }
]]></style>
<script type="application/ecmascript" xlink:href="svg.min.js"/>
<svg id="graph" class="graph">
<g id="graph0" class="graph" transform="scale(1 1) rotate(0) translate(4 298)">
<title>RadioStorage.cpp</title>
<!-- Node1 -->
<g id="Node000001" class="node">
<title>Node1</title>
<g id="a_Node000001"><a xlink:title=" ">
<polygon fill="#999999" stroke="#666666" points="275.52,-294 173.52,-294 173.52,-275 275.52,-275 275.52,-294"/>
<text text-anchor="middle" x="224.52" y="-282" font-family="Helvetica,sans-Serif" font-size="10.00">RadioStorage.cpp</text>
</a>
</g>
</g>
<!-- Node2 -->
<g id="Node000002" class="node">
<title>Node2</title>
<g id="a_Node000002"><a xlink:href="RadioStorage_8h.html" target="_top" xlink:title=" ">
<polygon fill="white" stroke="#666666" points="192.02,-239 101.02,-239 101.02,-220 192.02,-220 192.02,-239"/>
<text text-anchor="middle" x="146.52" y="-227" font-family="Helvetica,sans-Serif" font-size="10.00">RadioStorage.h</text>
</a>
</g>
</g>
<!-- Node1&#45;&gt;Node2 -->
<g id="edge1_Node000001_Node000002" class="edge">
<title>Node1&#45;&gt;Node2</title>
<g id="a_edge1_Node000001_Node000002"><a xlink:title=" ">
<path fill="none" stroke="#63b8ff" d="M211.99,-274.98C200.12,-266.92 182.05,-254.65 167.91,-245.03"/>
<polygon fill="#63b8ff" stroke="#63b8ff" points="169.52,-241.9 159.28,-239.17 165.58,-247.69 169.52,-241.9"/>
</a>
</g>
</g>
<!-- Node9 -->
<g id="Node000009" class="node">
<title>Node9</title>
<g id="a_Node000009"><a xlink:href="Logger_8h.html" target="_top" xlink:title=" ">
<polygon fill="white" stroke="#666666" points="306.52,-74 248.52,-74 248.52,-55 306.52,-55 306.52,-74"/>
<text text-anchor="middle" x="277.52" y="-62" font-family="Helvetica,sans-Serif" font-size="10.00">Logger.h</text>
</a>
</g>
</g>
<!-- Node1&#45;&gt;Node9 -->
<g id="edge13_Node000001_Node000009" class="edge">
<title>Node1&#45;&gt;Node9</title>
<g id="a_edge13_Node000001_Node000009"><a xlink:title=" ">
<path fill="none" stroke="#63b8ff" d="M231.95,-274.95C245.58,-258.63 274.14,-221.31 284.52,-184 294.06,-149.7 287.54,-107.74 282.29,-84.07"/>
<polygon fill="#63b8ff" stroke="#63b8ff" points="285.62,-82.94 279.89,-74.03 278.81,-84.57 285.62,-82.94"/>
</a>
</g>
</g>
<!-- Node3 -->
<g id="Node000003" class="node">
<title>Node3</title>
<g id="a_Node000003"><a xlink:title=" ">
<polygon fill="#e0e0e0" stroke="#999999" points="223.02,-19 160.02,-19 160.02,0 223.02,0 223.02,-19"/>
<text text-anchor="middle" x="191.52" y="-7" font-family="Helvetica,sans-Serif" font-size="10.00">Arduino.h</text>
</a>
</g>
</g>
<!-- Node2&#45;&gt;Node3 -->
<g id="edge2_Node000002_Node000003" class="edge">
<title>Node2&#45;&gt;Node3</title>
<g id="a_edge2_Node000002_Node000003"><a xlink:title=" ">
<path fill="none" stroke="#63b8ff" d="M100.97,-225.82C52.1,-220.8 -16.04,-206.38 3.52,-165 36.74,-94.69 119.39,-45.61 163.21,-23.58"/>
<polygon fill="#63b8ff" stroke="#63b8ff" points="165.01,-26.6 172.44,-19.05 161.93,-20.31 165.01,-26.6"/>
</a>
</g>
</g>
<!-- Node4 -->
<g id="Node000004" class="node">
<title>Node4</title>
<g id="a_Node000004"><a xlink:title=" ">
<polygon fill="#e0e0e0" stroke="#999999" points="80.52,-184 12.52,-184 12.52,-165 80.52,-165 80.52,-184"/>
<text text-anchor="middle" x="46.52" y="-172" font-family="Helvetica,sans-Serif" font-size="10.00">RadioLib.h</text>
</a>
</g>
</g>
<!-- Node2&#45;&gt;Node4 -->
<g id="edge3_Node000002_Node000004" class="edge">
<title>Node2&#45;&gt;Node4</title>
<g id="a_edge3_Node000002_Node000004"><a xlink:title=" ">
<path fill="none" stroke="#63b8ff" d="M130.45,-219.98C114.65,-211.61 90.3,-198.7 71.89,-188.95"/>
<polygon fill="#63b8ff" stroke="#63b8ff" points="73.35,-185.76 62.88,-184.17 70.07,-191.95 73.35,-185.76"/>
</a>
</g>
</g>
<!-- Node5 -->
<g id="Node000005" class="node">
<title>Node5</title>
<g id="a_Node000005"><a xlink:href="PayloadConfig_8h.html" target="_top" xlink:title="Central location for pinout and config defines.">
<polygon fill="white" stroke="#666666" points="194.02,-184 99.02,-184 99.02,-165 194.02,-165 194.02,-184"/>
<text text-anchor="middle" x="146.52" y="-172" font-family="Helvetica,sans-Serif" font-size="10.00">PayloadConfig.h</text>
</a>
</g>
</g>
<!-- Node2&#45;&gt;Node5 -->
<g id="edge4_Node000002_Node000005" class="edge">
<title>Node2&#45;&gt;Node5</title>
<g id="a_edge4_Node000002_Node000005"><a xlink:title=" ">
<path fill="none" stroke="#63b8ff" d="M146.52,-219.75C146.52,-212.8 146.52,-202.85 146.52,-194.13"/>
<polygon fill="#63b8ff" stroke="#63b8ff" points="150.02,-194.09 146.52,-184.09 143.02,-194.09 150.02,-194.09"/>
</a>
</g>
</g>
<!-- Node7 -->
<g id="Node000007" class="node">
<title>Node7</title>
<g id="a_Node000007"><a xlink:href="Storage_8h.html" target="_top" xlink:title=" ">
<polygon fill="white" stroke="#666666" points="275.02,-184 212.02,-184 212.02,-165 275.02,-165 275.02,-184"/>
<text text-anchor="middle" x="243.52" y="-172" font-family="Helvetica,sans-Serif" font-size="10.00">Storage.h</text>
</a>
</g>
</g>
<!-- Node2&#45;&gt;Node7 -->
<g id="edge6_Node000002_Node000007" class="edge">
<title>Node2&#45;&gt;Node7</title>
<g id="a_edge6_Node000002_Node000007"><a xlink:title=" ">
<path fill="none" stroke="#63b8ff" d="M162.1,-219.98C177.29,-211.69 200.62,-198.94 218.42,-189.22"/>
<polygon fill="#63b8ff" stroke="#63b8ff" points="220.55,-192.04 227.65,-184.17 217.2,-185.89 220.55,-192.04"/>
</a>
</g>
</g>
<!-- Node6 -->
<g id="Node000006" class="node">
<title>Node6</title>
<g id="a_Node000006"><a xlink:title=" ">
<polygon fill="#e0e0e0" stroke="#999999" points="139.52,-129 91.52,-129 91.52,-110 139.52,-110 139.52,-129"/>
<text text-anchor="middle" x="115.52" y="-117" font-family="Helvetica,sans-Serif" font-size="10.00">Wire.h</text>
</a>
</g>
</g>
<!-- Node5&#45;&gt;Node6 -->
<g id="edge5_Node000005_Node000006" class="edge">
<title>Node5&#45;&gt;Node6</title>
<g id="a_edge5_Node000005_Node000006"><a xlink:title=" ">
<path fill="none" stroke="#63b8ff" d="M141.4,-164.75C137.16,-157.49 130.99,-146.95 125.74,-137.98"/>
<polygon fill="#63b8ff" stroke="#63b8ff" points="128.61,-135.95 120.54,-129.09 122.57,-139.49 128.61,-135.95"/>
</a>
</g>
</g>
<!-- Node7&#45;&gt;Node3 -->
<g id="edge7_Node000007_Node000003" class="edge">
<title>Node7&#45;&gt;Node3</title>
<g id="a_edge7_Node000007_Node000003"><a xlink:title=" ">
<path fill="none" stroke="#63b8ff" d="M225.17,-164.88C211.73,-157.46 194.5,-145.36 186.52,-129 170.7,-96.58 178.87,-53.05 185.61,-28.78"/>
<polygon fill="#63b8ff" stroke="#63b8ff" points="188.99,-29.69 188.51,-19.1 182.29,-27.68 188.99,-29.69"/>
</a>
</g>
</g>
<!-- Node8 -->
<g id="Node000008" class="node">
<title>Node8</title>
<g id="a_Node000008"><a xlink:href="Device_8h.html" target="_top" xlink:title=" ">
<polygon fill="white" stroke="#666666" points="255.02,-129 196.02,-129 196.02,-110 255.02,-110 255.02,-129"/>
<text text-anchor="middle" x="225.52" y="-117" font-family="Helvetica,sans-Serif" font-size="10.00">Device.h</text>
</a>
</g>
</g>
<!-- Node7&#45;&gt;Node8 -->
<g id="edge8_Node000007_Node000008" class="edge">
<title>Node7&#45;&gt;Node8</title>
<g id="a_edge8_Node000007_Node000008"><a xlink:title=" ">
<path fill="none" stroke="#63b8ff" d="M240.55,-164.75C238.16,-157.72 234.73,-147.62 231.75,-138.84"/>
<polygon fill="#63b8ff" stroke="#63b8ff" points="234.97,-137.43 228.44,-129.09 228.34,-139.68 234.97,-137.43"/>
</a>
</g>
</g>
<!-- Node7&#45;&gt;Node9 -->
<g id="edge12_Node000007_Node000009" class="edge">
<title>Node7&#45;&gt;Node9</title>
<g id="a_edge12_Node000007_Node000009"><a xlink:title=" ">
<path fill="none" stroke="#63b8ff" d="M248.34,-164.89C253.08,-156.11 260.2,-141.97 264.52,-129 269.41,-114.3 272.8,-97.05 274.89,-84.24"/>
<polygon fill="#63b8ff" stroke="#63b8ff" points="278.36,-84.71 276.4,-74.3 271.44,-83.66 278.36,-84.71"/>
</a>
</g>
</g>
<!-- Node8&#45;&gt;Node3 -->
<g id="edge9_Node000008_Node000003" class="edge">
<title>Node8&#45;&gt;Node3</title>
<g id="a_edge9_Node000008_Node000003"><a xlink:title=" ">
<path fill="none" stroke="#63b8ff" d="M222.74,-109.66C217.21,-92.09 204.72,-52.45 197.33,-28.95"/>
<polygon fill="#63b8ff" stroke="#63b8ff" points="200.59,-27.65 194.24,-19.16 193.91,-29.75 200.59,-27.65"/>
</a>
</g>
</g>
<!-- Node8&#45;&gt;Node9 -->
<g id="edge10_Node000008_Node000009" class="edge">
<title>Node8&#45;&gt;Node9</title>
<g id="a_edge10_Node000008_Node000009"><a xlink:title=" ">
<path fill="none" stroke="#63b8ff" d="M234.11,-109.75C241.68,-102.03 252.9,-90.6 262.03,-81.28"/>
<polygon fill="#63b8ff" stroke="#63b8ff" points="264.59,-83.68 269.09,-74.09 259.59,-78.78 264.59,-83.68"/>
</a>
</g>
</g>
<!-- Node9&#45;&gt;Node3 -->
<g id="edge11_Node000009_Node000003" class="edge">
<title>Node9&#45;&gt;Node3</title>
<g id="a_edge11_Node000009_Node000003"><a xlink:title=" ">
<path fill="none" stroke="#63b8ff" d="M263.7,-54.98C250.37,-46.77 229.94,-34.18 214.21,-24.49"/>
<polygon fill="#63b8ff" stroke="#63b8ff" points="215.94,-21.44 205.59,-19.17 212.26,-27.4 215.94,-21.44"/>
</a>
</g>
</g>
</g>
</svg>
</svg>

<style type='text/css'>
<![CDATA[
[data-mouse-over-selected='false'] { opacity: 0.7; }
[data-mouse-over-selected='true']  { opacity: 1.0; }
]]>
</style>
<script type="application/ecmascript"><![CDATA[
document.addEventListener('DOMContentLoaded', (event) => {
  highlightEdges();
  highlightAdjacentNodes();
});
]]></script>
</svg>
