<?xml version="1.0" encoding="UTF-8" standalone="no"?>
<!DOCTYPE svg PUBLIC "-//W3C//DTD SVG 1.1//EN"
 "http://www.w3.org/Graphics/SVG/1.1/DTD/svg11.dtd">
<!-- Generated by graphviz version 2.43.0 (0)
 -->
<!-- Title: RadioStorage.h Pages: 1 -->
<svg width="288pt" height="247pt"
 viewBox="0.00 0.00 287.54 247.00" xmlns="http://www.w3.org/2000/svg" xmlns:xlink="http://www.w3.org/1999/xlink">
<g id="graph0" class="graph" transform="scale(1 1) rotate(0) translate(4 243)">
<title>RadioStorage.h</title>
<!-- Node1 -->
<g id="Node000001" class="node">
<title>Node1</title>
<g id="a_Node000001"><a xlink:title=" ">
<polygon fill="#999999" stroke="#666666" points="141.04,-239 50.04,-239 50.04,-220 141.04,-220 141.04,-239"/>
<text text-anchor="middle" x="95.54" y="-227" font-family="Helvetica,sans-Serif" font-size="10.00">RadioStorage.h</text>
</a>
</g>
</g>
<!-- Node2 -->
<g id="Node000002" class="node">
<title>Node2</title>
<g id="a_Node000002"><a xlink:title=" ">
<polygon fill="#e0e0e0" stroke="#999999" points="206.04,-19 143.04,-19 143.04,0 206.04,0 206.04,-19"/>
<text text-anchor="middle" x="174.54" y="-7" font-family="Helvetica,sans-Serif" font-size="10.00">Arduino.h</text>
</a>
</g>
</g>
<!-- Node1&#45;&gt;Node2 -->
<g id="edge1_Node000001_Node000002" class="edge">
<title>Node1&#45;&gt;Node2</title>
<g id="a_edge1_Node000001_Node000002"><a xlink:title=" ">
<path fill="none" stroke="#63b8ff" d="M58.97,-219.93C27.85,-210.57 -9.96,-193.03 2.54,-165 32.74,-97.29 108.89,-46.86 148.97,-24.02"/>
<polygon fill="#63b8ff" stroke="#63b8ff" points="150.84,-26.99 157.87,-19.07 147.43,-20.87 150.84,-26.99"/>
</a>
</g>
</g>
<!-- Node3 -->
<g id="Node000003" class="node">
<title>Node3</title>
<g id="a_Node000003"><a xlink:title=" ">
<polygon fill="#e0e0e0" stroke="#999999" points="79.54,-184 11.54,-184 11.54,-165 79.54,-165 79.54,-184"/>
<text text-anchor="middle" x="45.54" y="-172" font-family="Helvetica,sans-Serif" font-size="10.00">RadioLib.h</text>
</a>
</g>
</g>
<!-- Node1&#45;&gt;Node3 -->
<g id="edge2_Node000001_Node000003" class="edge">
<title>Node1&#45;&gt;Node3</title>
<g id="a_edge2_Node000001_Node000003"><a xlink:title=" ">
<path fill="none" stroke="#63b8ff" d="M87.29,-219.75C80.08,-212.11 69.43,-200.82 60.7,-191.56"/>
<polygon fill="#63b8ff" stroke="#63b8ff" points="63.05,-188.96 53.65,-184.09 57.96,-193.76 63.05,-188.96"/>
</a>
</g>
</g>
<!-- Node4 -->
<g id="Node000004" class="node">
<title>Node4</title>
<g id="a_Node000004"><a xlink:href="PayloadConfig_8h.html" target="_top" xlink:title="Central location for pinout and config defines.">
<polygon fill="white" stroke="#666666" points="193.04,-184 98.04,-184 98.04,-165 193.04,-165 193.04,-184"/>
<text text-anchor="middle" x="145.54" y="-172" font-family="Helvetica,sans-Serif" font-size="10.00">PayloadConfig.h</text>
</a>
</g>
</g>
<!-- Node1&#45;&gt;Node4 -->
<g id="edge3_Node000001_Node000004" class="edge">
<title>Node1&#45;&gt;Node4</title>
<g id="a_edge3_Node000001_Node000004"><a xlink:title=" ">
<path fill="none" stroke="#63b8ff" d="M103.8,-219.75C111.01,-212.11 121.65,-200.82 130.39,-191.56"/>
<polygon fill="#63b8ff" stroke="#63b8ff" points="133.12,-193.76 137.44,-184.09 128.03,-188.96 133.12,-193.76"/>
</a>
</g>
</g>
<!-- Node5 -->
<g id="Node000005" class="node">
<title>Node5</title>
<g id="a_Node000005"><a xlink:href="Storage_8h.html" target="_top" xlink:title=" ">
<polygon fill="white" stroke="#666666" points="274.04,-184 211.04,-184 211.04,-165 274.04,-165 274.04,-184"/>
<text text-anchor="middle" x="242.54" y="-172" font-family="Helvetica,sans-Serif" font-size="10.00">Storage.h</text>
</a>
</g>
</g>
<!-- Node1&#45;&gt;Node5 -->
<g id="edge4_Node000001_Node000005" class="edge">
<title>Node1&#45;&gt;Node5</title>
<g id="a_edge4_Node000001_Node000005"><a xlink:title=" ">
<path fill="none" stroke="#63b8ff" d="M119.16,-219.98C143.45,-211.23 181.49,-197.51 208.92,-187.62"/>
<polygon fill="#63b8ff" stroke="#63b8ff" points="210.27,-190.85 218.49,-184.17 207.9,-184.27 210.27,-190.85"/>
</a>
</g>
</g>
<!-- Node5&#45;&gt;Node2 -->
<g id="edge5_Node000005_Node000002" class="edge">
<title>Node5&#45;&gt;Node2</title>
<g id="a_edge5_Node000005_Node000002"><a xlink:title=" ">
<path fill="none" stroke="#63b8ff" d="M219.48,-164.96C204.02,-157.89 184.85,-146.19 175.54,-129 158.38,-97.31 164.23,-53.51 169.64,-29"/>
<polygon fill="#63b8ff" stroke="#63b8ff" points="173.06,-29.76 172.01,-19.22 166.26,-28.11 173.06,-29.76"/>
</a>
</g>
</g>
<!-- Node6 -->
<g id="Node000006" class="node">
<title>Node6</title>
<g id="a_Node000006"><a xlink:href="Device_8h.html" target="_top" xlink:title=" ">
<polygon fill="white" stroke="#666666" points="243.04,-129 184.04,-129 184.04,-110 243.04,-110 243.04,-129"/>
<text text-anchor="middle" x="213.54" y="-117" font-family="Helvetica,sans-Serif" font-size="10.00">Device.h</text>
</a>
</g>
</g>
<!-- Node5&#45;&gt;Node6 -->
<g id="edge6_Node000005_Node000006" class="edge">
<title>Node5&#45;&gt;Node6</title>
<g id="a_edge6_Node000005_Node000006"><a xlink:title=" ">
<path fill="none" stroke="#63b8ff" d="M237.75,-164.75C233.78,-157.49 228.02,-146.95 223.11,-137.98"/>
<polygon fill="#63b8ff" stroke="#63b8ff" points="226.11,-136.18 218.24,-129.09 219.97,-139.54 226.11,-136.18"/>
</a>
</g>
</g>
<!-- Node7 -->
<g id="Node000007" class="node">
<title>Node7</title>
<g id="a_Node000007"><a xlink:href="Logger_8h.html" target="_top" xlink:title=" ">
<polygon fill="white" stroke="#666666" points="279.54,-74 221.54,-74 221.54,-55 279.54,-55 279.54,-74"/>
<text text-anchor="middle" x="250.54" y="-62" font-family="Helvetica,sans-Serif" font-size="10.00">Logger.h</text>
</a>
</g>
</g>
<!-- Node5&#45;&gt;Node7 -->
<g id="edge10_Node000005_Node000007" class="edge">
<title>Node5&#45;&gt;Node7</title>
<g id="a_edge10_Node000005_Node000007"><a xlink:title=" ">
<path fill="none" stroke="#63b8ff" d="M245.12,-164.73C247.59,-155.83 251.15,-141.59 252.54,-129 254.2,-114.06 253.53,-97.03 252.53,-84.37"/>
<polygon fill="#63b8ff" stroke="#63b8ff" points="256,-83.79 251.59,-74.16 249.02,-84.44 256,-83.79"/>
</a>
</g>
</g>
<!-- Node6&#45;&gt;Node2 -->
<g id="edge7_Node000006_Node000002" class="edge">
<title>Node6&#45;&gt;Node2</title>
<g id="a_edge7_Node000006_Node000002"><a xlink:title=" ">
<path fill="none" stroke="#63b8ff" d="M210.35,-109.66C203.98,-92.01 189.56,-52.09 181.09,-28.64"/>
<polygon fill="#63b8ff" stroke="#63b8ff" points="184.36,-27.38 177.67,-19.16 177.77,-29.75 184.36,-27.38"/>
</a>
</g>
</g>
<!-- Node6&#45;&gt;Node7 -->
<g id="edge8_Node000006_Node000007" class="edge">
<title>Node6&#45;&gt;Node7</title>
<g id="a_edge8_Node000006_Node000007"><a xlink:title=" ">
<path fill="none" stroke="#63b8ff" d="M219.65,-109.75C224.82,-102.34 232.39,-91.5 238.74,-82.41"/>
<polygon fill="#63b8ff" stroke="#63b8ff" points="241.69,-84.29 244.55,-74.09 235.95,-80.29 241.69,-84.29"/>
</a>
</g>
</g>
<!-- Node7&#45;&gt;Node2 -->
<g id="edge9_Node000007_Node000002" class="edge">
<title>Node7&#45;&gt;Node2</title>
<g id="a_edge9_Node000007_Node000002"><a xlink:title=" ">
<path fill="none" stroke="#63b8ff" d="M238.33,-54.98C226.77,-46.92 209.17,-34.65 195.38,-25.03"/>
<polygon fill="#63b8ff" stroke="#63b8ff" points="197.18,-22.02 186.98,-19.17 193.18,-27.76 197.18,-22.02"/>
</a>
</g>
</g>
</g>
</svg>
