<?xml version="1.0" encoding="UTF-8" standalone="no"?>
<!DOCTYPE svg PUBLIC "-//W3C//DTD SVG 1.1//EN"
 "http://www.w3.org/Graphics/SVG/1.1/DTD/svg11.dtd">
<!-- Generated by graphviz version 2.43.0 (0)
 -->
<!-- Title: RadioStorage.h Pages: 1 -->
<svg width="317pt" height="247pt"
 viewBox="0.00 0.00 316.97 247.00" xmlns="http://www.w3.org/2000/svg" xmlns:xlink="http://www.w3.org/1999/xlink">
<g id="graph0" class="graph" transform="scale(1 1) rotate(0) translate(4 243)">
<title>RadioStorage.h</title>
<!-- Node1 -->
<g id="Node000001" class="node">
<title>Node1</title>
<g id="a_Node000001"><a xlink:title=" ">
<polygon fill="#999999" stroke="#666666" points="141.47,-239 50.47,-239 50.47,-220 141.47,-220 141.47,-239"/>
<text text-anchor="middle" x="95.97" y="-227" font-family="Helvetica,sans-Serif" font-size="10.00">RadioStorage.h</text>
</a>
</g>
</g>
<!-- Node2 -->
<g id="Node000002" class="node">
<title>Node2</title>
<g id="a_Node000002"><a xlink:title=" ">
<polygon fill="#e0e0e0" stroke="#999999" points="235.47,-19 172.47,-19 172.47,0 235.47,0 235.47,-19"/>
<text text-anchor="middle" x="203.97" y="-7" font-family="Helvetica,sans-Serif" font-size="10.00">Arduino.h</text>
</a>
</g>
</g>
<!-- Node1&#45;&gt;Node2 -->
<g id="edge1_Node000001_Node000002" class="edge">
<title>Node1&#45;&gt;Node2</title>
<g id="a_edge1_Node000001_Node000002"><a xlink:title=" ">
<path fill="none" stroke="#63b8ff" d="M59.82,-219.98C28.19,-210.52 -10.72,-192.8 2.97,-165 38.65,-92.57 126.41,-44.61 173.29,-23.24"/>
<polygon fill="#63b8ff" stroke="#63b8ff" points="174.92,-26.35 182.64,-19.09 172.08,-19.95 174.92,-26.35"/>
</a>
</g>
</g>
<!-- Node3 -->
<g id="Node000003" class="node">
<title>Node3</title>
<g id="a_Node000003"><a xlink:title=" ">
<polygon fill="#e0e0e0" stroke="#999999" points="79.97,-184 11.97,-184 11.97,-165 79.97,-165 79.97,-184"/>
<text text-anchor="middle" x="45.97" y="-172" font-family="Helvetica,sans-Serif" font-size="10.00">RadioLib.h</text>
</a>
</g>
</g>
<!-- Node1&#45;&gt;Node3 -->
<g id="edge2_Node000001_Node000003" class="edge">
<title>Node1&#45;&gt;Node3</title>
<g id="a_edge2_Node000001_Node000003"><a xlink:title=" ">
<path fill="none" stroke="#63b8ff" d="M87.71,-219.75C80.51,-212.11 69.86,-200.82 61.13,-191.56"/>
<polygon fill="#63b8ff" stroke="#63b8ff" points="63.48,-188.96 54.07,-184.09 58.39,-193.76 63.48,-188.96"/>
</a>
</g>
</g>
<!-- Node4 -->
<g id="Node000004" class="node">
<title>Node4</title>
<g id="a_Node000004"><a xlink:href="PayloadConfig_8h.html" target="_top" xlink:title="Central location for pinout and config defines.">
<polygon fill="white" stroke="#666666" points="193.47,-184 98.47,-184 98.47,-165 193.47,-165 193.47,-184"/>
<text text-anchor="middle" x="145.97" y="-172" font-family="Helvetica,sans-Serif" font-size="10.00">PayloadConfig.h</text>
</a>
</g>
</g>
<!-- Node1&#45;&gt;Node4 -->
<g id="edge3_Node000001_Node000004" class="edge">
<title>Node1&#45;&gt;Node4</title>
<g id="a_edge3_Node000001_Node000004"><a xlink:title=" ">
<path fill="none" stroke="#63b8ff" d="M104.23,-219.75C111.44,-212.11 122.08,-200.82 130.82,-191.56"/>
<polygon fill="#63b8ff" stroke="#63b8ff" points="133.55,-193.76 137.87,-184.09 128.46,-188.96 133.55,-193.76"/>
</a>
</g>
</g>
<!-- Node6 -->
<g id="Node000006" class="node">
<title>Node6</title>
<g id="a_Node000006"><a xlink:href="Storage_8h.html" target="_top" xlink:title=" ">
<polygon fill="white" stroke="#666666" points="274.47,-184 211.47,-184 211.47,-165 274.47,-165 274.47,-184"/>
<text text-anchor="middle" x="242.97" y="-172" font-family="Helvetica,sans-Serif" font-size="10.00">Storage.h</text>
</a>
</g>
</g>
<!-- Node1&#45;&gt;Node6 -->
<g id="edge5_Node000001_Node000006" class="edge">
<title>Node1&#45;&gt;Node6</title>
<g id="a_edge5_Node000001_Node000006"><a xlink:title=" ">
<path fill="none" stroke="#63b8ff" d="M119.59,-219.98C143.88,-211.23 181.92,-197.51 209.35,-187.62"/>
<polygon fill="#63b8ff" stroke="#63b8ff" points="210.7,-190.85 218.92,-184.17 208.33,-184.27 210.7,-190.85"/>
</a>
</g>
</g>
<!-- Node5 -->
<g id="Node000005" class="node">
<title>Node5</title>
<g id="a_Node000005"><a xlink:title=" ">
<polygon fill="#e0e0e0" stroke="#999999" points="156.97,-129 108.97,-129 108.97,-110 156.97,-110 156.97,-129"/>
<text text-anchor="middle" x="132.97" y="-117" font-family="Helvetica,sans-Serif" font-size="10.00">Wire.h</text>
</a>
</g>
</g>
<!-- Node4&#45;&gt;Node5 -->
<g id="edge4_Node000004_Node000005" class="edge">
<title>Node4&#45;&gt;Node5</title>
<g id="a_edge4_Node000004_Node000005"><a xlink:title=" ">
<path fill="none" stroke="#63b8ff" d="M143.82,-164.75C142.1,-157.72 139.62,-147.62 137.47,-138.84"/>
<polygon fill="#63b8ff" stroke="#63b8ff" points="140.86,-137.97 135.08,-129.09 134.06,-139.63 140.86,-137.97"/>
</a>
</g>
</g>
<!-- Node6&#45;&gt;Node2 -->
<g id="edge6_Node000006_Node000002" class="edge">
<title>Node6&#45;&gt;Node2</title>
<g id="a_edge6_Node000006_Node000002"><a xlink:title=" ">
<path fill="none" stroke="#63b8ff" d="M231.98,-164.99C222.52,-156.9 209.54,-143.81 203.97,-129 191.4,-95.59 195.87,-53.03 200.06,-29.07"/>
<polygon fill="#63b8ff" stroke="#63b8ff" points="203.5,-29.68 201.95,-19.2 196.63,-28.36 203.5,-29.68"/>
</a>
</g>
</g>
<!-- Node7 -->
<g id="Node000007" class="node">
<title>Node7</title>
<g id="a_Node000007"><a xlink:href="Device_8h.html" target="_top" xlink:title=" ">
<polygon fill="white" stroke="#666666" points="272.47,-129 213.47,-129 213.47,-110 272.47,-110 272.47,-129"/>
<text text-anchor="middle" x="242.97" y="-117" font-family="Helvetica,sans-Serif" font-size="10.00">Device.h</text>
</a>
</g>
</g>
<!-- Node6&#45;&gt;Node7 -->
<g id="edge7_Node000006_Node000007" class="edge">
<title>Node6&#45;&gt;Node7</title>
<g id="a_edge7_Node000006_Node000007"><a xlink:title=" ">
<path fill="none" stroke="#63b8ff" d="M242.97,-164.75C242.97,-157.8 242.97,-147.85 242.97,-139.13"/>
<polygon fill="#63b8ff" stroke="#63b8ff" points="246.47,-139.09 242.97,-129.09 239.47,-139.09 246.47,-139.09"/>
</a>
</g>
</g>
<!-- Node8 -->
<g id="Node000008" class="node">
<title>Node8</title>
<g id="a_Node000008"><a xlink:href="Logger_8h.html" target="_top" xlink:title=" ">
<polygon fill="white" stroke="#666666" points="308.97,-74 250.97,-74 250.97,-55 308.97,-55 308.97,-74"/>
<text text-anchor="middle" x="279.97" y="-62" font-family="Helvetica,sans-Serif" font-size="10.00">Logger.h</text>
</a>
</g>
</g>
<!-- Node6&#45;&gt;Node8 -->
<g id="edge11_Node000006_Node000008" class="edge">
<title>Node6&#45;&gt;Node8</title>
<g id="a_edge11_Node000006_Node000008"><a xlink:title=" ">
<path fill="none" stroke="#63b8ff" d="M253.96,-164.99C263.42,-156.9 276.4,-143.81 281.97,-129 287.38,-114.63 286.31,-97.11 284.22,-84.11"/>
<polygon fill="#63b8ff" stroke="#63b8ff" points="287.6,-83.19 282.24,-74.05 280.73,-84.54 287.6,-83.19"/>
</a>
</g>
</g>
<!-- Node7&#45;&gt;Node2 -->
<g id="edge8_Node000007_Node000002" class="edge">
<title>Node7&#45;&gt;Node2</title>
<g id="a_edge8_Node000007_Node000002"><a xlink:title=" ">
<path fill="none" stroke="#63b8ff" d="M239.78,-109.66C233.41,-92.01 218.99,-52.09 210.52,-28.64"/>
<polygon fill="#63b8ff" stroke="#63b8ff" points="213.79,-27.38 207.1,-19.16 207.2,-29.75 213.79,-27.38"/>
</a>
</g>
</g>
<!-- Node7&#45;&gt;Node8 -->
<g id="edge9_Node000007_Node000008" class="edge">
<title>Node7&#45;&gt;Node8</title>
<g id="a_edge9_Node000007_Node000008"><a xlink:title=" ">
<path fill="none" stroke="#63b8ff" d="M249.08,-109.75C254.25,-102.34 261.82,-91.5 268.17,-82.41"/>
<polygon fill="#63b8ff" stroke="#63b8ff" points="271.12,-84.29 273.97,-74.09 265.38,-80.29 271.12,-84.29"/>
</a>
</g>
</g>
<!-- Node8&#45;&gt;Node2 -->
<g id="edge10_Node000008_Node000002" class="edge">
<title>Node8&#45;&gt;Node2</title>
<g id="a_edge10_Node000008_Node000002"><a xlink:title=" ">
<path fill="none" stroke="#63b8ff" d="M267.76,-54.98C256.2,-46.92 238.6,-34.65 224.81,-25.03"/>
<polygon fill="#63b8ff" stroke="#63b8ff" points="226.61,-22.02 216.4,-19.17 222.6,-27.76 226.61,-22.02"/>
</a>
</g>
</g>
</g>
</svg>
