<?xml version="1.0" encoding="UTF-8" standalone="no"?>
<!DOCTYPE svg PUBLIC "-//W3C//DTD SVG 1.1//EN"
 "http://www.w3.org/Graphics/SVG/1.1/DTD/svg11.dtd">
<!-- Generated by graphviz version 12.1.2 (20240928.0832)
 -->
<!-- Title: SCD40Sensor.h Pages: 1 -->
<svg width="579pt" height="252pt"
 viewBox="0.00 0.00 578.75 252.00" xmlns="http://www.w3.org/2000/svg" xmlns:xlink="http://www.w3.org/1999/xlink">
<g id="graph0" class="graph" transform="scale(1 1) rotate(0) translate(4 248)">
<title>SCD40Sensor.h</title>
<!-- Node1 -->
<g id="Node000001" class="node">
<title>Node1</title>
<g id="a_Node000001"><a xlink:title=" ">
<polygon fill="#999999" stroke="#666666" points="333.62,-244 246.38,-244 246.38,-224 333.62,-224 333.62,-244"/>
<text text-anchor="middle" x="290" y="-230.5" font-family="Helvetica,sans-Serif" font-size="10.00">SCD40Sensor.h</text>
</a>
</g>
</g>
<!-- Node2 -->
<g id="Node000002" class="node">
<title>Node2</title>
<g id="a_Node000002"><a xlink:title=" ">
<polygon fill="#e0e0e0" stroke="#999999" points="94,-188 0,-188 0,-168 94,-168 94,-188"/>
<text text-anchor="middle" x="47" y="-174.5" font-family="Helvetica,sans-Serif" font-size="10.00">Adafruit_Sensor.h</text>
</a>
</g>
</g>
<!-- Node1&#45;&gt;Node2 -->
<g id="edge1_Node000001_Node000002" class="edge">
<title>Node1&#45;&gt;Node2</title>
<g id="a_edge1_Node000001_Node000002"><a xlink:title=" ">
<path fill="none" stroke="#63b8ff" d="M247.39,-223.53C206.57,-214.46 144.82,-200.74 100.66,-190.93"/>
<polygon fill="#63b8ff" stroke="#63b8ff" points="101.56,-187.54 91.03,-188.79 100.04,-194.37 101.56,-187.54"/>
</a>
</g>
</g>
<!-- Node3 -->
<g id="Node000003" class="node">
<title>Node3</title>
<g id="a_Node000003"><a xlink:title=" ">
<polygon fill="#e0e0e0" stroke="#999999" points="218,-188 112,-188 112,-168 218,-168 218,-188"/>
<text text-anchor="middle" x="165" y="-174.5" font-family="Helvetica,sans-Serif" font-size="10.00">SensirionI2cScd4x.h</text>
</a>
</g>
</g>
<!-- Node1&#45;&gt;Node3 -->
<g id="edge2_Node000001_Node000003" class="edge">
<title>Node1&#45;&gt;Node3</title>
<g id="a_edge2_Node000001_Node000003"><a xlink:title=" ">
<path fill="none" stroke="#63b8ff" d="M268.23,-223.59C248.63,-215.13 219.57,-202.58 197.28,-192.94"/>
<polygon fill="#63b8ff" stroke="#63b8ff" points="198.9,-189.83 188.33,-189.08 196.12,-196.26 198.9,-189.83"/>
</a>
</g>
</g>
<!-- Node4 -->
<g id="Node000004" class="node">
<title>Node4</title>
<g id="a_Node000004"><a xlink:title=" ">
<polygon fill="#e0e0e0" stroke="#999999" points="280.25,-188 235.75,-188 235.75,-168 280.25,-168 280.25,-188"/>
<text text-anchor="middle" x="258" y="-174.5" font-family="Helvetica,sans-Serif" font-size="10.00">Wire.h</text>
</a>
</g>
</g>
<!-- Node1&#45;&gt;Node4 -->
<g id="edge3_Node000001_Node000004" class="edge">
<title>Node1&#45;&gt;Node4</title>
<g id="a_edge3_Node000001_Node000004"><a xlink:title=" ">
<path fill="none" stroke="#63b8ff" d="M284.43,-223.59C280.25,-216.55 274.4,-206.67 269.26,-198"/>
<polygon fill="#63b8ff" stroke="#63b8ff" points="272.39,-196.42 264.28,-189.6 266.37,-199.99 272.39,-196.42"/>
</a>
</g>
</g>
<!-- Node5 -->
<g id="Node000005" class="node">
<title>Node5</title>
<g id="a_Node000005"><a xlink:title=" ">
<polygon fill="#e0e0e0" stroke="#999999" points="346.12,-188 297.88,-188 297.88,-168 346.12,-168 346.12,-188"/>
<text text-anchor="middle" x="322" y="-174.5" font-family="Helvetica,sans-Serif" font-size="10.00">string.h</text>
</a>
</g>
</g>
<!-- Node1&#45;&gt;Node5 -->
<g id="edge4_Node000001_Node000005" class="edge">
<title>Node1&#45;&gt;Node5</title>
<g id="a_edge4_Node000001_Node000005"><a xlink:title=" ">
<path fill="none" stroke="#63b8ff" d="M295.57,-223.59C299.75,-216.55 305.6,-206.67 310.74,-198"/>
<polygon fill="#63b8ff" stroke="#63b8ff" points="313.63,-199.99 315.72,-189.6 307.61,-196.42 313.63,-199.99"/>
</a>
</g>
</g>
<!-- Node6 -->
<g id="Node000006" class="node">
<title>Node6</title>
<g id="a_Node000006"><a xlink:href="PayloadConfig_8h.html" target="_top" xlink:title="Central location for pinout and config defines.">
<polygon fill="white" stroke="#666666" points="452,-188 364,-188 364,-168 452,-168 452,-188"/>
<text text-anchor="middle" x="408" y="-174.5" font-family="Helvetica,sans-Serif" font-size="10.00">PayloadConfig.h</text>
</a>
</g>
</g>
<!-- Node1&#45;&gt;Node6 -->
<g id="edge5_Node000001_Node000006" class="edge">
<title>Node1&#45;&gt;Node6</title>
<g id="a_edge5_Node000001_Node000006"><a xlink:title=" ">
<path fill="none" stroke="#63b8ff" d="M310.55,-223.59C328.88,-215.21 355.99,-202.8 376.96,-193.21"/>
<polygon fill="#63b8ff" stroke="#63b8ff" points="378.27,-196.45 385.91,-189.11 375.36,-190.09 378.27,-196.45"/>
</a>
</g>
</g>
<!-- Node7 -->
<g id="Node000007" class="node">
<title>Node7</title>
<g id="a_Node000007"><a xlink:href="Sensor_8h.html" target="_top" xlink:title=" ">
<polygon fill="white" stroke="#666666" points="525.5,-188 470.5,-188 470.5,-168 525.5,-168 525.5,-188"/>
<text text-anchor="middle" x="498" y="-174.5" font-family="Helvetica,sans-Serif" font-size="10.00">Sensor.h</text>
</a>
</g>
</g>
<!-- Node1&#45;&gt;Node7 -->
<g id="edge6_Node000001_Node000007" class="edge">
<title>Node1&#45;&gt;Node7</title>
<g id="a_edge6_Node000001_Node000007"><a xlink:title=" ">
<path fill="none" stroke="#63b8ff" d="M326.23,-223.59C363.52,-213.91 421.4,-198.89 459.5,-189"/>
<polygon fill="#63b8ff" stroke="#63b8ff" points="459.9,-192.51 468.7,-186.61 458.14,-185.73 459.9,-192.51"/>
</a>
</g>
</g>
<!-- Node8 -->
<g id="Node000008" class="node">
<title>Node8</title>
<g id="a_Node000008"><a xlink:title=" ">
<polygon fill="#e0e0e0" stroke="#999999" points="517.62,-20 460.38,-20 460.38,0 517.62,0 517.62,-20"/>
<text text-anchor="middle" x="489" y="-6.5" font-family="Helvetica,sans-Serif" font-size="10.00">Arduino.h</text>
</a>
</g>
</g>
<!-- Node7&#45;&gt;Node8 -->
<g id="edge7_Node000007_Node000008" class="edge">
<title>Node7&#45;&gt;Node8</title>
<g id="a_edge7_Node000007_Node000008"><a xlink:title=" ">
<path fill="none" stroke="#63b8ff" d="M487.15,-167.53C478.47,-159.18 466.97,-146.16 462,-132 449.76,-97.11 466.11,-54.56 478.19,-30.34"/>
<polygon fill="#63b8ff" stroke="#63b8ff" points="481.2,-32.13 482.77,-21.65 475,-28.86 481.2,-32.13"/>
</a>
</g>
</g>
<!-- Node9 -->
<g id="Node000009" class="node">
<title>Node9</title>
<g id="a_Node000009"><a xlink:href="Device_8h.html" target="_top" xlink:title=" ">
<polygon fill="white" stroke="#666666" points="525.5,-132 470.5,-132 470.5,-112 525.5,-112 525.5,-132"/>
<text text-anchor="middle" x="498" y="-118.5" font-family="Helvetica,sans-Serif" font-size="10.00">Device.h</text>
</a>
</g>
</g>
<!-- Node7&#45;&gt;Node9 -->
<g id="edge8_Node000007_Node000009" class="edge">
<title>Node7&#45;&gt;Node9</title>
<g id="a_edge8_Node000007_Node000009"><a xlink:title=" ">
<path fill="none" stroke="#63b8ff" d="M498,-167.59C498,-161.01 498,-151.96 498,-143.73"/>
<polygon fill="#63b8ff" stroke="#63b8ff" points="501.5,-143.81 498,-133.81 494.5,-143.81 501.5,-143.81"/>
</a>
</g>
</g>
<!-- Node10 -->
<g id="Node000010" class="node">
<title>Node10</title>
<g id="a_Node000010"><a xlink:href="Logger_8h.html" target="_top" xlink:title=" ">
<polygon fill="white" stroke="#666666" points="570.75,-76 517.25,-76 517.25,-56 570.75,-56 570.75,-76"/>
<text text-anchor="middle" x="544" y="-62.5" font-family="Helvetica,sans-Serif" font-size="10.00">Logger.h</text>
</a>
</g>
</g>
<!-- Node7&#45;&gt;Node10 -->
<g id="edge12_Node000007_Node000010" class="edge">
<title>Node7&#45;&gt;Node10</title>
<g id="a_edge12_Node000007_Node000010"><a xlink:title=" ">
<path fill="none" stroke="#63b8ff" d="M508.3,-167.73C516.94,-159.31 528.83,-146.08 535,-132 541.17,-117.92 543.33,-100.64 544,-87.43"/>
<polygon fill="#63b8ff" stroke="#63b8ff" points="547.49,-87.85 544.23,-77.77 540.5,-87.68 547.49,-87.85"/>
</a>
</g>
</g>
<!-- Node9&#45;&gt;Node8 -->
<g id="edge9_Node000009_Node000008" class="edge">
<title>Node9&#45;&gt;Node8</title>
<g id="a_edge9_Node000009_Node000008"><a xlink:title=" ">
<path fill="none" stroke="#63b8ff" d="M497.23,-111.62C495.79,-94.01 492.65,-55.59 490.69,-31.65"/>
<polygon fill="#63b8ff" stroke="#63b8ff" points="494.19,-31.54 489.89,-21.86 487.22,-32.12 494.19,-31.54"/>
</a>
</g>
</g>
<!-- Node9&#45;&gt;Node10 -->
<g id="edge10_Node000009_Node000010" class="edge">
<title>Node9&#45;&gt;Node10</title>
<g id="a_edge10_Node000009_Node000010"><a xlink:title=" ">
<path fill="none" stroke="#63b8ff" d="M506.01,-111.59C512.28,-104.24 521.17,-93.8 528.78,-84.87"/>
<polygon fill="#63b8ff" stroke="#63b8ff" points="531.28,-87.33 535.1,-77.45 525.95,-82.79 531.28,-87.33"/>
</a>
</g>
</g>
<!-- Node10&#45;&gt;Node8 -->
<g id="edge11_Node000010_Node000008" class="edge">
<title>Node10&#45;&gt;Node8</title>
<g id="a_edge11_Node000010_Node000008"><a xlink:title=" ">
<path fill="none" stroke="#63b8ff" d="M534.42,-55.59C526.77,-48.08 515.84,-37.35 506.62,-28.3"/>
<polygon fill="#63b8ff" stroke="#63b8ff" points="509.14,-25.87 499.55,-21.36 504.23,-30.86 509.14,-25.87"/>
</a>
</g>
</g>
</g>
</svg>
