<?xml version="1.0" encoding="UTF-8" standalone="no"?>
<!DOCTYPE svg PUBLIC "-//W3C//DTD SVG 1.1//EN"
 "http://www.w3.org/Graphics/SVG/1.1/DTD/svg11.dtd">
<!-- Generated by graphviz version 2.43.0 (0)
 -->
<!-- Title: SDStorage.cpp Pages: 1 -->
<svg width="480pt" height="302pt"
 viewBox="0.00 0.00 479.51 302.00" xmlns="http://www.w3.org/2000/svg" xmlns:xlink="http://www.w3.org/1999/xlink">
<g id="graph0" class="graph" transform="scale(1 1) rotate(0) translate(4 298)">
<title>SDStorage.cpp</title>
<!-- Node1 -->
<g id="Node000001" class="node">
<title>Node1</title>
<g id="a_Node000001"><a xlink:title=" ">
<polygon fill="#999999" stroke="#666666" points="283.5,-294 195.5,-294 195.5,-275 283.5,-275 283.5,-294"/>
<text text-anchor="middle" x="239.5" y="-282" font-family="Helvetica,sans-Serif" font-size="10.00">SDStorage.cpp</text>
</a>
</g>
</g>
<!-- Node2 -->
<g id="Node000002" class="node">
<title>Node2</title>
<g id="a_Node000002"><a xlink:href="SDStorage_8h.html" target="_top" xlink:title=" ">
<polygon fill="white" stroke="#666666" points="278,-239 201,-239 201,-220 278,-220 278,-239"/>
<text text-anchor="middle" x="239.5" y="-227" font-family="Helvetica,sans-Serif" font-size="10.00">SDStorage.h</text>
</a>
</g>
</g>
<!-- Node1&#45;&gt;Node2 -->
<g id="edge1_Node000001_Node000002" class="edge">
<title>Node1&#45;&gt;Node2</title>
<g id="a_edge1_Node000001_Node000002"><a xlink:title=" ">
<path fill="none" stroke="#63b8ff" d="M239.5,-274.75C239.5,-267.8 239.5,-257.85 239.5,-249.13"/>
<polygon fill="#63b8ff" stroke="#63b8ff" points="243,-249.09 239.5,-239.09 236,-249.09 243,-249.09"/>
</a>
</g>
</g>
<!-- Node3 -->
<g id="Node000003" class="node">
<title>Node3</title>
<g id="a_Node000003"><a xlink:href="ErrorDisplay_8h.html" target="_top" xlink:title=" ">
<polygon fill="white" stroke="#666666" points="241.5,-184 157.5,-184 157.5,-165 241.5,-165 241.5,-184"/>
<text text-anchor="middle" x="199.5" y="-172" font-family="Helvetica,sans-Serif" font-size="10.00">ErrorDisplay.h</text>
</a>
</g>
</g>
<!-- Node2&#45;&gt;Node3 -->
<g id="edge2_Node000002_Node000003" class="edge">
<title>Node2&#45;&gt;Node3</title>
<g id="a_edge2_Node000002_Node000003"><a xlink:title=" ">
<path fill="none" stroke="#63b8ff" d="M232.89,-219.75C227.24,-212.26 218.96,-201.28 212.05,-192.13"/>
<polygon fill="#63b8ff" stroke="#63b8ff" points="214.8,-189.96 205.98,-184.09 209.21,-194.18 214.8,-189.96"/>
</a>
</g>
</g>
<!-- Node5 -->
<g id="Node000005" class="node">
<title>Node5</title>
<g id="a_Node000005"><a xlink:href="PayloadConfig_8h.html" target="_top" xlink:title="Central location for pinout and config defines.">
<polygon fill="white" stroke="#666666" points="95,-129 0,-129 0,-110 95,-110 95,-129"/>
<text text-anchor="middle" x="47.5" y="-117" font-family="Helvetica,sans-Serif" font-size="10.00">PayloadConfig.h</text>
</a>
</g>
</g>
<!-- Node2&#45;&gt;Node5 -->
<g id="edge8_Node000002_Node000005" class="edge">
<title>Node2&#45;&gt;Node5</title>
<g id="a_edge8_Node000002_Node000005"><a xlink:title=" ">
<path fill="none" stroke="#63b8ff" d="M220.38,-219.87C201.75,-211.3 172.78,-197.52 148.5,-184 120.25,-168.27 88.9,-148.12 68.73,-134.78"/>
<polygon fill="#63b8ff" stroke="#63b8ff" points="70.57,-131.8 60.31,-129.17 66.69,-137.62 70.57,-131.8"/>
</a>
</g>
</g>
<!-- Node9 -->
<g id="Node000009" class="node">
<title>Node9</title>
<g id="a_Node000009"><a xlink:title=" ">
<polygon fill="#e0e0e0" stroke="#999999" points="299,-184 260,-184 260,-165 299,-165 299,-184"/>
<text text-anchor="middle" x="279.5" y="-172" font-family="Helvetica,sans-Serif" font-size="10.00">SD.h</text>
</a>
</g>
</g>
<!-- Node2&#45;&gt;Node9 -->
<g id="edge9_Node000002_Node000009" class="edge">
<title>Node2&#45;&gt;Node9</title>
<g id="a_edge9_Node000002_Node000009"><a xlink:title=" ">
<path fill="none" stroke="#63b8ff" d="M246.11,-219.75C251.76,-212.26 260.04,-201.28 266.95,-192.13"/>
<polygon fill="#63b8ff" stroke="#63b8ff" points="269.79,-194.18 273.02,-184.09 264.2,-189.96 269.79,-194.18"/>
</a>
</g>
</g>
<!-- Node10 -->
<g id="Node000010" class="node">
<title>Node10</title>
<g id="a_Node000010"><a xlink:href="Storage_8h.html" target="_top" xlink:title=" ">
<polygon fill="white" stroke="#666666" points="449,-184 386,-184 386,-165 449,-165 449,-184"/>
<text text-anchor="middle" x="417.5" y="-172" font-family="Helvetica,sans-Serif" font-size="10.00">Storage.h</text>
</a>
</g>
</g>
<!-- Node2&#45;&gt;Node10 -->
<g id="edge10_Node000002_Node000010" class="edge">
<title>Node2&#45;&gt;Node10</title>
<g id="a_edge10_Node000002_Node000010"><a xlink:title=" ">
<path fill="none" stroke="#63b8ff" d="M268.1,-219.98C298.11,-211.05 345.48,-196.94 378.82,-187.02"/>
<polygon fill="#63b8ff" stroke="#63b8ff" points="380.09,-190.29 388.68,-184.08 378.09,-183.58 380.09,-190.29"/>
</a>
</g>
</g>
<!-- Node4 -->
<g id="Node000004" class="node">
<title>Node4</title>
<g id="a_Node000004"><a xlink:title=" ">
<polygon fill="#e0e0e0" stroke="#999999" points="430,-19 367,-19 367,0 430,0 430,-19"/>
<text text-anchor="middle" x="398.5" y="-7" font-family="Helvetica,sans-Serif" font-size="10.00">Arduino.h</text>
</a>
</g>
</g>
<!-- Node3&#45;&gt;Node4 -->
<g id="edge3_Node000003_Node000004" class="edge">
<title>Node3&#45;&gt;Node4</title>
<g id="a_edge3_Node000003_Node000004"><a xlink:title=" ">
<path fill="none" stroke="#63b8ff" d="M234.9,-164.95C258.34,-158.04 288.82,-146.53 311.5,-129 347.87,-100.9 376.13,-53.69 389.68,-28.16"/>
<polygon fill="#63b8ff" stroke="#63b8ff" points="392.81,-29.73 394.29,-19.24 386.59,-26.52 392.81,-29.73"/>
</a>
</g>
</g>
<!-- Node3&#45;&gt;Node5 -->
<g id="edge4_Node000003_Node000005" class="edge">
<title>Node3&#45;&gt;Node5</title>
<g id="a_edge4_Node000003_Node000005"><a xlink:title=" ">
<path fill="none" stroke="#63b8ff" d="M175.08,-164.98C149.78,-156.16 110.05,-142.31 81.64,-132.41"/>
<polygon fill="#63b8ff" stroke="#63b8ff" points="82.71,-129.07 72.11,-129.08 80.4,-135.68 82.71,-129.07"/>
</a>
</g>
</g>
<!-- Node7 -->
<g id="Node000007" class="node">
<title>Node7</title>
<g id="a_Node000007"><a xlink:title=" ">
<polygon fill="#e0e0e0" stroke="#999999" points="208,-129 113,-129 113,-110 208,-110 208,-129"/>
<text text-anchor="middle" x="160.5" y="-117" font-family="Helvetica,sans-Serif" font-size="10.00">pico/multicore.h</text>
</a>
</g>
</g>
<!-- Node3&#45;&gt;Node7 -->
<g id="edge6_Node000003_Node000007" class="edge">
<title>Node3&#45;&gt;Node7</title>
<g id="a_edge6_Node000003_Node000007"><a xlink:title=" ">
<path fill="none" stroke="#63b8ff" d="M193.06,-164.75C187.61,-157.34 179.64,-146.5 172.94,-137.41"/>
<polygon fill="#63b8ff" stroke="#63b8ff" points="175.57,-135.07 166.82,-129.09 169.93,-139.22 175.57,-135.07"/>
</a>
</g>
</g>
<!-- Node8 -->
<g id="Node000008" class="node">
<title>Node8</title>
<g id="a_Node000008"><a xlink:title=" ">
<polygon fill="#e0e0e0" stroke="#999999" points="302.5,-129 226.5,-129 226.5,-110 302.5,-110 302.5,-129"/>
<text text-anchor="middle" x="264.5" y="-117" font-family="Helvetica,sans-Serif" font-size="10.00">pico/stdlib.h</text>
</a>
</g>
</g>
<!-- Node3&#45;&gt;Node8 -->
<g id="edge7_Node000003_Node000008" class="edge">
<title>Node3&#45;&gt;Node8</title>
<g id="a_edge7_Node000003_Node000008"><a xlink:title=" ">
<path fill="none" stroke="#63b8ff" d="M209.94,-164.98C219.65,-157.07 234.32,-145.11 246,-135.58"/>
<polygon fill="#63b8ff" stroke="#63b8ff" points="248.33,-138.2 253.87,-129.17 243.9,-132.78 248.33,-138.2"/>
</a>
</g>
</g>
<!-- Node6 -->
<g id="Node000006" class="node">
<title>Node6</title>
<g id="a_Node000006"><a xlink:title=" ">
<polygon fill="#e0e0e0" stroke="#999999" points="71.5,-74 23.5,-74 23.5,-55 71.5,-55 71.5,-74"/>
<text text-anchor="middle" x="47.5" y="-62" font-family="Helvetica,sans-Serif" font-size="10.00">Wire.h</text>
</a>
</g>
</g>
<!-- Node5&#45;&gt;Node6 -->
<g id="edge5_Node000005_Node000006" class="edge">
<title>Node5&#45;&gt;Node6</title>
<g id="a_edge5_Node000005_Node000006"><a xlink:title=" ">
<path fill="none" stroke="#63b8ff" d="M47.5,-109.75C47.5,-102.8 47.5,-92.85 47.5,-84.13"/>
<polygon fill="#63b8ff" stroke="#63b8ff" points="51,-84.09 47.5,-74.09 44,-84.09 51,-84.09"/>
</a>
</g>
</g>
<!-- Node10&#45;&gt;Node4 -->
<g id="edge11_Node000010_Node000004" class="edge">
<title>Node10&#45;&gt;Node4</title>
<g id="a_edge11_Node000010_Node000004"><a xlink:title=" ">
<path fill="none" stroke="#63b8ff" d="M426.11,-164.89C444.97,-144.95 486.59,-94.32 465.5,-55 457.99,-41 443.93,-30.66 430.62,-23.48"/>
<polygon fill="#63b8ff" stroke="#63b8ff" points="432.13,-20.33 421.61,-19.02 429.02,-26.6 432.13,-20.33"/>
</a>
</g>
</g>
<!-- Node11 -->
<g id="Node000011" class="node">
<title>Node11</title>
<g id="a_Node000011"><a xlink:href="Device_8h.html" target="_top" xlink:title=" ">
<polygon fill="white" stroke="#666666" points="418,-129 359,-129 359,-110 418,-110 418,-129"/>
<text text-anchor="middle" x="388.5" y="-117" font-family="Helvetica,sans-Serif" font-size="10.00">Device.h</text>
</a>
</g>
</g>
<!-- Node10&#45;&gt;Node11 -->
<g id="edge12_Node000010_Node000011" class="edge">
<title>Node10&#45;&gt;Node11</title>
<g id="a_edge12_Node000010_Node000011"><a xlink:title=" ">
<path fill="none" stroke="#63b8ff" d="M412.71,-164.75C408.74,-157.49 402.97,-146.95 398.07,-137.98"/>
<polygon fill="#63b8ff" stroke="#63b8ff" points="401.07,-136.18 393.2,-129.09 394.93,-139.54 401.07,-136.18"/>
</a>
</g>
</g>
<!-- Node12 -->
<g id="Node000012" class="node">
<title>Node12</title>
<g id="a_Node000012"><a xlink:href="Logger_8h.html" target="_top" xlink:title=" ">
<polygon fill="white" stroke="#666666" points="456.5,-74 398.5,-74 398.5,-55 456.5,-55 456.5,-74"/>
<text text-anchor="middle" x="427.5" y="-62" font-family="Helvetica,sans-Serif" font-size="10.00">Logger.h</text>
</a>
</g>
</g>
<!-- Node10&#45;&gt;Node12 -->
<g id="edge16_Node000010_Node000012" class="edge">
<title>Node10&#45;&gt;Node12</title>
<g id="a_edge16_Node000010_Node000012"><a xlink:title=" ">
<path fill="none" stroke="#63b8ff" d="M420.07,-164.73C422.55,-155.83 426.1,-141.59 427.5,-129 429.16,-114.07 429.05,-97.04 428.59,-84.38"/>
<polygon fill="#63b8ff" stroke="#63b8ff" points="432.07,-83.98 428.1,-74.16 425.08,-84.32 432.07,-83.98"/>
</a>
</g>
</g>
<!-- Node11&#45;&gt;Node4 -->
<g id="edge13_Node000011_Node000004" class="edge">
<title>Node11&#45;&gt;Node4</title>
<g id="a_edge13_Node000011_Node000004"><a xlink:title=" ">
<path fill="none" stroke="#63b8ff" d="M388.13,-109.84C387.73,-97.59 387.39,-74.51 389.5,-55 390.42,-46.48 392.18,-37.17 393.91,-29.27"/>
<polygon fill="#63b8ff" stroke="#63b8ff" points="397.37,-29.82 396.22,-19.29 390.55,-28.24 397.37,-29.82"/>
</a>
</g>
</g>
<!-- Node11&#45;&gt;Node12 -->
<g id="edge14_Node000011_Node000012" class="edge">
<title>Node11&#45;&gt;Node12</title>
<g id="a_edge14_Node000011_Node000012"><a xlink:title=" ">
<path fill="none" stroke="#63b8ff" d="M394.94,-109.75C400.39,-102.34 408.36,-91.5 415.06,-82.41"/>
<polygon fill="#63b8ff" stroke="#63b8ff" points="418.07,-84.22 421.18,-74.09 412.43,-80.07 418.07,-84.22"/>
</a>
</g>
</g>
<!-- Node12&#45;&gt;Node4 -->
<g id="edge15_Node000012_Node000004" class="edge">
<title>Node12&#45;&gt;Node4</title>
<g id="a_edge15_Node000012_Node000004"><a xlink:title=" ">
<path fill="none" stroke="#63b8ff" d="M422.71,-54.75C418.74,-47.49 412.97,-36.95 408.07,-27.98"/>
<polygon fill="#63b8ff" stroke="#63b8ff" points="411.07,-26.18 403.2,-19.09 404.93,-29.54 411.07,-26.18"/>
</a>
</g>
</g>
</g>
</svg>
