<?xml version="1.0" encoding="UTF-8" standalone="no"?>
<!DOCTYPE svg PUBLIC "-//W3C//DTD SVG 1.1//EN"
 "http://www.w3.org/Graphics/SVG/1.1/DTD/svg11.dtd">
<!-- Generated by graphviz version 12.1.2 (20240928.0832)
 -->
<!-- Title: SDStorage.h Pages: 1 -->
<svg width="472pt" height="252pt"
 viewBox="0.00 0.00 471.75 252.00" xmlns="http://www.w3.org/2000/svg" xmlns:xlink="http://www.w3.org/1999/xlink">
<g id="graph0" class="graph" transform="scale(1 1) rotate(0) translate(4 248)">
<title>SDStorage.h</title>
<!-- Node1 -->
<g id="Node000001" class="node">
<title>Node1</title>
<g id="a_Node000001"><a xlink:title=" ">
<polygon fill="#999999" stroke="#666666" points="225.12,-244 152.88,-244 152.88,-224 225.12,-224 225.12,-244"/>
<text text-anchor="middle" x="189" y="-230.5" font-family="Helvetica,sans-Serif" font-size="10.00">SDStorage.h</text>
</a>
</g>
</g>
<!-- Node2 -->
<g id="Node000002" class="node">
<title>Node2</title>
<g id="a_Node000002"><a xlink:href="ErrorDisplay_8h.html" target="_top" xlink:title=" ">
<polygon fill="white" stroke="#666666" points="189.75,-188 112.25,-188 112.25,-168 189.75,-168 189.75,-188"/>
<text text-anchor="middle" x="151" y="-174.5" font-family="Helvetica,sans-Serif" font-size="10.00">ErrorDisplay.h</text>
</a>
</g>
</g>
<!-- Node1&#45;&gt;Node2 -->
<g id="edge1_Node000001_Node000002" class="edge">
<title>Node1&#45;&gt;Node2</title>
<g id="a_edge1_Node000001_Node000002"><a xlink:title=" ">
<path fill="none" stroke="#63b8ff" d="M182.38,-223.59C177.31,-216.39 170.16,-206.23 163.97,-197.43"/>
<polygon fill="#63b8ff" stroke="#63b8ff" points="167.03,-195.7 158.41,-189.54 161.31,-199.73 167.03,-195.7"/>
</a>
</g>
</g>
<!-- Node4 -->
<g id="Node000004" class="node">
<title>Node4</title>
<g id="a_Node000004"><a xlink:href="PayloadConfig_8h.html" target="_top" xlink:title="Central location for pinout and config defines.">
<polygon fill="white" stroke="#666666" points="88,-132 0,-132 0,-112 88,-112 88,-132"/>
<text text-anchor="middle" x="44" y="-118.5" font-family="Helvetica,sans-Serif" font-size="10.00">PayloadConfig.h</text>
</a>
</g>
</g>
<!-- Node1&#45;&gt;Node4 -->
<g id="edge6_Node000001_Node000004" class="edge">
<title>Node1&#45;&gt;Node4</title>
<g id="a_edge6_Node000001_Node000004"><a xlink:title=" ">
<path fill="none" stroke="#63b8ff" d="M165.79,-223.55C147.7,-215.56 122.47,-203.04 103,-188 85.36,-174.37 68.62,-155.1 57.51,-141.08"/>
<polygon fill="#63b8ff" stroke="#63b8ff" points="60.58,-139.33 51.7,-133.55 55.03,-143.6 60.58,-139.33"/>
</a>
</g>
</g>
<!-- Node7 -->
<g id="Node000007" class="node">
<title>Node7</title>
<g id="a_Node000007"><a xlink:title=" ">
<polygon fill="#e0e0e0" stroke="#999999" points="246.25,-188 207.75,-188 207.75,-168 246.25,-168 246.25,-188"/>
<text text-anchor="middle" x="227" y="-174.5" font-family="Helvetica,sans-Serif" font-size="10.00">SD.h</text>
</a>
</g>
</g>
<!-- Node1&#45;&gt;Node7 -->
<g id="edge7_Node000001_Node000007" class="edge">
<title>Node1&#45;&gt;Node7</title>
<g id="a_edge7_Node000001_Node000007"><a xlink:title=" ">
<path fill="none" stroke="#63b8ff" d="M195.62,-223.59C200.69,-216.39 207.84,-206.23 214.03,-197.43"/>
<polygon fill="#63b8ff" stroke="#63b8ff" points="216.69,-199.73 219.59,-189.54 210.97,-195.7 216.69,-199.73"/>
</a>
</g>
</g>
<!-- Node8 -->
<g id="Node000008" class="node">
<title>Node8</title>
<g id="a_Node000008"><a xlink:href="Storage_8h.html" target="_top" xlink:title=" ">
<polygon fill="white" stroke="#666666" points="401,-188 343,-188 343,-168 401,-168 401,-188"/>
<text text-anchor="middle" x="372" y="-174.5" font-family="Helvetica,sans-Serif" font-size="10.00">Storage.h</text>
</a>
</g>
</g>
<!-- Node1&#45;&gt;Node8 -->
<g id="edge8_Node000001_Node000008" class="edge">
<title>Node1&#45;&gt;Node8</title>
<g id="a_edge8_Node000001_Node000008"><a xlink:title=" ">
<path fill="none" stroke="#63b8ff" d="M220.88,-223.59C251.7,-214.5 298.5,-200.69 331.85,-190.85"/>
<polygon fill="#63b8ff" stroke="#63b8ff" points="332.55,-194.29 341.15,-188.1 330.57,-187.58 332.55,-194.29"/>
</a>
</g>
</g>
<!-- Node3 -->
<g id="Node000003" class="node">
<title>Node3</title>
<g id="a_Node000003"><a xlink:title=" ">
<polygon fill="#e0e0e0" stroke="#999999" points="391.62,-20 334.38,-20 334.38,0 391.62,0 391.62,-20"/>
<text text-anchor="middle" x="363" y="-6.5" font-family="Helvetica,sans-Serif" font-size="10.00">Arduino.h</text>
</a>
</g>
</g>
<!-- Node2&#45;&gt;Node3 -->
<g id="edge2_Node000002_Node000003" class="edge">
<title>Node2&#45;&gt;Node3</title>
<g id="a_edge2_Node000002_Node000003"><a xlink:title=" ">
<path fill="none" stroke="#63b8ff" d="M144.82,-167.84C136.67,-154.51 124.64,-129.48 136,-112 177.48,-48.14 269.71,-24.32 322.96,-15.69"/>
<polygon fill="#63b8ff" stroke="#63b8ff" points="323.15,-19.2 332.52,-14.25 322.11,-12.28 323.15,-19.2"/>
</a>
</g>
</g>
<!-- Node2&#45;&gt;Node4 -->
<g id="edge3_Node000002_Node000004" class="edge">
<title>Node2&#45;&gt;Node4</title>
<g id="a_edge3_Node000002_Node000004"><a xlink:title=" ">
<path fill="none" stroke="#63b8ff" d="M132.36,-167.59C115.97,-159.32 91.84,-147.14 72.94,-137.6"/>
<polygon fill="#63b8ff" stroke="#63b8ff" points="74.64,-134.54 64.13,-133.16 71.49,-140.79 74.64,-134.54"/>
</a>
</g>
</g>
<!-- Node5 -->
<g id="Node000005" class="node">
<title>Node5</title>
<g id="a_Node000005"><a xlink:title=" ">
<polygon fill="#e0e0e0" stroke="#999999" points="229.5,-132 144.5,-132 144.5,-112 229.5,-112 229.5,-132"/>
<text text-anchor="middle" x="187" y="-118.5" font-family="Helvetica,sans-Serif" font-size="10.00">pico/multicore.h</text>
</a>
</g>
</g>
<!-- Node2&#45;&gt;Node5 -->
<g id="edge4_Node000002_Node000005" class="edge">
<title>Node2&#45;&gt;Node5</title>
<g id="a_edge4_Node000002_Node000005"><a xlink:title=" ">
<path fill="none" stroke="#63b8ff" d="M157.27,-167.59C162.02,-160.47 168.7,-150.45 174.52,-141.72"/>
<polygon fill="#63b8ff" stroke="#63b8ff" points="177.33,-143.82 179.96,-133.56 171.5,-139.94 177.33,-143.82"/>
</a>
</g>
</g>
<!-- Node6 -->
<g id="Node000006" class="node">
<title>Node6</title>
<g id="a_Node000006"><a xlink:title=" ">
<polygon fill="#e0e0e0" stroke="#999999" points="316.25,-132 247.75,-132 247.75,-112 316.25,-112 316.25,-132"/>
<text text-anchor="middle" x="282" y="-118.5" font-family="Helvetica,sans-Serif" font-size="10.00">pico/stdlib.h</text>
</a>
</g>
</g>
<!-- Node2&#45;&gt;Node6 -->
<g id="edge5_Node000002_Node000006" class="edge">
<title>Node2&#45;&gt;Node6</title>
<g id="a_edge5_Node000002_Node000006"><a xlink:title=" ">
<path fill="none" stroke="#63b8ff" d="M173.82,-167.59C194.45,-159.09 225.08,-146.46 248.49,-136.81"/>
<polygon fill="#63b8ff" stroke="#63b8ff" points="249.69,-140.1 257.6,-133.06 247.02,-133.63 249.69,-140.1"/>
</a>
</g>
</g>
<!-- Node8&#45;&gt;Node3 -->
<g id="edge9_Node000008_Node000003" class="edge">
<title>Node8&#45;&gt;Node3</title>
<g id="a_edge9_Node000008_Node000003"><a xlink:title=" ">
<path fill="none" stroke="#63b8ff" d="M369.89,-167.75C367.93,-158.7 365.15,-144.48 364,-132 360.76,-96.89 361.34,-55.81 362.12,-31.68"/>
<polygon fill="#63b8ff" stroke="#63b8ff" points="365.61,-32.08 362.48,-21.95 358.61,-31.81 365.61,-32.08"/>
</a>
</g>
</g>
<!-- Node9 -->
<g id="Node000009" class="node">
<title>Node9</title>
<g id="a_Node000009"><a xlink:href="Device_8h.html" target="_top" xlink:title=" ">
<polygon fill="white" stroke="#666666" points="427.5,-132 372.5,-132 372.5,-112 427.5,-112 427.5,-132"/>
<text text-anchor="middle" x="400" y="-118.5" font-family="Helvetica,sans-Serif" font-size="10.00">Device.h</text>
</a>
</g>
</g>
<!-- Node8&#45;&gt;Node9 -->
<g id="edge10_Node000008_Node000009" class="edge">
<title>Node8&#45;&gt;Node9</title>
<g id="a_edge10_Node000008_Node000009"><a xlink:title=" ">
<path fill="none" stroke="#63b8ff" d="M376.88,-167.59C380.49,-160.63 385.54,-150.89 390,-142.29"/>
<polygon fill="#63b8ff" stroke="#63b8ff" points="392.99,-144.13 394.48,-133.64 386.77,-140.91 392.99,-144.13"/>
</a>
</g>
</g>
<!-- Node10 -->
<g id="Node000010" class="node">
<title>Node10</title>
<g id="a_Node000010"><a xlink:href="Logger_8h.html" target="_top" xlink:title=" ">
<polygon fill="white" stroke="#666666" points="463.75,-76 410.25,-76 410.25,-56 463.75,-56 463.75,-76"/>
<text text-anchor="middle" x="437" y="-62.5" font-family="Helvetica,sans-Serif" font-size="10.00">Logger.h</text>
</a>
</g>
</g>
<!-- Node8&#45;&gt;Node10 -->
<g id="edge14_Node000008_Node000010" class="edge">
<title>Node8&#45;&gt;Node10</title>
<g id="a_edge14_Node000008_Node000010"><a xlink:title=" ">
<path fill="none" stroke="#63b8ff" d="M395.75,-167.51C410.53,-160.2 428.34,-148.53 437,-132 444.14,-118.38 443.68,-100.84 441.68,-87.41"/>
<polygon fill="#63b8ff" stroke="#63b8ff" points="445.19,-87.12 439.88,-77.96 438.31,-88.44 445.19,-87.12"/>
</a>
</g>
</g>
<!-- Node9&#45;&gt;Node3 -->
<g id="edge11_Node000009_Node000003" class="edge">
<title>Node9&#45;&gt;Node3</title>
<g id="a_edge11_Node000009_Node000003"><a xlink:title=" ">
<path fill="none" stroke="#63b8ff" d="M396.85,-111.62C390.87,-93.84 377.76,-54.88 369.73,-31"/>
<polygon fill="#63b8ff" stroke="#63b8ff" points="373.13,-30.15 366.63,-21.79 366.5,-32.38 373.13,-30.15"/>
</a>
</g>
</g>
<!-- Node9&#45;&gt;Node10 -->
<g id="edge12_Node000009_Node000010" class="edge">
<title>Node9&#45;&gt;Node10</title>
<g id="a_edge12_Node000009_Node000010"><a xlink:title=" ">
<path fill="none" stroke="#63b8ff" d="M406.44,-111.59C411.33,-104.47 418.19,-94.45 424.18,-85.72"/>
<polygon fill="#63b8ff" stroke="#63b8ff" points="427.01,-87.77 429.77,-77.55 421.23,-83.82 427.01,-87.77"/>
</a>
</g>
</g>
<!-- Node10&#45;&gt;Node3 -->
<g id="edge13_Node000010_Node000003" class="edge">
<title>Node10&#45;&gt;Node3</title>
<g id="a_edge13_Node000010_Node000003"><a xlink:title=" ">
<path fill="none" stroke="#63b8ff" d="M424.11,-55.59C413.29,-47.7 397.59,-36.24 384.81,-26.92"/>
<polygon fill="#63b8ff" stroke="#63b8ff" points="387.11,-24.26 376.96,-21.19 382.98,-29.91 387.11,-24.26"/>
</a>
</g>
</g>
</g>
</svg>
