<?xml version="1.0" encoding="UTF-8" standalone="no"?>
<!DOCTYPE svg PUBLIC "-//W3C//DTD SVG 1.1//EN"
 "http://www.w3.org/Graphics/SVG/1.1/DTD/svg11.dtd">
<!-- Generated by graphviz version 2.43.0 (0)
 -->
<!-- Title: Sensor.h Pages: 1 -->
<svg width="1562pt" height="137pt"
 viewBox="0.00 0.00 1561.50 137.00" xmlns="http://www.w3.org/2000/svg" xmlns:xlink="http://www.w3.org/1999/xlink">
<g id="graph0" class="graph" transform="scale(1 1) rotate(0) translate(4 133)">
<title>Sensor.h</title>
<!-- Node1 -->
<g id="Node000001" class="node">
<title>Node1</title>
<g id="a_Node000001"><a xlink:title=" ">
<polygon fill="#999999" stroke="#666666" points="792,-129 734,-129 734,-110 792,-110 792,-129"/>
<text text-anchor="middle" x="763" y="-117" font-family="Helvetica,sans-Serif" font-size="10.00">Sensor.h</text>
</a>
</g>
</g>
<!-- Node2 -->
<g id="Node000002" class="node">
<title>Node2</title>
<g id="a_Node000002"><a xlink:href="AS7331Sensor_8h.html" target="_top" xlink:title=" ">
<polygon fill="white" stroke="#666666" points="155.5,-74 60.5,-74 60.5,-55 155.5,-55 155.5,-74"/>
<text text-anchor="middle" x="108" y="-62" font-family="Helvetica,sans-Serif" font-size="10.00">AS7331Sensor.h</text>
</a>
</g>
</g>
<!-- Node1&#45;&gt;Node2 -->
<g id="edge1_Node000001_Node000002" class="edge">
<title>Node1&#45;&gt;Node2</title>
<g id="a_edge1_Node000001_Node000002"><a xlink:title=" ">
<path fill="none" stroke="#63b8ff" d="M723.92,-116.59C628.32,-111.71 375.17,-97.46 165,-74 161.92,-73.66 158.75,-73.27 155.55,-72.86"/>
<polygon fill="#63b8ff" stroke="#63b8ff" points="723.83,-120.09 733.99,-117.1 724.18,-113.1 723.83,-120.09"/>
</a>
</g>
</g>
<!-- Node4 -->
<g id="Node000004" class="node">
<title>Node4</title>
<g id="a_Node000004"><a xlink:href="main_8cpp.html" target="_top" xlink:title="Main functions for Core 0, responsible for reading data from sensor peripherals.">
<polygon fill="white" stroke="#666666" points="821,-19 759,-19 759,0 821,0 821,-19"/>
<text text-anchor="middle" x="790" y="-7" font-family="Helvetica,sans-Serif" font-size="10.00">main.cpp</text>
</a>
</g>
</g>
<!-- Node1&#45;&gt;Node4 -->
<g id="edge39_Node000001_Node000004" class="edge">
<title>Node1&#45;&gt;Node4</title>
<g id="a_edge39_Node000001_Node000004"><a xlink:title=" ">
<path fill="none" stroke="#63b8ff" d="M767.67,-99.8C773.57,-76.2 783.48,-36.58 787.84,-19.16"/>
<polygon fill="#63b8ff" stroke="#63b8ff" points="764.24,-99.11 765.21,-109.66 771.03,-100.81 764.24,-99.11"/>
</a>
</g>
</g>
<!-- Node5 -->
<g id="Node000005" class="node">
<title>Node5</title>
<g id="a_Node000005"><a xlink:href="AnalogTemp_8h.html" target="_top" xlink:title=" ">
<polygon fill="white" stroke="#666666" points="260,-74 174,-74 174,-55 260,-55 260,-74"/>
<text text-anchor="middle" x="217" y="-62" font-family="Helvetica,sans-Serif" font-size="10.00">AnalogTemp.h</text>
</a>
</g>
</g>
<!-- Node1&#45;&gt;Node5 -->
<g id="edge4_Node000001_Node000005" class="edge">
<title>Node1&#45;&gt;Node5</title>
<g id="a_edge4_Node000001_Node000005"><a xlink:title=" ">
<path fill="none" stroke="#63b8ff" d="M723.9,-115.94C640.24,-110.26 437.77,-95.37 269,-74 266.1,-73.63 263.11,-73.22 260.1,-72.79"/>
<polygon fill="#63b8ff" stroke="#63b8ff" points="723.75,-119.44 733.97,-116.62 724.23,-112.46 723.75,-119.44"/>
</a>
</g>
</g>
<!-- Node7 -->
<g id="Node000007" class="node">
<title>Node7</title>
<g id="a_Node000007"><a xlink:href="BMP390Sensor_8h.html" target="_top" xlink:title=" ">
<polygon fill="white" stroke="#666666" points="376,-74 278,-74 278,-55 376,-55 376,-74"/>
<text text-anchor="middle" x="327" y="-62" font-family="Helvetica,sans-Serif" font-size="10.00">BMP390Sensor.h</text>
</a>
</g>
</g>
<!-- Node1&#45;&gt;Node7 -->
<g id="edge7_Node000001_Node000007" class="edge">
<title>Node1&#45;&gt;Node7</title>
<g id="a_edge7_Node000001_Node000007"><a xlink:title=" ">
<path fill="none" stroke="#63b8ff" d="M723.59,-114.23C654.8,-106.7 508.37,-90.3 385,-74 382.07,-73.61 379.07,-73.21 376.03,-72.79"/>
<polygon fill="#63b8ff" stroke="#63b8ff" points="723.24,-117.71 733.56,-115.32 724,-110.76 723.24,-117.71"/>
</a>
</g>
</g>
<!-- Node9 -->
<g id="Node000009" class="node">
<title>Node9</title>
<g id="a_Node000009"><a xlink:href="ENS160Sensor_8h.html" target="_top" xlink:title=" ">
<polygon fill="white" stroke="#666666" points="1112.5,-74 1017.5,-74 1017.5,-55 1112.5,-55 1112.5,-74"/>
<text text-anchor="middle" x="1065" y="-62" font-family="Helvetica,sans-Serif" font-size="10.00">ENS160Sensor.h</text>
</a>
</g>
</g>
<!-- Node1&#45;&gt;Node9 -->
<g id="edge10_Node000001_Node000009" class="edge">
<title>Node1&#45;&gt;Node9</title>
<g id="a_edge10_Node000001_Node000009"><a xlink:title=" ">
<path fill="none" stroke="#63b8ff" d="M802.32,-111.6C857.52,-101.91 957.86,-84.3 1017.27,-73.88"/>
<polygon fill="#63b8ff" stroke="#63b8ff" points="801.48,-108.19 792.23,-113.37 802.69,-115.09 801.48,-108.19"/>
</a>
</g>
</g>
<!-- Node11 -->
<g id="Node000011" class="node">
<title>Node11</title>
<g id="a_Node000011"><a xlink:href="ICM20948Sensor_8h.html" target="_top" xlink:title=" ">
<polygon fill="white" stroke="#666666" points="501.5,-74 394.5,-74 394.5,-55 501.5,-55 501.5,-74"/>
<text text-anchor="middle" x="448" y="-62" font-family="Helvetica,sans-Serif" font-size="10.00">ICM20948Sensor.h</text>
</a>
</g>
</g>
<!-- Node1&#45;&gt;Node11 -->
<g id="edge13_Node000001_Node000011" class="edge">
<title>Node1&#45;&gt;Node11</title>
<g id="a_edge13_Node000001_Node000011"><a xlink:title=" ">
<path fill="none" stroke="#63b8ff" d="M723.9,-111.92C667,-102.35 561.37,-84.57 498.61,-74.02"/>
<polygon fill="#63b8ff" stroke="#63b8ff" points="723.49,-115.4 733.93,-113.61 724.65,-108.5 723.49,-115.4"/>
</a>
</g>
</g>
<!-- Node13 -->
<g id="Node000013" class="node">
<title>Node13</title>
<g id="a_Node000013"><a xlink:href="INA260Sensor_8h.html" target="_top" xlink:title=" ">
<polygon fill="white" stroke="#666666" points="612.5,-74 519.5,-74 519.5,-55 612.5,-55 612.5,-74"/>
<text text-anchor="middle" x="566" y="-62" font-family="Helvetica,sans-Serif" font-size="10.00">INA260Sensor.h</text>
</a>
</g>
</g>
<!-- Node1&#45;&gt;Node13 -->
<g id="edge16_Node000001_Node000013" class="edge">
<title>Node1&#45;&gt;Node13</title>
<g id="a_edge16_Node000001_Node000013"><a xlink:title=" ">
<path fill="none" stroke="#63b8ff" d="M724.01,-108.01C687.05,-98.07 632.19,-83.31 597.8,-74.06"/>
<polygon fill="#63b8ff" stroke="#63b8ff" points="723.37,-111.46 733.93,-110.68 725.18,-104.7 723.37,-111.46"/>
</a>
</g>
</g>
<!-- Node15 -->
<g id="Node000015" class="node">
<title>Node15</title>
<g id="a_Node000015"><a xlink:href="MTK3339Sensor_8h.html" target="_top" xlink:title=" ">
<polygon fill="white" stroke="#666666" points="735,-74 631,-74 631,-55 735,-55 735,-74"/>
<text text-anchor="middle" x="683" y="-62" font-family="Helvetica,sans-Serif" font-size="10.00">MTK3339Sensor.h</text>
</a>
</g>
</g>
<!-- Node1&#45;&gt;Node15 -->
<g id="edge19_Node000001_Node000015" class="edge">
<title>Node1&#45;&gt;Node15</title>
<g id="a_edge19_Node000001_Node000015"><a xlink:title=" ">
<path fill="none" stroke="#63b8ff" d="M741.75,-104.42C727.24,-94.81 708.46,-82.37 696.09,-74.17"/>
<polygon fill="#63b8ff" stroke="#63b8ff" points="739.88,-107.38 750.15,-109.98 743.74,-101.54 739.88,-107.38"/>
</a>
</g>
</g>
<!-- Node17 -->
<g id="Node000017" class="node">
<title>Node17</title>
<g id="a_Node000017"><a xlink:href="OzoneSensor_8h.html" target="_top" xlink:title=" ">
<polygon fill="white" stroke="#666666" points="880.5,-74 791.5,-74 791.5,-55 880.5,-55 880.5,-74"/>
<text text-anchor="middle" x="836" y="-62" font-family="Helvetica,sans-Serif" font-size="10.00">OzoneSensor.h</text>
</a>
</g>
</g>
<!-- Node1&#45;&gt;Node17 -->
<g id="edge22_Node000001_Node000017" class="edge">
<title>Node1&#45;&gt;Node17</title>
<g id="a_edge22_Node000001_Node000017"><a xlink:title=" ">
<path fill="none" stroke="#63b8ff" d="M783.14,-103.88C796.28,-94.34 812.98,-82.21 824.06,-74.17"/>
<polygon fill="#63b8ff" stroke="#63b8ff" points="780.76,-101.28 774.73,-109.98 784.88,-106.94 780.76,-101.28"/>
</a>
</g>
</g>
<!-- Node19 -->
<g id="Node000019" class="node">
<title>Node19</title>
<g id="a_Node000019"><a xlink:href="PCF8523Sensor_8h.html" target="_top" xlink:title=" ">
<polygon fill="white" stroke="#666666" points="999.5,-74 898.5,-74 898.5,-55 999.5,-55 999.5,-74"/>
<text text-anchor="middle" x="949" y="-62" font-family="Helvetica,sans-Serif" font-size="10.00">PCF8523Sensor.h</text>
</a>
</g>
</g>
<!-- Node1&#45;&gt;Node19 -->
<g id="edge25_Node000001_Node000019" class="edge">
<title>Node1&#45;&gt;Node19</title>
<g id="a_edge25_Node000001_Node000019"><a xlink:title=" ">
<path fill="none" stroke="#63b8ff" d="M801.89,-107.42C836.72,-97.49 887.07,-83.15 918.91,-74.07"/>
<polygon fill="#63b8ff" stroke="#63b8ff" points="800.72,-104.11 792.06,-110.22 802.64,-110.84 800.72,-104.11"/>
</a>
</g>
</g>
<!-- Node21 -->
<g id="Node000021" class="node">
<title>Node21</title>
<g id="a_Node000021"><a xlink:href="SHTC3Sensor_8h.html" target="_top" xlink:title=" ">
<polygon fill="white" stroke="#666666" points="1219.5,-74 1130.5,-74 1130.5,-55 1219.5,-55 1219.5,-74"/>
<text text-anchor="middle" x="1175" y="-62" font-family="Helvetica,sans-Serif" font-size="10.00">SHTC3Sensor.h</text>
</a>
</g>
</g>
<!-- Node1&#45;&gt;Node21 -->
<g id="edge28_Node000001_Node000021" class="edge">
<title>Node1&#45;&gt;Node21</title>
<g id="a_edge28_Node000001_Node000021"><a xlink:title=" ">
<path fill="none" stroke="#63b8ff" d="M802.35,-114.09C868.47,-106.57 1006.02,-90.48 1122,-74 1124.77,-73.61 1127.61,-73.19 1130.48,-72.76"/>
<polygon fill="#63b8ff" stroke="#63b8ff" points="801.91,-110.62 792.36,-115.22 802.69,-117.57 801.91,-110.62"/>
</a>
</g>
</g>
<!-- Node23 -->
<g id="Node000023" class="node">
<title>Node23</title>
<g id="a_Node000023"><a xlink:href="TMP11xSensor_8h.html" target="_top" xlink:title=" ">
<polygon fill="white" stroke="#666666" points="1334.5,-74 1237.5,-74 1237.5,-55 1334.5,-55 1334.5,-74"/>
<text text-anchor="middle" x="1286" y="-62" font-family="Helvetica,sans-Serif" font-size="10.00">TMP11xSensor.h</text>
</a>
</g>
</g>
<!-- Node1&#45;&gt;Node23 -->
<g id="edge32_Node000001_Node000023" class="edge">
<title>Node1&#45;&gt;Node23</title>
<g id="a_edge32_Node000001_Node000023"><a xlink:title=" ">
<path fill="none" stroke="#63b8ff" d="M802.39,-115.45C882.74,-109.06 1071.31,-93.27 1229,-74 1231.68,-73.67 1234.43,-73.32 1237.21,-72.95"/>
<polygon fill="#63b8ff" stroke="#63b8ff" points="801.92,-111.97 792.23,-116.25 802.47,-118.95 801.92,-111.97"/>
</a>
</g>
</g>
<!-- Node25 -->
<g id="Node000025" class="node">
<title>Node25</title>
<g id="a_Node000025"><a xlink:href="TempSensor_8h.html" target="_top" xlink:title=" ">
<polygon fill="white" stroke="#666666" points="1437,-74 1353,-74 1353,-55 1437,-55 1437,-74"/>
<text text-anchor="middle" x="1395" y="-62" font-family="Helvetica,sans-Serif" font-size="10.00">TempSensor.h</text>
</a>
</g>
</g>
<!-- Node1&#45;&gt;Node25 -->
<g id="edge36_Node000001_Node000025" class="edge">
<title>Node1&#45;&gt;Node25</title>
<g id="a_edge36_Node000001_Node000025"><a xlink:title=" ">
<path fill="none" stroke="#63b8ff" d="M802.28,-116.7C896.17,-112.12 1140.93,-98.65 1344,-74 1346.85,-73.65 1349.79,-73.26 1352.74,-72.84"/>
<polygon fill="#63b8ff" stroke="#63b8ff" points="801.93,-113.21 792.11,-117.19 802.26,-120.2 801.93,-113.21"/>
</a>
</g>
</g>
<!-- Node3 -->
<g id="Node000003" class="node">
<title>Node3</title>
<g id="a_Node000003"><a xlink:href="AS7331Sensor_8cpp.html" target="_top" xlink:title=" ">
<polygon fill="white" stroke="#666666" points="106,-19 0,-19 0,0 106,0 106,-19"/>
<text text-anchor="middle" x="53" y="-7" font-family="Helvetica,sans-Serif" font-size="10.00">AS7331Sensor.cpp</text>
</a>
</g>
</g>
<!-- Node2&#45;&gt;Node3 -->
<g id="edge2_Node000002_Node000003" class="edge">
<title>Node2&#45;&gt;Node3</title>
<g id="a_edge2_Node000002_Node000003"><a xlink:title=" ">
<path fill="none" stroke="#63b8ff" d="M91.71,-47.8C81.96,-38.41 69.95,-26.83 61.91,-19.09"/>
<polygon fill="#63b8ff" stroke="#63b8ff" points="89.29,-50.33 98.92,-54.75 94.15,-45.29 89.29,-50.33"/>
</a>
</g>
</g>
<!-- Node2&#45;&gt;Node4 -->
<g id="edge3_Node000002_Node000004" class="edge">
<title>Node2&#45;&gt;Node4</title>
<g id="a_edge3_Node000002_Node000004"><a xlink:title=" ">
<path fill="none" stroke="#63b8ff" d="M165.66,-55.04C425.37,-28.44 494.52,-53.05 749,-19 752.17,-18.58 755.46,-18.05 758.74,-17.46"/>
<polygon fill="#63b8ff" stroke="#63b8ff" points="165.13,-51.58 155.55,-56.1 165.86,-58.54 165.13,-51.58"/>
</a>
</g>
</g>
<!-- Node5&#45;&gt;Node4 -->
<g id="edge6_Node000005_Node000004" class="edge">
<title>Node5&#45;&gt;Node4</title>
<g id="a_edge6_Node000005_Node000004"><a xlink:title=" ">
<path fill="none" stroke="#63b8ff" d="M270.03,-54.99C483.16,-30.29 540.36,-48.33 749,-19 752.17,-18.55 755.46,-18.01 758.73,-17.42"/>
<polygon fill="#63b8ff" stroke="#63b8ff" points="269.61,-51.51 260.09,-56.16 270.43,-58.47 269.61,-51.51"/>
</a>
</g>
</g>
<!-- Node6 -->
<g id="Node000006" class="node">
<title>Node6</title>
<g id="a_Node000006"><a xlink:href="AnalogTemp_8cpp.html" target="_top" xlink:title=" ">
<polygon fill="white" stroke="#666666" points="221.5,-19 124.5,-19 124.5,0 221.5,0 221.5,-19"/>
<text text-anchor="middle" x="173" y="-7" font-family="Helvetica,sans-Serif" font-size="10.00">AnalogTemp.cpp</text>
</a>
</g>
</g>
<!-- Node5&#45;&gt;Node6 -->
<g id="edge5_Node000005_Node000006" class="edge">
<title>Node5&#45;&gt;Node6</title>
<g id="a_edge5_Node000005_Node000006"><a xlink:title=" ">
<path fill="none" stroke="#63b8ff" d="M203.27,-46.96C195.6,-37.72 186.37,-26.6 180.13,-19.09"/>
<polygon fill="#63b8ff" stroke="#63b8ff" points="200.65,-49.29 209.73,-54.75 206.04,-44.82 200.65,-49.29"/>
</a>
</g>
</g>
<!-- Node7&#45;&gt;Node4 -->
<g id="edge9_Node000007_Node000004" class="edge">
<title>Node7&#45;&gt;Node4</title>
<g id="a_edge9_Node000007_Node000004"><a xlink:title=" ">
<path fill="none" stroke="#63b8ff" d="M386.35,-54.9C548.13,-35.54 591.59,-43.03 749,-19 752.16,-18.52 755.45,-17.95 758.72,-17.34"/>
<polygon fill="#63b8ff" stroke="#63b8ff" points="385.53,-51.47 376.03,-56.15 386.37,-58.42 385.53,-51.47"/>
</a>
</g>
</g>
<!-- Node8 -->
<g id="Node000008" class="node">
<title>Node8</title>
<g id="a_Node000008"><a xlink:href="BMP390Sensor_8cpp.html" target="_top" xlink:title=" ">
<polygon fill="white" stroke="#666666" points="348.5,-19 239.5,-19 239.5,0 348.5,0 348.5,-19"/>
<text text-anchor="middle" x="294" y="-7" font-family="Helvetica,sans-Serif" font-size="10.00">BMP390Sensor.cpp</text>
</a>
</g>
</g>
<!-- Node7&#45;&gt;Node8 -->
<g id="edge8_Node000007_Node000008" class="edge">
<title>Node7&#45;&gt;Node8</title>
<g id="a_edge8_Node000007_Node000008"><a xlink:title=" ">
<path fill="none" stroke="#63b8ff" d="M316.17,-46.1C310.53,-37.04 303.88,-26.37 299.35,-19.09"/>
<polygon fill="#63b8ff" stroke="#63b8ff" points="313.29,-48.11 321.55,-54.75 319.24,-44.41 313.29,-48.11"/>
</a>
</g>
</g>
<!-- Node9&#45;&gt;Node4 -->
<g id="edge12_Node000009_Node000004" class="edge">
<title>Node9&#45;&gt;Node4</title>
<g id="a_edge12_Node000009_Node000004"><a xlink:title=" ">
<path fill="none" stroke="#63b8ff" d="M1008.01,-53.07C960.37,-44.27 890.68,-31.19 830,-19 827.22,-18.44 824.33,-17.85 821.43,-17.25"/>
<polygon fill="#63b8ff" stroke="#63b8ff" points="1007.65,-56.57 1018.12,-54.94 1008.92,-49.68 1007.65,-56.57"/>
</a>
</g>
</g>
<!-- Node10 -->
<g id="Node000010" class="node">
<title>Node10</title>
<g id="a_Node000010"><a xlink:href="ENS160Sensor_8cpp.html" target="_top" xlink:title=" ">
<polygon fill="white" stroke="#666666" points="1194.5,-19 1087.5,-19 1087.5,0 1194.5,0 1194.5,-19"/>
<text text-anchor="middle" x="1141" y="-7" font-family="Helvetica,sans-Serif" font-size="10.00">ENS160Sensor.cpp</text>
</a>
</g>
</g>
<!-- Node9&#45;&gt;Node10 -->
<g id="edge11_Node000009_Node000010" class="edge">
<title>Node9&#45;&gt;Node10</title>
<g id="a_edge11_Node000009_Node000010"><a xlink:title=" ">
<path fill="none" stroke="#63b8ff" d="M1085.58,-49.15C1099.31,-39.57 1116.93,-27.29 1128.57,-19.17"/>
<polygon fill="#63b8ff" stroke="#63b8ff" points="1083.41,-46.39 1077.21,-54.98 1087.42,-52.14 1083.41,-46.39"/>
</a>
</g>
</g>
<!-- Node11&#45;&gt;Node4 -->
<g id="edge15_Node000011_Node000004" class="edge">
<title>Node11&#45;&gt;Node4</title>
<g id="a_edge15_Node000011_Node000004"><a xlink:title=" ">
<path fill="none" stroke="#63b8ff" d="M511.8,-54.51C586.22,-43.94 704.73,-26.86 749,-19 752.15,-18.44 755.43,-17.82 758.7,-17.18"/>
<polygon fill="#63b8ff" stroke="#63b8ff" points="511.01,-51.09 501.6,-55.96 511.99,-58.02 511.01,-51.09"/>
</a>
</g>
</g>
<!-- Node12 -->
<g id="Node000012" class="node">
<title>Node12</title>
<g id="a_Node000012"><a xlink:href="ICM20948Sensor_8cpp.html" target="_top" xlink:title=" ">
<polygon fill="white" stroke="#666666" points="485,-19 367,-19 367,0 485,0 485,-19"/>
<text text-anchor="middle" x="426" y="-7" font-family="Helvetica,sans-Serif" font-size="10.00">ICM20948Sensor.cpp</text>
</a>
</g>
</g>
<!-- Node11&#45;&gt;Node12 -->
<g id="edge14_Node000011_Node000012" class="edge">
<title>Node11&#45;&gt;Node12</title>
<g id="a_edge14_Node000011_Node000012"><a xlink:title=" ">
<path fill="none" stroke="#63b8ff" d="M440.42,-45.24C436.74,-36.37 432.49,-26.14 429.57,-19.09"/>
<polygon fill="#63b8ff" stroke="#63b8ff" points="437.3,-46.85 444.37,-54.75 443.77,-44.17 437.3,-46.85"/>
</a>
</g>
</g>
<!-- Node13&#45;&gt;Node4 -->
<g id="edge18_Node000013_Node000004" class="edge">
<title>Node13&#45;&gt;Node4</title>
<g id="a_edge18_Node000013_Node000004"><a xlink:title=" ">
<path fill="none" stroke="#63b8ff" d="M611.83,-52.66C655.68,-42.28 720.62,-26.92 758.8,-17.88"/>
<polygon fill="#63b8ff" stroke="#63b8ff" points="610.91,-49.28 601.99,-54.98 612.53,-56.09 610.91,-49.28"/>
</a>
</g>
</g>
<!-- Node14 -->
<g id="Node000014" class="node">
<title>Node14</title>
<g id="a_Node000014"><a xlink:href="INA260Sensor_8cpp.html" target="_top" xlink:title=" ">
<polygon fill="white" stroke="#666666" points="607,-19 503,-19 503,0 607,0 607,-19"/>
<text text-anchor="middle" x="555" y="-7" font-family="Helvetica,sans-Serif" font-size="10.00">INA260Sensor.cpp</text>
</a>
</g>
</g>
<!-- Node13&#45;&gt;Node14 -->
<g id="edge17_Node000013_Node000014" class="edge">
<title>Node13&#45;&gt;Node14</title>
<g id="a_edge17_Node000013_Node000014"><a xlink:title=" ">
<path fill="none" stroke="#63b8ff" d="M562.15,-44.95C560.32,-36.15 558.23,-26.06 556.78,-19.09"/>
<polygon fill="#63b8ff" stroke="#63b8ff" points="558.72,-45.67 564.18,-54.75 565.58,-44.25 558.72,-45.67"/>
</a>
</g>
</g>
<!-- Node15&#45;&gt;Node4 -->
<g id="edge21_Node000015_Node000004" class="edge">
<title>Node15&#45;&gt;Node4</title>
<g id="a_edge21_Node000015_Node000004"><a xlink:title=" ">
<path fill="none" stroke="#63b8ff" d="M709.24,-50.5C728.93,-40.75 755.32,-27.68 772.5,-19.17"/>
<polygon fill="#63b8ff" stroke="#63b8ff" points="707.6,-47.41 700.19,-54.98 710.71,-53.68 707.6,-47.41"/>
</a>
</g>
</g>
<!-- Node16 -->
<g id="Node000016" class="node">
<title>Node16</title>
<g id="a_Node000016"><a xlink:href="MTK3339Sensor_8cpp.html" target="_top" xlink:title=" ">
<polygon fill="white" stroke="#666666" points="740.5,-19 625.5,-19 625.5,0 740.5,0 740.5,-19"/>
<text text-anchor="middle" x="683" y="-7" font-family="Helvetica,sans-Serif" font-size="10.00">MTK3339Sensor.cpp</text>
</a>
</g>
</g>
<!-- Node15&#45;&gt;Node16 -->
<g id="edge20_Node000015_Node000016" class="edge">
<title>Node15&#45;&gt;Node16</title>
<g id="a_edge20_Node000015_Node000016"><a xlink:title=" ">
<path fill="none" stroke="#63b8ff" d="M683,-44.66C683,-35.93 683,-25.99 683,-19.09"/>
<polygon fill="#63b8ff" stroke="#63b8ff" points="679.5,-44.75 683,-54.75 686.5,-44.75 679.5,-44.75"/>
</a>
</g>
</g>
<!-- Node17&#45;&gt;Node4 -->
<g id="edge24_Node000017_Node000004" class="edge">
<title>Node17&#45;&gt;Node4</title>
<g id="a_edge24_Node000017_Node000004"><a xlink:title=" ">
<path fill="none" stroke="#63b8ff" d="M821.64,-46.96C813.63,-37.72 803.97,-26.6 797.45,-19.09"/>
<polygon fill="#63b8ff" stroke="#63b8ff" points="819.21,-49.49 828.4,-54.75 824.49,-44.9 819.21,-49.49"/>
</a>
</g>
</g>
<!-- Node18 -->
<g id="Node000018" class="node">
<title>Node18</title>
<g id="a_Node000018"><a xlink:href="OzoneSensor_8cpp.html" target="_top" xlink:title=" ">
<polygon fill="white" stroke="#666666" points="939,-19 839,-19 839,0 939,0 939,-19"/>
<text text-anchor="middle" x="889" y="-7" font-family="Helvetica,sans-Serif" font-size="10.00">OzoneSensor.cpp</text>
</a>
</g>
</g>
<!-- Node17&#45;&gt;Node18 -->
<g id="edge23_Node000017_Node000018" class="edge">
<title>Node17&#45;&gt;Node18</title>
<g id="a_edge23_Node000017_Node000018"><a xlink:title=" ">
<path fill="none" stroke="#63b8ff" d="M851.98,-47.52C861.32,-38.18 872.75,-26.75 880.41,-19.09"/>
<polygon fill="#63b8ff" stroke="#63b8ff" points="849.35,-45.2 844.75,-54.75 854.3,-50.15 849.35,-45.2"/>
</a>
</g>
</g>
<!-- Node19&#45;&gt;Node4 -->
<g id="edge27_Node000019_Node000004" class="edge">
<title>Node19&#45;&gt;Node4</title>
<g id="a_edge27_Node000019_Node000004"><a xlink:title=" ">
<path fill="none" stroke="#63b8ff" d="M913.9,-51.8C884.22,-41.91 842.4,-27.97 815.75,-19.08"/>
<polygon fill="#63b8ff" stroke="#63b8ff" points="912.86,-55.14 923.45,-54.98 915.07,-48.5 912.86,-55.14"/>
</a>
</g>
</g>
<!-- Node20 -->
<g id="Node000020" class="node">
<title>Node20</title>
<g id="a_Node000020"><a xlink:href="PCF8523Sensor_8cpp.html" target="_top" xlink:title=" ">
<polygon fill="white" stroke="#666666" points="1069,-19 957,-19 957,0 1069,0 1069,-19"/>
<text text-anchor="middle" x="1013" y="-7" font-family="Helvetica,sans-Serif" font-size="10.00">PCF8523Sensor.cpp</text>
</a>
</g>
</g>
<!-- Node19&#45;&gt;Node20 -->
<g id="edge26_Node000019_Node000020" class="edge">
<title>Node19&#45;&gt;Node20</title>
<g id="a_edge26_Node000019_Node000020"><a xlink:title=" ">
<path fill="none" stroke="#63b8ff" d="M966.99,-48.6C978.46,-39.11 992.91,-27.13 1002.53,-19.17"/>
<polygon fill="#63b8ff" stroke="#63b8ff" points="964.75,-45.91 959.28,-54.98 969.22,-51.3 964.75,-45.91"/>
</a>
</g>
</g>
<!-- Node21&#45;&gt;Node4 -->
<g id="edge31_Node000021_Node000004" class="edge">
<title>Node21&#45;&gt;Node4</title>
<g id="a_edge31_Node000021_Node000004"><a xlink:title=" ">
<path fill="none" stroke="#63b8ff" d="M1120.56,-54.85C990.84,-36.82 955.81,-40.08 830,-19 827.2,-18.53 824.3,-18 821.39,-17.44"/>
<polygon fill="#63b8ff" stroke="#63b8ff" points="1120.09,-58.31 1130.48,-56.24 1121.07,-51.38 1120.09,-58.31"/>
</a>
</g>
</g>
<!-- Node21&#45;&gt;Node10 -->
<g id="edge29_Node000021_Node000010" class="edge">
<title>Node21&#45;&gt;Node10</title>
<g id="a_edge29_Node000021_Node000010"><a xlink:title=" ">
<path fill="none" stroke="#63b8ff" d="M1163.84,-46.1C1158.03,-37.04 1151.18,-26.37 1146.51,-19.09"/>
<polygon fill="#63b8ff" stroke="#63b8ff" points="1161.04,-48.22 1169.39,-54.75 1166.93,-44.44 1161.04,-48.22"/>
</a>
</g>
</g>
<!-- Node22 -->
<g id="Node000022" class="node">
<title>Node22</title>
<g id="a_Node000022"><a xlink:href="SHTC3Sensor_8cpp.html" target="_top" xlink:title=" ">
<polygon fill="white" stroke="#666666" points="1313.5,-19 1212.5,-19 1212.5,0 1313.5,0 1313.5,-19"/>
<text text-anchor="middle" x="1263" y="-7" font-family="Helvetica,sans-Serif" font-size="10.00">SHTC3Sensor.cpp</text>
</a>
</g>
</g>
<!-- Node21&#45;&gt;Node22 -->
<g id="edge30_Node000021_Node000022" class="edge">
<title>Node21&#45;&gt;Node22</title>
<g id="a_edge30_Node000021_Node000022"><a xlink:title=" ">
<path fill="none" stroke="#63b8ff" d="M1197.92,-49.7C1213.95,-40.04 1234.87,-27.44 1248.6,-19.17"/>
<polygon fill="#63b8ff" stroke="#63b8ff" points="1195.9,-46.83 1189.14,-54.98 1199.51,-52.82 1195.9,-46.83"/>
</a>
</g>
</g>
<!-- Node23&#45;&gt;Node4 -->
<g id="edge35_Node000023_Node000004" class="edge">
<title>Node23&#45;&gt;Node4</title>
<g id="a_edge35_Node000023_Node000004"><a xlink:title=" ">
<path fill="none" stroke="#63b8ff" d="M1227.05,-54.83C1050.45,-34.28 1002.8,-45.06 830,-19 827.19,-18.58 824.28,-18.08 821.38,-17.54"/>
<polygon fill="#63b8ff" stroke="#63b8ff" points="1226.87,-58.34 1237.21,-56.03 1227.69,-51.38 1226.87,-58.34"/>
</a>
</g>
</g>
<!-- Node23&#45;&gt;Node10 -->
<g id="edge33_Node000023_Node000010" class="edge">
<title>Node23&#45;&gt;Node10</title>
<g id="a_edge33_Node000023_Node000010"><a xlink:title=" ">
<path fill="none" stroke="#63b8ff" d="M1253.31,-51.55C1226.38,-41.71 1188.84,-27.98 1164.72,-19.17"/>
<polygon fill="#63b8ff" stroke="#63b8ff" points="1252.11,-54.84 1262.7,-54.98 1254.51,-48.26 1252.11,-54.84"/>
</a>
</g>
</g>
<!-- Node24 -->
<g id="Node000024" class="node">
<title>Node24</title>
<g id="a_Node000024"><a xlink:href="TMP11xSensor_8cpp.html" target="_top" xlink:title=" ">
<polygon fill="white" stroke="#666666" points="1440,-19 1332,-19 1332,0 1440,0 1440,-19"/>
<text text-anchor="middle" x="1386" y="-7" font-family="Helvetica,sans-Serif" font-size="10.00">TMP11xSensor.cpp</text>
</a>
</g>
</g>
<!-- Node23&#45;&gt;Node24 -->
<g id="edge34_Node000023_Node000024" class="edge">
<title>Node23&#45;&gt;Node24</title>
<g id="a_edge34_Node000023_Node000024"><a xlink:title=" ">
<path fill="none" stroke="#63b8ff" d="M1311.03,-50.23C1329.37,-40.51 1353.74,-27.6 1369.64,-19.17"/>
<polygon fill="#63b8ff" stroke="#63b8ff" points="1309.26,-47.21 1302.07,-54.98 1312.54,-53.39 1309.26,-47.21"/>
</a>
</g>
</g>
<!-- Node25&#45;&gt;Node4 -->
<g id="edge38_Node000025_Node000004" class="edge">
<title>Node25&#45;&gt;Node4</title>
<g id="a_edge38_Node000025_Node000004"><a xlink:title=" ">
<path fill="none" stroke="#63b8ff" d="M1342.48,-54.94C1114.79,-28.8 1053.45,-50.41 830,-19 827.19,-18.6 824.28,-18.13 821.37,-17.6"/>
<polygon fill="#63b8ff" stroke="#63b8ff" points="1342.41,-58.46 1352.74,-56.14 1343.22,-51.5 1342.41,-58.46"/>
</a>
</g>
</g>
<!-- Node26 -->
<g id="Node000026" class="node">
<title>Node26</title>
<g id="a_Node000026"><a xlink:href="TempSensor_8cpp.html" target="_top" xlink:title=" ">
<polygon fill="white" stroke="#666666" points="1553.5,-19 1458.5,-19 1458.5,0 1553.5,0 1553.5,-19"/>
<text text-anchor="middle" x="1506" y="-7" font-family="Helvetica,sans-Serif" font-size="10.00">TempSensor.cpp</text>
</a>
</g>
</g>
<!-- Node25&#45;&gt;Node26 -->
<g id="edge37_Node000025_Node000026" class="edge">
<title>Node25&#45;&gt;Node26</title>
<g id="a_edge37_Node000025_Node000026"><a xlink:title=" ">
<path fill="none" stroke="#63b8ff" d="M1421.95,-50.63C1442.39,-40.87 1469.95,-27.71 1487.84,-19.17"/>
<polygon fill="#63b8ff" stroke="#63b8ff" points="1420.35,-47.52 1412.83,-54.98 1423.37,-53.83 1420.35,-47.52"/>
</a>
</g>
</g>
</g>
</svg>
