<?xml version="1.0" encoding="UTF-8" standalone="no"?>
<!DOCTYPE svg PUBLIC "-//W3C//DTD SVG 1.1//EN"
 "http://www.w3.org/Graphics/SVG/1.1/DTD/svg11.dtd">
<!-- Generated by graphviz version 12.1.2 (20240928.0832)
 -->
<!-- Title: Sensor.h Pages: 1 -->
<!--zoomable 140 -->

<svg id="main" version="1.1" xmlns="http://www.w3.org/2000/svg" xmlns:xlink="http://www.w3.org/1999/xlink" xml:space="preserve" onload="init(evt)">

<style type="text/css"><![CDATA[
.node, .edge {opacity: 0.7;}
.node.selected, .edge.selected {opacity: 1;}
.edge:hover path { stroke: red; }
.edge:hover polygon { stroke: red; fill: red; }
]]></style>

<defs>
  <circle id="rim" cx="0" cy="0" r="7"/>
  <circle id="rim2" cx="0" cy="0" r="3.5"/>
  <g id="zoomPlus">
    <use xlink:href="#rim" fill="#404040"><set attributeName="fill" to="#808080" begin="zoomplus.mouseover" end="zoomplus.mouseout"/></use>
    <path d="M-4,0h8M0,-4v8" fill="none" stroke="white" stroke-width="1.5" pointer-events="none"/>
  </g>
  <g id="zoomMin">
    <use xlink:href="#rim" fill="#404040"><set attributeName="fill" to="#808080" begin="zoomminus.mouseover" end="zoomminus.mouseout"/></use>
    <path d="M-4,0h8" fill="none" stroke="white" stroke-width="1.5" pointer-events="none"/>
  </g>
  <g id="arrowUp" transform="translate(30 24)">
    <use xlink:href="#rim"/>
    <path pointer-events="none" fill="none" stroke="white" stroke-width="1.5" d="M0,-3.0v7 M-2.5,-0.5L0,-3.0L2.5,-0.5"/>
  </g>
  <g id="arrowRight" transform="rotate(90) translate(36 -43)">
    <use xlink:href="#rim"/>
    <path pointer-events="none" fill="none" stroke="white" stroke-width="1.5" d="M0,-3.0v7 M-2.5,-0.5L0,-3.0L2.5,-0.5"/>
  </g>
  <g id="arrowDown" transform="rotate(180) translate(-30 -48)">
    <use xlink:href="#rim"/>
    <path pointer-events="none" fill="none" stroke="white" stroke-width="1.5" d="M0,-3.0v7 M-2.5,-0.5L0,-3.0L2.5,-0.5"/>
  </g>
  <g id="arrowLeft" transform="rotate(270) translate(-36 17)">
    <use xlink:href="#rim"/>
    <path pointer-events="none" fill="none" stroke="white" stroke-width="1.5" d="M0,-3.0v7 M-2.5,-0.5L0,-3.0L2.5,-0.5"/>
  </g>
  <g id="resetDef">
    <use xlink:href="#rim2" fill="#404040"><set attributeName="fill" to="#808080" begin="reset.mouseover" end="reset.mouseout"/></use>
  </g>
</defs>
<script type="application/ecmascript">
var viewWidth = 2095;
var viewHeight = 140;
var sectionId = 'dynsection-1';
</script>
<script type="application/ecmascript" xlink:href="svg.min.js"/>
<svg id="graph" class="graph">
<g id="viewport">
<title>Sensor.h</title>
<!-- Node1 -->
<g id="Node000001" class="node">
<title>Node1</title>
<g id="a_Node000001"><a xlink:title=" ">
<polygon fill="#999999" stroke="#666666" points="1105,-132 1050,-132 1050,-112 1105,-112 1105,-132"/>
<text text-anchor="middle" x="1077.5" y="-118.5" font-family="Helvetica,sans-Serif" font-size="10.00">Sensor.h</text>
</a>
</g>
</g>
<!-- Node2 -->
<g id="Node000002" class="node">
<title>Node2</title>
<g id="a_Node000002"><a xlink:href="AS7331Sensor_8h.html" target="_top" xlink:title=" ">
<polygon fill="white" stroke="#666666" points="622.25,-76 532.75,-76 532.75,-56 622.25,-56 622.25,-76"/>
<text text-anchor="middle" x="577.5" y="-62.5" font-family="Helvetica,sans-Serif" font-size="10.00">AS7331Sensor.h</text>
</a>
</g>
</g>
<!-- Node1&#45;&gt;Node2 -->
<g id="edge1_Node000001_Node000002" class="edge">
<title>Node1&#45;&gt;Node2</title>
<g id="a_edge1_Node000001_Node000002"><a xlink:title=" ">
<path fill="none" stroke="#63b8ff" d="M1038.36,-117.91C960.63,-111.57 781.36,-96.03 631.5,-76 628.58,-75.61 625.57,-75.18 622.55,-74.73"/>
<polygon fill="#63b8ff" stroke="#63b8ff" points="1037.75,-121.37 1048,-118.69 1038.31,-114.39 1037.75,-121.37"/>
</a>
</g>
</g>
<!-- Node4 -->
<g id="Node000004" class="node">
<title>Node4</title>
<g id="a_Node000004"><a xlink:href="main_8cpp.html" target="_top" xlink:title="Main functions for Core 0, responsible for reading data from sensor peripherals.">
<polygon fill="white" stroke="#666666" points="1268.38,-20 1212.62,-20 1212.62,0 1268.38,0 1268.38,-20"/>
<text text-anchor="middle" x="1240.5" y="-6.5" font-family="Helvetica,sans-Serif" font-size="10.00">main.cpp</text>
</a>
</g>
</g>
<!-- Node1&#45;&gt;Node4 -->
<g id="edge49_Node000001_Node000004" class="edge">
<title>Node1&#45;&gt;Node4</title>
<g id="a_edge49_Node000001_Node000004"><a xlink:title=" ">
<path fill="none" stroke="#63b8ff" d="M1115.81,-109.16C1136.68,-101.62 1162.3,-90.53 1182.5,-76 1204.85,-59.93 1224.73,-33.85 1234.36,-20.12"/>
<polygon fill="#63b8ff" stroke="#63b8ff" points="1114.81,-105.81 1106.5,-112.39 1117.1,-112.42 1114.81,-105.81"/>
</a>
</g>
</g>
<!-- Node5 -->
<g id="Node000005" class="node">
<title>Node5</title>
<g id="a_Node000005"><a xlink:href="BME280Sensor_8h.html" target="_top" xlink:title=" ">
<polygon fill="white" stroke="#666666" points="107.75,-76 15.25,-76 15.25,-56 107.75,-56 107.75,-76"/>
<text text-anchor="middle" x="61.5" y="-62.5" font-family="Helvetica,sans-Serif" font-size="10.00">BME280Sensor.h</text>
</a>
</g>
</g>
<!-- Node1&#45;&gt;Node5 -->
<g id="edge4_Node000001_Node000005" class="edge">
<title>Node1&#45;&gt;Node5</title>
<g id="a_edge4_Node000001_Node000005"><a xlink:title=" ">
<path fill="none" stroke="#63b8ff" d="M1038.07,-119.75C910.33,-115.56 496.3,-100.86 154.5,-76 139.29,-74.89 122.71,-73.39 107.82,-71.92"/>
<polygon fill="#63b8ff" stroke="#63b8ff" points="1037.91,-123.25 1048.02,-120.07 1038.14,-116.25 1037.91,-123.25"/>
</a>
</g>
</g>
<!-- Node7 -->
<g id="Node000007" class="node">
<title>Node7</title>
<g id="a_Node000007"><a xlink:href="BME680Sensor_8h.html" target="_top" xlink:title=" ">
<polygon fill="white" stroke="#666666" points="255.75,-76 163.25,-76 163.25,-56 255.75,-56 255.75,-76"/>
<text text-anchor="middle" x="209.5" y="-62.5" font-family="Helvetica,sans-Serif" font-size="10.00">BME680Sensor.h</text>
</a>
</g>
</g>
<!-- Node1&#45;&gt;Node7 -->
<g id="edge6_Node000001_Node000007" class="edge">
<title>Node1&#45;&gt;Node7</title>
<g id="a_edge6_Node000001_Node000007"><a xlink:title=" ">
<path fill="none" stroke="#63b8ff" d="M1038.29,-119.67C922.6,-115.56 572.72,-101.76 283.5,-76 274.61,-75.21 265.13,-74.19 256.03,-73.12"/>
<polygon fill="#63b8ff" stroke="#63b8ff" points="1038.05,-123.17 1048.16,-120.02 1038.29,-116.17 1038.05,-123.17"/>
</a>
</g>
</g>
<!-- Node9 -->
<g id="Node000009" class="node">
<title>Node9</title>
<g id="a_Node000009"><a xlink:href="BMP390Sensor_8h.html" target="_top" xlink:title=" ">
<polygon fill="white" stroke="#666666" points="732.75,-76 640.25,-76 640.25,-56 732.75,-56 732.75,-76"/>
<text text-anchor="middle" x="686.5" y="-62.5" font-family="Helvetica,sans-Serif" font-size="10.00">BMP390Sensor.h</text>
</a>
</g>
</g>
<!-- Node1&#45;&gt;Node9 -->
<g id="edge8_Node000001_Node000009" class="edge">
<title>Node1&#45;&gt;Node9</title>
<g id="a_edge8_Node000001_Node000009"><a xlink:title=" ">
<path fill="none" stroke="#63b8ff" d="M1038.27,-116.12C975.51,-108.23 848.69,-91.94 741.5,-76 738.72,-75.59 735.87,-75.15 733,-74.71"/>
<polygon fill="#63b8ff" stroke="#63b8ff" points="1037.72,-119.58 1048.08,-117.35 1038.59,-112.63 1037.72,-119.58"/>
</a>
</g>
</g>
<!-- Node11 -->
<g id="Node000011" class="node">
<title>Node11</title>
<g id="a_Node000011"><a xlink:href="DS3231Sensor_8h.html" target="_top" xlink:title=" ">
<polygon fill="white" stroke="#666666" points="382.62,-76 292.38,-76 292.38,-56 382.62,-56 382.62,-76"/>
<text text-anchor="middle" x="337.5" y="-62.5" font-family="Helvetica,sans-Serif" font-size="10.00">DS3231Sensor.h</text>
</a>
</g>
</g>
<!-- Node1&#45;&gt;Node11 -->
<g id="edge11_Node000001_Node000011" class="edge">
<title>Node1&#45;&gt;Node11</title>
<g id="a_edge11_Node000001_Node000011"><a xlink:title=" ">
<path fill="none" stroke="#63b8ff" d="M1038.23,-119.43C934.08,-115.04 642.23,-101.26 400.5,-76 394.79,-75.4 388.79,-74.68 382.87,-73.9"/>
<polygon fill="#63b8ff" stroke="#63b8ff" points="1038.06,-122.92 1048.19,-119.84 1038.35,-115.93 1038.06,-122.92"/>
</a>
</g>
</g>
<!-- Node13 -->
<g id="Node000013" class="node">
<title>Node13</title>
<g id="a_Node000013"><a xlink:href="ENS160Sensor_8h.html" target="_top" xlink:title=" ">
<polygon fill="white" stroke="#666666" points="1541.38,-76 1449.62,-76 1449.62,-56 1541.38,-56 1541.38,-76"/>
<text text-anchor="middle" x="1495.5" y="-62.5" font-family="Helvetica,sans-Serif" font-size="10.00">ENS160Sensor.h</text>
</a>
</g>
</g>
<!-- Node1&#45;&gt;Node13 -->
<g id="edge13_Node000001_Node000013" class="edge">
<title>Node1&#45;&gt;Node13</title>
<g id="a_edge13_Node000001_Node000013"><a xlink:title=" ">
<path fill="none" stroke="#63b8ff" d="M1116.51,-116.67C1183.06,-109.16 1322.8,-92.92 1440.5,-76 1443.37,-75.59 1446.33,-75.15 1449.31,-74.69"/>
<polygon fill="#63b8ff" stroke="#63b8ff" points="1116.38,-113.16 1106.83,-117.75 1117.16,-120.12 1116.38,-113.16"/>
</a>
</g>
</g>
<!-- Node15 -->
<g id="Node000015" class="node">
<title>Node15</title>
<g id="a_Node000015"><a xlink:href="ICM20948Sensor_8h.html" target="_top" xlink:title=" ">
<polygon fill="white" stroke="#666666" points="850.5,-76 750.5,-76 750.5,-56 850.5,-56 850.5,-76"/>
<text text-anchor="middle" x="800.5" y="-62.5" font-family="Helvetica,sans-Serif" font-size="10.00">ICM20948Sensor.h</text>
</a>
</g>
</g>
<!-- Node1&#45;&gt;Node15 -->
<g id="edge16_Node000001_Node000015" class="edge">
<title>Node1&#45;&gt;Node15</title>
<g id="a_edge16_Node000001_Node000015"><a xlink:title=" ">
<path fill="none" stroke="#63b8ff" d="M1038.46,-113.39C988.79,-103.71 903.02,-86.99 849.15,-76.48"/>
<polygon fill="#63b8ff" stroke="#63b8ff" points="1037.7,-116.81 1048.19,-115.29 1039.04,-109.94 1037.7,-116.81"/>
</a>
</g>
</g>
<!-- Node17 -->
<g id="Node000017" class="node">
<title>Node17</title>
<g id="a_Node000017"><a xlink:href="INA260Sensor_8h.html" target="_top" xlink:title=" ">
<polygon fill="white" stroke="#666666" points="956.5,-76 868.5,-76 868.5,-56 956.5,-56 956.5,-76"/>
<text text-anchor="middle" x="912.5" y="-62.5" font-family="Helvetica,sans-Serif" font-size="10.00">INA260Sensor.h</text>
</a>
</g>
</g>
<!-- Node1&#45;&gt;Node17 -->
<g id="edge19_Node000001_Node000017" class="edge">
<title>Node1&#45;&gt;Node17</title>
<g id="a_edge19_Node000001_Node000017"><a xlink:title=" ">
<path fill="none" stroke="#63b8ff" d="M1038.67,-108.29C1008.89,-98.55 968.45,-85.31 941.46,-76.48"/>
<polygon fill="#63b8ff" stroke="#63b8ff" points="1037.48,-111.58 1048.07,-111.37 1039.66,-104.93 1037.48,-111.58"/>
</a>
</g>
</g>
<!-- Node19 -->
<g id="Node000019" class="node">
<title>Node19</title>
<g id="a_Node000019"><a xlink:href="LSM9DS1Sensor_8h.html" target="_top" xlink:title=" ">
<polygon fill="white" stroke="#666666" points="509.5,-76 409.5,-76 409.5,-56 509.5,-56 509.5,-76"/>
<text text-anchor="middle" x="459.5" y="-62.5" font-family="Helvetica,sans-Serif" font-size="10.00">LSM9DS1Sensor.h</text>
</a>
</g>
</g>
<!-- Node1&#45;&gt;Node19 -->
<g id="edge22_Node000001_Node000019" class="edge">
<title>Node1&#45;&gt;Node19</title>
<g id="a_edge22_Node000001_Node000019"><a xlink:title=" ">
<path fill="none" stroke="#63b8ff" d="M1038.44,-118.62C947.81,-112.92 716.26,-97.36 523.5,-76 519.04,-75.51 514.41,-74.95 509.77,-74.35"/>
<polygon fill="#63b8ff" stroke="#63b8ff" points="1038.07,-122.1 1048.26,-119.23 1038.5,-115.11 1038.07,-122.1"/>
</a>
</g>
</g>
<!-- Node21 -->
<g id="Node000021" class="node">
<title>Node21</title>
<g id="a_Node000021"><a xlink:href="MTK3339Sensor_8h.html" target="_top" xlink:title=" ">
<polygon fill="white" stroke="#666666" points="1072,-76 975,-76 975,-56 1072,-56 1072,-76"/>
<text text-anchor="middle" x="1023.5" y="-62.5" font-family="Helvetica,sans-Serif" font-size="10.00">MTK3339Sensor.h</text>
</a>
</g>
</g>
<!-- Node1&#45;&gt;Node21 -->
<g id="edge24_Node000001_Node000021" class="edge">
<title>Node1&#45;&gt;Node21</title>
<g id="a_edge24_Node000001_Node000021"><a xlink:title=" ">
<path fill="none" stroke="#63b8ff" d="M1060.07,-103.57C1051,-94.5 1040.28,-83.78 1032.8,-76.3"/>
<polygon fill="#63b8ff" stroke="#63b8ff" points="1057.48,-105.93 1067.02,-110.52 1062.43,-100.98 1057.48,-105.93"/>
</a>
</g>
</g>
<!-- Node23 -->
<g id="Node000023" class="node">
<title>Node23</title>
<g id="a_Node000023"><a xlink:href="OzoneSensor_8h.html" target="_top" xlink:title=" ">
<polygon fill="white" stroke="#666666" points="1173.25,-76 1089.75,-76 1089.75,-56 1173.25,-56 1173.25,-76"/>
<text text-anchor="middle" x="1131.5" y="-62.5" font-family="Helvetica,sans-Serif" font-size="10.00">OzoneSensor.h</text>
</a>
</g>
</g>
<!-- Node1&#45;&gt;Node23 -->
<g id="edge27_Node000001_Node000023" class="edge">
<title>Node1&#45;&gt;Node23</title>
<g id="a_edge27_Node000001_Node000023"><a xlink:title=" ">
<path fill="none" stroke="#63b8ff" d="M1094.93,-103.57C1104,-94.5 1114.72,-83.78 1122.2,-76.3"/>
<polygon fill="#63b8ff" stroke="#63b8ff" points="1092.57,-100.98 1087.98,-110.52 1097.52,-105.93 1092.57,-100.98"/>
</a>
</g>
</g>
<!-- Node25 -->
<g id="Node000025" class="node">
<title>Node25</title>
<g id="a_Node000025"><a xlink:href="PCF8523Sensor_8h.html" target="_top" xlink:title=" ">
<polygon fill="white" stroke="#666666" points="1325.62,-76 1229.38,-76 1229.38,-56 1325.62,-56 1325.62,-76"/>
<text text-anchor="middle" x="1277.5" y="-62.5" font-family="Helvetica,sans-Serif" font-size="10.00">PCF8523Sensor.h</text>
</a>
</g>
</g>
<!-- Node1&#45;&gt;Node25 -->
<g id="edge30_Node000001_Node000025" class="edge">
<title>Node1&#45;&gt;Node25</title>
<g id="a_edge30_Node000001_Node000025"><a xlink:title=" ">
<path fill="none" stroke="#63b8ff" d="M1116.05,-110.59C1152.64,-100.71 1207.17,-85.99 1242.53,-76.44"/>
<polygon fill="#63b8ff" stroke="#63b8ff" points="1115.51,-107.11 1106.77,-113.1 1117.34,-113.87 1115.51,-107.11"/>
</a>
</g>
</g>
<!-- Node27 -->
<g id="Node000027" class="node">
<title>Node27</title>
<g id="a_Node000027"><a xlink:href="SCD40Sensor_8h.html" target="_top" xlink:title=" ">
<polygon fill="white" stroke="#666666" points="1431.12,-76 1343.88,-76 1343.88,-56 1431.12,-56 1431.12,-76"/>
<text text-anchor="middle" x="1387.5" y="-62.5" font-family="Helvetica,sans-Serif" font-size="10.00">SCD40Sensor.h</text>
</a>
</g>
</g>
<!-- Node1&#45;&gt;Node27 -->
<g id="edge33_Node000001_Node000027" class="edge">
<title>Node1&#45;&gt;Node27</title>
<g id="a_edge33_Node000001_Node000027"><a xlink:title=" ">
<path fill="none" stroke="#63b8ff" d="M1116.5,-114.21C1174.38,-104.12 1282.72,-85.25 1343.41,-74.68"/>
<polygon fill="#63b8ff" stroke="#63b8ff" points="1116.03,-110.74 1106.77,-115.9 1117.23,-117.63 1116.03,-110.74"/>
</a>
</g>
</g>
<!-- Node29 -->
<g id="Node000029" class="node">
<title>Node29</title>
<g id="a_Node000029"><a xlink:href="SGP30Sensor_8h.html" target="_top" xlink:title=" ">
<polygon fill="white" stroke="#666666" points="2022.75,-76 1936.25,-76 1936.25,-56 2022.75,-56 2022.75,-76"/>
<text text-anchor="middle" x="1979.5" y="-62.5" font-family="Helvetica,sans-Serif" font-size="10.00">SGP30Sensor.h</text>
</a>
</g>
</g>
<!-- Node1&#45;&gt;Node29 -->
<g id="edge36_Node000001_Node000029" class="edge">
<title>Node1&#45;&gt;Node29</title>
<g id="a_edge36_Node000001_Node000029"><a xlink:title=" ">
<path fill="none" stroke="#63b8ff" d="M1116.67,-119.04C1231.46,-113.23 1577.03,-95.31 1863.5,-76 1887.48,-74.38 1914.23,-72.32 1936,-70.58"/>
<polygon fill="#63b8ff" stroke="#63b8ff" points="1116.68,-115.53 1106.87,-119.53 1117.03,-122.52 1116.68,-115.53"/>
</a>
</g>
</g>
<!-- Node31 -->
<g id="Node000031" class="node">
<title>Node31</title>
<g id="a_Node000031"><a xlink:href="SHTC3Sensor_8h.html" target="_top" xlink:title=" ">
<polygon fill="white" stroke="#666666" points="1756.5,-76 1668.5,-76 1668.5,-56 1756.5,-56 1756.5,-76"/>
<text text-anchor="middle" x="1712.5" y="-62.5" font-family="Helvetica,sans-Serif" font-size="10.00">SHTC3Sensor.h</text>
</a>
</g>
</g>
<!-- Node1&#45;&gt;Node31 -->
<g id="edge38_Node000001_Node000031" class="edge">
<title>Node1&#45;&gt;Node31</title>
<g id="a_edge38_Node000001_Node000031"><a xlink:title=" ">
<path fill="none" stroke="#63b8ff" d="M1116.95,-119.19C1211.08,-114.61 1456.18,-101.07 1659.5,-76 1662.28,-75.66 1665.13,-75.27 1668.01,-74.86"/>
<polygon fill="#63b8ff" stroke="#63b8ff" points="1116.79,-115.7 1106.97,-119.67 1117.12,-122.69 1116.79,-115.7"/>
</a>
</g>
</g>
<!-- Node33 -->
<g id="Node000033" class="node">
<title>Node33</title>
<g id="a_Node000033"><a xlink:href="TMP117Sensor_8h.html" target="_top" xlink:title=" ">
<polygon fill="white" stroke="#666666" points="1650,-76 1559,-76 1559,-56 1650,-56 1650,-76"/>
<text text-anchor="middle" x="1604.5" y="-62.5" font-family="Helvetica,sans-Serif" font-size="10.00">TMP117Sensor.h</text>
</a>
</g>
</g>
<!-- Node1&#45;&gt;Node33 -->
<g id="edge42_Node000001_Node000033" class="edge">
<title>Node1&#45;&gt;Node33</title>
<g id="a_edge42_Node000001_Node000033"><a xlink:title=" ">
<path fill="none" stroke="#63b8ff" d="M1116.67,-118.21C1197.81,-112.22 1390.07,-96.97 1550.5,-76 1553.14,-75.66 1555.85,-75.28 1558.58,-74.88"/>
<polygon fill="#63b8ff" stroke="#63b8ff" points="1116.53,-114.71 1106.81,-118.93 1117.04,-121.69 1116.53,-114.71"/>
</a>
</g>
</g>
<!-- Node35 -->
<g id="Node000035" class="node">
<title>Node35</title>
<g id="a_Node000035"><a xlink:href="TempSensor_8h.html" target="_top" xlink:title=" ">
<polygon fill="white" stroke="#666666" points="1854,-76 1775,-76 1775,-56 1854,-56 1854,-76"/>
<text text-anchor="middle" x="1814.5" y="-62.5" font-family="Helvetica,sans-Serif" font-size="10.00">TempSensor.h</text>
</a>
</g>
</g>
<!-- Node1&#45;&gt;Node35 -->
<g id="edge46_Node000001_Node000035" class="edge">
<title>Node1&#45;&gt;Node35</title>
<g id="a_edge46_Node000001_Node000035"><a xlink:title=" ">
<path fill="none" stroke="#63b8ff" d="M1116.78,-120.03C1222.17,-117.08 1519.87,-106.49 1765.5,-76 1768.5,-75.63 1771.6,-75.19 1774.71,-74.71"/>
<polygon fill="#63b8ff" stroke="#63b8ff" points="1116.88,-116.53 1106.98,-120.3 1117.07,-123.52 1116.88,-116.53"/>
</a>
</g>
</g>
<!-- Node3 -->
<g id="Node000003" class="node">
<title>Node3</title>
<g id="a_Node000003"><a xlink:href="AS7331Sensor_8cpp.html" target="_top" xlink:title=" ">
<polygon fill="white" stroke="#666666" points="589.5,-20 489.5,-20 489.5,0 589.5,0 589.5,-20"/>
<text text-anchor="middle" x="539.5" y="-6.5" font-family="Helvetica,sans-Serif" font-size="10.00">AS7331Sensor.cpp</text>
</a>
</g>
</g>
<!-- Node2&#45;&gt;Node3 -->
<g id="edge2_Node000002_Node000003" class="edge">
<title>Node2&#45;&gt;Node3</title>
<g id="a_edge2_Node000002_Node000003"><a xlink:title=" ">
<path fill="none" stroke="#63b8ff" d="M564.44,-46.44C558.23,-37.62 551.09,-27.47 546.04,-20.3"/>
<polygon fill="#63b8ff" stroke="#63b8ff" points="561.39,-48.19 570.01,-54.36 567.12,-44.16 561.39,-48.19"/>
</a>
</g>
</g>
<!-- Node2&#45;&gt;Node4 -->
<g id="edge3_Node000002_Node000004" class="edge">
<title>Node2&#45;&gt;Node4</title>
<g id="a_edge3_Node000002_Node000004"><a xlink:title=" ">
<path fill="none" stroke="#63b8ff" d="M633.92,-55.86C886.58,-27.92 955.35,-57.69 1203.5,-20 1206.38,-19.56 1209.36,-19.01 1212.32,-18.4"/>
<polygon fill="#63b8ff" stroke="#63b8ff" points="633.58,-52.37 624.04,-56.97 634.37,-59.33 633.58,-52.37"/>
</a>
</g>
</g>
<!-- Node6 -->
<g id="Node000006" class="node">
<title>Node6</title>
<g id="a_Node000006"><a xlink:href="BME280Sensor_8cpp.html" target="_top" xlink:title=" ">
<polygon fill="white" stroke="#666666" points="103,-20 0,-20 0,0 103,0 103,-20"/>
<text text-anchor="middle" x="51.5" y="-6.5" font-family="Helvetica,sans-Serif" font-size="10.00">BME280Sensor.cpp</text>
</a>
</g>
</g>
<!-- Node5&#45;&gt;Node6 -->
<g id="edge5_Node000005_Node000006" class="edge">
<title>Node5&#45;&gt;Node6</title>
<g id="a_edge5_Node000005_Node000006"><a xlink:title=" ">
<path fill="none" stroke="#63b8ff" d="M57.69,-44.43C56.15,-36.11 54.45,-26.93 53.22,-20.3"/>
<polygon fill="#63b8ff" stroke="#63b8ff" points="54.22,-44.91 59.48,-54.11 61.1,-43.64 54.22,-44.91"/>
</a>
</g>
</g>
<!-- Node8 -->
<g id="Node000008" class="node">
<title>Node8</title>
<g id="a_Node000008"><a xlink:href="BME680Sensor_8cpp.html" target="_top" xlink:title=" ">
<polygon fill="white" stroke="#666666" points="224,-20 121,-20 121,0 224,0 224,-20"/>
<text text-anchor="middle" x="172.5" y="-6.5" font-family="Helvetica,sans-Serif" font-size="10.00">BME680Sensor.cpp</text>
</a>
</g>
</g>
<!-- Node7&#45;&gt;Node8 -->
<g id="edge7_Node000007_Node000008" class="edge">
<title>Node7&#45;&gt;Node8</title>
<g id="a_edge7_Node000007_Node000008"><a xlink:title=" ">
<path fill="none" stroke="#63b8ff" d="M196.59,-46.15C190.59,-37.4 183.73,-27.39 178.87,-20.3"/>
<polygon fill="#63b8ff" stroke="#63b8ff" points="193.66,-48.07 202.2,-54.35 199.43,-44.12 193.66,-48.07"/>
</a>
</g>
</g>
<!-- Node9&#45;&gt;Node4 -->
<g id="edge10_Node000009_Node000004" class="edge">
<title>Node9&#45;&gt;Node4</title>
<g id="a_edge10_Node000009_Node000004"><a xlink:title=" ">
<path fill="none" stroke="#63b8ff" d="M744.36,-55.76C947.98,-32.09 1003.79,-51.86 1203.5,-20 1206.37,-19.54 1209.35,-18.98 1212.31,-18.35"/>
<polygon fill="#63b8ff" stroke="#63b8ff" points="743.99,-52.28 734.47,-56.93 744.82,-59.23 743.99,-52.28"/>
</a>
</g>
</g>
<!-- Node10 -->
<g id="Node000010" class="node">
<title>Node10</title>
<g id="a_Node000010"><a xlink:href="BMP390Sensor_8cpp.html" target="_top" xlink:title=" ">
<polygon fill="white" stroke="#666666" points="711,-20 608,-20 608,0 711,0 711,-20"/>
<text text-anchor="middle" x="659.5" y="-6.5" font-family="Helvetica,sans-Serif" font-size="10.00">BMP390Sensor.cpp</text>
</a>
</g>
</g>
<!-- Node9&#45;&gt;Node10 -->
<g id="edge9_Node000009_Node000010" class="edge">
<title>Node9&#45;&gt;Node10</title>
<g id="a_edge9_Node000009_Node000010"><a xlink:title=" ">
<path fill="none" stroke="#63b8ff" d="M676.79,-45.58C672.48,-36.97 667.62,-27.24 664.15,-20.3"/>
<polygon fill="#63b8ff" stroke="#63b8ff" points="673.52,-46.86 681.12,-54.24 679.78,-43.73 673.52,-46.86"/>
</a>
</g>
</g>
<!-- Node12 -->
<g id="Node000012" class="node">
<title>Node12</title>
<g id="a_Node000012"><a xlink:href="DS3231Sensor_8cpp.html" target="_top" xlink:title=" ">
<polygon fill="white" stroke="#666666" points="342.88,-20 242.12,-20 242.12,0 342.88,0 342.88,-20"/>
<text text-anchor="middle" x="292.5" y="-6.5" font-family="Helvetica,sans-Serif" font-size="10.00">DS3231Sensor.cpp</text>
</a>
</g>
</g>
<!-- Node11&#45;&gt;Node12 -->
<g id="edge12_Node000011_Node000012" class="edge">
<title>Node11&#45;&gt;Node12</title>
<g id="a_edge12_Node000011_Node000012"><a xlink:title=" ">
<path fill="none" stroke="#63b8ff" d="M322.5,-47C315.05,-38.06 306.35,-27.62 300.25,-20.3"/>
<polygon fill="#63b8ff" stroke="#63b8ff" points="319.6,-48.99 328.69,-54.43 324.98,-44.51 319.6,-48.99"/>
</a>
</g>
</g>
<!-- Node13&#45;&gt;Node4 -->
<g id="edge15_Node000013_Node000004" class="edge">
<title>Node13&#45;&gt;Node4</title>
<g id="a_edge15_Node000013_Node000004"><a xlink:title=" ">
<path fill="none" stroke="#63b8ff" d="M1438.4,-53.78C1394.35,-44.99 1331.96,-32.24 1277.5,-20 1274.66,-19.36 1271.71,-18.68 1268.76,-17.98"/>
<polygon fill="#63b8ff" stroke="#63b8ff" points="1437.49,-57.17 1447.98,-55.69 1438.86,-50.3 1437.49,-57.17"/>
</a>
</g>
</g>
<!-- Node14 -->
<g id="Node000014" class="node">
<title>Node14</title>
<g id="a_Node000014"><a xlink:href="ENS160Sensor_8cpp.html" target="_top" xlink:title=" ">
<polygon fill="white" stroke="#666666" points="1628.62,-20 1526.38,-20 1526.38,0 1628.62,0 1628.62,-20"/>
<text text-anchor="middle" x="1577.5" y="-6.5" font-family="Helvetica,sans-Serif" font-size="10.00">ENS160Sensor.cpp</text>
</a>
</g>
</g>
<!-- Node13&#45;&gt;Node14 -->
<g id="edge14_Node000013_Node000014" class="edge">
<title>Node13&#45;&gt;Node14</title>
<g id="a_edge14_Node000013_Node000014"><a xlink:title=" ">
<path fill="none" stroke="#63b8ff" d="M1519.39,-49.27C1533.55,-39.94 1551.03,-28.43 1563.11,-20.48"/>
<polygon fill="#63b8ff" stroke="#63b8ff" points="1517.47,-46.34 1511.05,-54.76 1521.32,-52.18 1517.47,-46.34"/>
</a>
</g>
</g>
<!-- Node15&#45;&gt;Node4 -->
<g id="edge18_Node000015_Node000004" class="edge">
<title>Node15&#45;&gt;Node4</title>
<g id="a_edge18_Node000015_Node000004"><a xlink:title=" ">
<path fill="none" stroke="#63b8ff" d="M861.83,-55.77C1013.91,-36.84 1055.58,-45.61 1203.5,-20 1206.37,-19.5 1209.34,-18.91 1212.3,-18.27"/>
<polygon fill="#63b8ff" stroke="#63b8ff" points="861.67,-52.26 852.19,-56.99 862.55,-59.21 861.67,-52.26"/>
</a>
</g>
</g>
<!-- Node16 -->
<g id="Node000016" class="node">
<title>Node16</title>
<g id="a_Node000016"><a xlink:href="ICM20948Sensor_8cpp.html" target="_top" xlink:title=" ">
<polygon fill="white" stroke="#666666" points="839.75,-20 729.25,-20 729.25,0 839.75,0 839.75,-20"/>
<text text-anchor="middle" x="784.5" y="-6.5" font-family="Helvetica,sans-Serif" font-size="10.00">ICM20948Sensor.cpp</text>
</a>
</g>
</g>
<!-- Node15&#45;&gt;Node16 -->
<g id="edge17_Node000015_Node000016" class="edge">
<title>Node15&#45;&gt;Node16</title>
<g id="a_edge17_Node000015_Node000016"><a xlink:title=" ">
<path fill="none" stroke="#63b8ff" d="M794.49,-44.71C792,-36.32 789.24,-27.01 787.26,-20.3"/>
<polygon fill="#63b8ff" stroke="#63b8ff" points="791.09,-45.55 797.28,-54.14 797.8,-43.56 791.09,-45.55"/>
</a>
</g>
</g>
<!-- Node17&#45;&gt;Node4 -->
<g id="edge21_Node000017_Node000004" class="edge">
<title>Node17&#45;&gt;Node4</title>
<g id="a_edge21_Node000017_Node000004"><a xlink:title=" ">
<path fill="none" stroke="#63b8ff" d="M968.13,-55.77C1073.61,-39.31 1102.44,-39.93 1203.5,-20 1206.35,-19.44 1209.32,-18.8 1212.27,-18.14"/>
<polygon fill="#63b8ff" stroke="#63b8ff" points="967.82,-52.28 958.48,-57.3 968.91,-59.2 967.82,-52.28"/>
</a>
</g>
</g>
<!-- Node18 -->
<g id="Node000018" class="node">
<title>Node18</title>
<g id="a_Node000018"><a xlink:href="INA260Sensor_8cpp.html" target="_top" xlink:title=" ">
<polygon fill="white" stroke="#666666" points="956.75,-20 858.25,-20 858.25,0 956.75,0 956.75,-20"/>
<text text-anchor="middle" x="907.5" y="-6.5" font-family="Helvetica,sans-Serif" font-size="10.00">INA260Sensor.cpp</text>
</a>
</g>
</g>
<!-- Node17&#45;&gt;Node18 -->
<g id="edge20_Node000017_Node000018" class="edge">
<title>Node17&#45;&gt;Node18</title>
<g id="a_edge20_Node000017_Node000018"><a xlink:title=" ">
<path fill="none" stroke="#63b8ff" d="M910.57,-44.13C909.81,-35.9 908.97,-26.85 908.36,-20.3"/>
<polygon fill="#63b8ff" stroke="#63b8ff" points="907.08,-44.45 911.49,-54.09 914.05,-43.81 907.08,-44.45"/>
</a>
</g>
</g>
<!-- Node20 -->
<g id="Node000020" class="node">
<title>Node20</title>
<g id="a_Node000020"><a xlink:href="LSM9DS1Sensor_8cpp.html" target="_top" xlink:title=" ">
<polygon fill="white" stroke="#666666" points="471.75,-20 361.25,-20 361.25,0 471.75,0 471.75,-20"/>
<text text-anchor="middle" x="416.5" y="-6.5" font-family="Helvetica,sans-Serif" font-size="10.00">LSM9DS1Sensor.cpp</text>
</a>
</g>
</g>
<!-- Node19&#45;&gt;Node20 -->
<g id="edge23_Node000019_Node000020" class="edge">
<title>Node19&#45;&gt;Node20</title>
<g id="a_edge23_Node000019_Node000020"><a xlink:title=" ">
<path fill="none" stroke="#63b8ff" d="M444.94,-46.72C437.87,-37.84 429.68,-27.55 423.9,-20.3"/>
<polygon fill="#63b8ff" stroke="#63b8ff" points="442.1,-48.77 451.07,-54.41 447.58,-44.41 442.1,-48.77"/>
</a>
</g>
</g>
<!-- Node21&#45;&gt;Node4 -->
<g id="edge26_Node000021_Node000004" class="edge">
<title>Node21&#45;&gt;Node4</title>
<g id="a_edge26_Node000021_Node000004"><a xlink:title=" ">
<path fill="none" stroke="#63b8ff" d="M1072.41,-52.83C1115.6,-42.08 1177.05,-26.79 1212.44,-17.98"/>
<polygon fill="#63b8ff" stroke="#63b8ff" points="1071.63,-49.42 1062.77,-55.23 1073.32,-56.21 1071.63,-49.42"/>
</a>
</g>
</g>
<!-- Node22 -->
<g id="Node000022" class="node">
<title>Node22</title>
<g id="a_Node000022"><a xlink:href="MTK3339Sensor_8cpp.html" target="_top" xlink:title=" ">
<polygon fill="white" stroke="#666666" points="1082.25,-20 974.75,-20 974.75,0 1082.25,0 1082.25,-20"/>
<text text-anchor="middle" x="1028.5" y="-6.5" font-family="Helvetica,sans-Serif" font-size="10.00">MTK3339Sensor.cpp</text>
</a>
</g>
</g>
<!-- Node21&#45;&gt;Node22 -->
<g id="edge25_Node000021_Node000022" class="edge">
<title>Node21&#45;&gt;Node22</title>
<g id="a_edge25_Node000021_Node000022"><a xlink:title=" ">
<path fill="none" stroke="#63b8ff" d="M1025.43,-44.13C1026.19,-35.9 1027.03,-26.85 1027.64,-20.3"/>
<polygon fill="#63b8ff" stroke="#63b8ff" points="1021.95,-43.81 1024.51,-54.09 1028.92,-44.45 1021.95,-43.81"/>
</a>
</g>
</g>
<!-- Node23&#45;&gt;Node4 -->
<g id="edge29_Node000023_Node000004" class="edge">
<title>Node23&#45;&gt;Node4</title>
<g id="a_edge29_Node000023_Node000004"><a xlink:title=" ">
<path fill="none" stroke="#63b8ff" d="M1160.54,-50.61C1179.8,-41.07 1204.54,-28.81 1221.37,-20.48"/>
<polygon fill="#63b8ff" stroke="#63b8ff" points="1159.25,-47.35 1151.84,-54.92 1162.36,-53.62 1159.25,-47.35"/>
</a>
</g>
</g>
<!-- Node24 -->
<g id="Node000024" class="node">
<title>Node24</title>
<g id="a_Node000024"><a xlink:href="OzoneSensor_8cpp.html" target="_top" xlink:title=" ">
<polygon fill="white" stroke="#666666" points="1194.5,-20 1100.5,-20 1100.5,0 1194.5,0 1194.5,-20"/>
<text text-anchor="middle" x="1147.5" y="-6.5" font-family="Helvetica,sans-Serif" font-size="10.00">OzoneSensor.cpp</text>
</a>
</g>
</g>
<!-- Node23&#45;&gt;Node24 -->
<g id="edge28_Node000023_Node000024" class="edge">
<title>Node23&#45;&gt;Node24</title>
<g id="a_edge28_Node000023_Node000024"><a xlink:title=" ">
<path fill="none" stroke="#63b8ff" d="M1137.51,-44.71C1140,-36.32 1142.76,-27.01 1144.74,-20.3"/>
<polygon fill="#63b8ff" stroke="#63b8ff" points="1134.2,-43.56 1134.72,-54.14 1140.91,-45.55 1134.2,-43.56"/>
</a>
</g>
</g>
<!-- Node25&#45;&gt;Node4 -->
<g id="edge32_Node000025_Node000004" class="edge">
<title>Node25&#45;&gt;Node4</title>
<g id="a_edge32_Node000025_Node000004"><a xlink:title=" ">
<path fill="none" stroke="#63b8ff" d="M1264.59,-46.15C1258.59,-37.4 1251.73,-27.39 1246.87,-20.3"/>
<polygon fill="#63b8ff" stroke="#63b8ff" points="1261.66,-48.07 1270.2,-54.35 1267.43,-44.12 1261.66,-48.07"/>
</a>
</g>
</g>
<!-- Node26 -->
<g id="Node000026" class="node">
<title>Node26</title>
<g id="a_Node000026"><a xlink:href="PCF8523Sensor_8cpp.html" target="_top" xlink:title=" ">
<polygon fill="white" stroke="#666666" points="1392.88,-20 1286.12,-20 1286.12,0 1392.88,0 1392.88,-20"/>
<text text-anchor="middle" x="1339.5" y="-6.5" font-family="Helvetica,sans-Serif" font-size="10.00">PCF8523Sensor.cpp</text>
</a>
</g>
</g>
<!-- Node25&#45;&gt;Node26 -->
<g id="edge31_Node000025_Node000026" class="edge">
<title>Node25&#45;&gt;Node26</title>
<g id="a_edge31_Node000025_Node000026"><a xlink:title=" ">
<path fill="none" stroke="#63b8ff" d="M1296.87,-48.13C1307.42,-38.94 1320.06,-27.93 1328.82,-20.3"/>
<polygon fill="#63b8ff" stroke="#63b8ff" points="1294.68,-45.39 1289.44,-54.6 1299.28,-50.67 1294.68,-45.39"/>
</a>
</g>
</g>
<!-- Node27&#45;&gt;Node4 -->
<g id="edge35_Node000027_Node000004" class="edge">
<title>Node27&#45;&gt;Node4</title>
<g id="a_edge35_Node000027_Node000004"><a xlink:title=" ">
<path fill="none" stroke="#63b8ff" d="M1351.19,-51.66C1324.84,-41.98 1289.83,-29.12 1266.31,-20.48"/>
<polygon fill="#63b8ff" stroke="#63b8ff" points="1349.88,-54.91 1360.47,-55.07 1352.29,-48.34 1349.88,-54.91"/>
</a>
</g>
</g>
<!-- Node28 -->
<g id="Node000028" class="node">
<title>Node28</title>
<g id="a_Node000028"><a xlink:href="SCD40Sensor_8cpp.html" target="_top" xlink:title=" ">
<polygon fill="white" stroke="#666666" points="1508.38,-20 1410.62,-20 1410.62,0 1508.38,0 1508.38,-20"/>
<text text-anchor="middle" x="1459.5" y="-6.5" font-family="Helvetica,sans-Serif" font-size="10.00">SCD40Sensor.cpp</text>
</a>
</g>
</g>
<!-- Node27&#45;&gt;Node28 -->
<g id="edge34_Node000027_Node000028" class="edge">
<title>Node27&#45;&gt;Node28</title>
<g id="a_edge34_Node000027_Node000028"><a xlink:title=" ">
<path fill="none" stroke="#63b8ff" d="M1408.89,-48.95C1421.35,-39.61 1436.61,-28.16 1447.1,-20.3"/>
<polygon fill="#63b8ff" stroke="#63b8ff" points="1407.15,-45.89 1401.25,-54.69 1411.35,-51.49 1407.15,-45.89"/>
</a>
</g>
</g>
<!-- Node30 -->
<g id="Node000030" class="node">
<title>Node30</title>
<g id="a_Node000030"><a xlink:href="SGP30Sensor_8cpp.html" target="_top" xlink:title=" ">
<polygon fill="white" stroke="#666666" points="2087,-20 1990,-20 1990,0 2087,0 2087,-20"/>
<text text-anchor="middle" x="2038.5" y="-6.5" font-family="Helvetica,sans-Serif" font-size="10.00">SGP30Sensor.cpp</text>
</a>
</g>
</g>
<!-- Node29&#45;&gt;Node30 -->
<g id="edge37_Node000029_Node000030" class="edge">
<title>Node29&#45;&gt;Node30</title>
<g id="a_edge37_Node000029_Node000030"><a xlink:title=" ">
<path fill="none" stroke="#63b8ff" d="M1998.24,-47.85C2008.21,-38.72 2020.08,-27.86 2028.34,-20.3"/>
<polygon fill="#63b8ff" stroke="#63b8ff" points="1995.91,-45.24 1990.89,-54.57 2000.63,-50.4 1995.91,-45.24"/>
</a>
</g>
</g>
<!-- Node31&#45;&gt;Node4 -->
<g id="edge41_Node000031_Node000004" class="edge">
<title>Node31&#45;&gt;Node4</title>
<g id="a_edge41_Node000031_Node000004"><a xlink:title=" ">
<path fill="none" stroke="#63b8ff" d="M1656.74,-55.74C1488.45,-34.31 1442.06,-47.62 1277.5,-20 1274.63,-19.52 1271.66,-18.94 1268.69,-18.3"/>
<polygon fill="#63b8ff" stroke="#63b8ff" points="1656.13,-59.19 1666.5,-57 1657.04,-52.24 1656.13,-59.19"/>
</a>
</g>
</g>
<!-- Node31&#45;&gt;Node14 -->
<g id="edge39_Node000031_Node000014" class="edge">
<title>Node31&#45;&gt;Node14</title>
<g id="a_edge39_Node000031_Node000014"><a xlink:title=" ">
<path fill="none" stroke="#63b8ff" d="M1678.5,-51.4C1654.38,-41.75 1622.61,-29.05 1601.2,-20.48"/>
<polygon fill="#63b8ff" stroke="#63b8ff" points="1676.99,-54.57 1687.58,-55.03 1679.59,-48.07 1676.99,-54.57"/>
</a>
</g>
</g>
<!-- Node32 -->
<g id="Node000032" class="node">
<title>Node32</title>
<g id="a_Node000032"><a xlink:href="SHTC3Sensor_8cpp.html" target="_top" xlink:title=" ">
<polygon fill="white" stroke="#666666" points="1864.75,-20 1766.25,-20 1766.25,0 1864.75,0 1864.75,-20"/>
<text text-anchor="middle" x="1815.5" y="-6.5" font-family="Helvetica,sans-Serif" font-size="10.00">SHTC3Sensor.cpp</text>
</a>
</g>
</g>
<!-- Node31&#45;&gt;Node32 -->
<g id="edge40_Node000031_Node000032" class="edge">
<title>Node31&#45;&gt;Node32</title>
<g id="a_edge40_Node000031_Node000032"><a xlink:title=" ">
<path fill="none" stroke="#63b8ff" d="M1740.45,-50.35C1758.58,-40.84 1781.67,-28.74 1797.42,-20.48"/>
<polygon fill="#63b8ff" stroke="#63b8ff" points="1739.01,-47.15 1731.78,-54.89 1742.26,-53.35 1739.01,-47.15"/>
</a>
</g>
</g>
<!-- Node33&#45;&gt;Node4 -->
<g id="edge45_Node000033_Node000004" class="edge">
<title>Node33&#45;&gt;Node4</title>
<g id="a_edge45_Node000033_Node000004"><a xlink:title=" ">
<path fill="none" stroke="#63b8ff" d="M1547.46,-55.6C1427.53,-38.18 1394.27,-41.84 1277.5,-20 1274.64,-19.47 1271.67,-18.85 1268.71,-18.19"/>
<polygon fill="#63b8ff" stroke="#63b8ff" points="1546.66,-59.02 1557.06,-57.01 1547.68,-52.09 1546.66,-59.02"/>
</a>
</g>
</g>
<!-- Node33&#45;&gt;Node14 -->
<g id="edge43_Node000033_Node000014" class="edge">
<title>Node33&#45;&gt;Node14</title>
<g id="a_edge43_Node000033_Node000014"><a xlink:title=" ">
<path fill="none" stroke="#63b8ff" d="M1594.79,-45.58C1590.48,-36.97 1585.62,-27.24 1582.15,-20.3"/>
<polygon fill="#63b8ff" stroke="#63b8ff" points="1591.52,-46.86 1599.12,-54.24 1597.78,-43.73 1591.52,-46.86"/>
</a>
</g>
</g>
<!-- Node34 -->
<g id="Node000034" class="node">
<title>Node34</title>
<g id="a_Node000034"><a xlink:href="TMP117Sensor_8cpp.html" target="_top" xlink:title=" ">
<polygon fill="white" stroke="#666666" points="1748.25,-20 1646.75,-20 1646.75,0 1748.25,0 1748.25,-20"/>
<text text-anchor="middle" x="1697.5" y="-6.5" font-family="Helvetica,sans-Serif" font-size="10.00">TMP117Sensor.cpp</text>
</a>
</g>
</g>
<!-- Node33&#45;&gt;Node34 -->
<g id="edge44_Node000033_Node000034" class="edge">
<title>Node33&#45;&gt;Node34</title>
<g id="a_edge44_Node000033_Node000034"><a xlink:title=" ">
<path fill="none" stroke="#63b8ff" d="M1630.2,-50.08C1646.49,-40.62 1667.09,-28.66 1681.17,-20.48"/>
<polygon fill="#63b8ff" stroke="#63b8ff" points="1628.9,-46.79 1622.01,-54.83 1632.41,-52.84 1628.9,-46.79"/>
</a>
</g>
</g>
<!-- Node35&#45;&gt;Node4 -->
<g id="edge48_Node000035_Node000004" class="edge">
<title>Node35&#45;&gt;Node4</title>
<g id="a_edge48_Node000035_Node000004"><a xlink:title=" ">
<path fill="none" stroke="#63b8ff" d="M1763.32,-55.88C1547.78,-29.17 1488.66,-53.24 1277.5,-20 1274.63,-19.55 1271.65,-18.99 1268.68,-18.36"/>
<polygon fill="#63b8ff" stroke="#63b8ff" points="1762.85,-59.35 1773.21,-57.13 1763.73,-52.4 1762.85,-59.35"/>
</a>
</g>
</g>
<!-- Node36 -->
<g id="Node000036" class="node">
<title>Node36</title>
<g id="a_Node000036"><a xlink:href="TempSensor_8cpp.html" target="_top" xlink:title=" ">
<polygon fill="white" stroke="#666666" points="1972.25,-20 1882.75,-20 1882.75,0 1972.25,0 1972.25,-20"/>
<text text-anchor="middle" x="1927.5" y="-6.5" font-family="Helvetica,sans-Serif" font-size="10.00">TempSensor.cpp</text>
</a>
</g>
</g>
<!-- Node35&#45;&gt;Node36 -->
<g id="edge47_Node000035_Node000036" class="edge">
<title>Node35&#45;&gt;Node36</title>
<g id="a_edge47_Node000035_Node000036"><a xlink:title=" ">
<path fill="none" stroke="#63b8ff" d="M1844.33,-50.75C1864.34,-41.18 1890.14,-28.85 1907.66,-20.48"/>
<polygon fill="#63b8ff" stroke="#63b8ff" points="1843.06,-47.47 1835.55,-54.94 1846.08,-53.79 1843.06,-47.47"/>
</a>
</g>
</g>
</g>
</svg>

<g id="navigator" transform="translate(0 0)" fill="#404254">
  <rect fill="#f2f5e9" fill-opacity="0.5" stroke="#606060" stroke-width=".5" x="0" y="0" width="60" height="60"/>
  <use id="zoomplus" xlink:href="#zoomPlus" x="17" y="9" onmousedown="handleZoom(evt,'in')"/>
  <use id="zoomminus" xlink:href="#zoomMin" x="42" y="9" onmousedown="handleZoom(evt,'out')"/>
  <use id="reset" xlink:href="#resetDef" x="30" y="36" onmousedown="handleReset()"/>
   <use id="arrowup" xlink:href="#arrowUp" x="0" y="0" onmousedown="handlePan(0,-1)"/>
  <use id="arrowright" xlink:href="#arrowRight" x="0" y="0" onmousedown="handlePan(1,0)"/>
  <use id="arrowdown" xlink:href="#arrowDown" x="0" y="0" onmousedown="handlePan(0,1)"/>
  <use id="arrowleft" xlink:href="#arrowLeft" x="0" y="0" onmousedown="handlePan(-1,0)"/>
</g>
<svg viewBox="0 0 15 15" width="100%" height="30px" preserveAspectRatio="xMaxYMin meet">
 <g id="arrow_out" transform="scale(0.3 0.3)">
  <a xlink:href="Sensor_8h__dep__incl_org.svg" target="_base">
   <rect id="button" ry="5" rx="5" y="6" x="6" height="38" width="38"
        fill="#f2f5e9" fill-opacity="0.5" stroke="#606060" stroke-width="1.0"/>
   <path id="arrow"
     d="M 11.500037,31.436501 C 11.940474,20.09759 22.043105,11.32322 32.158766,21.979434 L 37.068811,17.246167 C 37.068811,17.246167 37.088388,32 37.088388,32 L 22.160133,31.978069 C 22.160133,31.978069 26.997745,27.140456 26.997745,27.140456 C 18.528582,18.264221 13.291696,25.230495 11.500037,31.436501 z"
     style="fill:#404040;"/>
  </a>
 </g>
</svg>

<style type='text/css'>
<![CDATA[
[data-mouse-over-selected='false'] { opacity: 0.7; }
[data-mouse-over-selected='true']  { opacity: 1.0; }
]]>
</style>
<script type="application/ecmascript"><![CDATA[
document.addEventListener('DOMContentLoaded', (event) => {
  highlightEdges();
  highlightAdjacentNodes();
});
]]></script>
</svg>
