<?xml version="1.0" encoding="UTF-8" standalone="no"?>
<!DOCTYPE svg PUBLIC "-//W3C//DTD SVG 1.1//EN"
 "http://www.w3.org/Graphics/SVG/1.1/DTD/svg11.dtd">
<!-- Generated by graphviz version 12.1.2 (20240928.0832)
 -->
<!-- Title: SGP30Sensor.cpp Pages: 1 -->
<svg width="329pt" height="308pt"
 viewBox="0.00 0.00 329.03 308.00" xmlns="http://www.w3.org/2000/svg" xmlns:xlink="http://www.w3.org/1999/xlink">
<g id="graph0" class="graph" transform="scale(1 1) rotate(0) translate(4 304)">
<title>SGP30Sensor.cpp</title>
<!-- Node1 -->
<g id="Node000001" class="node">
<title>Node1</title>
<g id="a_Node000001"><a xlink:title=" ">
<polygon fill="#999999" stroke="#666666" points="150.78,-300 53.78,-300 53.78,-280 150.78,-280 150.78,-300"/>
<text text-anchor="middle" x="102.28" y="-286.5" font-family="Helvetica,sans-Serif" font-size="10.00">SGP30Sensor.cpp</text>
</a>
</g>
</g>
<!-- Node2 -->
<g id="Node000002" class="node">
<title>Node2</title>
<g id="a_Node000002"><a xlink:href="SGP30Sensor_8h.html" target="_top" xlink:title=" ">
<polygon fill="white" stroke="#666666" points="145.53,-244 59.03,-244 59.03,-224 145.53,-224 145.53,-244"/>
<text text-anchor="middle" x="102.28" y="-230.5" font-family="Helvetica,sans-Serif" font-size="10.00">SGP30Sensor.h</text>
</a>
</g>
</g>
<!-- Node1&#45;&gt;Node2 -->
<g id="edge1_Node000001_Node000002" class="edge">
<title>Node1&#45;&gt;Node2</title>
<g id="a_edge1_Node000001_Node000002"><a xlink:title=" ">
<path fill="none" stroke="#63b8ff" d="M102.28,-279.59C102.28,-273.01 102.28,-263.96 102.28,-255.73"/>
<polygon fill="#63b8ff" stroke="#63b8ff" points="105.78,-255.81 102.28,-245.81 98.78,-255.81 105.78,-255.81"/>
</a>
</g>
</g>
<!-- Node3 -->
<g id="Node000003" class="node">
<title>Node3</title>
<g id="a_Node000003"><a xlink:title=" ">
<polygon fill="#e0e0e0" stroke="#999999" points="248.91,-20 191.66,-20 191.66,0 248.91,0 248.91,-20"/>
<text text-anchor="middle" x="220.28" y="-6.5" font-family="Helvetica,sans-Serif" font-size="10.00">Arduino.h</text>
</a>
</g>
</g>
<!-- Node2&#45;&gt;Node3 -->
<g id="edge2_Node000002_Node000003" class="edge">
<title>Node2&#45;&gt;Node3</title>
<g id="a_edge2_Node000002_Node000003"><a xlink:title=" ">
<path fill="none" stroke="#63b8ff" d="M60.15,-223.51C27.13,-213.76 -11.03,-196.02 3.28,-168 41.21,-93.73 132.5,-46.47 183.76,-24.82"/>
<polygon fill="#63b8ff" stroke="#63b8ff" points="185.04,-28.08 192.97,-21.05 182.39,-21.61 185.04,-28.08"/>
</a>
</g>
</g>
<!-- Node4 -->
<g id="Node000004" class="node">
<title>Node4</title>
<g id="a_Node000004"><a xlink:title=" ">
<polygon fill="#e0e0e0" stroke="#999999" points="60.41,-188 12.16,-188 12.16,-168 60.41,-168 60.41,-188"/>
<text text-anchor="middle" x="36.28" y="-174.5" font-family="Helvetica,sans-Serif" font-size="10.00">stdint.h</text>
</a>
</g>
</g>
<!-- Node2&#45;&gt;Node4 -->
<g id="edge3_Node000002_Node000004" class="edge">
<title>Node2&#45;&gt;Node4</title>
<g id="a_edge3_Node000002_Node000004"><a xlink:title=" ">
<path fill="none" stroke="#63b8ff" d="M90.78,-223.59C81.32,-215.85 67.68,-204.69 56.41,-195.47"/>
<polygon fill="#63b8ff" stroke="#63b8ff" points="58.77,-192.88 48.82,-189.26 54.34,-198.3 58.77,-192.88"/>
</a>
</g>
</g>
<!-- Node5 -->
<g id="Node000005" class="node">
<title>Node5</title>
<g id="a_Node000005"><a xlink:title=" ">
<polygon fill="#e0e0e0" stroke="#999999" points="126.41,-188 78.16,-188 78.16,-168 126.41,-168 126.41,-188"/>
<text text-anchor="middle" x="102.28" y="-174.5" font-family="Helvetica,sans-Serif" font-size="10.00">string.h</text>
</a>
</g>
</g>
<!-- Node2&#45;&gt;Node5 -->
<g id="edge4_Node000002_Node000005" class="edge">
<title>Node2&#45;&gt;Node5</title>
<g id="a_edge4_Node000002_Node000005"><a xlink:title=" ">
<path fill="none" stroke="#63b8ff" d="M102.28,-223.59C102.28,-217.01 102.28,-207.96 102.28,-199.73"/>
<polygon fill="#63b8ff" stroke="#63b8ff" points="105.78,-199.81 102.28,-189.81 98.78,-199.81 105.78,-199.81"/>
</a>
</g>
</g>
<!-- Node6 -->
<g id="Node000006" class="node">
<title>Node6</title>
<g id="a_Node000006"><a xlink:title=" ">
<polygon fill="#e0e0e0" stroke="#999999" points="239.66,-188 144.91,-188 144.91,-168 239.66,-168 239.66,-188"/>
<text text-anchor="middle" x="192.28" y="-174.5" font-family="Helvetica,sans-Serif" font-size="10.00">Adafruit_SGP30.h</text>
</a>
</g>
</g>
<!-- Node2&#45;&gt;Node6 -->
<g id="edge5_Node000002_Node000006" class="edge">
<title>Node2&#45;&gt;Node6</title>
<g id="a_edge5_Node000002_Node000006"><a xlink:title=" ">
<path fill="none" stroke="#63b8ff" d="M117.96,-223.59C131.43,-215.51 151.1,-203.71 166.82,-194.27"/>
<polygon fill="#63b8ff" stroke="#63b8ff" points="168.41,-197.4 175.18,-189.26 164.81,-191.4 168.41,-197.4"/>
</a>
</g>
</g>
<!-- Node7 -->
<g id="Node000007" class="node">
<title>Node7</title>
<g id="a_Node000007"><a xlink:href="Sensor_8h.html" target="_top" xlink:title=" ">
<polygon fill="white" stroke="#666666" points="312.78,-188 257.78,-188 257.78,-168 312.78,-168 312.78,-188"/>
<text text-anchor="middle" x="285.28" y="-174.5" font-family="Helvetica,sans-Serif" font-size="10.00">Sensor.h</text>
</a>
</g>
</g>
<!-- Node2&#45;&gt;Node7 -->
<g id="edge6_Node000002_Node000007" class="edge">
<title>Node2&#45;&gt;Node7</title>
<g id="a_edge6_Node000002_Node000007"><a xlink:title=" ">
<path fill="none" stroke="#63b8ff" d="M134.16,-223.59C165.44,-214.36 213.19,-200.27 246.62,-190.41"/>
<polygon fill="#63b8ff" stroke="#63b8ff" points="247.31,-193.85 255.91,-187.67 245.33,-187.14 247.31,-193.85"/>
</a>
</g>
</g>
<!-- Node7&#45;&gt;Node3 -->
<g id="edge7_Node000007_Node000003" class="edge">
<title>Node7&#45;&gt;Node3</title>
<g id="a_edge7_Node000007_Node000003"><a xlink:title=" ">
<path fill="none" stroke="#63b8ff" d="M262.25,-167.55C247.65,-160.21 229.93,-148.48 221.28,-132 204.58,-100.17 209.76,-56.84 215.03,-31.6"/>
<polygon fill="#63b8ff" stroke="#63b8ff" points="218.41,-32.5 217.26,-21.97 211.59,-30.92 218.41,-32.5"/>
</a>
</g>
</g>
<!-- Node8 -->
<g id="Node000008" class="node">
<title>Node8</title>
<g id="a_Node000008"><a xlink:href="Device_8h.html" target="_top" xlink:title=" ">
<polygon fill="white" stroke="#666666" points="284.78,-132 229.78,-132 229.78,-112 284.78,-112 284.78,-132"/>
<text text-anchor="middle" x="257.28" y="-118.5" font-family="Helvetica,sans-Serif" font-size="10.00">Device.h</text>
</a>
</g>
</g>
<!-- Node7&#45;&gt;Node8 -->
<g id="edge8_Node000007_Node000008" class="edge">
<title>Node7&#45;&gt;Node8</title>
<g id="a_edge8_Node000007_Node000008"><a xlink:title=" ">
<path fill="none" stroke="#63b8ff" d="M280.4,-167.59C276.79,-160.63 271.74,-150.89 267.28,-142.29"/>
<polygon fill="#63b8ff" stroke="#63b8ff" points="270.51,-140.91 262.8,-133.64 264.3,-144.13 270.51,-140.91"/>
</a>
</g>
</g>
<!-- Node9 -->
<g id="Node000009" class="node">
<title>Node9</title>
<g id="a_Node000009"><a xlink:href="Logger_8h.html" target="_top" xlink:title=" ">
<polygon fill="white" stroke="#666666" points="321.03,-76 267.53,-76 267.53,-56 321.03,-56 321.03,-76"/>
<text text-anchor="middle" x="294.28" y="-62.5" font-family="Helvetica,sans-Serif" font-size="10.00">Logger.h</text>
</a>
</g>
</g>
<!-- Node7&#45;&gt;Node9 -->
<g id="edge12_Node000007_Node000009" class="edge">
<title>Node7&#45;&gt;Node9</title>
<g id="a_edge12_Node000007_Node000009"><a xlink:title=" ">
<path fill="none" stroke="#63b8ff" d="M287.68,-167.77C289.9,-158.73 293.04,-144.53 294.28,-132 295.75,-117.18 295.7,-100.36 295.31,-87.54"/>
<polygon fill="#63b8ff" stroke="#63b8ff" points="298.82,-87.65 294.92,-77.8 291.83,-87.93 298.82,-87.65"/>
</a>
</g>
</g>
<!-- Node8&#45;&gt;Node3 -->
<g id="edge9_Node000008_Node000003" class="edge">
<title>Node8&#45;&gt;Node3</title>
<g id="a_edge9_Node000008_Node000003"><a xlink:title=" ">
<path fill="none" stroke="#63b8ff" d="M254.13,-111.62C248.15,-93.84 235.04,-54.88 227.01,-31"/>
<polygon fill="#63b8ff" stroke="#63b8ff" points="230.42,-30.15 223.91,-21.79 223.78,-32.38 230.42,-30.15"/>
</a>
</g>
</g>
<!-- Node8&#45;&gt;Node9 -->
<g id="edge10_Node000008_Node000009" class="edge">
<title>Node8&#45;&gt;Node9</title>
<g id="a_edge10_Node000008_Node000009"><a xlink:title=" ">
<path fill="none" stroke="#63b8ff" d="M263.73,-111.59C268.61,-104.47 275.47,-94.45 281.46,-85.72"/>
<polygon fill="#63b8ff" stroke="#63b8ff" points="284.29,-87.77 287.05,-77.55 278.51,-83.82 284.29,-87.77"/>
</a>
</g>
</g>
<!-- Node9&#45;&gt;Node3 -->
<g id="edge11_Node000009_Node000003" class="edge">
<title>Node9&#45;&gt;Node3</title>
<g id="a_edge11_Node000009_Node000003"><a xlink:title=" ">
<path fill="none" stroke="#63b8ff" d="M281.39,-55.59C270.57,-47.7 254.87,-36.24 242.09,-26.92"/>
<polygon fill="#63b8ff" stroke="#63b8ff" points="244.39,-24.26 234.25,-21.19 240.26,-29.91 244.39,-24.26"/>
</a>
</g>
</g>
</g>
</svg>
