<?xml version="1.0" encoding="UTF-8" standalone="no"?>
<!DOCTYPE svg PUBLIC "-//W3C//DTD SVG 1.1//EN"
 "http://www.w3.org/Graphics/SVG/1.1/DTD/svg11.dtd">
<!-- Generated by graphviz version 12.1.2 (20240928.0832)
 -->
<!-- Title: SHTC3Sensor.cpp Pages: 1 -->
<svg width="329pt" height="308pt"
 viewBox="0.00 0.00 328.88 308.00" xmlns="http://www.w3.org/2000/svg" xmlns:xlink="http://www.w3.org/1999/xlink">

<svg id="main" version="1.1" xmlns="http://www.w3.org/2000/svg" xmlns:xlink="http://www.w3.org/1999/xlink" xml:space="preserve">

<style type="text/css"><![CDATA[
.node, .edge {opacity: 0.7;}
.node.selected, .edge.selected {opacity: 1;}
.edge:hover path { stroke: red; }
.edge:hover polygon { stroke: red; fill: red; }
]]></style>
<script type="application/ecmascript" xlink:href="svg.min.js"/>
<svg id="graph" class="graph">
<g id="graph0" class="graph" transform="scale(1 1) rotate(0) translate(4 304)">
<title>SHTC3Sensor.cpp</title>
<!-- Node1 -->
<g id="Node000001" class="node">
<title>Node1</title>
<g id="a_Node000001"><a xlink:title=" ">
<polygon fill="#999999" stroke="#666666" points="207.38,-300 108.88,-300 108.88,-280 207.38,-280 207.38,-300"/>
<text text-anchor="middle" x="158.12" y="-286.5" font-family="Helvetica,sans-Serif" font-size="10.00">SHTC3Sensor.cpp</text>
</a>
</g>
</g>
<!-- Node2 -->
<g id="Node000002" class="node">
<title>Node2</title>
<g id="a_Node000002"><a xlink:href="SHTC3Sensor_8h.html" target="_top" xlink:title=" ">
<polygon fill="white" stroke="#666666" points="202.12,-244 114.12,-244 114.12,-224 202.12,-224 202.12,-244"/>
<text text-anchor="middle" x="158.12" y="-230.5" font-family="Helvetica,sans-Serif" font-size="10.00">SHTC3Sensor.h</text>
</a>
</g>
</g>
<!-- Node1&#45;&gt;Node2 -->
<g id="edge1_Node000001_Node000002" class="edge">
<title>Node1&#45;&gt;Node2</title>
<g id="a_edge1_Node000001_Node000002"><a xlink:title=" ">
<path fill="none" stroke="#63b8ff" d="M158.12,-279.59C158.12,-273.01 158.12,-263.96 158.12,-255.73"/>
<polygon fill="#63b8ff" stroke="#63b8ff" points="161.63,-255.81 158.13,-245.81 154.63,-255.81 161.63,-255.81"/>
</a>
</g>
</g>
<!-- Node3 -->
<g id="Node000003" class="node">
<title>Node3</title>
<g id="a_Node000003"><a xlink:title=" ">
<polygon fill="#e0e0e0" stroke="#999999" points="96.25,-188 0,-188 0,-168 96.25,-168 96.25,-188"/>
<text text-anchor="middle" x="48.12" y="-174.5" font-family="Helvetica,sans-Serif" font-size="10.00">Adafruit_SHTC3.h</text>
</a>
</g>
</g>
<!-- Node2&#45;&gt;Node3 -->
<g id="edge2_Node000002_Node000003" class="edge">
<title>Node2&#45;&gt;Node3</title>
<g id="a_edge2_Node000002_Node000003"><a xlink:title=" ">
<path fill="none" stroke="#63b8ff" d="M138.96,-223.59C122.03,-215.28 97.08,-203.03 77.6,-193.47"/>
<polygon fill="#63b8ff" stroke="#63b8ff" points="79.31,-190.41 68.79,-189.15 76.23,-196.7 79.31,-190.41"/>
</a>
</g>
</g>
<!-- Node4 -->
<g id="Node000004" class="node">
<title>Node4</title>
<g id="a_Node000004"><a xlink:href="PayloadConfig_8h.html" target="_top" xlink:title="Central location for pinout and config defines.">
<polygon fill="white" stroke="#666666" points="202.12,-188 114.12,-188 114.12,-168 202.12,-168 202.12,-188"/>
<text text-anchor="middle" x="158.12" y="-174.5" font-family="Helvetica,sans-Serif" font-size="10.00">PayloadConfig.h</text>
</a>
</g>
</g>
<!-- Node2&#45;&gt;Node4 -->
<g id="edge3_Node000002_Node000004" class="edge">
<title>Node2&#45;&gt;Node4</title>
<g id="a_edge3_Node000002_Node000004"><a xlink:title=" ">
<path fill="none" stroke="#63b8ff" d="M158.12,-223.59C158.12,-217.01 158.12,-207.96 158.12,-199.73"/>
<polygon fill="#63b8ff" stroke="#63b8ff" points="161.63,-199.81 158.13,-189.81 154.63,-199.81 161.63,-199.81"/>
</a>
</g>
</g>
<!-- Node5 -->
<g id="Node000005" class="node">
<title>Node5</title>
<g id="a_Node000005"><a xlink:href="Sensor_8h.html" target="_top" xlink:title=" ">
<polygon fill="white" stroke="#666666" points="275.62,-188 220.62,-188 220.62,-168 275.62,-168 275.62,-188"/>
<text text-anchor="middle" x="248.12" y="-174.5" font-family="Helvetica,sans-Serif" font-size="10.00">Sensor.h</text>
</a>
</g>
</g>
<!-- Node2&#45;&gt;Node5 -->
<g id="edge4_Node000002_Node000005" class="edge">
<title>Node2&#45;&gt;Node5</title>
<g id="a_edge4_Node000002_Node000005"><a xlink:title=" ">
<path fill="none" stroke="#63b8ff" d="M173.8,-223.59C187.27,-215.51 206.94,-203.71 222.67,-194.27"/>
<polygon fill="#63b8ff" stroke="#63b8ff" points="224.25,-197.4 231.03,-189.26 220.65,-191.4 224.25,-197.4"/>
</a>
</g>
</g>
<!-- Node6 -->
<g id="Node000006" class="node">
<title>Node6</title>
<g id="a_Node000006"><a xlink:title=" ">
<polygon fill="#e0e0e0" stroke="#999999" points="267.75,-20 210.5,-20 210.5,0 267.75,0 267.75,-20"/>
<text text-anchor="middle" x="239.12" y="-6.5" font-family="Helvetica,sans-Serif" font-size="10.00">Arduino.h</text>
</a>
</g>
</g>
<!-- Node5&#45;&gt;Node6 -->
<g id="edge5_Node000005_Node000006" class="edge">
<title>Node5&#45;&gt;Node6</title>
<g id="a_edge5_Node000005_Node000006"><a xlink:title=" ">
<path fill="none" stroke="#63b8ff" d="M237.27,-167.53C228.6,-159.18 217.09,-146.16 212.12,-132 199.89,-97.11 216.23,-54.56 228.31,-30.34"/>
<polygon fill="#63b8ff" stroke="#63b8ff" points="231.32,-32.13 232.89,-21.65 225.13,-28.86 231.32,-32.13"/>
</a>
</g>
</g>
<!-- Node7 -->
<g id="Node000007" class="node">
<title>Node7</title>
<g id="a_Node000007"><a xlink:href="Device_8h.html" target="_top" xlink:title=" ">
<polygon fill="white" stroke="#666666" points="275.62,-132 220.62,-132 220.62,-112 275.62,-112 275.62,-132"/>
<text text-anchor="middle" x="248.12" y="-118.5" font-family="Helvetica,sans-Serif" font-size="10.00">Device.h</text>
</a>
</g>
</g>
<!-- Node5&#45;&gt;Node7 -->
<g id="edge6_Node000005_Node000007" class="edge">
<title>Node5&#45;&gt;Node7</title>
<g id="a_edge6_Node000005_Node000007"><a xlink:title=" ">
<path fill="none" stroke="#63b8ff" d="M248.12,-167.59C248.12,-161.01 248.12,-151.96 248.12,-143.73"/>
<polygon fill="#63b8ff" stroke="#63b8ff" points="251.63,-143.81 248.13,-133.81 244.63,-143.81 251.63,-143.81"/>
</a>
</g>
</g>
<!-- Node8 -->
<g id="Node000008" class="node">
<title>Node8</title>
<g id="a_Node000008"><a xlink:href="Logger_8h.html" target="_top" xlink:title=" ">
<polygon fill="white" stroke="#666666" points="320.88,-76 267.38,-76 267.38,-56 320.88,-56 320.88,-76"/>
<text text-anchor="middle" x="294.12" y="-62.5" font-family="Helvetica,sans-Serif" font-size="10.00">Logger.h</text>
</a>
</g>
</g>
<!-- Node5&#45;&gt;Node8 -->
<g id="edge10_Node000005_Node000008" class="edge">
<title>Node5&#45;&gt;Node8</title>
<g id="a_edge10_Node000005_Node000008"><a xlink:title=" ">
<path fill="none" stroke="#63b8ff" d="M258.43,-167.73C267.07,-159.31 278.96,-146.08 285.12,-132 291.29,-117.92 293.46,-100.64 294.13,-87.43"/>
<polygon fill="#63b8ff" stroke="#63b8ff" points="297.62,-87.85 294.36,-77.77 290.62,-87.68 297.62,-87.85"/>
</a>
</g>
</g>
<!-- Node7&#45;&gt;Node6 -->
<g id="edge7_Node000007_Node000006" class="edge">
<title>Node7&#45;&gt;Node6</title>
<g id="a_edge7_Node000007_Node000006"><a xlink:title=" ">
<path fill="none" stroke="#63b8ff" d="M247.36,-111.62C245.92,-94.01 242.77,-55.59 240.81,-31.65"/>
<polygon fill="#63b8ff" stroke="#63b8ff" points="244.32,-31.54 240.01,-21.86 237.34,-32.12 244.32,-31.54"/>
</a>
</g>
</g>
<!-- Node7&#45;&gt;Node8 -->
<g id="edge8_Node000007_Node000008" class="edge">
<title>Node7&#45;&gt;Node8</title>
<g id="a_edge8_Node000007_Node000008"><a xlink:title=" ">
<path fill="none" stroke="#63b8ff" d="M256.14,-111.59C262.4,-104.24 271.3,-93.8 278.91,-84.87"/>
<polygon fill="#63b8ff" stroke="#63b8ff" points="281.4,-87.33 285.22,-77.45 276.07,-82.79 281.4,-87.33"/>
</a>
</g>
</g>
<!-- Node8&#45;&gt;Node6 -->
<g id="edge9_Node000008_Node000006" class="edge">
<title>Node8&#45;&gt;Node6</title>
<g id="a_edge9_Node000008_Node000006"><a xlink:title=" ">
<path fill="none" stroke="#63b8ff" d="M284.54,-55.59C276.89,-48.08 265.97,-37.35 256.75,-28.3"/>
<polygon fill="#63b8ff" stroke="#63b8ff" points="259.26,-25.87 249.68,-21.36 254.36,-30.86 259.26,-25.87"/>
</a>
</g>
</g>
</g>
</svg>
</svg>

<style type='text/css'>
<![CDATA[
[data-mouse-over-selected='false'] { opacity: 0.7; }
[data-mouse-over-selected='true']  { opacity: 1.0; }
]]>
</style>
<script type="application/ecmascript"><![CDATA[
document.addEventListener('DOMContentLoaded', (event) => {
  highlightEdges();
  highlightAdjacentNodes();
});
]]></script>
</svg>
