<?xml version="1.0" encoding="UTF-8" standalone="no"?>
<!DOCTYPE svg PUBLIC "-//W3C//DTD SVG 1.1//EN"
 "http://www.w3.org/Graphics/SVG/1.1/DTD/svg11.dtd">
<!-- Generated by graphviz version 12.1.2 (20240928.0832)
 -->
<!-- Title: Storage.h Pages: 1 -->
<svg width="393pt" height="140pt"
 viewBox="0.00 0.00 392.62 140.00" xmlns="http://www.w3.org/2000/svg" xmlns:xlink="http://www.w3.org/1999/xlink">

<svg id="main" version="1.1" xmlns="http://www.w3.org/2000/svg" xmlns:xlink="http://www.w3.org/1999/xlink" xml:space="preserve">

<style type="text/css"><![CDATA[
.node, .edge {opacity: 0.7;}
.node.selected, .edge.selected {opacity: 1;}
.edge:hover path { stroke: red; }
.edge:hover polygon { stroke: red; fill: red; }
]]></style>
<script type="application/ecmascript" xlink:href="svg.min.js"/>
<svg id="graph" class="graph">
<g id="graph0" class="graph" transform="scale(1 1) rotate(0) translate(4 136)">
<title>Storage.h</title>
<!-- Node1 -->
<g id="Node000001" class="node">
<title>Node1</title>
<g id="a_Node000001"><a xlink:title=" ">
<polygon fill="#999999" stroke="#666666" points="205.25,-132 147.25,-132 147.25,-112 205.25,-112 205.25,-132"/>
<text text-anchor="middle" x="176.25" y="-118.5" font-family="Helvetica,sans-Serif" font-size="10.00">Storage.h</text>
</a>
</g>
</g>
<!-- Node2 -->
<g id="Node000002" class="node">
<title>Node2</title>
<g id="a_Node000002"><a xlink:href="FlashStorage_8h.html" target="_top" xlink:title=" ">
<polygon fill="white" stroke="#666666" points="113.25,-76 31.25,-76 31.25,-56 113.25,-56 113.25,-76"/>
<text text-anchor="middle" x="72.25" y="-62.5" font-family="Helvetica,sans-Serif" font-size="10.00">FlashStorage.h</text>
</a>
</g>
</g>
<!-- Node1&#45;&gt;Node2 -->
<g id="edge1_Node000001_Node000002" class="edge">
<title>Node1&#45;&gt;Node2</title>
<g id="a_edge1_Node000001_Node000002"><a xlink:title=" ">
<path fill="none" stroke="#63b8ff" d="M148.03,-106.35C129.73,-96.84 106.41,-84.74 90.51,-76.48"/>
<polygon fill="#63b8ff" stroke="#63b8ff" points="146.3,-109.39 156.79,-110.9 149.53,-103.18 146.3,-109.39"/>
</a>
</g>
</g>
<!-- Node4 -->
<g id="Node000004" class="node">
<title>Node4</title>
<g id="a_Node000004"><a xlink:href="main1_8cpp.html" target="_top" xlink:title="Main functions for Core 1, responsible for sending data to storage peripherals.">
<polygon fill="white" stroke="#666666" points="171.75,-20 110.75,-20 110.75,0 171.75,0 171.75,-20"/>
<text text-anchor="middle" x="141.25" y="-6.5" font-family="Helvetica,sans-Serif" font-size="10.00">main1.cpp</text>
</a>
</g>
</g>
<!-- Node1&#45;&gt;Node4 -->
<g id="edge10_Node000001_Node000004" class="edge">
<title>Node1&#45;&gt;Node4</title>
<g id="a_edge10_Node000001_Node000004"><a xlink:title=" ">
<path fill="none" stroke="#63b8ff" d="M168.91,-101.13C166.1,-93.33 162.93,-84.28 160.25,-76 153.88,-56.31 147.29,-32.97 143.79,-20.31"/>
<polygon fill="#63b8ff" stroke="#63b8ff" points="165.55,-102.13 172.27,-110.32 172.12,-99.73 165.55,-102.13"/>
</a>
</g>
</g>
<!-- Node5 -->
<g id="Node000005" class="node">
<title>Node5</title>
<g id="a_Node000005"><a xlink:href="RadioStorage_8h.html" target="_top" xlink:title=" ">
<polygon fill="white" stroke="#666666" points="253,-76 169.5,-76 169.5,-56 253,-56 253,-76"/>
<text text-anchor="middle" x="211.25" y="-62.5" font-family="Helvetica,sans-Serif" font-size="10.00">RadioStorage.h</text>
</a>
</g>
</g>
<!-- Node1&#45;&gt;Node5 -->
<g id="edge4_Node000001_Node000005" class="edge">
<title>Node1&#45;&gt;Node5</title>
<g id="a_edge4_Node000001_Node000005"><a xlink:title=" ">
<path fill="none" stroke="#63b8ff" d="M188.47,-102.15C194.14,-93.4 200.63,-83.39 205.22,-76.3"/>
<polygon fill="#63b8ff" stroke="#63b8ff" points="185.67,-100.03 183.17,-110.32 191.55,-103.84 185.67,-100.03"/>
</a>
</g>
</g>
<!-- Node7 -->
<g id="Node000007" class="node">
<title>Node7</title>
<g id="a_Node000007"><a xlink:href="SDStorage_8h.html" target="_top" xlink:title=" ">
<polygon fill="white" stroke="#666666" points="343.38,-76 271.12,-76 271.12,-56 343.38,-56 343.38,-76"/>
<text text-anchor="middle" x="307.25" y="-62.5" font-family="Helvetica,sans-Serif" font-size="10.00">SDStorage.h</text>
</a>
</g>
</g>
<!-- Node1&#45;&gt;Node7 -->
<g id="edge7_Node000001_Node000007" class="edge">
<title>Node1&#45;&gt;Node7</title>
<g id="a_edge7_Node000001_Node000007"><a xlink:title=" ">
<path fill="none" stroke="#63b8ff" d="M209.55,-107.27C232.92,-97.64 263.57,-85.01 284.25,-76.48"/>
<polygon fill="#63b8ff" stroke="#63b8ff" points="208.38,-103.97 200.47,-111.02 211.05,-110.44 208.38,-103.97"/>
</a>
</g>
</g>
<!-- Node3 -->
<g id="Node000003" class="node">
<title>Node3</title>
<g id="a_Node000003"><a xlink:href="FlashStorage_8cpp.html" target="_top" xlink:title=" ">
<polygon fill="white" stroke="#666666" points="92.5,-20 0,-20 0,0 92.5,0 92.5,-20"/>
<text text-anchor="middle" x="46.25" y="-6.5" font-family="Helvetica,sans-Serif" font-size="10.00">FlashStorage.cpp</text>
</a>
</g>
</g>
<!-- Node2&#45;&gt;Node3 -->
<g id="edge2_Node000002_Node000003" class="edge">
<title>Node2&#45;&gt;Node3</title>
<g id="a_edge2_Node000002_Node000003"><a xlink:title=" ">
<path fill="none" stroke="#63b8ff" d="M62.76,-45.29C58.65,-36.75 54.03,-27.16 50.73,-20.3"/>
<polygon fill="#63b8ff" stroke="#63b8ff" points="59.57,-46.74 67.06,-54.23 65.88,-43.7 59.57,-46.74"/>
</a>
</g>
</g>
<!-- Node2&#45;&gt;Node4 -->
<g id="edge3_Node000002_Node000004" class="edge">
<title>Node2&#45;&gt;Node4</title>
<g id="a_edge3_Node000002_Node000004"><a xlink:title=" ">
<path fill="none" stroke="#63b8ff" d="M93.1,-48.68C104.98,-39.39 119.42,-28.09 129.37,-20.3"/>
<polygon fill="#63b8ff" stroke="#63b8ff" points="91.18,-45.74 85.46,-54.66 95.49,-51.25 91.18,-45.74"/>
</a>
</g>
</g>
<!-- Node5&#45;&gt;Node4 -->
<g id="edge6_Node000005_Node000004" class="edge">
<title>Node5&#45;&gt;Node4</title>
<g id="a_edge6_Node000005_Node000004"><a xlink:title=" ">
<path fill="none" stroke="#63b8ff" d="M190.09,-48.68C178.05,-39.39 163.4,-28.09 153.3,-20.3"/>
<polygon fill="#63b8ff" stroke="#63b8ff" points="187.8,-51.33 197.86,-54.67 192.08,-45.79 187.8,-51.33"/>
</a>
</g>
</g>
<!-- Node6 -->
<g id="Node000006" class="node">
<title>Node6</title>
<g id="a_Node000006"><a xlink:href="RadioStorage_8cpp.html" target="_top" xlink:title=" ">
<polygon fill="white" stroke="#666666" points="284.25,-20 190.25,-20 190.25,0 284.25,0 284.25,-20"/>
<text text-anchor="middle" x="237.25" y="-6.5" font-family="Helvetica,sans-Serif" font-size="10.00">RadioStorage.cpp</text>
</a>
</g>
</g>
<!-- Node5&#45;&gt;Node6 -->
<g id="edge5_Node000005_Node000006" class="edge">
<title>Node5&#45;&gt;Node6</title>
<g id="a_edge5_Node000005_Node000006"><a xlink:title=" ">
<path fill="none" stroke="#63b8ff" d="M220.74,-45.29C224.85,-36.75 229.47,-27.16 232.77,-20.3"/>
<polygon fill="#63b8ff" stroke="#63b8ff" points="217.62,-43.7 216.44,-54.23 223.93,-46.74 217.62,-43.7"/>
</a>
</g>
</g>
<!-- Node7&#45;&gt;Node4 -->
<g id="edge9_Node000007_Node000004" class="edge">
<title>Node7&#45;&gt;Node4</title>
<g id="a_edge9_Node000007_Node000004"><a xlink:title=" ">
<path fill="none" stroke="#63b8ff" d="M267.44,-52.05C237.55,-42.33 197.32,-29.24 170.39,-20.48"/>
<polygon fill="#63b8ff" stroke="#63b8ff" points="266.3,-55.36 276.9,-55.13 268.47,-48.7 266.3,-55.36"/>
</a>
</g>
</g>
<!-- Node8 -->
<g id="Node000008" class="node">
<title>Node8</title>
<g id="a_Node000008"><a xlink:href="SDStorage_8cpp.html" target="_top" xlink:title=" ">
<polygon fill="white" stroke="#666666" points="384.62,-20 301.88,-20 301.88,0 384.62,0 384.62,-20"/>
<text text-anchor="middle" x="343.25" y="-6.5" font-family="Helvetica,sans-Serif" font-size="10.00">SDStorage.cpp</text>
</a>
</g>
</g>
<!-- Node7&#45;&gt;Node8 -->
<g id="edge8_Node000007_Node000008" class="edge">
<title>Node7&#45;&gt;Node8</title>
<g id="a_edge8_Node000007_Node000008"><a xlink:title=" ">
<path fill="none" stroke="#63b8ff" d="M319.82,-46.15C325.65,-37.4 332.32,-27.39 337.05,-20.3"/>
<polygon fill="#63b8ff" stroke="#63b8ff" points="317,-44.07 314.36,-54.33 322.82,-47.96 317,-44.07"/>
</a>
</g>
</g>
</g>
</svg>
</svg>

<style type='text/css'>
<![CDATA[
[data-mouse-over-selected='false'] { opacity: 0.7; }
[data-mouse-over-selected='true']  { opacity: 1.0; }
]]>
</style>
<script type="application/ecmascript"><![CDATA[
document.addEventListener('DOMContentLoaded', (event) => {
  highlightEdges();
  highlightAdjacentNodes();
});
]]></script>
</svg>
