<?xml version="1.0" encoding="UTF-8" standalone="no"?>
<!DOCTYPE svg PUBLIC "-//W3C//DTD SVG 1.1//EN"
 "http://www.w3.org/Graphics/SVG/1.1/DTD/svg11.dtd">
<!-- Generated by graphviz version 12.1.2 (20240928.0832)
 -->
<!-- Title: FileHeader Pages: 1 -->
<svg width="102pt" height="184pt"
 viewBox="0.00 0.00 101.75 184.00" xmlns="http://www.w3.org/2000/svg" xmlns:xlink="http://www.w3.org/1999/xlink">

<svg id="main" version="1.1" xmlns="http://www.w3.org/2000/svg" xmlns:xlink="http://www.w3.org/1999/xlink" xml:space="preserve">

<style type="text/css"><![CDATA[
.node, .edge {opacity: 0.7;}
.node.selected, .edge.selected {opacity: 1;}
.edge:hover path { stroke: red; }
.edge:hover polygon { stroke: red; fill: red; }
]]></style>
<script type="application/ecmascript" xlink:href="svg.min.js"/>
<svg id="graph" class="graph">
<g id="graph0" class="graph" transform="scale(1 1) rotate(0) translate(4 180)">
<title>FileHeader</title>
<!-- Node1 -->
<g id="Node000001" class="node">
<title>Node1</title>
<g id="a_Node000001"><a xlink:title=" ">
<polygon fill="#999999" stroke="none" points="57,-52 0,-52 0,0 57,0 57,-52"/>
<text text-anchor="start" x="4.88" y="-38.5" font-family="Helvetica,sans-Serif" font-size="10.00">FileHeader</text>
<text text-anchor="start" x="27" y="-22.5" font-family="Helvetica,sans-Serif" font-size="10.00"> </text>
<text text-anchor="start" x="27" y="-6.5" font-family="Helvetica,sans-Serif" font-size="10.00"> </text>
<polygon fill="#666666" stroke="#666666" points="0,-34 0,-34 57,-34 57,-34 0,-34"/>
<polygon fill="#666666" stroke="#666666" points="0,-18 0,-18 57,-18 57,-18 0,-18"/>
<polygon fill="none" stroke="#666666" points="0,0 0,-52 57,-52 57,0 0,0"/>
</a>
</g>
</g>
<!-- Node2 -->
<g id="Node000002" class="node">
<title>Node2</title>
<g id="a_Node000002"><a xlink:title=" ">
<polygon fill="white" stroke="none" points="50.5,-176 6.5,-176 6.5,-124 50.5,-124 50.5,-176"/>
<text text-anchor="start" x="11.25" y="-162.5" font-family="Helvetica,sans-Serif" font-size="10.00">uint32_t</text>
<text text-anchor="start" x="27" y="-146.5" font-family="Helvetica,sans-Serif" font-size="10.00"> </text>
<text text-anchor="start" x="27" y="-130.5" font-family="Helvetica,sans-Serif" font-size="10.00"> </text>
<polygon fill="#666666" stroke="#666666" points="6.5,-158 6.5,-158 50.5,-158 50.5,-158 6.5,-158"/>
<polygon fill="#666666" stroke="#666666" points="6.5,-142 6.5,-142 50.5,-142 50.5,-142 6.5,-142"/>
<polygon fill="none" stroke="#666666" points="6.5,-124 6.5,-176 50.5,-176 50.5,-124 6.5,-124"/>
</a>
</g>
</g>
<!-- Node2&#45;&gt;Node1 -->
<g id="edge1_Node000001_Node000002" class="edge">
<title>Node2&#45;&gt;Node1</title>
<g id="a_edge1_Node000001_Node000002"><a xlink:title=" ">
<path fill="none" stroke="#63b8ff" d="M28.5,-124.02C28.5,-106.99 28.5,-84.14 28.5,-64.89"/>
<polygon fill="none" stroke="#63b8ff" points="28.5,-64.85 24.5,-58.85 28.5,-52.85 32.5,-58.85 28.5,-64.85"/>
</a>
</g>
<text text-anchor="middle" x="61.12" y="-96.5" font-family="Helvetica,sans-Serif" font-size="10.00" fill="grey"> +end_address</text>
<text text-anchor="middle" x="61.12" y="-84.5" font-family="Helvetica,sans-Serif" font-size="10.00" fill="grey">+file_number</text>
<text text-anchor="middle" x="61.12" y="-72.5" font-family="Helvetica,sans-Serif" font-size="10.00" fill="grey">+start_address</text>
</g>
</g>
</svg>
</svg>

<style type='text/css'>
<![CDATA[
[data-mouse-over-selected='false'] { opacity: 0.7; }
[data-mouse-over-selected='true']  { opacity: 1.0; }
]]>
</style>
<script type="application/ecmascript"><![CDATA[
document.addEventListener('DOMContentLoaded', (event) => {
  highlightEdges();
  highlightAdjacentNodes();
});
]]></script>
</svg>
