<?xml version="1.0" encoding="UTF-8" standalone="no"?>
<!DOCTYPE svg PUBLIC "-//W3C//DTD SVG 1.1//EN"
 "http://www.w3.org/Graphics/SVG/1.1/DTD/svg11.dtd">
<!-- Generated by graphviz version 12.1.2 (20240928.0832)
 -->
<!-- Title: CommandMessage Pages: 1 -->
<svg width="257pt" height="160pt"
 viewBox="0.00 0.00 257.01 160.00" xmlns="http://www.w3.org/2000/svg" xmlns:xlink="http://www.w3.org/1999/xlink">
<g id="graph0" class="graph" transform="scale(1 1) rotate(0) translate(4 156)">
<title>CommandMessage</title>
<!-- Node1 -->
<g id="Node000001" class="node">
<title>Node1</title>
<g id="a_Node000001"><a xlink:title=" ">
<polygon fill="#999999" stroke="none" points="151,-52 57,-52 57,0 151,0 151,-52"/>
<text text-anchor="start" x="61.62" y="-38.5" font-family="Helvetica,sans-Serif" font-size="10.00">CommandMessage</text>
<text text-anchor="start" x="102.5" y="-22.5" font-family="Helvetica,sans-Serif" font-size="10.00"> </text>
<text text-anchor="start" x="102.5" y="-6.5" font-family="Helvetica,sans-Serif" font-size="10.00"> </text>
<polygon fill="#666666" stroke="#666666" points="57,-34 57,-34 151,-34 151,-34 57,-34"/>
<polygon fill="#666666" stroke="#666666" points="57,-18 57,-18 151,-18 151,-18 57,-18"/>
<polygon fill="none" stroke="#666666" points="57,0 57,-52 151,-52 151,0 57,0"/>
</a>
</g>
</g>
<!-- Node2 -->
<g id="Node000002" class="node">
<title>Node2</title>
<g id="a_Node000002"><a xlink:title=" ">
<polygon fill="white" stroke="none" points="76,-152 0,-152 0,-100 76,-100 76,-152"/>
<text text-anchor="start" x="5" y="-138.5" font-family="Helvetica,sans-Serif" font-size="10.00">CommandType</text>
<text text-anchor="start" x="36.5" y="-122.5" font-family="Helvetica,sans-Serif" font-size="10.00"> </text>
<text text-anchor="start" x="36.5" y="-106.5" font-family="Helvetica,sans-Serif" font-size="10.00"> </text>
<polygon fill="#666666" stroke="#666666" points="0,-134 0,-134 76,-134 76,-134 0,-134"/>
<polygon fill="#666666" stroke="#666666" points="0,-118 0,-118 76,-118 76,-118 0,-118"/>
<polygon fill="none" stroke="#666666" points="0,-100 0,-152 76,-152 76,-100 0,-100"/>
</a>
</g>
</g>
<!-- Node2&#45;&gt;Node1 -->
<g id="edge1_Node000001_Node000002" class="edge">
<title>Node2&#45;&gt;Node1</title>
<g id="a_edge1_Node000001_Node000002"><a xlink:title=" ">
<path fill="none" stroke="#63b8ff" d="M52.93,-100.09C58.79,-90.57 65.68,-79.68 72.25,-70 73.97,-67.47 75.76,-64.89 77.6,-62.3"/>
<polygon fill="none" stroke="#63b8ff" points="77.64,-62.23 77.91,-55.03 84.67,-52.5 84.4,-59.71 77.64,-62.23"/>
</a>
</g>
<text text-anchor="middle" x="86.12" y="-72.5" font-family="Helvetica,sans-Serif" font-size="10.00" fill="grey"> +type</text>
</g>
<!-- Node3 -->
<g id="Node000003" class="node">
<title>Node3</title>
<g id="a_Node000003"><a xlink:title=" ">
<polygon fill="white" stroke="none" points="114,-152 94,-152 94,-100 114,-100 114,-152"/>
<text text-anchor="start" x="98.75" y="-138.5" font-family="Helvetica,sans-Serif" font-size="10.00">int</text>
<text text-anchor="start" x="102.5" y="-122.5" font-family="Helvetica,sans-Serif" font-size="10.00"> </text>
<text text-anchor="start" x="102.5" y="-106.5" font-family="Helvetica,sans-Serif" font-size="10.00"> </text>
<polygon fill="#666666" stroke="#666666" points="94,-134 94,-134 114,-134 114,-134 94,-134"/>
<polygon fill="#666666" stroke="#666666" points="94,-118 94,-118 114,-118 114,-118 94,-118"/>
<polygon fill="none" stroke="#666666" points="94,-100 94,-152 114,-152 114,-100 94,-100"/>
</a>
</g>
</g>
<!-- Node3&#45;&gt;Node1 -->
<g id="edge2_Node000001_Node000003" class="edge">
<title>Node3&#45;&gt;Node1</title>
<g id="a_edge2_Node000001_Node000003"><a xlink:title=" ">
<path fill="none" stroke="#63b8ff" d="M104,-100.02C104,-89.3 104,-76.56 104,-64.73"/>
<polygon fill="none" stroke="#63b8ff" points="104,-64.84 100,-58.84 104,-52.84 108,-58.84 104,-64.84"/>
</a>
</g>
<text text-anchor="middle" x="133.62" y="-72.5" font-family="Helvetica,sans-Serif" font-size="10.00" fill="grey"> +file_number</text>
</g>
<!-- Node4 -->
<g id="Node000004" class="node">
<title>Node4</title>
<g id="a_Node000004"><a xlink:title=" ">
<polygon fill="white" stroke="none" points="200,-152 172,-152 172,-100 200,-100 200,-152"/>
<text text-anchor="start" x="177" y="-138.5" font-family="Helvetica,sans-Serif" font-size="10.00">bool</text>
<text text-anchor="start" x="184.5" y="-122.5" font-family="Helvetica,sans-Serif" font-size="10.00"> </text>
<text text-anchor="start" x="184.5" y="-106.5" font-family="Helvetica,sans-Serif" font-size="10.00"> </text>
<polygon fill="#666666" stroke="#666666" points="172,-134 172,-134 200,-134 200,-134 172,-134"/>
<polygon fill="#666666" stroke="#666666" points="172,-118 172,-118 200,-118 200,-118 172,-118"/>
<polygon fill="none" stroke="#666666" points="172,-100 172,-152 200,-152 200,-100 172,-100"/>
</a>
</g>
</g>
<!-- Node4&#45;&gt;Node1 -->
<g id="edge3_Node000001_Node000004" class="edge">
<title>Node4&#45;&gt;Node1</title>
<g id="a_edge3_Node000001_Node000004"><a xlink:title=" ">
<path fill="none" stroke="#63b8ff" d="M179.41,-100.15C175.93,-90.1 170.91,-78.82 164,-70 161.31,-66.57 158.27,-63.29 155.03,-60.18"/>
<polygon fill="none" stroke="#63b8ff" points="155.22,-60.34 148.07,-59.44 146.15,-52.49 153.31,-53.39 155.22,-60.34"/>
</a>
</g>
<text text-anchor="middle" x="210.01" y="-72.5" font-family="Helvetica,sans-Serif" font-size="10.00" fill="grey"> +system_paused</text>
</g>
</g>
</svg>
