<?xml version="1.0" encoding="UTF-8" standalone="no"?>
<!DOCTYPE svg PUBLIC "-//W3C//DTD SVG 1.1//EN"
 "http://www.w3.org/Graphics/SVG/1.1/DTD/svg11.dtd">
<!-- Generated by graphviz version 12.1.2 (20240928.0832)
 -->
<!-- Title: TempSensor.h Pages: 1 -->
<svg width="121pt" height="252pt"
 viewBox="0.00 0.00 121.08 252.00" xmlns="http://www.w3.org/2000/svg" xmlns:xlink="http://www.w3.org/1999/xlink">
<g id="graph0" class="graph" transform="scale(1 1) rotate(0) translate(4 248)">
<title>TempSensor.h</title>
<!-- Node1 -->
<g id="Node000001" class="node">
<title>Node1</title>
<g id="a_Node000001"><a xlink:title=" ">
<polygon fill="#999999" stroke="#666666" points="79.83,-244 0.83,-244 0.83,-224 79.83,-224 79.83,-244"/>
<text text-anchor="middle" x="40.33" y="-230.5" font-family="Helvetica,sans-Serif" font-size="10.00">TempSensor.h</text>
</a>
</g>
</g>
<!-- Node2 -->
<g id="Node000002" class="node">
<title>Node2</title>
<g id="a_Node000002"><a xlink:href="Sensor_8h.html" target="_top" xlink:title=" ">
<polygon fill="white" stroke="#666666" points="67.83,-188 12.83,-188 12.83,-168 67.83,-168 67.83,-188"/>
<text text-anchor="middle" x="40.33" y="-174.5" font-family="Helvetica,sans-Serif" font-size="10.00">Sensor.h</text>
</a>
</g>
</g>
<!-- Node1&#45;&gt;Node2 -->
<g id="edge1_Node000001_Node000002" class="edge">
<title>Node1&#45;&gt;Node2</title>
<g id="a_edge1_Node000001_Node000002"><a xlink:title=" ">
<path fill="none" stroke="#63b8ff" d="M40.33,-223.59C40.33,-217.01 40.33,-207.96 40.33,-199.73"/>
<polygon fill="#63b8ff" stroke="#63b8ff" points="43.83,-199.81 40.33,-189.81 36.83,-199.81 43.83,-199.81"/>
</a>
</g>
</g>
<!-- Node3 -->
<g id="Node000003" class="node">
<title>Node3</title>
<g id="a_Node000003"><a xlink:title=" ">
<polygon fill="#e0e0e0" stroke="#999999" points="59.96,-20 2.71,-20 2.71,0 59.96,0 59.96,-20"/>
<text text-anchor="middle" x="31.33" y="-6.5" font-family="Helvetica,sans-Serif" font-size="10.00">Arduino.h</text>
</a>
</g>
</g>
<!-- Node2&#45;&gt;Node3 -->
<g id="edge2_Node000002_Node000003" class="edge">
<title>Node2&#45;&gt;Node3</title>
<g id="a_edge2_Node000002_Node000003"><a xlink:title=" ">
<path fill="none" stroke="#63b8ff" d="M29.48,-167.53C20.81,-159.18 9.3,-146.16 4.33,-132 -7.91,-97.11 8.44,-54.56 20.52,-30.34"/>
<polygon fill="#63b8ff" stroke="#63b8ff" points="23.53,-32.13 25.1,-21.65 17.34,-28.86 23.53,-32.13"/>
</a>
</g>
</g>
<!-- Node4 -->
<g id="Node000004" class="node">
<title>Node4</title>
<g id="a_Node000004"><a xlink:href="Device_8h.html" target="_top" xlink:title=" ">
<polygon fill="white" stroke="#666666" points="67.83,-132 12.83,-132 12.83,-112 67.83,-112 67.83,-132"/>
<text text-anchor="middle" x="40.33" y="-118.5" font-family="Helvetica,sans-Serif" font-size="10.00">Device.h</text>
</a>
</g>
</g>
<!-- Node2&#45;&gt;Node4 -->
<g id="edge3_Node000002_Node000004" class="edge">
<title>Node2&#45;&gt;Node4</title>
<g id="a_edge3_Node000002_Node000004"><a xlink:title=" ">
<path fill="none" stroke="#63b8ff" d="M40.33,-167.59C40.33,-161.01 40.33,-151.96 40.33,-143.73"/>
<polygon fill="#63b8ff" stroke="#63b8ff" points="43.83,-143.81 40.33,-133.81 36.83,-143.81 43.83,-143.81"/>
</a>
</g>
</g>
<!-- Node5 -->
<g id="Node000005" class="node">
<title>Node5</title>
<g id="a_Node000005"><a xlink:href="Logger_8h.html" target="_top" xlink:title=" ">
<polygon fill="white" stroke="#666666" points="113.08,-76 59.58,-76 59.58,-56 113.08,-56 113.08,-76"/>
<text text-anchor="middle" x="86.33" y="-62.5" font-family="Helvetica,sans-Serif" font-size="10.00">Logger.h</text>
</a>
</g>
</g>
<!-- Node2&#45;&gt;Node5 -->
<g id="edge7_Node000002_Node000005" class="edge">
<title>Node2&#45;&gt;Node5</title>
<g id="a_edge7_Node000002_Node000005"><a xlink:title=" ">
<path fill="none" stroke="#63b8ff" d="M50.64,-167.73C59.28,-159.31 71.16,-146.08 77.33,-132 83.5,-117.92 85.67,-100.64 86.34,-87.43"/>
<polygon fill="#63b8ff" stroke="#63b8ff" points="89.83,-87.85 86.57,-77.77 82.83,-87.68 89.83,-87.85"/>
</a>
</g>
</g>
<!-- Node4&#45;&gt;Node3 -->
<g id="edge4_Node000004_Node000003" class="edge">
<title>Node4&#45;&gt;Node3</title>
<g id="a_edge4_Node000004_Node000003"><a xlink:title=" ">
<path fill="none" stroke="#63b8ff" d="M39.57,-111.62C38.12,-94.01 34.98,-55.59 33.02,-31.65"/>
<polygon fill="#63b8ff" stroke="#63b8ff" points="36.53,-31.54 32.22,-21.86 29.55,-32.12 36.53,-31.54"/>
</a>
</g>
</g>
<!-- Node4&#45;&gt;Node5 -->
<g id="edge5_Node000004_Node000005" class="edge">
<title>Node4&#45;&gt;Node5</title>
<g id="a_edge5_Node000004_Node000005"><a xlink:title=" ">
<path fill="none" stroke="#63b8ff" d="M48.35,-111.59C54.61,-104.24 63.51,-93.8 71.11,-84.87"/>
<polygon fill="#63b8ff" stroke="#63b8ff" points="73.61,-87.33 77.43,-77.45 68.28,-82.79 73.61,-87.33"/>
</a>
</g>
</g>
<!-- Node5&#45;&gt;Node3 -->
<g id="edge6_Node000005_Node000003" class="edge">
<title>Node5&#45;&gt;Node3</title>
<g id="a_edge6_Node000005_Node000003"><a xlink:title=" ">
<path fill="none" stroke="#63b8ff" d="M76.75,-55.59C69.1,-48.08 58.18,-37.35 48.96,-28.3"/>
<polygon fill="#63b8ff" stroke="#63b8ff" points="51.47,-25.87 41.88,-21.36 46.57,-30.86 51.47,-25.87"/>
</a>
</g>
</g>
</g>
</svg>
