<?xml version="1.0" encoding="UTF-8" standalone="no"?>
<!DOCTYPE svg PUBLIC "-//W3C//DTD SVG 1.1//EN"
 "http://www.w3.org/Graphics/SVG/1.1/DTD/svg11.dtd">
<!-- Generated by graphviz version 12.1.2 (20240928.0832)
 -->
<!-- Title: TempSensor.cpp Pages: 1 -->
<svg width="126pt" height="308pt"
 viewBox="0.00 0.00 125.50 308.00" xmlns="http://www.w3.org/2000/svg" xmlns:xlink="http://www.w3.org/1999/xlink">
<g id="graph0" class="graph" transform="scale(1 1) rotate(0) translate(4 304)">
<title>TempSensor.cpp</title>
<!-- Node1 -->
<g id="Node000001" class="node">
<title>Node1</title>
<g id="a_Node000001"><a xlink:title=" ">
<polygon fill="#999999" stroke="#666666" points="89.5,-300 0,-300 0,-280 89.5,-280 89.5,-300"/>
<text text-anchor="middle" x="44.75" y="-286.5" font-family="Helvetica,sans-Serif" font-size="10.00">TempSensor.cpp</text>
</a>
</g>
</g>
<!-- Node2 -->
<g id="Node000002" class="node">
<title>Node2</title>
<g id="a_Node000002"><a xlink:href="TempSensor_8h.html" target="_top" xlink:title=" ">
<polygon fill="white" stroke="#666666" points="84.25,-244 5.25,-244 5.25,-224 84.25,-224 84.25,-244"/>
<text text-anchor="middle" x="44.75" y="-230.5" font-family="Helvetica,sans-Serif" font-size="10.00">TempSensor.h</text>
</a>
</g>
</g>
<!-- Node1&#45;&gt;Node2 -->
<g id="edge1_Node000001_Node000002" class="edge">
<title>Node1&#45;&gt;Node2</title>
<g id="a_edge1_Node000001_Node000002"><a xlink:title=" ">
<path fill="none" stroke="#63b8ff" d="M44.75,-279.59C44.75,-273.01 44.75,-263.96 44.75,-255.73"/>
<polygon fill="#63b8ff" stroke="#63b8ff" points="48.25,-255.81 44.75,-245.81 41.25,-255.81 48.25,-255.81"/>
</a>
</g>
</g>
<!-- Node3 -->
<g id="Node000003" class="node">
<title>Node3</title>
<g id="a_Node000003"><a xlink:href="Sensor_8h.html" target="_top" xlink:title=" ">
<polygon fill="white" stroke="#666666" points="72.25,-188 17.25,-188 17.25,-168 72.25,-168 72.25,-188"/>
<text text-anchor="middle" x="44.75" y="-174.5" font-family="Helvetica,sans-Serif" font-size="10.00">Sensor.h</text>
</a>
</g>
</g>
<!-- Node2&#45;&gt;Node3 -->
<g id="edge2_Node000002_Node000003" class="edge">
<title>Node2&#45;&gt;Node3</title>
<g id="a_edge2_Node000002_Node000003"><a xlink:title=" ">
<path fill="none" stroke="#63b8ff" d="M44.75,-223.59C44.75,-217.01 44.75,-207.96 44.75,-199.73"/>
<polygon fill="#63b8ff" stroke="#63b8ff" points="48.25,-199.81 44.75,-189.81 41.25,-199.81 48.25,-199.81"/>
</a>
</g>
</g>
<!-- Node4 -->
<g id="Node000004" class="node">
<title>Node4</title>
<g id="a_Node000004"><a xlink:title=" ">
<polygon fill="#e0e0e0" stroke="#999999" points="64.38,-20 7.13,-20 7.13,0 64.38,0 64.38,-20"/>
<text text-anchor="middle" x="35.75" y="-6.5" font-family="Helvetica,sans-Serif" font-size="10.00">Arduino.h</text>
</a>
</g>
</g>
<!-- Node3&#45;&gt;Node4 -->
<g id="edge3_Node000003_Node000004" class="edge">
<title>Node3&#45;&gt;Node4</title>
<g id="a_edge3_Node000003_Node000004"><a xlink:title=" ">
<path fill="none" stroke="#63b8ff" d="M33.9,-167.53C25.22,-159.18 13.72,-146.16 8.75,-132 -3.49,-97.11 12.86,-54.56 24.94,-30.34"/>
<polygon fill="#63b8ff" stroke="#63b8ff" points="27.95,-32.13 29.52,-21.65 21.75,-28.86 27.95,-32.13"/>
</a>
</g>
</g>
<!-- Node5 -->
<g id="Node000005" class="node">
<title>Node5</title>
<g id="a_Node000005"><a xlink:href="Device_8h.html" target="_top" xlink:title=" ">
<polygon fill="white" stroke="#666666" points="72.25,-132 17.25,-132 17.25,-112 72.25,-112 72.25,-132"/>
<text text-anchor="middle" x="44.75" y="-118.5" font-family="Helvetica,sans-Serif" font-size="10.00">Device.h</text>
</a>
</g>
</g>
<!-- Node3&#45;&gt;Node5 -->
<g id="edge4_Node000003_Node000005" class="edge">
<title>Node3&#45;&gt;Node5</title>
<g id="a_edge4_Node000003_Node000005"><a xlink:title=" ">
<path fill="none" stroke="#63b8ff" d="M44.75,-167.59C44.75,-161.01 44.75,-151.96 44.75,-143.73"/>
<polygon fill="#63b8ff" stroke="#63b8ff" points="48.25,-143.81 44.75,-133.81 41.25,-143.81 48.25,-143.81"/>
</a>
</g>
</g>
<!-- Node6 -->
<g id="Node000006" class="node">
<title>Node6</title>
<g id="a_Node000006"><a xlink:href="Logger_8h.html" target="_top" xlink:title=" ">
<polygon fill="white" stroke="#666666" points="117.5,-76 64,-76 64,-56 117.5,-56 117.5,-76"/>
<text text-anchor="middle" x="90.75" y="-62.5" font-family="Helvetica,sans-Serif" font-size="10.00">Logger.h</text>
</a>
</g>
</g>
<!-- Node3&#45;&gt;Node6 -->
<g id="edge8_Node000003_Node000006" class="edge">
<title>Node3&#45;&gt;Node6</title>
<g id="a_edge8_Node000003_Node000006"><a xlink:title=" ">
<path fill="none" stroke="#63b8ff" d="M55.05,-167.73C63.69,-159.31 75.58,-146.08 81.75,-132 87.92,-117.92 90.08,-100.64 90.75,-87.43"/>
<polygon fill="#63b8ff" stroke="#63b8ff" points="94.24,-87.85 90.98,-77.77 87.25,-87.68 94.24,-87.85"/>
</a>
</g>
</g>
<!-- Node5&#45;&gt;Node4 -->
<g id="edge5_Node000005_Node000004" class="edge">
<title>Node5&#45;&gt;Node4</title>
<g id="a_edge5_Node000005_Node000004"><a xlink:title=" ">
<path fill="none" stroke="#63b8ff" d="M43.98,-111.62C42.54,-94.01 39.4,-55.59 37.44,-31.65"/>
<polygon fill="#63b8ff" stroke="#63b8ff" points="40.94,-31.54 36.64,-21.86 33.97,-32.12 40.94,-31.54"/>
</a>
</g>
</g>
<!-- Node5&#45;&gt;Node6 -->
<g id="edge6_Node000005_Node000006" class="edge">
<title>Node5&#45;&gt;Node6</title>
<g id="a_edge6_Node000005_Node000006"><a xlink:title=" ">
<path fill="none" stroke="#63b8ff" d="M52.76,-111.59C59.03,-104.24 67.92,-93.8 75.53,-84.87"/>
<polygon fill="#63b8ff" stroke="#63b8ff" points="78.03,-87.33 81.85,-77.45 72.7,-82.79 78.03,-87.33"/>
</a>
</g>
</g>
<!-- Node6&#45;&gt;Node4 -->
<g id="edge7_Node000006_Node000004" class="edge">
<title>Node6&#45;&gt;Node4</title>
<g id="a_edge7_Node000006_Node000004"><a xlink:title=" ">
<path fill="none" stroke="#63b8ff" d="M81.17,-55.59C73.52,-48.08 62.59,-37.35 53.37,-28.3"/>
<polygon fill="#63b8ff" stroke="#63b8ff" points="55.89,-25.87 46.3,-21.36 50.98,-30.86 55.89,-25.87"/>
</a>
</g>
</g>
</g>
</svg>
