<?xml version="1.0" encoding="UTF-8" standalone="no"?>
<!DOCTYPE svg PUBLIC "-//W3C//DTD SVG 1.1//EN"
 "http://www.w3.org/Graphics/SVG/1.1/DTD/svg11.dtd">
<!-- Generated by graphviz version 2.43.0 (0)
 -->
<!-- Title: TMP11xSensor.h Pages: 1 -->
<svg width="399pt" height="247pt"
 viewBox="0.00 0.00 398.50 247.00" xmlns="http://www.w3.org/2000/svg" xmlns:xlink="http://www.w3.org/1999/xlink">

<svg id="main" version="1.1" xmlns="http://www.w3.org/2000/svg" xmlns:xlink="http://www.w3.org/1999/xlink" xml:space="preserve" onload="init(evt)">
<style type="text/css"><![CDATA[
.node, .edge {opacity: 0.7;}
.node.selected, .edge.selected {opacity: 1;}
.edge:hover path { stroke: red; }
.edge:hover polygon { stroke: red; fill: red; }
]]></style>
<script type="application/ecmascript" xlink:href="svg.min.js"/>
<svg id="graph" class="graph">
<g id="graph0" class="graph" transform="scale(1 1) rotate(0) translate(4 243)">
<title>TMP11xSensor.h</title>
<!-- Node1 -->
<g id="Node000001" class="node">
<title>Node1</title>
<g id="a_Node000001"><a xlink:title=" ">
<polygon fill="#999999" stroke="#666666" points="230,-239 133,-239 133,-220 230,-220 230,-239"/>
<text text-anchor="middle" x="181.5" y="-227" font-family="Helvetica,sans-Serif" font-size="10.00">TMP11xSensor.h</text>
</a>
</g>
</g>
<!-- Node2 -->
<g id="Node000002" class="node">
<title>Node2</title>
<g id="a_Node000002"><a xlink:title=" ">
<polygon fill="#e0e0e0" stroke="#999999" points="115,-184 0,-184 0,-165 115,-165 115,-184"/>
<text text-anchor="middle" x="57.5" y="-172" font-family="Helvetica,sans-Serif" font-size="10.00">SparkFun_TMP117.h</text>
</a>
</g>
</g>
<!-- Node1&#45;&gt;Node2 -->
<g id="edge1_Node000001_Node000002" class="edge">
<title>Node1&#45;&gt;Node2</title>
<g id="a_edge1_Node000001_Node000002"><a xlink:title=" ">
<path fill="none" stroke="#63b8ff" d="M161.58,-219.98C141.45,-211.38 110.12,-197.99 87.09,-188.15"/>
<polygon fill="#63b8ff" stroke="#63b8ff" points="88.36,-184.88 77.79,-184.17 85.6,-191.32 88.36,-184.88"/>
</a>
</g>
</g>
<!-- Node3 -->
<g id="Node000003" class="node">
<title>Node3</title>
<g id="a_Node000003"><a xlink:title=" ">
<polygon fill="#e0e0e0" stroke="#999999" points="198.5,-129 150.5,-129 150.5,-110 198.5,-110 198.5,-129"/>
<text text-anchor="middle" x="174.5" y="-117" font-family="Helvetica,sans-Serif" font-size="10.00">Wire.h</text>
</a>
</g>
</g>
<!-- Node1&#45;&gt;Node3 -->
<g id="edge2_Node000001_Node000003" class="edge">
<title>Node1&#45;&gt;Node3</title>
<g id="a_edge2_Node000001_Node000003"><a xlink:title=" ">
<path fill="none" stroke="#63b8ff" d="M176.62,-219.98C171.94,-211.26 165.19,-197.17 162.5,-184 159.37,-168.71 163.18,-151.3 167.32,-138.58"/>
<polygon fill="#63b8ff" stroke="#63b8ff" points="170.62,-139.74 170.72,-129.14 164.04,-137.36 170.62,-139.74"/>
</a>
</g>
</g>
<!-- Node4 -->
<g id="Node000004" class="node">
<title>Node4</title>
<g id="a_Node000004"><a xlink:href="PayloadConfig_8h.html" target="_top" xlink:title="Central location for pinout and config defines.">
<polygon fill="white" stroke="#666666" points="267,-184 172,-184 172,-165 267,-165 267,-184"/>
<text text-anchor="middle" x="219.5" y="-172" font-family="Helvetica,sans-Serif" font-size="10.00">PayloadConfig.h</text>
</a>
</g>
</g>
<!-- Node1&#45;&gt;Node4 -->
<g id="edge3_Node000001_Node000004" class="edge">
<title>Node1&#45;&gt;Node4</title>
<g id="a_edge3_Node000001_Node000004"><a xlink:title=" ">
<path fill="none" stroke="#63b8ff" d="M187.77,-219.75C193.09,-212.34 200.86,-201.5 207.38,-192.41"/>
<polygon fill="#63b8ff" stroke="#63b8ff" points="210.36,-194.26 213.34,-184.09 204.67,-190.18 210.36,-194.26"/>
</a>
</g>
</g>
<!-- Node5 -->
<g id="Node000005" class="node">
<title>Node5</title>
<g id="a_Node000005"><a xlink:href="Sensor_8h.html" target="_top" xlink:title=" ">
<polygon fill="white" stroke="#666666" points="343.5,-184 285.5,-184 285.5,-165 343.5,-165 343.5,-184"/>
<text text-anchor="middle" x="314.5" y="-172" font-family="Helvetica,sans-Serif" font-size="10.00">Sensor.h</text>
</a>
</g>
</g>
<!-- Node1&#45;&gt;Node5 -->
<g id="edge5_Node000001_Node000005" class="edge">
<title>Node1&#45;&gt;Node5</title>
<g id="a_edge5_Node000001_Node000005"><a xlink:title=" ">
<path fill="none" stroke="#63b8ff" d="M202.87,-219.98C224.65,-211.3 258.66,-197.75 283.42,-187.88"/>
<polygon fill="#63b8ff" stroke="#63b8ff" points="284.75,-191.12 292.74,-184.17 282.16,-184.62 284.75,-191.12"/>
</a>
</g>
</g>
<!-- Node4&#45;&gt;Node3 -->
<g id="edge4_Node000004_Node000003" class="edge">
<title>Node4&#45;&gt;Node3</title>
<g id="a_edge4_Node000004_Node000003"><a xlink:title=" ">
<path fill="none" stroke="#63b8ff" d="M212.07,-164.75C205.65,-157.18 196.19,-146.05 188.38,-136.84"/>
<polygon fill="#63b8ff" stroke="#63b8ff" points="190.93,-134.45 181.79,-129.09 185.6,-138.98 190.93,-134.45"/>
</a>
</g>
</g>
<!-- Node6 -->
<g id="Node000006" class="node">
<title>Node6</title>
<g id="a_Node000006"><a xlink:title=" ">
<polygon fill="#e0e0e0" stroke="#999999" points="336,-19 273,-19 273,0 336,0 336,-19"/>
<text text-anchor="middle" x="304.5" y="-7" font-family="Helvetica,sans-Serif" font-size="10.00">Arduino.h</text>
</a>
</g>
</g>
<!-- Node5&#45;&gt;Node6 -->
<g id="edge6_Node000005_Node000006" class="edge">
<title>Node5&#45;&gt;Node6</title>
<g id="a_edge6_Node000005_Node000006"><a xlink:title=" ">
<path fill="none" stroke="#63b8ff" d="M303.79,-164.93C294.57,-156.8 281.91,-143.68 276.5,-129 263.63,-94.12 281.66,-51.23 294.21,-27.81"/>
<polygon fill="#63b8ff" stroke="#63b8ff" points="297.29,-29.47 299.14,-19.04 291.19,-26.04 297.29,-29.47"/>
</a>
</g>
</g>
<!-- Node7 -->
<g id="Node000007" class="node">
<title>Node7</title>
<g id="a_Node000007"><a xlink:href="Device_8h.html" target="_top" xlink:title=" ">
<polygon fill="white" stroke="#666666" points="344,-129 285,-129 285,-110 344,-110 344,-129"/>
<text text-anchor="middle" x="314.5" y="-117" font-family="Helvetica,sans-Serif" font-size="10.00">Device.h</text>
</a>
</g>
</g>
<!-- Node5&#45;&gt;Node7 -->
<g id="edge7_Node000005_Node000007" class="edge">
<title>Node5&#45;&gt;Node7</title>
<g id="a_edge7_Node000005_Node000007"><a xlink:title=" ">
<path fill="none" stroke="#63b8ff" d="M314.5,-164.75C314.5,-157.8 314.5,-147.85 314.5,-139.13"/>
<polygon fill="#63b8ff" stroke="#63b8ff" points="318,-139.09 314.5,-129.09 311,-139.09 318,-139.09"/>
</a>
</g>
</g>
<!-- Node8 -->
<g id="Node000008" class="node">
<title>Node8</title>
<g id="a_Node000008"><a xlink:href="Logger_8h.html" target="_top" xlink:title=" ">
<polygon fill="white" stroke="#666666" points="390.5,-74 332.5,-74 332.5,-55 390.5,-55 390.5,-74"/>
<text text-anchor="middle" x="361.5" y="-62" font-family="Helvetica,sans-Serif" font-size="10.00">Logger.h</text>
</a>
</g>
</g>
<!-- Node5&#45;&gt;Node8 -->
<g id="edge11_Node000005_Node000008" class="edge">
<title>Node5&#45;&gt;Node8</title>
<g id="a_edge11_Node000005_Node000008"><a xlink:title=" ">
<path fill="none" stroke="#63b8ff" d="M325.05,-164.81C334.22,-156.6 347.01,-143.43 353.5,-129 359.84,-114.89 361.65,-97.35 361.98,-84.28"/>
<polygon fill="#63b8ff" stroke="#63b8ff" points="365.48,-84.14 361.97,-74.14 358.48,-84.15 365.48,-84.14"/>
</a>
</g>
</g>
<!-- Node7&#45;&gt;Node6 -->
<g id="edge8_Node000007_Node000006" class="edge">
<title>Node7&#45;&gt;Node6</title>
<g id="a_edge8_Node000007_Node000006"><a xlink:title=" ">
<path fill="none" stroke="#63b8ff" d="M313.68,-109.66C312.06,-92.17 308.42,-52.8 306.24,-29.27"/>
<polygon fill="#63b8ff" stroke="#63b8ff" points="309.71,-28.79 305.3,-19.16 302.74,-29.44 309.71,-28.79"/>
</a>
</g>
</g>
<!-- Node7&#45;&gt;Node8 -->
<g id="edge9_Node000007_Node000008" class="edge">
<title>Node7&#45;&gt;Node8</title>
<g id="a_edge9_Node000007_Node000008"><a xlink:title=" ">
<path fill="none" stroke="#63b8ff" d="M322.26,-109.75C328.97,-102.18 338.84,-91.05 347.01,-81.84"/>
<polygon fill="#63b8ff" stroke="#63b8ff" points="349.87,-83.89 353.88,-74.09 344.63,-79.25 349.87,-83.89"/>
</a>
</g>
</g>
<!-- Node8&#45;&gt;Node6 -->
<g id="edge10_Node000008_Node000006" class="edge">
<title>Node8&#45;&gt;Node6</title>
<g id="a_edge10_Node000008_Node000006"><a xlink:title=" ">
<path fill="none" stroke="#63b8ff" d="M352.34,-54.98C344,-47.23 331.47,-35.58 321.32,-26.14"/>
<polygon fill="#63b8ff" stroke="#63b8ff" points="323.53,-23.42 313.82,-19.17 318.76,-28.54 323.53,-23.42"/>
</a>
</g>
</g>
</g>
</svg>
</svg>

<style type='text/css'>
<![CDATA[
[data-mouse-over-selected='false'] { opacity: 0.7; }
[data-mouse-over-selected='true']  { opacity: 1.0; }
]]>
</style>
<script type="application/ecmascript"><![CDATA[
document.addEventListener('DOMContentLoaded', (event) => {
  highlightEdges();
  highlightAdjacentNodes();
});
]]></script>
</svg>
