<?xml version="1.0" encoding="UTF-8" standalone="no"?>
<!DOCTYPE svg PUBLIC "-//W3C//DTD SVG 1.1//EN"
 "http://www.w3.org/Graphics/SVG/1.1/DTD/svg11.dtd">
<!-- Generated by graphviz version 12.1.2 (20240928.0832)
 -->
<!-- Title: TMP117Sensor.h Pages: 1 -->
<svg width="403pt" height="252pt"
 viewBox="0.00 0.00 402.50 252.00" xmlns="http://www.w3.org/2000/svg" xmlns:xlink="http://www.w3.org/1999/xlink">
<g id="graph0" class="graph" transform="scale(1 1) rotate(0) translate(4 248)">
<title>TMP117Sensor.h</title>
<!-- Node1 -->
<g id="Node000001" class="node">
<title>Node1</title>
<g id="a_Node000001"><a xlink:title=" ">
<polygon fill="#999999" stroke="#666666" points="235.25,-244 144.25,-244 144.25,-224 235.25,-224 235.25,-244"/>
<text text-anchor="middle" x="189.75" y="-230.5" font-family="Helvetica,sans-Serif" font-size="10.00">TMP117Sensor.h</text>
</a>
</g>
</g>
<!-- Node2 -->
<g id="Node000002" class="node">
<title>Node2</title>
<g id="a_Node000002"><a xlink:title=" ">
<polygon fill="#e0e0e0" stroke="#999999" points="107.5,-188 0,-188 0,-168 107.5,-168 107.5,-188"/>
<text text-anchor="middle" x="53.75" y="-174.5" font-family="Helvetica,sans-Serif" font-size="10.00">SparkFun_TMP117.h</text>
</a>
</g>
</g>
<!-- Node1&#45;&gt;Node2 -->
<g id="edge1_Node000001_Node000002" class="edge">
<title>Node1&#45;&gt;Node2</title>
<g id="a_edge1_Node000001_Node000002"><a xlink:title=" ">
<path fill="none" stroke="#63b8ff" d="M166.06,-223.59C144.55,-215.05 112.55,-202.35 88.21,-192.68"/>
<polygon fill="#63b8ff" stroke="#63b8ff" points="89.62,-189.48 79.03,-189.04 87.03,-195.98 89.62,-189.48"/>
</a>
</g>
</g>
<!-- Node3 -->
<g id="Node000003" class="node">
<title>Node3</title>
<g id="a_Node000003"><a xlink:title=" ">
<polygon fill="#e0e0e0" stroke="#999999" points="170,-188 125.5,-188 125.5,-168 170,-168 170,-188"/>
<text text-anchor="middle" x="147.75" y="-174.5" font-family="Helvetica,sans-Serif" font-size="10.00">Wire.h</text>
</a>
</g>
</g>
<!-- Node1&#45;&gt;Node3 -->
<g id="edge2_Node000001_Node000003" class="edge">
<title>Node1&#45;&gt;Node3</title>
<g id="a_edge2_Node000001_Node000003"><a xlink:title=" ">
<path fill="none" stroke="#63b8ff" d="M182.43,-223.59C176.77,-216.32 168.76,-206.02 161.86,-197.15"/>
<polygon fill="#63b8ff" stroke="#63b8ff" points="164.81,-195.24 155.91,-189.49 159.29,-199.54 164.81,-195.24"/>
</a>
</g>
</g>
<!-- Node4 -->
<g id="Node000004" class="node">
<title>Node4</title>
<g id="a_Node000004"><a xlink:href="PayloadConfig_8h.html" target="_top" xlink:title="Central location for pinout and config defines.">
<polygon fill="white" stroke="#666666" points="275.75,-188 187.75,-188 187.75,-168 275.75,-168 275.75,-188"/>
<text text-anchor="middle" x="231.75" y="-174.5" font-family="Helvetica,sans-Serif" font-size="10.00">PayloadConfig.h</text>
</a>
</g>
</g>
<!-- Node1&#45;&gt;Node4 -->
<g id="edge3_Node000001_Node000004" class="edge">
<title>Node1&#45;&gt;Node4</title>
<g id="a_edge3_Node000001_Node000004"><a xlink:title=" ">
<path fill="none" stroke="#63b8ff" d="M197.07,-223.59C202.73,-216.32 210.74,-206.02 217.64,-197.15"/>
<polygon fill="#63b8ff" stroke="#63b8ff" points="220.21,-199.54 223.59,-189.49 214.69,-195.24 220.21,-199.54"/>
</a>
</g>
</g>
<!-- Node5 -->
<g id="Node000005" class="node">
<title>Node5</title>
<g id="a_Node000005"><a xlink:href="Sensor_8h.html" target="_top" xlink:title=" ">
<polygon fill="white" stroke="#666666" points="349.25,-188 294.25,-188 294.25,-168 349.25,-168 349.25,-188"/>
<text text-anchor="middle" x="321.75" y="-174.5" font-family="Helvetica,sans-Serif" font-size="10.00">Sensor.h</text>
</a>
</g>
</g>
<!-- Node1&#45;&gt;Node5 -->
<g id="edge4_Node000001_Node000005" class="edge">
<title>Node1&#45;&gt;Node5</title>
<g id="a_edge4_Node000001_Node000005"><a xlink:title=" ">
<path fill="none" stroke="#63b8ff" d="M212.74,-223.59C233.53,-215.09 264.4,-202.46 287.99,-192.81"/>
<polygon fill="#63b8ff" stroke="#63b8ff" points="289.25,-196.08 297.18,-189.05 286.6,-189.6 289.25,-196.08"/>
</a>
</g>
</g>
<!-- Node6 -->
<g id="Node000006" class="node">
<title>Node6</title>
<g id="a_Node000006"><a xlink:title=" ">
<polygon fill="#e0e0e0" stroke="#999999" points="341.38,-20 284.12,-20 284.12,0 341.38,0 341.38,-20"/>
<text text-anchor="middle" x="312.75" y="-6.5" font-family="Helvetica,sans-Serif" font-size="10.00">Arduino.h</text>
</a>
</g>
</g>
<!-- Node5&#45;&gt;Node6 -->
<g id="edge5_Node000005_Node000006" class="edge">
<title>Node5&#45;&gt;Node6</title>
<g id="a_edge5_Node000005_Node000006"><a xlink:title=" ">
<path fill="none" stroke="#63b8ff" d="M310.9,-167.53C302.22,-159.18 290.72,-146.16 285.75,-132 273.51,-97.11 289.86,-54.56 301.94,-30.34"/>
<polygon fill="#63b8ff" stroke="#63b8ff" points="304.95,-32.13 306.52,-21.65 298.75,-28.86 304.95,-32.13"/>
</a>
</g>
</g>
<!-- Node7 -->
<g id="Node000007" class="node">
<title>Node7</title>
<g id="a_Node000007"><a xlink:href="Device_8h.html" target="_top" xlink:title=" ">
<polygon fill="white" stroke="#666666" points="349.25,-132 294.25,-132 294.25,-112 349.25,-112 349.25,-132"/>
<text text-anchor="middle" x="321.75" y="-118.5" font-family="Helvetica,sans-Serif" font-size="10.00">Device.h</text>
</a>
</g>
</g>
<!-- Node5&#45;&gt;Node7 -->
<g id="edge6_Node000005_Node000007" class="edge">
<title>Node5&#45;&gt;Node7</title>
<g id="a_edge6_Node000005_Node000007"><a xlink:title=" ">
<path fill="none" stroke="#63b8ff" d="M321.75,-167.59C321.75,-161.01 321.75,-151.96 321.75,-143.73"/>
<polygon fill="#63b8ff" stroke="#63b8ff" points="325.25,-143.81 321.75,-133.81 318.25,-143.81 325.25,-143.81"/>
</a>
</g>
</g>
<!-- Node8 -->
<g id="Node000008" class="node">
<title>Node8</title>
<g id="a_Node000008"><a xlink:href="Logger_8h.html" target="_top" xlink:title=" ">
<polygon fill="white" stroke="#666666" points="394.5,-76 341,-76 341,-56 394.5,-56 394.5,-76"/>
<text text-anchor="middle" x="367.75" y="-62.5" font-family="Helvetica,sans-Serif" font-size="10.00">Logger.h</text>
</a>
</g>
</g>
<!-- Node5&#45;&gt;Node8 -->
<g id="edge10_Node000005_Node000008" class="edge">
<title>Node5&#45;&gt;Node8</title>
<g id="a_edge10_Node000005_Node000008"><a xlink:title=" ">
<path fill="none" stroke="#63b8ff" d="M332.05,-167.73C340.69,-159.31 352.58,-146.08 358.75,-132 364.92,-117.92 367.08,-100.64 367.75,-87.43"/>
<polygon fill="#63b8ff" stroke="#63b8ff" points="371.24,-87.85 367.98,-77.77 364.25,-87.68 371.24,-87.85"/>
</a>
</g>
</g>
<!-- Node7&#45;&gt;Node6 -->
<g id="edge7_Node000007_Node000006" class="edge">
<title>Node7&#45;&gt;Node6</title>
<g id="a_edge7_Node000007_Node000006"><a xlink:title=" ">
<path fill="none" stroke="#63b8ff" d="M320.98,-111.62C319.54,-94.01 316.4,-55.59 314.44,-31.65"/>
<polygon fill="#63b8ff" stroke="#63b8ff" points="317.94,-31.54 313.64,-21.86 310.97,-32.12 317.94,-31.54"/>
</a>
</g>
</g>
<!-- Node7&#45;&gt;Node8 -->
<g id="edge8_Node000007_Node000008" class="edge">
<title>Node7&#45;&gt;Node8</title>
<g id="a_edge8_Node000007_Node000008"><a xlink:title=" ">
<path fill="none" stroke="#63b8ff" d="M329.76,-111.59C336.03,-104.24 344.92,-93.8 352.53,-84.87"/>
<polygon fill="#63b8ff" stroke="#63b8ff" points="355.03,-87.33 358.85,-77.45 349.7,-82.79 355.03,-87.33"/>
</a>
</g>
</g>
<!-- Node8&#45;&gt;Node6 -->
<g id="edge9_Node000008_Node000006" class="edge">
<title>Node8&#45;&gt;Node6</title>
<g id="a_edge9_Node000008_Node000006"><a xlink:title=" ">
<path fill="none" stroke="#63b8ff" d="M358.17,-55.59C350.52,-48.08 339.59,-37.35 330.37,-28.3"/>
<polygon fill="#63b8ff" stroke="#63b8ff" points="332.89,-25.87 323.3,-21.36 327.98,-30.86 332.89,-25.87"/>
</a>
</g>
</g>
</g>
</svg>
