<?xml version="1.0" encoding="UTF-8" standalone="no"?>
<!DOCTYPE svg PUBLIC "-//W3C//DTD SVG 1.1//EN"
 "http://www.w3.org/Graphics/SVG/1.1/DTD/svg11.dtd">
<!-- Generated by graphviz version 12.1.2 (20240928.0832)
 -->
<!-- Title: TMP117Sensor.h Pages: 1 -->
<svg width="304pt" height="84pt"
 viewBox="0.00 0.00 304.00 84.00" xmlns="http://www.w3.org/2000/svg" xmlns:xlink="http://www.w3.org/1999/xlink">
<g id="graph0" class="graph" transform="scale(1 1) rotate(0) translate(4 80)">
<title>TMP117Sensor.h</title>
<!-- Node1 -->
<g id="Node000001" class="node">
<title>Node1</title>
<g id="a_Node000001"><a xlink:title=" ">
<polygon fill="#999999" stroke="#666666" points="216.62,-76 125.62,-76 125.62,-56 216.62,-56 216.62,-76"/>
<text text-anchor="middle" x="171.12" y="-62.5" font-family="Helvetica,sans-Serif" font-size="10.00">TMP117Sensor.h</text>
</a>
</g>
</g>
<!-- Node2 -->
<g id="Node000002" class="node">
<title>Node2</title>
<g id="a_Node000002"><a xlink:href="ENS160Sensor_8cpp.html" target="_top" xlink:title=" ">
<polygon fill="white" stroke="#666666" points="102.25,-20 0,-20 0,0 102.25,0 102.25,-20"/>
<text text-anchor="middle" x="51.12" y="-6.5" font-family="Helvetica,sans-Serif" font-size="10.00">ENS160Sensor.cpp</text>
</a>
</g>
</g>
<!-- Node1&#45;&gt;Node2 -->
<g id="edge1_Node000001_Node000002" class="edge">
<title>Node1&#45;&gt;Node2</title>
<g id="a_edge1_Node000001_Node000002"><a xlink:title=" ">
<path fill="none" stroke="#63b8ff" d="M139.74,-50.88C118.45,-41.3 90.88,-28.89 72.19,-20.48"/>
<polygon fill="#63b8ff" stroke="#63b8ff" points="138.29,-54.06 148.84,-54.97 141.16,-47.68 138.29,-54.06"/>
</a>
</g>
</g>
<!-- Node3 -->
<g id="Node000003" class="node">
<title>Node3</title>
<g id="a_Node000003"><a xlink:href="TMP117Sensor_8cpp.html" target="_top" xlink:title=" ">
<polygon fill="white" stroke="#666666" points="221.88,-20 120.38,-20 120.38,0 221.88,0 221.88,-20"/>
<text text-anchor="middle" x="171.12" y="-6.5" font-family="Helvetica,sans-Serif" font-size="10.00">TMP117Sensor.cpp</text>
</a>
</g>
</g>
<!-- Node1&#45;&gt;Node3 -->
<g id="edge2_Node000001_Node000003" class="edge">
<title>Node1&#45;&gt;Node3</title>
<g id="a_edge2_Node000001_Node000003"><a xlink:title=" ">
<path fill="none" stroke="#63b8ff" d="M171.12,-44.13C171.12,-35.9 171.12,-26.85 171.12,-20.3"/>
<polygon fill="#63b8ff" stroke="#63b8ff" points="167.63,-44.08 171.13,-54.08 174.63,-44.08 167.63,-44.08"/>
</a>
</g>
</g>
<!-- Node4 -->
<g id="Node000004" class="node">
<title>Node4</title>
<g id="a_Node000004"><a xlink:href="main_8cpp.html" target="_top" xlink:title="Main functions for Core 0, responsible for reading data from sensor peripherals.">
<polygon fill="white" stroke="#666666" points="296,-20 240.25,-20 240.25,0 296,0 296,-20"/>
<text text-anchor="middle" x="268.12" y="-6.5" font-family="Helvetica,sans-Serif" font-size="10.00">main.cpp</text>
</a>
</g>
</g>
<!-- Node1&#45;&gt;Node4 -->
<g id="edge3_Node000001_Node000004" class="edge">
<title>Node1&#45;&gt;Node4</title>
<g id="a_edge3_Node000001_Node000004"><a xlink:title=" ">
<path fill="none" stroke="#63b8ff" d="M197.93,-50.08C214.92,-40.62 236.4,-28.66 251.1,-20.48"/>
<polygon fill="#63b8ff" stroke="#63b8ff" points="196.38,-46.94 189.34,-54.86 199.78,-53.05 196.38,-46.94"/>
</a>
</g>
</g>
</g>
</svg>
